%TF.GenerationSoftware,KiCad,Pcbnew,10.0.6*%
%TF.CreationDate,2026-09-30T04:01:41+08:00*%
%TF.ProjectId,PoseDoll_O15_Central_C1,506f7365-446f-46c6-9c5f-4f31355f4365,rev?*%
%TF.SameCoordinates,Original*%
%TF.FileFunction,Soldermask,Bot*%
%TF.FilePolarity,Negative*%
%FSLAX46Y46*%
G04 Gerber Fmt 4.6, Leading zero omitted, Abs format (unit mm)*
G04 Created by KiCad (PCBNEW 10.0.6) date 2026-09-30 04:01:41*
%MOMM*%
%LPD*%
G01*
G04 APERTURE LIST*
G04 Aperture macros list*
%AMRoundRect*
0 Rectangle with rounded corners*
0 $1 Rounding radius*
0 $2 $3 $4 $5 $6 $7 $8 $9 X,Y pos of 4 corners*
0 Add a 4 corners polygon primitive as box body*
4,1,4,$2,$3,$4,$5,$6,$7,$8,$9,$2,$3,0*
0 Add four circle primitives for the rounded corners*
1,1,$1+$1,$2,$3*
1,1,$1+$1,$4,$5*
1,1,$1+$1,$6,$7*
1,1,$1+$1,$8,$9*
0 Add four rect primitives between the rounded corners*
20,1,$1+$1,$2,$3,$4,$5,0*
20,1,$1+$1,$4,$5,$6,$7,0*
20,1,$1+$1,$6,$7,$8,$9,0*
20,1,$1+$1,$8,$9,$2,$3,0*%
G04 Aperture macros list end*
%ADD10RoundRect,0.225000X0.225000X0.250000X-0.225000X0.250000X-0.225000X-0.250000X0.225000X-0.250000X0*%
%ADD11RoundRect,0.200000X0.200000X0.275000X-0.200000X0.275000X-0.200000X-0.275000X0.200000X-0.275000X0*%
%ADD12C,1.000000*%
G04 APERTURE END LIST*
D10*
%TO.C,C105*%
X15775000Y-14000000D03*
X14225000Y-14000000D03*
%TD*%
D11*
%TO.C,R305*%
X9825000Y-51000000D03*
X8175000Y-51000000D03*
%TD*%
%TO.C,R501*%
X48825000Y-31000000D03*
X47175000Y-31000000D03*
%TD*%
D10*
%TO.C,C202*%
X17775000Y-24000000D03*
X16225000Y-24000000D03*
%TD*%
D11*
%TO.C,R200*%
X22325000Y-27000000D03*
X20675000Y-27000000D03*
%TD*%
%TO.C,R202*%
X17825000Y-37000000D03*
X16175000Y-37000000D03*
%TD*%
%TO.C,R607*%
X61825000Y-55000000D03*
X60175000Y-55000000D03*
%TD*%
%TO.C,R103*%
X9825000Y-6500000D03*
X8175000Y-6500000D03*
%TD*%
%TO.C,R508*%
X61825000Y-23000000D03*
X60175000Y-23000000D03*
%TD*%
D10*
%TO.C,C100*%
X16775000Y-3000000D03*
X15225000Y-3000000D03*
%TD*%
D11*
%TO.C,R109*%
X9825000Y-15000000D03*
X8175000Y-15000000D03*
%TD*%
D10*
%TO.C,C605*%
X55775000Y-52000000D03*
X54225000Y-52000000D03*
%TD*%
%TO.C,C302*%
X17775000Y-43000000D03*
X16225000Y-43000000D03*
%TD*%
D11*
%TO.C,R302*%
X17825000Y-56000000D03*
X16175000Y-56000000D03*
%TD*%
%TO.C,R602*%
X53825000Y-56000000D03*
X52175000Y-56000000D03*
%TD*%
%TO.C,R509*%
X61825000Y-34000000D03*
X60175000Y-34000000D03*
%TD*%
D12*
%TO.C,TP5*%
X47000000Y-29000000D03*
%TD*%
D11*
%TO.C,R600*%
X49325000Y-46000000D03*
X47675000Y-46000000D03*
%TD*%
%TO.C,R310*%
X21825000Y-57000000D03*
X20175000Y-57000000D03*
%TD*%
D12*
%TO.C,TP6*%
X47000000Y-48000000D03*
%TD*%
D10*
%TO.C,C101*%
X13275000Y-6500000D03*
X11725000Y-6500000D03*
%TD*%
D11*
%TO.C,R500*%
X49325000Y-27000000D03*
X47675000Y-27000000D03*
%TD*%
D12*
%TO.C,TP3*%
X23000000Y-48000000D03*
%TD*%
D11*
%TO.C,R300*%
X22325000Y-46000000D03*
X20675000Y-46000000D03*
%TD*%
%TO.C,R502*%
X53825000Y-37000000D03*
X52175000Y-37000000D03*
%TD*%
%TO.C,R503*%
X61825000Y-25000000D03*
X60175000Y-25000000D03*
%TD*%
%TO.C,R307*%
X9825000Y-55000000D03*
X8175000Y-55000000D03*
%TD*%
D10*
%TO.C,C305*%
X15775000Y-52000000D03*
X14225000Y-52000000D03*
%TD*%
D11*
%TO.C,R101*%
X22825000Y-12000000D03*
X21175000Y-12000000D03*
%TD*%
%TO.C,R206*%
X18825000Y-27000000D03*
X17175000Y-27000000D03*
%TD*%
D10*
%TO.C,C403*%
X52275000Y-15000000D03*
X50725000Y-15000000D03*
%TD*%
D11*
%TO.C,R610*%
X49825000Y-57000000D03*
X48175000Y-57000000D03*
%TD*%
%TO.C,R606*%
X52825000Y-46000000D03*
X51175000Y-46000000D03*
%TD*%
D10*
%TO.C,C401*%
X58275000Y-6500000D03*
X56725000Y-6500000D03*
%TD*%
D11*
%TO.C,R2*%
X39825000Y-28000000D03*
X38175000Y-28000000D03*
%TD*%
%TO.C,R100*%
X22325000Y-8000000D03*
X20675000Y-8000000D03*
%TD*%
D10*
%TO.C,C205*%
X15775000Y-33000000D03*
X14225000Y-33000000D03*
%TD*%
D11*
%TO.C,R603*%
X61825000Y-44000000D03*
X60175000Y-44000000D03*
%TD*%
%TO.C,R303*%
X9825000Y-44000000D03*
X8175000Y-44000000D03*
%TD*%
D10*
%TO.C,C102*%
X17775000Y-5000000D03*
X16225000Y-5000000D03*
%TD*%
D11*
%TO.C,R207*%
X9825000Y-36000000D03*
X8175000Y-36000000D03*
%TD*%
D10*
%TO.C,C104*%
X15775000Y-10000000D03*
X14225000Y-10000000D03*
%TD*%
%TO.C,C303*%
X19275000Y-53000000D03*
X17725000Y-53000000D03*
%TD*%
D11*
%TO.C,R203*%
X9825000Y-25000000D03*
X8175000Y-25000000D03*
%TD*%
%TO.C,R105*%
X9825000Y-13000000D03*
X8175000Y-13000000D03*
%TD*%
D10*
%TO.C,C203*%
X19275000Y-34000000D03*
X17725000Y-34000000D03*
%TD*%
D12*
%TO.C,TP4*%
X47000000Y-10000000D03*
%TD*%
D10*
%TO.C,C301*%
X11775000Y-40000000D03*
X10225000Y-40000000D03*
%TD*%
%TO.C,C504*%
X55775000Y-29000000D03*
X54225000Y-29000000D03*
%TD*%
%TO.C,C404*%
X55775000Y-10000000D03*
X54225000Y-10000000D03*
%TD*%
D11*
%TO.C,R106*%
X18825000Y-8000000D03*
X17175000Y-8000000D03*
%TD*%
D10*
%TO.C,C601*%
X59775000Y-40000000D03*
X58225000Y-40000000D03*
%TD*%
%TO.C,C501*%
X59775000Y-21000000D03*
X58225000Y-21000000D03*
%TD*%
D11*
%TO.C,R204*%
X9825000Y-29000000D03*
X8175000Y-29000000D03*
%TD*%
%TO.C,R201*%
X22825000Y-31000000D03*
X21175000Y-31000000D03*
%TD*%
%TO.C,R510*%
X49825000Y-38000000D03*
X48175000Y-38000000D03*
%TD*%
%TO.C,R108*%
X7325000Y-4000000D03*
X5675000Y-4000000D03*
%TD*%
%TO.C,R301*%
X22825000Y-50000000D03*
X21175000Y-50000000D03*
%TD*%
D10*
%TO.C,C602*%
X53775000Y-43000000D03*
X52225000Y-43000000D03*
%TD*%
%TO.C,C200*%
X16775000Y-22000000D03*
X15225000Y-22000000D03*
%TD*%
D11*
%TO.C,R1*%
X35825000Y-28000000D03*
X34175000Y-28000000D03*
%TD*%
%TO.C,R210*%
X21825000Y-38000000D03*
X20175000Y-38000000D03*
%TD*%
D10*
%TO.C,C505*%
X55775000Y-33000000D03*
X54225000Y-33000000D03*
%TD*%
%TO.C,C603*%
X52275000Y-53000000D03*
X50725000Y-53000000D03*
%TD*%
%TO.C,C300*%
X16775000Y-41000000D03*
X15225000Y-41000000D03*
%TD*%
D11*
%TO.C,R400*%
X49325000Y-8000000D03*
X47675000Y-8000000D03*
%TD*%
%TO.C,R505*%
X61825000Y-32000000D03*
X60175000Y-32000000D03*
%TD*%
%TO.C,R107*%
X9825000Y-17000000D03*
X8175000Y-17000000D03*
%TD*%
%TO.C,R609*%
X61825000Y-53000000D03*
X60175000Y-53000000D03*
%TD*%
D10*
%TO.C,C405*%
X55775000Y-14000000D03*
X54225000Y-14000000D03*
%TD*%
D11*
%TO.C,R409*%
X61825000Y-15000000D03*
X60175000Y-15000000D03*
%TD*%
%TO.C,R408*%
X61825000Y-6500000D03*
X60175000Y-6500000D03*
%TD*%
%TO.C,R604*%
X61825000Y-48000000D03*
X60175000Y-48000000D03*
%TD*%
%TO.C,R601*%
X48825000Y-50000000D03*
X47175000Y-50000000D03*
%TD*%
D10*
%TO.C,C103*%
X19275000Y-15000000D03*
X17725000Y-15000000D03*
%TD*%
D11*
%TO.C,R110*%
X21825000Y-19000000D03*
X20175000Y-19000000D03*
%TD*%
%TO.C,R309*%
X9825000Y-53000000D03*
X8175000Y-53000000D03*
%TD*%
%TO.C,R104*%
X9825000Y-10000000D03*
X8175000Y-10000000D03*
%TD*%
%TO.C,R605*%
X61825000Y-51000000D03*
X60175000Y-51000000D03*
%TD*%
D12*
%TO.C,TP2*%
X23000000Y-29000000D03*
%TD*%
D10*
%TO.C,C1*%
X30775000Y-48000000D03*
X29225000Y-48000000D03*
%TD*%
D11*
%TO.C,R208*%
X9825000Y-23000000D03*
X8175000Y-23000000D03*
%TD*%
D10*
%TO.C,C500*%
X54775000Y-22000000D03*
X53225000Y-22000000D03*
%TD*%
%TO.C,C604*%
X55775000Y-48000000D03*
X54225000Y-48000000D03*
%TD*%
%TO.C,C600*%
X54775000Y-41000000D03*
X53225000Y-41000000D03*
%TD*%
D11*
%TO.C,R405*%
X61825000Y-13000000D03*
X60175000Y-13000000D03*
%TD*%
D10*
%TO.C,C201*%
X11775000Y-21000000D03*
X10225000Y-21000000D03*
%TD*%
D11*
%TO.C,R507*%
X61825000Y-36000000D03*
X60175000Y-36000000D03*
%TD*%
D10*
%TO.C,C503*%
X52275000Y-34000000D03*
X50725000Y-34000000D03*
%TD*%
D11*
%TO.C,R402*%
X53825000Y-18000000D03*
X52175000Y-18000000D03*
%TD*%
D10*
%TO.C,C2*%
X39775000Y-48000000D03*
X38225000Y-48000000D03*
%TD*%
D11*
%TO.C,R209*%
X9825000Y-34000000D03*
X8175000Y-34000000D03*
%TD*%
%TO.C,R306*%
X18825000Y-46000000D03*
X17175000Y-46000000D03*
%TD*%
%TO.C,R308*%
X9825000Y-42000000D03*
X8175000Y-42000000D03*
%TD*%
%TO.C,R205*%
X9825000Y-32000000D03*
X8175000Y-32000000D03*
%TD*%
D10*
%TO.C,C400*%
X54775000Y-3000000D03*
X53225000Y-3000000D03*
%TD*%
D11*
%TO.C,R304*%
X9825000Y-48000000D03*
X8175000Y-48000000D03*
%TD*%
%TO.C,R404*%
X61825000Y-10000000D03*
X60175000Y-10000000D03*
%TD*%
%TO.C,R608*%
X61825000Y-42000000D03*
X60175000Y-42000000D03*
%TD*%
D10*
%TO.C,C502*%
X53775000Y-24000000D03*
X52225000Y-24000000D03*
%TD*%
D11*
%TO.C,R102*%
X17825000Y-18000000D03*
X16175000Y-18000000D03*
%TD*%
%TO.C,R406*%
X52825000Y-8000000D03*
X51175000Y-8000000D03*
%TD*%
%TO.C,R506*%
X52825000Y-27000000D03*
X51175000Y-27000000D03*
%TD*%
%TO.C,R407*%
X61825000Y-17000000D03*
X60175000Y-17000000D03*
%TD*%
%TO.C,R401*%
X48825000Y-12000000D03*
X47175000Y-12000000D03*
%TD*%
%TO.C,R410*%
X49825000Y-19000000D03*
X48175000Y-19000000D03*
%TD*%
%TO.C,R504*%
X61825000Y-29000000D03*
X60175000Y-29000000D03*
%TD*%
%TO.C,R403*%
X64325000Y-4500000D03*
X62675000Y-4500000D03*
%TD*%
D12*
%TO.C,TP1*%
X23000000Y-10000000D03*
%TD*%
D10*
%TO.C,C304*%
X15775000Y-48000000D03*
X14225000Y-48000000D03*
%TD*%
%TO.C,C204*%
X15775000Y-29000000D03*
X14225000Y-29000000D03*
%TD*%
%TO.C,C402*%
X53775000Y-5000000D03*
X52225000Y-5000000D03*
%TD*%
M02*
