ISO-10303-21;
HEADER;
FILE_DESCRIPTION(('Open CASCADE Model'),'2;1');
FILE_NAME('Open CASCADE Shape Model','2026-09-24T19:52:59',('Author'),(
    'Open CASCADE'),'Open CASCADE STEP processor 7.8','Open CASCADE 7.8'
  ,'Unknown');
FILE_SCHEMA(('AUTOMOTIVE_DESIGN { 1 0 10303 214 1 1 1 1 }'));
ENDSEC;
DATA;
#1 = APPLICATION_PROTOCOL_DEFINITION('international standard',
  'automotive_design',2000,#2);
#2 = APPLICATION_CONTEXT(
  'core data for automotive mechanical design processes');
#3 = SHAPE_DEFINITION_REPRESENTATION(#4,#10);
#4 = PRODUCT_DEFINITION_SHAPE('','',#5);
#5 = PRODUCT_DEFINITION('design','',#6,#9);
#6 = PRODUCT_DEFINITION_FORMATION('','',#7);
#7 = PRODUCT('Open CASCADE STEP translator 7.8 69',
  'Open CASCADE STEP translator 7.8 69','',(#8));
#8 = PRODUCT_CONTEXT('',#2,'mechanical');
#9 = PRODUCT_DEFINITION_CONTEXT('part definition',#2,'design');
#10 = ADVANCED_BREP_SHAPE_REPRESENTATION('',(#11,#15),#1586);
#11 = AXIS2_PLACEMENT_3D('',#12,#13,#14);
#12 = CARTESIAN_POINT('',(0.,0.,0.));
#13 = DIRECTION('',(0.,0.,1.));
#14 = DIRECTION('',(1.,0.,-0.));
#15 = MANIFOLD_SOLID_BREP('',#16);
#16 = CLOSED_SHELL('',(#17,#431,#577,#674,#940,#1156,#1204,#1251,#1299,
    #1346,#1374,#1429,#1484,#1539,#1563,#1574,#1578,#1582));
#17 = ADVANCED_FACE('',(#18,#129),#32,.T.);
#18 = FACE_BOUND('',#19,.T.);
#19 = EDGE_LOOP('',(#20,#50,#77,#78,#107));
#20 = ORIENTED_EDGE('',*,*,#21,.T.);
#21 = EDGE_CURVE('',#22,#24,#26,.T.);
#22 = VERTEX_POINT('',#23);
#23 = CARTESIAN_POINT('',(5.5,-1.347111479062E-15,10.9));
#24 = VERTEX_POINT('',#25);
#25 = CARTESIAN_POINT('',(5.5,-1.347111479062E-15,14.8));
#26 = SEAM_CURVE('',#27,(#31,#43),.PCURVE_S1.);
#27 = LINE('',#28,#29);
#28 = CARTESIAN_POINT('',(5.5,-1.347111479062E-15,10.9));
#29 = VECTOR('',#30,1.);
#30 = DIRECTION('',(0.,0.,1.));
#31 = PCURVE('',#32,#37);
#32 = CYLINDRICAL_SURFACE('',#33,5.5);
#33 = AXIS2_PLACEMENT_3D('',#34,#35,#36);
#34 = CARTESIAN_POINT('',(0.,0.,10.9));
#35 = DIRECTION('',(0.,0.,1.));
#36 = DIRECTION('',(1.,0.,-0.));
#37 = DEFINITIONAL_REPRESENTATION('',(#38),#42);
#38 = LINE('',#39,#40);
#39 = CARTESIAN_POINT('',(6.28318530718,-0.));
#40 = VECTOR('',#41,1.);
#41 = DIRECTION('',(0.,1.));
#42 = ( GEOMETRIC_REPRESENTATION_CONTEXT(2) 
PARAMETRIC_REPRESENTATION_CONTEXT() REPRESENTATION_CONTEXT('2D SPACE',''
  ) );
#43 = PCURVE('',#32,#44);
#44 = DEFINITIONAL_REPRESENTATION('',(#45),#49);
#45 = LINE('',#46,#47);
#46 = CARTESIAN_POINT('',(0.,-0.));
#47 = VECTOR('',#48,1.);
#48 = DIRECTION('',(0.,1.));
#49 = ( GEOMETRIC_REPRESENTATION_CONTEXT(2) 
PARAMETRIC_REPRESENTATION_CONTEXT() REPRESENTATION_CONTEXT('2D SPACE',''
  ) );
#50 = ORIENTED_EDGE('',*,*,#51,.F.);
#51 = EDGE_CURVE('',#24,#24,#52,.T.);
#52 = SURFACE_CURVE('',#53,(#58,#65),.PCURVE_S1.);
#53 = CIRCLE('',#54,5.5);
#54 = AXIS2_PLACEMENT_3D('',#55,#56,#57);
#55 = CARTESIAN_POINT('',(0.,0.,14.8));
#56 = DIRECTION('',(0.,0.,1.));
#57 = DIRECTION('',(1.,0.,-0.));
#58 = PCURVE('',#32,#59);
#59 = DEFINITIONAL_REPRESENTATION('',(#60),#64);
#60 = LINE('',#61,#62);
#61 = CARTESIAN_POINT('',(0.,3.9));
#62 = VECTOR('',#63,1.);
#63 = DIRECTION('',(1.,0.));
#64 = ( GEOMETRIC_REPRESENTATION_CONTEXT(2) 
PARAMETRIC_REPRESENTATION_CONTEXT() REPRESENTATION_CONTEXT('2D SPACE',''
  ) );
#65 = PCURVE('',#66,#71);
#66 = PLANE('',#67);
#67 = AXIS2_PLACEMENT_3D('',#68,#69,#70);
#68 = CARTESIAN_POINT('',(0.,0.,14.8));
#69 = DIRECTION('',(0.,0.,1.));
#70 = DIRECTION('',(1.,0.,-0.));
#71 = DEFINITIONAL_REPRESENTATION('',(#72),#76);
#72 = CIRCLE('',#73,5.5);
#73 = AXIS2_PLACEMENT_2D('',#74,#75);
#74 = CARTESIAN_POINT('',(0.,0.));
#75 = DIRECTION('',(1.,0.));
#76 = ( GEOMETRIC_REPRESENTATION_CONTEXT(2) 
PARAMETRIC_REPRESENTATION_CONTEXT() REPRESENTATION_CONTEXT('2D SPACE',''
  ) );
#77 = ORIENTED_EDGE('',*,*,#21,.F.);
#78 = ORIENTED_EDGE('',*,*,#79,.T.);
#79 = EDGE_CURVE('',#22,#80,#82,.T.);
#80 = VERTEX_POINT('',#81);
#81 = CARTESIAN_POINT('',(2.104759034963,5.081337363799,10.9));
#82 = SURFACE_CURVE('',#83,(#88,#95),.PCURVE_S1.);
#83 = CIRCLE('',#84,5.5);
#84 = AXIS2_PLACEMENT_3D('',#85,#86,#87);
#85 = CARTESIAN_POINT('',(0.,0.,10.9));
#86 = DIRECTION('',(0.,0.,1.));
#87 = DIRECTION('',(1.,0.,-0.));
#88 = PCURVE('',#32,#89);
#89 = DEFINITIONAL_REPRESENTATION('',(#90),#94);
#90 = LINE('',#91,#92);
#91 = CARTESIAN_POINT('',(0.,0.));
#92 = VECTOR('',#93,1.);
#93 = DIRECTION('',(1.,0.));
#94 = ( GEOMETRIC_REPRESENTATION_CONTEXT(2) 
PARAMETRIC_REPRESENTATION_CONTEXT() REPRESENTATION_CONTEXT('2D SPACE',''
  ) );
#95 = PCURVE('',#96,#101);
#96 = PLANE('',#97);
#97 = AXIS2_PLACEMENT_3D('',#98,#99,#100);
#98 = CARTESIAN_POINT('',(0.,0.,10.9));
#99 = DIRECTION('',(0.,0.,1.));
#100 = DIRECTION('',(1.,0.,-0.));
#101 = DEFINITIONAL_REPRESENTATION('',(#102),#106);
#102 = CIRCLE('',#103,5.5);
#103 = AXIS2_PLACEMENT_2D('',#104,#105);
#104 = CARTESIAN_POINT('',(0.,0.));
#105 = DIRECTION('',(1.,0.));
#106 = ( GEOMETRIC_REPRESENTATION_CONTEXT(2) 
PARAMETRIC_REPRESENTATION_CONTEXT() REPRESENTATION_CONTEXT('2D SPACE',''
  ) );
#107 = ORIENTED_EDGE('',*,*,#108,.T.);
#108 = EDGE_CURVE('',#80,#22,#109,.T.);
#109 = SURFACE_CURVE('',#110,(#115,#122),.PCURVE_S1.);
#110 = CIRCLE('',#111,5.5);
#111 = AXIS2_PLACEMENT_3D('',#112,#113,#114);
#112 = CARTESIAN_POINT('',(0.,0.,10.9));
#113 = DIRECTION('',(0.,0.,1.));
#114 = DIRECTION('',(1.,0.,-0.));
#115 = PCURVE('',#32,#116);
#116 = DEFINITIONAL_REPRESENTATION('',(#117),#121);
#117 = LINE('',#118,#119);
#118 = CARTESIAN_POINT('',(0.,0.));
#119 = VECTOR('',#120,1.);
#120 = DIRECTION('',(1.,0.));
#121 = ( GEOMETRIC_REPRESENTATION_CONTEXT(2) 
PARAMETRIC_REPRESENTATION_CONTEXT() REPRESENTATION_CONTEXT('2D SPACE',''
  ) );
#122 = PCURVE('',#96,#123);
#123 = DEFINITIONAL_REPRESENTATION('',(#124),#128);
#124 = CIRCLE('',#125,5.5);
#125 = AXIS2_PLACEMENT_2D('',#126,#127);
#126 = CARTESIAN_POINT('',(0.,0.));
#127 = DIRECTION('',(1.,0.));
#128 = ( GEOMETRIC_REPRESENTATION_CONTEXT(2) 
PARAMETRIC_REPRESENTATION_CONTEXT() REPRESENTATION_CONTEXT('2D SPACE',''
  ) );
#129 = FACE_BOUND('',#130,.T.);
#130 = EDGE_LOOP('',(#131,#282));
#131 = ORIENTED_EDGE('',*,*,#132,.F.);
#132 = EDGE_CURVE('',#80,#133,#135,.T.);
#133 = VERTEX_POINT('',#134);
#134 = CARTESIAN_POINT('',(2.104758878008,5.081337428812,12.2));
#135 = SURFACE_CURVE('',#136,(#181,#229),.PCURVE_S1.);
#136 = B_SPLINE_CURVE_WITH_KNOTS('',8,(#137,#138,#139,#140,#141,#142,
    #143,#144,#145,#146,#147,#148,#149,#150,#151,#152,#153,#154,#155,
    #156,#157,#158,#159,#160,#161,#162,#163,#164,#165,#166,#167,#168,
    #169,#170,#171,#172,#173,#174,#175,#176,#177,#178,#179,#180),
  .UNSPECIFIED.,.T.,.F.,(9,7,7,7,7,7,9),(0.,0.105605822564,
    0.251863688353,0.499997259543,0.748130830736,0.894382381068,1.),
  .UNSPECIFIED.);
#137 = CARTESIAN_POINT('',(2.104758878008,5.081337428812,12.2));
#138 = CARTESIAN_POINT('',(2.157832676848,5.059353541526,12.2));
#139 = CARTESIAN_POINT('',(2.210468554347,5.036808921147,12.194197452193
    ));
#140 = CARTESIAN_POINT('',(2.261965321175,5.014002103831,12.182660202442
    ));
#141 = CARTESIAN_POINT('',(2.311661197849,4.991271140615,12.165594770881
    ));
#142 = CARTESIAN_POINT('',(2.35895043961,4.968981344292,12.143342711212)
  );
#143 = CARTESIAN_POINT('',(2.403301911953,4.947505166333,12.116377050659
    ));
#144 = CARTESIAN_POINT('',(2.444279616814,4.92719420385,12.085298810593)
  );
#145 = CARTESIAN_POINT('',(2.533203471311,4.8822359919,12.003101324854)
  );
#146 = CARTESIAN_POINT('',(2.577919572848,4.858848625267,11.948724940078
    ));
#147 = CARTESIAN_POINT('',(2.615397197367,4.838691152861,11.889001584707
    ));
#148 = CARTESIAN_POINT('',(2.645458962614,4.822176527463,11.825130992929
    ));
#149 = CARTESIAN_POINT('',(2.668017002323,4.809610085996,11.758239436893
    ));
#150 = CARTESIAN_POINT('',(2.68303910451,4.801184888189,11.689400004238)
  );
#151 = CARTESIAN_POINT('',(2.690530366468,4.796983046365,11.619649218157
    ));
#152 = CARTESIAN_POINT('',(2.690530366468,4.796983046365,11.431836719422
    ));
#153 = CARTESIAN_POINT('',(2.668968365452,4.809077285182,11.310299962438
    ));
#154 = CARTESIAN_POINT('',(2.623684512722,4.834472837573,11.192655896257
    ));
#155 = CARTESIAN_POINT('',(2.55508066331,4.872247587536,11.086322314252)
  );
#156 = CARTESIAN_POINT('',(2.464816471963,4.919642726584,10.998154674343
    ));
#157 = CARTESIAN_POINT('',(2.356191139873,4.972802128087,10.934305045926
    ));
#158 = CARTESIAN_POINT('',(2.233806910176,5.027883983691,10.9));
#159 = CARTESIAN_POINT('',(1.975710845839,5.134790873934,10.9));
#160 = CARTESIAN_POINT('',(1.850223373496,5.182380839044,10.934305045926
    ));
#161 = CARTESIAN_POINT('',(1.735824291275,5.22160117469,10.998154674342)
  );
#162 = CARTESIAN_POINT('',(1.638484445262,5.251914172271,11.086322314252
    ));
#163 = CARTESIAN_POINT('',(1.56326341627,5.27371363755,11.192655896257)
  );
#164 = CARTESIAN_POINT('',(1.513285529618,5.287776789586,11.310299962437
    ));
#165 = CARTESIAN_POINT('',(1.489486974204,5.29447150844,11.431836719422)
  );
#166 = CARTESIAN_POINT('',(1.489486974204,5.29447150844,11.619646210683)
  );
#167 = CARTESIAN_POINT('',(1.497754476731,5.292145799641,11.689389460852
    ));
#168 = CARTESIAN_POINT('',(1.514331013219,5.287481895563,11.758225677542
    ));
#169 = CARTESIAN_POINT('',(1.539165755199,5.28041739146,11.825121733919)
  );
#170 = CARTESIAN_POINT('',(1.57210319035,5.270837455298,11.889002123745)
  );
#171 = CARTESIAN_POINT('',(1.612865220968,5.258587918078,11.948734025252
    ));
#172 = CARTESIAN_POINT('',(1.66102768483,5.243503963494,12.003110754441)
  );
#173 = CARTESIAN_POINT('',(1.755684046912,5.212419682451,12.085297339159
    ));
#174 = CARTESIAN_POINT('',(1.799021736851,5.197806101352,12.116376190992
    ));
#175 = CARTESIAN_POINT('',(1.845570389873,5.181630355634,12.143343097271
    ));
#176 = CARTESIAN_POINT('',(1.894772373191,5.163952302136,12.165596069132
    ));
#177 = CARTESIAN_POINT('',(1.945987847542,5.144884439337,12.182661621582
    ));
#178 = CARTESIAN_POINT('',(1.998529241703,5.124597160629,12.194198256221
    ));
#179 = CARTESIAN_POINT('',(2.051688753599,5.103319794099,12.2));
#180 = CARTESIAN_POINT('',(2.104758878008,5.081337428812,12.2));
#181 = PCURVE('',#32,#182);
#182 = DEFINITIONAL_REPRESENTATION('',(#183),#228);
#183 = B_SPLINE_CURVE_WITH_KNOTS('',8,(#184,#185,#186,#187,#188,#189,
    #190,#191,#192,#193,#194,#195,#196,#197,#198,#199,#200,#201,#202,
    #203,#204,#205,#206,#207,#208,#209,#210,#211,#212,#213,#214,#215,
    #216,#217,#218,#219,#220,#221,#222,#223,#224,#225,#226,#227),
  .UNSPECIFIED.,.T.,.F.,(9,7,7,7,7,7,9),(0.,0.105605822564,
    0.251863688353,0.499997259543,0.748130830736,0.894382381068,1.),
  .UNSPECIFIED.);
#184 = CARTESIAN_POINT('',(1.178097245096,1.3));
#185 = CARTESIAN_POINT('',(1.16765239675,1.3));
#186 = CARTESIAN_POINT('',(1.157242090113,1.294197452193));
#187 = CARTESIAN_POINT('',(1.147003166659,1.282660202442));
#188 = CARTESIAN_POINT('',(1.137068581092,1.265594770881));
#189 = CARTESIAN_POINT('',(1.127564379655,1.243342711211));
#190 = CARTESIAN_POINT('',(1.118605479379,1.216377050659));
#191 = CARTESIAN_POINT('',(1.110290248244,1.185298810593));
#192 = CARTESIAN_POINT('',(1.092173370838,1.103101324854));
#193 = CARTESIAN_POINT('',(1.082999197532,1.048724940078));
#194 = CARTESIAN_POINT('',(1.0752626618,0.989001584707));
#195 = CARTESIAN_POINT('',(1.069026702326,0.925130992929));
#196 = CARTESIAN_POINT('',(1.064331807363,0.858239436893));
#197 = CARTESIAN_POINT('',(1.061200239216,0.789400004238));
#198 = CARTESIAN_POINT('',(1.059638576887,0.719649218157));
#199 = CARTESIAN_POINT('',(1.059638576887,0.531836719422));
#200 = CARTESIAN_POINT('',(1.064133578249,0.410299962438));
#201 = CARTESIAN_POINT('',(1.073573092045,0.292655896257));
#202 = CARTESIAN_POINT('',(1.087812809341,0.186322314252));
#203 = CARTESIAN_POINT('',(1.106340168983,9.815467434282E-02));
#204 = CARTESIAN_POINT('',(1.128310333982,3.43050459259E-02));
#205 = CARTESIAN_POINT('',(1.152700775372,1.342678833279E-15));
#206 = CARTESIAN_POINT('',(1.20349371482,-6.765450185115E-16));
#207 = CARTESIAN_POINT('',(1.22788415621,3.430504592611E-02));
#208 = CARTESIAN_POINT('',(1.24985432121,9.815467434199E-02));
#209 = CARTESIAN_POINT('',(1.268381680851,0.186322314252));
#210 = CARTESIAN_POINT('',(1.282621398148,0.292655896257));
#211 = CARTESIAN_POINT('',(1.292060911943,0.410299962437));
#212 = CARTESIAN_POINT('',(1.296555913305,0.531836719422));
#213 = CARTESIAN_POINT('',(1.296555913305,0.719646210683));
#214 = CARTESIAN_POINT('',(1.294994400851,0.789389460852));
#215 = CARTESIAN_POINT('',(1.291863431883,0.858225677542));
#216 = CARTESIAN_POINT('',(1.287168919049,0.925121733919));
#217 = CARTESIAN_POINT('',(1.28093241203,0.989002123745));
#218 = CARTESIAN_POINT('',(1.2731943864,1.048734025252));
#219 = CARTESIAN_POINT('',(1.26401904101,1.103110754441));
#220 = CARTESIAN_POINT('',(1.245904566262,1.185297339159));
#221 = CARTESIAN_POINT('',(1.237589325845,1.216376190992));
#222 = CARTESIAN_POINT('',(1.228630144265,1.243343097271));
#223 = CARTESIAN_POINT('',(1.219125523367,1.265596069132));
#224 = CARTESIAN_POINT('',(1.209190553122,1.282661621582));
#225 = CARTESIAN_POINT('',(1.19895146207,1.294198256221));
#226 = CARTESIAN_POINT('',(1.18854137032,1.3));
#227 = CARTESIAN_POINT('',(1.178097245096,1.3));
#228 = ( GEOMETRIC_REPRESENTATION_CONTEXT(2) 
PARAMETRIC_REPRESENTATION_CONTEXT() REPRESENTATION_CONTEXT('2D SPACE',''
  ) );
#229 = PCURVE('',#230,#235);
#230 = CYLINDRICAL_SURFACE('',#231,0.65);
#231 = AXIS2_PLACEMENT_3D('',#232,#233,#234);
#232 = CARTESIAN_POINT('',(0.574025148548,1.385819298767,11.55));
#233 = DIRECTION('',(0.382683432365,0.923879532511,0.));
#234 = DIRECTION('',(0.,0.,1.));
#235 = DEFINITIONAL_REPRESENTATION('',(#236),#281);
#236 = B_SPLINE_CURVE_WITH_KNOTS('',8,(#237,#238,#239,#240,#241,#242,
    #243,#244,#245,#246,#247,#248,#249,#250,#251,#252,#253,#254,#255,
    #256,#257,#258,#259,#260,#261,#262,#263,#264,#265,#266,#267,#268,
    #269,#270,#271,#272,#273,#274,#275,#276,#277,#278,#279,#280),
  .UNSPECIFIED.,.F.,.F.,(9,7,7,7,7,7,9),(0.,0.105605822564,
    0.251863688353,0.499997259543,0.748130830736,0.894382381068,1.),
  .UNSPECIFIED.);
#237 = CARTESIAN_POINT('',(0.,4.));
#238 = CARTESIAN_POINT('',(8.837948600603E-02,4.));
#239 = CARTESIAN_POINT('',(0.176466298303,3.99931436493));
#240 = CARTESIAN_POINT('',(0.264141668269,3.997950572696));
#241 = CARTESIAN_POINT('',(0.351285567111,3.995967689686));
#242 = CARTESIAN_POINT('',(0.437761723328,3.993471412431));
#243 = CARTESIAN_POINT('',(0.523398627196,3.990602584845));
#244 = CARTESIAN_POINT('',(0.60796652225,3.987519191068));
#245 = CARTESIAN_POINT('',(0.806355149602,3.980012905087));
#246 = CARTESIAN_POINT('',(0.919261711284,3.975517906953));
#247 = CARTESIAN_POINT('',(1.030345006102,3.971236896758));
#248 = CARTESIAN_POINT('',(1.139995962259,3.967483511873));
#249 = CARTESIAN_POINT('',(1.248554258712,3.964506221869));
#250 = CARTESIAN_POINT('',(1.356334196769,3.962471063683));
#251 = CARTESIAN_POINT('',(1.463643683476,3.961455849863));
#252 = CARTESIAN_POINT('',(1.752585989223,3.961455849863));
#253 = CARTESIAN_POINT('',(1.939564614687,3.964378049009));
#254 = CARTESIAN_POINT('',(2.129716174789,3.970511099887));
#255 = CARTESIAN_POINT('',(2.322945698239,3.979156861657));
#256 = CARTESIAN_POINT('',(2.519512597524,3.988401650001));
#257 = CARTESIAN_POINT('',(2.720317873909,3.995945418083));
#258 = CARTESIAN_POINT('',(2.926699448233,4.));
#259 = CARTESIAN_POINT('',(3.356485858948,4.));
#260 = CARTESIAN_POINT('',(3.562867433267,3.995945418083));
#261 = CARTESIAN_POINT('',(3.76367270966,3.988401650001));
#262 = CARTESIAN_POINT('',(3.960239608938,3.979156861657));
#263 = CARTESIAN_POINT('',(4.153469132393,3.970511099887));
#264 = CARTESIAN_POINT('',(4.343620692491,3.964378049009));
#265 = CARTESIAN_POINT('',(4.530599317958,3.961455849863));
#266 = CARTESIAN_POINT('',(4.81953699682,3.961455849863));
#267 = CARTESIAN_POINT('',(4.926834931429,3.96247101135));
#268 = CARTESIAN_POINT('',(5.034609660301,3.96450569171));
#269 = CARTESIAN_POINT('',(5.143173177343,3.967482785264));
#270 = CARTESIAN_POINT('',(5.252838244856,3.971236689059));
#271 = CARTESIAN_POINT('',(5.363938485616,3.975518546126));
#272 = CARTESIAN_POINT('',(5.47685291646,3.980013766198));
#273 = CARTESIAN_POINT('',(5.675215233534,3.987519056696));
#274 = CARTESIAN_POINT('',(5.759783783654,3.990602484159));
#275 = CARTESIAN_POINT('',(5.845423629549,3.993471442077));
#276 = CARTESIAN_POINT('',(5.931903440587,3.995967834131));
#277 = CARTESIAN_POINT('',(6.019050371267,3.997950739477));
#278 = CARTESIAN_POINT('',(6.106726943545,3.999314458967));
#279 = CARTESIAN_POINT('',(6.194811939904,4.));
#280 = CARTESIAN_POINT('',(6.28318530718,4.));
#281 = ( GEOMETRIC_REPRESENTATION_CONTEXT(2) 
PARAMETRIC_REPRESENTATION_CONTEXT() REPRESENTATION_CONTEXT('2D SPACE',''
  ) );
#282 = ORIENTED_EDGE('',*,*,#283,.F.);
#283 = EDGE_CURVE('',#133,#80,#284,.T.);
#284 = SURFACE_CURVE('',#285,(#330,#378),.PCURVE_S1.);
#285 = B_SPLINE_CURVE_WITH_KNOTS('',8,(#286,#287,#288,#289,#290,#291,
    #292,#293,#294,#295,#296,#297,#298,#299,#300,#301,#302,#303,#304,
    #305,#306,#307,#308,#309,#310,#311,#312,#313,#314,#315,#316,#317,
    #318,#319,#320,#321,#322,#323,#324,#325,#326,#327,#328,#329),
  .UNSPECIFIED.,.T.,.F.,(9,7,7,7,7,7,9),(0.,0.105605822564,
    0.251863688353,0.499997259543,0.748130830736,0.894382381068,1.),
  .UNSPECIFIED.);
#286 = CARTESIAN_POINT('',(2.104758878008,5.081337428812,12.2));
#287 = CARTESIAN_POINT('',(2.157832676848,5.059353541526,12.2));
#288 = CARTESIAN_POINT('',(2.210468554347,5.036808921147,12.194197452193
    ));
#289 = CARTESIAN_POINT('',(2.261965321175,5.014002103831,12.182660202442
    ));
#290 = CARTESIAN_POINT('',(2.311661197849,4.991271140615,12.165594770881
    ));
#291 = CARTESIAN_POINT('',(2.35895043961,4.968981344292,12.143342711212)
  );
#292 = CARTESIAN_POINT('',(2.403301911953,4.947505166333,12.116377050659
    ));
#293 = CARTESIAN_POINT('',(2.444279616814,4.92719420385,12.085298810593)
  );
#294 = CARTESIAN_POINT('',(2.533203471311,4.8822359919,12.003101324854)
  );
#295 = CARTESIAN_POINT('',(2.577919572848,4.858848625267,11.948724940078
    ));
#296 = CARTESIAN_POINT('',(2.615397197367,4.838691152861,11.889001584707
    ));
#297 = CARTESIAN_POINT('',(2.645458962614,4.822176527463,11.825130992929
    ));
#298 = CARTESIAN_POINT('',(2.668017002323,4.809610085996,11.758239436893
    ));
#299 = CARTESIAN_POINT('',(2.68303910451,4.801184888189,11.689400004238)
  );
#300 = CARTESIAN_POINT('',(2.690530366468,4.796983046365,11.619649218157
    ));
#301 = CARTESIAN_POINT('',(2.690530366468,4.796983046365,11.431836719422
    ));
#302 = CARTESIAN_POINT('',(2.668968365452,4.809077285182,11.310299962438
    ));
#303 = CARTESIAN_POINT('',(2.623684512722,4.834472837573,11.192655896257
    ));
#304 = CARTESIAN_POINT('',(2.55508066331,4.872247587536,11.086322314252)
  );
#305 = CARTESIAN_POINT('',(2.464816471963,4.919642726584,10.998154674343
    ));
#306 = CARTESIAN_POINT('',(2.356191139873,4.972802128087,10.934305045926
    ));
#307 = CARTESIAN_POINT('',(2.233806910176,5.027883983691,10.9));
#308 = CARTESIAN_POINT('',(1.975710845839,5.134790873934,10.9));
#309 = CARTESIAN_POINT('',(1.850223373496,5.182380839044,10.934305045926
    ));
#310 = CARTESIAN_POINT('',(1.735824291275,5.22160117469,10.998154674342)
  );
#311 = CARTESIAN_POINT('',(1.638484445262,5.251914172271,11.086322314252
    ));
#312 = CARTESIAN_POINT('',(1.56326341627,5.27371363755,11.192655896257)
  );
#313 = CARTESIAN_POINT('',(1.513285529618,5.287776789586,11.310299962437
    ));
#314 = CARTESIAN_POINT('',(1.489486974204,5.29447150844,11.431836719422)
  );
#315 = CARTESIAN_POINT('',(1.489486974204,5.29447150844,11.619646210683)
  );
#316 = CARTESIAN_POINT('',(1.497754476731,5.292145799641,11.689389460852
    ));
#317 = CARTESIAN_POINT('',(1.514331013219,5.287481895563,11.758225677542
    ));
#318 = CARTESIAN_POINT('',(1.539165755199,5.28041739146,11.825121733919)
  );
#319 = CARTESIAN_POINT('',(1.57210319035,5.270837455298,11.889002123745)
  );
#320 = CARTESIAN_POINT('',(1.612865220968,5.258587918078,11.948734025252
    ));
#321 = CARTESIAN_POINT('',(1.66102768483,5.243503963494,12.003110754441)
  );
#322 = CARTESIAN_POINT('',(1.755684046912,5.212419682451,12.085297339159
    ));
#323 = CARTESIAN_POINT('',(1.799021736851,5.197806101352,12.116376190992
    ));
#324 = CARTESIAN_POINT('',(1.845570389873,5.181630355634,12.143343097271
    ));
#325 = CARTESIAN_POINT('',(1.894772373191,5.163952302136,12.165596069132
    ));
#326 = CARTESIAN_POINT('',(1.945987847542,5.144884439337,12.182661621582
    ));
#327 = CARTESIAN_POINT('',(1.998529241703,5.124597160629,12.194198256221
    ));
#328 = CARTESIAN_POINT('',(2.051688753599,5.103319794099,12.2));
#329 = CARTESIAN_POINT('',(2.104758878008,5.081337428812,12.2));
#330 = PCURVE('',#32,#331);
#331 = DEFINITIONAL_REPRESENTATION('',(#332),#377);
#332 = B_SPLINE_CURVE_WITH_KNOTS('',8,(#333,#334,#335,#336,#337,#338,
    #339,#340,#341,#342,#343,#344,#345,#346,#347,#348,#349,#350,#351,
    #352,#353,#354,#355,#356,#357,#358,#359,#360,#361,#362,#363,#364,
    #365,#366,#367,#368,#369,#370,#371,#372,#373,#374,#375,#376),
  .UNSPECIFIED.,.T.,.F.,(9,7,7,7,7,7,9),(0.,0.105605822564,
    0.251863688353,0.499997259543,0.748130830736,0.894382381068,1.),
  .UNSPECIFIED.);
#333 = CARTESIAN_POINT('',(1.178097245096,1.3));
#334 = CARTESIAN_POINT('',(1.16765239675,1.3));
#335 = CARTESIAN_POINT('',(1.157242090113,1.294197452193));
#336 = CARTESIAN_POINT('',(1.147003166659,1.282660202442));
#337 = CARTESIAN_POINT('',(1.137068581092,1.265594770881));
#338 = CARTESIAN_POINT('',(1.127564379655,1.243342711211));
#339 = CARTESIAN_POINT('',(1.118605479379,1.216377050659));
#340 = CARTESIAN_POINT('',(1.110290248244,1.185298810593));
#341 = CARTESIAN_POINT('',(1.092173370838,1.103101324854));
#342 = CARTESIAN_POINT('',(1.082999197532,1.048724940078));
#343 = CARTESIAN_POINT('',(1.0752626618,0.989001584707));
#344 = CARTESIAN_POINT('',(1.069026702326,0.925130992929));
#345 = CARTESIAN_POINT('',(1.064331807363,0.858239436893));
#346 = CARTESIAN_POINT('',(1.061200239216,0.789400004238));
#347 = CARTESIAN_POINT('',(1.059638576887,0.719649218157));
#348 = CARTESIAN_POINT('',(1.059638576887,0.531836719422));
#349 = CARTESIAN_POINT('',(1.064133578249,0.410299962438));
#350 = CARTESIAN_POINT('',(1.073573092045,0.292655896257));
#351 = CARTESIAN_POINT('',(1.087812809341,0.186322314252));
#352 = CARTESIAN_POINT('',(1.106340168983,9.815467434282E-02));
#353 = CARTESIAN_POINT('',(1.128310333982,3.43050459259E-02));
#354 = CARTESIAN_POINT('',(1.152700775372,1.342678833279E-15));
#355 = CARTESIAN_POINT('',(1.20349371482,-6.765450185115E-16));
#356 = CARTESIAN_POINT('',(1.22788415621,3.430504592611E-02));
#357 = CARTESIAN_POINT('',(1.24985432121,9.815467434199E-02));
#358 = CARTESIAN_POINT('',(1.268381680851,0.186322314252));
#359 = CARTESIAN_POINT('',(1.282621398148,0.292655896257));
#360 = CARTESIAN_POINT('',(1.292060911943,0.410299962437));
#361 = CARTESIAN_POINT('',(1.296555913305,0.531836719422));
#362 = CARTESIAN_POINT('',(1.296555913305,0.719646210683));
#363 = CARTESIAN_POINT('',(1.294994400851,0.789389460852));
#364 = CARTESIAN_POINT('',(1.291863431883,0.858225677542));
#365 = CARTESIAN_POINT('',(1.287168919049,0.925121733919));
#366 = CARTESIAN_POINT('',(1.28093241203,0.989002123745));
#367 = CARTESIAN_POINT('',(1.2731943864,1.048734025252));
#368 = CARTESIAN_POINT('',(1.26401904101,1.103110754441));
#369 = CARTESIAN_POINT('',(1.245904566262,1.185297339159));
#370 = CARTESIAN_POINT('',(1.237589325845,1.216376190992));
#371 = CARTESIAN_POINT('',(1.228630144265,1.243343097271));
#372 = CARTESIAN_POINT('',(1.219125523367,1.265596069132));
#373 = CARTESIAN_POINT('',(1.209190553122,1.282661621582));
#374 = CARTESIAN_POINT('',(1.19895146207,1.294198256221));
#375 = CARTESIAN_POINT('',(1.18854137032,1.3));
#376 = CARTESIAN_POINT('',(1.178097245096,1.3));
#377 = ( GEOMETRIC_REPRESENTATION_CONTEXT(2) 
PARAMETRIC_REPRESENTATION_CONTEXT() REPRESENTATION_CONTEXT('2D SPACE',''
  ) );
#378 = PCURVE('',#379,#384);
#379 = CYLINDRICAL_SURFACE('',#380,0.65);
#380 = AXIS2_PLACEMENT_3D('',#381,#382,#383);
#381 = CARTESIAN_POINT('',(0.574025148548,1.385819298767,11.55));
#382 = DIRECTION('',(0.382683432365,0.923879532511,0.));
#383 = DIRECTION('',(0.,0.,1.));
#384 = DEFINITIONAL_REPRESENTATION('',(#385),#430);
#385 = B_SPLINE_CURVE_WITH_KNOTS('',8,(#386,#387,#388,#389,#390,#391,
    #392,#393,#394,#395,#396,#397,#398,#399,#400,#401,#402,#403,#404,
    #405,#406,#407,#408,#409,#410,#411,#412,#413,#414,#415,#416,#417,
    #418,#419,#420,#421,#422,#423,#424,#425,#426,#427,#428,#429),
  .UNSPECIFIED.,.F.,.F.,(9,7,7,7,7,7,9),(0.,0.105605822564,
    0.251863688353,0.499997259543,0.748130830736,0.894382381068,1.),
  .UNSPECIFIED.);
#386 = CARTESIAN_POINT('',(0.,4.));
#387 = CARTESIAN_POINT('',(8.837948600603E-02,4.));
#388 = CARTESIAN_POINT('',(0.176466298303,3.99931436493));
#389 = CARTESIAN_POINT('',(0.264141668269,3.997950572696));
#390 = CARTESIAN_POINT('',(0.351285567111,3.995967689686));
#391 = CARTESIAN_POINT('',(0.437761723328,3.993471412431));
#392 = CARTESIAN_POINT('',(0.523398627196,3.990602584845));
#393 = CARTESIAN_POINT('',(0.60796652225,3.987519191068));
#394 = CARTESIAN_POINT('',(0.806355149602,3.980012905087));
#395 = CARTESIAN_POINT('',(0.919261711284,3.975517906953));
#396 = CARTESIAN_POINT('',(1.030345006102,3.971236896758));
#397 = CARTESIAN_POINT('',(1.139995962259,3.967483511873));
#398 = CARTESIAN_POINT('',(1.248554258712,3.964506221869));
#399 = CARTESIAN_POINT('',(1.356334196769,3.962471063683));
#400 = CARTESIAN_POINT('',(1.463643683476,3.961455849863));
#401 = CARTESIAN_POINT('',(1.752585989223,3.961455849863));
#402 = CARTESIAN_POINT('',(1.939564614687,3.964378049009));
#403 = CARTESIAN_POINT('',(2.129716174789,3.970511099887));
#404 = CARTESIAN_POINT('',(2.322945698239,3.979156861657));
#405 = CARTESIAN_POINT('',(2.519512597524,3.988401650001));
#406 = CARTESIAN_POINT('',(2.720317873909,3.995945418083));
#407 = CARTESIAN_POINT('',(2.926699448233,4.));
#408 = CARTESIAN_POINT('',(3.356485858948,4.));
#409 = CARTESIAN_POINT('',(3.562867433267,3.995945418083));
#410 = CARTESIAN_POINT('',(3.76367270966,3.988401650001));
#411 = CARTESIAN_POINT('',(3.960239608938,3.979156861657));
#412 = CARTESIAN_POINT('',(4.153469132393,3.970511099887));
#413 = CARTESIAN_POINT('',(4.343620692491,3.964378049009));
#414 = CARTESIAN_POINT('',(4.530599317958,3.961455849863));
#415 = CARTESIAN_POINT('',(4.81953699682,3.961455849863));
#416 = CARTESIAN_POINT('',(4.926834931429,3.96247101135));
#417 = CARTESIAN_POINT('',(5.034609660301,3.96450569171));
#418 = CARTESIAN_POINT('',(5.143173177343,3.967482785264));
#419 = CARTESIAN_POINT('',(5.252838244856,3.971236689059));
#420 = CARTESIAN_POINT('',(5.363938485616,3.975518546126));
#421 = CARTESIAN_POINT('',(5.47685291646,3.980013766198));
#422 = CARTESIAN_POINT('',(5.675215233534,3.987519056696));
#423 = CARTESIAN_POINT('',(5.759783783654,3.990602484159));
#424 = CARTESIAN_POINT('',(5.845423629549,3.993471442077));
#425 = CARTESIAN_POINT('',(5.931903440587,3.995967834131));
#426 = CARTESIAN_POINT('',(6.019050371267,3.997950739477));
#427 = CARTESIAN_POINT('',(6.106726943545,3.999314458967));
#428 = CARTESIAN_POINT('',(6.194811939904,4.));
#429 = CARTESIAN_POINT('',(6.28318530718,4.));
#430 = ( GEOMETRIC_REPRESENTATION_CONTEXT(2) 
PARAMETRIC_REPRESENTATION_CONTEXT() REPRESENTATION_CONTEXT('2D SPACE',''
  ) );
#431 = ADVANCED_FACE('',(#432,#436),#96,.F.);
#432 = FACE_BOUND('',#433,.F.);
#433 = EDGE_LOOP('',(#434,#435));
#434 = ORIENTED_EDGE('',*,*,#108,.T.);
#435 = ORIENTED_EDGE('',*,*,#79,.T.);
#436 = FACE_BOUND('',#437,.F.);
#437 = EDGE_LOOP('',(#438,#469,#498,#524,#553));
#438 = ORIENTED_EDGE('',*,*,#439,.F.);
#439 = EDGE_CURVE('',#440,#442,#444,.T.);
#440 = VERTEX_POINT('',#441);
#441 = CARTESIAN_POINT('',(0.780674357543,1.884714181905,10.9));
#442 = VERTEX_POINT('',#443);
#443 = CARTESIAN_POINT('',(-1.74,1.064894360958,10.9));
#444 = SURFACE_CURVE('',#445,(#450,#457),.PCURVE_S1.);
#445 = CIRCLE('',#446,2.04);
#446 = AXIS2_PLACEMENT_3D('',#447,#448,#449);
#447 = CARTESIAN_POINT('',(0.,0.,10.9));
#448 = DIRECTION('',(0.,0.,1.));
#449 = DIRECTION('',(1.,0.,-0.));
#450 = PCURVE('',#96,#451);
#451 = DEFINITIONAL_REPRESENTATION('',(#452),#456);
#452 = CIRCLE('',#453,2.04);
#453 = AXIS2_PLACEMENT_2D('',#454,#455);
#454 = CARTESIAN_POINT('',(0.,0.));
#455 = DIRECTION('',(1.,0.));
#456 = ( GEOMETRIC_REPRESENTATION_CONTEXT(2) 
PARAMETRIC_REPRESENTATION_CONTEXT() REPRESENTATION_CONTEXT('2D SPACE',''
  ) );
#457 = PCURVE('',#458,#463);
#458 = CYLINDRICAL_SURFACE('',#459,2.04);
#459 = AXIS2_PLACEMENT_3D('',#460,#461,#462);
#460 = CARTESIAN_POINT('',(0.,0.,10.89));
#461 = DIRECTION('',(0.,0.,1.));
#462 = DIRECTION('',(1.,0.,-0.));
#463 = DEFINITIONAL_REPRESENTATION('',(#464),#468);
#464 = LINE('',#465,#466);
#465 = CARTESIAN_POINT('',(0.,1.E-02));
#466 = VECTOR('',#467,1.);
#467 = DIRECTION('',(1.,0.));
#468 = ( GEOMETRIC_REPRESENTATION_CONTEXT(2) 
PARAMETRIC_REPRESENTATION_CONTEXT() REPRESENTATION_CONTEXT('2D SPACE',''
  ) );
#469 = ORIENTED_EDGE('',*,*,#470,.F.);
#470 = EDGE_CURVE('',#471,#440,#473,.T.);
#471 = VERTEX_POINT('',#472);
#472 = CARTESIAN_POINT('',(1.74,1.064894360958,10.9));
#473 = SURFACE_CURVE('',#474,(#479,#486),.PCURVE_S1.);
#474 = CIRCLE('',#475,2.04);
#475 = AXIS2_PLACEMENT_3D('',#476,#477,#478);
#476 = CARTESIAN_POINT('',(0.,0.,10.9));
#477 = DIRECTION('',(0.,0.,1.));
#478 = DIRECTION('',(1.,0.,-0.));
#479 = PCURVE('',#96,#480);
#480 = DEFINITIONAL_REPRESENTATION('',(#481),#485);
#481 = CIRCLE('',#482,2.04);
#482 = AXIS2_PLACEMENT_2D('',#483,#484);
#483 = CARTESIAN_POINT('',(0.,0.));
#484 = DIRECTION('',(1.,0.));
#485 = ( GEOMETRIC_REPRESENTATION_CONTEXT(2) 
PARAMETRIC_REPRESENTATION_CONTEXT() REPRESENTATION_CONTEXT('2D SPACE',''
  ) );
#486 = PCURVE('',#487,#492);
#487 = CYLINDRICAL_SURFACE('',#488,2.04);
#488 = AXIS2_PLACEMENT_3D('',#489,#490,#491);
#489 = CARTESIAN_POINT('',(0.,0.,10.89));
#490 = DIRECTION('',(0.,0.,1.));
#491 = DIRECTION('',(1.,0.,-0.));
#492 = DEFINITIONAL_REPRESENTATION('',(#493),#497);
#493 = LINE('',#494,#495);
#494 = CARTESIAN_POINT('',(0.,1.E-02));
#495 = VECTOR('',#496,1.);
#496 = DIRECTION('',(1.,0.));
#497 = ( GEOMETRIC_REPRESENTATION_CONTEXT(2) 
PARAMETRIC_REPRESENTATION_CONTEXT() REPRESENTATION_CONTEXT('2D SPACE',''
  ) );
#498 = ORIENTED_EDGE('',*,*,#499,.F.);
#499 = EDGE_CURVE('',#500,#471,#502,.T.);
#500 = VERTEX_POINT('',#501);
#501 = CARTESIAN_POINT('',(1.74,-1.064894360958,10.9));
#502 = SURFACE_CURVE('',#503,(#507,#513),.PCURVE_S1.);
#503 = LINE('',#504,#505);
#504 = CARTESIAN_POINT('',(1.74,-1.52,10.9));
#505 = VECTOR('',#506,1.);
#506 = DIRECTION('',(0.,1.,0.));
#507 = PCURVE('',#96,#508);
#508 = DEFINITIONAL_REPRESENTATION('',(#509),#512);
#509 = B_SPLINE_CURVE_WITH_KNOTS('',1,(#510,#511),.UNSPECIFIED.,.F.,.F.,
  (2,2),(0.455105639042,2.584894360958),.PIECEWISE_BEZIER_KNOTS.);
#510 = CARTESIAN_POINT('',(1.74,-1.064894360958));
#511 = CARTESIAN_POINT('',(1.74,1.064894360958));
#512 = ( GEOMETRIC_REPRESENTATION_CONTEXT(2) 
PARAMETRIC_REPRESENTATION_CONTEXT() REPRESENTATION_CONTEXT('2D SPACE',''
  ) );
#513 = PCURVE('',#514,#519);
#514 = PLANE('',#515);
#515 = AXIS2_PLACEMENT_3D('',#516,#517,#518);
#516 = CARTESIAN_POINT('',(1.74,-3.04,10.89));
#517 = DIRECTION('',(1.,0.,0.));
#518 = DIRECTION('',(0.,0.,1.));
#519 = DEFINITIONAL_REPRESENTATION('',(#520),#523);
#520 = B_SPLINE_CURVE_WITH_KNOTS('',1,(#521,#522),.UNSPECIFIED.,.F.,.F.,
  (2,2),(0.455105639042,2.584894360958),.PIECEWISE_BEZIER_KNOTS.);
#521 = CARTESIAN_POINT('',(1.E-02,-1.975105639042));
#522 = CARTESIAN_POINT('',(1.E-02,-4.104894360958));
#523 = ( GEOMETRIC_REPRESENTATION_CONTEXT(2) 
PARAMETRIC_REPRESENTATION_CONTEXT() REPRESENTATION_CONTEXT('2D SPACE',''
  ) );
#524 = ORIENTED_EDGE('',*,*,#525,.F.);
#525 = EDGE_CURVE('',#526,#500,#528,.T.);
#526 = VERTEX_POINT('',#527);
#527 = CARTESIAN_POINT('',(-1.74,-1.064894360958,10.9));
#528 = SURFACE_CURVE('',#529,(#534,#541),.PCURVE_S1.);
#529 = CIRCLE('',#530,2.04);
#530 = AXIS2_PLACEMENT_3D('',#531,#532,#533);
#531 = CARTESIAN_POINT('',(0.,0.,10.9));
#532 = DIRECTION('',(0.,0.,1.));
#533 = DIRECTION('',(1.,0.,-0.));
#534 = PCURVE('',#96,#535);
#535 = DEFINITIONAL_REPRESENTATION('',(#536),#540);
#536 = CIRCLE('',#537,2.04);
#537 = AXIS2_PLACEMENT_2D('',#538,#539);
#538 = CARTESIAN_POINT('',(0.,0.));
#539 = DIRECTION('',(1.,0.));
#540 = ( GEOMETRIC_REPRESENTATION_CONTEXT(2) 
PARAMETRIC_REPRESENTATION_CONTEXT() REPRESENTATION_CONTEXT('2D SPACE',''
  ) );
#541 = PCURVE('',#542,#547);
#542 = CYLINDRICAL_SURFACE('',#543,2.04);
#543 = AXIS2_PLACEMENT_3D('',#544,#545,#546);
#544 = CARTESIAN_POINT('',(0.,0.,10.89));
#545 = DIRECTION('',(0.,0.,1.));
#546 = DIRECTION('',(1.,0.,-0.));
#547 = DEFINITIONAL_REPRESENTATION('',(#548),#552);
#548 = LINE('',#549,#550);
#549 = CARTESIAN_POINT('',(0.,1.E-02));
#550 = VECTOR('',#551,1.);
#551 = DIRECTION('',(1.,0.));
#552 = ( GEOMETRIC_REPRESENTATION_CONTEXT(2) 
PARAMETRIC_REPRESENTATION_CONTEXT() REPRESENTATION_CONTEXT('2D SPACE',''
  ) );
#553 = ORIENTED_EDGE('',*,*,#554,.T.);
#554 = EDGE_CURVE('',#526,#442,#555,.T.);
#555 = SURFACE_CURVE('',#556,(#560,#566),.PCURVE_S1.);
#556 = LINE('',#557,#558);
#557 = CARTESIAN_POINT('',(-1.74,-1.52,10.9));
#558 = VECTOR('',#559,1.);
#559 = DIRECTION('',(0.,1.,0.));
#560 = PCURVE('',#96,#561);
#561 = DEFINITIONAL_REPRESENTATION('',(#562),#565);
#562 = B_SPLINE_CURVE_WITH_KNOTS('',1,(#563,#564),.UNSPECIFIED.,.F.,.F.,
  (2,2),(0.455105639042,2.584894360958),.PIECEWISE_BEZIER_KNOTS.);
#563 = CARTESIAN_POINT('',(-1.74,-1.064894360958));
#564 = CARTESIAN_POINT('',(-1.74,1.064894360958));
#565 = ( GEOMETRIC_REPRESENTATION_CONTEXT(2) 
PARAMETRIC_REPRESENTATION_CONTEXT() REPRESENTATION_CONTEXT('2D SPACE',''
  ) );
#566 = PCURVE('',#567,#572);
#567 = PLANE('',#568);
#568 = AXIS2_PLACEMENT_3D('',#569,#570,#571);
#569 = CARTESIAN_POINT('',(-1.74,-3.04,10.89));
#570 = DIRECTION('',(1.,0.,0.));
#571 = DIRECTION('',(0.,0.,1.));
#572 = DEFINITIONAL_REPRESENTATION('',(#573),#576);
#573 = B_SPLINE_CURVE_WITH_KNOTS('',1,(#574,#575),.UNSPECIFIED.,.F.,.F.,
  (2,2),(0.455105639042,2.584894360958),.PIECEWISE_BEZIER_KNOTS.);
#574 = CARTESIAN_POINT('',(1.E-02,-1.975105639042));
#575 = CARTESIAN_POINT('',(1.E-02,-4.104894360958));
#576 = ( GEOMETRIC_REPRESENTATION_CONTEXT(2) 
PARAMETRIC_REPRESENTATION_CONTEXT() REPRESENTATION_CONTEXT('2D SPACE',''
  ) );
#577 = ADVANCED_FACE('',(#578,#581,#612,#643),#66,.T.);
#578 = FACE_BOUND('',#579,.T.);
#579 = EDGE_LOOP('',(#580));
#580 = ORIENTED_EDGE('',*,*,#51,.T.);
#581 = FACE_BOUND('',#582,.T.);
#582 = EDGE_LOOP('',(#583));
#583 = ORIENTED_EDGE('',*,*,#584,.F.);
#584 = EDGE_CURVE('',#585,#585,#587,.T.);
#585 = VERTEX_POINT('',#586);
#586 = CARTESIAN_POINT('',(-3.75,-1.224646799147E-16,14.8));
#587 = SURFACE_CURVE('',#588,(#593,#600),.PCURVE_S1.);
#588 = CIRCLE('',#589,0.5);
#589 = AXIS2_PLACEMENT_3D('',#590,#591,#592);
#590 = CARTESIAN_POINT('',(-4.25,0.,14.8));
#591 = DIRECTION('',(0.,0.,1.));
#592 = DIRECTION('',(1.,0.,-0.));
#593 = PCURVE('',#66,#594);
#594 = DEFINITIONAL_REPRESENTATION('',(#595),#599);
#595 = CIRCLE('',#596,0.5);
#596 = AXIS2_PLACEMENT_2D('',#597,#598);
#597 = CARTESIAN_POINT('',(-4.25,0.));
#598 = DIRECTION('',(1.,0.));
#599 = ( GEOMETRIC_REPRESENTATION_CONTEXT(2) 
PARAMETRIC_REPRESENTATION_CONTEXT() REPRESENTATION_CONTEXT('2D SPACE',''
  ) );
#600 = PCURVE('',#601,#606);
#601 = CYLINDRICAL_SURFACE('',#602,0.5);
#602 = AXIS2_PLACEMENT_3D('',#603,#604,#605);
#603 = CARTESIAN_POINT('',(-4.25,0.,12.9));
#604 = DIRECTION('',(0.,0.,1.));
#605 = DIRECTION('',(1.,0.,-0.));
#606 = DEFINITIONAL_REPRESENTATION('',(#607),#611);
#607 = LINE('',#608,#609);
#608 = CARTESIAN_POINT('',(0.,1.9));
#609 = VECTOR('',#610,1.);
#610 = DIRECTION('',(1.,0.));
#611 = ( GEOMETRIC_REPRESENTATION_CONTEXT(2) 
PARAMETRIC_REPRESENTATION_CONTEXT() REPRESENTATION_CONTEXT('2D SPACE',''
  ) );
#612 = FACE_BOUND('',#613,.T.);
#613 = EDGE_LOOP('',(#614));
#614 = ORIENTED_EDGE('',*,*,#615,.F.);
#615 = EDGE_CURVE('',#616,#616,#618,.T.);
#616 = VERTEX_POINT('',#617);
#617 = CARTESIAN_POINT('',(3.05,-7.470345474799E-16,14.8));
#618 = SURFACE_CURVE('',#619,(#624,#631),.PCURVE_S1.);
#619 = CIRCLE('',#620,3.05);
#620 = AXIS2_PLACEMENT_3D('',#621,#622,#623);
#621 = CARTESIAN_POINT('',(0.,0.,14.8));
#622 = DIRECTION('',(0.,0.,1.));
#623 = DIRECTION('',(1.,0.,-0.));
#624 = PCURVE('',#66,#625);
#625 = DEFINITIONAL_REPRESENTATION('',(#626),#630);
#626 = CIRCLE('',#627,3.05);
#627 = AXIS2_PLACEMENT_2D('',#628,#629);
#628 = CARTESIAN_POINT('',(0.,0.));
#629 = DIRECTION('',(1.,0.));
#630 = ( GEOMETRIC_REPRESENTATION_CONTEXT(2) 
PARAMETRIC_REPRESENTATION_CONTEXT() REPRESENTATION_CONTEXT('2D SPACE',''
  ) );
#631 = PCURVE('',#632,#637);
#632 = CYLINDRICAL_SURFACE('',#633,3.05);
#633 = AXIS2_PLACEMENT_3D('',#634,#635,#636);
#634 = CARTESIAN_POINT('',(0.,0.,12.3));
#635 = DIRECTION('',(0.,0.,1.));
#636 = DIRECTION('',(1.,0.,-0.));
#637 = DEFINITIONAL_REPRESENTATION('',(#638),#642);
#638 = LINE('',#639,#640);
#639 = CARTESIAN_POINT('',(0.,2.5));
#640 = VECTOR('',#641,1.);
#641 = DIRECTION('',(1.,0.));
#642 = ( GEOMETRIC_REPRESENTATION_CONTEXT(2) 
PARAMETRIC_REPRESENTATION_CONTEXT() REPRESENTATION_CONTEXT('2D SPACE',''
  ) );
#643 = FACE_BOUND('',#644,.T.);
#644 = EDGE_LOOP('',(#645));
#645 = ORIENTED_EDGE('',*,*,#646,.F.);
#646 = EDGE_CURVE('',#647,#647,#649,.T.);
#647 = VERTEX_POINT('',#648);
#648 = CARTESIAN_POINT('',(4.75,-1.224646799147E-16,14.8));
#649 = SURFACE_CURVE('',#650,(#655,#662),.PCURVE_S1.);
#650 = CIRCLE('',#651,0.5);
#651 = AXIS2_PLACEMENT_3D('',#652,#653,#654);
#652 = CARTESIAN_POINT('',(4.25,0.,14.8));
#653 = DIRECTION('',(0.,0.,1.));
#654 = DIRECTION('',(1.,0.,-0.));
#655 = PCURVE('',#66,#656);
#656 = DEFINITIONAL_REPRESENTATION('',(#657),#661);
#657 = CIRCLE('',#658,0.5);
#658 = AXIS2_PLACEMENT_2D('',#659,#660);
#659 = CARTESIAN_POINT('',(4.25,0.));
#660 = DIRECTION('',(1.,0.));
#661 = ( GEOMETRIC_REPRESENTATION_CONTEXT(2) 
PARAMETRIC_REPRESENTATION_CONTEXT() REPRESENTATION_CONTEXT('2D SPACE',''
  ) );
#662 = PCURVE('',#663,#668);
#663 = CYLINDRICAL_SURFACE('',#664,0.5);
#664 = AXIS2_PLACEMENT_3D('',#665,#666,#667);
#665 = CARTESIAN_POINT('',(4.25,0.,12.9));
#666 = DIRECTION('',(0.,0.,1.));
#667 = DIRECTION('',(1.,0.,-0.));
#668 = DEFINITIONAL_REPRESENTATION('',(#669),#673);
#669 = LINE('',#670,#671);
#670 = CARTESIAN_POINT('',(0.,1.9));
#671 = VECTOR('',#672,1.);
#672 = DIRECTION('',(1.,0.));
#673 = ( GEOMETRIC_REPRESENTATION_CONTEXT(2) 
PARAMETRIC_REPRESENTATION_CONTEXT() REPRESENTATION_CONTEXT('2D SPACE',''
  ) );
#674 = ADVANCED_FACE('',(#675),#230,.F.);
#675 = FACE_BOUND('',#676,.F.);
#676 = EDGE_LOOP('',(#677,#700,#701,#720,#887,#913));
#677 = ORIENTED_EDGE('',*,*,#678,.T.);
#678 = EDGE_CURVE('',#679,#133,#681,.T.);
#679 = VERTEX_POINT('',#680);
#680 = CARTESIAN_POINT('',(0.574025148548,1.385819298767,12.2));
#681 = SURFACE_CURVE('',#682,(#686,#693),.PCURVE_S1.);
#682 = LINE('',#683,#684);
#683 = CARTESIAN_POINT('',(0.574025148548,1.385819298767,12.2));
#684 = VECTOR('',#685,1.);
#685 = DIRECTION('',(0.382683432365,0.923879532511,0.));
#686 = PCURVE('',#230,#687);
#687 = DEFINITIONAL_REPRESENTATION('',(#688),#692);
#688 = LINE('',#689,#690);
#689 = CARTESIAN_POINT('',(6.28318530718,-0.));
#690 = VECTOR('',#691,1.);
#691 = DIRECTION('',(0.,1.));
#692 = ( GEOMETRIC_REPRESENTATION_CONTEXT(2) 
PARAMETRIC_REPRESENTATION_CONTEXT() REPRESENTATION_CONTEXT('2D SPACE',''
  ) );
#693 = PCURVE('',#379,#694);
#694 = DEFINITIONAL_REPRESENTATION('',(#695),#699);
#695 = LINE('',#696,#697);
#696 = CARTESIAN_POINT('',(0.,-0.));
#697 = VECTOR('',#698,1.);
#698 = DIRECTION('',(0.,1.));
#699 = ( GEOMETRIC_REPRESENTATION_CONTEXT(2) 
PARAMETRIC_REPRESENTATION_CONTEXT() REPRESENTATION_CONTEXT('2D SPACE',''
  ) );
#700 = ORIENTED_EDGE('',*,*,#132,.F.);
#701 = ORIENTED_EDGE('',*,*,#702,.F.);
#702 = EDGE_CURVE('',#440,#80,#703,.T.);
#703 = SURFACE_CURVE('',#704,(#708,#714),.PCURVE_S1.);
#704 = LINE('',#705,#706);
#705 = CARTESIAN_POINT('',(0.574025148548,1.385819298767,10.9));
#706 = VECTOR('',#707,1.);
#707 = DIRECTION('',(0.382683432365,0.923879532511,0.));
#708 = PCURVE('',#230,#709);
#709 = DEFINITIONAL_REPRESENTATION('',(#710),#713);
#710 = B_SPLINE_CURVE_WITH_KNOTS('',1,(#711,#712),.UNSPECIFIED.,.F.,.F.,
  (2,2),(-6.000000000791E-07,4.1000006),.PIECEWISE_BEZIER_KNOTS.);
#711 = CARTESIAN_POINT('',(3.14159265359,-6.000000000791E-07));
#712 = CARTESIAN_POINT('',(3.14159265359,4.1000006));
#713 = ( GEOMETRIC_REPRESENTATION_CONTEXT(2) 
PARAMETRIC_REPRESENTATION_CONTEXT() REPRESENTATION_CONTEXT('2D SPACE',''
  ) );
#714 = PCURVE('',#379,#715);
#715 = DEFINITIONAL_REPRESENTATION('',(#716),#719);
#716 = B_SPLINE_CURVE_WITH_KNOTS('',1,(#717,#718),.UNSPECIFIED.,.F.,.F.,
  (2,2),(-6.000000000791E-07,4.1000006),.PIECEWISE_BEZIER_KNOTS.);
#717 = CARTESIAN_POINT('',(3.14159265359,-6.000000000791E-07));
#718 = CARTESIAN_POINT('',(3.14159265359,4.1000006));
#719 = ( GEOMETRIC_REPRESENTATION_CONTEXT(2) 
PARAMETRIC_REPRESENTATION_CONTEXT() REPRESENTATION_CONTEXT('2D SPACE',''
  ) );
#720 = ORIENTED_EDGE('',*,*,#721,.T.);
#721 = EDGE_CURVE('',#440,#722,#724,.T.);
#722 = VERTEX_POINT('',#723);
#723 = CARTESIAN_POINT('',(0.216103314667,2.028521470774,11.85));
#724 = SURFACE_CURVE('',#725,(#777,#832),.PCURVE_S1.);
#725 = B_SPLINE_CURVE_WITH_KNOTS('',8,(#726,#727,#728,#729,#730,#731,
    #732,#733,#734,#735,#736,#737,#738,#739,#740,#741,#742,#743,#744,
    #745,#746,#747,#748,#749,#750,#751,#752,#753,#754,#755,#756,#757,
    #758,#759,#760,#761,#762,#763,#764,#765,#766,#767,#768,#769,#770,
    #771,#772,#773,#774,#775,#776),.UNSPECIFIED.,.F.,.F.,(9,7,7,7,7,7,7,
    9),(0.,8.689762548681E-02,0.152329603725,0.369316987318,
    0.586637992481,0.881411198489,0.91312664663,1.),.UNSPECIFIED.);
#726 = CARTESIAN_POINT('',(1.281572915332,1.587189611447,11.8500006));
#727 = CARTESIAN_POINT('',(1.292185085306,1.57862083711,11.824852960487)
  );
#728 = CARTESIAN_POINT('',(1.30170807831,1.570797501137,11.799126472893)
  );
#729 = CARTESIAN_POINT('',(1.310139300209,1.563767102122,11.772892017584
    ));
#730 = CARTESIAN_POINT('',(1.31747761933,1.557571254176,11.746219698633)
  );
#731 = CARTESIAN_POINT('',(1.323722874946,1.55224534227,11.719178882618)
  );
#732 = CARTESIAN_POINT('',(1.328875385759,1.547818177565,11.691838237404
    ));
#733 = CARTESIAN_POINT('',(1.332935458383,1.544311652752,11.66426577094)
  );
#734 = CARTESIAN_POINT('',(1.338137310183,1.539804299312,11.615643600902
    ));
#735 = CARTESIAN_POINT('',(1.339752094223,1.538398609153,11.594666433543
    ));
#736 = CARTESIAN_POINT('',(1.340747268595,1.537529614118,11.573627015405
    ));
#737 = CARTESIAN_POINT('',(1.341122834034,1.537201170618,11.552554987854
    ));
#738 = CARTESIAN_POINT('',(1.340878771362,1.537414704259,11.531479986181
    ));
#739 = CARTESIAN_POINT('',(1.340015041487,1.538169209845,11.510431639599
    ));
#740 = CARTESIAN_POINT('',(1.338531585404,1.539461251381,11.489439571246
    ));
#741 = CARTESIAN_POINT('',(1.329453429664,1.54733280321,11.399203753628)
  );
#742 = CARTESIAN_POINT('',(1.315662349158,1.559227660211,11.330819143404
    ));
#743 = CARTESIAN_POINT('',(1.295051313099,1.5767577088,11.264446961654)
  );
#744 = CARTESIAN_POINT('',(1.26761019857,1.599428808166,11.20116615652)
  );
#745 = CARTESIAN_POINT('',(1.233343048155,1.626478592892,11.142078241459
    ));
#746 = CARTESIAN_POINT('',(1.19232009276,1.656941634841,11.088302665284)
  );
#747 = CARTESIAN_POINT('',(1.144740861396,1.689738190831,11.040965055371
    ));
#748 = CARTESIAN_POINT('',(1.037152414485,1.757832220667,10.961347481847
    ));
#749 = CARTESIAN_POINT('',(0.976799276135,1.793339339541,10.928850142623
    ));
#750 = CARTESIAN_POINT('',(0.910864079871,1.82875973073,10.905488140541)
  );
#751 = CARTESIAN_POINT('',(0.840704321331,1.862543166869,10.892403395665
    ));
#752 = CARTESIAN_POINT('',(0.767994002861,1.893444567124,10.890158027362
    ));
#753 = CARTESIAN_POINT('',(0.694655824463,1.920677388417,10.898759552826
    ));
#754 = CARTESIAN_POINT('',(0.622747484783,1.943927988066,10.917647005545
    ));
#755 = CARTESIAN_POINT('',(0.461266234649,1.989513036421,10.983622019775
    ));
#756 = CARTESIAN_POINT('',(0.375285905307,2.008354041378,11.038052905008
    ));
#757 = CARTESIAN_POINT('',(0.299301975535,2.020660493671,11.106211645565
    ));
#758 = CARTESIAN_POINT('',(0.235906438393,2.027956440102,11.185336583013
    ));
#759 = CARTESIAN_POINT('',(0.187191918336,2.031979387543,11.272583485451
    ));
#760 = CARTESIAN_POINT('',(0.154567970935,2.034192007406,11.365144271529
    ));
#761 = CARTESIAN_POINT('',(0.138700727358,2.035279520368,11.460245921774
    ));
#762 = CARTESIAN_POINT('',(0.139569258718,2.035219995276,11.565311184723
    ));
#763 = CARTESIAN_POINT('',(0.139846400903,2.035200998081,11.575516063544
    ));
#764 = CARTESIAN_POINT('',(0.140316284155,2.035168754484,11.585716280408
    ));
#765 = CARTESIAN_POINT('',(0.140978782603,2.035123137945,11.595908445711
    ));
#766 = CARTESIAN_POINT('',(0.141833675584,2.035063926921,11.60608917187)
  );
#767 = CARTESIAN_POINT('',(0.142880647639,2.034990804866,11.616255073328
    ));
#768 = CARTESIAN_POINT('',(0.144119288518,2.034903360231,11.626402766555
    ));
#769 = CARTESIAN_POINT('',(0.149465541864,2.034520943329,11.664265781171
    ));
#770 = CARTESIAN_POINT('',(0.154815935233,2.03412952507,11.691838247322)
  );
#771 = CARTESIAN_POINT('',(0.161589788006,2.033616628099,11.719178885522
    ));
#772 = CARTESIAN_POINT('',(0.16977183622,2.032966555119,11.74621969172)
  );
#773 = CARTESIAN_POINT('',(0.17934193344,2.032158707242,11.772892001895)
  );
#774 = CARTESIAN_POINT('',(0.190274946976,2.031168176127,11.799126453179
    ));
#775 = CARTESIAN_POINT('',(0.2025406541,2.029966336103,11.824852944959)
  );
#776 = CARTESIAN_POINT('',(0.216103638267,2.0285214363,11.8500006));
#777 = PCURVE('',#230,#778);
#778 = DEFINITIONAL_REPRESENTATION('',(#779),#831);
#779 = B_SPLINE_CURVE_WITH_KNOTS('',8,(#780,#781,#782,#783,#784,#785,
    #786,#787,#788,#789,#790,#791,#792,#793,#794,#795,#796,#797,#798,
    #799,#800,#801,#802,#803,#804,#805,#806,#807,#808,#809,#810,#811,
    #812,#813,#814,#815,#816,#817,#818,#819,#820,#821,#822,#823,#824,
    #825,#826,#827,#828,#829,#830),.UNSPECIFIED.,.F.,.F.,(9,7,7,7,7,7,7,
    9),(0.,8.689762548681E-02,0.152329603725,0.369316987318,
    0.586637992481,0.881411198489,0.91312664663,1.),.UNSPECIFIED.);
#780 = CARTESIAN_POINT('',(1.091066648587,0.456808718296));
#781 = CARTESIAN_POINT('',(1.134678210059,0.452953304698));
#782 = CARTESIAN_POINT('',(1.178162696518,0.449369776366));
#783 = CARTESIAN_POINT('',(1.221535218483,0.446101023545));
#784 = CARTESIAN_POINT('',(1.264811301296,0.443185059591));
#785 = CARTESIAN_POINT('',(1.308006927486,0.440654514444));
#786 = CARTESIAN_POINT('',(1.351138579131,0.438536128109));
#787 = CARTESIAN_POINT('',(1.39422328022,0.436850244131));
#788 = CARTESIAN_POINT('',(1.46969836607,0.434676655044));
#789 = CARTESIAN_POINT('',(1.502099432494,0.433995917776));
#790 = CARTESIAN_POINT('',(1.534488004534,0.433573907794));
#791 = CARTESIAN_POINT('',(1.56687025937,0.433414188238));
#792 = CARTESIAN_POINT('',(1.599252385116,0.433518068857));
#793 = CARTESIAN_POINT('',(1.631640580816,0.433884606012));
#794 = CARTESIAN_POINT('',(1.664041056453,0.434510602677));
#795 = CARTESIAN_POINT('',(1.80396876301,0.438308908503));
#796 = CARTESIAN_POINT('',(1.911680635713,0.444020705404));
#797 = CARTESIAN_POINT('',(2.019845720866,0.452328856475));
#798 = CARTESIAN_POINT('',(2.128704167185,0.462772961263));
#799 = CARTESIAN_POINT('',(2.238496541215,0.474650232992));
#800 = CARTESIAN_POINT('',(2.349470077166,0.48709560857));
#801 = CARTESIAN_POINT('',(2.461895111479,0.499187891819));
#802 = CARTESIAN_POINT('',(2.690492441438,0.520926256124));
#803 = CARTESIAN_POINT('',(2.807360797652,0.530634410372));
#804 = CARTESIAN_POINT('',(2.925635947763,0.538126277606));
#805 = CARTESIAN_POINT('',(3.044670146884,0.54248912558));
#806 = CARTESIAN_POINT('',(3.163980561794,0.543213262561));
#807 = CARTESIAN_POINT('',(3.283119693733,0.540307802933));
#808 = CARTESIAN_POINT('',(3.401573715239,0.534270425824));
#809 = CARTESIAN_POINT('',(3.677295671713,0.514589319923));
#810 = CARTESIAN_POINT('',(3.832062554797,0.499092891227));
#811 = CARTESIAN_POINT('',(3.983907498045,0.481384779568));
#812 = CARTESIAN_POINT('',(4.133500345679,0.463864933396));
#813 = CARTESIAN_POINT('',(4.281418726068,0.448939412456));
#814 = CARTESIAN_POINT('',(4.428177802503,0.438498962492));
#815 = CARTESIAN_POINT('',(4.574301362676,0.433431562224));
#816 = CARTESIAN_POINT('',(4.735945214229,0.433708940772));
#817 = CARTESIAN_POINT('',(4.751647726021,0.433797447376));
#818 = CARTESIAN_POINT('',(4.767351177369,0.433947474712));
#819 = CARTESIAN_POINT('',(4.783056253129,0.434158857705));
#820 = CARTESIAN_POINT('',(4.798763643034,0.434431307232));
#821 = CARTESIAN_POINT('',(4.814474041699,0.434764410121));
#822 = CARTESIAN_POINT('',(4.830188148618,0.435157629156));
#823 = CARTESIAN_POINT('',(4.888962042842,0.436850244589));
#824 = CARTESIAN_POINT('',(4.932046744164,0.438536128168));
#825 = CARTESIAN_POINT('',(4.975178385014,0.440654514385));
#826 = CARTESIAN_POINT('',(5.018373995049,0.443185059558));
#827 = CARTESIAN_POINT('',(5.061650062689,0.446101023091));
#828 = CARTESIAN_POINT('',(5.105022577101,0.449369774814));
#829 = CARTESIAN_POINT('',(5.148507070191,0.452953302317));
#830 = CARTESIAN_POINT('',(5.192118658593,0.456808718296));
#831 = ( GEOMETRIC_REPRESENTATION_CONTEXT(2) 
PARAMETRIC_REPRESENTATION_CONTEXT() REPRESENTATION_CONTEXT('2D SPACE',''
  ) );
#832 = PCURVE('',#458,#833);
#833 = DEFINITIONAL_REPRESENTATION('',(#834),#886);
#834 = B_SPLINE_CURVE_WITH_KNOTS('',8,(#835,#836,#837,#838,#839,#840,
    #841,#842,#843,#844,#845,#846,#847,#848,#849,#850,#851,#852,#853,
    #854,#855,#856,#857,#858,#859,#860,#861,#862,#863,#864,#865,#866,
    #867,#868,#869,#870,#871,#872,#873,#874,#875,#876,#877,#878,#879,
    #880,#881,#882,#883,#884,#885),.UNSPECIFIED.,.F.,.F.,(9,7,7,7,7,7,7,
    9),(0.,8.689762548681E-02,0.152329603725,0.369316987318,
    0.586637992481,0.881411198489,0.91312664663,1.),.UNSPECIFIED.);
#835 = CARTESIAN_POINT('',(0.891530454028,0.9600006));
#836 = CARTESIAN_POINT('',(0.884844315272,0.934852960487));
#837 = CARTESIAN_POINT('',(0.878803130816,0.909126472893));
#838 = CARTESIAN_POINT('',(0.873422077937,0.882892017584));
#839 = CARTESIAN_POINT('',(0.868714307609,0.856219698633));
#840 = CARTESIAN_POINT('',(0.864690913766,0.829178882618));
#841 = CARTESIAN_POINT('',(0.861360902567,0.801838237404));
#842 = CARTESIAN_POINT('',(0.858731161653,0.77426577094));
#843 = CARTESIAN_POINT('',(0.855357148875,0.725643600902));
#844 = CARTESIAN_POINT('',(0.854307684066,0.704666433543));
#845 = CARTESIAN_POINT('',(0.853660047827,0.683627015405));
#846 = CARTESIAN_POINT('',(0.853415479174,0.662554987854));
#847 = CARTESIAN_POINT('',(0.853574443302,0.641479986181));
#848 = CARTESIAN_POINT('',(0.854136631582,0.620431639599));
#849 = CARTESIAN_POINT('',(0.855100961563,0.599439571246));
#850 = CARTESIAN_POINT('',(0.860990953332,0.509203753628));
#851 = CARTESIAN_POINT('',(0.869918434906,0.440819143404));
#852 = CARTESIAN_POINT('',(0.883181527351,0.374446961654));
#853 = CARTESIAN_POINT('',(0.900626666082,0.31116615652));
#854 = CARTESIAN_POINT('',(0.922014519461,0.252078241459));
#855 = CARTESIAN_POINT('',(0.947038679277,0.198302665284));
#856 = CARTESIAN_POINT('',(0.975344098088,0.150965055371));
#857 = CARTESIAN_POINT('',(1.037759112988,7.134748184715E-02));
#858 = CARTESIAN_POINT('',(1.072066075907,3.8850142623E-02));
#859 = CARTESIAN_POINT('',(1.108709177301,1.548814054098E-02));
#860 = CARTESIAN_POINT('',(1.146803353243,2.403395664922E-03));
#861 = CARTESIAN_POINT('',(1.185447744192,1.580273619505E-04));
#862 = CARTESIAN_POINT('',(1.22373720474,8.759552825502E-03));
#863 = CARTESIAN_POINT('',(1.260757022417,2.764700554472E-02));
#864 = CARTESIAN_POINT('',(1.343008054686,9.362201977465E-02));
#865 = CARTESIAN_POINT('',(1.386079282912,0.148052905008));
#866 = CARTESIAN_POINT('',(1.423725619753,0.216211645565));
#867 = CARTESIAN_POINT('',(1.454968270168,0.295336583013));
#868 = CARTESIAN_POINT('',(1.47892852668,0.382583485451));
#869 = CARTESIAN_POINT('',(1.494956900088,0.475144271529));
#870 = CARTESIAN_POINT('',(1.502753286482,0.570245921774));
#871 = CARTESIAN_POINT('',(1.502326537091,0.675311184723));
#872 = CARTESIAN_POINT('',(1.502190364127,0.685516063544));
#873 = CARTESIAN_POINT('',(1.501959487511,0.695716280408));
#874 = CARTESIAN_POINT('',(1.501633964618,0.705908445711));
#875 = CARTESIAN_POINT('',(1.501213895766,0.71608917187));
#876 = CARTESIAN_POINT('',(1.500699424216,0.726255073328));
#877 = CARTESIAN_POINT('',(1.500090736171,0.736402766555));
#878 = CARTESIAN_POINT('',(1.49746332783,0.774265781171));
#879 = CARTESIAN_POINT('',(1.494833586485,0.801838247322));
#880 = CARTESIAN_POINT('',(1.491503575638,0.829178885522));
#881 = CARTESIAN_POINT('',(1.487480183091,0.85621969172));
#882 = CARTESIAN_POINT('',(1.482772414704,0.882892001895));
#883 = CARTESIAN_POINT('',(1.477391363545,0.909126453179));
#884 = CARTESIAN_POINT('',(1.471350179049,0.934852944959));
#885 = CARTESIAN_POINT('',(1.464664036165,0.9600006));
#886 = ( GEOMETRIC_REPRESENTATION_CONTEXT(2) 
PARAMETRIC_REPRESENTATION_CONTEXT() REPRESENTATION_CONTEXT('2D SPACE',''
  ) );
#887 = ORIENTED_EDGE('',*,*,#888,.F.);
#888 = EDGE_CURVE('',#889,#722,#891,.T.);
#889 = VERTEX_POINT('',#890);
#890 = CARTESIAN_POINT('',(4.129022161655E-02,1.606485330652,11.85));
#891 = SURFACE_CURVE('',#892,(#896,#902),.PCURVE_S1.);
#892 = LINE('',#893,#894);
#893 = CARTESIAN_POINT('',(4.129022161655E-02,1.606485330652,11.85));
#894 = VECTOR('',#895,1.);
#895 = DIRECTION('',(0.382683432365,0.923879532511,0.));
#896 = PCURVE('',#230,#897);
#897 = DEFINITIONAL_REPRESENTATION('',(#898),#901);
#898 = B_SPLINE_CURVE_WITH_KNOTS('',1,(#899,#900),.UNSPECIFIED.,.F.,.F.,
  (2,2),(-5.999999999942E-07,0.910848914534),.PIECEWISE_BEZIER_KNOTS.);
#899 = CARTESIAN_POINT('',(5.19211761806,-5.999999999942E-07));
#900 = CARTESIAN_POINT('',(5.19211761806,0.910848914534));
#901 = ( GEOMETRIC_REPRESENTATION_CONTEXT(2) 
PARAMETRIC_REPRESENTATION_CONTEXT() REPRESENTATION_CONTEXT('2D SPACE',''
  ) );
#902 = PCURVE('',#903,#908);
#903 = PLANE('',#904);
#904 = AXIS2_PLACEMENT_3D('',#905,#906,#907);
#905 = CARTESIAN_POINT('',(0.,0.,11.85));
#906 = DIRECTION('',(0.,0.,1.));
#907 = DIRECTION('',(1.,0.,-0.));
#908 = DEFINITIONAL_REPRESENTATION('',(#909),#912);
#909 = B_SPLINE_CURVE_WITH_KNOTS('',1,(#910,#911),.UNSPECIFIED.,.F.,.F.,
  (2,2),(-5.999999999942E-07,0.910848914534),.PIECEWISE_BEZIER_KNOTS.);
#910 = CARTESIAN_POINT('',(4.128999200649E-02,1.606484776324));
#911 = CARTESIAN_POINT('',(0.389857010597,2.448));
#912 = ( GEOMETRIC_REPRESENTATION_CONTEXT(2) 
PARAMETRIC_REPRESENTATION_CONTEXT() REPRESENTATION_CONTEXT('2D SPACE',''
  ) );
#913 = ORIENTED_EDGE('',*,*,#914,.T.);
#914 = EDGE_CURVE('',#889,#679,#915,.T.);
#915 = SURFACE_CURVE('',#916,(#921,#928),.PCURVE_S1.);
#916 = CIRCLE('',#917,0.65);
#917 = AXIS2_PLACEMENT_3D('',#918,#919,#920);
#918 = CARTESIAN_POINT('',(0.574025148548,1.385819298767,11.55));
#919 = DIRECTION('',(0.382683432365,0.923879532511,-0.));
#920 = DIRECTION('',(0.,0.,1.));
#921 = PCURVE('',#230,#922);
#922 = DEFINITIONAL_REPRESENTATION('',(#923),#927);
#923 = LINE('',#924,#925);
#924 = CARTESIAN_POINT('',(0.,0.));
#925 = VECTOR('',#926,1.);
#926 = DIRECTION('',(1.,0.));
#927 = ( GEOMETRIC_REPRESENTATION_CONTEXT(2) 
PARAMETRIC_REPRESENTATION_CONTEXT() REPRESENTATION_CONTEXT('2D SPACE',''
  ) );
#928 = PCURVE('',#929,#934);
#929 = PLANE('',#930);
#930 = AXIS2_PLACEMENT_3D('',#931,#932,#933);
#931 = CARTESIAN_POINT('',(0.574025148548,1.385819298767,11.55));
#932 = DIRECTION('',(0.382683432365,0.923879532511,0.));
#933 = DIRECTION('',(0.,0.,1.));
#934 = DEFINITIONAL_REPRESENTATION('',(#935),#939);
#935 = CIRCLE('',#936,0.65);
#936 = AXIS2_PLACEMENT_2D('',#937,#938);
#937 = CARTESIAN_POINT('',(0.,0.));
#938 = DIRECTION('',(1.,0.));
#939 = ( GEOMETRIC_REPRESENTATION_CONTEXT(2) 
PARAMETRIC_REPRESENTATION_CONTEXT() REPRESENTATION_CONTEXT('2D SPACE',''
  ) );
#940 = ADVANCED_FACE('',(#941),#379,.F.);
#941 = FACE_BOUND('',#942,.F.);
#942 = EDGE_LOOP('',(#943,#944,#945,#969,#990,#1155));
#943 = ORIENTED_EDGE('',*,*,#283,.F.);
#944 = ORIENTED_EDGE('',*,*,#678,.F.);
#945 = ORIENTED_EDGE('',*,*,#946,.T.);
#946 = EDGE_CURVE('',#679,#947,#949,.T.);
#947 = VERTEX_POINT('',#948);
#948 = CARTESIAN_POINT('',(1.106760075479,1.165153266882,11.85));
#949 = SURFACE_CURVE('',#950,(#955,#962),.PCURVE_S1.);
#950 = CIRCLE('',#951,0.65);
#951 = AXIS2_PLACEMENT_3D('',#952,#953,#954);
#952 = CARTESIAN_POINT('',(0.574025148548,1.385819298767,11.55));
#953 = DIRECTION('',(0.382683432365,0.923879532511,-0.));
#954 = DIRECTION('',(0.,0.,1.));
#955 = PCURVE('',#379,#956);
#956 = DEFINITIONAL_REPRESENTATION('',(#957),#961);
#957 = LINE('',#958,#959);
#958 = CARTESIAN_POINT('',(0.,0.));
#959 = VECTOR('',#960,1.);
#960 = DIRECTION('',(1.,0.));
#961 = ( GEOMETRIC_REPRESENTATION_CONTEXT(2) 
PARAMETRIC_REPRESENTATION_CONTEXT() REPRESENTATION_CONTEXT('2D SPACE',''
  ) );
#962 = PCURVE('',#929,#963);
#963 = DEFINITIONAL_REPRESENTATION('',(#964),#968);
#964 = CIRCLE('',#965,0.65);
#965 = AXIS2_PLACEMENT_2D('',#966,#967);
#966 = CARTESIAN_POINT('',(0.,0.));
#967 = DIRECTION('',(1.,0.));
#968 = ( GEOMETRIC_REPRESENTATION_CONTEXT(2) 
PARAMETRIC_REPRESENTATION_CONTEXT() REPRESENTATION_CONTEXT('2D SPACE',''
  ) );
#969 = ORIENTED_EDGE('',*,*,#970,.T.);
#970 = EDGE_CURVE('',#947,#971,#973,.T.);
#971 = VERTEX_POINT('',#972);
#972 = CARTESIAN_POINT('',(1.281573168529,1.587189407004,11.85));
#973 = SURFACE_CURVE('',#974,(#978,#984),.PCURVE_S1.);
#974 = LINE('',#975,#976);
#975 = CARTESIAN_POINT('',(1.106760075479,1.165153266882,11.85));
#976 = VECTOR('',#977,1.);
#977 = DIRECTION('',(0.382683432365,0.923879532511,0.));
#978 = PCURVE('',#379,#979);
#979 = DEFINITIONAL_REPRESENTATION('',(#980),#983);
#980 = B_SPLINE_CURVE_WITH_KNOTS('',1,(#981,#982),.UNSPECIFIED.,.F.,.F.,
  (2,2),(-5.999999999942E-07,1.388543298097),.PIECEWISE_BEZIER_KNOTS.);
#981 = CARTESIAN_POINT('',(1.091067689119,-5.999999999942E-07));
#982 = CARTESIAN_POINT('',(1.091067689119,1.388543298097));
#983 = ( GEOMETRIC_REPRESENTATION_CONTEXT(2) 
PARAMETRIC_REPRESENTATION_CONTEXT() REPRESENTATION_CONTEXT('2D SPACE',''
  ) );
#984 = PCURVE('',#903,#985);
#985 = DEFINITIONAL_REPRESENTATION('',(#986),#989);
#986 = B_SPLINE_CURVE_WITH_KNOTS('',1,(#987,#988),.UNSPECIFIED.,.F.,.F.,
  (2,2),(-5.999999999942E-07,1.388543298097),.PIECEWISE_BEZIER_KNOTS.);
#987 = CARTESIAN_POINT('',(1.106759845869,1.165152712555));
#988 = CARTESIAN_POINT('',(1.638132590782,2.448));
#989 = ( GEOMETRIC_REPRESENTATION_CONTEXT(2) 
PARAMETRIC_REPRESENTATION_CONTEXT() REPRESENTATION_CONTEXT('2D SPACE',''
  ) );
#990 = ORIENTED_EDGE('',*,*,#991,.T.);
#991 = EDGE_CURVE('',#971,#440,#992,.T.);
#992 = SURFACE_CURVE('',#993,(#1045,#1100),.PCURVE_S1.);
#993 = B_SPLINE_CURVE_WITH_KNOTS('',8,(#994,#995,#996,#997,#998,#999,
    #1000,#1001,#1002,#1003,#1004,#1005,#1006,#1007,#1008,#1009,#1010,
    #1011,#1012,#1013,#1014,#1015,#1016,#1017,#1018,#1019,#1020,#1021,
    #1022,#1023,#1024,#1025,#1026,#1027,#1028,#1029,#1030,#1031,#1032,
    #1033,#1034,#1035,#1036,#1037,#1038,#1039,#1040,#1041,#1042,#1043,
    #1044),.UNSPECIFIED.,.F.,.F.,(9,7,7,7,7,7,7,9),(0.,
    8.689762548681E-02,0.152329603725,0.369316987318,0.586637992481,
    0.881411198489,0.91312664663,1.),.UNSPECIFIED.);
#994 = CARTESIAN_POINT('',(1.281572915332,1.587189611447,11.8500006));
#995 = CARTESIAN_POINT('',(1.292185085306,1.57862083711,11.824852960487)
  );
#996 = CARTESIAN_POINT('',(1.30170807831,1.570797501137,11.799126472893)
  );
#997 = CARTESIAN_POINT('',(1.310139300209,1.563767102122,11.772892017584
    ));
#998 = CARTESIAN_POINT('',(1.31747761933,1.557571254176,11.746219698633)
  );
#999 = CARTESIAN_POINT('',(1.323722874946,1.55224534227,11.719178882618)
  );
#1000 = CARTESIAN_POINT('',(1.328875385759,1.547818177565,
    11.691838237404));
#1001 = CARTESIAN_POINT('',(1.332935458383,1.544311652752,11.66426577094
    ));
#1002 = CARTESIAN_POINT('',(1.338137310183,1.539804299312,
    11.615643600902));
#1003 = CARTESIAN_POINT('',(1.339752094223,1.538398609153,
    11.594666433543));
#1004 = CARTESIAN_POINT('',(1.340747268595,1.537529614118,
    11.573627015405));
#1005 = CARTESIAN_POINT('',(1.341122834034,1.537201170618,
    11.552554987854));
#1006 = CARTESIAN_POINT('',(1.340878771362,1.537414704259,
    11.531479986181));
#1007 = CARTESIAN_POINT('',(1.340015041487,1.538169209845,
    11.510431639599));
#1008 = CARTESIAN_POINT('',(1.338531585404,1.539461251381,
    11.489439571246));
#1009 = CARTESIAN_POINT('',(1.329453429664,1.54733280321,11.399203753628
    ));
#1010 = CARTESIAN_POINT('',(1.315662349158,1.559227660211,
    11.330819143404));
#1011 = CARTESIAN_POINT('',(1.295051313099,1.5767577088,11.264446961654)
  );
#1012 = CARTESIAN_POINT('',(1.26761019857,1.599428808166,11.20116615652)
  );
#1013 = CARTESIAN_POINT('',(1.233343048155,1.626478592892,
    11.142078241459));
#1014 = CARTESIAN_POINT('',(1.19232009276,1.656941634841,11.088302665284
    ));
#1015 = CARTESIAN_POINT('',(1.144740861396,1.689738190831,
    11.040965055371));
#1016 = CARTESIAN_POINT('',(1.037152414485,1.757832220667,
    10.961347481847));
#1017 = CARTESIAN_POINT('',(0.976799276135,1.793339339541,
    10.928850142623));
#1018 = CARTESIAN_POINT('',(0.910864079871,1.82875973073,10.905488140541
    ));
#1019 = CARTESIAN_POINT('',(0.840704321331,1.862543166869,
    10.892403395665));
#1020 = CARTESIAN_POINT('',(0.767994002861,1.893444567124,
    10.890158027362));
#1021 = CARTESIAN_POINT('',(0.694655824463,1.920677388417,
    10.898759552826));
#1022 = CARTESIAN_POINT('',(0.622747484783,1.943927988066,
    10.917647005545));
#1023 = CARTESIAN_POINT('',(0.461266234649,1.989513036421,
    10.983622019775));
#1024 = CARTESIAN_POINT('',(0.375285905307,2.008354041378,
    11.038052905008));
#1025 = CARTESIAN_POINT('',(0.299301975535,2.020660493671,
    11.106211645565));
#1026 = CARTESIAN_POINT('',(0.235906438393,2.027956440102,
    11.185336583013));
#1027 = CARTESIAN_POINT('',(0.187191918336,2.031979387543,
    11.272583485451));
#1028 = CARTESIAN_POINT('',(0.154567970935,2.034192007406,
    11.365144271529));
#1029 = CARTESIAN_POINT('',(0.138700727358,2.035279520368,
    11.460245921774));
#1030 = CARTESIAN_POINT('',(0.139569258718,2.035219995276,
    11.565311184723));
#1031 = CARTESIAN_POINT('',(0.139846400903,2.035200998081,
    11.575516063544));
#1032 = CARTESIAN_POINT('',(0.140316284155,2.035168754484,
    11.585716280408));
#1033 = CARTESIAN_POINT('',(0.140978782603,2.035123137945,
    11.595908445711));
#1034 = CARTESIAN_POINT('',(0.141833675584,2.035063926921,11.60608917187
    ));
#1035 = CARTESIAN_POINT('',(0.142880647639,2.034990804866,
    11.616255073328));
#1036 = CARTESIAN_POINT('',(0.144119288518,2.034903360231,
    11.626402766555));
#1037 = CARTESIAN_POINT('',(0.149465541864,2.034520943329,
    11.664265781171));
#1038 = CARTESIAN_POINT('',(0.154815935233,2.03412952507,11.691838247322
    ));
#1039 = CARTESIAN_POINT('',(0.161589788006,2.033616628099,
    11.719178885522));
#1040 = CARTESIAN_POINT('',(0.16977183622,2.032966555119,11.74621969172)
  );
#1041 = CARTESIAN_POINT('',(0.17934193344,2.032158707242,11.772892001895
    ));
#1042 = CARTESIAN_POINT('',(0.190274946976,2.031168176127,
    11.799126453179));
#1043 = CARTESIAN_POINT('',(0.2025406541,2.029966336103,11.824852944959)
  );
#1044 = CARTESIAN_POINT('',(0.216103638267,2.0285214363,11.8500006));
#1045 = PCURVE('',#379,#1046);
#1046 = DEFINITIONAL_REPRESENTATION('',(#1047),#1099);
#1047 = B_SPLINE_CURVE_WITH_KNOTS('',8,(#1048,#1049,#1050,#1051,#1052,
    #1053,#1054,#1055,#1056,#1057,#1058,#1059,#1060,#1061,#1062,#1063,
    #1064,#1065,#1066,#1067,#1068,#1069,#1070,#1071,#1072,#1073,#1074,
    #1075,#1076,#1077,#1078,#1079,#1080,#1081,#1082,#1083,#1084,#1085,
    #1086,#1087,#1088,#1089,#1090,#1091,#1092,#1093,#1094,#1095,#1096,
    #1097,#1098),.UNSPECIFIED.,.F.,.F.,(9,7,7,7,7,7,7,9),(0.,
    8.689762548681E-02,0.152329603725,0.369316987318,0.586637992481,
    0.881411198489,0.91312664663,1.),.UNSPECIFIED.);
#1048 = CARTESIAN_POINT('',(1.091066648587,0.456808718296));
#1049 = CARTESIAN_POINT('',(1.134678210059,0.452953304698));
#1050 = CARTESIAN_POINT('',(1.178162696518,0.449369776366));
#1051 = CARTESIAN_POINT('',(1.221535218483,0.446101023545));
#1052 = CARTESIAN_POINT('',(1.264811301296,0.443185059591));
#1053 = CARTESIAN_POINT('',(1.308006927486,0.440654514444));
#1054 = CARTESIAN_POINT('',(1.351138579131,0.438536128109));
#1055 = CARTESIAN_POINT('',(1.39422328022,0.436850244131));
#1056 = CARTESIAN_POINT('',(1.46969836607,0.434676655044));
#1057 = CARTESIAN_POINT('',(1.502099432494,0.433995917776));
#1058 = CARTESIAN_POINT('',(1.534488004534,0.433573907794));
#1059 = CARTESIAN_POINT('',(1.56687025937,0.433414188238));
#1060 = CARTESIAN_POINT('',(1.599252385116,0.433518068857));
#1061 = CARTESIAN_POINT('',(1.631640580816,0.433884606012));
#1062 = CARTESIAN_POINT('',(1.664041056453,0.434510602677));
#1063 = CARTESIAN_POINT('',(1.80396876301,0.438308908503));
#1064 = CARTESIAN_POINT('',(1.911680635713,0.444020705404));
#1065 = CARTESIAN_POINT('',(2.019845720866,0.452328856475));
#1066 = CARTESIAN_POINT('',(2.128704167185,0.462772961263));
#1067 = CARTESIAN_POINT('',(2.238496541215,0.474650232992));
#1068 = CARTESIAN_POINT('',(2.349470077166,0.48709560857));
#1069 = CARTESIAN_POINT('',(2.461895111479,0.499187891819));
#1070 = CARTESIAN_POINT('',(2.690492441438,0.520926256124));
#1071 = CARTESIAN_POINT('',(2.807360797652,0.530634410372));
#1072 = CARTESIAN_POINT('',(2.925635947763,0.538126277606));
#1073 = CARTESIAN_POINT('',(3.044670146884,0.54248912558));
#1074 = CARTESIAN_POINT('',(3.163980561794,0.543213262561));
#1075 = CARTESIAN_POINT('',(3.283119693733,0.540307802933));
#1076 = CARTESIAN_POINT('',(3.401573715239,0.534270425824));
#1077 = CARTESIAN_POINT('',(3.677295671713,0.514589319923));
#1078 = CARTESIAN_POINT('',(3.832062554797,0.499092891227));
#1079 = CARTESIAN_POINT('',(3.983907498045,0.481384779568));
#1080 = CARTESIAN_POINT('',(4.133500345679,0.463864933396));
#1081 = CARTESIAN_POINT('',(4.281418726068,0.448939412456));
#1082 = CARTESIAN_POINT('',(4.428177802503,0.438498962492));
#1083 = CARTESIAN_POINT('',(4.574301362676,0.433431562224));
#1084 = CARTESIAN_POINT('',(4.735945214229,0.433708940772));
#1085 = CARTESIAN_POINT('',(4.751647726021,0.433797447376));
#1086 = CARTESIAN_POINT('',(4.767351177369,0.433947474712));
#1087 = CARTESIAN_POINT('',(4.783056253129,0.434158857705));
#1088 = CARTESIAN_POINT('',(4.798763643034,0.434431307232));
#1089 = CARTESIAN_POINT('',(4.814474041699,0.434764410121));
#1090 = CARTESIAN_POINT('',(4.830188148618,0.435157629156));
#1091 = CARTESIAN_POINT('',(4.888962042842,0.436850244589));
#1092 = CARTESIAN_POINT('',(4.932046744164,0.438536128168));
#1093 = CARTESIAN_POINT('',(4.975178385014,0.440654514385));
#1094 = CARTESIAN_POINT('',(5.018373995049,0.443185059558));
#1095 = CARTESIAN_POINT('',(5.061650062689,0.446101023091));
#1096 = CARTESIAN_POINT('',(5.105022577101,0.449369774814));
#1097 = CARTESIAN_POINT('',(5.148507070191,0.452953302317));
#1098 = CARTESIAN_POINT('',(5.192118658593,0.456808718296));
#1099 = ( GEOMETRIC_REPRESENTATION_CONTEXT(2) 
PARAMETRIC_REPRESENTATION_CONTEXT() REPRESENTATION_CONTEXT('2D SPACE',''
  ) );
#1100 = PCURVE('',#487,#1101);
#1101 = DEFINITIONAL_REPRESENTATION('',(#1102),#1154);
#1102 = B_SPLINE_CURVE_WITH_KNOTS('',8,(#1103,#1104,#1105,#1106,#1107,
    #1108,#1109,#1110,#1111,#1112,#1113,#1114,#1115,#1116,#1117,#1118,
    #1119,#1120,#1121,#1122,#1123,#1124,#1125,#1126,#1127,#1128,#1129,
    #1130,#1131,#1132,#1133,#1134,#1135,#1136,#1137,#1138,#1139,#1140,
    #1141,#1142,#1143,#1144,#1145,#1146,#1147,#1148,#1149,#1150,#1151,
    #1152,#1153),.UNSPECIFIED.,.F.,.F.,(9,7,7,7,7,7,7,9),(0.,
    8.689762548681E-02,0.152329603725,0.369316987318,0.586637992481,
    0.881411198489,0.91312664663,1.),.UNSPECIFIED.);
#1103 = CARTESIAN_POINT('',(0.891530454028,0.9600006));
#1104 = CARTESIAN_POINT('',(0.884844315272,0.934852960487));
#1105 = CARTESIAN_POINT('',(0.878803130816,0.909126472893));
#1106 = CARTESIAN_POINT('',(0.873422077937,0.882892017584));
#1107 = CARTESIAN_POINT('',(0.868714307609,0.856219698633));
#1108 = CARTESIAN_POINT('',(0.864690913766,0.829178882618));
#1109 = CARTESIAN_POINT('',(0.861360902567,0.801838237404));
#1110 = CARTESIAN_POINT('',(0.858731161653,0.77426577094));
#1111 = CARTESIAN_POINT('',(0.855357148875,0.725643600902));
#1112 = CARTESIAN_POINT('',(0.854307684066,0.704666433543));
#1113 = CARTESIAN_POINT('',(0.853660047827,0.683627015405));
#1114 = CARTESIAN_POINT('',(0.853415479174,0.662554987854));
#1115 = CARTESIAN_POINT('',(0.853574443302,0.641479986181));
#1116 = CARTESIAN_POINT('',(0.854136631582,0.620431639599));
#1117 = CARTESIAN_POINT('',(0.855100961563,0.599439571246));
#1118 = CARTESIAN_POINT('',(0.860990953332,0.509203753628));
#1119 = CARTESIAN_POINT('',(0.869918434906,0.440819143404));
#1120 = CARTESIAN_POINT('',(0.883181527351,0.374446961654));
#1121 = CARTESIAN_POINT('',(0.900626666082,0.31116615652));
#1122 = CARTESIAN_POINT('',(0.922014519461,0.252078241459));
#1123 = CARTESIAN_POINT('',(0.947038679277,0.198302665284));
#1124 = CARTESIAN_POINT('',(0.975344098088,0.150965055371));
#1125 = CARTESIAN_POINT('',(1.037759112988,7.134748184715E-02));
#1126 = CARTESIAN_POINT('',(1.072066075907,3.8850142623E-02));
#1127 = CARTESIAN_POINT('',(1.108709177301,1.548814054098E-02));
#1128 = CARTESIAN_POINT('',(1.146803353243,2.403395664922E-03));
#1129 = CARTESIAN_POINT('',(1.185447744192,1.580273619505E-04));
#1130 = CARTESIAN_POINT('',(1.22373720474,8.759552825502E-03));
#1131 = CARTESIAN_POINT('',(1.260757022417,2.764700554472E-02));
#1132 = CARTESIAN_POINT('',(1.343008054686,9.362201977465E-02));
#1133 = CARTESIAN_POINT('',(1.386079282912,0.148052905008));
#1134 = CARTESIAN_POINT('',(1.423725619753,0.216211645565));
#1135 = CARTESIAN_POINT('',(1.454968270168,0.295336583013));
#1136 = CARTESIAN_POINT('',(1.47892852668,0.382583485451));
#1137 = CARTESIAN_POINT('',(1.494956900088,0.475144271529));
#1138 = CARTESIAN_POINT('',(1.502753286482,0.570245921774));
#1139 = CARTESIAN_POINT('',(1.502326537091,0.675311184723));
#1140 = CARTESIAN_POINT('',(1.502190364127,0.685516063544));
#1141 = CARTESIAN_POINT('',(1.501959487511,0.695716280408));
#1142 = CARTESIAN_POINT('',(1.501633964618,0.705908445711));
#1143 = CARTESIAN_POINT('',(1.501213895766,0.71608917187));
#1144 = CARTESIAN_POINT('',(1.500699424216,0.726255073328));
#1145 = CARTESIAN_POINT('',(1.500090736171,0.736402766555));
#1146 = CARTESIAN_POINT('',(1.49746332783,0.774265781171));
#1147 = CARTESIAN_POINT('',(1.494833586485,0.801838247322));
#1148 = CARTESIAN_POINT('',(1.491503575638,0.829178885522));
#1149 = CARTESIAN_POINT('',(1.487480183091,0.85621969172));
#1150 = CARTESIAN_POINT('',(1.482772414704,0.882892001895));
#1151 = CARTESIAN_POINT('',(1.477391363545,0.909126453179));
#1152 = CARTESIAN_POINT('',(1.471350179049,0.934852944959));
#1153 = CARTESIAN_POINT('',(1.464664036165,0.9600006));
#1154 = ( GEOMETRIC_REPRESENTATION_CONTEXT(2) 
PARAMETRIC_REPRESENTATION_CONTEXT() REPRESENTATION_CONTEXT('2D SPACE',''
  ) );
#1155 = ORIENTED_EDGE('',*,*,#702,.T.);
#1156 = ADVANCED_FACE('',(#1157),#458,.F.);
#1157 = FACE_BOUND('',#1158,.F.);
#1158 = EDGE_LOOP('',(#1159,#1183,#1184,#1185));
#1159 = ORIENTED_EDGE('',*,*,#1160,.F.);
#1160 = EDGE_CURVE('',#722,#1161,#1163,.T.);
#1161 = VERTEX_POINT('',#1162);
#1162 = CARTESIAN_POINT('',(-1.74,1.064894360958,11.85));
#1163 = SURFACE_CURVE('',#1164,(#1169,#1176),.PCURVE_S1.);
#1164 = CIRCLE('',#1165,2.04);
#1165 = AXIS2_PLACEMENT_3D('',#1166,#1167,#1168);
#1166 = CARTESIAN_POINT('',(0.,0.,11.85));
#1167 = DIRECTION('',(0.,0.,1.));
#1168 = DIRECTION('',(1.,0.,-0.));
#1169 = PCURVE('',#458,#1170);
#1170 = DEFINITIONAL_REPRESENTATION('',(#1171),#1175);
#1171 = LINE('',#1172,#1173);
#1172 = CARTESIAN_POINT('',(0.,0.96));
#1173 = VECTOR('',#1174,1.);
#1174 = DIRECTION('',(1.,0.));
#1175 = ( GEOMETRIC_REPRESENTATION_CONTEXT(2) 
PARAMETRIC_REPRESENTATION_CONTEXT() REPRESENTATION_CONTEXT('2D SPACE',''
  ) );
#1176 = PCURVE('',#903,#1177);
#1177 = DEFINITIONAL_REPRESENTATION('',(#1178),#1182);
#1178 = CIRCLE('',#1179,2.04);
#1179 = AXIS2_PLACEMENT_2D('',#1180,#1181);
#1180 = CARTESIAN_POINT('',(0.,0.));
#1181 = DIRECTION('',(1.,0.));
#1182 = ( GEOMETRIC_REPRESENTATION_CONTEXT(2) 
PARAMETRIC_REPRESENTATION_CONTEXT() REPRESENTATION_CONTEXT('2D SPACE',''
  ) );
#1183 = ORIENTED_EDGE('',*,*,#721,.F.);
#1184 = ORIENTED_EDGE('',*,*,#439,.T.);
#1185 = ORIENTED_EDGE('',*,*,#1186,.T.);
#1186 = EDGE_CURVE('',#442,#1161,#1187,.T.);
#1187 = SURFACE_CURVE('',#1188,(#1192,#1198),.PCURVE_S1.);
#1188 = LINE('',#1189,#1190);
#1189 = CARTESIAN_POINT('',(-1.74,1.064894360958,10.89));
#1190 = VECTOR('',#1191,1.);
#1191 = DIRECTION('',(0.,0.,1.));
#1192 = PCURVE('',#458,#1193);
#1193 = DEFINITIONAL_REPRESENTATION('',(#1194),#1197);
#1194 = B_SPLINE_CURVE_WITH_KNOTS('',1,(#1195,#1196),.UNSPECIFIED.,.F.,
  .F.,(2,2),(-5.999999999062E-07,0.9600006),.PIECEWISE_BEZIER_KNOTS.);
#1195 = CARTESIAN_POINT('',(2.592390311625,-5.999999999062E-07));
#1196 = CARTESIAN_POINT('',(2.592390311625,0.9600006));
#1197 = ( GEOMETRIC_REPRESENTATION_CONTEXT(2) 
PARAMETRIC_REPRESENTATION_CONTEXT() REPRESENTATION_CONTEXT('2D SPACE',''
  ) );
#1198 = PCURVE('',#567,#1199);
#1199 = DEFINITIONAL_REPRESENTATION('',(#1200),#1203);
#1200 = B_SPLINE_CURVE_WITH_KNOTS('',1,(#1201,#1202),.UNSPECIFIED.,.F.,
  .F.,(2,2),(-5.999999999062E-07,0.9600006),.PIECEWISE_BEZIER_KNOTS.);
#1201 = CARTESIAN_POINT('',(-5.999999999062E-07,-4.104894360958));
#1202 = CARTESIAN_POINT('',(0.9600006,-4.104894360958));
#1203 = ( GEOMETRIC_REPRESENTATION_CONTEXT(2) 
PARAMETRIC_REPRESENTATION_CONTEXT() REPRESENTATION_CONTEXT('2D SPACE',''
  ) );
#1204 = ADVANCED_FACE('',(#1205),#567,.T.);
#1205 = FACE_BOUND('',#1206,.T.);
#1206 = EDGE_LOOP('',(#1207,#1230,#1249,#1250));
#1207 = ORIENTED_EDGE('',*,*,#1208,.F.);
#1208 = EDGE_CURVE('',#1209,#1161,#1211,.T.);
#1209 = VERTEX_POINT('',#1210);
#1210 = CARTESIAN_POINT('',(-1.74,-1.064894360958,11.85));
#1211 = SURFACE_CURVE('',#1212,(#1216,#1223),.PCURVE_S1.);
#1212 = LINE('',#1213,#1214);
#1213 = CARTESIAN_POINT('',(-1.74,-3.04,11.85));
#1214 = VECTOR('',#1215,1.);
#1215 = DIRECTION('',(0.,1.,0.));
#1216 = PCURVE('',#567,#1217);
#1217 = DEFINITIONAL_REPRESENTATION('',(#1218),#1222);
#1218 = LINE('',#1219,#1220);
#1219 = CARTESIAN_POINT('',(0.96,0.));
#1220 = VECTOR('',#1221,1.);
#1221 = DIRECTION('',(0.,-1.));
#1222 = ( GEOMETRIC_REPRESENTATION_CONTEXT(2) 
PARAMETRIC_REPRESENTATION_CONTEXT() REPRESENTATION_CONTEXT('2D SPACE',''
  ) );
#1223 = PCURVE('',#903,#1224);
#1224 = DEFINITIONAL_REPRESENTATION('',(#1225),#1229);
#1225 = LINE('',#1226,#1227);
#1226 = CARTESIAN_POINT('',(-1.74,-3.04));
#1227 = VECTOR('',#1228,1.);
#1228 = DIRECTION('',(0.,1.));
#1229 = ( GEOMETRIC_REPRESENTATION_CONTEXT(2) 
PARAMETRIC_REPRESENTATION_CONTEXT() REPRESENTATION_CONTEXT('2D SPACE',''
  ) );
#1230 = ORIENTED_EDGE('',*,*,#1231,.F.);
#1231 = EDGE_CURVE('',#526,#1209,#1232,.T.);
#1232 = SURFACE_CURVE('',#1233,(#1237,#1243),.PCURVE_S1.);
#1233 = LINE('',#1234,#1235);
#1234 = CARTESIAN_POINT('',(-1.74,-1.064894360958,10.89));
#1235 = VECTOR('',#1236,1.);
#1236 = DIRECTION('',(0.,0.,1.));
#1237 = PCURVE('',#567,#1238);
#1238 = DEFINITIONAL_REPRESENTATION('',(#1239),#1242);
#1239 = B_SPLINE_CURVE_WITH_KNOTS('',1,(#1240,#1241),.UNSPECIFIED.,.F.,
  .F.,(2,2),(-5.999999999062E-07,0.9600006),.PIECEWISE_BEZIER_KNOTS.);
#1240 = CARTESIAN_POINT('',(-5.999999999062E-07,-1.975105639042));
#1241 = CARTESIAN_POINT('',(0.9600006,-1.975105639042));
#1242 = ( GEOMETRIC_REPRESENTATION_CONTEXT(2) 
PARAMETRIC_REPRESENTATION_CONTEXT() REPRESENTATION_CONTEXT('2D SPACE',''
  ) );
#1243 = PCURVE('',#542,#1244);
#1244 = DEFINITIONAL_REPRESENTATION('',(#1245),#1248);
#1245 = B_SPLINE_CURVE_WITH_KNOTS('',1,(#1246,#1247),.UNSPECIFIED.,.F.,
  .F.,(2,2),(-5.999999999062E-07,0.9600006),.PIECEWISE_BEZIER_KNOTS.);
#1246 = CARTESIAN_POINT('',(3.690794995554,-5.999999999062E-07));
#1247 = CARTESIAN_POINT('',(3.690794995554,0.9600006));
#1248 = ( GEOMETRIC_REPRESENTATION_CONTEXT(2) 
PARAMETRIC_REPRESENTATION_CONTEXT() REPRESENTATION_CONTEXT('2D SPACE',''
  ) );
#1249 = ORIENTED_EDGE('',*,*,#554,.T.);
#1250 = ORIENTED_EDGE('',*,*,#1186,.T.);
#1251 = ADVANCED_FACE('',(#1252),#542,.F.);
#1252 = FACE_BOUND('',#1253,.F.);
#1253 = EDGE_LOOP('',(#1254,#1255,#1276,#1298));
#1254 = ORIENTED_EDGE('',*,*,#525,.T.);
#1255 = ORIENTED_EDGE('',*,*,#1256,.T.);
#1256 = EDGE_CURVE('',#500,#1257,#1259,.T.);
#1257 = VERTEX_POINT('',#1258);
#1258 = CARTESIAN_POINT('',(1.74,-1.064894360958,11.85));
#1259 = SURFACE_CURVE('',#1260,(#1264,#1270),.PCURVE_S1.);
#1260 = LINE('',#1261,#1262);
#1261 = CARTESIAN_POINT('',(1.74,-1.064894360958,10.89));
#1262 = VECTOR('',#1263,1.);
#1263 = DIRECTION('',(0.,0.,1.));
#1264 = PCURVE('',#542,#1265);
#1265 = DEFINITIONAL_REPRESENTATION('',(#1266),#1269);
#1266 = B_SPLINE_CURVE_WITH_KNOTS('',1,(#1267,#1268),.UNSPECIFIED.,.F.,
  .F.,(2,2),(-5.999999999062E-07,0.9600006),.PIECEWISE_BEZIER_KNOTS.);
#1267 = CARTESIAN_POINT('',(5.733982965215,-5.999999999062E-07));
#1268 = CARTESIAN_POINT('',(5.733982965215,0.9600006));
#1269 = ( GEOMETRIC_REPRESENTATION_CONTEXT(2) 
PARAMETRIC_REPRESENTATION_CONTEXT() REPRESENTATION_CONTEXT('2D SPACE',''
  ) );
#1270 = PCURVE('',#514,#1271);
#1271 = DEFINITIONAL_REPRESENTATION('',(#1272),#1275);
#1272 = B_SPLINE_CURVE_WITH_KNOTS('',1,(#1273,#1274),.UNSPECIFIED.,.F.,
  .F.,(2,2),(-5.999999999062E-07,0.9600006),.PIECEWISE_BEZIER_KNOTS.);
#1273 = CARTESIAN_POINT('',(-5.999999999062E-07,-1.975105639042));
#1274 = CARTESIAN_POINT('',(0.9600006,-1.975105639042));
#1275 = ( GEOMETRIC_REPRESENTATION_CONTEXT(2) 
PARAMETRIC_REPRESENTATION_CONTEXT() REPRESENTATION_CONTEXT('2D SPACE',''
  ) );
#1276 = ORIENTED_EDGE('',*,*,#1277,.F.);
#1277 = EDGE_CURVE('',#1209,#1257,#1278,.T.);
#1278 = SURFACE_CURVE('',#1279,(#1284,#1291),.PCURVE_S1.);
#1279 = CIRCLE('',#1280,2.04);
#1280 = AXIS2_PLACEMENT_3D('',#1281,#1282,#1283);
#1281 = CARTESIAN_POINT('',(0.,0.,11.85));
#1282 = DIRECTION('',(0.,0.,1.));
#1283 = DIRECTION('',(1.,0.,-0.));
#1284 = PCURVE('',#542,#1285);
#1285 = DEFINITIONAL_REPRESENTATION('',(#1286),#1290);
#1286 = LINE('',#1287,#1288);
#1287 = CARTESIAN_POINT('',(0.,0.96));
#1288 = VECTOR('',#1289,1.);
#1289 = DIRECTION('',(1.,0.));
#1290 = ( GEOMETRIC_REPRESENTATION_CONTEXT(2) 
PARAMETRIC_REPRESENTATION_CONTEXT() REPRESENTATION_CONTEXT('2D SPACE',''
  ) );
#1291 = PCURVE('',#903,#1292);
#1292 = DEFINITIONAL_REPRESENTATION('',(#1293),#1297);
#1293 = CIRCLE('',#1294,2.04);
#1294 = AXIS2_PLACEMENT_2D('',#1295,#1296);
#1295 = CARTESIAN_POINT('',(0.,0.));
#1296 = DIRECTION('',(1.,0.));
#1297 = ( GEOMETRIC_REPRESENTATION_CONTEXT(2) 
PARAMETRIC_REPRESENTATION_CONTEXT() REPRESENTATION_CONTEXT('2D SPACE',''
  ) );
#1298 = ORIENTED_EDGE('',*,*,#1231,.F.);
#1299 = ADVANCED_FACE('',(#1300),#514,.F.);
#1300 = FACE_BOUND('',#1301,.F.);
#1301 = EDGE_LOOP('',(#1302,#1325,#1326,#1327));
#1302 = ORIENTED_EDGE('',*,*,#1303,.F.);
#1303 = EDGE_CURVE('',#1257,#1304,#1306,.T.);
#1304 = VERTEX_POINT('',#1305);
#1305 = CARTESIAN_POINT('',(1.74,1.064894360958,11.85));
#1306 = SURFACE_CURVE('',#1307,(#1311,#1318),.PCURVE_S1.);
#1307 = LINE('',#1308,#1309);
#1308 = CARTESIAN_POINT('',(1.74,-3.04,11.85));
#1309 = VECTOR('',#1310,1.);
#1310 = DIRECTION('',(0.,1.,0.));
#1311 = PCURVE('',#514,#1312);
#1312 = DEFINITIONAL_REPRESENTATION('',(#1313),#1317);
#1313 = LINE('',#1314,#1315);
#1314 = CARTESIAN_POINT('',(0.96,0.));
#1315 = VECTOR('',#1316,1.);
#1316 = DIRECTION('',(0.,-1.));
#1317 = ( GEOMETRIC_REPRESENTATION_CONTEXT(2) 
PARAMETRIC_REPRESENTATION_CONTEXT() REPRESENTATION_CONTEXT('2D SPACE',''
  ) );
#1318 = PCURVE('',#903,#1319);
#1319 = DEFINITIONAL_REPRESENTATION('',(#1320),#1324);
#1320 = LINE('',#1321,#1322);
#1321 = CARTESIAN_POINT('',(1.74,-3.04));
#1322 = VECTOR('',#1323,1.);
#1323 = DIRECTION('',(0.,1.));
#1324 = ( GEOMETRIC_REPRESENTATION_CONTEXT(2) 
PARAMETRIC_REPRESENTATION_CONTEXT() REPRESENTATION_CONTEXT('2D SPACE',''
  ) );
#1325 = ORIENTED_EDGE('',*,*,#1256,.F.);
#1326 = ORIENTED_EDGE('',*,*,#499,.T.);
#1327 = ORIENTED_EDGE('',*,*,#1328,.T.);
#1328 = EDGE_CURVE('',#471,#1304,#1329,.T.);
#1329 = SURFACE_CURVE('',#1330,(#1334,#1340),.PCURVE_S1.);
#1330 = LINE('',#1331,#1332);
#1331 = CARTESIAN_POINT('',(1.74,1.064894360958,10.89));
#1332 = VECTOR('',#1333,1.);
#1333 = DIRECTION('',(0.,0.,1.));
#1334 = PCURVE('',#514,#1335);
#1335 = DEFINITIONAL_REPRESENTATION('',(#1336),#1339);
#1336 = B_SPLINE_CURVE_WITH_KNOTS('',1,(#1337,#1338),.UNSPECIFIED.,.F.,
  .F.,(2,2),(-5.999999999062E-07,0.9600006),.PIECEWISE_BEZIER_KNOTS.);
#1337 = CARTESIAN_POINT('',(-5.999999999062E-07,-4.104894360958));
#1338 = CARTESIAN_POINT('',(0.9600006,-4.104894360958));
#1339 = ( GEOMETRIC_REPRESENTATION_CONTEXT(2) 
PARAMETRIC_REPRESENTATION_CONTEXT() REPRESENTATION_CONTEXT('2D SPACE',''
  ) );
#1340 = PCURVE('',#487,#1341);
#1341 = DEFINITIONAL_REPRESENTATION('',(#1342),#1345);
#1342 = B_SPLINE_CURVE_WITH_KNOTS('',1,(#1343,#1344),.UNSPECIFIED.,.F.,
  .F.,(2,2),(-5.999999999062E-07,0.9600006),.PIECEWISE_BEZIER_KNOTS.);
#1343 = CARTESIAN_POINT('',(0.549202341965,-5.999999999062E-07));
#1344 = CARTESIAN_POINT('',(0.549202341965,0.9600006));
#1345 = ( GEOMETRIC_REPRESENTATION_CONTEXT(2) 
PARAMETRIC_REPRESENTATION_CONTEXT() REPRESENTATION_CONTEXT('2D SPACE',''
  ) );
#1346 = ADVANCED_FACE('',(#1347),#487,.F.);
#1347 = FACE_BOUND('',#1348,.F.);
#1348 = EDGE_LOOP('',(#1349,#1371,#1372,#1373));
#1349 = ORIENTED_EDGE('',*,*,#1350,.F.);
#1350 = EDGE_CURVE('',#1304,#971,#1351,.T.);
#1351 = SURFACE_CURVE('',#1352,(#1357,#1364),.PCURVE_S1.);
#1352 = CIRCLE('',#1353,2.04);
#1353 = AXIS2_PLACEMENT_3D('',#1354,#1355,#1356);
#1354 = CARTESIAN_POINT('',(0.,0.,11.85));
#1355 = DIRECTION('',(0.,0.,1.));
#1356 = DIRECTION('',(1.,0.,-0.));
#1357 = PCURVE('',#487,#1358);
#1358 = DEFINITIONAL_REPRESENTATION('',(#1359),#1363);
#1359 = LINE('',#1360,#1361);
#1360 = CARTESIAN_POINT('',(0.,0.96));
#1361 = VECTOR('',#1362,1.);
#1362 = DIRECTION('',(1.,0.));
#1363 = ( GEOMETRIC_REPRESENTATION_CONTEXT(2) 
PARAMETRIC_REPRESENTATION_CONTEXT() REPRESENTATION_CONTEXT('2D SPACE',''
  ) );
#1364 = PCURVE('',#903,#1365);
#1365 = DEFINITIONAL_REPRESENTATION('',(#1366),#1370);
#1366 = CIRCLE('',#1367,2.04);
#1367 = AXIS2_PLACEMENT_2D('',#1368,#1369);
#1368 = CARTESIAN_POINT('',(0.,0.));
#1369 = DIRECTION('',(1.,0.));
#1370 = ( GEOMETRIC_REPRESENTATION_CONTEXT(2) 
PARAMETRIC_REPRESENTATION_CONTEXT() REPRESENTATION_CONTEXT('2D SPACE',''
  ) );
#1371 = ORIENTED_EDGE('',*,*,#1328,.F.);
#1372 = ORIENTED_EDGE('',*,*,#470,.T.);
#1373 = ORIENTED_EDGE('',*,*,#991,.F.);
#1374 = ADVANCED_FACE('',(#1375),#601,.F.);
#1375 = FACE_BOUND('',#1376,.F.);
#1376 = EDGE_LOOP('',(#1377,#1378,#1401,#1428));
#1377 = ORIENTED_EDGE('',*,*,#584,.F.);
#1378 = ORIENTED_EDGE('',*,*,#1379,.F.);
#1379 = EDGE_CURVE('',#1380,#585,#1382,.T.);
#1380 = VERTEX_POINT('',#1381);
#1381 = CARTESIAN_POINT('',(-3.75,-1.224646799147E-16,12.9));
#1382 = SEAM_CURVE('',#1383,(#1387,#1394),.PCURVE_S1.);
#1383 = LINE('',#1384,#1385);
#1384 = CARTESIAN_POINT('',(-3.75,-1.224646799147E-16,12.9));
#1385 = VECTOR('',#1386,1.);
#1386 = DIRECTION('',(0.,0.,1.));
#1387 = PCURVE('',#601,#1388);
#1388 = DEFINITIONAL_REPRESENTATION('',(#1389),#1393);
#1389 = LINE('',#1390,#1391);
#1390 = CARTESIAN_POINT('',(6.28318530718,-0.));
#1391 = VECTOR('',#1392,1.);
#1392 = DIRECTION('',(0.,1.));
#1393 = ( GEOMETRIC_REPRESENTATION_CONTEXT(2) 
PARAMETRIC_REPRESENTATION_CONTEXT() REPRESENTATION_CONTEXT('2D SPACE',''
  ) );
#1394 = PCURVE('',#601,#1395);
#1395 = DEFINITIONAL_REPRESENTATION('',(#1396),#1400);
#1396 = LINE('',#1397,#1398);
#1397 = CARTESIAN_POINT('',(0.,-0.));
#1398 = VECTOR('',#1399,1.);
#1399 = DIRECTION('',(0.,1.));
#1400 = ( GEOMETRIC_REPRESENTATION_CONTEXT(2) 
PARAMETRIC_REPRESENTATION_CONTEXT() REPRESENTATION_CONTEXT('2D SPACE',''
  ) );
#1401 = ORIENTED_EDGE('',*,*,#1402,.T.);
#1402 = EDGE_CURVE('',#1380,#1380,#1403,.T.);
#1403 = SURFACE_CURVE('',#1404,(#1409,#1416),.PCURVE_S1.);
#1404 = CIRCLE('',#1405,0.5);
#1405 = AXIS2_PLACEMENT_3D('',#1406,#1407,#1408);
#1406 = CARTESIAN_POINT('',(-4.25,0.,12.9));
#1407 = DIRECTION('',(0.,0.,1.));
#1408 = DIRECTION('',(1.,0.,-0.));
#1409 = PCURVE('',#601,#1410);
#1410 = DEFINITIONAL_REPRESENTATION('',(#1411),#1415);
#1411 = LINE('',#1412,#1413);
#1412 = CARTESIAN_POINT('',(0.,0.));
#1413 = VECTOR('',#1414,1.);
#1414 = DIRECTION('',(1.,0.));
#1415 = ( GEOMETRIC_REPRESENTATION_CONTEXT(2) 
PARAMETRIC_REPRESENTATION_CONTEXT() REPRESENTATION_CONTEXT('2D SPACE',''
  ) );
#1416 = PCURVE('',#1417,#1422);
#1417 = PLANE('',#1418);
#1418 = AXIS2_PLACEMENT_3D('',#1419,#1420,#1421);
#1419 = CARTESIAN_POINT('',(-4.25,0.,12.9));
#1420 = DIRECTION('',(0.,0.,1.));
#1421 = DIRECTION('',(1.,0.,-0.));
#1422 = DEFINITIONAL_REPRESENTATION('',(#1423),#1427);
#1423 = CIRCLE('',#1424,0.5);
#1424 = AXIS2_PLACEMENT_2D('',#1425,#1426);
#1425 = CARTESIAN_POINT('',(0.,0.));
#1426 = DIRECTION('',(1.,0.));
#1427 = ( GEOMETRIC_REPRESENTATION_CONTEXT(2) 
PARAMETRIC_REPRESENTATION_CONTEXT() REPRESENTATION_CONTEXT('2D SPACE',''
  ) );
#1428 = ORIENTED_EDGE('',*,*,#1379,.T.);
#1429 = ADVANCED_FACE('',(#1430),#632,.F.);
#1430 = FACE_BOUND('',#1431,.F.);
#1431 = EDGE_LOOP('',(#1432,#1433,#1456,#1483));
#1432 = ORIENTED_EDGE('',*,*,#615,.F.);
#1433 = ORIENTED_EDGE('',*,*,#1434,.F.);
#1434 = EDGE_CURVE('',#1435,#616,#1437,.T.);
#1435 = VERTEX_POINT('',#1436);
#1436 = CARTESIAN_POINT('',(3.05,-7.470345474799E-16,12.3));
#1437 = SEAM_CURVE('',#1438,(#1442,#1449),.PCURVE_S1.);
#1438 = LINE('',#1439,#1440);
#1439 = CARTESIAN_POINT('',(3.05,-7.470345474799E-16,12.3));
#1440 = VECTOR('',#1441,1.);
#1441 = DIRECTION('',(0.,0.,1.));
#1442 = PCURVE('',#632,#1443);
#1443 = DEFINITIONAL_REPRESENTATION('',(#1444),#1448);
#1444 = LINE('',#1445,#1446);
#1445 = CARTESIAN_POINT('',(6.28318530718,-0.));
#1446 = VECTOR('',#1447,1.);
#1447 = DIRECTION('',(0.,1.));
#1448 = ( GEOMETRIC_REPRESENTATION_CONTEXT(2) 
PARAMETRIC_REPRESENTATION_CONTEXT() REPRESENTATION_CONTEXT('2D SPACE',''
  ) );
#1449 = PCURVE('',#632,#1450);
#1450 = DEFINITIONAL_REPRESENTATION('',(#1451),#1455);
#1451 = LINE('',#1452,#1453);
#1452 = CARTESIAN_POINT('',(0.,-0.));
#1453 = VECTOR('',#1454,1.);
#1454 = DIRECTION('',(0.,1.));
#1455 = ( GEOMETRIC_REPRESENTATION_CONTEXT(2) 
PARAMETRIC_REPRESENTATION_CONTEXT() REPRESENTATION_CONTEXT('2D SPACE',''
  ) );
#1456 = ORIENTED_EDGE('',*,*,#1457,.T.);
#1457 = EDGE_CURVE('',#1435,#1435,#1458,.T.);
#1458 = SURFACE_CURVE('',#1459,(#1464,#1471),.PCURVE_S1.);
#1459 = CIRCLE('',#1460,3.05);
#1460 = AXIS2_PLACEMENT_3D('',#1461,#1462,#1463);
#1461 = CARTESIAN_POINT('',(0.,0.,12.3));
#1462 = DIRECTION('',(0.,0.,1.));
#1463 = DIRECTION('',(1.,0.,-0.));
#1464 = PCURVE('',#632,#1465);
#1465 = DEFINITIONAL_REPRESENTATION('',(#1466),#1470);
#1466 = LINE('',#1467,#1468);
#1467 = CARTESIAN_POINT('',(0.,0.));
#1468 = VECTOR('',#1469,1.);
#1469 = DIRECTION('',(1.,0.));
#1470 = ( GEOMETRIC_REPRESENTATION_CONTEXT(2) 
PARAMETRIC_REPRESENTATION_CONTEXT() REPRESENTATION_CONTEXT('2D SPACE',''
  ) );
#1471 = PCURVE('',#1472,#1477);
#1472 = PLANE('',#1473);
#1473 = AXIS2_PLACEMENT_3D('',#1474,#1475,#1476);
#1474 = CARTESIAN_POINT('',(0.,0.,12.3));
#1475 = DIRECTION('',(0.,0.,1.));
#1476 = DIRECTION('',(1.,0.,-0.));
#1477 = DEFINITIONAL_REPRESENTATION('',(#1478),#1482);
#1478 = CIRCLE('',#1479,3.05);
#1479 = AXIS2_PLACEMENT_2D('',#1480,#1481);
#1480 = CARTESIAN_POINT('',(0.,0.));
#1481 = DIRECTION('',(1.,0.));
#1482 = ( GEOMETRIC_REPRESENTATION_CONTEXT(2) 
PARAMETRIC_REPRESENTATION_CONTEXT() REPRESENTATION_CONTEXT('2D SPACE',''
  ) );
#1483 = ORIENTED_EDGE('',*,*,#1434,.T.);
#1484 = ADVANCED_FACE('',(#1485),#663,.F.);
#1485 = FACE_BOUND('',#1486,.F.);
#1486 = EDGE_LOOP('',(#1487,#1488,#1511,#1538));
#1487 = ORIENTED_EDGE('',*,*,#646,.F.);
#1488 = ORIENTED_EDGE('',*,*,#1489,.F.);
#1489 = EDGE_CURVE('',#1490,#647,#1492,.T.);
#1490 = VERTEX_POINT('',#1491);
#1491 = CARTESIAN_POINT('',(4.75,-1.224646799147E-16,12.9));
#1492 = SEAM_CURVE('',#1493,(#1497,#1504),.PCURVE_S1.);
#1493 = LINE('',#1494,#1495);
#1494 = CARTESIAN_POINT('',(4.75,-1.224646799147E-16,12.9));
#1495 = VECTOR('',#1496,1.);
#1496 = DIRECTION('',(0.,0.,1.));
#1497 = PCURVE('',#663,#1498);
#1498 = DEFINITIONAL_REPRESENTATION('',(#1499),#1503);
#1499 = LINE('',#1500,#1501);
#1500 = CARTESIAN_POINT('',(6.28318530718,-0.));
#1501 = VECTOR('',#1502,1.);
#1502 = DIRECTION('',(0.,1.));
#1503 = ( GEOMETRIC_REPRESENTATION_CONTEXT(2) 
PARAMETRIC_REPRESENTATION_CONTEXT() REPRESENTATION_CONTEXT('2D SPACE',''
  ) );
#1504 = PCURVE('',#663,#1505);
#1505 = DEFINITIONAL_REPRESENTATION('',(#1506),#1510);
#1506 = LINE('',#1507,#1508);
#1507 = CARTESIAN_POINT('',(0.,-0.));
#1508 = VECTOR('',#1509,1.);
#1509 = DIRECTION('',(0.,1.));
#1510 = ( GEOMETRIC_REPRESENTATION_CONTEXT(2) 
PARAMETRIC_REPRESENTATION_CONTEXT() REPRESENTATION_CONTEXT('2D SPACE',''
  ) );
#1511 = ORIENTED_EDGE('',*,*,#1512,.T.);
#1512 = EDGE_CURVE('',#1490,#1490,#1513,.T.);
#1513 = SURFACE_CURVE('',#1514,(#1519,#1526),.PCURVE_S1.);
#1514 = CIRCLE('',#1515,0.5);
#1515 = AXIS2_PLACEMENT_3D('',#1516,#1517,#1518);
#1516 = CARTESIAN_POINT('',(4.25,0.,12.9));
#1517 = DIRECTION('',(0.,0.,1.));
#1518 = DIRECTION('',(1.,0.,-0.));
#1519 = PCURVE('',#663,#1520);
#1520 = DEFINITIONAL_REPRESENTATION('',(#1521),#1525);
#1521 = LINE('',#1522,#1523);
#1522 = CARTESIAN_POINT('',(0.,0.));
#1523 = VECTOR('',#1524,1.);
#1524 = DIRECTION('',(1.,0.));
#1525 = ( GEOMETRIC_REPRESENTATION_CONTEXT(2) 
PARAMETRIC_REPRESENTATION_CONTEXT() REPRESENTATION_CONTEXT('2D SPACE',''
  ) );
#1526 = PCURVE('',#1527,#1532);
#1527 = PLANE('',#1528);
#1528 = AXIS2_PLACEMENT_3D('',#1529,#1530,#1531);
#1529 = CARTESIAN_POINT('',(4.25,0.,12.9));
#1530 = DIRECTION('',(0.,0.,1.));
#1531 = DIRECTION('',(1.,0.,-0.));
#1532 = DEFINITIONAL_REPRESENTATION('',(#1533),#1537);
#1533 = CIRCLE('',#1534,0.5);
#1534 = AXIS2_PLACEMENT_2D('',#1535,#1536);
#1535 = CARTESIAN_POINT('',(0.,0.));
#1536 = DIRECTION('',(1.,0.));
#1537 = ( GEOMETRIC_REPRESENTATION_CONTEXT(2) 
PARAMETRIC_REPRESENTATION_CONTEXT() REPRESENTATION_CONTEXT('2D SPACE',''
  ) );
#1538 = ORIENTED_EDGE('',*,*,#1489,.T.);
#1539 = ADVANCED_FACE('',(#1540),#929,.T.);
#1540 = FACE_BOUND('',#1541,.T.);
#1541 = EDGE_LOOP('',(#1542,#1543,#1544));
#1542 = ORIENTED_EDGE('',*,*,#914,.T.);
#1543 = ORIENTED_EDGE('',*,*,#946,.T.);
#1544 = ORIENTED_EDGE('',*,*,#1545,.T.);
#1545 = EDGE_CURVE('',#947,#889,#1546,.T.);
#1546 = SURFACE_CURVE('',#1547,(#1551,#1557),.PCURVE_S1.);
#1547 = LINE('',#1548,#1549);
#1548 = CARTESIAN_POINT('',(0.574025148548,1.385819298767,11.85));
#1549 = VECTOR('',#1550,1.);
#1550 = DIRECTION('',(-0.923879532511,0.382683432365,0.));
#1551 = PCURVE('',#929,#1552);
#1552 = DEFINITIONAL_REPRESENTATION('',(#1553),#1556);
#1553 = B_SPLINE_CURVE_WITH_KNOTS('',1,(#1554,#1555),.UNSPECIFIED.,.F.,
  .F.,(2,2),(-0.65,0.65),.PIECEWISE_BEZIER_KNOTS.);
#1554 = CARTESIAN_POINT('',(0.3,0.65));
#1555 = CARTESIAN_POINT('',(0.3,-0.65));
#1556 = ( GEOMETRIC_REPRESENTATION_CONTEXT(2) 
PARAMETRIC_REPRESENTATION_CONTEXT() REPRESENTATION_CONTEXT('2D SPACE',''
  ) );
#1557 = PCURVE('',#903,#1558);
#1558 = DEFINITIONAL_REPRESENTATION('',(#1559),#1562);
#1559 = B_SPLINE_CURVE_WITH_KNOTS('',1,(#1560,#1561),.UNSPECIFIED.,.F.,
  .F.,(2,2),(-0.65,0.65),.PIECEWISE_BEZIER_KNOTS.);
#1560 = CARTESIAN_POINT('',(1.17454684468,1.13707506773));
#1561 = CARTESIAN_POINT('',(-2.64965475847E-02,1.634563529804));
#1562 = ( GEOMETRIC_REPRESENTATION_CONTEXT(2) 
PARAMETRIC_REPRESENTATION_CONTEXT() REPRESENTATION_CONTEXT('2D SPACE',''
  ) );
#1563 = ADVANCED_FACE('',(#1564),#903,.F.);
#1564 = FACE_BOUND('',#1565,.F.);
#1565 = EDGE_LOOP('',(#1566,#1567,#1568,#1569,#1570,#1571,#1572,#1573));
#1566 = ORIENTED_EDGE('',*,*,#1277,.T.);
#1567 = ORIENTED_EDGE('',*,*,#1303,.T.);
#1568 = ORIENTED_EDGE('',*,*,#1350,.T.);
#1569 = ORIENTED_EDGE('',*,*,#970,.F.);
#1570 = ORIENTED_EDGE('',*,*,#1545,.T.);
#1571 = ORIENTED_EDGE('',*,*,#888,.T.);
#1572 = ORIENTED_EDGE('',*,*,#1160,.T.);
#1573 = ORIENTED_EDGE('',*,*,#1208,.F.);
#1574 = ADVANCED_FACE('',(#1575),#1417,.T.);
#1575 = FACE_BOUND('',#1576,.F.);
#1576 = EDGE_LOOP('',(#1577));
#1577 = ORIENTED_EDGE('',*,*,#1402,.F.);
#1578 = ADVANCED_FACE('',(#1579),#1472,.T.);
#1579 = FACE_BOUND('',#1580,.F.);
#1580 = EDGE_LOOP('',(#1581));
#1581 = ORIENTED_EDGE('',*,*,#1457,.F.);
#1582 = ADVANCED_FACE('',(#1583),#1527,.T.);
#1583 = FACE_BOUND('',#1584,.F.);
#1584 = EDGE_LOOP('',(#1585));
#1585 = ORIENTED_EDGE('',*,*,#1512,.F.);
#1586 = ( GEOMETRIC_REPRESENTATION_CONTEXT(3) 
GLOBAL_UNCERTAINTY_ASSIGNED_CONTEXT((#1590)) 
GLOBAL_UNIT_ASSIGNED_CONTEXT((#1587,#1588,#1589)) REPRESENTATION_CONTEXT
('Context #1','3D Context with UNIT and UNCERTAINTY') );
#1587 = ( LENGTH_UNIT() NAMED_UNIT(*) SI_UNIT(.MILLI.,.METRE.) );
#1588 = ( NAMED_UNIT(*) PLANE_ANGLE_UNIT() SI_UNIT($,.RADIAN.) );
#1589 = ( NAMED_UNIT(*) SI_UNIT($,.STERADIAN.) SOLID_ANGLE_UNIT() );
#1590 = UNCERTAINTY_MEASURE_WITH_UNIT(LENGTH_MEASURE(1.E-07),#1587,
  'distance_accuracy_value','confusion accuracy');
#1591 = PRODUCT_RELATED_PRODUCT_CATEGORY('part',$,(#7));
ENDSEC;
END-ISO-10303-21;
