%TF.GenerationSoftware,KiCad,Pcbnew,10.0.6*%
%TF.CreationDate,2026-10-01T23:26:31+08:00*%
%TF.ProjectId,PoseDoll_O22_SSI_Carrier,506f7365-446f-46c6-9c5f-4f32325f5353,rev?*%
%TF.SameCoordinates,Original*%
%TF.FileFunction,Other,User*%
%FSLAX46Y46*%
G04 Gerber Fmt 4.6, Leading zero omitted, Abs format (unit mm)*
G04 Created by KiCad (PCBNEW 10.0.6) date 2026-10-01 23:26:31*
%MOMM*%
%LPD*%
G01*
G04 APERTURE LIST*
%ADD10C,0.050000*%
G04 APERTURE END LIST*
%TO.C,J54*%
D10*
X124600000Y-153400000D02*
X126810000Y-153400000D01*
X124600000Y-156200000D02*
X124600000Y-153400000D01*
X125000000Y-156200000D02*
X124600000Y-156200000D01*
X125000000Y-157500000D02*
X125000000Y-156200000D01*
X126200000Y-157500000D02*
X125000000Y-157500000D01*
X126200000Y-158600000D02*
X126200000Y-157500000D01*
X126810000Y-153400000D02*
X126810000Y-153600000D01*
X126810000Y-153600000D02*
X131190000Y-153600000D01*
X131190000Y-153400000D02*
X133400000Y-153400000D01*
X131190000Y-153600000D02*
X131190000Y-153400000D01*
X131800000Y-157500000D02*
X131800000Y-158600000D01*
X131800000Y-158600000D02*
X126200000Y-158600000D01*
X133000000Y-156200000D02*
X133000000Y-157500000D01*
X133000000Y-157500000D02*
X131800000Y-157500000D01*
X133400000Y-153400000D02*
X133400000Y-156200000D01*
X133400000Y-156200000D02*
X133000000Y-156200000D01*
%TO.C,R40*%
X92520000Y-109270000D02*
X95480000Y-109270000D01*
X95480000Y-110730000D01*
X92520000Y-110730000D01*
X92520000Y-109270000D01*
%TO.C,J29*%
X110600000Y-120900000D02*
X112810000Y-120900000D01*
X110600000Y-123700000D02*
X110600000Y-120900000D01*
X111000000Y-123700000D02*
X110600000Y-123700000D01*
X111000000Y-125000000D02*
X111000000Y-123700000D01*
X112200000Y-125000000D02*
X111000000Y-125000000D01*
X112200000Y-126100000D02*
X112200000Y-125000000D01*
X112810000Y-120900000D02*
X112810000Y-121100000D01*
X112810000Y-121100000D02*
X117190000Y-121100000D01*
X117190000Y-120900000D02*
X119400000Y-120900000D01*
X117190000Y-121100000D02*
X117190000Y-120900000D01*
X117800000Y-125000000D02*
X117800000Y-126100000D01*
X117800000Y-126100000D02*
X112200000Y-126100000D01*
X119000000Y-123700000D02*
X119000000Y-125000000D01*
X119000000Y-125000000D02*
X117800000Y-125000000D01*
X119400000Y-120900000D02*
X119400000Y-123700000D01*
X119400000Y-123700000D02*
X119000000Y-123700000D01*
%TO.C,F4*%
X142720000Y-86870000D02*
X147280000Y-86870000D01*
X147280000Y-89130000D01*
X142720000Y-89130000D01*
X142720000Y-86870000D01*
%TO.C,J45*%
X134600000Y-120900000D02*
X136810000Y-120900000D01*
X134600000Y-123700000D02*
X134600000Y-120900000D01*
X135000000Y-123700000D02*
X134600000Y-123700000D01*
X135000000Y-125000000D02*
X135000000Y-123700000D01*
X136200000Y-125000000D02*
X135000000Y-125000000D01*
X136200000Y-126100000D02*
X136200000Y-125000000D01*
X136810000Y-120900000D02*
X136810000Y-121100000D01*
X136810000Y-121100000D02*
X141190000Y-121100000D01*
X141190000Y-120900000D02*
X143400000Y-120900000D01*
X141190000Y-121100000D02*
X141190000Y-120900000D01*
X141800000Y-125000000D02*
X141800000Y-126100000D01*
X141800000Y-126100000D02*
X136200000Y-126100000D01*
X143000000Y-123700000D02*
X143000000Y-125000000D01*
X143000000Y-125000000D02*
X141800000Y-125000000D01*
X143400000Y-120900000D02*
X143400000Y-123700000D01*
X143400000Y-123700000D02*
X143000000Y-123700000D01*
%TO.C,J32*%
X100600000Y-133900000D02*
X102810000Y-133900000D01*
X100600000Y-136700000D02*
X100600000Y-133900000D01*
X101000000Y-136700000D02*
X100600000Y-136700000D01*
X101000000Y-138000000D02*
X101000000Y-136700000D01*
X102200000Y-138000000D02*
X101000000Y-138000000D01*
X102200000Y-139100000D02*
X102200000Y-138000000D01*
X102810000Y-133900000D02*
X102810000Y-134100000D01*
X102810000Y-134100000D02*
X107190000Y-134100000D01*
X107190000Y-133900000D02*
X109400000Y-133900000D01*
X107190000Y-134100000D02*
X107190000Y-133900000D01*
X107800000Y-138000000D02*
X107800000Y-139100000D01*
X107800000Y-139100000D02*
X102200000Y-139100000D01*
X109000000Y-136700000D02*
X109000000Y-138000000D01*
X109000000Y-138000000D02*
X107800000Y-138000000D01*
X109400000Y-133900000D02*
X109400000Y-136700000D01*
X109400000Y-136700000D02*
X109000000Y-136700000D01*
%TO.C,J26*%
X100600000Y-114400000D02*
X102810000Y-114400000D01*
X100600000Y-117200000D02*
X100600000Y-114400000D01*
X101000000Y-117200000D02*
X100600000Y-117200000D01*
X101000000Y-118500000D02*
X101000000Y-117200000D01*
X102200000Y-118500000D02*
X101000000Y-118500000D01*
X102200000Y-119600000D02*
X102200000Y-118500000D01*
X102810000Y-114400000D02*
X102810000Y-114600000D01*
X102810000Y-114600000D02*
X107190000Y-114600000D01*
X107190000Y-114400000D02*
X109400000Y-114400000D01*
X107190000Y-114600000D02*
X107190000Y-114400000D01*
X107800000Y-118500000D02*
X107800000Y-119600000D01*
X107800000Y-119600000D02*
X102200000Y-119600000D01*
X109000000Y-117200000D02*
X109000000Y-118500000D01*
X109000000Y-118500000D02*
X107800000Y-118500000D01*
X109400000Y-114400000D02*
X109400000Y-117200000D01*
X109400000Y-117200000D02*
X109000000Y-117200000D01*
%TO.C,J10*%
X76600000Y-114400000D02*
X78810000Y-114400000D01*
X76600000Y-117200000D02*
X76600000Y-114400000D01*
X77000000Y-117200000D02*
X76600000Y-117200000D01*
X77000000Y-118500000D02*
X77000000Y-117200000D01*
X78200000Y-118500000D02*
X77000000Y-118500000D01*
X78200000Y-119600000D02*
X78200000Y-118500000D01*
X78810000Y-114400000D02*
X78810000Y-114600000D01*
X78810000Y-114600000D02*
X83190000Y-114600000D01*
X83190000Y-114400000D02*
X85400000Y-114400000D01*
X83190000Y-114600000D02*
X83190000Y-114400000D01*
X83800000Y-118500000D02*
X83800000Y-119600000D01*
X83800000Y-119600000D02*
X78200000Y-119600000D01*
X85000000Y-117200000D02*
X85000000Y-118500000D01*
X85000000Y-118500000D02*
X83800000Y-118500000D01*
X85400000Y-114400000D02*
X85400000Y-117200000D01*
X85400000Y-117200000D02*
X85000000Y-117200000D01*
%TO.C,J42*%
X124600000Y-114400000D02*
X126810000Y-114400000D01*
X124600000Y-117200000D02*
X124600000Y-114400000D01*
X125000000Y-117200000D02*
X124600000Y-117200000D01*
X125000000Y-118500000D02*
X125000000Y-117200000D01*
X126200000Y-118500000D02*
X125000000Y-118500000D01*
X126200000Y-119600000D02*
X126200000Y-118500000D01*
X126810000Y-114400000D02*
X126810000Y-114600000D01*
X126810000Y-114600000D02*
X131190000Y-114600000D01*
X131190000Y-114400000D02*
X133400000Y-114400000D01*
X131190000Y-114600000D02*
X131190000Y-114400000D01*
X131800000Y-118500000D02*
X131800000Y-119600000D01*
X131800000Y-119600000D02*
X126200000Y-119600000D01*
X133000000Y-117200000D02*
X133000000Y-118500000D01*
X133000000Y-118500000D02*
X131800000Y-118500000D01*
X133400000Y-114400000D02*
X133400000Y-117200000D01*
X133400000Y-117200000D02*
X133000000Y-117200000D01*
%TO.C,R30*%
X86520000Y-101270000D02*
X89480000Y-101270000D01*
X89480000Y-102730000D01*
X86520000Y-102730000D01*
X86520000Y-101270000D01*
%TO.C,J51*%
X134600000Y-140400000D02*
X136810000Y-140400000D01*
X134600000Y-143200000D02*
X134600000Y-140400000D01*
X135000000Y-143200000D02*
X134600000Y-143200000D01*
X135000000Y-144500000D02*
X135000000Y-143200000D01*
X136200000Y-144500000D02*
X135000000Y-144500000D01*
X136200000Y-145600000D02*
X136200000Y-144500000D01*
X136810000Y-140400000D02*
X136810000Y-140600000D01*
X136810000Y-140600000D02*
X141190000Y-140600000D01*
X141190000Y-140400000D02*
X143400000Y-140400000D01*
X141190000Y-140600000D02*
X141190000Y-140400000D01*
X141800000Y-144500000D02*
X141800000Y-145600000D01*
X141800000Y-145600000D02*
X136200000Y-145600000D01*
X143000000Y-143200000D02*
X143000000Y-144500000D01*
X143000000Y-144500000D02*
X141800000Y-144500000D01*
X143400000Y-140400000D02*
X143400000Y-143200000D01*
X143400000Y-143200000D02*
X143000000Y-143200000D01*
%TO.C,C8*%
X118300000Y-91020000D02*
X121700000Y-91020000D01*
X121700000Y-92980000D01*
X118300000Y-92980000D01*
X118300000Y-91020000D01*
%TO.C,J57*%
X134600000Y-159900000D02*
X136810000Y-159900000D01*
X134600000Y-162700000D02*
X134600000Y-159900000D01*
X135000000Y-162700000D02*
X134600000Y-162700000D01*
X135000000Y-164000000D02*
X135000000Y-162700000D01*
X136200000Y-164000000D02*
X135000000Y-164000000D01*
X136200000Y-165100000D02*
X136200000Y-164000000D01*
X136810000Y-159900000D02*
X136810000Y-160100000D01*
X136810000Y-160100000D02*
X141190000Y-160100000D01*
X141190000Y-159900000D02*
X143400000Y-159900000D01*
X141190000Y-160100000D02*
X141190000Y-159900000D01*
X141800000Y-164000000D02*
X141800000Y-165100000D01*
X141800000Y-165100000D02*
X136200000Y-165100000D01*
X143000000Y-162700000D02*
X143000000Y-164000000D01*
X143000000Y-164000000D02*
X141800000Y-164000000D01*
X143400000Y-159900000D02*
X143400000Y-162700000D01*
X143400000Y-162700000D02*
X143000000Y-162700000D01*
%TO.C,J33*%
X110600000Y-133900000D02*
X112810000Y-133900000D01*
X110600000Y-136700000D02*
X110600000Y-133900000D01*
X111000000Y-136700000D02*
X110600000Y-136700000D01*
X111000000Y-138000000D02*
X111000000Y-136700000D01*
X112200000Y-138000000D02*
X111000000Y-138000000D01*
X112200000Y-139100000D02*
X112200000Y-138000000D01*
X112810000Y-133900000D02*
X112810000Y-134100000D01*
X112810000Y-134100000D02*
X117190000Y-134100000D01*
X117190000Y-133900000D02*
X119400000Y-133900000D01*
X117190000Y-134100000D02*
X117190000Y-133900000D01*
X117800000Y-138000000D02*
X117800000Y-139100000D01*
X117800000Y-139100000D02*
X112200000Y-139100000D01*
X119000000Y-136700000D02*
X119000000Y-138000000D01*
X119000000Y-138000000D02*
X117800000Y-138000000D01*
X119400000Y-133900000D02*
X119400000Y-136700000D01*
X119400000Y-136700000D02*
X119000000Y-136700000D01*
%TO.C,J50*%
X124600000Y-140400000D02*
X126810000Y-140400000D01*
X124600000Y-143200000D02*
X124600000Y-140400000D01*
X125000000Y-143200000D02*
X124600000Y-143200000D01*
X125000000Y-144500000D02*
X125000000Y-143200000D01*
X126200000Y-144500000D02*
X125000000Y-144500000D01*
X126200000Y-145600000D02*
X126200000Y-144500000D01*
X126810000Y-140400000D02*
X126810000Y-140600000D01*
X126810000Y-140600000D02*
X131190000Y-140600000D01*
X131190000Y-140400000D02*
X133400000Y-140400000D01*
X131190000Y-140600000D02*
X131190000Y-140400000D01*
X131800000Y-144500000D02*
X131800000Y-145600000D01*
X131800000Y-145600000D02*
X126200000Y-145600000D01*
X133000000Y-143200000D02*
X133000000Y-144500000D01*
X133000000Y-144500000D02*
X131800000Y-144500000D01*
X133400000Y-140400000D02*
X133400000Y-143200000D01*
X133400000Y-143200000D02*
X133000000Y-143200000D01*
%TO.C,J30*%
X100600000Y-127400000D02*
X102810000Y-127400000D01*
X100600000Y-130200000D02*
X100600000Y-127400000D01*
X101000000Y-130200000D02*
X100600000Y-130200000D01*
X101000000Y-131500000D02*
X101000000Y-130200000D01*
X102200000Y-131500000D02*
X101000000Y-131500000D01*
X102200000Y-132600000D02*
X102200000Y-131500000D01*
X102810000Y-127400000D02*
X102810000Y-127600000D01*
X102810000Y-127600000D02*
X107190000Y-127600000D01*
X107190000Y-127400000D02*
X109400000Y-127400000D01*
X107190000Y-127600000D02*
X107190000Y-127400000D01*
X107800000Y-131500000D02*
X107800000Y-132600000D01*
X107800000Y-132600000D02*
X102200000Y-132600000D01*
X109000000Y-130200000D02*
X109000000Y-131500000D01*
X109000000Y-131500000D02*
X107800000Y-131500000D01*
X109400000Y-127400000D02*
X109400000Y-130200000D01*
X109400000Y-130200000D02*
X109000000Y-130200000D01*
%TO.C,U7*%
X127950000Y-84500000D02*
X128950000Y-84500000D01*
X127950000Y-87500000D02*
X127950000Y-84500000D01*
X128950000Y-84300000D02*
X131050000Y-84300000D01*
X128950000Y-84500000D02*
X128950000Y-84300000D01*
X128950000Y-87500000D02*
X127950000Y-87500000D01*
X128950000Y-87700000D02*
X128950000Y-87500000D01*
X131050000Y-84300000D02*
X131050000Y-84500000D01*
X131050000Y-84500000D02*
X132050000Y-84500000D01*
X131050000Y-85610000D02*
X131050000Y-86390000D01*
X131050000Y-86390000D02*
X132050000Y-86390000D01*
X131050000Y-87500000D02*
X131050000Y-87700000D01*
X131050000Y-87700000D02*
X128950000Y-87700000D01*
X132050000Y-84500000D02*
X132050000Y-85610000D01*
X132050000Y-85610000D02*
X131050000Y-85610000D01*
X132050000Y-86390000D02*
X132050000Y-87500000D01*
X132050000Y-87500000D02*
X131050000Y-87500000D01*
%TO.C,J38*%
X100600000Y-153400000D02*
X102810000Y-153400000D01*
X100600000Y-156200000D02*
X100600000Y-153400000D01*
X101000000Y-156200000D02*
X100600000Y-156200000D01*
X101000000Y-157500000D02*
X101000000Y-156200000D01*
X102200000Y-157500000D02*
X101000000Y-157500000D01*
X102200000Y-158600000D02*
X102200000Y-157500000D01*
X102810000Y-153400000D02*
X102810000Y-153600000D01*
X102810000Y-153600000D02*
X107190000Y-153600000D01*
X107190000Y-153400000D02*
X109400000Y-153400000D01*
X107190000Y-153600000D02*
X107190000Y-153400000D01*
X107800000Y-157500000D02*
X107800000Y-158600000D01*
X107800000Y-158600000D02*
X102200000Y-158600000D01*
X109000000Y-156200000D02*
X109000000Y-157500000D01*
X109000000Y-157500000D02*
X107800000Y-157500000D01*
X109400000Y-153400000D02*
X109400000Y-156200000D01*
X109400000Y-156200000D02*
X109000000Y-156200000D01*
%TO.C,H4*%
X154450000Y-166000000D02*
G75*
G02*
X149550000Y-166000000I-2450000J0D01*
G01*
X149550000Y-166000000D02*
G75*
G02*
X154450000Y-166000000I2450000J0D01*
G01*
%TO.C,R13*%
X94520000Y-84270000D02*
X97480000Y-84270000D01*
X97480000Y-85730000D01*
X94520000Y-85730000D01*
X94520000Y-84270000D01*
%TO.C,J41*%
X110600000Y-159900000D02*
X112810000Y-159900000D01*
X110600000Y-162700000D02*
X110600000Y-159900000D01*
X111000000Y-162700000D02*
X110600000Y-162700000D01*
X111000000Y-164000000D02*
X111000000Y-162700000D01*
X112200000Y-164000000D02*
X111000000Y-164000000D01*
X112200000Y-165100000D02*
X112200000Y-164000000D01*
X112810000Y-159900000D02*
X112810000Y-160100000D01*
X112810000Y-160100000D02*
X117190000Y-160100000D01*
X117190000Y-159900000D02*
X119400000Y-159900000D01*
X117190000Y-160100000D02*
X117190000Y-159900000D01*
X117800000Y-164000000D02*
X117800000Y-165100000D01*
X117800000Y-165100000D02*
X112200000Y-165100000D01*
X119000000Y-162700000D02*
X119000000Y-164000000D01*
X119000000Y-164000000D02*
X117800000Y-164000000D01*
X119400000Y-159900000D02*
X119400000Y-162700000D01*
X119400000Y-162700000D02*
X119000000Y-162700000D01*
%TO.C,H3*%
X80450000Y-166000000D02*
G75*
G02*
X75550000Y-166000000I-2450000J0D01*
G01*
X75550000Y-166000000D02*
G75*
G02*
X80450000Y-166000000I2450000J0D01*
G01*
%TO.C,J56*%
X124600000Y-159900000D02*
X126810000Y-159900000D01*
X124600000Y-162700000D02*
X124600000Y-159900000D01*
X125000000Y-162700000D02*
X124600000Y-162700000D01*
X125000000Y-164000000D02*
X125000000Y-162700000D01*
X126200000Y-164000000D02*
X125000000Y-164000000D01*
X126200000Y-165100000D02*
X126200000Y-164000000D01*
X126810000Y-159900000D02*
X126810000Y-160100000D01*
X126810000Y-160100000D02*
X131190000Y-160100000D01*
X131190000Y-159900000D02*
X133400000Y-159900000D01*
X131190000Y-160100000D02*
X131190000Y-159900000D01*
X131800000Y-164000000D02*
X131800000Y-165100000D01*
X131800000Y-165100000D02*
X126200000Y-165100000D01*
X133000000Y-162700000D02*
X133000000Y-164000000D01*
X133000000Y-164000000D02*
X131800000Y-164000000D01*
X133400000Y-159900000D02*
X133400000Y-162700000D01*
X133400000Y-162700000D02*
X133000000Y-162700000D01*
%TO.C,J11*%
X86600000Y-114400000D02*
X88810000Y-114400000D01*
X86600000Y-117200000D02*
X86600000Y-114400000D01*
X87000000Y-117200000D02*
X86600000Y-117200000D01*
X87000000Y-118500000D02*
X87000000Y-117200000D01*
X88200000Y-118500000D02*
X87000000Y-118500000D01*
X88200000Y-119600000D02*
X88200000Y-118500000D01*
X88810000Y-114400000D02*
X88810000Y-114600000D01*
X88810000Y-114600000D02*
X93190000Y-114600000D01*
X93190000Y-114400000D02*
X95400000Y-114400000D01*
X93190000Y-114600000D02*
X93190000Y-114400000D01*
X93800000Y-118500000D02*
X93800000Y-119600000D01*
X93800000Y-119600000D02*
X88200000Y-119600000D01*
X95000000Y-117200000D02*
X95000000Y-118500000D01*
X95000000Y-118500000D02*
X93800000Y-118500000D01*
X95400000Y-114400000D02*
X95400000Y-117200000D01*
X95400000Y-117200000D02*
X95000000Y-117200000D01*
%TO.C,TP2*%
X153000000Y-90000000D02*
G75*
G02*
X151000000Y-90000000I-1000000J0D01*
G01*
X151000000Y-90000000D02*
G75*
G02*
X153000000Y-90000000I1000000J0D01*
G01*
%TO.C,R11*%
X98520000Y-81270000D02*
X101480000Y-81270000D01*
X101480000Y-82730000D01*
X98520000Y-82730000D01*
X98520000Y-81270000D01*
%TO.C,R31*%
X90520000Y-101270000D02*
X93480000Y-101270000D01*
X93480000Y-102730000D01*
X90520000Y-102730000D01*
X90520000Y-101270000D01*
%TO.C,J27*%
X110600000Y-114400000D02*
X112810000Y-114400000D01*
X110600000Y-117200000D02*
X110600000Y-114400000D01*
X111000000Y-117200000D02*
X110600000Y-117200000D01*
X111000000Y-118500000D02*
X111000000Y-117200000D01*
X112200000Y-118500000D02*
X111000000Y-118500000D01*
X112200000Y-119600000D02*
X112200000Y-118500000D01*
X112810000Y-114400000D02*
X112810000Y-114600000D01*
X112810000Y-114600000D02*
X117190000Y-114600000D01*
X117190000Y-114400000D02*
X119400000Y-114400000D01*
X117190000Y-114600000D02*
X117190000Y-114400000D01*
X117800000Y-118500000D02*
X117800000Y-119600000D01*
X117800000Y-119600000D02*
X112200000Y-119600000D01*
X119000000Y-117200000D02*
X119000000Y-118500000D01*
X119000000Y-118500000D02*
X117800000Y-118500000D01*
X119400000Y-114400000D02*
X119400000Y-117200000D01*
X119400000Y-117200000D02*
X119000000Y-117200000D01*
%TO.C,R2*%
X82520000Y-89270000D02*
X85480000Y-89270000D01*
X85480000Y-90730000D01*
X82520000Y-90730000D01*
X82520000Y-89270000D01*
%TO.C,J1*%
X90610000Y-78600000D02*
X94150000Y-78600000D01*
X94150000Y-97400000D01*
X90610000Y-97400000D01*
X90610000Y-78600000D01*
%TO.C,R1*%
X78520000Y-89270000D02*
X81480000Y-89270000D01*
X81480000Y-90730000D01*
X78520000Y-90730000D01*
X78520000Y-89270000D01*
%TO.C,J20*%
X76600000Y-146900000D02*
X78810000Y-146900000D01*
X76600000Y-149700000D02*
X76600000Y-146900000D01*
X77000000Y-149700000D02*
X76600000Y-149700000D01*
X77000000Y-151000000D02*
X77000000Y-149700000D01*
X78200000Y-151000000D02*
X77000000Y-151000000D01*
X78200000Y-152100000D02*
X78200000Y-151000000D01*
X78810000Y-146900000D02*
X78810000Y-147100000D01*
X78810000Y-147100000D02*
X83190000Y-147100000D01*
X83190000Y-146900000D02*
X85400000Y-146900000D01*
X83190000Y-147100000D02*
X83190000Y-146900000D01*
X83800000Y-151000000D02*
X83800000Y-152100000D01*
X83800000Y-152100000D02*
X78200000Y-152100000D01*
X85000000Y-149700000D02*
X85000000Y-151000000D01*
X85000000Y-151000000D02*
X83800000Y-151000000D01*
X85400000Y-146900000D02*
X85400000Y-149700000D01*
X85400000Y-149700000D02*
X85000000Y-149700000D01*
%TO.C,J23*%
X86600000Y-153400000D02*
X88810000Y-153400000D01*
X86600000Y-156200000D02*
X86600000Y-153400000D01*
X87000000Y-156200000D02*
X86600000Y-156200000D01*
X87000000Y-157500000D02*
X87000000Y-156200000D01*
X88200000Y-157500000D02*
X87000000Y-157500000D01*
X88200000Y-158600000D02*
X88200000Y-157500000D01*
X88810000Y-153400000D02*
X88810000Y-153600000D01*
X88810000Y-153600000D02*
X93190000Y-153600000D01*
X93190000Y-153400000D02*
X95400000Y-153400000D01*
X93190000Y-153600000D02*
X93190000Y-153400000D01*
X93800000Y-157500000D02*
X93800000Y-158600000D01*
X93800000Y-158600000D02*
X88200000Y-158600000D01*
X95000000Y-156200000D02*
X95000000Y-157500000D01*
X95000000Y-157500000D02*
X93800000Y-157500000D01*
X95400000Y-153400000D02*
X95400000Y-156200000D01*
X95400000Y-156200000D02*
X95000000Y-156200000D01*
%TO.C,J21*%
X86600000Y-146900000D02*
X88810000Y-146900000D01*
X86600000Y-149700000D02*
X86600000Y-146900000D01*
X87000000Y-149700000D02*
X86600000Y-149700000D01*
X87000000Y-151000000D02*
X87000000Y-149700000D01*
X88200000Y-151000000D02*
X87000000Y-151000000D01*
X88200000Y-152100000D02*
X88200000Y-151000000D01*
X88810000Y-146900000D02*
X88810000Y-147100000D01*
X88810000Y-147100000D02*
X93190000Y-147100000D01*
X93190000Y-146900000D02*
X95400000Y-146900000D01*
X93190000Y-147100000D02*
X93190000Y-146900000D01*
X93800000Y-151000000D02*
X93800000Y-152100000D01*
X93800000Y-152100000D02*
X88200000Y-152100000D01*
X95000000Y-149700000D02*
X95000000Y-151000000D01*
X95000000Y-151000000D02*
X93800000Y-151000000D01*
X95400000Y-146900000D02*
X95400000Y-149700000D01*
X95400000Y-149700000D02*
X95000000Y-149700000D01*
%TO.C,J3*%
X138300000Y-76750000D02*
X138520000Y-76750000D01*
X138300000Y-80750000D02*
X138300000Y-76750000D01*
X138520000Y-75750000D02*
X147480000Y-75750000D01*
X138520000Y-76750000D02*
X138520000Y-75750000D01*
X138520000Y-80750000D02*
X138300000Y-80750000D01*
X138520000Y-81750000D02*
X138520000Y-80750000D01*
X141000000Y-81750000D02*
X138520000Y-81750000D01*
X141000000Y-84250000D02*
X141000000Y-81750000D01*
X145000000Y-81750000D02*
X145000000Y-84250000D01*
X145000000Y-84250000D02*
X141000000Y-84250000D01*
X147480000Y-75750000D02*
X147480000Y-76750000D01*
X147480000Y-76750000D02*
X147700000Y-76750000D01*
X147480000Y-80750000D02*
X147480000Y-81750000D01*
X147480000Y-81750000D02*
X145000000Y-81750000D01*
X147700000Y-76750000D02*
X147700000Y-80750000D01*
X147700000Y-80750000D02*
X147480000Y-80750000D01*
%TO.C,U4*%
X106150000Y-104970000D02*
X107550000Y-104970000D01*
X106150000Y-113030000D02*
X106150000Y-104970000D01*
X107550000Y-104850000D02*
X112450000Y-104850000D01*
X107550000Y-104970000D02*
X107550000Y-104850000D01*
X107550000Y-113030000D02*
X106150000Y-113030000D01*
X107550000Y-113150000D02*
X107550000Y-113030000D01*
X112450000Y-104850000D02*
X112450000Y-104970000D01*
X112450000Y-104970000D02*
X113850000Y-104970000D01*
X112450000Y-113030000D02*
X112450000Y-113150000D01*
X112450000Y-113150000D02*
X107550000Y-113150000D01*
X113850000Y-104970000D02*
X113850000Y-113030000D01*
X113850000Y-113030000D02*
X112450000Y-113030000D01*
%TO.C,C2*%
X148520000Y-96270000D02*
X151480000Y-96270000D01*
X151480000Y-97730000D01*
X148520000Y-97730000D01*
X148520000Y-96270000D01*
%TO.C,J19*%
X86600000Y-140400000D02*
X88810000Y-140400000D01*
X86600000Y-143200000D02*
X86600000Y-140400000D01*
X87000000Y-143200000D02*
X86600000Y-143200000D01*
X87000000Y-144500000D02*
X87000000Y-143200000D01*
X88200000Y-144500000D02*
X87000000Y-144500000D01*
X88200000Y-145600000D02*
X88200000Y-144500000D01*
X88810000Y-140400000D02*
X88810000Y-140600000D01*
X88810000Y-140600000D02*
X93190000Y-140600000D01*
X93190000Y-140400000D02*
X95400000Y-140400000D01*
X93190000Y-140600000D02*
X93190000Y-140400000D01*
X93800000Y-144500000D02*
X93800000Y-145600000D01*
X93800000Y-145600000D02*
X88200000Y-145600000D01*
X95000000Y-143200000D02*
X95000000Y-144500000D01*
X95000000Y-144500000D02*
X93800000Y-144500000D01*
X95400000Y-140400000D02*
X95400000Y-143200000D01*
X95400000Y-143200000D02*
X95000000Y-143200000D01*
%TO.C,J36*%
X100600000Y-146900000D02*
X102810000Y-146900000D01*
X100600000Y-149700000D02*
X100600000Y-146900000D01*
X101000000Y-149700000D02*
X100600000Y-149700000D01*
X101000000Y-151000000D02*
X101000000Y-149700000D01*
X102200000Y-151000000D02*
X101000000Y-151000000D01*
X102200000Y-152100000D02*
X102200000Y-151000000D01*
X102810000Y-146900000D02*
X102810000Y-147100000D01*
X102810000Y-147100000D02*
X107190000Y-147100000D01*
X107190000Y-146900000D02*
X109400000Y-146900000D01*
X107190000Y-147100000D02*
X107190000Y-146900000D01*
X107800000Y-151000000D02*
X107800000Y-152100000D01*
X107800000Y-152100000D02*
X102200000Y-152100000D01*
X109000000Y-149700000D02*
X109000000Y-151000000D01*
X109000000Y-151000000D02*
X107800000Y-151000000D01*
X109400000Y-146900000D02*
X109400000Y-149700000D01*
X109400000Y-149700000D02*
X109000000Y-149700000D01*
%TO.C,J46*%
X124600000Y-127400000D02*
X126810000Y-127400000D01*
X124600000Y-130200000D02*
X124600000Y-127400000D01*
X125000000Y-130200000D02*
X124600000Y-130200000D01*
X125000000Y-131500000D02*
X125000000Y-130200000D01*
X126200000Y-131500000D02*
X125000000Y-131500000D01*
X126200000Y-132600000D02*
X126200000Y-131500000D01*
X126810000Y-127400000D02*
X126810000Y-127600000D01*
X126810000Y-127600000D02*
X131190000Y-127600000D01*
X131190000Y-127400000D02*
X133400000Y-127400000D01*
X131190000Y-127600000D02*
X131190000Y-127400000D01*
X131800000Y-131500000D02*
X131800000Y-132600000D01*
X131800000Y-132600000D02*
X126200000Y-132600000D01*
X133000000Y-130200000D02*
X133000000Y-131500000D01*
X133000000Y-131500000D02*
X131800000Y-131500000D01*
X133400000Y-127400000D02*
X133400000Y-130200000D01*
X133400000Y-130200000D02*
X133000000Y-130200000D01*
%TO.C,J40*%
X100600000Y-159900000D02*
X102810000Y-159900000D01*
X100600000Y-162700000D02*
X100600000Y-159900000D01*
X101000000Y-162700000D02*
X100600000Y-162700000D01*
X101000000Y-164000000D02*
X101000000Y-162700000D01*
X102200000Y-164000000D02*
X101000000Y-164000000D01*
X102200000Y-165100000D02*
X102200000Y-164000000D01*
X102810000Y-159900000D02*
X102810000Y-160100000D01*
X102810000Y-160100000D02*
X107190000Y-160100000D01*
X107190000Y-159900000D02*
X109400000Y-159900000D01*
X107190000Y-160100000D02*
X107190000Y-159900000D01*
X107800000Y-164000000D02*
X107800000Y-165100000D01*
X107800000Y-165100000D02*
X102200000Y-165100000D01*
X109000000Y-162700000D02*
X109000000Y-164000000D01*
X109000000Y-164000000D02*
X107800000Y-164000000D01*
X109400000Y-159900000D02*
X109400000Y-162700000D01*
X109400000Y-162700000D02*
X109000000Y-162700000D01*
%TO.C,J55*%
X134600000Y-153400000D02*
X136810000Y-153400000D01*
X134600000Y-156200000D02*
X134600000Y-153400000D01*
X135000000Y-156200000D02*
X134600000Y-156200000D01*
X135000000Y-157500000D02*
X135000000Y-156200000D01*
X136200000Y-157500000D02*
X135000000Y-157500000D01*
X136200000Y-158600000D02*
X136200000Y-157500000D01*
X136810000Y-153400000D02*
X136810000Y-153600000D01*
X136810000Y-153600000D02*
X141190000Y-153600000D01*
X141190000Y-153400000D02*
X143400000Y-153400000D01*
X141190000Y-153600000D02*
X141190000Y-153400000D01*
X141800000Y-157500000D02*
X141800000Y-158600000D01*
X141800000Y-158600000D02*
X136200000Y-158600000D01*
X143000000Y-156200000D02*
X143000000Y-157500000D01*
X143000000Y-157500000D02*
X141800000Y-157500000D01*
X143400000Y-153400000D02*
X143400000Y-156200000D01*
X143400000Y-156200000D02*
X143000000Y-156200000D01*
%TO.C,J49*%
X134600000Y-133900000D02*
X136810000Y-133900000D01*
X134600000Y-136700000D02*
X134600000Y-133900000D01*
X135000000Y-136700000D02*
X134600000Y-136700000D01*
X135000000Y-138000000D02*
X135000000Y-136700000D01*
X136200000Y-138000000D02*
X135000000Y-138000000D01*
X136200000Y-139100000D02*
X136200000Y-138000000D01*
X136810000Y-133900000D02*
X136810000Y-134100000D01*
X136810000Y-134100000D02*
X141190000Y-134100000D01*
X141190000Y-133900000D02*
X143400000Y-133900000D01*
X141190000Y-134100000D02*
X141190000Y-133900000D01*
X141800000Y-138000000D02*
X141800000Y-139100000D01*
X141800000Y-139100000D02*
X136200000Y-139100000D01*
X143000000Y-136700000D02*
X143000000Y-138000000D01*
X143000000Y-138000000D02*
X141800000Y-138000000D01*
X143400000Y-133900000D02*
X143400000Y-136700000D01*
X143400000Y-136700000D02*
X143000000Y-136700000D01*
%TO.C,C7*%
X132300000Y-88020000D02*
X135700000Y-88020000D01*
X135700000Y-89980000D01*
X132300000Y-89980000D01*
X132300000Y-88020000D01*
%TO.C,J43*%
X134600000Y-114400000D02*
X136810000Y-114400000D01*
X134600000Y-117200000D02*
X134600000Y-114400000D01*
X135000000Y-117200000D02*
X134600000Y-117200000D01*
X135000000Y-118500000D02*
X135000000Y-117200000D01*
X136200000Y-118500000D02*
X135000000Y-118500000D01*
X136200000Y-119600000D02*
X136200000Y-118500000D01*
X136810000Y-114400000D02*
X136810000Y-114600000D01*
X136810000Y-114600000D02*
X141190000Y-114600000D01*
X141190000Y-114400000D02*
X143400000Y-114400000D01*
X141190000Y-114600000D02*
X141190000Y-114400000D01*
X141800000Y-118500000D02*
X141800000Y-119600000D01*
X141800000Y-119600000D02*
X136200000Y-119600000D01*
X143000000Y-117200000D02*
X143000000Y-118500000D01*
X143000000Y-118500000D02*
X141800000Y-118500000D01*
X143400000Y-114400000D02*
X143400000Y-117200000D01*
X143400000Y-117200000D02*
X143000000Y-117200000D01*
%TO.C,H2*%
X154450000Y-78000000D02*
G75*
G02*
X149550000Y-78000000I-2450000J0D01*
G01*
X149550000Y-78000000D02*
G75*
G02*
X154450000Y-78000000I2450000J0D01*
G01*
%TO.C,J14*%
X76600000Y-127400000D02*
X78810000Y-127400000D01*
X76600000Y-130200000D02*
X76600000Y-127400000D01*
X77000000Y-130200000D02*
X76600000Y-130200000D01*
X77000000Y-131500000D02*
X77000000Y-130200000D01*
X78200000Y-131500000D02*
X77000000Y-131500000D01*
X78200000Y-132600000D02*
X78200000Y-131500000D01*
X78810000Y-127400000D02*
X78810000Y-127600000D01*
X78810000Y-127600000D02*
X83190000Y-127600000D01*
X83190000Y-127400000D02*
X85400000Y-127400000D01*
X83190000Y-127600000D02*
X83190000Y-127400000D01*
X83800000Y-131500000D02*
X83800000Y-132600000D01*
X83800000Y-132600000D02*
X78200000Y-132600000D01*
X85000000Y-130200000D02*
X85000000Y-131500000D01*
X85000000Y-131500000D02*
X83800000Y-131500000D01*
X85400000Y-127400000D02*
X85400000Y-130200000D01*
X85400000Y-130200000D02*
X85000000Y-130200000D01*
%TO.C,J17*%
X86600000Y-133900000D02*
X88810000Y-133900000D01*
X86600000Y-136700000D02*
X86600000Y-133900000D01*
X87000000Y-136700000D02*
X86600000Y-136700000D01*
X87000000Y-138000000D02*
X87000000Y-136700000D01*
X88200000Y-138000000D02*
X87000000Y-138000000D01*
X88200000Y-139100000D02*
X88200000Y-138000000D01*
X88810000Y-133900000D02*
X88810000Y-134100000D01*
X88810000Y-134100000D02*
X93190000Y-134100000D01*
X93190000Y-133900000D02*
X95400000Y-133900000D01*
X93190000Y-134100000D02*
X93190000Y-133900000D01*
X93800000Y-138000000D02*
X93800000Y-139100000D01*
X93800000Y-139100000D02*
X88200000Y-139100000D01*
X95000000Y-136700000D02*
X95000000Y-138000000D01*
X95000000Y-138000000D02*
X93800000Y-138000000D01*
X95400000Y-133900000D02*
X95400000Y-136700000D01*
X95400000Y-136700000D02*
X95000000Y-136700000D01*
%TO.C,F5*%
X114520000Y-92270000D02*
X117480000Y-92270000D01*
X117480000Y-93730000D01*
X114520000Y-93730000D01*
X114520000Y-92270000D01*
%TO.C,R14*%
X98520000Y-84270000D02*
X101480000Y-84270000D01*
X101480000Y-85730000D01*
X98520000Y-85730000D01*
X98520000Y-84270000D01*
%TO.C,R32*%
X110520000Y-101270000D02*
X113480000Y-101270000D01*
X113480000Y-102730000D01*
X110520000Y-102730000D01*
X110520000Y-101270000D01*
%TO.C,J39*%
X110600000Y-153400000D02*
X112810000Y-153400000D01*
X110600000Y-156200000D02*
X110600000Y-153400000D01*
X111000000Y-156200000D02*
X110600000Y-156200000D01*
X111000000Y-157500000D02*
X111000000Y-156200000D01*
X112200000Y-157500000D02*
X111000000Y-157500000D01*
X112200000Y-158600000D02*
X112200000Y-157500000D01*
X112810000Y-153400000D02*
X112810000Y-153600000D01*
X112810000Y-153600000D02*
X117190000Y-153600000D01*
X117190000Y-153400000D02*
X119400000Y-153400000D01*
X117190000Y-153600000D02*
X117190000Y-153400000D01*
X117800000Y-157500000D02*
X117800000Y-158600000D01*
X117800000Y-158600000D02*
X112200000Y-158600000D01*
X119000000Y-156200000D02*
X119000000Y-157500000D01*
X119000000Y-157500000D02*
X117800000Y-157500000D01*
X119400000Y-153400000D02*
X119400000Y-156200000D01*
X119400000Y-156200000D02*
X119000000Y-156200000D01*
%TO.C,R42*%
X140520000Y-109270000D02*
X143480000Y-109270000D01*
X143480000Y-110730000D01*
X140520000Y-110730000D01*
X140520000Y-109270000D01*
%TO.C,J16*%
X76600000Y-133900000D02*
X78810000Y-133900000D01*
X76600000Y-136700000D02*
X76600000Y-133900000D01*
X77000000Y-136700000D02*
X76600000Y-136700000D01*
X77000000Y-138000000D02*
X77000000Y-136700000D01*
X78200000Y-138000000D02*
X77000000Y-138000000D01*
X78200000Y-139100000D02*
X78200000Y-138000000D01*
X78810000Y-133900000D02*
X78810000Y-134100000D01*
X78810000Y-134100000D02*
X83190000Y-134100000D01*
X83190000Y-133900000D02*
X85400000Y-133900000D01*
X83190000Y-134100000D02*
X83190000Y-133900000D01*
X83800000Y-138000000D02*
X83800000Y-139100000D01*
X83800000Y-139100000D02*
X78200000Y-139100000D01*
X85000000Y-136700000D02*
X85000000Y-138000000D01*
X85000000Y-138000000D02*
X83800000Y-138000000D01*
X85400000Y-133900000D02*
X85400000Y-136700000D01*
X85400000Y-136700000D02*
X85000000Y-136700000D01*
%TO.C,TP1*%
X153000000Y-93000000D02*
G75*
G02*
X151000000Y-93000000I-1000000J0D01*
G01*
X151000000Y-93000000D02*
G75*
G02*
X153000000Y-93000000I1000000J0D01*
G01*
%TO.C,J37*%
X110600000Y-146900000D02*
X112810000Y-146900000D01*
X110600000Y-149700000D02*
X110600000Y-146900000D01*
X111000000Y-149700000D02*
X110600000Y-149700000D01*
X111000000Y-151000000D02*
X111000000Y-149700000D01*
X112200000Y-151000000D02*
X111000000Y-151000000D01*
X112200000Y-152100000D02*
X112200000Y-151000000D01*
X112810000Y-146900000D02*
X112810000Y-147100000D01*
X112810000Y-147100000D02*
X117190000Y-147100000D01*
X117190000Y-146900000D02*
X119400000Y-146900000D01*
X117190000Y-147100000D02*
X117190000Y-146900000D01*
X117800000Y-151000000D02*
X117800000Y-152100000D01*
X117800000Y-152100000D02*
X112200000Y-152100000D01*
X119000000Y-149700000D02*
X119000000Y-151000000D01*
X119000000Y-151000000D02*
X117800000Y-151000000D01*
X119400000Y-146900000D02*
X119400000Y-149700000D01*
X119400000Y-149700000D02*
X119000000Y-149700000D01*
%TO.C,H1*%
X80450000Y-78000000D02*
G75*
G02*
X75550000Y-78000000I-2450000J0D01*
G01*
X75550000Y-78000000D02*
G75*
G02*
X80450000Y-78000000I2450000J0D01*
G01*
%TO.C,U1*%
X78150000Y-95620000D02*
X79550000Y-95620000D01*
X78150000Y-102380000D02*
X78150000Y-95620000D01*
X79550000Y-95500000D02*
X84450000Y-95500000D01*
X79550000Y-95620000D02*
X79550000Y-95500000D01*
X79550000Y-102380000D02*
X78150000Y-102380000D01*
X79550000Y-102500000D02*
X79550000Y-102380000D01*
X84450000Y-95500000D02*
X84450000Y-95620000D01*
X84450000Y-95620000D02*
X85850000Y-95620000D01*
X84450000Y-102380000D02*
X84450000Y-102500000D01*
X84450000Y-102500000D02*
X79550000Y-102500000D01*
X85850000Y-95620000D02*
X85850000Y-102380000D01*
X85850000Y-102380000D02*
X84450000Y-102380000D01*
%TO.C,J47*%
X134600000Y-127400000D02*
X136810000Y-127400000D01*
X134600000Y-130200000D02*
X134600000Y-127400000D01*
X135000000Y-130200000D02*
X134600000Y-130200000D01*
X135000000Y-131500000D02*
X135000000Y-130200000D01*
X136200000Y-131500000D02*
X135000000Y-131500000D01*
X136200000Y-132600000D02*
X136200000Y-131500000D01*
X136810000Y-127400000D02*
X136810000Y-127600000D01*
X136810000Y-127600000D02*
X141190000Y-127600000D01*
X141190000Y-127400000D02*
X143400000Y-127400000D01*
X141190000Y-127600000D02*
X141190000Y-127400000D01*
X141800000Y-131500000D02*
X141800000Y-132600000D01*
X141800000Y-132600000D02*
X136200000Y-132600000D01*
X143000000Y-130200000D02*
X143000000Y-131500000D01*
X143000000Y-131500000D02*
X141800000Y-131500000D01*
X143400000Y-127400000D02*
X143400000Y-130200000D01*
X143400000Y-130200000D02*
X143000000Y-130200000D01*
%TO.C,R51*%
X128520000Y-80270000D02*
X131480000Y-80270000D01*
X131480000Y-81730000D01*
X128520000Y-81730000D01*
X128520000Y-80270000D01*
%TO.C,TP4*%
X153000000Y-87000000D02*
G75*
G02*
X151000000Y-87000000I-1000000J0D01*
G01*
X151000000Y-87000000D02*
G75*
G02*
X153000000Y-87000000I1000000J0D01*
G01*
%TO.C,C10*%
X120520000Y-80270000D02*
X123480000Y-80270000D01*
X123480000Y-81730000D01*
X120520000Y-81730000D01*
X120520000Y-80270000D01*
%TO.C,J28*%
X100600000Y-120900000D02*
X102810000Y-120900000D01*
X100600000Y-123700000D02*
X100600000Y-120900000D01*
X101000000Y-123700000D02*
X100600000Y-123700000D01*
X101000000Y-125000000D02*
X101000000Y-123700000D01*
X102200000Y-125000000D02*
X101000000Y-125000000D01*
X102200000Y-126100000D02*
X102200000Y-125000000D01*
X102810000Y-120900000D02*
X102810000Y-121100000D01*
X102810000Y-121100000D02*
X107190000Y-121100000D01*
X107190000Y-120900000D02*
X109400000Y-120900000D01*
X107190000Y-121100000D02*
X107190000Y-120900000D01*
X107800000Y-125000000D02*
X107800000Y-126100000D01*
X107800000Y-126100000D02*
X102200000Y-126100000D01*
X109000000Y-123700000D02*
X109000000Y-125000000D01*
X109000000Y-125000000D02*
X107800000Y-125000000D01*
X109400000Y-120900000D02*
X109400000Y-123700000D01*
X109400000Y-123700000D02*
X109000000Y-123700000D01*
%TO.C,D1*%
X131000000Y-76250000D02*
X138000000Y-76250000D01*
X131000000Y-79750000D02*
X131000000Y-76250000D01*
X138000000Y-76250000D02*
X138000000Y-79750000D01*
X138000000Y-79750000D02*
X131000000Y-79750000D01*
%TO.C,R41*%
X116520000Y-109270000D02*
X119480000Y-109270000D01*
X119480000Y-110730000D01*
X116520000Y-110730000D01*
X116520000Y-109270000D01*
%TO.C,U5*%
X130150000Y-104970000D02*
X131550000Y-104970000D01*
X130150000Y-113030000D02*
X130150000Y-104970000D01*
X131550000Y-104850000D02*
X136450000Y-104850000D01*
X131550000Y-104970000D02*
X131550000Y-104850000D01*
X131550000Y-113030000D02*
X130150000Y-113030000D01*
X131550000Y-113150000D02*
X131550000Y-113030000D01*
X136450000Y-104850000D02*
X136450000Y-104970000D01*
X136450000Y-104970000D02*
X137850000Y-104970000D01*
X136450000Y-113030000D02*
X136450000Y-113150000D01*
X136450000Y-113150000D02*
X131550000Y-113150000D01*
X137850000Y-104970000D02*
X137850000Y-113030000D01*
X137850000Y-113030000D02*
X136450000Y-113030000D01*
%TO.C,TP3*%
X153000000Y-112000000D02*
G75*
G02*
X151000000Y-112000000I-1000000J0D01*
G01*
X151000000Y-112000000D02*
G75*
G02*
X153000000Y-112000000I1000000J0D01*
G01*
%TO.C,R50*%
X124520000Y-80270000D02*
X127480000Y-80270000D01*
X127480000Y-81730000D01*
X124520000Y-81730000D01*
X124520000Y-80270000D01*
%TO.C,R10*%
X94520000Y-81270000D02*
X97480000Y-81270000D01*
X97480000Y-82730000D01*
X94520000Y-82730000D01*
X94520000Y-81270000D01*
%TO.C,J15*%
X86600000Y-127400000D02*
X88810000Y-127400000D01*
X86600000Y-130200000D02*
X86600000Y-127400000D01*
X87000000Y-130200000D02*
X86600000Y-130200000D01*
X87000000Y-131500000D02*
X87000000Y-130200000D01*
X88200000Y-131500000D02*
X87000000Y-131500000D01*
X88200000Y-132600000D02*
X88200000Y-131500000D01*
X88810000Y-127400000D02*
X88810000Y-127600000D01*
X88810000Y-127600000D02*
X93190000Y-127600000D01*
X93190000Y-127400000D02*
X95400000Y-127400000D01*
X93190000Y-127600000D02*
X93190000Y-127400000D01*
X93800000Y-131500000D02*
X93800000Y-132600000D01*
X93800000Y-132600000D02*
X88200000Y-132600000D01*
X95000000Y-130200000D02*
X95000000Y-131500000D01*
X95000000Y-131500000D02*
X93800000Y-131500000D01*
X95400000Y-127400000D02*
X95400000Y-130200000D01*
X95400000Y-130200000D02*
X95000000Y-130200000D01*
%TO.C,U6*%
X124150000Y-95600000D02*
X125550000Y-95600000D01*
X124150000Y-100400000D02*
X124150000Y-95600000D01*
X125550000Y-95250000D02*
X130450000Y-95250000D01*
X125550000Y-95600000D02*
X125550000Y-95250000D01*
X125550000Y-100400000D02*
X124150000Y-100400000D01*
X125550000Y-100750000D02*
X125550000Y-100400000D01*
X130450000Y-95250000D02*
X130450000Y-95600000D01*
X130450000Y-95600000D02*
X131850000Y-95600000D01*
X130450000Y-100400000D02*
X130450000Y-100750000D01*
X130450000Y-100750000D02*
X125550000Y-100750000D01*
X131850000Y-95600000D02*
X131850000Y-100400000D01*
X131850000Y-100400000D02*
X130450000Y-100400000D01*
%TO.C,J22*%
X76600000Y-153400000D02*
X78810000Y-153400000D01*
X76600000Y-156200000D02*
X76600000Y-153400000D01*
X77000000Y-156200000D02*
X76600000Y-156200000D01*
X77000000Y-157500000D02*
X77000000Y-156200000D01*
X78200000Y-157500000D02*
X77000000Y-157500000D01*
X78200000Y-158600000D02*
X78200000Y-157500000D01*
X78810000Y-153400000D02*
X78810000Y-153600000D01*
X78810000Y-153600000D02*
X83190000Y-153600000D01*
X83190000Y-153400000D02*
X85400000Y-153400000D01*
X83190000Y-153600000D02*
X83190000Y-153400000D01*
X83800000Y-157500000D02*
X83800000Y-158600000D01*
X83800000Y-158600000D02*
X78200000Y-158600000D01*
X85000000Y-156200000D02*
X85000000Y-157500000D01*
X85000000Y-157500000D02*
X83800000Y-157500000D01*
X85400000Y-153400000D02*
X85400000Y-156200000D01*
X85400000Y-156200000D02*
X85000000Y-156200000D01*
%TO.C,J31*%
X110600000Y-127400000D02*
X112810000Y-127400000D01*
X110600000Y-130200000D02*
X110600000Y-127400000D01*
X111000000Y-130200000D02*
X110600000Y-130200000D01*
X111000000Y-131500000D02*
X111000000Y-130200000D01*
X112200000Y-131500000D02*
X111000000Y-131500000D01*
X112200000Y-132600000D02*
X112200000Y-131500000D01*
X112810000Y-127400000D02*
X112810000Y-127600000D01*
X112810000Y-127600000D02*
X117190000Y-127600000D01*
X117190000Y-127400000D02*
X119400000Y-127400000D01*
X117190000Y-127600000D02*
X117190000Y-127400000D01*
X117800000Y-131500000D02*
X117800000Y-132600000D01*
X117800000Y-132600000D02*
X112200000Y-132600000D01*
X119000000Y-130200000D02*
X119000000Y-131500000D01*
X119000000Y-131500000D02*
X117800000Y-131500000D01*
X119400000Y-127400000D02*
X119400000Y-130200000D01*
X119400000Y-130200000D02*
X119000000Y-130200000D01*
%TO.C,C4*%
X115520000Y-104270000D02*
X118480000Y-104270000D01*
X118480000Y-105730000D01*
X115520000Y-105730000D01*
X115520000Y-104270000D01*
%TO.C,U2*%
X142150000Y-99620000D02*
X143550000Y-99620000D01*
X142150000Y-106380000D02*
X142150000Y-99620000D01*
X143550000Y-99500000D02*
X148450000Y-99500000D01*
X143550000Y-99620000D02*
X143550000Y-99500000D01*
X143550000Y-106380000D02*
X142150000Y-106380000D01*
X143550000Y-106500000D02*
X143550000Y-106380000D01*
X148450000Y-99500000D02*
X148450000Y-99620000D01*
X148450000Y-99620000D02*
X149850000Y-99620000D01*
X148450000Y-106380000D02*
X148450000Y-106500000D01*
X148450000Y-106500000D02*
X143550000Y-106500000D01*
X149850000Y-99620000D02*
X149850000Y-106380000D01*
X149850000Y-106380000D02*
X148450000Y-106380000D01*
%TO.C,R35*%
X138520000Y-101270000D02*
X141480000Y-101270000D01*
X141480000Y-102730000D01*
X138520000Y-102730000D01*
X138520000Y-101270000D01*
%TO.C,J34*%
X100600000Y-140400000D02*
X102810000Y-140400000D01*
X100600000Y-143200000D02*
X100600000Y-140400000D01*
X101000000Y-143200000D02*
X100600000Y-143200000D01*
X101000000Y-144500000D02*
X101000000Y-143200000D01*
X102200000Y-144500000D02*
X101000000Y-144500000D01*
X102200000Y-145600000D02*
X102200000Y-144500000D01*
X102810000Y-140400000D02*
X102810000Y-140600000D01*
X102810000Y-140600000D02*
X107190000Y-140600000D01*
X107190000Y-140400000D02*
X109400000Y-140400000D01*
X107190000Y-140600000D02*
X107190000Y-140400000D01*
X107800000Y-144500000D02*
X107800000Y-145600000D01*
X107800000Y-145600000D02*
X102200000Y-145600000D01*
X109000000Y-143200000D02*
X109000000Y-144500000D01*
X109000000Y-144500000D02*
X107800000Y-144500000D01*
X109400000Y-140400000D02*
X109400000Y-143200000D01*
X109400000Y-143200000D02*
X109000000Y-143200000D01*
%TO.C,J53*%
X134600000Y-146900000D02*
X136810000Y-146900000D01*
X134600000Y-149700000D02*
X134600000Y-146900000D01*
X135000000Y-149700000D02*
X134600000Y-149700000D01*
X135000000Y-151000000D02*
X135000000Y-149700000D01*
X136200000Y-151000000D02*
X135000000Y-151000000D01*
X136200000Y-152100000D02*
X136200000Y-151000000D01*
X136810000Y-146900000D02*
X136810000Y-147100000D01*
X136810000Y-147100000D02*
X141190000Y-147100000D01*
X141190000Y-146900000D02*
X143400000Y-146900000D01*
X141190000Y-147100000D02*
X141190000Y-146900000D01*
X141800000Y-151000000D02*
X141800000Y-152100000D01*
X141800000Y-152100000D02*
X136200000Y-152100000D01*
X143000000Y-149700000D02*
X143000000Y-151000000D01*
X143000000Y-151000000D02*
X141800000Y-151000000D01*
X143400000Y-146900000D02*
X143400000Y-149700000D01*
X143400000Y-149700000D02*
X143000000Y-149700000D01*
%TO.C,Q1*%
X82070000Y-83500000D02*
X83100000Y-83500000D01*
X82070000Y-84610000D02*
X82070000Y-83500000D01*
X82070000Y-85390000D02*
X83100000Y-85390000D01*
X82070000Y-86500000D02*
X82070000Y-85390000D01*
X83100000Y-83300000D02*
X84900000Y-83300000D01*
X83100000Y-83500000D02*
X83100000Y-83300000D01*
X83100000Y-84610000D02*
X82070000Y-84610000D01*
X83100000Y-85390000D02*
X83100000Y-84610000D01*
X83100000Y-86500000D02*
X82070000Y-86500000D01*
X83100000Y-86700000D02*
X83100000Y-86500000D01*
X84900000Y-83300000D02*
X84900000Y-84450000D01*
X84900000Y-84450000D02*
X85930000Y-84450000D01*
X84900000Y-85550000D02*
X84900000Y-86700000D01*
X84900000Y-86700000D02*
X83100000Y-86700000D01*
X85930000Y-84450000D02*
X85930000Y-85550000D01*
X85930000Y-85550000D02*
X84900000Y-85550000D01*
%TO.C,J13*%
X86600000Y-120900000D02*
X88810000Y-120900000D01*
X86600000Y-123700000D02*
X86600000Y-120900000D01*
X87000000Y-123700000D02*
X86600000Y-123700000D01*
X87000000Y-125000000D02*
X87000000Y-123700000D01*
X88200000Y-125000000D02*
X87000000Y-125000000D01*
X88200000Y-126100000D02*
X88200000Y-125000000D01*
X88810000Y-120900000D02*
X88810000Y-121100000D01*
X88810000Y-121100000D02*
X93190000Y-121100000D01*
X93190000Y-120900000D02*
X95400000Y-120900000D01*
X93190000Y-121100000D02*
X93190000Y-120900000D01*
X93800000Y-125000000D02*
X93800000Y-126100000D01*
X93800000Y-126100000D02*
X88200000Y-126100000D01*
X95000000Y-123700000D02*
X95000000Y-125000000D01*
X95000000Y-125000000D02*
X93800000Y-125000000D01*
X95400000Y-120900000D02*
X95400000Y-123700000D01*
X95400000Y-123700000D02*
X95000000Y-123700000D01*
%TO.C,R15*%
X102520000Y-84270000D02*
X105480000Y-84270000D01*
X105480000Y-85730000D01*
X102520000Y-85730000D01*
X102520000Y-84270000D01*
%TO.C,J48*%
X124600000Y-133900000D02*
X126810000Y-133900000D01*
X124600000Y-136700000D02*
X124600000Y-133900000D01*
X125000000Y-136700000D02*
X124600000Y-136700000D01*
X125000000Y-138000000D02*
X125000000Y-136700000D01*
X126200000Y-138000000D02*
X125000000Y-138000000D01*
X126200000Y-139100000D02*
X126200000Y-138000000D01*
X126810000Y-133900000D02*
X126810000Y-134100000D01*
X126810000Y-134100000D02*
X131190000Y-134100000D01*
X131190000Y-133900000D02*
X133400000Y-133900000D01*
X131190000Y-134100000D02*
X131190000Y-133900000D01*
X131800000Y-138000000D02*
X131800000Y-139100000D01*
X131800000Y-139100000D02*
X126200000Y-139100000D01*
X133000000Y-136700000D02*
X133000000Y-138000000D01*
X133000000Y-138000000D02*
X131800000Y-138000000D01*
X133400000Y-133900000D02*
X133400000Y-136700000D01*
X133400000Y-136700000D02*
X133000000Y-136700000D01*
%TO.C,J44*%
X124600000Y-120900000D02*
X126810000Y-120900000D01*
X124600000Y-123700000D02*
X124600000Y-120900000D01*
X125000000Y-123700000D02*
X124600000Y-123700000D01*
X125000000Y-125000000D02*
X125000000Y-123700000D01*
X126200000Y-125000000D02*
X125000000Y-125000000D01*
X126200000Y-126100000D02*
X126200000Y-125000000D01*
X126810000Y-120900000D02*
X126810000Y-121100000D01*
X126810000Y-121100000D02*
X131190000Y-121100000D01*
X131190000Y-120900000D02*
X133400000Y-120900000D01*
X131190000Y-121100000D02*
X131190000Y-120900000D01*
X131800000Y-125000000D02*
X131800000Y-126100000D01*
X131800000Y-126100000D02*
X126200000Y-126100000D01*
X133000000Y-123700000D02*
X133000000Y-125000000D01*
X133000000Y-125000000D02*
X131800000Y-125000000D01*
X133400000Y-120900000D02*
X133400000Y-123700000D01*
X133400000Y-123700000D02*
X133000000Y-123700000D01*
%TO.C,C1*%
X78520000Y-92770000D02*
X81480000Y-92770000D01*
X81480000Y-94230000D01*
X78520000Y-94230000D01*
X78520000Y-92770000D01*
%TO.C,R12*%
X102520000Y-81270000D02*
X105480000Y-81270000D01*
X105480000Y-82730000D01*
X102520000Y-82730000D01*
X102520000Y-81270000D01*
%TO.C,R34*%
X134520000Y-101270000D02*
X137480000Y-101270000D01*
X137480000Y-102730000D01*
X134520000Y-102730000D01*
X134520000Y-101270000D01*
%TO.C,J52*%
X124600000Y-146900000D02*
X126810000Y-146900000D01*
X124600000Y-149700000D02*
X124600000Y-146900000D01*
X125000000Y-149700000D02*
X124600000Y-149700000D01*
X125000000Y-151000000D02*
X125000000Y-149700000D01*
X126200000Y-151000000D02*
X125000000Y-151000000D01*
X126200000Y-152100000D02*
X126200000Y-151000000D01*
X126810000Y-146900000D02*
X126810000Y-147100000D01*
X126810000Y-147100000D02*
X131190000Y-147100000D01*
X131190000Y-146900000D02*
X133400000Y-146900000D01*
X131190000Y-147100000D02*
X131190000Y-146900000D01*
X131800000Y-151000000D02*
X131800000Y-152100000D01*
X131800000Y-152100000D02*
X126200000Y-152100000D01*
X133000000Y-149700000D02*
X133000000Y-151000000D01*
X133000000Y-151000000D02*
X131800000Y-151000000D01*
X133400000Y-146900000D02*
X133400000Y-149700000D01*
X133400000Y-149700000D02*
X133000000Y-149700000D01*
%TO.C,C3*%
X91520000Y-104270000D02*
X94480000Y-104270000D01*
X94480000Y-105730000D01*
X91520000Y-105730000D01*
X91520000Y-104270000D01*
%TO.C,L1*%
X119700000Y-83700000D02*
X124300000Y-83700000D01*
X124300000Y-88300000D01*
X119700000Y-88300000D01*
X119700000Y-83700000D01*
%TO.C,C9*%
X122300000Y-91020000D02*
X125700000Y-91020000D01*
X125700000Y-92980000D01*
X122300000Y-92980000D01*
X122300000Y-91020000D01*
%TO.C,C6*%
X132520000Y-98270000D02*
X135480000Y-98270000D01*
X135480000Y-99730000D01*
X132520000Y-99730000D01*
X132520000Y-98270000D01*
%TO.C,C5*%
X146520000Y-108270000D02*
X149480000Y-108270000D01*
X149480000Y-109730000D01*
X146520000Y-109730000D01*
X146520000Y-108270000D01*
%TO.C,R33*%
X114520000Y-101270000D02*
X117480000Y-101270000D01*
X117480000Y-102730000D01*
X114520000Y-102730000D01*
X114520000Y-101270000D01*
%TO.C,J2*%
X105850000Y-78600000D02*
X109390000Y-78600000D01*
X109390000Y-97400000D01*
X105850000Y-97400000D01*
X105850000Y-78600000D01*
%TO.C,J35*%
X110600000Y-140400000D02*
X112810000Y-140400000D01*
X110600000Y-143200000D02*
X110600000Y-140400000D01*
X111000000Y-143200000D02*
X110600000Y-143200000D01*
X111000000Y-144500000D02*
X111000000Y-143200000D01*
X112200000Y-144500000D02*
X111000000Y-144500000D01*
X112200000Y-145600000D02*
X112200000Y-144500000D01*
X112810000Y-140400000D02*
X112810000Y-140600000D01*
X112810000Y-140600000D02*
X117190000Y-140600000D01*
X117190000Y-140400000D02*
X119400000Y-140400000D01*
X117190000Y-140600000D02*
X117190000Y-140400000D01*
X117800000Y-144500000D02*
X117800000Y-145600000D01*
X117800000Y-145600000D02*
X112200000Y-145600000D01*
X119000000Y-143200000D02*
X119000000Y-144500000D01*
X119000000Y-144500000D02*
X117800000Y-144500000D01*
X119400000Y-140400000D02*
X119400000Y-143200000D01*
X119400000Y-143200000D02*
X119000000Y-143200000D01*
%TO.C,J18*%
X76600000Y-140400000D02*
X78810000Y-140400000D01*
X76600000Y-143200000D02*
X76600000Y-140400000D01*
X77000000Y-143200000D02*
X76600000Y-143200000D01*
X77000000Y-144500000D02*
X77000000Y-143200000D01*
X78200000Y-144500000D02*
X77000000Y-144500000D01*
X78200000Y-145600000D02*
X78200000Y-144500000D01*
X78810000Y-140400000D02*
X78810000Y-140600000D01*
X78810000Y-140600000D02*
X83190000Y-140600000D01*
X83190000Y-140400000D02*
X85400000Y-140400000D01*
X83190000Y-140600000D02*
X83190000Y-140400000D01*
X83800000Y-144500000D02*
X83800000Y-145600000D01*
X83800000Y-145600000D02*
X78200000Y-145600000D01*
X85000000Y-143200000D02*
X85000000Y-144500000D01*
X85000000Y-144500000D02*
X83800000Y-144500000D01*
X85400000Y-140400000D02*
X85400000Y-143200000D01*
X85400000Y-143200000D02*
X85000000Y-143200000D01*
%TO.C,J12*%
X76600000Y-120900000D02*
X78810000Y-120900000D01*
X76600000Y-123700000D02*
X76600000Y-120900000D01*
X77000000Y-123700000D02*
X76600000Y-123700000D01*
X77000000Y-125000000D02*
X77000000Y-123700000D01*
X78200000Y-125000000D02*
X77000000Y-125000000D01*
X78200000Y-126100000D02*
X78200000Y-125000000D01*
X78810000Y-120900000D02*
X78810000Y-121100000D01*
X78810000Y-121100000D02*
X83190000Y-121100000D01*
X83190000Y-120900000D02*
X85400000Y-120900000D01*
X83190000Y-121100000D02*
X83190000Y-120900000D01*
X83800000Y-125000000D02*
X83800000Y-126100000D01*
X83800000Y-126100000D02*
X78200000Y-126100000D01*
X85000000Y-123700000D02*
X85000000Y-125000000D01*
X85000000Y-125000000D02*
X83800000Y-125000000D01*
X85400000Y-120900000D02*
X85400000Y-123700000D01*
X85400000Y-123700000D02*
X85000000Y-123700000D01*
%TO.C,U3*%
X82150000Y-104970000D02*
X83550000Y-104970000D01*
X82150000Y-113030000D02*
X82150000Y-104970000D01*
X83550000Y-104850000D02*
X88450000Y-104850000D01*
X83550000Y-104970000D02*
X83550000Y-104850000D01*
X83550000Y-113030000D02*
X82150000Y-113030000D01*
X83550000Y-113150000D02*
X83550000Y-113030000D01*
X88450000Y-104850000D02*
X88450000Y-104970000D01*
X88450000Y-104970000D02*
X89850000Y-104970000D01*
X88450000Y-113030000D02*
X88450000Y-113150000D01*
X88450000Y-113150000D02*
X83550000Y-113150000D01*
X89850000Y-104970000D02*
X89850000Y-113030000D01*
X89850000Y-113030000D02*
X88450000Y-113030000D01*
%TD*%
M02*
