%TF.GenerationSoftware,KiCad,Pcbnew,10.0.6*%
%TF.CreationDate,2026-10-01T23:26:31+08:00*%
%TF.ProjectId,PoseDoll_O22_SSI_Carrier,506f7365-446f-46c6-9c5f-4f32325f5353,rev?*%
%TF.SameCoordinates,Original*%
%TF.FileFunction,AssemblyDrawing,Top*%
%FSLAX46Y46*%
G04 Gerber Fmt 4.6, Leading zero omitted, Abs format (unit mm)*
G04 Created by KiCad (PCBNEW 10.0.6) date 2026-10-01 23:26:31*
%MOMM*%
%LPD*%
G01*
G04 APERTURE LIST*
%ADD10C,0.150000*%
%ADD11C,0.060000*%
%ADD12C,0.120000*%
%ADD13C,0.080000*%
%ADD14C,0.110000*%
%ADD15C,0.100000*%
G04 APERTURE END LIST*
D10*
X128190476Y-155204819D02*
X128190476Y-155919104D01*
X128190476Y-155919104D02*
X128142857Y-156061961D01*
X128142857Y-156061961D02*
X128047619Y-156157200D01*
X128047619Y-156157200D02*
X127904762Y-156204819D01*
X127904762Y-156204819D02*
X127809524Y-156204819D01*
X129142857Y-155204819D02*
X128666667Y-155204819D01*
X128666667Y-155204819D02*
X128619048Y-155681009D01*
X128619048Y-155681009D02*
X128666667Y-155633390D01*
X128666667Y-155633390D02*
X128761905Y-155585771D01*
X128761905Y-155585771D02*
X129000000Y-155585771D01*
X129000000Y-155585771D02*
X129095238Y-155633390D01*
X129095238Y-155633390D02*
X129142857Y-155681009D01*
X129142857Y-155681009D02*
X129190476Y-155776247D01*
X129190476Y-155776247D02*
X129190476Y-156014342D01*
X129190476Y-156014342D02*
X129142857Y-156109580D01*
X129142857Y-156109580D02*
X129095238Y-156157200D01*
X129095238Y-156157200D02*
X129000000Y-156204819D01*
X129000000Y-156204819D02*
X128761905Y-156204819D01*
X128761905Y-156204819D02*
X128666667Y-156157200D01*
X128666667Y-156157200D02*
X128619048Y-156109580D01*
X130047619Y-155538152D02*
X130047619Y-156204819D01*
X129809524Y-155157200D02*
X129571429Y-155871485D01*
X129571429Y-155871485D02*
X130190476Y-155871485D01*
D11*
X93742857Y-110181927D02*
X93609524Y-109991451D01*
X93514286Y-110181927D02*
X93514286Y-109781927D01*
X93514286Y-109781927D02*
X93666667Y-109781927D01*
X93666667Y-109781927D02*
X93704762Y-109800975D01*
X93704762Y-109800975D02*
X93723809Y-109820022D01*
X93723809Y-109820022D02*
X93742857Y-109858118D01*
X93742857Y-109858118D02*
X93742857Y-109915260D01*
X93742857Y-109915260D02*
X93723809Y-109953356D01*
X93723809Y-109953356D02*
X93704762Y-109972403D01*
X93704762Y-109972403D02*
X93666667Y-109991451D01*
X93666667Y-109991451D02*
X93514286Y-109991451D01*
X94085714Y-109915260D02*
X94085714Y-110181927D01*
X93990476Y-109762880D02*
X93895238Y-110048594D01*
X93895238Y-110048594D02*
X94142857Y-110048594D01*
X94371428Y-109781927D02*
X94409523Y-109781927D01*
X94409523Y-109781927D02*
X94447619Y-109800975D01*
X94447619Y-109800975D02*
X94466666Y-109820022D01*
X94466666Y-109820022D02*
X94485714Y-109858118D01*
X94485714Y-109858118D02*
X94504761Y-109934308D01*
X94504761Y-109934308D02*
X94504761Y-110029546D01*
X94504761Y-110029546D02*
X94485714Y-110105737D01*
X94485714Y-110105737D02*
X94466666Y-110143832D01*
X94466666Y-110143832D02*
X94447619Y-110162880D01*
X94447619Y-110162880D02*
X94409523Y-110181927D01*
X94409523Y-110181927D02*
X94371428Y-110181927D01*
X94371428Y-110181927D02*
X94333333Y-110162880D01*
X94333333Y-110162880D02*
X94314285Y-110143832D01*
X94314285Y-110143832D02*
X94295238Y-110105737D01*
X94295238Y-110105737D02*
X94276190Y-110029546D01*
X94276190Y-110029546D02*
X94276190Y-109934308D01*
X94276190Y-109934308D02*
X94295238Y-109858118D01*
X94295238Y-109858118D02*
X94314285Y-109820022D01*
X94314285Y-109820022D02*
X94333333Y-109800975D01*
X94333333Y-109800975D02*
X94371428Y-109781927D01*
D10*
X114190476Y-122704819D02*
X114190476Y-123419104D01*
X114190476Y-123419104D02*
X114142857Y-123561961D01*
X114142857Y-123561961D02*
X114047619Y-123657200D01*
X114047619Y-123657200D02*
X113904762Y-123704819D01*
X113904762Y-123704819D02*
X113809524Y-123704819D01*
X114619048Y-122800057D02*
X114666667Y-122752438D01*
X114666667Y-122752438D02*
X114761905Y-122704819D01*
X114761905Y-122704819D02*
X115000000Y-122704819D01*
X115000000Y-122704819D02*
X115095238Y-122752438D01*
X115095238Y-122752438D02*
X115142857Y-122800057D01*
X115142857Y-122800057D02*
X115190476Y-122895295D01*
X115190476Y-122895295D02*
X115190476Y-122990533D01*
X115190476Y-122990533D02*
X115142857Y-123133390D01*
X115142857Y-123133390D02*
X114571429Y-123704819D01*
X114571429Y-123704819D02*
X115190476Y-123704819D01*
X115666667Y-123704819D02*
X115857143Y-123704819D01*
X115857143Y-123704819D02*
X115952381Y-123657200D01*
X115952381Y-123657200D02*
X116000000Y-123609580D01*
X116000000Y-123609580D02*
X116095238Y-123466723D01*
X116095238Y-123466723D02*
X116142857Y-123276247D01*
X116142857Y-123276247D02*
X116142857Y-122895295D01*
X116142857Y-122895295D02*
X116095238Y-122800057D01*
X116095238Y-122800057D02*
X116047619Y-122752438D01*
X116047619Y-122752438D02*
X115952381Y-122704819D01*
X115952381Y-122704819D02*
X115761905Y-122704819D01*
X115761905Y-122704819D02*
X115666667Y-122752438D01*
X115666667Y-122752438D02*
X115619048Y-122800057D01*
X115619048Y-122800057D02*
X115571429Y-122895295D01*
X115571429Y-122895295D02*
X115571429Y-123133390D01*
X115571429Y-123133390D02*
X115619048Y-123228628D01*
X115619048Y-123228628D02*
X115666667Y-123276247D01*
X115666667Y-123276247D02*
X115761905Y-123323866D01*
X115761905Y-123323866D02*
X115952381Y-123323866D01*
X115952381Y-123323866D02*
X116047619Y-123276247D01*
X116047619Y-123276247D02*
X116095238Y-123228628D01*
X116095238Y-123228628D02*
X116142857Y-123133390D01*
D12*
X144733333Y-87944807D02*
X144466667Y-87944807D01*
X144466667Y-88363855D02*
X144466667Y-87563855D01*
X144466667Y-87563855D02*
X144847619Y-87563855D01*
X145495238Y-87830521D02*
X145495238Y-88363855D01*
X145304762Y-87525760D02*
X145114285Y-88097188D01*
X145114285Y-88097188D02*
X145609524Y-88097188D01*
D10*
X138190476Y-122704819D02*
X138190476Y-123419104D01*
X138190476Y-123419104D02*
X138142857Y-123561961D01*
X138142857Y-123561961D02*
X138047619Y-123657200D01*
X138047619Y-123657200D02*
X137904762Y-123704819D01*
X137904762Y-123704819D02*
X137809524Y-123704819D01*
X139095238Y-123038152D02*
X139095238Y-123704819D01*
X138857143Y-122657200D02*
X138619048Y-123371485D01*
X138619048Y-123371485D02*
X139238095Y-123371485D01*
X140095238Y-122704819D02*
X139619048Y-122704819D01*
X139619048Y-122704819D02*
X139571429Y-123181009D01*
X139571429Y-123181009D02*
X139619048Y-123133390D01*
X139619048Y-123133390D02*
X139714286Y-123085771D01*
X139714286Y-123085771D02*
X139952381Y-123085771D01*
X139952381Y-123085771D02*
X140047619Y-123133390D01*
X140047619Y-123133390D02*
X140095238Y-123181009D01*
X140095238Y-123181009D02*
X140142857Y-123276247D01*
X140142857Y-123276247D02*
X140142857Y-123514342D01*
X140142857Y-123514342D02*
X140095238Y-123609580D01*
X140095238Y-123609580D02*
X140047619Y-123657200D01*
X140047619Y-123657200D02*
X139952381Y-123704819D01*
X139952381Y-123704819D02*
X139714286Y-123704819D01*
X139714286Y-123704819D02*
X139619048Y-123657200D01*
X139619048Y-123657200D02*
X139571429Y-123609580D01*
X104190476Y-135704819D02*
X104190476Y-136419104D01*
X104190476Y-136419104D02*
X104142857Y-136561961D01*
X104142857Y-136561961D02*
X104047619Y-136657200D01*
X104047619Y-136657200D02*
X103904762Y-136704819D01*
X103904762Y-136704819D02*
X103809524Y-136704819D01*
X104571429Y-135704819D02*
X105190476Y-135704819D01*
X105190476Y-135704819D02*
X104857143Y-136085771D01*
X104857143Y-136085771D02*
X105000000Y-136085771D01*
X105000000Y-136085771D02*
X105095238Y-136133390D01*
X105095238Y-136133390D02*
X105142857Y-136181009D01*
X105142857Y-136181009D02*
X105190476Y-136276247D01*
X105190476Y-136276247D02*
X105190476Y-136514342D01*
X105190476Y-136514342D02*
X105142857Y-136609580D01*
X105142857Y-136609580D02*
X105095238Y-136657200D01*
X105095238Y-136657200D02*
X105000000Y-136704819D01*
X105000000Y-136704819D02*
X104714286Y-136704819D01*
X104714286Y-136704819D02*
X104619048Y-136657200D01*
X104619048Y-136657200D02*
X104571429Y-136609580D01*
X105571429Y-135800057D02*
X105619048Y-135752438D01*
X105619048Y-135752438D02*
X105714286Y-135704819D01*
X105714286Y-135704819D02*
X105952381Y-135704819D01*
X105952381Y-135704819D02*
X106047619Y-135752438D01*
X106047619Y-135752438D02*
X106095238Y-135800057D01*
X106095238Y-135800057D02*
X106142857Y-135895295D01*
X106142857Y-135895295D02*
X106142857Y-135990533D01*
X106142857Y-135990533D02*
X106095238Y-136133390D01*
X106095238Y-136133390D02*
X105523810Y-136704819D01*
X105523810Y-136704819D02*
X106142857Y-136704819D01*
X104190476Y-116204819D02*
X104190476Y-116919104D01*
X104190476Y-116919104D02*
X104142857Y-117061961D01*
X104142857Y-117061961D02*
X104047619Y-117157200D01*
X104047619Y-117157200D02*
X103904762Y-117204819D01*
X103904762Y-117204819D02*
X103809524Y-117204819D01*
X104619048Y-116300057D02*
X104666667Y-116252438D01*
X104666667Y-116252438D02*
X104761905Y-116204819D01*
X104761905Y-116204819D02*
X105000000Y-116204819D01*
X105000000Y-116204819D02*
X105095238Y-116252438D01*
X105095238Y-116252438D02*
X105142857Y-116300057D01*
X105142857Y-116300057D02*
X105190476Y-116395295D01*
X105190476Y-116395295D02*
X105190476Y-116490533D01*
X105190476Y-116490533D02*
X105142857Y-116633390D01*
X105142857Y-116633390D02*
X104571429Y-117204819D01*
X104571429Y-117204819D02*
X105190476Y-117204819D01*
X106047619Y-116204819D02*
X105857143Y-116204819D01*
X105857143Y-116204819D02*
X105761905Y-116252438D01*
X105761905Y-116252438D02*
X105714286Y-116300057D01*
X105714286Y-116300057D02*
X105619048Y-116442914D01*
X105619048Y-116442914D02*
X105571429Y-116633390D01*
X105571429Y-116633390D02*
X105571429Y-117014342D01*
X105571429Y-117014342D02*
X105619048Y-117109580D01*
X105619048Y-117109580D02*
X105666667Y-117157200D01*
X105666667Y-117157200D02*
X105761905Y-117204819D01*
X105761905Y-117204819D02*
X105952381Y-117204819D01*
X105952381Y-117204819D02*
X106047619Y-117157200D01*
X106047619Y-117157200D02*
X106095238Y-117109580D01*
X106095238Y-117109580D02*
X106142857Y-117014342D01*
X106142857Y-117014342D02*
X106142857Y-116776247D01*
X106142857Y-116776247D02*
X106095238Y-116681009D01*
X106095238Y-116681009D02*
X106047619Y-116633390D01*
X106047619Y-116633390D02*
X105952381Y-116585771D01*
X105952381Y-116585771D02*
X105761905Y-116585771D01*
X105761905Y-116585771D02*
X105666667Y-116633390D01*
X105666667Y-116633390D02*
X105619048Y-116681009D01*
X105619048Y-116681009D02*
X105571429Y-116776247D01*
X80190476Y-116204819D02*
X80190476Y-116919104D01*
X80190476Y-116919104D02*
X80142857Y-117061961D01*
X80142857Y-117061961D02*
X80047619Y-117157200D01*
X80047619Y-117157200D02*
X79904762Y-117204819D01*
X79904762Y-117204819D02*
X79809524Y-117204819D01*
X81190476Y-117204819D02*
X80619048Y-117204819D01*
X80904762Y-117204819D02*
X80904762Y-116204819D01*
X80904762Y-116204819D02*
X80809524Y-116347676D01*
X80809524Y-116347676D02*
X80714286Y-116442914D01*
X80714286Y-116442914D02*
X80619048Y-116490533D01*
X81809524Y-116204819D02*
X81904762Y-116204819D01*
X81904762Y-116204819D02*
X82000000Y-116252438D01*
X82000000Y-116252438D02*
X82047619Y-116300057D01*
X82047619Y-116300057D02*
X82095238Y-116395295D01*
X82095238Y-116395295D02*
X82142857Y-116585771D01*
X82142857Y-116585771D02*
X82142857Y-116823866D01*
X82142857Y-116823866D02*
X82095238Y-117014342D01*
X82095238Y-117014342D02*
X82047619Y-117109580D01*
X82047619Y-117109580D02*
X82000000Y-117157200D01*
X82000000Y-117157200D02*
X81904762Y-117204819D01*
X81904762Y-117204819D02*
X81809524Y-117204819D01*
X81809524Y-117204819D02*
X81714286Y-117157200D01*
X81714286Y-117157200D02*
X81666667Y-117109580D01*
X81666667Y-117109580D02*
X81619048Y-117014342D01*
X81619048Y-117014342D02*
X81571429Y-116823866D01*
X81571429Y-116823866D02*
X81571429Y-116585771D01*
X81571429Y-116585771D02*
X81619048Y-116395295D01*
X81619048Y-116395295D02*
X81666667Y-116300057D01*
X81666667Y-116300057D02*
X81714286Y-116252438D01*
X81714286Y-116252438D02*
X81809524Y-116204819D01*
X128190476Y-116204819D02*
X128190476Y-116919104D01*
X128190476Y-116919104D02*
X128142857Y-117061961D01*
X128142857Y-117061961D02*
X128047619Y-117157200D01*
X128047619Y-117157200D02*
X127904762Y-117204819D01*
X127904762Y-117204819D02*
X127809524Y-117204819D01*
X129095238Y-116538152D02*
X129095238Y-117204819D01*
X128857143Y-116157200D02*
X128619048Y-116871485D01*
X128619048Y-116871485D02*
X129238095Y-116871485D01*
X129571429Y-116300057D02*
X129619048Y-116252438D01*
X129619048Y-116252438D02*
X129714286Y-116204819D01*
X129714286Y-116204819D02*
X129952381Y-116204819D01*
X129952381Y-116204819D02*
X130047619Y-116252438D01*
X130047619Y-116252438D02*
X130095238Y-116300057D01*
X130095238Y-116300057D02*
X130142857Y-116395295D01*
X130142857Y-116395295D02*
X130142857Y-116490533D01*
X130142857Y-116490533D02*
X130095238Y-116633390D01*
X130095238Y-116633390D02*
X129523810Y-117204819D01*
X129523810Y-117204819D02*
X130142857Y-117204819D01*
D11*
X87742857Y-102181927D02*
X87609524Y-101991451D01*
X87514286Y-102181927D02*
X87514286Y-101781927D01*
X87514286Y-101781927D02*
X87666667Y-101781927D01*
X87666667Y-101781927D02*
X87704762Y-101800975D01*
X87704762Y-101800975D02*
X87723809Y-101820022D01*
X87723809Y-101820022D02*
X87742857Y-101858118D01*
X87742857Y-101858118D02*
X87742857Y-101915260D01*
X87742857Y-101915260D02*
X87723809Y-101953356D01*
X87723809Y-101953356D02*
X87704762Y-101972403D01*
X87704762Y-101972403D02*
X87666667Y-101991451D01*
X87666667Y-101991451D02*
X87514286Y-101991451D01*
X87876190Y-101781927D02*
X88123809Y-101781927D01*
X88123809Y-101781927D02*
X87990476Y-101934308D01*
X87990476Y-101934308D02*
X88047619Y-101934308D01*
X88047619Y-101934308D02*
X88085714Y-101953356D01*
X88085714Y-101953356D02*
X88104762Y-101972403D01*
X88104762Y-101972403D02*
X88123809Y-102010499D01*
X88123809Y-102010499D02*
X88123809Y-102105737D01*
X88123809Y-102105737D02*
X88104762Y-102143832D01*
X88104762Y-102143832D02*
X88085714Y-102162880D01*
X88085714Y-102162880D02*
X88047619Y-102181927D01*
X88047619Y-102181927D02*
X87933333Y-102181927D01*
X87933333Y-102181927D02*
X87895238Y-102162880D01*
X87895238Y-102162880D02*
X87876190Y-102143832D01*
X88371428Y-101781927D02*
X88409523Y-101781927D01*
X88409523Y-101781927D02*
X88447619Y-101800975D01*
X88447619Y-101800975D02*
X88466666Y-101820022D01*
X88466666Y-101820022D02*
X88485714Y-101858118D01*
X88485714Y-101858118D02*
X88504761Y-101934308D01*
X88504761Y-101934308D02*
X88504761Y-102029546D01*
X88504761Y-102029546D02*
X88485714Y-102105737D01*
X88485714Y-102105737D02*
X88466666Y-102143832D01*
X88466666Y-102143832D02*
X88447619Y-102162880D01*
X88447619Y-102162880D02*
X88409523Y-102181927D01*
X88409523Y-102181927D02*
X88371428Y-102181927D01*
X88371428Y-102181927D02*
X88333333Y-102162880D01*
X88333333Y-102162880D02*
X88314285Y-102143832D01*
X88314285Y-102143832D02*
X88295238Y-102105737D01*
X88295238Y-102105737D02*
X88276190Y-102029546D01*
X88276190Y-102029546D02*
X88276190Y-101934308D01*
X88276190Y-101934308D02*
X88295238Y-101858118D01*
X88295238Y-101858118D02*
X88314285Y-101820022D01*
X88314285Y-101820022D02*
X88333333Y-101800975D01*
X88333333Y-101800975D02*
X88371428Y-101781927D01*
D10*
X138190476Y-142204819D02*
X138190476Y-142919104D01*
X138190476Y-142919104D02*
X138142857Y-143061961D01*
X138142857Y-143061961D02*
X138047619Y-143157200D01*
X138047619Y-143157200D02*
X137904762Y-143204819D01*
X137904762Y-143204819D02*
X137809524Y-143204819D01*
X139142857Y-142204819D02*
X138666667Y-142204819D01*
X138666667Y-142204819D02*
X138619048Y-142681009D01*
X138619048Y-142681009D02*
X138666667Y-142633390D01*
X138666667Y-142633390D02*
X138761905Y-142585771D01*
X138761905Y-142585771D02*
X139000000Y-142585771D01*
X139000000Y-142585771D02*
X139095238Y-142633390D01*
X139095238Y-142633390D02*
X139142857Y-142681009D01*
X139142857Y-142681009D02*
X139190476Y-142776247D01*
X139190476Y-142776247D02*
X139190476Y-143014342D01*
X139190476Y-143014342D02*
X139142857Y-143109580D01*
X139142857Y-143109580D02*
X139095238Y-143157200D01*
X139095238Y-143157200D02*
X139000000Y-143204819D01*
X139000000Y-143204819D02*
X138761905Y-143204819D01*
X138761905Y-143204819D02*
X138666667Y-143157200D01*
X138666667Y-143157200D02*
X138619048Y-143109580D01*
X140142857Y-143204819D02*
X139571429Y-143204819D01*
X139857143Y-143204819D02*
X139857143Y-142204819D01*
X139857143Y-142204819D02*
X139761905Y-142347676D01*
X139761905Y-142347676D02*
X139666667Y-142442914D01*
X139666667Y-142442914D02*
X139571429Y-142490533D01*
D13*
X119916666Y-92179530D02*
X119892857Y-92203340D01*
X119892857Y-92203340D02*
X119821428Y-92227149D01*
X119821428Y-92227149D02*
X119773809Y-92227149D01*
X119773809Y-92227149D02*
X119702381Y-92203340D01*
X119702381Y-92203340D02*
X119654762Y-92155720D01*
X119654762Y-92155720D02*
X119630952Y-92108101D01*
X119630952Y-92108101D02*
X119607143Y-92012863D01*
X119607143Y-92012863D02*
X119607143Y-91941435D01*
X119607143Y-91941435D02*
X119630952Y-91846197D01*
X119630952Y-91846197D02*
X119654762Y-91798578D01*
X119654762Y-91798578D02*
X119702381Y-91750959D01*
X119702381Y-91750959D02*
X119773809Y-91727149D01*
X119773809Y-91727149D02*
X119821428Y-91727149D01*
X119821428Y-91727149D02*
X119892857Y-91750959D01*
X119892857Y-91750959D02*
X119916666Y-91774768D01*
X120202381Y-91941435D02*
X120154762Y-91917625D01*
X120154762Y-91917625D02*
X120130952Y-91893816D01*
X120130952Y-91893816D02*
X120107143Y-91846197D01*
X120107143Y-91846197D02*
X120107143Y-91822387D01*
X120107143Y-91822387D02*
X120130952Y-91774768D01*
X120130952Y-91774768D02*
X120154762Y-91750959D01*
X120154762Y-91750959D02*
X120202381Y-91727149D01*
X120202381Y-91727149D02*
X120297619Y-91727149D01*
X120297619Y-91727149D02*
X120345238Y-91750959D01*
X120345238Y-91750959D02*
X120369047Y-91774768D01*
X120369047Y-91774768D02*
X120392857Y-91822387D01*
X120392857Y-91822387D02*
X120392857Y-91846197D01*
X120392857Y-91846197D02*
X120369047Y-91893816D01*
X120369047Y-91893816D02*
X120345238Y-91917625D01*
X120345238Y-91917625D02*
X120297619Y-91941435D01*
X120297619Y-91941435D02*
X120202381Y-91941435D01*
X120202381Y-91941435D02*
X120154762Y-91965244D01*
X120154762Y-91965244D02*
X120130952Y-91989054D01*
X120130952Y-91989054D02*
X120107143Y-92036673D01*
X120107143Y-92036673D02*
X120107143Y-92131911D01*
X120107143Y-92131911D02*
X120130952Y-92179530D01*
X120130952Y-92179530D02*
X120154762Y-92203340D01*
X120154762Y-92203340D02*
X120202381Y-92227149D01*
X120202381Y-92227149D02*
X120297619Y-92227149D01*
X120297619Y-92227149D02*
X120345238Y-92203340D01*
X120345238Y-92203340D02*
X120369047Y-92179530D01*
X120369047Y-92179530D02*
X120392857Y-92131911D01*
X120392857Y-92131911D02*
X120392857Y-92036673D01*
X120392857Y-92036673D02*
X120369047Y-91989054D01*
X120369047Y-91989054D02*
X120345238Y-91965244D01*
X120345238Y-91965244D02*
X120297619Y-91941435D01*
D10*
X138190476Y-161704819D02*
X138190476Y-162419104D01*
X138190476Y-162419104D02*
X138142857Y-162561961D01*
X138142857Y-162561961D02*
X138047619Y-162657200D01*
X138047619Y-162657200D02*
X137904762Y-162704819D01*
X137904762Y-162704819D02*
X137809524Y-162704819D01*
X139142857Y-161704819D02*
X138666667Y-161704819D01*
X138666667Y-161704819D02*
X138619048Y-162181009D01*
X138619048Y-162181009D02*
X138666667Y-162133390D01*
X138666667Y-162133390D02*
X138761905Y-162085771D01*
X138761905Y-162085771D02*
X139000000Y-162085771D01*
X139000000Y-162085771D02*
X139095238Y-162133390D01*
X139095238Y-162133390D02*
X139142857Y-162181009D01*
X139142857Y-162181009D02*
X139190476Y-162276247D01*
X139190476Y-162276247D02*
X139190476Y-162514342D01*
X139190476Y-162514342D02*
X139142857Y-162609580D01*
X139142857Y-162609580D02*
X139095238Y-162657200D01*
X139095238Y-162657200D02*
X139000000Y-162704819D01*
X139000000Y-162704819D02*
X138761905Y-162704819D01*
X138761905Y-162704819D02*
X138666667Y-162657200D01*
X138666667Y-162657200D02*
X138619048Y-162609580D01*
X139523810Y-161704819D02*
X140190476Y-161704819D01*
X140190476Y-161704819D02*
X139761905Y-162704819D01*
X114190476Y-135704819D02*
X114190476Y-136419104D01*
X114190476Y-136419104D02*
X114142857Y-136561961D01*
X114142857Y-136561961D02*
X114047619Y-136657200D01*
X114047619Y-136657200D02*
X113904762Y-136704819D01*
X113904762Y-136704819D02*
X113809524Y-136704819D01*
X114571429Y-135704819D02*
X115190476Y-135704819D01*
X115190476Y-135704819D02*
X114857143Y-136085771D01*
X114857143Y-136085771D02*
X115000000Y-136085771D01*
X115000000Y-136085771D02*
X115095238Y-136133390D01*
X115095238Y-136133390D02*
X115142857Y-136181009D01*
X115142857Y-136181009D02*
X115190476Y-136276247D01*
X115190476Y-136276247D02*
X115190476Y-136514342D01*
X115190476Y-136514342D02*
X115142857Y-136609580D01*
X115142857Y-136609580D02*
X115095238Y-136657200D01*
X115095238Y-136657200D02*
X115000000Y-136704819D01*
X115000000Y-136704819D02*
X114714286Y-136704819D01*
X114714286Y-136704819D02*
X114619048Y-136657200D01*
X114619048Y-136657200D02*
X114571429Y-136609580D01*
X115523810Y-135704819D02*
X116142857Y-135704819D01*
X116142857Y-135704819D02*
X115809524Y-136085771D01*
X115809524Y-136085771D02*
X115952381Y-136085771D01*
X115952381Y-136085771D02*
X116047619Y-136133390D01*
X116047619Y-136133390D02*
X116095238Y-136181009D01*
X116095238Y-136181009D02*
X116142857Y-136276247D01*
X116142857Y-136276247D02*
X116142857Y-136514342D01*
X116142857Y-136514342D02*
X116095238Y-136609580D01*
X116095238Y-136609580D02*
X116047619Y-136657200D01*
X116047619Y-136657200D02*
X115952381Y-136704819D01*
X115952381Y-136704819D02*
X115666667Y-136704819D01*
X115666667Y-136704819D02*
X115571429Y-136657200D01*
X115571429Y-136657200D02*
X115523810Y-136609580D01*
X128190476Y-142204819D02*
X128190476Y-142919104D01*
X128190476Y-142919104D02*
X128142857Y-143061961D01*
X128142857Y-143061961D02*
X128047619Y-143157200D01*
X128047619Y-143157200D02*
X127904762Y-143204819D01*
X127904762Y-143204819D02*
X127809524Y-143204819D01*
X129142857Y-142204819D02*
X128666667Y-142204819D01*
X128666667Y-142204819D02*
X128619048Y-142681009D01*
X128619048Y-142681009D02*
X128666667Y-142633390D01*
X128666667Y-142633390D02*
X128761905Y-142585771D01*
X128761905Y-142585771D02*
X129000000Y-142585771D01*
X129000000Y-142585771D02*
X129095238Y-142633390D01*
X129095238Y-142633390D02*
X129142857Y-142681009D01*
X129142857Y-142681009D02*
X129190476Y-142776247D01*
X129190476Y-142776247D02*
X129190476Y-143014342D01*
X129190476Y-143014342D02*
X129142857Y-143109580D01*
X129142857Y-143109580D02*
X129095238Y-143157200D01*
X129095238Y-143157200D02*
X129000000Y-143204819D01*
X129000000Y-143204819D02*
X128761905Y-143204819D01*
X128761905Y-143204819D02*
X128666667Y-143157200D01*
X128666667Y-143157200D02*
X128619048Y-143109580D01*
X129809524Y-142204819D02*
X129904762Y-142204819D01*
X129904762Y-142204819D02*
X130000000Y-142252438D01*
X130000000Y-142252438D02*
X130047619Y-142300057D01*
X130047619Y-142300057D02*
X130095238Y-142395295D01*
X130095238Y-142395295D02*
X130142857Y-142585771D01*
X130142857Y-142585771D02*
X130142857Y-142823866D01*
X130142857Y-142823866D02*
X130095238Y-143014342D01*
X130095238Y-143014342D02*
X130047619Y-143109580D01*
X130047619Y-143109580D02*
X130000000Y-143157200D01*
X130000000Y-143157200D02*
X129904762Y-143204819D01*
X129904762Y-143204819D02*
X129809524Y-143204819D01*
X129809524Y-143204819D02*
X129714286Y-143157200D01*
X129714286Y-143157200D02*
X129666667Y-143109580D01*
X129666667Y-143109580D02*
X129619048Y-143014342D01*
X129619048Y-143014342D02*
X129571429Y-142823866D01*
X129571429Y-142823866D02*
X129571429Y-142585771D01*
X129571429Y-142585771D02*
X129619048Y-142395295D01*
X129619048Y-142395295D02*
X129666667Y-142300057D01*
X129666667Y-142300057D02*
X129714286Y-142252438D01*
X129714286Y-142252438D02*
X129809524Y-142204819D01*
X104190476Y-129204819D02*
X104190476Y-129919104D01*
X104190476Y-129919104D02*
X104142857Y-130061961D01*
X104142857Y-130061961D02*
X104047619Y-130157200D01*
X104047619Y-130157200D02*
X103904762Y-130204819D01*
X103904762Y-130204819D02*
X103809524Y-130204819D01*
X104571429Y-129204819D02*
X105190476Y-129204819D01*
X105190476Y-129204819D02*
X104857143Y-129585771D01*
X104857143Y-129585771D02*
X105000000Y-129585771D01*
X105000000Y-129585771D02*
X105095238Y-129633390D01*
X105095238Y-129633390D02*
X105142857Y-129681009D01*
X105142857Y-129681009D02*
X105190476Y-129776247D01*
X105190476Y-129776247D02*
X105190476Y-130014342D01*
X105190476Y-130014342D02*
X105142857Y-130109580D01*
X105142857Y-130109580D02*
X105095238Y-130157200D01*
X105095238Y-130157200D02*
X105000000Y-130204819D01*
X105000000Y-130204819D02*
X104714286Y-130204819D01*
X104714286Y-130204819D02*
X104619048Y-130157200D01*
X104619048Y-130157200D02*
X104571429Y-130109580D01*
X105809524Y-129204819D02*
X105904762Y-129204819D01*
X105904762Y-129204819D02*
X106000000Y-129252438D01*
X106000000Y-129252438D02*
X106047619Y-129300057D01*
X106047619Y-129300057D02*
X106095238Y-129395295D01*
X106095238Y-129395295D02*
X106142857Y-129585771D01*
X106142857Y-129585771D02*
X106142857Y-129823866D01*
X106142857Y-129823866D02*
X106095238Y-130014342D01*
X106095238Y-130014342D02*
X106047619Y-130109580D01*
X106047619Y-130109580D02*
X106000000Y-130157200D01*
X106000000Y-130157200D02*
X105904762Y-130204819D01*
X105904762Y-130204819D02*
X105809524Y-130204819D01*
X105809524Y-130204819D02*
X105714286Y-130157200D01*
X105714286Y-130157200D02*
X105666667Y-130109580D01*
X105666667Y-130109580D02*
X105619048Y-130014342D01*
X105619048Y-130014342D02*
X105571429Y-129823866D01*
X105571429Y-129823866D02*
X105571429Y-129585771D01*
X105571429Y-129585771D02*
X105619048Y-129395295D01*
X105619048Y-129395295D02*
X105666667Y-129300057D01*
X105666667Y-129300057D02*
X105714286Y-129252438D01*
X105714286Y-129252438D02*
X105809524Y-129204819D01*
D14*
X129607365Y-86548571D02*
X130190222Y-86548571D01*
X130190222Y-86548571D02*
X130258794Y-86514285D01*
X130258794Y-86514285D02*
X130293080Y-86480000D01*
X130293080Y-86480000D02*
X130327365Y-86411428D01*
X130327365Y-86411428D02*
X130327365Y-86274285D01*
X130327365Y-86274285D02*
X130293080Y-86205714D01*
X130293080Y-86205714D02*
X130258794Y-86171428D01*
X130258794Y-86171428D02*
X130190222Y-86137142D01*
X130190222Y-86137142D02*
X129607365Y-86137142D01*
X129607365Y-85862856D02*
X129607365Y-85382856D01*
X129607365Y-85382856D02*
X130327365Y-85691428D01*
D10*
X104190476Y-155204819D02*
X104190476Y-155919104D01*
X104190476Y-155919104D02*
X104142857Y-156061961D01*
X104142857Y-156061961D02*
X104047619Y-156157200D01*
X104047619Y-156157200D02*
X103904762Y-156204819D01*
X103904762Y-156204819D02*
X103809524Y-156204819D01*
X104571429Y-155204819D02*
X105190476Y-155204819D01*
X105190476Y-155204819D02*
X104857143Y-155585771D01*
X104857143Y-155585771D02*
X105000000Y-155585771D01*
X105000000Y-155585771D02*
X105095238Y-155633390D01*
X105095238Y-155633390D02*
X105142857Y-155681009D01*
X105142857Y-155681009D02*
X105190476Y-155776247D01*
X105190476Y-155776247D02*
X105190476Y-156014342D01*
X105190476Y-156014342D02*
X105142857Y-156109580D01*
X105142857Y-156109580D02*
X105095238Y-156157200D01*
X105095238Y-156157200D02*
X105000000Y-156204819D01*
X105000000Y-156204819D02*
X104714286Y-156204819D01*
X104714286Y-156204819D02*
X104619048Y-156157200D01*
X104619048Y-156157200D02*
X104571429Y-156109580D01*
X105761905Y-155633390D02*
X105666667Y-155585771D01*
X105666667Y-155585771D02*
X105619048Y-155538152D01*
X105619048Y-155538152D02*
X105571429Y-155442914D01*
X105571429Y-155442914D02*
X105571429Y-155395295D01*
X105571429Y-155395295D02*
X105619048Y-155300057D01*
X105619048Y-155300057D02*
X105666667Y-155252438D01*
X105666667Y-155252438D02*
X105761905Y-155204819D01*
X105761905Y-155204819D02*
X105952381Y-155204819D01*
X105952381Y-155204819D02*
X106047619Y-155252438D01*
X106047619Y-155252438D02*
X106095238Y-155300057D01*
X106095238Y-155300057D02*
X106142857Y-155395295D01*
X106142857Y-155395295D02*
X106142857Y-155442914D01*
X106142857Y-155442914D02*
X106095238Y-155538152D01*
X106095238Y-155538152D02*
X106047619Y-155585771D01*
X106047619Y-155585771D02*
X105952381Y-155633390D01*
X105952381Y-155633390D02*
X105761905Y-155633390D01*
X105761905Y-155633390D02*
X105666667Y-155681009D01*
X105666667Y-155681009D02*
X105619048Y-155728628D01*
X105619048Y-155728628D02*
X105571429Y-155823866D01*
X105571429Y-155823866D02*
X105571429Y-156014342D01*
X105571429Y-156014342D02*
X105619048Y-156109580D01*
X105619048Y-156109580D02*
X105666667Y-156157200D01*
X105666667Y-156157200D02*
X105761905Y-156204819D01*
X105761905Y-156204819D02*
X105952381Y-156204819D01*
X105952381Y-156204819D02*
X106047619Y-156157200D01*
X106047619Y-156157200D02*
X106095238Y-156109580D01*
X106095238Y-156109580D02*
X106142857Y-156014342D01*
X106142857Y-156014342D02*
X106142857Y-155823866D01*
X106142857Y-155823866D02*
X106095238Y-155728628D01*
X106095238Y-155728628D02*
X106047619Y-155681009D01*
X106047619Y-155681009D02*
X105952381Y-155633390D01*
X151238095Y-166454819D02*
X151238095Y-165454819D01*
X151238095Y-165931009D02*
X151809523Y-165931009D01*
X151809523Y-166454819D02*
X151809523Y-165454819D01*
X152714285Y-165788152D02*
X152714285Y-166454819D01*
X152476190Y-165407200D02*
X152238095Y-166121485D01*
X152238095Y-166121485D02*
X152857142Y-166121485D01*
D11*
X95742857Y-85181927D02*
X95609524Y-84991451D01*
X95514286Y-85181927D02*
X95514286Y-84781927D01*
X95514286Y-84781927D02*
X95666667Y-84781927D01*
X95666667Y-84781927D02*
X95704762Y-84800975D01*
X95704762Y-84800975D02*
X95723809Y-84820022D01*
X95723809Y-84820022D02*
X95742857Y-84858118D01*
X95742857Y-84858118D02*
X95742857Y-84915260D01*
X95742857Y-84915260D02*
X95723809Y-84953356D01*
X95723809Y-84953356D02*
X95704762Y-84972403D01*
X95704762Y-84972403D02*
X95666667Y-84991451D01*
X95666667Y-84991451D02*
X95514286Y-84991451D01*
X96123809Y-85181927D02*
X95895238Y-85181927D01*
X96009524Y-85181927D02*
X96009524Y-84781927D01*
X96009524Y-84781927D02*
X95971428Y-84839070D01*
X95971428Y-84839070D02*
X95933333Y-84877165D01*
X95933333Y-84877165D02*
X95895238Y-84896213D01*
X96257142Y-84781927D02*
X96504761Y-84781927D01*
X96504761Y-84781927D02*
X96371428Y-84934308D01*
X96371428Y-84934308D02*
X96428571Y-84934308D01*
X96428571Y-84934308D02*
X96466666Y-84953356D01*
X96466666Y-84953356D02*
X96485714Y-84972403D01*
X96485714Y-84972403D02*
X96504761Y-85010499D01*
X96504761Y-85010499D02*
X96504761Y-85105737D01*
X96504761Y-85105737D02*
X96485714Y-85143832D01*
X96485714Y-85143832D02*
X96466666Y-85162880D01*
X96466666Y-85162880D02*
X96428571Y-85181927D01*
X96428571Y-85181927D02*
X96314285Y-85181927D01*
X96314285Y-85181927D02*
X96276190Y-85162880D01*
X96276190Y-85162880D02*
X96257142Y-85143832D01*
D10*
X114190476Y-161704819D02*
X114190476Y-162419104D01*
X114190476Y-162419104D02*
X114142857Y-162561961D01*
X114142857Y-162561961D02*
X114047619Y-162657200D01*
X114047619Y-162657200D02*
X113904762Y-162704819D01*
X113904762Y-162704819D02*
X113809524Y-162704819D01*
X115095238Y-162038152D02*
X115095238Y-162704819D01*
X114857143Y-161657200D02*
X114619048Y-162371485D01*
X114619048Y-162371485D02*
X115238095Y-162371485D01*
X116142857Y-162704819D02*
X115571429Y-162704819D01*
X115857143Y-162704819D02*
X115857143Y-161704819D01*
X115857143Y-161704819D02*
X115761905Y-161847676D01*
X115761905Y-161847676D02*
X115666667Y-161942914D01*
X115666667Y-161942914D02*
X115571429Y-161990533D01*
X77238095Y-166454819D02*
X77238095Y-165454819D01*
X77238095Y-165931009D02*
X77809523Y-165931009D01*
X77809523Y-166454819D02*
X77809523Y-165454819D01*
X78190476Y-165454819D02*
X78809523Y-165454819D01*
X78809523Y-165454819D02*
X78476190Y-165835771D01*
X78476190Y-165835771D02*
X78619047Y-165835771D01*
X78619047Y-165835771D02*
X78714285Y-165883390D01*
X78714285Y-165883390D02*
X78761904Y-165931009D01*
X78761904Y-165931009D02*
X78809523Y-166026247D01*
X78809523Y-166026247D02*
X78809523Y-166264342D01*
X78809523Y-166264342D02*
X78761904Y-166359580D01*
X78761904Y-166359580D02*
X78714285Y-166407200D01*
X78714285Y-166407200D02*
X78619047Y-166454819D01*
X78619047Y-166454819D02*
X78333333Y-166454819D01*
X78333333Y-166454819D02*
X78238095Y-166407200D01*
X78238095Y-166407200D02*
X78190476Y-166359580D01*
X128190476Y-161704819D02*
X128190476Y-162419104D01*
X128190476Y-162419104D02*
X128142857Y-162561961D01*
X128142857Y-162561961D02*
X128047619Y-162657200D01*
X128047619Y-162657200D02*
X127904762Y-162704819D01*
X127904762Y-162704819D02*
X127809524Y-162704819D01*
X129142857Y-161704819D02*
X128666667Y-161704819D01*
X128666667Y-161704819D02*
X128619048Y-162181009D01*
X128619048Y-162181009D02*
X128666667Y-162133390D01*
X128666667Y-162133390D02*
X128761905Y-162085771D01*
X128761905Y-162085771D02*
X129000000Y-162085771D01*
X129000000Y-162085771D02*
X129095238Y-162133390D01*
X129095238Y-162133390D02*
X129142857Y-162181009D01*
X129142857Y-162181009D02*
X129190476Y-162276247D01*
X129190476Y-162276247D02*
X129190476Y-162514342D01*
X129190476Y-162514342D02*
X129142857Y-162609580D01*
X129142857Y-162609580D02*
X129095238Y-162657200D01*
X129095238Y-162657200D02*
X129000000Y-162704819D01*
X129000000Y-162704819D02*
X128761905Y-162704819D01*
X128761905Y-162704819D02*
X128666667Y-162657200D01*
X128666667Y-162657200D02*
X128619048Y-162609580D01*
X130047619Y-161704819D02*
X129857143Y-161704819D01*
X129857143Y-161704819D02*
X129761905Y-161752438D01*
X129761905Y-161752438D02*
X129714286Y-161800057D01*
X129714286Y-161800057D02*
X129619048Y-161942914D01*
X129619048Y-161942914D02*
X129571429Y-162133390D01*
X129571429Y-162133390D02*
X129571429Y-162514342D01*
X129571429Y-162514342D02*
X129619048Y-162609580D01*
X129619048Y-162609580D02*
X129666667Y-162657200D01*
X129666667Y-162657200D02*
X129761905Y-162704819D01*
X129761905Y-162704819D02*
X129952381Y-162704819D01*
X129952381Y-162704819D02*
X130047619Y-162657200D01*
X130047619Y-162657200D02*
X130095238Y-162609580D01*
X130095238Y-162609580D02*
X130142857Y-162514342D01*
X130142857Y-162514342D02*
X130142857Y-162276247D01*
X130142857Y-162276247D02*
X130095238Y-162181009D01*
X130095238Y-162181009D02*
X130047619Y-162133390D01*
X130047619Y-162133390D02*
X129952381Y-162085771D01*
X129952381Y-162085771D02*
X129761905Y-162085771D01*
X129761905Y-162085771D02*
X129666667Y-162133390D01*
X129666667Y-162133390D02*
X129619048Y-162181009D01*
X129619048Y-162181009D02*
X129571429Y-162276247D01*
X90190476Y-116204819D02*
X90190476Y-116919104D01*
X90190476Y-116919104D02*
X90142857Y-117061961D01*
X90142857Y-117061961D02*
X90047619Y-117157200D01*
X90047619Y-117157200D02*
X89904762Y-117204819D01*
X89904762Y-117204819D02*
X89809524Y-117204819D01*
X91190476Y-117204819D02*
X90619048Y-117204819D01*
X90904762Y-117204819D02*
X90904762Y-116204819D01*
X90904762Y-116204819D02*
X90809524Y-116347676D01*
X90809524Y-116347676D02*
X90714286Y-116442914D01*
X90714286Y-116442914D02*
X90619048Y-116490533D01*
X92142857Y-117204819D02*
X91571429Y-117204819D01*
X91857143Y-117204819D02*
X91857143Y-116204819D01*
X91857143Y-116204819D02*
X91761905Y-116347676D01*
X91761905Y-116347676D02*
X91666667Y-116442914D01*
X91666667Y-116442914D02*
X91571429Y-116490533D01*
X150738095Y-88004819D02*
X151309523Y-88004819D01*
X151023809Y-89004819D02*
X151023809Y-88004819D01*
X151642857Y-89004819D02*
X151642857Y-88004819D01*
X151642857Y-88004819D02*
X152023809Y-88004819D01*
X152023809Y-88004819D02*
X152119047Y-88052438D01*
X152119047Y-88052438D02*
X152166666Y-88100057D01*
X152166666Y-88100057D02*
X152214285Y-88195295D01*
X152214285Y-88195295D02*
X152214285Y-88338152D01*
X152214285Y-88338152D02*
X152166666Y-88433390D01*
X152166666Y-88433390D02*
X152119047Y-88481009D01*
X152119047Y-88481009D02*
X152023809Y-88528628D01*
X152023809Y-88528628D02*
X151642857Y-88528628D01*
X152595238Y-88100057D02*
X152642857Y-88052438D01*
X152642857Y-88052438D02*
X152738095Y-88004819D01*
X152738095Y-88004819D02*
X152976190Y-88004819D01*
X152976190Y-88004819D02*
X153071428Y-88052438D01*
X153071428Y-88052438D02*
X153119047Y-88100057D01*
X153119047Y-88100057D02*
X153166666Y-88195295D01*
X153166666Y-88195295D02*
X153166666Y-88290533D01*
X153166666Y-88290533D02*
X153119047Y-88433390D01*
X153119047Y-88433390D02*
X152547619Y-89004819D01*
X152547619Y-89004819D02*
X153166666Y-89004819D01*
D11*
X99742857Y-82181927D02*
X99609524Y-81991451D01*
X99514286Y-82181927D02*
X99514286Y-81781927D01*
X99514286Y-81781927D02*
X99666667Y-81781927D01*
X99666667Y-81781927D02*
X99704762Y-81800975D01*
X99704762Y-81800975D02*
X99723809Y-81820022D01*
X99723809Y-81820022D02*
X99742857Y-81858118D01*
X99742857Y-81858118D02*
X99742857Y-81915260D01*
X99742857Y-81915260D02*
X99723809Y-81953356D01*
X99723809Y-81953356D02*
X99704762Y-81972403D01*
X99704762Y-81972403D02*
X99666667Y-81991451D01*
X99666667Y-81991451D02*
X99514286Y-81991451D01*
X100123809Y-82181927D02*
X99895238Y-82181927D01*
X100009524Y-82181927D02*
X100009524Y-81781927D01*
X100009524Y-81781927D02*
X99971428Y-81839070D01*
X99971428Y-81839070D02*
X99933333Y-81877165D01*
X99933333Y-81877165D02*
X99895238Y-81896213D01*
X100504761Y-82181927D02*
X100276190Y-82181927D01*
X100390476Y-82181927D02*
X100390476Y-81781927D01*
X100390476Y-81781927D02*
X100352380Y-81839070D01*
X100352380Y-81839070D02*
X100314285Y-81877165D01*
X100314285Y-81877165D02*
X100276190Y-81896213D01*
X91742857Y-102181927D02*
X91609524Y-101991451D01*
X91514286Y-102181927D02*
X91514286Y-101781927D01*
X91514286Y-101781927D02*
X91666667Y-101781927D01*
X91666667Y-101781927D02*
X91704762Y-101800975D01*
X91704762Y-101800975D02*
X91723809Y-101820022D01*
X91723809Y-101820022D02*
X91742857Y-101858118D01*
X91742857Y-101858118D02*
X91742857Y-101915260D01*
X91742857Y-101915260D02*
X91723809Y-101953356D01*
X91723809Y-101953356D02*
X91704762Y-101972403D01*
X91704762Y-101972403D02*
X91666667Y-101991451D01*
X91666667Y-101991451D02*
X91514286Y-101991451D01*
X91876190Y-101781927D02*
X92123809Y-101781927D01*
X92123809Y-101781927D02*
X91990476Y-101934308D01*
X91990476Y-101934308D02*
X92047619Y-101934308D01*
X92047619Y-101934308D02*
X92085714Y-101953356D01*
X92085714Y-101953356D02*
X92104762Y-101972403D01*
X92104762Y-101972403D02*
X92123809Y-102010499D01*
X92123809Y-102010499D02*
X92123809Y-102105737D01*
X92123809Y-102105737D02*
X92104762Y-102143832D01*
X92104762Y-102143832D02*
X92085714Y-102162880D01*
X92085714Y-102162880D02*
X92047619Y-102181927D01*
X92047619Y-102181927D02*
X91933333Y-102181927D01*
X91933333Y-102181927D02*
X91895238Y-102162880D01*
X91895238Y-102162880D02*
X91876190Y-102143832D01*
X92504761Y-102181927D02*
X92276190Y-102181927D01*
X92390476Y-102181927D02*
X92390476Y-101781927D01*
X92390476Y-101781927D02*
X92352380Y-101839070D01*
X92352380Y-101839070D02*
X92314285Y-101877165D01*
X92314285Y-101877165D02*
X92276190Y-101896213D01*
D10*
X114190476Y-116204819D02*
X114190476Y-116919104D01*
X114190476Y-116919104D02*
X114142857Y-117061961D01*
X114142857Y-117061961D02*
X114047619Y-117157200D01*
X114047619Y-117157200D02*
X113904762Y-117204819D01*
X113904762Y-117204819D02*
X113809524Y-117204819D01*
X114619048Y-116300057D02*
X114666667Y-116252438D01*
X114666667Y-116252438D02*
X114761905Y-116204819D01*
X114761905Y-116204819D02*
X115000000Y-116204819D01*
X115000000Y-116204819D02*
X115095238Y-116252438D01*
X115095238Y-116252438D02*
X115142857Y-116300057D01*
X115142857Y-116300057D02*
X115190476Y-116395295D01*
X115190476Y-116395295D02*
X115190476Y-116490533D01*
X115190476Y-116490533D02*
X115142857Y-116633390D01*
X115142857Y-116633390D02*
X114571429Y-117204819D01*
X114571429Y-117204819D02*
X115190476Y-117204819D01*
X115523810Y-116204819D02*
X116190476Y-116204819D01*
X116190476Y-116204819D02*
X115761905Y-117204819D01*
D11*
X83933333Y-90181927D02*
X83800000Y-89991451D01*
X83704762Y-90181927D02*
X83704762Y-89781927D01*
X83704762Y-89781927D02*
X83857143Y-89781927D01*
X83857143Y-89781927D02*
X83895238Y-89800975D01*
X83895238Y-89800975D02*
X83914285Y-89820022D01*
X83914285Y-89820022D02*
X83933333Y-89858118D01*
X83933333Y-89858118D02*
X83933333Y-89915260D01*
X83933333Y-89915260D02*
X83914285Y-89953356D01*
X83914285Y-89953356D02*
X83895238Y-89972403D01*
X83895238Y-89972403D02*
X83857143Y-89991451D01*
X83857143Y-89991451D02*
X83704762Y-89991451D01*
X84085714Y-89820022D02*
X84104762Y-89800975D01*
X84104762Y-89800975D02*
X84142857Y-89781927D01*
X84142857Y-89781927D02*
X84238095Y-89781927D01*
X84238095Y-89781927D02*
X84276190Y-89800975D01*
X84276190Y-89800975D02*
X84295238Y-89820022D01*
X84295238Y-89820022D02*
X84314285Y-89858118D01*
X84314285Y-89858118D02*
X84314285Y-89896213D01*
X84314285Y-89896213D02*
X84295238Y-89953356D01*
X84295238Y-89953356D02*
X84066666Y-90181927D01*
X84066666Y-90181927D02*
X84314285Y-90181927D01*
D10*
X91834819Y-88333333D02*
X92549104Y-88333333D01*
X92549104Y-88333333D02*
X92691961Y-88380952D01*
X92691961Y-88380952D02*
X92787200Y-88476190D01*
X92787200Y-88476190D02*
X92834819Y-88619047D01*
X92834819Y-88619047D02*
X92834819Y-88714285D01*
X92834819Y-87333333D02*
X92834819Y-87904761D01*
X92834819Y-87619047D02*
X91834819Y-87619047D01*
X91834819Y-87619047D02*
X91977676Y-87714285D01*
X91977676Y-87714285D02*
X92072914Y-87809523D01*
X92072914Y-87809523D02*
X92120533Y-87904761D01*
D11*
X79933333Y-90181927D02*
X79800000Y-89991451D01*
X79704762Y-90181927D02*
X79704762Y-89781927D01*
X79704762Y-89781927D02*
X79857143Y-89781927D01*
X79857143Y-89781927D02*
X79895238Y-89800975D01*
X79895238Y-89800975D02*
X79914285Y-89820022D01*
X79914285Y-89820022D02*
X79933333Y-89858118D01*
X79933333Y-89858118D02*
X79933333Y-89915260D01*
X79933333Y-89915260D02*
X79914285Y-89953356D01*
X79914285Y-89953356D02*
X79895238Y-89972403D01*
X79895238Y-89972403D02*
X79857143Y-89991451D01*
X79857143Y-89991451D02*
X79704762Y-89991451D01*
X80314285Y-90181927D02*
X80085714Y-90181927D01*
X80200000Y-90181927D02*
X80200000Y-89781927D01*
X80200000Y-89781927D02*
X80161904Y-89839070D01*
X80161904Y-89839070D02*
X80123809Y-89877165D01*
X80123809Y-89877165D02*
X80085714Y-89896213D01*
D10*
X80190476Y-148704819D02*
X80190476Y-149419104D01*
X80190476Y-149419104D02*
X80142857Y-149561961D01*
X80142857Y-149561961D02*
X80047619Y-149657200D01*
X80047619Y-149657200D02*
X79904762Y-149704819D01*
X79904762Y-149704819D02*
X79809524Y-149704819D01*
X80619048Y-148800057D02*
X80666667Y-148752438D01*
X80666667Y-148752438D02*
X80761905Y-148704819D01*
X80761905Y-148704819D02*
X81000000Y-148704819D01*
X81000000Y-148704819D02*
X81095238Y-148752438D01*
X81095238Y-148752438D02*
X81142857Y-148800057D01*
X81142857Y-148800057D02*
X81190476Y-148895295D01*
X81190476Y-148895295D02*
X81190476Y-148990533D01*
X81190476Y-148990533D02*
X81142857Y-149133390D01*
X81142857Y-149133390D02*
X80571429Y-149704819D01*
X80571429Y-149704819D02*
X81190476Y-149704819D01*
X81809524Y-148704819D02*
X81904762Y-148704819D01*
X81904762Y-148704819D02*
X82000000Y-148752438D01*
X82000000Y-148752438D02*
X82047619Y-148800057D01*
X82047619Y-148800057D02*
X82095238Y-148895295D01*
X82095238Y-148895295D02*
X82142857Y-149085771D01*
X82142857Y-149085771D02*
X82142857Y-149323866D01*
X82142857Y-149323866D02*
X82095238Y-149514342D01*
X82095238Y-149514342D02*
X82047619Y-149609580D01*
X82047619Y-149609580D02*
X82000000Y-149657200D01*
X82000000Y-149657200D02*
X81904762Y-149704819D01*
X81904762Y-149704819D02*
X81809524Y-149704819D01*
X81809524Y-149704819D02*
X81714286Y-149657200D01*
X81714286Y-149657200D02*
X81666667Y-149609580D01*
X81666667Y-149609580D02*
X81619048Y-149514342D01*
X81619048Y-149514342D02*
X81571429Y-149323866D01*
X81571429Y-149323866D02*
X81571429Y-149085771D01*
X81571429Y-149085771D02*
X81619048Y-148895295D01*
X81619048Y-148895295D02*
X81666667Y-148800057D01*
X81666667Y-148800057D02*
X81714286Y-148752438D01*
X81714286Y-148752438D02*
X81809524Y-148704819D01*
X90190476Y-155204819D02*
X90190476Y-155919104D01*
X90190476Y-155919104D02*
X90142857Y-156061961D01*
X90142857Y-156061961D02*
X90047619Y-156157200D01*
X90047619Y-156157200D02*
X89904762Y-156204819D01*
X89904762Y-156204819D02*
X89809524Y-156204819D01*
X90619048Y-155300057D02*
X90666667Y-155252438D01*
X90666667Y-155252438D02*
X90761905Y-155204819D01*
X90761905Y-155204819D02*
X91000000Y-155204819D01*
X91000000Y-155204819D02*
X91095238Y-155252438D01*
X91095238Y-155252438D02*
X91142857Y-155300057D01*
X91142857Y-155300057D02*
X91190476Y-155395295D01*
X91190476Y-155395295D02*
X91190476Y-155490533D01*
X91190476Y-155490533D02*
X91142857Y-155633390D01*
X91142857Y-155633390D02*
X90571429Y-156204819D01*
X90571429Y-156204819D02*
X91190476Y-156204819D01*
X91523810Y-155204819D02*
X92142857Y-155204819D01*
X92142857Y-155204819D02*
X91809524Y-155585771D01*
X91809524Y-155585771D02*
X91952381Y-155585771D01*
X91952381Y-155585771D02*
X92047619Y-155633390D01*
X92047619Y-155633390D02*
X92095238Y-155681009D01*
X92095238Y-155681009D02*
X92142857Y-155776247D01*
X92142857Y-155776247D02*
X92142857Y-156014342D01*
X92142857Y-156014342D02*
X92095238Y-156109580D01*
X92095238Y-156109580D02*
X92047619Y-156157200D01*
X92047619Y-156157200D02*
X91952381Y-156204819D01*
X91952381Y-156204819D02*
X91666667Y-156204819D01*
X91666667Y-156204819D02*
X91571429Y-156157200D01*
X91571429Y-156157200D02*
X91523810Y-156109580D01*
X90190476Y-148704819D02*
X90190476Y-149419104D01*
X90190476Y-149419104D02*
X90142857Y-149561961D01*
X90142857Y-149561961D02*
X90047619Y-149657200D01*
X90047619Y-149657200D02*
X89904762Y-149704819D01*
X89904762Y-149704819D02*
X89809524Y-149704819D01*
X90619048Y-148800057D02*
X90666667Y-148752438D01*
X90666667Y-148752438D02*
X90761905Y-148704819D01*
X90761905Y-148704819D02*
X91000000Y-148704819D01*
X91000000Y-148704819D02*
X91095238Y-148752438D01*
X91095238Y-148752438D02*
X91142857Y-148800057D01*
X91142857Y-148800057D02*
X91190476Y-148895295D01*
X91190476Y-148895295D02*
X91190476Y-148990533D01*
X91190476Y-148990533D02*
X91142857Y-149133390D01*
X91142857Y-149133390D02*
X90571429Y-149704819D01*
X90571429Y-149704819D02*
X91190476Y-149704819D01*
X92142857Y-149704819D02*
X91571429Y-149704819D01*
X91857143Y-149704819D02*
X91857143Y-148704819D01*
X91857143Y-148704819D02*
X91761905Y-148847676D01*
X91761905Y-148847676D02*
X91666667Y-148942914D01*
X91666667Y-148942914D02*
X91571429Y-148990533D01*
X142666666Y-78954819D02*
X142666666Y-79669104D01*
X142666666Y-79669104D02*
X142619047Y-79811961D01*
X142619047Y-79811961D02*
X142523809Y-79907200D01*
X142523809Y-79907200D02*
X142380952Y-79954819D01*
X142380952Y-79954819D02*
X142285714Y-79954819D01*
X143047619Y-78954819D02*
X143666666Y-78954819D01*
X143666666Y-78954819D02*
X143333333Y-79335771D01*
X143333333Y-79335771D02*
X143476190Y-79335771D01*
X143476190Y-79335771D02*
X143571428Y-79383390D01*
X143571428Y-79383390D02*
X143619047Y-79431009D01*
X143619047Y-79431009D02*
X143666666Y-79526247D01*
X143666666Y-79526247D02*
X143666666Y-79764342D01*
X143666666Y-79764342D02*
X143619047Y-79859580D01*
X143619047Y-79859580D02*
X143571428Y-79907200D01*
X143571428Y-79907200D02*
X143476190Y-79954819D01*
X143476190Y-79954819D02*
X143190476Y-79954819D01*
X143190476Y-79954819D02*
X143095238Y-79907200D01*
X143095238Y-79907200D02*
X143047619Y-79859580D01*
X109238095Y-108454819D02*
X109238095Y-109264342D01*
X109238095Y-109264342D02*
X109285714Y-109359580D01*
X109285714Y-109359580D02*
X109333333Y-109407200D01*
X109333333Y-109407200D02*
X109428571Y-109454819D01*
X109428571Y-109454819D02*
X109619047Y-109454819D01*
X109619047Y-109454819D02*
X109714285Y-109407200D01*
X109714285Y-109407200D02*
X109761904Y-109359580D01*
X109761904Y-109359580D02*
X109809523Y-109264342D01*
X109809523Y-109264342D02*
X109809523Y-108454819D01*
X110714285Y-108788152D02*
X110714285Y-109454819D01*
X110476190Y-108407200D02*
X110238095Y-109121485D01*
X110238095Y-109121485D02*
X110857142Y-109121485D01*
D11*
X149933333Y-97143832D02*
X149914285Y-97162880D01*
X149914285Y-97162880D02*
X149857143Y-97181927D01*
X149857143Y-97181927D02*
X149819047Y-97181927D01*
X149819047Y-97181927D02*
X149761904Y-97162880D01*
X149761904Y-97162880D02*
X149723809Y-97124784D01*
X149723809Y-97124784D02*
X149704762Y-97086689D01*
X149704762Y-97086689D02*
X149685714Y-97010499D01*
X149685714Y-97010499D02*
X149685714Y-96953356D01*
X149685714Y-96953356D02*
X149704762Y-96877165D01*
X149704762Y-96877165D02*
X149723809Y-96839070D01*
X149723809Y-96839070D02*
X149761904Y-96800975D01*
X149761904Y-96800975D02*
X149819047Y-96781927D01*
X149819047Y-96781927D02*
X149857143Y-96781927D01*
X149857143Y-96781927D02*
X149914285Y-96800975D01*
X149914285Y-96800975D02*
X149933333Y-96820022D01*
X150085714Y-96820022D02*
X150104762Y-96800975D01*
X150104762Y-96800975D02*
X150142857Y-96781927D01*
X150142857Y-96781927D02*
X150238095Y-96781927D01*
X150238095Y-96781927D02*
X150276190Y-96800975D01*
X150276190Y-96800975D02*
X150295238Y-96820022D01*
X150295238Y-96820022D02*
X150314285Y-96858118D01*
X150314285Y-96858118D02*
X150314285Y-96896213D01*
X150314285Y-96896213D02*
X150295238Y-96953356D01*
X150295238Y-96953356D02*
X150066666Y-97181927D01*
X150066666Y-97181927D02*
X150314285Y-97181927D01*
D10*
X90190476Y-142204819D02*
X90190476Y-142919104D01*
X90190476Y-142919104D02*
X90142857Y-143061961D01*
X90142857Y-143061961D02*
X90047619Y-143157200D01*
X90047619Y-143157200D02*
X89904762Y-143204819D01*
X89904762Y-143204819D02*
X89809524Y-143204819D01*
X91190476Y-143204819D02*
X90619048Y-143204819D01*
X90904762Y-143204819D02*
X90904762Y-142204819D01*
X90904762Y-142204819D02*
X90809524Y-142347676D01*
X90809524Y-142347676D02*
X90714286Y-142442914D01*
X90714286Y-142442914D02*
X90619048Y-142490533D01*
X91666667Y-143204819D02*
X91857143Y-143204819D01*
X91857143Y-143204819D02*
X91952381Y-143157200D01*
X91952381Y-143157200D02*
X92000000Y-143109580D01*
X92000000Y-143109580D02*
X92095238Y-142966723D01*
X92095238Y-142966723D02*
X92142857Y-142776247D01*
X92142857Y-142776247D02*
X92142857Y-142395295D01*
X92142857Y-142395295D02*
X92095238Y-142300057D01*
X92095238Y-142300057D02*
X92047619Y-142252438D01*
X92047619Y-142252438D02*
X91952381Y-142204819D01*
X91952381Y-142204819D02*
X91761905Y-142204819D01*
X91761905Y-142204819D02*
X91666667Y-142252438D01*
X91666667Y-142252438D02*
X91619048Y-142300057D01*
X91619048Y-142300057D02*
X91571429Y-142395295D01*
X91571429Y-142395295D02*
X91571429Y-142633390D01*
X91571429Y-142633390D02*
X91619048Y-142728628D01*
X91619048Y-142728628D02*
X91666667Y-142776247D01*
X91666667Y-142776247D02*
X91761905Y-142823866D01*
X91761905Y-142823866D02*
X91952381Y-142823866D01*
X91952381Y-142823866D02*
X92047619Y-142776247D01*
X92047619Y-142776247D02*
X92095238Y-142728628D01*
X92095238Y-142728628D02*
X92142857Y-142633390D01*
X104190476Y-148704819D02*
X104190476Y-149419104D01*
X104190476Y-149419104D02*
X104142857Y-149561961D01*
X104142857Y-149561961D02*
X104047619Y-149657200D01*
X104047619Y-149657200D02*
X103904762Y-149704819D01*
X103904762Y-149704819D02*
X103809524Y-149704819D01*
X104571429Y-148704819D02*
X105190476Y-148704819D01*
X105190476Y-148704819D02*
X104857143Y-149085771D01*
X104857143Y-149085771D02*
X105000000Y-149085771D01*
X105000000Y-149085771D02*
X105095238Y-149133390D01*
X105095238Y-149133390D02*
X105142857Y-149181009D01*
X105142857Y-149181009D02*
X105190476Y-149276247D01*
X105190476Y-149276247D02*
X105190476Y-149514342D01*
X105190476Y-149514342D02*
X105142857Y-149609580D01*
X105142857Y-149609580D02*
X105095238Y-149657200D01*
X105095238Y-149657200D02*
X105000000Y-149704819D01*
X105000000Y-149704819D02*
X104714286Y-149704819D01*
X104714286Y-149704819D02*
X104619048Y-149657200D01*
X104619048Y-149657200D02*
X104571429Y-149609580D01*
X106047619Y-148704819D02*
X105857143Y-148704819D01*
X105857143Y-148704819D02*
X105761905Y-148752438D01*
X105761905Y-148752438D02*
X105714286Y-148800057D01*
X105714286Y-148800057D02*
X105619048Y-148942914D01*
X105619048Y-148942914D02*
X105571429Y-149133390D01*
X105571429Y-149133390D02*
X105571429Y-149514342D01*
X105571429Y-149514342D02*
X105619048Y-149609580D01*
X105619048Y-149609580D02*
X105666667Y-149657200D01*
X105666667Y-149657200D02*
X105761905Y-149704819D01*
X105761905Y-149704819D02*
X105952381Y-149704819D01*
X105952381Y-149704819D02*
X106047619Y-149657200D01*
X106047619Y-149657200D02*
X106095238Y-149609580D01*
X106095238Y-149609580D02*
X106142857Y-149514342D01*
X106142857Y-149514342D02*
X106142857Y-149276247D01*
X106142857Y-149276247D02*
X106095238Y-149181009D01*
X106095238Y-149181009D02*
X106047619Y-149133390D01*
X106047619Y-149133390D02*
X105952381Y-149085771D01*
X105952381Y-149085771D02*
X105761905Y-149085771D01*
X105761905Y-149085771D02*
X105666667Y-149133390D01*
X105666667Y-149133390D02*
X105619048Y-149181009D01*
X105619048Y-149181009D02*
X105571429Y-149276247D01*
X128190476Y-129204819D02*
X128190476Y-129919104D01*
X128190476Y-129919104D02*
X128142857Y-130061961D01*
X128142857Y-130061961D02*
X128047619Y-130157200D01*
X128047619Y-130157200D02*
X127904762Y-130204819D01*
X127904762Y-130204819D02*
X127809524Y-130204819D01*
X129095238Y-129538152D02*
X129095238Y-130204819D01*
X128857143Y-129157200D02*
X128619048Y-129871485D01*
X128619048Y-129871485D02*
X129238095Y-129871485D01*
X130047619Y-129204819D02*
X129857143Y-129204819D01*
X129857143Y-129204819D02*
X129761905Y-129252438D01*
X129761905Y-129252438D02*
X129714286Y-129300057D01*
X129714286Y-129300057D02*
X129619048Y-129442914D01*
X129619048Y-129442914D02*
X129571429Y-129633390D01*
X129571429Y-129633390D02*
X129571429Y-130014342D01*
X129571429Y-130014342D02*
X129619048Y-130109580D01*
X129619048Y-130109580D02*
X129666667Y-130157200D01*
X129666667Y-130157200D02*
X129761905Y-130204819D01*
X129761905Y-130204819D02*
X129952381Y-130204819D01*
X129952381Y-130204819D02*
X130047619Y-130157200D01*
X130047619Y-130157200D02*
X130095238Y-130109580D01*
X130095238Y-130109580D02*
X130142857Y-130014342D01*
X130142857Y-130014342D02*
X130142857Y-129776247D01*
X130142857Y-129776247D02*
X130095238Y-129681009D01*
X130095238Y-129681009D02*
X130047619Y-129633390D01*
X130047619Y-129633390D02*
X129952381Y-129585771D01*
X129952381Y-129585771D02*
X129761905Y-129585771D01*
X129761905Y-129585771D02*
X129666667Y-129633390D01*
X129666667Y-129633390D02*
X129619048Y-129681009D01*
X129619048Y-129681009D02*
X129571429Y-129776247D01*
X104190476Y-161704819D02*
X104190476Y-162419104D01*
X104190476Y-162419104D02*
X104142857Y-162561961D01*
X104142857Y-162561961D02*
X104047619Y-162657200D01*
X104047619Y-162657200D02*
X103904762Y-162704819D01*
X103904762Y-162704819D02*
X103809524Y-162704819D01*
X105095238Y-162038152D02*
X105095238Y-162704819D01*
X104857143Y-161657200D02*
X104619048Y-162371485D01*
X104619048Y-162371485D02*
X105238095Y-162371485D01*
X105809524Y-161704819D02*
X105904762Y-161704819D01*
X105904762Y-161704819D02*
X106000000Y-161752438D01*
X106000000Y-161752438D02*
X106047619Y-161800057D01*
X106047619Y-161800057D02*
X106095238Y-161895295D01*
X106095238Y-161895295D02*
X106142857Y-162085771D01*
X106142857Y-162085771D02*
X106142857Y-162323866D01*
X106142857Y-162323866D02*
X106095238Y-162514342D01*
X106095238Y-162514342D02*
X106047619Y-162609580D01*
X106047619Y-162609580D02*
X106000000Y-162657200D01*
X106000000Y-162657200D02*
X105904762Y-162704819D01*
X105904762Y-162704819D02*
X105809524Y-162704819D01*
X105809524Y-162704819D02*
X105714286Y-162657200D01*
X105714286Y-162657200D02*
X105666667Y-162609580D01*
X105666667Y-162609580D02*
X105619048Y-162514342D01*
X105619048Y-162514342D02*
X105571429Y-162323866D01*
X105571429Y-162323866D02*
X105571429Y-162085771D01*
X105571429Y-162085771D02*
X105619048Y-161895295D01*
X105619048Y-161895295D02*
X105666667Y-161800057D01*
X105666667Y-161800057D02*
X105714286Y-161752438D01*
X105714286Y-161752438D02*
X105809524Y-161704819D01*
X138190476Y-155204819D02*
X138190476Y-155919104D01*
X138190476Y-155919104D02*
X138142857Y-156061961D01*
X138142857Y-156061961D02*
X138047619Y-156157200D01*
X138047619Y-156157200D02*
X137904762Y-156204819D01*
X137904762Y-156204819D02*
X137809524Y-156204819D01*
X139142857Y-155204819D02*
X138666667Y-155204819D01*
X138666667Y-155204819D02*
X138619048Y-155681009D01*
X138619048Y-155681009D02*
X138666667Y-155633390D01*
X138666667Y-155633390D02*
X138761905Y-155585771D01*
X138761905Y-155585771D02*
X139000000Y-155585771D01*
X139000000Y-155585771D02*
X139095238Y-155633390D01*
X139095238Y-155633390D02*
X139142857Y-155681009D01*
X139142857Y-155681009D02*
X139190476Y-155776247D01*
X139190476Y-155776247D02*
X139190476Y-156014342D01*
X139190476Y-156014342D02*
X139142857Y-156109580D01*
X139142857Y-156109580D02*
X139095238Y-156157200D01*
X139095238Y-156157200D02*
X139000000Y-156204819D01*
X139000000Y-156204819D02*
X138761905Y-156204819D01*
X138761905Y-156204819D02*
X138666667Y-156157200D01*
X138666667Y-156157200D02*
X138619048Y-156109580D01*
X140095238Y-155204819D02*
X139619048Y-155204819D01*
X139619048Y-155204819D02*
X139571429Y-155681009D01*
X139571429Y-155681009D02*
X139619048Y-155633390D01*
X139619048Y-155633390D02*
X139714286Y-155585771D01*
X139714286Y-155585771D02*
X139952381Y-155585771D01*
X139952381Y-155585771D02*
X140047619Y-155633390D01*
X140047619Y-155633390D02*
X140095238Y-155681009D01*
X140095238Y-155681009D02*
X140142857Y-155776247D01*
X140142857Y-155776247D02*
X140142857Y-156014342D01*
X140142857Y-156014342D02*
X140095238Y-156109580D01*
X140095238Y-156109580D02*
X140047619Y-156157200D01*
X140047619Y-156157200D02*
X139952381Y-156204819D01*
X139952381Y-156204819D02*
X139714286Y-156204819D01*
X139714286Y-156204819D02*
X139619048Y-156157200D01*
X139619048Y-156157200D02*
X139571429Y-156109580D01*
X138190476Y-135704819D02*
X138190476Y-136419104D01*
X138190476Y-136419104D02*
X138142857Y-136561961D01*
X138142857Y-136561961D02*
X138047619Y-136657200D01*
X138047619Y-136657200D02*
X137904762Y-136704819D01*
X137904762Y-136704819D02*
X137809524Y-136704819D01*
X139095238Y-136038152D02*
X139095238Y-136704819D01*
X138857143Y-135657200D02*
X138619048Y-136371485D01*
X138619048Y-136371485D02*
X139238095Y-136371485D01*
X139666667Y-136704819D02*
X139857143Y-136704819D01*
X139857143Y-136704819D02*
X139952381Y-136657200D01*
X139952381Y-136657200D02*
X140000000Y-136609580D01*
X140000000Y-136609580D02*
X140095238Y-136466723D01*
X140095238Y-136466723D02*
X140142857Y-136276247D01*
X140142857Y-136276247D02*
X140142857Y-135895295D01*
X140142857Y-135895295D02*
X140095238Y-135800057D01*
X140095238Y-135800057D02*
X140047619Y-135752438D01*
X140047619Y-135752438D02*
X139952381Y-135704819D01*
X139952381Y-135704819D02*
X139761905Y-135704819D01*
X139761905Y-135704819D02*
X139666667Y-135752438D01*
X139666667Y-135752438D02*
X139619048Y-135800057D01*
X139619048Y-135800057D02*
X139571429Y-135895295D01*
X139571429Y-135895295D02*
X139571429Y-136133390D01*
X139571429Y-136133390D02*
X139619048Y-136228628D01*
X139619048Y-136228628D02*
X139666667Y-136276247D01*
X139666667Y-136276247D02*
X139761905Y-136323866D01*
X139761905Y-136323866D02*
X139952381Y-136323866D01*
X139952381Y-136323866D02*
X140047619Y-136276247D01*
X140047619Y-136276247D02*
X140095238Y-136228628D01*
X140095238Y-136228628D02*
X140142857Y-136133390D01*
D13*
X133916666Y-89179530D02*
X133892857Y-89203340D01*
X133892857Y-89203340D02*
X133821428Y-89227149D01*
X133821428Y-89227149D02*
X133773809Y-89227149D01*
X133773809Y-89227149D02*
X133702381Y-89203340D01*
X133702381Y-89203340D02*
X133654762Y-89155720D01*
X133654762Y-89155720D02*
X133630952Y-89108101D01*
X133630952Y-89108101D02*
X133607143Y-89012863D01*
X133607143Y-89012863D02*
X133607143Y-88941435D01*
X133607143Y-88941435D02*
X133630952Y-88846197D01*
X133630952Y-88846197D02*
X133654762Y-88798578D01*
X133654762Y-88798578D02*
X133702381Y-88750959D01*
X133702381Y-88750959D02*
X133773809Y-88727149D01*
X133773809Y-88727149D02*
X133821428Y-88727149D01*
X133821428Y-88727149D02*
X133892857Y-88750959D01*
X133892857Y-88750959D02*
X133916666Y-88774768D01*
X134083333Y-88727149D02*
X134416666Y-88727149D01*
X134416666Y-88727149D02*
X134202381Y-89227149D01*
D10*
X138190476Y-116204819D02*
X138190476Y-116919104D01*
X138190476Y-116919104D02*
X138142857Y-117061961D01*
X138142857Y-117061961D02*
X138047619Y-117157200D01*
X138047619Y-117157200D02*
X137904762Y-117204819D01*
X137904762Y-117204819D02*
X137809524Y-117204819D01*
X139095238Y-116538152D02*
X139095238Y-117204819D01*
X138857143Y-116157200D02*
X138619048Y-116871485D01*
X138619048Y-116871485D02*
X139238095Y-116871485D01*
X139523810Y-116204819D02*
X140142857Y-116204819D01*
X140142857Y-116204819D02*
X139809524Y-116585771D01*
X139809524Y-116585771D02*
X139952381Y-116585771D01*
X139952381Y-116585771D02*
X140047619Y-116633390D01*
X140047619Y-116633390D02*
X140095238Y-116681009D01*
X140095238Y-116681009D02*
X140142857Y-116776247D01*
X140142857Y-116776247D02*
X140142857Y-117014342D01*
X140142857Y-117014342D02*
X140095238Y-117109580D01*
X140095238Y-117109580D02*
X140047619Y-117157200D01*
X140047619Y-117157200D02*
X139952381Y-117204819D01*
X139952381Y-117204819D02*
X139666667Y-117204819D01*
X139666667Y-117204819D02*
X139571429Y-117157200D01*
X139571429Y-117157200D02*
X139523810Y-117109580D01*
X151238095Y-78454819D02*
X151238095Y-77454819D01*
X151238095Y-77931009D02*
X151809523Y-77931009D01*
X151809523Y-78454819D02*
X151809523Y-77454819D01*
X152238095Y-77550057D02*
X152285714Y-77502438D01*
X152285714Y-77502438D02*
X152380952Y-77454819D01*
X152380952Y-77454819D02*
X152619047Y-77454819D01*
X152619047Y-77454819D02*
X152714285Y-77502438D01*
X152714285Y-77502438D02*
X152761904Y-77550057D01*
X152761904Y-77550057D02*
X152809523Y-77645295D01*
X152809523Y-77645295D02*
X152809523Y-77740533D01*
X152809523Y-77740533D02*
X152761904Y-77883390D01*
X152761904Y-77883390D02*
X152190476Y-78454819D01*
X152190476Y-78454819D02*
X152809523Y-78454819D01*
X80190476Y-129204819D02*
X80190476Y-129919104D01*
X80190476Y-129919104D02*
X80142857Y-130061961D01*
X80142857Y-130061961D02*
X80047619Y-130157200D01*
X80047619Y-130157200D02*
X79904762Y-130204819D01*
X79904762Y-130204819D02*
X79809524Y-130204819D01*
X81190476Y-130204819D02*
X80619048Y-130204819D01*
X80904762Y-130204819D02*
X80904762Y-129204819D01*
X80904762Y-129204819D02*
X80809524Y-129347676D01*
X80809524Y-129347676D02*
X80714286Y-129442914D01*
X80714286Y-129442914D02*
X80619048Y-129490533D01*
X82047619Y-129538152D02*
X82047619Y-130204819D01*
X81809524Y-129157200D02*
X81571429Y-129871485D01*
X81571429Y-129871485D02*
X82190476Y-129871485D01*
X90190476Y-135704819D02*
X90190476Y-136419104D01*
X90190476Y-136419104D02*
X90142857Y-136561961D01*
X90142857Y-136561961D02*
X90047619Y-136657200D01*
X90047619Y-136657200D02*
X89904762Y-136704819D01*
X89904762Y-136704819D02*
X89809524Y-136704819D01*
X91190476Y-136704819D02*
X90619048Y-136704819D01*
X90904762Y-136704819D02*
X90904762Y-135704819D01*
X90904762Y-135704819D02*
X90809524Y-135847676D01*
X90809524Y-135847676D02*
X90714286Y-135942914D01*
X90714286Y-135942914D02*
X90619048Y-135990533D01*
X91523810Y-135704819D02*
X92190476Y-135704819D01*
X92190476Y-135704819D02*
X91761905Y-136704819D01*
D11*
X115866667Y-92972403D02*
X115733334Y-92972403D01*
X115733334Y-93181927D02*
X115733334Y-92781927D01*
X115733334Y-92781927D02*
X115923810Y-92781927D01*
X116266667Y-92781927D02*
X116076191Y-92781927D01*
X116076191Y-92781927D02*
X116057143Y-92972403D01*
X116057143Y-92972403D02*
X116076191Y-92953356D01*
X116076191Y-92953356D02*
X116114286Y-92934308D01*
X116114286Y-92934308D02*
X116209524Y-92934308D01*
X116209524Y-92934308D02*
X116247619Y-92953356D01*
X116247619Y-92953356D02*
X116266667Y-92972403D01*
X116266667Y-92972403D02*
X116285714Y-93010499D01*
X116285714Y-93010499D02*
X116285714Y-93105737D01*
X116285714Y-93105737D02*
X116266667Y-93143832D01*
X116266667Y-93143832D02*
X116247619Y-93162880D01*
X116247619Y-93162880D02*
X116209524Y-93181927D01*
X116209524Y-93181927D02*
X116114286Y-93181927D01*
X116114286Y-93181927D02*
X116076191Y-93162880D01*
X116076191Y-93162880D02*
X116057143Y-93143832D01*
X99742857Y-85181927D02*
X99609524Y-84991451D01*
X99514286Y-85181927D02*
X99514286Y-84781927D01*
X99514286Y-84781927D02*
X99666667Y-84781927D01*
X99666667Y-84781927D02*
X99704762Y-84800975D01*
X99704762Y-84800975D02*
X99723809Y-84820022D01*
X99723809Y-84820022D02*
X99742857Y-84858118D01*
X99742857Y-84858118D02*
X99742857Y-84915260D01*
X99742857Y-84915260D02*
X99723809Y-84953356D01*
X99723809Y-84953356D02*
X99704762Y-84972403D01*
X99704762Y-84972403D02*
X99666667Y-84991451D01*
X99666667Y-84991451D02*
X99514286Y-84991451D01*
X100123809Y-85181927D02*
X99895238Y-85181927D01*
X100009524Y-85181927D02*
X100009524Y-84781927D01*
X100009524Y-84781927D02*
X99971428Y-84839070D01*
X99971428Y-84839070D02*
X99933333Y-84877165D01*
X99933333Y-84877165D02*
X99895238Y-84896213D01*
X100466666Y-84915260D02*
X100466666Y-85181927D01*
X100371428Y-84762880D02*
X100276190Y-85048594D01*
X100276190Y-85048594D02*
X100523809Y-85048594D01*
X111742857Y-102181927D02*
X111609524Y-101991451D01*
X111514286Y-102181927D02*
X111514286Y-101781927D01*
X111514286Y-101781927D02*
X111666667Y-101781927D01*
X111666667Y-101781927D02*
X111704762Y-101800975D01*
X111704762Y-101800975D02*
X111723809Y-101820022D01*
X111723809Y-101820022D02*
X111742857Y-101858118D01*
X111742857Y-101858118D02*
X111742857Y-101915260D01*
X111742857Y-101915260D02*
X111723809Y-101953356D01*
X111723809Y-101953356D02*
X111704762Y-101972403D01*
X111704762Y-101972403D02*
X111666667Y-101991451D01*
X111666667Y-101991451D02*
X111514286Y-101991451D01*
X111876190Y-101781927D02*
X112123809Y-101781927D01*
X112123809Y-101781927D02*
X111990476Y-101934308D01*
X111990476Y-101934308D02*
X112047619Y-101934308D01*
X112047619Y-101934308D02*
X112085714Y-101953356D01*
X112085714Y-101953356D02*
X112104762Y-101972403D01*
X112104762Y-101972403D02*
X112123809Y-102010499D01*
X112123809Y-102010499D02*
X112123809Y-102105737D01*
X112123809Y-102105737D02*
X112104762Y-102143832D01*
X112104762Y-102143832D02*
X112085714Y-102162880D01*
X112085714Y-102162880D02*
X112047619Y-102181927D01*
X112047619Y-102181927D02*
X111933333Y-102181927D01*
X111933333Y-102181927D02*
X111895238Y-102162880D01*
X111895238Y-102162880D02*
X111876190Y-102143832D01*
X112276190Y-101820022D02*
X112295238Y-101800975D01*
X112295238Y-101800975D02*
X112333333Y-101781927D01*
X112333333Y-101781927D02*
X112428571Y-101781927D01*
X112428571Y-101781927D02*
X112466666Y-101800975D01*
X112466666Y-101800975D02*
X112485714Y-101820022D01*
X112485714Y-101820022D02*
X112504761Y-101858118D01*
X112504761Y-101858118D02*
X112504761Y-101896213D01*
X112504761Y-101896213D02*
X112485714Y-101953356D01*
X112485714Y-101953356D02*
X112257142Y-102181927D01*
X112257142Y-102181927D02*
X112504761Y-102181927D01*
D10*
X114190476Y-155204819D02*
X114190476Y-155919104D01*
X114190476Y-155919104D02*
X114142857Y-156061961D01*
X114142857Y-156061961D02*
X114047619Y-156157200D01*
X114047619Y-156157200D02*
X113904762Y-156204819D01*
X113904762Y-156204819D02*
X113809524Y-156204819D01*
X114571429Y-155204819D02*
X115190476Y-155204819D01*
X115190476Y-155204819D02*
X114857143Y-155585771D01*
X114857143Y-155585771D02*
X115000000Y-155585771D01*
X115000000Y-155585771D02*
X115095238Y-155633390D01*
X115095238Y-155633390D02*
X115142857Y-155681009D01*
X115142857Y-155681009D02*
X115190476Y-155776247D01*
X115190476Y-155776247D02*
X115190476Y-156014342D01*
X115190476Y-156014342D02*
X115142857Y-156109580D01*
X115142857Y-156109580D02*
X115095238Y-156157200D01*
X115095238Y-156157200D02*
X115000000Y-156204819D01*
X115000000Y-156204819D02*
X114714286Y-156204819D01*
X114714286Y-156204819D02*
X114619048Y-156157200D01*
X114619048Y-156157200D02*
X114571429Y-156109580D01*
X115666667Y-156204819D02*
X115857143Y-156204819D01*
X115857143Y-156204819D02*
X115952381Y-156157200D01*
X115952381Y-156157200D02*
X116000000Y-156109580D01*
X116000000Y-156109580D02*
X116095238Y-155966723D01*
X116095238Y-155966723D02*
X116142857Y-155776247D01*
X116142857Y-155776247D02*
X116142857Y-155395295D01*
X116142857Y-155395295D02*
X116095238Y-155300057D01*
X116095238Y-155300057D02*
X116047619Y-155252438D01*
X116047619Y-155252438D02*
X115952381Y-155204819D01*
X115952381Y-155204819D02*
X115761905Y-155204819D01*
X115761905Y-155204819D02*
X115666667Y-155252438D01*
X115666667Y-155252438D02*
X115619048Y-155300057D01*
X115619048Y-155300057D02*
X115571429Y-155395295D01*
X115571429Y-155395295D02*
X115571429Y-155633390D01*
X115571429Y-155633390D02*
X115619048Y-155728628D01*
X115619048Y-155728628D02*
X115666667Y-155776247D01*
X115666667Y-155776247D02*
X115761905Y-155823866D01*
X115761905Y-155823866D02*
X115952381Y-155823866D01*
X115952381Y-155823866D02*
X116047619Y-155776247D01*
X116047619Y-155776247D02*
X116095238Y-155728628D01*
X116095238Y-155728628D02*
X116142857Y-155633390D01*
D11*
X141742857Y-110181927D02*
X141609524Y-109991451D01*
X141514286Y-110181927D02*
X141514286Y-109781927D01*
X141514286Y-109781927D02*
X141666667Y-109781927D01*
X141666667Y-109781927D02*
X141704762Y-109800975D01*
X141704762Y-109800975D02*
X141723809Y-109820022D01*
X141723809Y-109820022D02*
X141742857Y-109858118D01*
X141742857Y-109858118D02*
X141742857Y-109915260D01*
X141742857Y-109915260D02*
X141723809Y-109953356D01*
X141723809Y-109953356D02*
X141704762Y-109972403D01*
X141704762Y-109972403D02*
X141666667Y-109991451D01*
X141666667Y-109991451D02*
X141514286Y-109991451D01*
X142085714Y-109915260D02*
X142085714Y-110181927D01*
X141990476Y-109762880D02*
X141895238Y-110048594D01*
X141895238Y-110048594D02*
X142142857Y-110048594D01*
X142276190Y-109820022D02*
X142295238Y-109800975D01*
X142295238Y-109800975D02*
X142333333Y-109781927D01*
X142333333Y-109781927D02*
X142428571Y-109781927D01*
X142428571Y-109781927D02*
X142466666Y-109800975D01*
X142466666Y-109800975D02*
X142485714Y-109820022D01*
X142485714Y-109820022D02*
X142504761Y-109858118D01*
X142504761Y-109858118D02*
X142504761Y-109896213D01*
X142504761Y-109896213D02*
X142485714Y-109953356D01*
X142485714Y-109953356D02*
X142257142Y-110181927D01*
X142257142Y-110181927D02*
X142504761Y-110181927D01*
D10*
X80190476Y-135704819D02*
X80190476Y-136419104D01*
X80190476Y-136419104D02*
X80142857Y-136561961D01*
X80142857Y-136561961D02*
X80047619Y-136657200D01*
X80047619Y-136657200D02*
X79904762Y-136704819D01*
X79904762Y-136704819D02*
X79809524Y-136704819D01*
X81190476Y-136704819D02*
X80619048Y-136704819D01*
X80904762Y-136704819D02*
X80904762Y-135704819D01*
X80904762Y-135704819D02*
X80809524Y-135847676D01*
X80809524Y-135847676D02*
X80714286Y-135942914D01*
X80714286Y-135942914D02*
X80619048Y-135990533D01*
X82047619Y-135704819D02*
X81857143Y-135704819D01*
X81857143Y-135704819D02*
X81761905Y-135752438D01*
X81761905Y-135752438D02*
X81714286Y-135800057D01*
X81714286Y-135800057D02*
X81619048Y-135942914D01*
X81619048Y-135942914D02*
X81571429Y-136133390D01*
X81571429Y-136133390D02*
X81571429Y-136514342D01*
X81571429Y-136514342D02*
X81619048Y-136609580D01*
X81619048Y-136609580D02*
X81666667Y-136657200D01*
X81666667Y-136657200D02*
X81761905Y-136704819D01*
X81761905Y-136704819D02*
X81952381Y-136704819D01*
X81952381Y-136704819D02*
X82047619Y-136657200D01*
X82047619Y-136657200D02*
X82095238Y-136609580D01*
X82095238Y-136609580D02*
X82142857Y-136514342D01*
X82142857Y-136514342D02*
X82142857Y-136276247D01*
X82142857Y-136276247D02*
X82095238Y-136181009D01*
X82095238Y-136181009D02*
X82047619Y-136133390D01*
X82047619Y-136133390D02*
X81952381Y-136085771D01*
X81952381Y-136085771D02*
X81761905Y-136085771D01*
X81761905Y-136085771D02*
X81666667Y-136133390D01*
X81666667Y-136133390D02*
X81619048Y-136181009D01*
X81619048Y-136181009D02*
X81571429Y-136276247D01*
X150738095Y-91004819D02*
X151309523Y-91004819D01*
X151023809Y-92004819D02*
X151023809Y-91004819D01*
X151642857Y-92004819D02*
X151642857Y-91004819D01*
X151642857Y-91004819D02*
X152023809Y-91004819D01*
X152023809Y-91004819D02*
X152119047Y-91052438D01*
X152119047Y-91052438D02*
X152166666Y-91100057D01*
X152166666Y-91100057D02*
X152214285Y-91195295D01*
X152214285Y-91195295D02*
X152214285Y-91338152D01*
X152214285Y-91338152D02*
X152166666Y-91433390D01*
X152166666Y-91433390D02*
X152119047Y-91481009D01*
X152119047Y-91481009D02*
X152023809Y-91528628D01*
X152023809Y-91528628D02*
X151642857Y-91528628D01*
X153166666Y-92004819D02*
X152595238Y-92004819D01*
X152880952Y-92004819D02*
X152880952Y-91004819D01*
X152880952Y-91004819D02*
X152785714Y-91147676D01*
X152785714Y-91147676D02*
X152690476Y-91242914D01*
X152690476Y-91242914D02*
X152595238Y-91290533D01*
X114190476Y-148704819D02*
X114190476Y-149419104D01*
X114190476Y-149419104D02*
X114142857Y-149561961D01*
X114142857Y-149561961D02*
X114047619Y-149657200D01*
X114047619Y-149657200D02*
X113904762Y-149704819D01*
X113904762Y-149704819D02*
X113809524Y-149704819D01*
X114571429Y-148704819D02*
X115190476Y-148704819D01*
X115190476Y-148704819D02*
X114857143Y-149085771D01*
X114857143Y-149085771D02*
X115000000Y-149085771D01*
X115000000Y-149085771D02*
X115095238Y-149133390D01*
X115095238Y-149133390D02*
X115142857Y-149181009D01*
X115142857Y-149181009D02*
X115190476Y-149276247D01*
X115190476Y-149276247D02*
X115190476Y-149514342D01*
X115190476Y-149514342D02*
X115142857Y-149609580D01*
X115142857Y-149609580D02*
X115095238Y-149657200D01*
X115095238Y-149657200D02*
X115000000Y-149704819D01*
X115000000Y-149704819D02*
X114714286Y-149704819D01*
X114714286Y-149704819D02*
X114619048Y-149657200D01*
X114619048Y-149657200D02*
X114571429Y-149609580D01*
X115523810Y-148704819D02*
X116190476Y-148704819D01*
X116190476Y-148704819D02*
X115761905Y-149704819D01*
X77238095Y-78454819D02*
X77238095Y-77454819D01*
X77238095Y-77931009D02*
X77809523Y-77931009D01*
X77809523Y-78454819D02*
X77809523Y-77454819D01*
X78809523Y-78454819D02*
X78238095Y-78454819D01*
X78523809Y-78454819D02*
X78523809Y-77454819D01*
X78523809Y-77454819D02*
X78428571Y-77597676D01*
X78428571Y-77597676D02*
X78333333Y-77692914D01*
X78333333Y-77692914D02*
X78238095Y-77740533D01*
X81238095Y-98454819D02*
X81238095Y-99264342D01*
X81238095Y-99264342D02*
X81285714Y-99359580D01*
X81285714Y-99359580D02*
X81333333Y-99407200D01*
X81333333Y-99407200D02*
X81428571Y-99454819D01*
X81428571Y-99454819D02*
X81619047Y-99454819D01*
X81619047Y-99454819D02*
X81714285Y-99407200D01*
X81714285Y-99407200D02*
X81761904Y-99359580D01*
X81761904Y-99359580D02*
X81809523Y-99264342D01*
X81809523Y-99264342D02*
X81809523Y-98454819D01*
X82809523Y-99454819D02*
X82238095Y-99454819D01*
X82523809Y-99454819D02*
X82523809Y-98454819D01*
X82523809Y-98454819D02*
X82428571Y-98597676D01*
X82428571Y-98597676D02*
X82333333Y-98692914D01*
X82333333Y-98692914D02*
X82238095Y-98740533D01*
X138190476Y-129204819D02*
X138190476Y-129919104D01*
X138190476Y-129919104D02*
X138142857Y-130061961D01*
X138142857Y-130061961D02*
X138047619Y-130157200D01*
X138047619Y-130157200D02*
X137904762Y-130204819D01*
X137904762Y-130204819D02*
X137809524Y-130204819D01*
X139095238Y-129538152D02*
X139095238Y-130204819D01*
X138857143Y-129157200D02*
X138619048Y-129871485D01*
X138619048Y-129871485D02*
X139238095Y-129871485D01*
X139523810Y-129204819D02*
X140190476Y-129204819D01*
X140190476Y-129204819D02*
X139761905Y-130204819D01*
D11*
X129742857Y-81181927D02*
X129609524Y-80991451D01*
X129514286Y-81181927D02*
X129514286Y-80781927D01*
X129514286Y-80781927D02*
X129666667Y-80781927D01*
X129666667Y-80781927D02*
X129704762Y-80800975D01*
X129704762Y-80800975D02*
X129723809Y-80820022D01*
X129723809Y-80820022D02*
X129742857Y-80858118D01*
X129742857Y-80858118D02*
X129742857Y-80915260D01*
X129742857Y-80915260D02*
X129723809Y-80953356D01*
X129723809Y-80953356D02*
X129704762Y-80972403D01*
X129704762Y-80972403D02*
X129666667Y-80991451D01*
X129666667Y-80991451D02*
X129514286Y-80991451D01*
X130104762Y-80781927D02*
X129914286Y-80781927D01*
X129914286Y-80781927D02*
X129895238Y-80972403D01*
X129895238Y-80972403D02*
X129914286Y-80953356D01*
X129914286Y-80953356D02*
X129952381Y-80934308D01*
X129952381Y-80934308D02*
X130047619Y-80934308D01*
X130047619Y-80934308D02*
X130085714Y-80953356D01*
X130085714Y-80953356D02*
X130104762Y-80972403D01*
X130104762Y-80972403D02*
X130123809Y-81010499D01*
X130123809Y-81010499D02*
X130123809Y-81105737D01*
X130123809Y-81105737D02*
X130104762Y-81143832D01*
X130104762Y-81143832D02*
X130085714Y-81162880D01*
X130085714Y-81162880D02*
X130047619Y-81181927D01*
X130047619Y-81181927D02*
X129952381Y-81181927D01*
X129952381Y-81181927D02*
X129914286Y-81162880D01*
X129914286Y-81162880D02*
X129895238Y-81143832D01*
X130504761Y-81181927D02*
X130276190Y-81181927D01*
X130390476Y-81181927D02*
X130390476Y-80781927D01*
X130390476Y-80781927D02*
X130352380Y-80839070D01*
X130352380Y-80839070D02*
X130314285Y-80877165D01*
X130314285Y-80877165D02*
X130276190Y-80896213D01*
D10*
X150738095Y-85004819D02*
X151309523Y-85004819D01*
X151023809Y-86004819D02*
X151023809Y-85004819D01*
X151642857Y-86004819D02*
X151642857Y-85004819D01*
X151642857Y-85004819D02*
X152023809Y-85004819D01*
X152023809Y-85004819D02*
X152119047Y-85052438D01*
X152119047Y-85052438D02*
X152166666Y-85100057D01*
X152166666Y-85100057D02*
X152214285Y-85195295D01*
X152214285Y-85195295D02*
X152214285Y-85338152D01*
X152214285Y-85338152D02*
X152166666Y-85433390D01*
X152166666Y-85433390D02*
X152119047Y-85481009D01*
X152119047Y-85481009D02*
X152023809Y-85528628D01*
X152023809Y-85528628D02*
X151642857Y-85528628D01*
X153071428Y-85338152D02*
X153071428Y-86004819D01*
X152833333Y-84957200D02*
X152595238Y-85671485D01*
X152595238Y-85671485D02*
X153214285Y-85671485D01*
D11*
X121742857Y-81143832D02*
X121723809Y-81162880D01*
X121723809Y-81162880D02*
X121666667Y-81181927D01*
X121666667Y-81181927D02*
X121628571Y-81181927D01*
X121628571Y-81181927D02*
X121571428Y-81162880D01*
X121571428Y-81162880D02*
X121533333Y-81124784D01*
X121533333Y-81124784D02*
X121514286Y-81086689D01*
X121514286Y-81086689D02*
X121495238Y-81010499D01*
X121495238Y-81010499D02*
X121495238Y-80953356D01*
X121495238Y-80953356D02*
X121514286Y-80877165D01*
X121514286Y-80877165D02*
X121533333Y-80839070D01*
X121533333Y-80839070D02*
X121571428Y-80800975D01*
X121571428Y-80800975D02*
X121628571Y-80781927D01*
X121628571Y-80781927D02*
X121666667Y-80781927D01*
X121666667Y-80781927D02*
X121723809Y-80800975D01*
X121723809Y-80800975D02*
X121742857Y-80820022D01*
X122123809Y-81181927D02*
X121895238Y-81181927D01*
X122009524Y-81181927D02*
X122009524Y-80781927D01*
X122009524Y-80781927D02*
X121971428Y-80839070D01*
X121971428Y-80839070D02*
X121933333Y-80877165D01*
X121933333Y-80877165D02*
X121895238Y-80896213D01*
X122371428Y-80781927D02*
X122409523Y-80781927D01*
X122409523Y-80781927D02*
X122447619Y-80800975D01*
X122447619Y-80800975D02*
X122466666Y-80820022D01*
X122466666Y-80820022D02*
X122485714Y-80858118D01*
X122485714Y-80858118D02*
X122504761Y-80934308D01*
X122504761Y-80934308D02*
X122504761Y-81029546D01*
X122504761Y-81029546D02*
X122485714Y-81105737D01*
X122485714Y-81105737D02*
X122466666Y-81143832D01*
X122466666Y-81143832D02*
X122447619Y-81162880D01*
X122447619Y-81162880D02*
X122409523Y-81181927D01*
X122409523Y-81181927D02*
X122371428Y-81181927D01*
X122371428Y-81181927D02*
X122333333Y-81162880D01*
X122333333Y-81162880D02*
X122314285Y-81143832D01*
X122314285Y-81143832D02*
X122295238Y-81105737D01*
X122295238Y-81105737D02*
X122276190Y-81029546D01*
X122276190Y-81029546D02*
X122276190Y-80934308D01*
X122276190Y-80934308D02*
X122295238Y-80858118D01*
X122295238Y-80858118D02*
X122314285Y-80820022D01*
X122314285Y-80820022D02*
X122333333Y-80800975D01*
X122333333Y-80800975D02*
X122371428Y-80781927D01*
D10*
X104190476Y-122704819D02*
X104190476Y-123419104D01*
X104190476Y-123419104D02*
X104142857Y-123561961D01*
X104142857Y-123561961D02*
X104047619Y-123657200D01*
X104047619Y-123657200D02*
X103904762Y-123704819D01*
X103904762Y-123704819D02*
X103809524Y-123704819D01*
X104619048Y-122800057D02*
X104666667Y-122752438D01*
X104666667Y-122752438D02*
X104761905Y-122704819D01*
X104761905Y-122704819D02*
X105000000Y-122704819D01*
X105000000Y-122704819D02*
X105095238Y-122752438D01*
X105095238Y-122752438D02*
X105142857Y-122800057D01*
X105142857Y-122800057D02*
X105190476Y-122895295D01*
X105190476Y-122895295D02*
X105190476Y-122990533D01*
X105190476Y-122990533D02*
X105142857Y-123133390D01*
X105142857Y-123133390D02*
X104571429Y-123704819D01*
X104571429Y-123704819D02*
X105190476Y-123704819D01*
X105761905Y-123133390D02*
X105666667Y-123085771D01*
X105666667Y-123085771D02*
X105619048Y-123038152D01*
X105619048Y-123038152D02*
X105571429Y-122942914D01*
X105571429Y-122942914D02*
X105571429Y-122895295D01*
X105571429Y-122895295D02*
X105619048Y-122800057D01*
X105619048Y-122800057D02*
X105666667Y-122752438D01*
X105666667Y-122752438D02*
X105761905Y-122704819D01*
X105761905Y-122704819D02*
X105952381Y-122704819D01*
X105952381Y-122704819D02*
X106047619Y-122752438D01*
X106047619Y-122752438D02*
X106095238Y-122800057D01*
X106095238Y-122800057D02*
X106142857Y-122895295D01*
X106142857Y-122895295D02*
X106142857Y-122942914D01*
X106142857Y-122942914D02*
X106095238Y-123038152D01*
X106095238Y-123038152D02*
X106047619Y-123085771D01*
X106047619Y-123085771D02*
X105952381Y-123133390D01*
X105952381Y-123133390D02*
X105761905Y-123133390D01*
X105761905Y-123133390D02*
X105666667Y-123181009D01*
X105666667Y-123181009D02*
X105619048Y-123228628D01*
X105619048Y-123228628D02*
X105571429Y-123323866D01*
X105571429Y-123323866D02*
X105571429Y-123514342D01*
X105571429Y-123514342D02*
X105619048Y-123609580D01*
X105619048Y-123609580D02*
X105666667Y-123657200D01*
X105666667Y-123657200D02*
X105761905Y-123704819D01*
X105761905Y-123704819D02*
X105952381Y-123704819D01*
X105952381Y-123704819D02*
X106047619Y-123657200D01*
X106047619Y-123657200D02*
X106095238Y-123609580D01*
X106095238Y-123609580D02*
X106142857Y-123514342D01*
X106142857Y-123514342D02*
X106142857Y-123323866D01*
X106142857Y-123323866D02*
X106095238Y-123228628D01*
X106095238Y-123228628D02*
X106047619Y-123181009D01*
X106047619Y-123181009D02*
X105952381Y-123133390D01*
X133761905Y-75954819D02*
X133761905Y-74954819D01*
X133761905Y-74954819D02*
X134000000Y-74954819D01*
X134000000Y-74954819D02*
X134142857Y-75002438D01*
X134142857Y-75002438D02*
X134238095Y-75097676D01*
X134238095Y-75097676D02*
X134285714Y-75192914D01*
X134285714Y-75192914D02*
X134333333Y-75383390D01*
X134333333Y-75383390D02*
X134333333Y-75526247D01*
X134333333Y-75526247D02*
X134285714Y-75716723D01*
X134285714Y-75716723D02*
X134238095Y-75811961D01*
X134238095Y-75811961D02*
X134142857Y-75907200D01*
X134142857Y-75907200D02*
X134000000Y-75954819D01*
X134000000Y-75954819D02*
X133761905Y-75954819D01*
X135285714Y-75954819D02*
X134714286Y-75954819D01*
X135000000Y-75954819D02*
X135000000Y-74954819D01*
X135000000Y-74954819D02*
X134904762Y-75097676D01*
X134904762Y-75097676D02*
X134809524Y-75192914D01*
X134809524Y-75192914D02*
X134714286Y-75240533D01*
D11*
X117742857Y-110181927D02*
X117609524Y-109991451D01*
X117514286Y-110181927D02*
X117514286Y-109781927D01*
X117514286Y-109781927D02*
X117666667Y-109781927D01*
X117666667Y-109781927D02*
X117704762Y-109800975D01*
X117704762Y-109800975D02*
X117723809Y-109820022D01*
X117723809Y-109820022D02*
X117742857Y-109858118D01*
X117742857Y-109858118D02*
X117742857Y-109915260D01*
X117742857Y-109915260D02*
X117723809Y-109953356D01*
X117723809Y-109953356D02*
X117704762Y-109972403D01*
X117704762Y-109972403D02*
X117666667Y-109991451D01*
X117666667Y-109991451D02*
X117514286Y-109991451D01*
X118085714Y-109915260D02*
X118085714Y-110181927D01*
X117990476Y-109762880D02*
X117895238Y-110048594D01*
X117895238Y-110048594D02*
X118142857Y-110048594D01*
X118504761Y-110181927D02*
X118276190Y-110181927D01*
X118390476Y-110181927D02*
X118390476Y-109781927D01*
X118390476Y-109781927D02*
X118352380Y-109839070D01*
X118352380Y-109839070D02*
X118314285Y-109877165D01*
X118314285Y-109877165D02*
X118276190Y-109896213D01*
D10*
X133238095Y-108454819D02*
X133238095Y-109264342D01*
X133238095Y-109264342D02*
X133285714Y-109359580D01*
X133285714Y-109359580D02*
X133333333Y-109407200D01*
X133333333Y-109407200D02*
X133428571Y-109454819D01*
X133428571Y-109454819D02*
X133619047Y-109454819D01*
X133619047Y-109454819D02*
X133714285Y-109407200D01*
X133714285Y-109407200D02*
X133761904Y-109359580D01*
X133761904Y-109359580D02*
X133809523Y-109264342D01*
X133809523Y-109264342D02*
X133809523Y-108454819D01*
X134761904Y-108454819D02*
X134285714Y-108454819D01*
X134285714Y-108454819D02*
X134238095Y-108931009D01*
X134238095Y-108931009D02*
X134285714Y-108883390D01*
X134285714Y-108883390D02*
X134380952Y-108835771D01*
X134380952Y-108835771D02*
X134619047Y-108835771D01*
X134619047Y-108835771D02*
X134714285Y-108883390D01*
X134714285Y-108883390D02*
X134761904Y-108931009D01*
X134761904Y-108931009D02*
X134809523Y-109026247D01*
X134809523Y-109026247D02*
X134809523Y-109264342D01*
X134809523Y-109264342D02*
X134761904Y-109359580D01*
X134761904Y-109359580D02*
X134714285Y-109407200D01*
X134714285Y-109407200D02*
X134619047Y-109454819D01*
X134619047Y-109454819D02*
X134380952Y-109454819D01*
X134380952Y-109454819D02*
X134285714Y-109407200D01*
X134285714Y-109407200D02*
X134238095Y-109359580D01*
X150738095Y-110004819D02*
X151309523Y-110004819D01*
X151023809Y-111004819D02*
X151023809Y-110004819D01*
X151642857Y-111004819D02*
X151642857Y-110004819D01*
X151642857Y-110004819D02*
X152023809Y-110004819D01*
X152023809Y-110004819D02*
X152119047Y-110052438D01*
X152119047Y-110052438D02*
X152166666Y-110100057D01*
X152166666Y-110100057D02*
X152214285Y-110195295D01*
X152214285Y-110195295D02*
X152214285Y-110338152D01*
X152214285Y-110338152D02*
X152166666Y-110433390D01*
X152166666Y-110433390D02*
X152119047Y-110481009D01*
X152119047Y-110481009D02*
X152023809Y-110528628D01*
X152023809Y-110528628D02*
X151642857Y-110528628D01*
X152547619Y-110004819D02*
X153166666Y-110004819D01*
X153166666Y-110004819D02*
X152833333Y-110385771D01*
X152833333Y-110385771D02*
X152976190Y-110385771D01*
X152976190Y-110385771D02*
X153071428Y-110433390D01*
X153071428Y-110433390D02*
X153119047Y-110481009D01*
X153119047Y-110481009D02*
X153166666Y-110576247D01*
X153166666Y-110576247D02*
X153166666Y-110814342D01*
X153166666Y-110814342D02*
X153119047Y-110909580D01*
X153119047Y-110909580D02*
X153071428Y-110957200D01*
X153071428Y-110957200D02*
X152976190Y-111004819D01*
X152976190Y-111004819D02*
X152690476Y-111004819D01*
X152690476Y-111004819D02*
X152595238Y-110957200D01*
X152595238Y-110957200D02*
X152547619Y-110909580D01*
D11*
X125742857Y-81181927D02*
X125609524Y-80991451D01*
X125514286Y-81181927D02*
X125514286Y-80781927D01*
X125514286Y-80781927D02*
X125666667Y-80781927D01*
X125666667Y-80781927D02*
X125704762Y-80800975D01*
X125704762Y-80800975D02*
X125723809Y-80820022D01*
X125723809Y-80820022D02*
X125742857Y-80858118D01*
X125742857Y-80858118D02*
X125742857Y-80915260D01*
X125742857Y-80915260D02*
X125723809Y-80953356D01*
X125723809Y-80953356D02*
X125704762Y-80972403D01*
X125704762Y-80972403D02*
X125666667Y-80991451D01*
X125666667Y-80991451D02*
X125514286Y-80991451D01*
X126104762Y-80781927D02*
X125914286Y-80781927D01*
X125914286Y-80781927D02*
X125895238Y-80972403D01*
X125895238Y-80972403D02*
X125914286Y-80953356D01*
X125914286Y-80953356D02*
X125952381Y-80934308D01*
X125952381Y-80934308D02*
X126047619Y-80934308D01*
X126047619Y-80934308D02*
X126085714Y-80953356D01*
X126085714Y-80953356D02*
X126104762Y-80972403D01*
X126104762Y-80972403D02*
X126123809Y-81010499D01*
X126123809Y-81010499D02*
X126123809Y-81105737D01*
X126123809Y-81105737D02*
X126104762Y-81143832D01*
X126104762Y-81143832D02*
X126085714Y-81162880D01*
X126085714Y-81162880D02*
X126047619Y-81181927D01*
X126047619Y-81181927D02*
X125952381Y-81181927D01*
X125952381Y-81181927D02*
X125914286Y-81162880D01*
X125914286Y-81162880D02*
X125895238Y-81143832D01*
X126371428Y-80781927D02*
X126409523Y-80781927D01*
X126409523Y-80781927D02*
X126447619Y-80800975D01*
X126447619Y-80800975D02*
X126466666Y-80820022D01*
X126466666Y-80820022D02*
X126485714Y-80858118D01*
X126485714Y-80858118D02*
X126504761Y-80934308D01*
X126504761Y-80934308D02*
X126504761Y-81029546D01*
X126504761Y-81029546D02*
X126485714Y-81105737D01*
X126485714Y-81105737D02*
X126466666Y-81143832D01*
X126466666Y-81143832D02*
X126447619Y-81162880D01*
X126447619Y-81162880D02*
X126409523Y-81181927D01*
X126409523Y-81181927D02*
X126371428Y-81181927D01*
X126371428Y-81181927D02*
X126333333Y-81162880D01*
X126333333Y-81162880D02*
X126314285Y-81143832D01*
X126314285Y-81143832D02*
X126295238Y-81105737D01*
X126295238Y-81105737D02*
X126276190Y-81029546D01*
X126276190Y-81029546D02*
X126276190Y-80934308D01*
X126276190Y-80934308D02*
X126295238Y-80858118D01*
X126295238Y-80858118D02*
X126314285Y-80820022D01*
X126314285Y-80820022D02*
X126333333Y-80800975D01*
X126333333Y-80800975D02*
X126371428Y-80781927D01*
X95742857Y-82181927D02*
X95609524Y-81991451D01*
X95514286Y-82181927D02*
X95514286Y-81781927D01*
X95514286Y-81781927D02*
X95666667Y-81781927D01*
X95666667Y-81781927D02*
X95704762Y-81800975D01*
X95704762Y-81800975D02*
X95723809Y-81820022D01*
X95723809Y-81820022D02*
X95742857Y-81858118D01*
X95742857Y-81858118D02*
X95742857Y-81915260D01*
X95742857Y-81915260D02*
X95723809Y-81953356D01*
X95723809Y-81953356D02*
X95704762Y-81972403D01*
X95704762Y-81972403D02*
X95666667Y-81991451D01*
X95666667Y-81991451D02*
X95514286Y-81991451D01*
X96123809Y-82181927D02*
X95895238Y-82181927D01*
X96009524Y-82181927D02*
X96009524Y-81781927D01*
X96009524Y-81781927D02*
X95971428Y-81839070D01*
X95971428Y-81839070D02*
X95933333Y-81877165D01*
X95933333Y-81877165D02*
X95895238Y-81896213D01*
X96371428Y-81781927D02*
X96409523Y-81781927D01*
X96409523Y-81781927D02*
X96447619Y-81800975D01*
X96447619Y-81800975D02*
X96466666Y-81820022D01*
X96466666Y-81820022D02*
X96485714Y-81858118D01*
X96485714Y-81858118D02*
X96504761Y-81934308D01*
X96504761Y-81934308D02*
X96504761Y-82029546D01*
X96504761Y-82029546D02*
X96485714Y-82105737D01*
X96485714Y-82105737D02*
X96466666Y-82143832D01*
X96466666Y-82143832D02*
X96447619Y-82162880D01*
X96447619Y-82162880D02*
X96409523Y-82181927D01*
X96409523Y-82181927D02*
X96371428Y-82181927D01*
X96371428Y-82181927D02*
X96333333Y-82162880D01*
X96333333Y-82162880D02*
X96314285Y-82143832D01*
X96314285Y-82143832D02*
X96295238Y-82105737D01*
X96295238Y-82105737D02*
X96276190Y-82029546D01*
X96276190Y-82029546D02*
X96276190Y-81934308D01*
X96276190Y-81934308D02*
X96295238Y-81858118D01*
X96295238Y-81858118D02*
X96314285Y-81820022D01*
X96314285Y-81820022D02*
X96333333Y-81800975D01*
X96333333Y-81800975D02*
X96371428Y-81781927D01*
D10*
X90190476Y-129204819D02*
X90190476Y-129919104D01*
X90190476Y-129919104D02*
X90142857Y-130061961D01*
X90142857Y-130061961D02*
X90047619Y-130157200D01*
X90047619Y-130157200D02*
X89904762Y-130204819D01*
X89904762Y-130204819D02*
X89809524Y-130204819D01*
X91190476Y-130204819D02*
X90619048Y-130204819D01*
X90904762Y-130204819D02*
X90904762Y-129204819D01*
X90904762Y-129204819D02*
X90809524Y-129347676D01*
X90809524Y-129347676D02*
X90714286Y-129442914D01*
X90714286Y-129442914D02*
X90619048Y-129490533D01*
X92095238Y-129204819D02*
X91619048Y-129204819D01*
X91619048Y-129204819D02*
X91571429Y-129681009D01*
X91571429Y-129681009D02*
X91619048Y-129633390D01*
X91619048Y-129633390D02*
X91714286Y-129585771D01*
X91714286Y-129585771D02*
X91952381Y-129585771D01*
X91952381Y-129585771D02*
X92047619Y-129633390D01*
X92047619Y-129633390D02*
X92095238Y-129681009D01*
X92095238Y-129681009D02*
X92142857Y-129776247D01*
X92142857Y-129776247D02*
X92142857Y-130014342D01*
X92142857Y-130014342D02*
X92095238Y-130109580D01*
X92095238Y-130109580D02*
X92047619Y-130157200D01*
X92047619Y-130157200D02*
X91952381Y-130204819D01*
X91952381Y-130204819D02*
X91714286Y-130204819D01*
X91714286Y-130204819D02*
X91619048Y-130157200D01*
X91619048Y-130157200D02*
X91571429Y-130109580D01*
X127238095Y-97454819D02*
X127238095Y-98264342D01*
X127238095Y-98264342D02*
X127285714Y-98359580D01*
X127285714Y-98359580D02*
X127333333Y-98407200D01*
X127333333Y-98407200D02*
X127428571Y-98454819D01*
X127428571Y-98454819D02*
X127619047Y-98454819D01*
X127619047Y-98454819D02*
X127714285Y-98407200D01*
X127714285Y-98407200D02*
X127761904Y-98359580D01*
X127761904Y-98359580D02*
X127809523Y-98264342D01*
X127809523Y-98264342D02*
X127809523Y-97454819D01*
X128714285Y-97454819D02*
X128523809Y-97454819D01*
X128523809Y-97454819D02*
X128428571Y-97502438D01*
X128428571Y-97502438D02*
X128380952Y-97550057D01*
X128380952Y-97550057D02*
X128285714Y-97692914D01*
X128285714Y-97692914D02*
X128238095Y-97883390D01*
X128238095Y-97883390D02*
X128238095Y-98264342D01*
X128238095Y-98264342D02*
X128285714Y-98359580D01*
X128285714Y-98359580D02*
X128333333Y-98407200D01*
X128333333Y-98407200D02*
X128428571Y-98454819D01*
X128428571Y-98454819D02*
X128619047Y-98454819D01*
X128619047Y-98454819D02*
X128714285Y-98407200D01*
X128714285Y-98407200D02*
X128761904Y-98359580D01*
X128761904Y-98359580D02*
X128809523Y-98264342D01*
X128809523Y-98264342D02*
X128809523Y-98026247D01*
X128809523Y-98026247D02*
X128761904Y-97931009D01*
X128761904Y-97931009D02*
X128714285Y-97883390D01*
X128714285Y-97883390D02*
X128619047Y-97835771D01*
X128619047Y-97835771D02*
X128428571Y-97835771D01*
X128428571Y-97835771D02*
X128333333Y-97883390D01*
X128333333Y-97883390D02*
X128285714Y-97931009D01*
X128285714Y-97931009D02*
X128238095Y-98026247D01*
X80190476Y-155204819D02*
X80190476Y-155919104D01*
X80190476Y-155919104D02*
X80142857Y-156061961D01*
X80142857Y-156061961D02*
X80047619Y-156157200D01*
X80047619Y-156157200D02*
X79904762Y-156204819D01*
X79904762Y-156204819D02*
X79809524Y-156204819D01*
X80619048Y-155300057D02*
X80666667Y-155252438D01*
X80666667Y-155252438D02*
X80761905Y-155204819D01*
X80761905Y-155204819D02*
X81000000Y-155204819D01*
X81000000Y-155204819D02*
X81095238Y-155252438D01*
X81095238Y-155252438D02*
X81142857Y-155300057D01*
X81142857Y-155300057D02*
X81190476Y-155395295D01*
X81190476Y-155395295D02*
X81190476Y-155490533D01*
X81190476Y-155490533D02*
X81142857Y-155633390D01*
X81142857Y-155633390D02*
X80571429Y-156204819D01*
X80571429Y-156204819D02*
X81190476Y-156204819D01*
X81571429Y-155300057D02*
X81619048Y-155252438D01*
X81619048Y-155252438D02*
X81714286Y-155204819D01*
X81714286Y-155204819D02*
X81952381Y-155204819D01*
X81952381Y-155204819D02*
X82047619Y-155252438D01*
X82047619Y-155252438D02*
X82095238Y-155300057D01*
X82095238Y-155300057D02*
X82142857Y-155395295D01*
X82142857Y-155395295D02*
X82142857Y-155490533D01*
X82142857Y-155490533D02*
X82095238Y-155633390D01*
X82095238Y-155633390D02*
X81523810Y-156204819D01*
X81523810Y-156204819D02*
X82142857Y-156204819D01*
X114190476Y-129204819D02*
X114190476Y-129919104D01*
X114190476Y-129919104D02*
X114142857Y-130061961D01*
X114142857Y-130061961D02*
X114047619Y-130157200D01*
X114047619Y-130157200D02*
X113904762Y-130204819D01*
X113904762Y-130204819D02*
X113809524Y-130204819D01*
X114571429Y-129204819D02*
X115190476Y-129204819D01*
X115190476Y-129204819D02*
X114857143Y-129585771D01*
X114857143Y-129585771D02*
X115000000Y-129585771D01*
X115000000Y-129585771D02*
X115095238Y-129633390D01*
X115095238Y-129633390D02*
X115142857Y-129681009D01*
X115142857Y-129681009D02*
X115190476Y-129776247D01*
X115190476Y-129776247D02*
X115190476Y-130014342D01*
X115190476Y-130014342D02*
X115142857Y-130109580D01*
X115142857Y-130109580D02*
X115095238Y-130157200D01*
X115095238Y-130157200D02*
X115000000Y-130204819D01*
X115000000Y-130204819D02*
X114714286Y-130204819D01*
X114714286Y-130204819D02*
X114619048Y-130157200D01*
X114619048Y-130157200D02*
X114571429Y-130109580D01*
X116142857Y-130204819D02*
X115571429Y-130204819D01*
X115857143Y-130204819D02*
X115857143Y-129204819D01*
X115857143Y-129204819D02*
X115761905Y-129347676D01*
X115761905Y-129347676D02*
X115666667Y-129442914D01*
X115666667Y-129442914D02*
X115571429Y-129490533D01*
D11*
X116933333Y-105143832D02*
X116914285Y-105162880D01*
X116914285Y-105162880D02*
X116857143Y-105181927D01*
X116857143Y-105181927D02*
X116819047Y-105181927D01*
X116819047Y-105181927D02*
X116761904Y-105162880D01*
X116761904Y-105162880D02*
X116723809Y-105124784D01*
X116723809Y-105124784D02*
X116704762Y-105086689D01*
X116704762Y-105086689D02*
X116685714Y-105010499D01*
X116685714Y-105010499D02*
X116685714Y-104953356D01*
X116685714Y-104953356D02*
X116704762Y-104877165D01*
X116704762Y-104877165D02*
X116723809Y-104839070D01*
X116723809Y-104839070D02*
X116761904Y-104800975D01*
X116761904Y-104800975D02*
X116819047Y-104781927D01*
X116819047Y-104781927D02*
X116857143Y-104781927D01*
X116857143Y-104781927D02*
X116914285Y-104800975D01*
X116914285Y-104800975D02*
X116933333Y-104820022D01*
X117276190Y-104915260D02*
X117276190Y-105181927D01*
X117180952Y-104762880D02*
X117085714Y-105048594D01*
X117085714Y-105048594D02*
X117333333Y-105048594D01*
D10*
X145238095Y-102454819D02*
X145238095Y-103264342D01*
X145238095Y-103264342D02*
X145285714Y-103359580D01*
X145285714Y-103359580D02*
X145333333Y-103407200D01*
X145333333Y-103407200D02*
X145428571Y-103454819D01*
X145428571Y-103454819D02*
X145619047Y-103454819D01*
X145619047Y-103454819D02*
X145714285Y-103407200D01*
X145714285Y-103407200D02*
X145761904Y-103359580D01*
X145761904Y-103359580D02*
X145809523Y-103264342D01*
X145809523Y-103264342D02*
X145809523Y-102454819D01*
X146238095Y-102550057D02*
X146285714Y-102502438D01*
X146285714Y-102502438D02*
X146380952Y-102454819D01*
X146380952Y-102454819D02*
X146619047Y-102454819D01*
X146619047Y-102454819D02*
X146714285Y-102502438D01*
X146714285Y-102502438D02*
X146761904Y-102550057D01*
X146761904Y-102550057D02*
X146809523Y-102645295D01*
X146809523Y-102645295D02*
X146809523Y-102740533D01*
X146809523Y-102740533D02*
X146761904Y-102883390D01*
X146761904Y-102883390D02*
X146190476Y-103454819D01*
X146190476Y-103454819D02*
X146809523Y-103454819D01*
D11*
X139742857Y-102181927D02*
X139609524Y-101991451D01*
X139514286Y-102181927D02*
X139514286Y-101781927D01*
X139514286Y-101781927D02*
X139666667Y-101781927D01*
X139666667Y-101781927D02*
X139704762Y-101800975D01*
X139704762Y-101800975D02*
X139723809Y-101820022D01*
X139723809Y-101820022D02*
X139742857Y-101858118D01*
X139742857Y-101858118D02*
X139742857Y-101915260D01*
X139742857Y-101915260D02*
X139723809Y-101953356D01*
X139723809Y-101953356D02*
X139704762Y-101972403D01*
X139704762Y-101972403D02*
X139666667Y-101991451D01*
X139666667Y-101991451D02*
X139514286Y-101991451D01*
X139876190Y-101781927D02*
X140123809Y-101781927D01*
X140123809Y-101781927D02*
X139990476Y-101934308D01*
X139990476Y-101934308D02*
X140047619Y-101934308D01*
X140047619Y-101934308D02*
X140085714Y-101953356D01*
X140085714Y-101953356D02*
X140104762Y-101972403D01*
X140104762Y-101972403D02*
X140123809Y-102010499D01*
X140123809Y-102010499D02*
X140123809Y-102105737D01*
X140123809Y-102105737D02*
X140104762Y-102143832D01*
X140104762Y-102143832D02*
X140085714Y-102162880D01*
X140085714Y-102162880D02*
X140047619Y-102181927D01*
X140047619Y-102181927D02*
X139933333Y-102181927D01*
X139933333Y-102181927D02*
X139895238Y-102162880D01*
X139895238Y-102162880D02*
X139876190Y-102143832D01*
X140485714Y-101781927D02*
X140295238Y-101781927D01*
X140295238Y-101781927D02*
X140276190Y-101972403D01*
X140276190Y-101972403D02*
X140295238Y-101953356D01*
X140295238Y-101953356D02*
X140333333Y-101934308D01*
X140333333Y-101934308D02*
X140428571Y-101934308D01*
X140428571Y-101934308D02*
X140466666Y-101953356D01*
X140466666Y-101953356D02*
X140485714Y-101972403D01*
X140485714Y-101972403D02*
X140504761Y-102010499D01*
X140504761Y-102010499D02*
X140504761Y-102105737D01*
X140504761Y-102105737D02*
X140485714Y-102143832D01*
X140485714Y-102143832D02*
X140466666Y-102162880D01*
X140466666Y-102162880D02*
X140428571Y-102181927D01*
X140428571Y-102181927D02*
X140333333Y-102181927D01*
X140333333Y-102181927D02*
X140295238Y-102162880D01*
X140295238Y-102162880D02*
X140276190Y-102143832D01*
D10*
X104190476Y-142204819D02*
X104190476Y-142919104D01*
X104190476Y-142919104D02*
X104142857Y-143061961D01*
X104142857Y-143061961D02*
X104047619Y-143157200D01*
X104047619Y-143157200D02*
X103904762Y-143204819D01*
X103904762Y-143204819D02*
X103809524Y-143204819D01*
X104571429Y-142204819D02*
X105190476Y-142204819D01*
X105190476Y-142204819D02*
X104857143Y-142585771D01*
X104857143Y-142585771D02*
X105000000Y-142585771D01*
X105000000Y-142585771D02*
X105095238Y-142633390D01*
X105095238Y-142633390D02*
X105142857Y-142681009D01*
X105142857Y-142681009D02*
X105190476Y-142776247D01*
X105190476Y-142776247D02*
X105190476Y-143014342D01*
X105190476Y-143014342D02*
X105142857Y-143109580D01*
X105142857Y-143109580D02*
X105095238Y-143157200D01*
X105095238Y-143157200D02*
X105000000Y-143204819D01*
X105000000Y-143204819D02*
X104714286Y-143204819D01*
X104714286Y-143204819D02*
X104619048Y-143157200D01*
X104619048Y-143157200D02*
X104571429Y-143109580D01*
X106047619Y-142538152D02*
X106047619Y-143204819D01*
X105809524Y-142157200D02*
X105571429Y-142871485D01*
X105571429Y-142871485D02*
X106190476Y-142871485D01*
X138190476Y-148704819D02*
X138190476Y-149419104D01*
X138190476Y-149419104D02*
X138142857Y-149561961D01*
X138142857Y-149561961D02*
X138047619Y-149657200D01*
X138047619Y-149657200D02*
X137904762Y-149704819D01*
X137904762Y-149704819D02*
X137809524Y-149704819D01*
X139142857Y-148704819D02*
X138666667Y-148704819D01*
X138666667Y-148704819D02*
X138619048Y-149181009D01*
X138619048Y-149181009D02*
X138666667Y-149133390D01*
X138666667Y-149133390D02*
X138761905Y-149085771D01*
X138761905Y-149085771D02*
X139000000Y-149085771D01*
X139000000Y-149085771D02*
X139095238Y-149133390D01*
X139095238Y-149133390D02*
X139142857Y-149181009D01*
X139142857Y-149181009D02*
X139190476Y-149276247D01*
X139190476Y-149276247D02*
X139190476Y-149514342D01*
X139190476Y-149514342D02*
X139142857Y-149609580D01*
X139142857Y-149609580D02*
X139095238Y-149657200D01*
X139095238Y-149657200D02*
X139000000Y-149704819D01*
X139000000Y-149704819D02*
X138761905Y-149704819D01*
X138761905Y-149704819D02*
X138666667Y-149657200D01*
X138666667Y-149657200D02*
X138619048Y-149609580D01*
X139523810Y-148704819D02*
X140142857Y-148704819D01*
X140142857Y-148704819D02*
X139809524Y-149085771D01*
X139809524Y-149085771D02*
X139952381Y-149085771D01*
X139952381Y-149085771D02*
X140047619Y-149133390D01*
X140047619Y-149133390D02*
X140095238Y-149181009D01*
X140095238Y-149181009D02*
X140142857Y-149276247D01*
X140142857Y-149276247D02*
X140142857Y-149514342D01*
X140142857Y-149514342D02*
X140095238Y-149609580D01*
X140095238Y-149609580D02*
X140047619Y-149657200D01*
X140047619Y-149657200D02*
X139952381Y-149704819D01*
X139952381Y-149704819D02*
X139666667Y-149704819D01*
X139666667Y-149704819D02*
X139571429Y-149657200D01*
X139571429Y-149657200D02*
X139523810Y-149609580D01*
D14*
X84395937Y-85068571D02*
X84361651Y-85137142D01*
X84361651Y-85137142D02*
X84293080Y-85205714D01*
X84293080Y-85205714D02*
X84190222Y-85308571D01*
X84190222Y-85308571D02*
X84155937Y-85377142D01*
X84155937Y-85377142D02*
X84155937Y-85445714D01*
X84327365Y-85411428D02*
X84293080Y-85480000D01*
X84293080Y-85480000D02*
X84224508Y-85548571D01*
X84224508Y-85548571D02*
X84087365Y-85582857D01*
X84087365Y-85582857D02*
X83847365Y-85582857D01*
X83847365Y-85582857D02*
X83710222Y-85548571D01*
X83710222Y-85548571D02*
X83641651Y-85480000D01*
X83641651Y-85480000D02*
X83607365Y-85411428D01*
X83607365Y-85411428D02*
X83607365Y-85274285D01*
X83607365Y-85274285D02*
X83641651Y-85205714D01*
X83641651Y-85205714D02*
X83710222Y-85137142D01*
X83710222Y-85137142D02*
X83847365Y-85102857D01*
X83847365Y-85102857D02*
X84087365Y-85102857D01*
X84087365Y-85102857D02*
X84224508Y-85137142D01*
X84224508Y-85137142D02*
X84293080Y-85205714D01*
X84293080Y-85205714D02*
X84327365Y-85274285D01*
X84327365Y-85274285D02*
X84327365Y-85411428D01*
X84327365Y-84417142D02*
X84327365Y-84828571D01*
X84327365Y-84622856D02*
X83607365Y-84622856D01*
X83607365Y-84622856D02*
X83710222Y-84691428D01*
X83710222Y-84691428D02*
X83778794Y-84759999D01*
X83778794Y-84759999D02*
X83813080Y-84828571D01*
D10*
X90190476Y-122704819D02*
X90190476Y-123419104D01*
X90190476Y-123419104D02*
X90142857Y-123561961D01*
X90142857Y-123561961D02*
X90047619Y-123657200D01*
X90047619Y-123657200D02*
X89904762Y-123704819D01*
X89904762Y-123704819D02*
X89809524Y-123704819D01*
X91190476Y-123704819D02*
X90619048Y-123704819D01*
X90904762Y-123704819D02*
X90904762Y-122704819D01*
X90904762Y-122704819D02*
X90809524Y-122847676D01*
X90809524Y-122847676D02*
X90714286Y-122942914D01*
X90714286Y-122942914D02*
X90619048Y-122990533D01*
X91523810Y-122704819D02*
X92142857Y-122704819D01*
X92142857Y-122704819D02*
X91809524Y-123085771D01*
X91809524Y-123085771D02*
X91952381Y-123085771D01*
X91952381Y-123085771D02*
X92047619Y-123133390D01*
X92047619Y-123133390D02*
X92095238Y-123181009D01*
X92095238Y-123181009D02*
X92142857Y-123276247D01*
X92142857Y-123276247D02*
X92142857Y-123514342D01*
X92142857Y-123514342D02*
X92095238Y-123609580D01*
X92095238Y-123609580D02*
X92047619Y-123657200D01*
X92047619Y-123657200D02*
X91952381Y-123704819D01*
X91952381Y-123704819D02*
X91666667Y-123704819D01*
X91666667Y-123704819D02*
X91571429Y-123657200D01*
X91571429Y-123657200D02*
X91523810Y-123609580D01*
D11*
X103742857Y-85181927D02*
X103609524Y-84991451D01*
X103514286Y-85181927D02*
X103514286Y-84781927D01*
X103514286Y-84781927D02*
X103666667Y-84781927D01*
X103666667Y-84781927D02*
X103704762Y-84800975D01*
X103704762Y-84800975D02*
X103723809Y-84820022D01*
X103723809Y-84820022D02*
X103742857Y-84858118D01*
X103742857Y-84858118D02*
X103742857Y-84915260D01*
X103742857Y-84915260D02*
X103723809Y-84953356D01*
X103723809Y-84953356D02*
X103704762Y-84972403D01*
X103704762Y-84972403D02*
X103666667Y-84991451D01*
X103666667Y-84991451D02*
X103514286Y-84991451D01*
X104123809Y-85181927D02*
X103895238Y-85181927D01*
X104009524Y-85181927D02*
X104009524Y-84781927D01*
X104009524Y-84781927D02*
X103971428Y-84839070D01*
X103971428Y-84839070D02*
X103933333Y-84877165D01*
X103933333Y-84877165D02*
X103895238Y-84896213D01*
X104485714Y-84781927D02*
X104295238Y-84781927D01*
X104295238Y-84781927D02*
X104276190Y-84972403D01*
X104276190Y-84972403D02*
X104295238Y-84953356D01*
X104295238Y-84953356D02*
X104333333Y-84934308D01*
X104333333Y-84934308D02*
X104428571Y-84934308D01*
X104428571Y-84934308D02*
X104466666Y-84953356D01*
X104466666Y-84953356D02*
X104485714Y-84972403D01*
X104485714Y-84972403D02*
X104504761Y-85010499D01*
X104504761Y-85010499D02*
X104504761Y-85105737D01*
X104504761Y-85105737D02*
X104485714Y-85143832D01*
X104485714Y-85143832D02*
X104466666Y-85162880D01*
X104466666Y-85162880D02*
X104428571Y-85181927D01*
X104428571Y-85181927D02*
X104333333Y-85181927D01*
X104333333Y-85181927D02*
X104295238Y-85162880D01*
X104295238Y-85162880D02*
X104276190Y-85143832D01*
D10*
X128190476Y-135704819D02*
X128190476Y-136419104D01*
X128190476Y-136419104D02*
X128142857Y-136561961D01*
X128142857Y-136561961D02*
X128047619Y-136657200D01*
X128047619Y-136657200D02*
X127904762Y-136704819D01*
X127904762Y-136704819D02*
X127809524Y-136704819D01*
X129095238Y-136038152D02*
X129095238Y-136704819D01*
X128857143Y-135657200D02*
X128619048Y-136371485D01*
X128619048Y-136371485D02*
X129238095Y-136371485D01*
X129761905Y-136133390D02*
X129666667Y-136085771D01*
X129666667Y-136085771D02*
X129619048Y-136038152D01*
X129619048Y-136038152D02*
X129571429Y-135942914D01*
X129571429Y-135942914D02*
X129571429Y-135895295D01*
X129571429Y-135895295D02*
X129619048Y-135800057D01*
X129619048Y-135800057D02*
X129666667Y-135752438D01*
X129666667Y-135752438D02*
X129761905Y-135704819D01*
X129761905Y-135704819D02*
X129952381Y-135704819D01*
X129952381Y-135704819D02*
X130047619Y-135752438D01*
X130047619Y-135752438D02*
X130095238Y-135800057D01*
X130095238Y-135800057D02*
X130142857Y-135895295D01*
X130142857Y-135895295D02*
X130142857Y-135942914D01*
X130142857Y-135942914D02*
X130095238Y-136038152D01*
X130095238Y-136038152D02*
X130047619Y-136085771D01*
X130047619Y-136085771D02*
X129952381Y-136133390D01*
X129952381Y-136133390D02*
X129761905Y-136133390D01*
X129761905Y-136133390D02*
X129666667Y-136181009D01*
X129666667Y-136181009D02*
X129619048Y-136228628D01*
X129619048Y-136228628D02*
X129571429Y-136323866D01*
X129571429Y-136323866D02*
X129571429Y-136514342D01*
X129571429Y-136514342D02*
X129619048Y-136609580D01*
X129619048Y-136609580D02*
X129666667Y-136657200D01*
X129666667Y-136657200D02*
X129761905Y-136704819D01*
X129761905Y-136704819D02*
X129952381Y-136704819D01*
X129952381Y-136704819D02*
X130047619Y-136657200D01*
X130047619Y-136657200D02*
X130095238Y-136609580D01*
X130095238Y-136609580D02*
X130142857Y-136514342D01*
X130142857Y-136514342D02*
X130142857Y-136323866D01*
X130142857Y-136323866D02*
X130095238Y-136228628D01*
X130095238Y-136228628D02*
X130047619Y-136181009D01*
X130047619Y-136181009D02*
X129952381Y-136133390D01*
X128190476Y-122704819D02*
X128190476Y-123419104D01*
X128190476Y-123419104D02*
X128142857Y-123561961D01*
X128142857Y-123561961D02*
X128047619Y-123657200D01*
X128047619Y-123657200D02*
X127904762Y-123704819D01*
X127904762Y-123704819D02*
X127809524Y-123704819D01*
X129095238Y-123038152D02*
X129095238Y-123704819D01*
X128857143Y-122657200D02*
X128619048Y-123371485D01*
X128619048Y-123371485D02*
X129238095Y-123371485D01*
X130047619Y-123038152D02*
X130047619Y-123704819D01*
X129809524Y-122657200D02*
X129571429Y-123371485D01*
X129571429Y-123371485D02*
X130190476Y-123371485D01*
D11*
X79933333Y-93643832D02*
X79914285Y-93662880D01*
X79914285Y-93662880D02*
X79857143Y-93681927D01*
X79857143Y-93681927D02*
X79819047Y-93681927D01*
X79819047Y-93681927D02*
X79761904Y-93662880D01*
X79761904Y-93662880D02*
X79723809Y-93624784D01*
X79723809Y-93624784D02*
X79704762Y-93586689D01*
X79704762Y-93586689D02*
X79685714Y-93510499D01*
X79685714Y-93510499D02*
X79685714Y-93453356D01*
X79685714Y-93453356D02*
X79704762Y-93377165D01*
X79704762Y-93377165D02*
X79723809Y-93339070D01*
X79723809Y-93339070D02*
X79761904Y-93300975D01*
X79761904Y-93300975D02*
X79819047Y-93281927D01*
X79819047Y-93281927D02*
X79857143Y-93281927D01*
X79857143Y-93281927D02*
X79914285Y-93300975D01*
X79914285Y-93300975D02*
X79933333Y-93320022D01*
X80314285Y-93681927D02*
X80085714Y-93681927D01*
X80200000Y-93681927D02*
X80200000Y-93281927D01*
X80200000Y-93281927D02*
X80161904Y-93339070D01*
X80161904Y-93339070D02*
X80123809Y-93377165D01*
X80123809Y-93377165D02*
X80085714Y-93396213D01*
X103742857Y-82181927D02*
X103609524Y-81991451D01*
X103514286Y-82181927D02*
X103514286Y-81781927D01*
X103514286Y-81781927D02*
X103666667Y-81781927D01*
X103666667Y-81781927D02*
X103704762Y-81800975D01*
X103704762Y-81800975D02*
X103723809Y-81820022D01*
X103723809Y-81820022D02*
X103742857Y-81858118D01*
X103742857Y-81858118D02*
X103742857Y-81915260D01*
X103742857Y-81915260D02*
X103723809Y-81953356D01*
X103723809Y-81953356D02*
X103704762Y-81972403D01*
X103704762Y-81972403D02*
X103666667Y-81991451D01*
X103666667Y-81991451D02*
X103514286Y-81991451D01*
X104123809Y-82181927D02*
X103895238Y-82181927D01*
X104009524Y-82181927D02*
X104009524Y-81781927D01*
X104009524Y-81781927D02*
X103971428Y-81839070D01*
X103971428Y-81839070D02*
X103933333Y-81877165D01*
X103933333Y-81877165D02*
X103895238Y-81896213D01*
X104276190Y-81820022D02*
X104295238Y-81800975D01*
X104295238Y-81800975D02*
X104333333Y-81781927D01*
X104333333Y-81781927D02*
X104428571Y-81781927D01*
X104428571Y-81781927D02*
X104466666Y-81800975D01*
X104466666Y-81800975D02*
X104485714Y-81820022D01*
X104485714Y-81820022D02*
X104504761Y-81858118D01*
X104504761Y-81858118D02*
X104504761Y-81896213D01*
X104504761Y-81896213D02*
X104485714Y-81953356D01*
X104485714Y-81953356D02*
X104257142Y-82181927D01*
X104257142Y-82181927D02*
X104504761Y-82181927D01*
X135742857Y-102181927D02*
X135609524Y-101991451D01*
X135514286Y-102181927D02*
X135514286Y-101781927D01*
X135514286Y-101781927D02*
X135666667Y-101781927D01*
X135666667Y-101781927D02*
X135704762Y-101800975D01*
X135704762Y-101800975D02*
X135723809Y-101820022D01*
X135723809Y-101820022D02*
X135742857Y-101858118D01*
X135742857Y-101858118D02*
X135742857Y-101915260D01*
X135742857Y-101915260D02*
X135723809Y-101953356D01*
X135723809Y-101953356D02*
X135704762Y-101972403D01*
X135704762Y-101972403D02*
X135666667Y-101991451D01*
X135666667Y-101991451D02*
X135514286Y-101991451D01*
X135876190Y-101781927D02*
X136123809Y-101781927D01*
X136123809Y-101781927D02*
X135990476Y-101934308D01*
X135990476Y-101934308D02*
X136047619Y-101934308D01*
X136047619Y-101934308D02*
X136085714Y-101953356D01*
X136085714Y-101953356D02*
X136104762Y-101972403D01*
X136104762Y-101972403D02*
X136123809Y-102010499D01*
X136123809Y-102010499D02*
X136123809Y-102105737D01*
X136123809Y-102105737D02*
X136104762Y-102143832D01*
X136104762Y-102143832D02*
X136085714Y-102162880D01*
X136085714Y-102162880D02*
X136047619Y-102181927D01*
X136047619Y-102181927D02*
X135933333Y-102181927D01*
X135933333Y-102181927D02*
X135895238Y-102162880D01*
X135895238Y-102162880D02*
X135876190Y-102143832D01*
X136466666Y-101915260D02*
X136466666Y-102181927D01*
X136371428Y-101762880D02*
X136276190Y-102048594D01*
X136276190Y-102048594D02*
X136523809Y-102048594D01*
D10*
X128190476Y-148704819D02*
X128190476Y-149419104D01*
X128190476Y-149419104D02*
X128142857Y-149561961D01*
X128142857Y-149561961D02*
X128047619Y-149657200D01*
X128047619Y-149657200D02*
X127904762Y-149704819D01*
X127904762Y-149704819D02*
X127809524Y-149704819D01*
X129142857Y-148704819D02*
X128666667Y-148704819D01*
X128666667Y-148704819D02*
X128619048Y-149181009D01*
X128619048Y-149181009D02*
X128666667Y-149133390D01*
X128666667Y-149133390D02*
X128761905Y-149085771D01*
X128761905Y-149085771D02*
X129000000Y-149085771D01*
X129000000Y-149085771D02*
X129095238Y-149133390D01*
X129095238Y-149133390D02*
X129142857Y-149181009D01*
X129142857Y-149181009D02*
X129190476Y-149276247D01*
X129190476Y-149276247D02*
X129190476Y-149514342D01*
X129190476Y-149514342D02*
X129142857Y-149609580D01*
X129142857Y-149609580D02*
X129095238Y-149657200D01*
X129095238Y-149657200D02*
X129000000Y-149704819D01*
X129000000Y-149704819D02*
X128761905Y-149704819D01*
X128761905Y-149704819D02*
X128666667Y-149657200D01*
X128666667Y-149657200D02*
X128619048Y-149609580D01*
X129571429Y-148800057D02*
X129619048Y-148752438D01*
X129619048Y-148752438D02*
X129714286Y-148704819D01*
X129714286Y-148704819D02*
X129952381Y-148704819D01*
X129952381Y-148704819D02*
X130047619Y-148752438D01*
X130047619Y-148752438D02*
X130095238Y-148800057D01*
X130095238Y-148800057D02*
X130142857Y-148895295D01*
X130142857Y-148895295D02*
X130142857Y-148990533D01*
X130142857Y-148990533D02*
X130095238Y-149133390D01*
X130095238Y-149133390D02*
X129523810Y-149704819D01*
X129523810Y-149704819D02*
X130142857Y-149704819D01*
D11*
X92933333Y-105143832D02*
X92914285Y-105162880D01*
X92914285Y-105162880D02*
X92857143Y-105181927D01*
X92857143Y-105181927D02*
X92819047Y-105181927D01*
X92819047Y-105181927D02*
X92761904Y-105162880D01*
X92761904Y-105162880D02*
X92723809Y-105124784D01*
X92723809Y-105124784D02*
X92704762Y-105086689D01*
X92704762Y-105086689D02*
X92685714Y-105010499D01*
X92685714Y-105010499D02*
X92685714Y-104953356D01*
X92685714Y-104953356D02*
X92704762Y-104877165D01*
X92704762Y-104877165D02*
X92723809Y-104839070D01*
X92723809Y-104839070D02*
X92761904Y-104800975D01*
X92761904Y-104800975D02*
X92819047Y-104781927D01*
X92819047Y-104781927D02*
X92857143Y-104781927D01*
X92857143Y-104781927D02*
X92914285Y-104800975D01*
X92914285Y-104800975D02*
X92933333Y-104820022D01*
X93066666Y-104781927D02*
X93314285Y-104781927D01*
X93314285Y-104781927D02*
X93180952Y-104934308D01*
X93180952Y-104934308D02*
X93238095Y-104934308D01*
X93238095Y-104934308D02*
X93276190Y-104953356D01*
X93276190Y-104953356D02*
X93295238Y-104972403D01*
X93295238Y-104972403D02*
X93314285Y-105010499D01*
X93314285Y-105010499D02*
X93314285Y-105105737D01*
X93314285Y-105105737D02*
X93295238Y-105143832D01*
X93295238Y-105143832D02*
X93276190Y-105162880D01*
X93276190Y-105162880D02*
X93238095Y-105181927D01*
X93238095Y-105181927D02*
X93123809Y-105181927D01*
X93123809Y-105181927D02*
X93085714Y-105162880D01*
X93085714Y-105162880D02*
X93066666Y-105143832D01*
D10*
X121833333Y-86454819D02*
X121357143Y-86454819D01*
X121357143Y-86454819D02*
X121357143Y-85454819D01*
X122690476Y-86454819D02*
X122119048Y-86454819D01*
X122404762Y-86454819D02*
X122404762Y-85454819D01*
X122404762Y-85454819D02*
X122309524Y-85597676D01*
X122309524Y-85597676D02*
X122214286Y-85692914D01*
X122214286Y-85692914D02*
X122119048Y-85740533D01*
D13*
X123916666Y-92179530D02*
X123892857Y-92203340D01*
X123892857Y-92203340D02*
X123821428Y-92227149D01*
X123821428Y-92227149D02*
X123773809Y-92227149D01*
X123773809Y-92227149D02*
X123702381Y-92203340D01*
X123702381Y-92203340D02*
X123654762Y-92155720D01*
X123654762Y-92155720D02*
X123630952Y-92108101D01*
X123630952Y-92108101D02*
X123607143Y-92012863D01*
X123607143Y-92012863D02*
X123607143Y-91941435D01*
X123607143Y-91941435D02*
X123630952Y-91846197D01*
X123630952Y-91846197D02*
X123654762Y-91798578D01*
X123654762Y-91798578D02*
X123702381Y-91750959D01*
X123702381Y-91750959D02*
X123773809Y-91727149D01*
X123773809Y-91727149D02*
X123821428Y-91727149D01*
X123821428Y-91727149D02*
X123892857Y-91750959D01*
X123892857Y-91750959D02*
X123916666Y-91774768D01*
X124154762Y-92227149D02*
X124250000Y-92227149D01*
X124250000Y-92227149D02*
X124297619Y-92203340D01*
X124297619Y-92203340D02*
X124321428Y-92179530D01*
X124321428Y-92179530D02*
X124369047Y-92108101D01*
X124369047Y-92108101D02*
X124392857Y-92012863D01*
X124392857Y-92012863D02*
X124392857Y-91822387D01*
X124392857Y-91822387D02*
X124369047Y-91774768D01*
X124369047Y-91774768D02*
X124345238Y-91750959D01*
X124345238Y-91750959D02*
X124297619Y-91727149D01*
X124297619Y-91727149D02*
X124202381Y-91727149D01*
X124202381Y-91727149D02*
X124154762Y-91750959D01*
X124154762Y-91750959D02*
X124130952Y-91774768D01*
X124130952Y-91774768D02*
X124107143Y-91822387D01*
X124107143Y-91822387D02*
X124107143Y-91941435D01*
X124107143Y-91941435D02*
X124130952Y-91989054D01*
X124130952Y-91989054D02*
X124154762Y-92012863D01*
X124154762Y-92012863D02*
X124202381Y-92036673D01*
X124202381Y-92036673D02*
X124297619Y-92036673D01*
X124297619Y-92036673D02*
X124345238Y-92012863D01*
X124345238Y-92012863D02*
X124369047Y-91989054D01*
X124369047Y-91989054D02*
X124392857Y-91941435D01*
D11*
X133933333Y-99143832D02*
X133914285Y-99162880D01*
X133914285Y-99162880D02*
X133857143Y-99181927D01*
X133857143Y-99181927D02*
X133819047Y-99181927D01*
X133819047Y-99181927D02*
X133761904Y-99162880D01*
X133761904Y-99162880D02*
X133723809Y-99124784D01*
X133723809Y-99124784D02*
X133704762Y-99086689D01*
X133704762Y-99086689D02*
X133685714Y-99010499D01*
X133685714Y-99010499D02*
X133685714Y-98953356D01*
X133685714Y-98953356D02*
X133704762Y-98877165D01*
X133704762Y-98877165D02*
X133723809Y-98839070D01*
X133723809Y-98839070D02*
X133761904Y-98800975D01*
X133761904Y-98800975D02*
X133819047Y-98781927D01*
X133819047Y-98781927D02*
X133857143Y-98781927D01*
X133857143Y-98781927D02*
X133914285Y-98800975D01*
X133914285Y-98800975D02*
X133933333Y-98820022D01*
X134276190Y-98781927D02*
X134200000Y-98781927D01*
X134200000Y-98781927D02*
X134161904Y-98800975D01*
X134161904Y-98800975D02*
X134142857Y-98820022D01*
X134142857Y-98820022D02*
X134104762Y-98877165D01*
X134104762Y-98877165D02*
X134085714Y-98953356D01*
X134085714Y-98953356D02*
X134085714Y-99105737D01*
X134085714Y-99105737D02*
X134104762Y-99143832D01*
X134104762Y-99143832D02*
X134123809Y-99162880D01*
X134123809Y-99162880D02*
X134161904Y-99181927D01*
X134161904Y-99181927D02*
X134238095Y-99181927D01*
X134238095Y-99181927D02*
X134276190Y-99162880D01*
X134276190Y-99162880D02*
X134295238Y-99143832D01*
X134295238Y-99143832D02*
X134314285Y-99105737D01*
X134314285Y-99105737D02*
X134314285Y-99010499D01*
X134314285Y-99010499D02*
X134295238Y-98972403D01*
X134295238Y-98972403D02*
X134276190Y-98953356D01*
X134276190Y-98953356D02*
X134238095Y-98934308D01*
X134238095Y-98934308D02*
X134161904Y-98934308D01*
X134161904Y-98934308D02*
X134123809Y-98953356D01*
X134123809Y-98953356D02*
X134104762Y-98972403D01*
X134104762Y-98972403D02*
X134085714Y-99010499D01*
X147933333Y-109143832D02*
X147914285Y-109162880D01*
X147914285Y-109162880D02*
X147857143Y-109181927D01*
X147857143Y-109181927D02*
X147819047Y-109181927D01*
X147819047Y-109181927D02*
X147761904Y-109162880D01*
X147761904Y-109162880D02*
X147723809Y-109124784D01*
X147723809Y-109124784D02*
X147704762Y-109086689D01*
X147704762Y-109086689D02*
X147685714Y-109010499D01*
X147685714Y-109010499D02*
X147685714Y-108953356D01*
X147685714Y-108953356D02*
X147704762Y-108877165D01*
X147704762Y-108877165D02*
X147723809Y-108839070D01*
X147723809Y-108839070D02*
X147761904Y-108800975D01*
X147761904Y-108800975D02*
X147819047Y-108781927D01*
X147819047Y-108781927D02*
X147857143Y-108781927D01*
X147857143Y-108781927D02*
X147914285Y-108800975D01*
X147914285Y-108800975D02*
X147933333Y-108820022D01*
X148295238Y-108781927D02*
X148104762Y-108781927D01*
X148104762Y-108781927D02*
X148085714Y-108972403D01*
X148085714Y-108972403D02*
X148104762Y-108953356D01*
X148104762Y-108953356D02*
X148142857Y-108934308D01*
X148142857Y-108934308D02*
X148238095Y-108934308D01*
X148238095Y-108934308D02*
X148276190Y-108953356D01*
X148276190Y-108953356D02*
X148295238Y-108972403D01*
X148295238Y-108972403D02*
X148314285Y-109010499D01*
X148314285Y-109010499D02*
X148314285Y-109105737D01*
X148314285Y-109105737D02*
X148295238Y-109143832D01*
X148295238Y-109143832D02*
X148276190Y-109162880D01*
X148276190Y-109162880D02*
X148238095Y-109181927D01*
X148238095Y-109181927D02*
X148142857Y-109181927D01*
X148142857Y-109181927D02*
X148104762Y-109162880D01*
X148104762Y-109162880D02*
X148085714Y-109143832D01*
X115742857Y-102181927D02*
X115609524Y-101991451D01*
X115514286Y-102181927D02*
X115514286Y-101781927D01*
X115514286Y-101781927D02*
X115666667Y-101781927D01*
X115666667Y-101781927D02*
X115704762Y-101800975D01*
X115704762Y-101800975D02*
X115723809Y-101820022D01*
X115723809Y-101820022D02*
X115742857Y-101858118D01*
X115742857Y-101858118D02*
X115742857Y-101915260D01*
X115742857Y-101915260D02*
X115723809Y-101953356D01*
X115723809Y-101953356D02*
X115704762Y-101972403D01*
X115704762Y-101972403D02*
X115666667Y-101991451D01*
X115666667Y-101991451D02*
X115514286Y-101991451D01*
X115876190Y-101781927D02*
X116123809Y-101781927D01*
X116123809Y-101781927D02*
X115990476Y-101934308D01*
X115990476Y-101934308D02*
X116047619Y-101934308D01*
X116047619Y-101934308D02*
X116085714Y-101953356D01*
X116085714Y-101953356D02*
X116104762Y-101972403D01*
X116104762Y-101972403D02*
X116123809Y-102010499D01*
X116123809Y-102010499D02*
X116123809Y-102105737D01*
X116123809Y-102105737D02*
X116104762Y-102143832D01*
X116104762Y-102143832D02*
X116085714Y-102162880D01*
X116085714Y-102162880D02*
X116047619Y-102181927D01*
X116047619Y-102181927D02*
X115933333Y-102181927D01*
X115933333Y-102181927D02*
X115895238Y-102162880D01*
X115895238Y-102162880D02*
X115876190Y-102143832D01*
X116257142Y-101781927D02*
X116504761Y-101781927D01*
X116504761Y-101781927D02*
X116371428Y-101934308D01*
X116371428Y-101934308D02*
X116428571Y-101934308D01*
X116428571Y-101934308D02*
X116466666Y-101953356D01*
X116466666Y-101953356D02*
X116485714Y-101972403D01*
X116485714Y-101972403D02*
X116504761Y-102010499D01*
X116504761Y-102010499D02*
X116504761Y-102105737D01*
X116504761Y-102105737D02*
X116485714Y-102143832D01*
X116485714Y-102143832D02*
X116466666Y-102162880D01*
X116466666Y-102162880D02*
X116428571Y-102181927D01*
X116428571Y-102181927D02*
X116314285Y-102181927D01*
X116314285Y-102181927D02*
X116276190Y-102162880D01*
X116276190Y-102162880D02*
X116257142Y-102143832D01*
D10*
X107074819Y-88333333D02*
X107789104Y-88333333D01*
X107789104Y-88333333D02*
X107931961Y-88380952D01*
X107931961Y-88380952D02*
X108027200Y-88476190D01*
X108027200Y-88476190D02*
X108074819Y-88619047D01*
X108074819Y-88619047D02*
X108074819Y-88714285D01*
X107170057Y-87904761D02*
X107122438Y-87857142D01*
X107122438Y-87857142D02*
X107074819Y-87761904D01*
X107074819Y-87761904D02*
X107074819Y-87523809D01*
X107074819Y-87523809D02*
X107122438Y-87428571D01*
X107122438Y-87428571D02*
X107170057Y-87380952D01*
X107170057Y-87380952D02*
X107265295Y-87333333D01*
X107265295Y-87333333D02*
X107360533Y-87333333D01*
X107360533Y-87333333D02*
X107503390Y-87380952D01*
X107503390Y-87380952D02*
X108074819Y-87952380D01*
X108074819Y-87952380D02*
X108074819Y-87333333D01*
X114190476Y-142204819D02*
X114190476Y-142919104D01*
X114190476Y-142919104D02*
X114142857Y-143061961D01*
X114142857Y-143061961D02*
X114047619Y-143157200D01*
X114047619Y-143157200D02*
X113904762Y-143204819D01*
X113904762Y-143204819D02*
X113809524Y-143204819D01*
X114571429Y-142204819D02*
X115190476Y-142204819D01*
X115190476Y-142204819D02*
X114857143Y-142585771D01*
X114857143Y-142585771D02*
X115000000Y-142585771D01*
X115000000Y-142585771D02*
X115095238Y-142633390D01*
X115095238Y-142633390D02*
X115142857Y-142681009D01*
X115142857Y-142681009D02*
X115190476Y-142776247D01*
X115190476Y-142776247D02*
X115190476Y-143014342D01*
X115190476Y-143014342D02*
X115142857Y-143109580D01*
X115142857Y-143109580D02*
X115095238Y-143157200D01*
X115095238Y-143157200D02*
X115000000Y-143204819D01*
X115000000Y-143204819D02*
X114714286Y-143204819D01*
X114714286Y-143204819D02*
X114619048Y-143157200D01*
X114619048Y-143157200D02*
X114571429Y-143109580D01*
X116095238Y-142204819D02*
X115619048Y-142204819D01*
X115619048Y-142204819D02*
X115571429Y-142681009D01*
X115571429Y-142681009D02*
X115619048Y-142633390D01*
X115619048Y-142633390D02*
X115714286Y-142585771D01*
X115714286Y-142585771D02*
X115952381Y-142585771D01*
X115952381Y-142585771D02*
X116047619Y-142633390D01*
X116047619Y-142633390D02*
X116095238Y-142681009D01*
X116095238Y-142681009D02*
X116142857Y-142776247D01*
X116142857Y-142776247D02*
X116142857Y-143014342D01*
X116142857Y-143014342D02*
X116095238Y-143109580D01*
X116095238Y-143109580D02*
X116047619Y-143157200D01*
X116047619Y-143157200D02*
X115952381Y-143204819D01*
X115952381Y-143204819D02*
X115714286Y-143204819D01*
X115714286Y-143204819D02*
X115619048Y-143157200D01*
X115619048Y-143157200D02*
X115571429Y-143109580D01*
X80190476Y-142204819D02*
X80190476Y-142919104D01*
X80190476Y-142919104D02*
X80142857Y-143061961D01*
X80142857Y-143061961D02*
X80047619Y-143157200D01*
X80047619Y-143157200D02*
X79904762Y-143204819D01*
X79904762Y-143204819D02*
X79809524Y-143204819D01*
X81190476Y-143204819D02*
X80619048Y-143204819D01*
X80904762Y-143204819D02*
X80904762Y-142204819D01*
X80904762Y-142204819D02*
X80809524Y-142347676D01*
X80809524Y-142347676D02*
X80714286Y-142442914D01*
X80714286Y-142442914D02*
X80619048Y-142490533D01*
X81761905Y-142633390D02*
X81666667Y-142585771D01*
X81666667Y-142585771D02*
X81619048Y-142538152D01*
X81619048Y-142538152D02*
X81571429Y-142442914D01*
X81571429Y-142442914D02*
X81571429Y-142395295D01*
X81571429Y-142395295D02*
X81619048Y-142300057D01*
X81619048Y-142300057D02*
X81666667Y-142252438D01*
X81666667Y-142252438D02*
X81761905Y-142204819D01*
X81761905Y-142204819D02*
X81952381Y-142204819D01*
X81952381Y-142204819D02*
X82047619Y-142252438D01*
X82047619Y-142252438D02*
X82095238Y-142300057D01*
X82095238Y-142300057D02*
X82142857Y-142395295D01*
X82142857Y-142395295D02*
X82142857Y-142442914D01*
X82142857Y-142442914D02*
X82095238Y-142538152D01*
X82095238Y-142538152D02*
X82047619Y-142585771D01*
X82047619Y-142585771D02*
X81952381Y-142633390D01*
X81952381Y-142633390D02*
X81761905Y-142633390D01*
X81761905Y-142633390D02*
X81666667Y-142681009D01*
X81666667Y-142681009D02*
X81619048Y-142728628D01*
X81619048Y-142728628D02*
X81571429Y-142823866D01*
X81571429Y-142823866D02*
X81571429Y-143014342D01*
X81571429Y-143014342D02*
X81619048Y-143109580D01*
X81619048Y-143109580D02*
X81666667Y-143157200D01*
X81666667Y-143157200D02*
X81761905Y-143204819D01*
X81761905Y-143204819D02*
X81952381Y-143204819D01*
X81952381Y-143204819D02*
X82047619Y-143157200D01*
X82047619Y-143157200D02*
X82095238Y-143109580D01*
X82095238Y-143109580D02*
X82142857Y-143014342D01*
X82142857Y-143014342D02*
X82142857Y-142823866D01*
X82142857Y-142823866D02*
X82095238Y-142728628D01*
X82095238Y-142728628D02*
X82047619Y-142681009D01*
X82047619Y-142681009D02*
X81952381Y-142633390D01*
X80190476Y-122704819D02*
X80190476Y-123419104D01*
X80190476Y-123419104D02*
X80142857Y-123561961D01*
X80142857Y-123561961D02*
X80047619Y-123657200D01*
X80047619Y-123657200D02*
X79904762Y-123704819D01*
X79904762Y-123704819D02*
X79809524Y-123704819D01*
X81190476Y-123704819D02*
X80619048Y-123704819D01*
X80904762Y-123704819D02*
X80904762Y-122704819D01*
X80904762Y-122704819D02*
X80809524Y-122847676D01*
X80809524Y-122847676D02*
X80714286Y-122942914D01*
X80714286Y-122942914D02*
X80619048Y-122990533D01*
X81571429Y-122800057D02*
X81619048Y-122752438D01*
X81619048Y-122752438D02*
X81714286Y-122704819D01*
X81714286Y-122704819D02*
X81952381Y-122704819D01*
X81952381Y-122704819D02*
X82047619Y-122752438D01*
X82047619Y-122752438D02*
X82095238Y-122800057D01*
X82095238Y-122800057D02*
X82142857Y-122895295D01*
X82142857Y-122895295D02*
X82142857Y-122990533D01*
X82142857Y-122990533D02*
X82095238Y-123133390D01*
X82095238Y-123133390D02*
X81523810Y-123704819D01*
X81523810Y-123704819D02*
X82142857Y-123704819D01*
X85238095Y-108454819D02*
X85238095Y-109264342D01*
X85238095Y-109264342D02*
X85285714Y-109359580D01*
X85285714Y-109359580D02*
X85333333Y-109407200D01*
X85333333Y-109407200D02*
X85428571Y-109454819D01*
X85428571Y-109454819D02*
X85619047Y-109454819D01*
X85619047Y-109454819D02*
X85714285Y-109407200D01*
X85714285Y-109407200D02*
X85761904Y-109359580D01*
X85761904Y-109359580D02*
X85809523Y-109264342D01*
X85809523Y-109264342D02*
X85809523Y-108454819D01*
X86190476Y-108454819D02*
X86809523Y-108454819D01*
X86809523Y-108454819D02*
X86476190Y-108835771D01*
X86476190Y-108835771D02*
X86619047Y-108835771D01*
X86619047Y-108835771D02*
X86714285Y-108883390D01*
X86714285Y-108883390D02*
X86761904Y-108931009D01*
X86761904Y-108931009D02*
X86809523Y-109026247D01*
X86809523Y-109026247D02*
X86809523Y-109264342D01*
X86809523Y-109264342D02*
X86761904Y-109359580D01*
X86761904Y-109359580D02*
X86714285Y-109407200D01*
X86714285Y-109407200D02*
X86619047Y-109454819D01*
X86619047Y-109454819D02*
X86333333Y-109454819D01*
X86333333Y-109454819D02*
X86238095Y-109407200D01*
X86238095Y-109407200D02*
X86190476Y-109359580D01*
%TO.C,J54*%
D15*
X125500000Y-154100000D02*
X132500000Y-154100000D01*
X125500000Y-157000000D02*
X125500000Y-154100000D01*
X125500000Y-157000000D02*
X132500000Y-157000000D01*
X126500000Y-157000000D02*
X127000000Y-156292893D01*
X127000000Y-156292893D02*
X127500000Y-157000000D01*
X132500000Y-157000000D02*
X132500000Y-154100000D01*
X126850000Y-154450000D02*
X127150000Y-154450000D01*
X127150000Y-155050000D01*
X126850000Y-155050000D01*
X126850000Y-154450000D01*
X127850000Y-154450000D02*
X128150000Y-154450000D01*
X128150000Y-155050000D01*
X127850000Y-155050000D01*
X127850000Y-154450000D01*
X128850000Y-154450000D02*
X129150000Y-154450000D01*
X129150000Y-155050000D01*
X128850000Y-155050000D01*
X128850000Y-154450000D01*
X129850000Y-154450000D02*
X130150000Y-154450000D01*
X130150000Y-155050000D01*
X129850000Y-155050000D01*
X129850000Y-154450000D01*
X130850000Y-154450000D02*
X131150000Y-154450000D01*
X131150000Y-155050000D01*
X130850000Y-155050000D01*
X130850000Y-154450000D01*
%TO.C,R40*%
X93200000Y-109587500D02*
X94800000Y-109587500D01*
X94800000Y-110412500D01*
X93200000Y-110412500D01*
X93200000Y-109587500D01*
%TO.C,J29*%
X111500000Y-121600000D02*
X118500000Y-121600000D01*
X111500000Y-124500000D02*
X111500000Y-121600000D01*
X111500000Y-124500000D02*
X118500000Y-124500000D01*
X112500000Y-124500000D02*
X113000000Y-123792893D01*
X113000000Y-123792893D02*
X113500000Y-124500000D01*
X118500000Y-124500000D02*
X118500000Y-121600000D01*
X112850000Y-121950000D02*
X113150000Y-121950000D01*
X113150000Y-122550000D01*
X112850000Y-122550000D01*
X112850000Y-121950000D01*
X113850000Y-121950000D02*
X114150000Y-121950000D01*
X114150000Y-122550000D01*
X113850000Y-122550000D01*
X113850000Y-121950000D01*
X114850000Y-121950000D02*
X115150000Y-121950000D01*
X115150000Y-122550000D01*
X114850000Y-122550000D01*
X114850000Y-121950000D01*
X115850000Y-121950000D02*
X116150000Y-121950000D01*
X116150000Y-122550000D01*
X115850000Y-122550000D01*
X115850000Y-121950000D01*
X116850000Y-121950000D02*
X117150000Y-121950000D01*
X117150000Y-122550000D01*
X116850000Y-122550000D01*
X116850000Y-121950000D01*
%TO.C,F4*%
X143400000Y-87200000D02*
X146600000Y-87200000D01*
X146600000Y-88800000D01*
X143400000Y-88800000D01*
X143400000Y-87200000D01*
%TO.C,J45*%
X135500000Y-121600000D02*
X142500000Y-121600000D01*
X135500000Y-124500000D02*
X135500000Y-121600000D01*
X135500000Y-124500000D02*
X142500000Y-124500000D01*
X136500000Y-124500000D02*
X137000000Y-123792893D01*
X137000000Y-123792893D02*
X137500000Y-124500000D01*
X142500000Y-124500000D02*
X142500000Y-121600000D01*
X136850000Y-121950000D02*
X137150000Y-121950000D01*
X137150000Y-122550000D01*
X136850000Y-122550000D01*
X136850000Y-121950000D01*
X137850000Y-121950000D02*
X138150000Y-121950000D01*
X138150000Y-122550000D01*
X137850000Y-122550000D01*
X137850000Y-121950000D01*
X138850000Y-121950000D02*
X139150000Y-121950000D01*
X139150000Y-122550000D01*
X138850000Y-122550000D01*
X138850000Y-121950000D01*
X139850000Y-121950000D02*
X140150000Y-121950000D01*
X140150000Y-122550000D01*
X139850000Y-122550000D01*
X139850000Y-121950000D01*
X140850000Y-121950000D02*
X141150000Y-121950000D01*
X141150000Y-122550000D01*
X140850000Y-122550000D01*
X140850000Y-121950000D01*
%TO.C,J32*%
X101500000Y-134600000D02*
X108500000Y-134600000D01*
X101500000Y-137500000D02*
X101500000Y-134600000D01*
X101500000Y-137500000D02*
X108500000Y-137500000D01*
X102500000Y-137500000D02*
X103000000Y-136792893D01*
X103000000Y-136792893D02*
X103500000Y-137500000D01*
X108500000Y-137500000D02*
X108500000Y-134600000D01*
X102850000Y-134950000D02*
X103150000Y-134950000D01*
X103150000Y-135550000D01*
X102850000Y-135550000D01*
X102850000Y-134950000D01*
X103850000Y-134950000D02*
X104150000Y-134950000D01*
X104150000Y-135550000D01*
X103850000Y-135550000D01*
X103850000Y-134950000D01*
X104850000Y-134950000D02*
X105150000Y-134950000D01*
X105150000Y-135550000D01*
X104850000Y-135550000D01*
X104850000Y-134950000D01*
X105850000Y-134950000D02*
X106150000Y-134950000D01*
X106150000Y-135550000D01*
X105850000Y-135550000D01*
X105850000Y-134950000D01*
X106850000Y-134950000D02*
X107150000Y-134950000D01*
X107150000Y-135550000D01*
X106850000Y-135550000D01*
X106850000Y-134950000D01*
%TO.C,J26*%
X101500000Y-115100000D02*
X108500000Y-115100000D01*
X101500000Y-118000000D02*
X101500000Y-115100000D01*
X101500000Y-118000000D02*
X108500000Y-118000000D01*
X102500000Y-118000000D02*
X103000000Y-117292893D01*
X103000000Y-117292893D02*
X103500000Y-118000000D01*
X108500000Y-118000000D02*
X108500000Y-115100000D01*
X102850000Y-115450000D02*
X103150000Y-115450000D01*
X103150000Y-116050000D01*
X102850000Y-116050000D01*
X102850000Y-115450000D01*
X103850000Y-115450000D02*
X104150000Y-115450000D01*
X104150000Y-116050000D01*
X103850000Y-116050000D01*
X103850000Y-115450000D01*
X104850000Y-115450000D02*
X105150000Y-115450000D01*
X105150000Y-116050000D01*
X104850000Y-116050000D01*
X104850000Y-115450000D01*
X105850000Y-115450000D02*
X106150000Y-115450000D01*
X106150000Y-116050000D01*
X105850000Y-116050000D01*
X105850000Y-115450000D01*
X106850000Y-115450000D02*
X107150000Y-115450000D01*
X107150000Y-116050000D01*
X106850000Y-116050000D01*
X106850000Y-115450000D01*
%TO.C,J10*%
X77500000Y-115100000D02*
X84500000Y-115100000D01*
X77500000Y-118000000D02*
X77500000Y-115100000D01*
X77500000Y-118000000D02*
X84500000Y-118000000D01*
X78500000Y-118000000D02*
X79000000Y-117292893D01*
X79000000Y-117292893D02*
X79500000Y-118000000D01*
X84500000Y-118000000D02*
X84500000Y-115100000D01*
X78850000Y-115450000D02*
X79150000Y-115450000D01*
X79150000Y-116050000D01*
X78850000Y-116050000D01*
X78850000Y-115450000D01*
X79850000Y-115450000D02*
X80150000Y-115450000D01*
X80150000Y-116050000D01*
X79850000Y-116050000D01*
X79850000Y-115450000D01*
X80850000Y-115450000D02*
X81150000Y-115450000D01*
X81150000Y-116050000D01*
X80850000Y-116050000D01*
X80850000Y-115450000D01*
X81850000Y-115450000D02*
X82150000Y-115450000D01*
X82150000Y-116050000D01*
X81850000Y-116050000D01*
X81850000Y-115450000D01*
X82850000Y-115450000D02*
X83150000Y-115450000D01*
X83150000Y-116050000D01*
X82850000Y-116050000D01*
X82850000Y-115450000D01*
%TO.C,J42*%
X125500000Y-115100000D02*
X132500000Y-115100000D01*
X125500000Y-118000000D02*
X125500000Y-115100000D01*
X125500000Y-118000000D02*
X132500000Y-118000000D01*
X126500000Y-118000000D02*
X127000000Y-117292893D01*
X127000000Y-117292893D02*
X127500000Y-118000000D01*
X132500000Y-118000000D02*
X132500000Y-115100000D01*
X126850000Y-115450000D02*
X127150000Y-115450000D01*
X127150000Y-116050000D01*
X126850000Y-116050000D01*
X126850000Y-115450000D01*
X127850000Y-115450000D02*
X128150000Y-115450000D01*
X128150000Y-116050000D01*
X127850000Y-116050000D01*
X127850000Y-115450000D01*
X128850000Y-115450000D02*
X129150000Y-115450000D01*
X129150000Y-116050000D01*
X128850000Y-116050000D01*
X128850000Y-115450000D01*
X129850000Y-115450000D02*
X130150000Y-115450000D01*
X130150000Y-116050000D01*
X129850000Y-116050000D01*
X129850000Y-115450000D01*
X130850000Y-115450000D02*
X131150000Y-115450000D01*
X131150000Y-116050000D01*
X130850000Y-116050000D01*
X130850000Y-115450000D01*
%TO.C,R30*%
X87200000Y-101587500D02*
X88800000Y-101587500D01*
X88800000Y-102412500D01*
X87200000Y-102412500D01*
X87200000Y-101587500D01*
%TO.C,J51*%
X135500000Y-141100000D02*
X142500000Y-141100000D01*
X135500000Y-144000000D02*
X135500000Y-141100000D01*
X135500000Y-144000000D02*
X142500000Y-144000000D01*
X136500000Y-144000000D02*
X137000000Y-143292893D01*
X137000000Y-143292893D02*
X137500000Y-144000000D01*
X142500000Y-144000000D02*
X142500000Y-141100000D01*
X136850000Y-141450000D02*
X137150000Y-141450000D01*
X137150000Y-142050000D01*
X136850000Y-142050000D01*
X136850000Y-141450000D01*
X137850000Y-141450000D02*
X138150000Y-141450000D01*
X138150000Y-142050000D01*
X137850000Y-142050000D01*
X137850000Y-141450000D01*
X138850000Y-141450000D02*
X139150000Y-141450000D01*
X139150000Y-142050000D01*
X138850000Y-142050000D01*
X138850000Y-141450000D01*
X139850000Y-141450000D02*
X140150000Y-141450000D01*
X140150000Y-142050000D01*
X139850000Y-142050000D01*
X139850000Y-141450000D01*
X140850000Y-141450000D02*
X141150000Y-141450000D01*
X141150000Y-142050000D01*
X140850000Y-142050000D01*
X140850000Y-141450000D01*
%TO.C,C8*%
X119000000Y-91375000D02*
X121000000Y-91375000D01*
X121000000Y-92625000D01*
X119000000Y-92625000D01*
X119000000Y-91375000D01*
%TO.C,J57*%
X135500000Y-160600000D02*
X142500000Y-160600000D01*
X135500000Y-163500000D02*
X135500000Y-160600000D01*
X135500000Y-163500000D02*
X142500000Y-163500000D01*
X136500000Y-163500000D02*
X137000000Y-162792893D01*
X137000000Y-162792893D02*
X137500000Y-163500000D01*
X142500000Y-163500000D02*
X142500000Y-160600000D01*
X136850000Y-160950000D02*
X137150000Y-160950000D01*
X137150000Y-161550000D01*
X136850000Y-161550000D01*
X136850000Y-160950000D01*
X137850000Y-160950000D02*
X138150000Y-160950000D01*
X138150000Y-161550000D01*
X137850000Y-161550000D01*
X137850000Y-160950000D01*
X138850000Y-160950000D02*
X139150000Y-160950000D01*
X139150000Y-161550000D01*
X138850000Y-161550000D01*
X138850000Y-160950000D01*
X139850000Y-160950000D02*
X140150000Y-160950000D01*
X140150000Y-161550000D01*
X139850000Y-161550000D01*
X139850000Y-160950000D01*
X140850000Y-160950000D02*
X141150000Y-160950000D01*
X141150000Y-161550000D01*
X140850000Y-161550000D01*
X140850000Y-160950000D01*
%TO.C,J33*%
X111500000Y-134600000D02*
X118500000Y-134600000D01*
X111500000Y-137500000D02*
X111500000Y-134600000D01*
X111500000Y-137500000D02*
X118500000Y-137500000D01*
X112500000Y-137500000D02*
X113000000Y-136792893D01*
X113000000Y-136792893D02*
X113500000Y-137500000D01*
X118500000Y-137500000D02*
X118500000Y-134600000D01*
X112850000Y-134950000D02*
X113150000Y-134950000D01*
X113150000Y-135550000D01*
X112850000Y-135550000D01*
X112850000Y-134950000D01*
X113850000Y-134950000D02*
X114150000Y-134950000D01*
X114150000Y-135550000D01*
X113850000Y-135550000D01*
X113850000Y-134950000D01*
X114850000Y-134950000D02*
X115150000Y-134950000D01*
X115150000Y-135550000D01*
X114850000Y-135550000D01*
X114850000Y-134950000D01*
X115850000Y-134950000D02*
X116150000Y-134950000D01*
X116150000Y-135550000D01*
X115850000Y-135550000D01*
X115850000Y-134950000D01*
X116850000Y-134950000D02*
X117150000Y-134950000D01*
X117150000Y-135550000D01*
X116850000Y-135550000D01*
X116850000Y-134950000D01*
%TO.C,J50*%
X125500000Y-141100000D02*
X132500000Y-141100000D01*
X125500000Y-144000000D02*
X125500000Y-141100000D01*
X125500000Y-144000000D02*
X132500000Y-144000000D01*
X126500000Y-144000000D02*
X127000000Y-143292893D01*
X127000000Y-143292893D02*
X127500000Y-144000000D01*
X132500000Y-144000000D02*
X132500000Y-141100000D01*
X126850000Y-141450000D02*
X127150000Y-141450000D01*
X127150000Y-142050000D01*
X126850000Y-142050000D01*
X126850000Y-141450000D01*
X127850000Y-141450000D02*
X128150000Y-141450000D01*
X128150000Y-142050000D01*
X127850000Y-142050000D01*
X127850000Y-141450000D01*
X128850000Y-141450000D02*
X129150000Y-141450000D01*
X129150000Y-142050000D01*
X128850000Y-142050000D01*
X128850000Y-141450000D01*
X129850000Y-141450000D02*
X130150000Y-141450000D01*
X130150000Y-142050000D01*
X129850000Y-142050000D01*
X129850000Y-141450000D01*
X130850000Y-141450000D02*
X131150000Y-141450000D01*
X131150000Y-142050000D01*
X130850000Y-142050000D01*
X130850000Y-141450000D01*
%TO.C,J30*%
X101500000Y-128100000D02*
X108500000Y-128100000D01*
X101500000Y-131000000D02*
X101500000Y-128100000D01*
X101500000Y-131000000D02*
X108500000Y-131000000D01*
X102500000Y-131000000D02*
X103000000Y-130292893D01*
X103000000Y-130292893D02*
X103500000Y-131000000D01*
X108500000Y-131000000D02*
X108500000Y-128100000D01*
X102850000Y-128450000D02*
X103150000Y-128450000D01*
X103150000Y-129050000D01*
X102850000Y-129050000D01*
X102850000Y-128450000D01*
X103850000Y-128450000D02*
X104150000Y-128450000D01*
X104150000Y-129050000D01*
X103850000Y-129050000D01*
X103850000Y-128450000D01*
X104850000Y-128450000D02*
X105150000Y-128450000D01*
X105150000Y-129050000D01*
X104850000Y-129050000D01*
X104850000Y-128450000D01*
X105850000Y-128450000D02*
X106150000Y-128450000D01*
X106150000Y-129050000D01*
X105850000Y-129050000D01*
X105850000Y-128450000D01*
X106850000Y-128450000D02*
X107150000Y-128450000D01*
X107150000Y-129050000D01*
X106850000Y-129050000D01*
X106850000Y-128450000D01*
%TO.C,U7*%
X129600000Y-84550000D02*
X130800000Y-84550000D01*
X130800000Y-87450000D01*
X129200000Y-87450000D01*
X129200000Y-84950000D01*
X129600000Y-84550000D01*
%TO.C,J38*%
X101500000Y-154100000D02*
X108500000Y-154100000D01*
X101500000Y-157000000D02*
X101500000Y-154100000D01*
X101500000Y-157000000D02*
X108500000Y-157000000D01*
X102500000Y-157000000D02*
X103000000Y-156292893D01*
X103000000Y-156292893D02*
X103500000Y-157000000D01*
X108500000Y-157000000D02*
X108500000Y-154100000D01*
X102850000Y-154450000D02*
X103150000Y-154450000D01*
X103150000Y-155050000D01*
X102850000Y-155050000D01*
X102850000Y-154450000D01*
X103850000Y-154450000D02*
X104150000Y-154450000D01*
X104150000Y-155050000D01*
X103850000Y-155050000D01*
X103850000Y-154450000D01*
X104850000Y-154450000D02*
X105150000Y-154450000D01*
X105150000Y-155050000D01*
X104850000Y-155050000D01*
X104850000Y-154450000D01*
X105850000Y-154450000D02*
X106150000Y-154450000D01*
X106150000Y-155050000D01*
X105850000Y-155050000D01*
X105850000Y-154450000D01*
X106850000Y-154450000D02*
X107150000Y-154450000D01*
X107150000Y-155050000D01*
X106850000Y-155050000D01*
X106850000Y-154450000D01*
%TO.C,R13*%
X95200000Y-84587500D02*
X96800000Y-84587500D01*
X96800000Y-85412500D01*
X95200000Y-85412500D01*
X95200000Y-84587500D01*
%TO.C,J41*%
X111500000Y-160600000D02*
X118500000Y-160600000D01*
X111500000Y-163500000D02*
X111500000Y-160600000D01*
X111500000Y-163500000D02*
X118500000Y-163500000D01*
X112500000Y-163500000D02*
X113000000Y-162792893D01*
X113000000Y-162792893D02*
X113500000Y-163500000D01*
X118500000Y-163500000D02*
X118500000Y-160600000D01*
X112850000Y-160950000D02*
X113150000Y-160950000D01*
X113150000Y-161550000D01*
X112850000Y-161550000D01*
X112850000Y-160950000D01*
X113850000Y-160950000D02*
X114150000Y-160950000D01*
X114150000Y-161550000D01*
X113850000Y-161550000D01*
X113850000Y-160950000D01*
X114850000Y-160950000D02*
X115150000Y-160950000D01*
X115150000Y-161550000D01*
X114850000Y-161550000D01*
X114850000Y-160950000D01*
X115850000Y-160950000D02*
X116150000Y-160950000D01*
X116150000Y-161550000D01*
X115850000Y-161550000D01*
X115850000Y-160950000D01*
X116850000Y-160950000D02*
X117150000Y-160950000D01*
X117150000Y-161550000D01*
X116850000Y-161550000D01*
X116850000Y-160950000D01*
%TO.C,J56*%
X125500000Y-160600000D02*
X132500000Y-160600000D01*
X125500000Y-163500000D02*
X125500000Y-160600000D01*
X125500000Y-163500000D02*
X132500000Y-163500000D01*
X126500000Y-163500000D02*
X127000000Y-162792893D01*
X127000000Y-162792893D02*
X127500000Y-163500000D01*
X132500000Y-163500000D02*
X132500000Y-160600000D01*
X126850000Y-160950000D02*
X127150000Y-160950000D01*
X127150000Y-161550000D01*
X126850000Y-161550000D01*
X126850000Y-160950000D01*
X127850000Y-160950000D02*
X128150000Y-160950000D01*
X128150000Y-161550000D01*
X127850000Y-161550000D01*
X127850000Y-160950000D01*
X128850000Y-160950000D02*
X129150000Y-160950000D01*
X129150000Y-161550000D01*
X128850000Y-161550000D01*
X128850000Y-160950000D01*
X129850000Y-160950000D02*
X130150000Y-160950000D01*
X130150000Y-161550000D01*
X129850000Y-161550000D01*
X129850000Y-160950000D01*
X130850000Y-160950000D02*
X131150000Y-160950000D01*
X131150000Y-161550000D01*
X130850000Y-161550000D01*
X130850000Y-160950000D01*
%TO.C,J11*%
X87500000Y-115100000D02*
X94500000Y-115100000D01*
X87500000Y-118000000D02*
X87500000Y-115100000D01*
X87500000Y-118000000D02*
X94500000Y-118000000D01*
X88500000Y-118000000D02*
X89000000Y-117292893D01*
X89000000Y-117292893D02*
X89500000Y-118000000D01*
X94500000Y-118000000D02*
X94500000Y-115100000D01*
X88850000Y-115450000D02*
X89150000Y-115450000D01*
X89150000Y-116050000D01*
X88850000Y-116050000D01*
X88850000Y-115450000D01*
X89850000Y-115450000D02*
X90150000Y-115450000D01*
X90150000Y-116050000D01*
X89850000Y-116050000D01*
X89850000Y-115450000D01*
X90850000Y-115450000D02*
X91150000Y-115450000D01*
X91150000Y-116050000D01*
X90850000Y-116050000D01*
X90850000Y-115450000D01*
X91850000Y-115450000D02*
X92150000Y-115450000D01*
X92150000Y-116050000D01*
X91850000Y-116050000D01*
X91850000Y-115450000D01*
X92850000Y-115450000D02*
X93150000Y-115450000D01*
X93150000Y-116050000D01*
X92850000Y-116050000D01*
X92850000Y-115450000D01*
%TO.C,R11*%
X99200000Y-81587500D02*
X100800000Y-81587500D01*
X100800000Y-82412500D01*
X99200000Y-82412500D01*
X99200000Y-81587500D01*
%TO.C,R31*%
X91200000Y-101587500D02*
X92800000Y-101587500D01*
X92800000Y-102412500D01*
X91200000Y-102412500D01*
X91200000Y-101587500D01*
%TO.C,J27*%
X111500000Y-115100000D02*
X118500000Y-115100000D01*
X111500000Y-118000000D02*
X111500000Y-115100000D01*
X111500000Y-118000000D02*
X118500000Y-118000000D01*
X112500000Y-118000000D02*
X113000000Y-117292893D01*
X113000000Y-117292893D02*
X113500000Y-118000000D01*
X118500000Y-118000000D02*
X118500000Y-115100000D01*
X112850000Y-115450000D02*
X113150000Y-115450000D01*
X113150000Y-116050000D01*
X112850000Y-116050000D01*
X112850000Y-115450000D01*
X113850000Y-115450000D02*
X114150000Y-115450000D01*
X114150000Y-116050000D01*
X113850000Y-116050000D01*
X113850000Y-115450000D01*
X114850000Y-115450000D02*
X115150000Y-115450000D01*
X115150000Y-116050000D01*
X114850000Y-116050000D01*
X114850000Y-115450000D01*
X115850000Y-115450000D02*
X116150000Y-115450000D01*
X116150000Y-116050000D01*
X115850000Y-116050000D01*
X115850000Y-115450000D01*
X116850000Y-115450000D02*
X117150000Y-115450000D01*
X117150000Y-116050000D01*
X116850000Y-116050000D01*
X116850000Y-115450000D01*
%TO.C,R2*%
X83200000Y-89587500D02*
X84800000Y-89587500D01*
X84800000Y-90412500D01*
X83200000Y-90412500D01*
X83200000Y-89587500D01*
%TO.C,J1*%
X91110000Y-79745000D02*
X91745000Y-79110000D01*
X91110000Y-96890000D02*
X91110000Y-79745000D01*
X91745000Y-79110000D02*
X93650000Y-79110000D01*
X93650000Y-79110000D02*
X93650000Y-96890000D01*
X93650000Y-96890000D02*
X91110000Y-96890000D01*
%TO.C,R1*%
X79200000Y-89587500D02*
X80800000Y-89587500D01*
X80800000Y-90412500D01*
X79200000Y-90412500D01*
X79200000Y-89587500D01*
%TO.C,J20*%
X77500000Y-147600000D02*
X84500000Y-147600000D01*
X77500000Y-150500000D02*
X77500000Y-147600000D01*
X77500000Y-150500000D02*
X84500000Y-150500000D01*
X78500000Y-150500000D02*
X79000000Y-149792893D01*
X79000000Y-149792893D02*
X79500000Y-150500000D01*
X84500000Y-150500000D02*
X84500000Y-147600000D01*
X78850000Y-147950000D02*
X79150000Y-147950000D01*
X79150000Y-148550000D01*
X78850000Y-148550000D01*
X78850000Y-147950000D01*
X79850000Y-147950000D02*
X80150000Y-147950000D01*
X80150000Y-148550000D01*
X79850000Y-148550000D01*
X79850000Y-147950000D01*
X80850000Y-147950000D02*
X81150000Y-147950000D01*
X81150000Y-148550000D01*
X80850000Y-148550000D01*
X80850000Y-147950000D01*
X81850000Y-147950000D02*
X82150000Y-147950000D01*
X82150000Y-148550000D01*
X81850000Y-148550000D01*
X81850000Y-147950000D01*
X82850000Y-147950000D02*
X83150000Y-147950000D01*
X83150000Y-148550000D01*
X82850000Y-148550000D01*
X82850000Y-147950000D01*
%TO.C,J23*%
X87500000Y-154100000D02*
X94500000Y-154100000D01*
X87500000Y-157000000D02*
X87500000Y-154100000D01*
X87500000Y-157000000D02*
X94500000Y-157000000D01*
X88500000Y-157000000D02*
X89000000Y-156292893D01*
X89000000Y-156292893D02*
X89500000Y-157000000D01*
X94500000Y-157000000D02*
X94500000Y-154100000D01*
X88850000Y-154450000D02*
X89150000Y-154450000D01*
X89150000Y-155050000D01*
X88850000Y-155050000D01*
X88850000Y-154450000D01*
X89850000Y-154450000D02*
X90150000Y-154450000D01*
X90150000Y-155050000D01*
X89850000Y-155050000D01*
X89850000Y-154450000D01*
X90850000Y-154450000D02*
X91150000Y-154450000D01*
X91150000Y-155050000D01*
X90850000Y-155050000D01*
X90850000Y-154450000D01*
X91850000Y-154450000D02*
X92150000Y-154450000D01*
X92150000Y-155050000D01*
X91850000Y-155050000D01*
X91850000Y-154450000D01*
X92850000Y-154450000D02*
X93150000Y-154450000D01*
X93150000Y-155050000D01*
X92850000Y-155050000D01*
X92850000Y-154450000D01*
%TO.C,J21*%
X87500000Y-147600000D02*
X94500000Y-147600000D01*
X87500000Y-150500000D02*
X87500000Y-147600000D01*
X87500000Y-150500000D02*
X94500000Y-150500000D01*
X88500000Y-150500000D02*
X89000000Y-149792893D01*
X89000000Y-149792893D02*
X89500000Y-150500000D01*
X94500000Y-150500000D02*
X94500000Y-147600000D01*
X88850000Y-147950000D02*
X89150000Y-147950000D01*
X89150000Y-148550000D01*
X88850000Y-148550000D01*
X88850000Y-147950000D01*
X89850000Y-147950000D02*
X90150000Y-147950000D01*
X90150000Y-148550000D01*
X89850000Y-148550000D01*
X89850000Y-147950000D01*
X90850000Y-147950000D02*
X91150000Y-147950000D01*
X91150000Y-148550000D01*
X90850000Y-148550000D01*
X90850000Y-147950000D01*
X91850000Y-147950000D02*
X92150000Y-147950000D01*
X92150000Y-148550000D01*
X91850000Y-148550000D01*
X91850000Y-147950000D01*
X92850000Y-147950000D02*
X93150000Y-147950000D01*
X93150000Y-148550000D01*
X92850000Y-148550000D01*
X92850000Y-147950000D01*
%TO.C,J3*%
X139025000Y-76250000D02*
X146975000Y-76250000D01*
X139025000Y-81250000D02*
X139025000Y-76250000D01*
X139025000Y-81250000D02*
X146975000Y-81250000D01*
X141500000Y-81250000D02*
X142000000Y-80542893D01*
X142000000Y-80542893D02*
X142500000Y-81250000D01*
X146975000Y-81250000D02*
X146975000Y-76250000D01*
X141750000Y-77750000D02*
X142250000Y-77750000D01*
X142250000Y-78250000D01*
X141750000Y-78250000D01*
X141750000Y-77750000D01*
X143750000Y-77750000D02*
X144250000Y-77750000D01*
X144250000Y-78250000D01*
X143750000Y-78250000D01*
X143750000Y-77750000D01*
%TO.C,U4*%
X108800000Y-105100000D02*
X112200000Y-105100000D01*
X112200000Y-112900000D01*
X107800000Y-112900000D01*
X107800000Y-106100000D01*
X108800000Y-105100000D01*
%TO.C,C2*%
X149200000Y-96600000D02*
X150800000Y-96600000D01*
X150800000Y-97400000D01*
X149200000Y-97400000D01*
X149200000Y-96600000D01*
%TO.C,J19*%
X87500000Y-141100000D02*
X94500000Y-141100000D01*
X87500000Y-144000000D02*
X87500000Y-141100000D01*
X87500000Y-144000000D02*
X94500000Y-144000000D01*
X88500000Y-144000000D02*
X89000000Y-143292893D01*
X89000000Y-143292893D02*
X89500000Y-144000000D01*
X94500000Y-144000000D02*
X94500000Y-141100000D01*
X88850000Y-141450000D02*
X89150000Y-141450000D01*
X89150000Y-142050000D01*
X88850000Y-142050000D01*
X88850000Y-141450000D01*
X89850000Y-141450000D02*
X90150000Y-141450000D01*
X90150000Y-142050000D01*
X89850000Y-142050000D01*
X89850000Y-141450000D01*
X90850000Y-141450000D02*
X91150000Y-141450000D01*
X91150000Y-142050000D01*
X90850000Y-142050000D01*
X90850000Y-141450000D01*
X91850000Y-141450000D02*
X92150000Y-141450000D01*
X92150000Y-142050000D01*
X91850000Y-142050000D01*
X91850000Y-141450000D01*
X92850000Y-141450000D02*
X93150000Y-141450000D01*
X93150000Y-142050000D01*
X92850000Y-142050000D01*
X92850000Y-141450000D01*
%TO.C,J36*%
X101500000Y-147600000D02*
X108500000Y-147600000D01*
X101500000Y-150500000D02*
X101500000Y-147600000D01*
X101500000Y-150500000D02*
X108500000Y-150500000D01*
X102500000Y-150500000D02*
X103000000Y-149792893D01*
X103000000Y-149792893D02*
X103500000Y-150500000D01*
X108500000Y-150500000D02*
X108500000Y-147600000D01*
X102850000Y-147950000D02*
X103150000Y-147950000D01*
X103150000Y-148550000D01*
X102850000Y-148550000D01*
X102850000Y-147950000D01*
X103850000Y-147950000D02*
X104150000Y-147950000D01*
X104150000Y-148550000D01*
X103850000Y-148550000D01*
X103850000Y-147950000D01*
X104850000Y-147950000D02*
X105150000Y-147950000D01*
X105150000Y-148550000D01*
X104850000Y-148550000D01*
X104850000Y-147950000D01*
X105850000Y-147950000D02*
X106150000Y-147950000D01*
X106150000Y-148550000D01*
X105850000Y-148550000D01*
X105850000Y-147950000D01*
X106850000Y-147950000D02*
X107150000Y-147950000D01*
X107150000Y-148550000D01*
X106850000Y-148550000D01*
X106850000Y-147950000D01*
%TO.C,J46*%
X125500000Y-128100000D02*
X132500000Y-128100000D01*
X125500000Y-131000000D02*
X125500000Y-128100000D01*
X125500000Y-131000000D02*
X132500000Y-131000000D01*
X126500000Y-131000000D02*
X127000000Y-130292893D01*
X127000000Y-130292893D02*
X127500000Y-131000000D01*
X132500000Y-131000000D02*
X132500000Y-128100000D01*
X126850000Y-128450000D02*
X127150000Y-128450000D01*
X127150000Y-129050000D01*
X126850000Y-129050000D01*
X126850000Y-128450000D01*
X127850000Y-128450000D02*
X128150000Y-128450000D01*
X128150000Y-129050000D01*
X127850000Y-129050000D01*
X127850000Y-128450000D01*
X128850000Y-128450000D02*
X129150000Y-128450000D01*
X129150000Y-129050000D01*
X128850000Y-129050000D01*
X128850000Y-128450000D01*
X129850000Y-128450000D02*
X130150000Y-128450000D01*
X130150000Y-129050000D01*
X129850000Y-129050000D01*
X129850000Y-128450000D01*
X130850000Y-128450000D02*
X131150000Y-128450000D01*
X131150000Y-129050000D01*
X130850000Y-129050000D01*
X130850000Y-128450000D01*
%TO.C,J40*%
X101500000Y-160600000D02*
X108500000Y-160600000D01*
X101500000Y-163500000D02*
X101500000Y-160600000D01*
X101500000Y-163500000D02*
X108500000Y-163500000D01*
X102500000Y-163500000D02*
X103000000Y-162792893D01*
X103000000Y-162792893D02*
X103500000Y-163500000D01*
X108500000Y-163500000D02*
X108500000Y-160600000D01*
X102850000Y-160950000D02*
X103150000Y-160950000D01*
X103150000Y-161550000D01*
X102850000Y-161550000D01*
X102850000Y-160950000D01*
X103850000Y-160950000D02*
X104150000Y-160950000D01*
X104150000Y-161550000D01*
X103850000Y-161550000D01*
X103850000Y-160950000D01*
X104850000Y-160950000D02*
X105150000Y-160950000D01*
X105150000Y-161550000D01*
X104850000Y-161550000D01*
X104850000Y-160950000D01*
X105850000Y-160950000D02*
X106150000Y-160950000D01*
X106150000Y-161550000D01*
X105850000Y-161550000D01*
X105850000Y-160950000D01*
X106850000Y-160950000D02*
X107150000Y-160950000D01*
X107150000Y-161550000D01*
X106850000Y-161550000D01*
X106850000Y-160950000D01*
%TO.C,J55*%
X135500000Y-154100000D02*
X142500000Y-154100000D01*
X135500000Y-157000000D02*
X135500000Y-154100000D01*
X135500000Y-157000000D02*
X142500000Y-157000000D01*
X136500000Y-157000000D02*
X137000000Y-156292893D01*
X137000000Y-156292893D02*
X137500000Y-157000000D01*
X142500000Y-157000000D02*
X142500000Y-154100000D01*
X136850000Y-154450000D02*
X137150000Y-154450000D01*
X137150000Y-155050000D01*
X136850000Y-155050000D01*
X136850000Y-154450000D01*
X137850000Y-154450000D02*
X138150000Y-154450000D01*
X138150000Y-155050000D01*
X137850000Y-155050000D01*
X137850000Y-154450000D01*
X138850000Y-154450000D02*
X139150000Y-154450000D01*
X139150000Y-155050000D01*
X138850000Y-155050000D01*
X138850000Y-154450000D01*
X139850000Y-154450000D02*
X140150000Y-154450000D01*
X140150000Y-155050000D01*
X139850000Y-155050000D01*
X139850000Y-154450000D01*
X140850000Y-154450000D02*
X141150000Y-154450000D01*
X141150000Y-155050000D01*
X140850000Y-155050000D01*
X140850000Y-154450000D01*
%TO.C,J49*%
X135500000Y-134600000D02*
X142500000Y-134600000D01*
X135500000Y-137500000D02*
X135500000Y-134600000D01*
X135500000Y-137500000D02*
X142500000Y-137500000D01*
X136500000Y-137500000D02*
X137000000Y-136792893D01*
X137000000Y-136792893D02*
X137500000Y-137500000D01*
X142500000Y-137500000D02*
X142500000Y-134600000D01*
X136850000Y-134950000D02*
X137150000Y-134950000D01*
X137150000Y-135550000D01*
X136850000Y-135550000D01*
X136850000Y-134950000D01*
X137850000Y-134950000D02*
X138150000Y-134950000D01*
X138150000Y-135550000D01*
X137850000Y-135550000D01*
X137850000Y-134950000D01*
X138850000Y-134950000D02*
X139150000Y-134950000D01*
X139150000Y-135550000D01*
X138850000Y-135550000D01*
X138850000Y-134950000D01*
X139850000Y-134950000D02*
X140150000Y-134950000D01*
X140150000Y-135550000D01*
X139850000Y-135550000D01*
X139850000Y-134950000D01*
X140850000Y-134950000D02*
X141150000Y-134950000D01*
X141150000Y-135550000D01*
X140850000Y-135550000D01*
X140850000Y-134950000D01*
%TO.C,C7*%
X133000000Y-88375000D02*
X135000000Y-88375000D01*
X135000000Y-89625000D01*
X133000000Y-89625000D01*
X133000000Y-88375000D01*
%TO.C,J43*%
X135500000Y-115100000D02*
X142500000Y-115100000D01*
X135500000Y-118000000D02*
X135500000Y-115100000D01*
X135500000Y-118000000D02*
X142500000Y-118000000D01*
X136500000Y-118000000D02*
X137000000Y-117292893D01*
X137000000Y-117292893D02*
X137500000Y-118000000D01*
X142500000Y-118000000D02*
X142500000Y-115100000D01*
X136850000Y-115450000D02*
X137150000Y-115450000D01*
X137150000Y-116050000D01*
X136850000Y-116050000D01*
X136850000Y-115450000D01*
X137850000Y-115450000D02*
X138150000Y-115450000D01*
X138150000Y-116050000D01*
X137850000Y-116050000D01*
X137850000Y-115450000D01*
X138850000Y-115450000D02*
X139150000Y-115450000D01*
X139150000Y-116050000D01*
X138850000Y-116050000D01*
X138850000Y-115450000D01*
X139850000Y-115450000D02*
X140150000Y-115450000D01*
X140150000Y-116050000D01*
X139850000Y-116050000D01*
X139850000Y-115450000D01*
X140850000Y-115450000D02*
X141150000Y-115450000D01*
X141150000Y-116050000D01*
X140850000Y-116050000D01*
X140850000Y-115450000D01*
%TO.C,J14*%
X77500000Y-128100000D02*
X84500000Y-128100000D01*
X77500000Y-131000000D02*
X77500000Y-128100000D01*
X77500000Y-131000000D02*
X84500000Y-131000000D01*
X78500000Y-131000000D02*
X79000000Y-130292893D01*
X79000000Y-130292893D02*
X79500000Y-131000000D01*
X84500000Y-131000000D02*
X84500000Y-128100000D01*
X78850000Y-128450000D02*
X79150000Y-128450000D01*
X79150000Y-129050000D01*
X78850000Y-129050000D01*
X78850000Y-128450000D01*
X79850000Y-128450000D02*
X80150000Y-128450000D01*
X80150000Y-129050000D01*
X79850000Y-129050000D01*
X79850000Y-128450000D01*
X80850000Y-128450000D02*
X81150000Y-128450000D01*
X81150000Y-129050000D01*
X80850000Y-129050000D01*
X80850000Y-128450000D01*
X81850000Y-128450000D02*
X82150000Y-128450000D01*
X82150000Y-129050000D01*
X81850000Y-129050000D01*
X81850000Y-128450000D01*
X82850000Y-128450000D02*
X83150000Y-128450000D01*
X83150000Y-129050000D01*
X82850000Y-129050000D01*
X82850000Y-128450000D01*
%TO.C,J17*%
X87500000Y-134600000D02*
X94500000Y-134600000D01*
X87500000Y-137500000D02*
X87500000Y-134600000D01*
X87500000Y-137500000D02*
X94500000Y-137500000D01*
X88500000Y-137500000D02*
X89000000Y-136792893D01*
X89000000Y-136792893D02*
X89500000Y-137500000D01*
X94500000Y-137500000D02*
X94500000Y-134600000D01*
X88850000Y-134950000D02*
X89150000Y-134950000D01*
X89150000Y-135550000D01*
X88850000Y-135550000D01*
X88850000Y-134950000D01*
X89850000Y-134950000D02*
X90150000Y-134950000D01*
X90150000Y-135550000D01*
X89850000Y-135550000D01*
X89850000Y-134950000D01*
X90850000Y-134950000D02*
X91150000Y-134950000D01*
X91150000Y-135550000D01*
X90850000Y-135550000D01*
X90850000Y-134950000D01*
X91850000Y-134950000D02*
X92150000Y-134950000D01*
X92150000Y-135550000D01*
X91850000Y-135550000D01*
X91850000Y-134950000D01*
X92850000Y-134950000D02*
X93150000Y-134950000D01*
X93150000Y-135550000D01*
X92850000Y-135550000D01*
X92850000Y-134950000D01*
%TO.C,F5*%
X115200000Y-92600000D02*
X116800000Y-92600000D01*
X116800000Y-93400000D01*
X115200000Y-93400000D01*
X115200000Y-92600000D01*
%TO.C,R14*%
X99200000Y-84587500D02*
X100800000Y-84587500D01*
X100800000Y-85412500D01*
X99200000Y-85412500D01*
X99200000Y-84587500D01*
%TO.C,R32*%
X111200000Y-101587500D02*
X112800000Y-101587500D01*
X112800000Y-102412500D01*
X111200000Y-102412500D01*
X111200000Y-101587500D01*
%TO.C,J39*%
X111500000Y-154100000D02*
X118500000Y-154100000D01*
X111500000Y-157000000D02*
X111500000Y-154100000D01*
X111500000Y-157000000D02*
X118500000Y-157000000D01*
X112500000Y-157000000D02*
X113000000Y-156292893D01*
X113000000Y-156292893D02*
X113500000Y-157000000D01*
X118500000Y-157000000D02*
X118500000Y-154100000D01*
X112850000Y-154450000D02*
X113150000Y-154450000D01*
X113150000Y-155050000D01*
X112850000Y-155050000D01*
X112850000Y-154450000D01*
X113850000Y-154450000D02*
X114150000Y-154450000D01*
X114150000Y-155050000D01*
X113850000Y-155050000D01*
X113850000Y-154450000D01*
X114850000Y-154450000D02*
X115150000Y-154450000D01*
X115150000Y-155050000D01*
X114850000Y-155050000D01*
X114850000Y-154450000D01*
X115850000Y-154450000D02*
X116150000Y-154450000D01*
X116150000Y-155050000D01*
X115850000Y-155050000D01*
X115850000Y-154450000D01*
X116850000Y-154450000D02*
X117150000Y-154450000D01*
X117150000Y-155050000D01*
X116850000Y-155050000D01*
X116850000Y-154450000D01*
%TO.C,R42*%
X141200000Y-109587500D02*
X142800000Y-109587500D01*
X142800000Y-110412500D01*
X141200000Y-110412500D01*
X141200000Y-109587500D01*
%TO.C,J16*%
X77500000Y-134600000D02*
X84500000Y-134600000D01*
X77500000Y-137500000D02*
X77500000Y-134600000D01*
X77500000Y-137500000D02*
X84500000Y-137500000D01*
X78500000Y-137500000D02*
X79000000Y-136792893D01*
X79000000Y-136792893D02*
X79500000Y-137500000D01*
X84500000Y-137500000D02*
X84500000Y-134600000D01*
X78850000Y-134950000D02*
X79150000Y-134950000D01*
X79150000Y-135550000D01*
X78850000Y-135550000D01*
X78850000Y-134950000D01*
X79850000Y-134950000D02*
X80150000Y-134950000D01*
X80150000Y-135550000D01*
X79850000Y-135550000D01*
X79850000Y-134950000D01*
X80850000Y-134950000D02*
X81150000Y-134950000D01*
X81150000Y-135550000D01*
X80850000Y-135550000D01*
X80850000Y-134950000D01*
X81850000Y-134950000D02*
X82150000Y-134950000D01*
X82150000Y-135550000D01*
X81850000Y-135550000D01*
X81850000Y-134950000D01*
X82850000Y-134950000D02*
X83150000Y-134950000D01*
X83150000Y-135550000D01*
X82850000Y-135550000D01*
X82850000Y-134950000D01*
%TO.C,J37*%
X111500000Y-147600000D02*
X118500000Y-147600000D01*
X111500000Y-150500000D02*
X111500000Y-147600000D01*
X111500000Y-150500000D02*
X118500000Y-150500000D01*
X112500000Y-150500000D02*
X113000000Y-149792893D01*
X113000000Y-149792893D02*
X113500000Y-150500000D01*
X118500000Y-150500000D02*
X118500000Y-147600000D01*
X112850000Y-147950000D02*
X113150000Y-147950000D01*
X113150000Y-148550000D01*
X112850000Y-148550000D01*
X112850000Y-147950000D01*
X113850000Y-147950000D02*
X114150000Y-147950000D01*
X114150000Y-148550000D01*
X113850000Y-148550000D01*
X113850000Y-147950000D01*
X114850000Y-147950000D02*
X115150000Y-147950000D01*
X115150000Y-148550000D01*
X114850000Y-148550000D01*
X114850000Y-147950000D01*
X115850000Y-147950000D02*
X116150000Y-147950000D01*
X116150000Y-148550000D01*
X115850000Y-148550000D01*
X115850000Y-147950000D01*
X116850000Y-147950000D02*
X117150000Y-147950000D01*
X117150000Y-148550000D01*
X116850000Y-148550000D01*
X116850000Y-147950000D01*
%TO.C,U1*%
X80800000Y-95750000D02*
X84200000Y-95750000D01*
X84200000Y-102250000D01*
X79800000Y-102250000D01*
X79800000Y-96750000D01*
X80800000Y-95750000D01*
%TO.C,J47*%
X135500000Y-128100000D02*
X142500000Y-128100000D01*
X135500000Y-131000000D02*
X135500000Y-128100000D01*
X135500000Y-131000000D02*
X142500000Y-131000000D01*
X136500000Y-131000000D02*
X137000000Y-130292893D01*
X137000000Y-130292893D02*
X137500000Y-131000000D01*
X142500000Y-131000000D02*
X142500000Y-128100000D01*
X136850000Y-128450000D02*
X137150000Y-128450000D01*
X137150000Y-129050000D01*
X136850000Y-129050000D01*
X136850000Y-128450000D01*
X137850000Y-128450000D02*
X138150000Y-128450000D01*
X138150000Y-129050000D01*
X137850000Y-129050000D01*
X137850000Y-128450000D01*
X138850000Y-128450000D02*
X139150000Y-128450000D01*
X139150000Y-129050000D01*
X138850000Y-129050000D01*
X138850000Y-128450000D01*
X139850000Y-128450000D02*
X140150000Y-128450000D01*
X140150000Y-129050000D01*
X139850000Y-129050000D01*
X139850000Y-128450000D01*
X140850000Y-128450000D02*
X141150000Y-128450000D01*
X141150000Y-129050000D01*
X140850000Y-129050000D01*
X140850000Y-128450000D01*
%TO.C,R51*%
X129200000Y-80587500D02*
X130800000Y-80587500D01*
X130800000Y-81412500D01*
X129200000Y-81412500D01*
X129200000Y-80587500D01*
%TO.C,C10*%
X121200000Y-80600000D02*
X122800000Y-80600000D01*
X122800000Y-81400000D01*
X121200000Y-81400000D01*
X121200000Y-80600000D01*
%TO.C,J28*%
X101500000Y-121600000D02*
X108500000Y-121600000D01*
X101500000Y-124500000D02*
X101500000Y-121600000D01*
X101500000Y-124500000D02*
X108500000Y-124500000D01*
X102500000Y-124500000D02*
X103000000Y-123792893D01*
X103000000Y-123792893D02*
X103500000Y-124500000D01*
X108500000Y-124500000D02*
X108500000Y-121600000D01*
X102850000Y-121950000D02*
X103150000Y-121950000D01*
X103150000Y-122550000D01*
X102850000Y-122550000D01*
X102850000Y-121950000D01*
X103850000Y-121950000D02*
X104150000Y-121950000D01*
X104150000Y-122550000D01*
X103850000Y-122550000D01*
X103850000Y-121950000D01*
X104850000Y-121950000D02*
X105150000Y-121950000D01*
X105150000Y-122550000D01*
X104850000Y-122550000D01*
X104850000Y-121950000D01*
X105850000Y-121950000D02*
X106150000Y-121950000D01*
X106150000Y-122550000D01*
X105850000Y-122550000D01*
X105850000Y-121950000D01*
X106850000Y-121950000D02*
X107150000Y-121950000D01*
X107150000Y-122550000D01*
X106850000Y-122550000D01*
X106850000Y-121950000D01*
%TO.C,D1*%
X132200000Y-79500000D02*
X132200000Y-76500000D01*
X133850560Y-77200920D02*
X133850560Y-78801120D01*
X133850560Y-78001020D02*
X132948860Y-78001020D01*
X133850560Y-78001020D02*
X135001180Y-77200920D01*
X133850560Y-78001020D02*
X135001180Y-78750320D01*
X135001180Y-78001020D02*
X135999400Y-78001020D01*
X135001180Y-78750320D02*
X135001180Y-77200920D01*
X136800000Y-76500000D02*
X132200000Y-76500000D01*
X136800000Y-76500000D02*
X136800000Y-79500000D01*
X136800000Y-79500000D02*
X132200000Y-79500000D01*
%TO.C,R41*%
X117200000Y-109587500D02*
X118800000Y-109587500D01*
X118800000Y-110412500D01*
X117200000Y-110412500D01*
X117200000Y-109587500D01*
%TO.C,U5*%
X132800000Y-105100000D02*
X136200000Y-105100000D01*
X136200000Y-112900000D01*
X131800000Y-112900000D01*
X131800000Y-106100000D01*
X132800000Y-105100000D01*
%TO.C,R50*%
X125200000Y-80587500D02*
X126800000Y-80587500D01*
X126800000Y-81412500D01*
X125200000Y-81412500D01*
X125200000Y-80587500D01*
%TO.C,R10*%
X95200000Y-81587500D02*
X96800000Y-81587500D01*
X96800000Y-82412500D01*
X95200000Y-82412500D01*
X95200000Y-81587500D01*
%TO.C,J15*%
X87500000Y-128100000D02*
X94500000Y-128100000D01*
X87500000Y-131000000D02*
X87500000Y-128100000D01*
X87500000Y-131000000D02*
X94500000Y-131000000D01*
X88500000Y-131000000D02*
X89000000Y-130292893D01*
X89000000Y-130292893D02*
X89500000Y-131000000D01*
X94500000Y-131000000D02*
X94500000Y-128100000D01*
X88850000Y-128450000D02*
X89150000Y-128450000D01*
X89150000Y-129050000D01*
X88850000Y-129050000D01*
X88850000Y-128450000D01*
X89850000Y-128450000D02*
X90150000Y-128450000D01*
X90150000Y-129050000D01*
X89850000Y-129050000D01*
X89850000Y-128450000D01*
X90850000Y-128450000D02*
X91150000Y-128450000D01*
X91150000Y-129050000D01*
X90850000Y-129050000D01*
X90850000Y-128450000D01*
X91850000Y-128450000D02*
X92150000Y-128450000D01*
X92150000Y-129050000D01*
X91850000Y-129050000D01*
X91850000Y-128450000D01*
X92850000Y-128450000D02*
X93150000Y-128450000D01*
X93150000Y-129050000D01*
X92850000Y-129050000D01*
X92850000Y-128450000D01*
%TO.C,U6*%
X126800000Y-95500000D02*
X130200000Y-95500000D01*
X130200000Y-100500000D01*
X125800000Y-100500000D01*
X125800000Y-96500000D01*
X126800000Y-95500000D01*
%TO.C,J22*%
X77500000Y-154100000D02*
X84500000Y-154100000D01*
X77500000Y-157000000D02*
X77500000Y-154100000D01*
X77500000Y-157000000D02*
X84500000Y-157000000D01*
X78500000Y-157000000D02*
X79000000Y-156292893D01*
X79000000Y-156292893D02*
X79500000Y-157000000D01*
X84500000Y-157000000D02*
X84500000Y-154100000D01*
X78850000Y-154450000D02*
X79150000Y-154450000D01*
X79150000Y-155050000D01*
X78850000Y-155050000D01*
X78850000Y-154450000D01*
X79850000Y-154450000D02*
X80150000Y-154450000D01*
X80150000Y-155050000D01*
X79850000Y-155050000D01*
X79850000Y-154450000D01*
X80850000Y-154450000D02*
X81150000Y-154450000D01*
X81150000Y-155050000D01*
X80850000Y-155050000D01*
X80850000Y-154450000D01*
X81850000Y-154450000D02*
X82150000Y-154450000D01*
X82150000Y-155050000D01*
X81850000Y-155050000D01*
X81850000Y-154450000D01*
X82850000Y-154450000D02*
X83150000Y-154450000D01*
X83150000Y-155050000D01*
X82850000Y-155050000D01*
X82850000Y-154450000D01*
%TO.C,J31*%
X111500000Y-128100000D02*
X118500000Y-128100000D01*
X111500000Y-131000000D02*
X111500000Y-128100000D01*
X111500000Y-131000000D02*
X118500000Y-131000000D01*
X112500000Y-131000000D02*
X113000000Y-130292893D01*
X113000000Y-130292893D02*
X113500000Y-131000000D01*
X118500000Y-131000000D02*
X118500000Y-128100000D01*
X112850000Y-128450000D02*
X113150000Y-128450000D01*
X113150000Y-129050000D01*
X112850000Y-129050000D01*
X112850000Y-128450000D01*
X113850000Y-128450000D02*
X114150000Y-128450000D01*
X114150000Y-129050000D01*
X113850000Y-129050000D01*
X113850000Y-128450000D01*
X114850000Y-128450000D02*
X115150000Y-128450000D01*
X115150000Y-129050000D01*
X114850000Y-129050000D01*
X114850000Y-128450000D01*
X115850000Y-128450000D02*
X116150000Y-128450000D01*
X116150000Y-129050000D01*
X115850000Y-129050000D01*
X115850000Y-128450000D01*
X116850000Y-128450000D02*
X117150000Y-128450000D01*
X117150000Y-129050000D01*
X116850000Y-129050000D01*
X116850000Y-128450000D01*
%TO.C,C4*%
X116200000Y-104600000D02*
X117800000Y-104600000D01*
X117800000Y-105400000D01*
X116200000Y-105400000D01*
X116200000Y-104600000D01*
%TO.C,U2*%
X144800000Y-99750000D02*
X148200000Y-99750000D01*
X148200000Y-106250000D01*
X143800000Y-106250000D01*
X143800000Y-100750000D01*
X144800000Y-99750000D01*
%TO.C,R35*%
X139200000Y-101587500D02*
X140800000Y-101587500D01*
X140800000Y-102412500D01*
X139200000Y-102412500D01*
X139200000Y-101587500D01*
%TO.C,J34*%
X101500000Y-141100000D02*
X108500000Y-141100000D01*
X101500000Y-144000000D02*
X101500000Y-141100000D01*
X101500000Y-144000000D02*
X108500000Y-144000000D01*
X102500000Y-144000000D02*
X103000000Y-143292893D01*
X103000000Y-143292893D02*
X103500000Y-144000000D01*
X108500000Y-144000000D02*
X108500000Y-141100000D01*
X102850000Y-141450000D02*
X103150000Y-141450000D01*
X103150000Y-142050000D01*
X102850000Y-142050000D01*
X102850000Y-141450000D01*
X103850000Y-141450000D02*
X104150000Y-141450000D01*
X104150000Y-142050000D01*
X103850000Y-142050000D01*
X103850000Y-141450000D01*
X104850000Y-141450000D02*
X105150000Y-141450000D01*
X105150000Y-142050000D01*
X104850000Y-142050000D01*
X104850000Y-141450000D01*
X105850000Y-141450000D02*
X106150000Y-141450000D01*
X106150000Y-142050000D01*
X105850000Y-142050000D01*
X105850000Y-141450000D01*
X106850000Y-141450000D02*
X107150000Y-141450000D01*
X107150000Y-142050000D01*
X106850000Y-142050000D01*
X106850000Y-141450000D01*
%TO.C,J53*%
X135500000Y-147600000D02*
X142500000Y-147600000D01*
X135500000Y-150500000D02*
X135500000Y-147600000D01*
X135500000Y-150500000D02*
X142500000Y-150500000D01*
X136500000Y-150500000D02*
X137000000Y-149792893D01*
X137000000Y-149792893D02*
X137500000Y-150500000D01*
X142500000Y-150500000D02*
X142500000Y-147600000D01*
X136850000Y-147950000D02*
X137150000Y-147950000D01*
X137150000Y-148550000D01*
X136850000Y-148550000D01*
X136850000Y-147950000D01*
X137850000Y-147950000D02*
X138150000Y-147950000D01*
X138150000Y-148550000D01*
X137850000Y-148550000D01*
X137850000Y-147950000D01*
X138850000Y-147950000D02*
X139150000Y-147950000D01*
X139150000Y-148550000D01*
X138850000Y-148550000D01*
X138850000Y-147950000D01*
X139850000Y-147950000D02*
X140150000Y-147950000D01*
X140150000Y-148550000D01*
X139850000Y-148550000D01*
X139850000Y-147950000D01*
X140850000Y-147950000D02*
X141150000Y-147950000D01*
X141150000Y-148550000D01*
X140850000Y-148550000D01*
X140850000Y-147950000D01*
%TO.C,Q1*%
X83675000Y-83550000D02*
X84650000Y-83550000D01*
X84650000Y-86450000D01*
X83350000Y-86450000D01*
X83350000Y-83875000D01*
X83675000Y-83550000D01*
%TO.C,J13*%
X87500000Y-121600000D02*
X94500000Y-121600000D01*
X87500000Y-124500000D02*
X87500000Y-121600000D01*
X87500000Y-124500000D02*
X94500000Y-124500000D01*
X88500000Y-124500000D02*
X89000000Y-123792893D01*
X89000000Y-123792893D02*
X89500000Y-124500000D01*
X94500000Y-124500000D02*
X94500000Y-121600000D01*
X88850000Y-121950000D02*
X89150000Y-121950000D01*
X89150000Y-122550000D01*
X88850000Y-122550000D01*
X88850000Y-121950000D01*
X89850000Y-121950000D02*
X90150000Y-121950000D01*
X90150000Y-122550000D01*
X89850000Y-122550000D01*
X89850000Y-121950000D01*
X90850000Y-121950000D02*
X91150000Y-121950000D01*
X91150000Y-122550000D01*
X90850000Y-122550000D01*
X90850000Y-121950000D01*
X91850000Y-121950000D02*
X92150000Y-121950000D01*
X92150000Y-122550000D01*
X91850000Y-122550000D01*
X91850000Y-121950000D01*
X92850000Y-121950000D02*
X93150000Y-121950000D01*
X93150000Y-122550000D01*
X92850000Y-122550000D01*
X92850000Y-121950000D01*
%TO.C,R15*%
X103200000Y-84587500D02*
X104800000Y-84587500D01*
X104800000Y-85412500D01*
X103200000Y-85412500D01*
X103200000Y-84587500D01*
%TO.C,J48*%
X125500000Y-134600000D02*
X132500000Y-134600000D01*
X125500000Y-137500000D02*
X125500000Y-134600000D01*
X125500000Y-137500000D02*
X132500000Y-137500000D01*
X126500000Y-137500000D02*
X127000000Y-136792893D01*
X127000000Y-136792893D02*
X127500000Y-137500000D01*
X132500000Y-137500000D02*
X132500000Y-134600000D01*
X126850000Y-134950000D02*
X127150000Y-134950000D01*
X127150000Y-135550000D01*
X126850000Y-135550000D01*
X126850000Y-134950000D01*
X127850000Y-134950000D02*
X128150000Y-134950000D01*
X128150000Y-135550000D01*
X127850000Y-135550000D01*
X127850000Y-134950000D01*
X128850000Y-134950000D02*
X129150000Y-134950000D01*
X129150000Y-135550000D01*
X128850000Y-135550000D01*
X128850000Y-134950000D01*
X129850000Y-134950000D02*
X130150000Y-134950000D01*
X130150000Y-135550000D01*
X129850000Y-135550000D01*
X129850000Y-134950000D01*
X130850000Y-134950000D02*
X131150000Y-134950000D01*
X131150000Y-135550000D01*
X130850000Y-135550000D01*
X130850000Y-134950000D01*
%TO.C,J44*%
X125500000Y-121600000D02*
X132500000Y-121600000D01*
X125500000Y-124500000D02*
X125500000Y-121600000D01*
X125500000Y-124500000D02*
X132500000Y-124500000D01*
X126500000Y-124500000D02*
X127000000Y-123792893D01*
X127000000Y-123792893D02*
X127500000Y-124500000D01*
X132500000Y-124500000D02*
X132500000Y-121600000D01*
X126850000Y-121950000D02*
X127150000Y-121950000D01*
X127150000Y-122550000D01*
X126850000Y-122550000D01*
X126850000Y-121950000D01*
X127850000Y-121950000D02*
X128150000Y-121950000D01*
X128150000Y-122550000D01*
X127850000Y-122550000D01*
X127850000Y-121950000D01*
X128850000Y-121950000D02*
X129150000Y-121950000D01*
X129150000Y-122550000D01*
X128850000Y-122550000D01*
X128850000Y-121950000D01*
X129850000Y-121950000D02*
X130150000Y-121950000D01*
X130150000Y-122550000D01*
X129850000Y-122550000D01*
X129850000Y-121950000D01*
X130850000Y-121950000D02*
X131150000Y-121950000D01*
X131150000Y-122550000D01*
X130850000Y-122550000D01*
X130850000Y-121950000D01*
%TO.C,C1*%
X79200000Y-93100000D02*
X80800000Y-93100000D01*
X80800000Y-93900000D01*
X79200000Y-93900000D01*
X79200000Y-93100000D01*
%TO.C,R12*%
X103200000Y-81587500D02*
X104800000Y-81587500D01*
X104800000Y-82412500D01*
X103200000Y-82412500D01*
X103200000Y-81587500D01*
%TO.C,R34*%
X135200000Y-101587500D02*
X136800000Y-101587500D01*
X136800000Y-102412500D01*
X135200000Y-102412500D01*
X135200000Y-101587500D01*
%TO.C,J52*%
X125500000Y-147600000D02*
X132500000Y-147600000D01*
X125500000Y-150500000D02*
X125500000Y-147600000D01*
X125500000Y-150500000D02*
X132500000Y-150500000D01*
X126500000Y-150500000D02*
X127000000Y-149792893D01*
X127000000Y-149792893D02*
X127500000Y-150500000D01*
X132500000Y-150500000D02*
X132500000Y-147600000D01*
X126850000Y-147950000D02*
X127150000Y-147950000D01*
X127150000Y-148550000D01*
X126850000Y-148550000D01*
X126850000Y-147950000D01*
X127850000Y-147950000D02*
X128150000Y-147950000D01*
X128150000Y-148550000D01*
X127850000Y-148550000D01*
X127850000Y-147950000D01*
X128850000Y-147950000D02*
X129150000Y-147950000D01*
X129150000Y-148550000D01*
X128850000Y-148550000D01*
X128850000Y-147950000D01*
X129850000Y-147950000D02*
X130150000Y-147950000D01*
X130150000Y-148550000D01*
X129850000Y-148550000D01*
X129850000Y-147950000D01*
X130850000Y-147950000D02*
X131150000Y-147950000D01*
X131150000Y-148550000D01*
X130850000Y-148550000D01*
X130850000Y-147950000D01*
%TO.C,C3*%
X92200000Y-104600000D02*
X93800000Y-104600000D01*
X93800000Y-105400000D01*
X92200000Y-105400000D01*
X92200000Y-104600000D01*
%TO.C,L1*%
X119950000Y-83950000D02*
X124050000Y-83950000D01*
X124050000Y-88050000D01*
X119950000Y-88050000D01*
X119950000Y-83950000D01*
%TO.C,C9*%
X123000000Y-91375000D02*
X125000000Y-91375000D01*
X125000000Y-92625000D01*
X123000000Y-92625000D01*
X123000000Y-91375000D01*
%TO.C,C6*%
X133200000Y-98600000D02*
X134800000Y-98600000D01*
X134800000Y-99400000D01*
X133200000Y-99400000D01*
X133200000Y-98600000D01*
%TO.C,C5*%
X147200000Y-108600000D02*
X148800000Y-108600000D01*
X148800000Y-109400000D01*
X147200000Y-109400000D01*
X147200000Y-108600000D01*
%TO.C,R33*%
X115200000Y-101587500D02*
X116800000Y-101587500D01*
X116800000Y-102412500D01*
X115200000Y-102412500D01*
X115200000Y-101587500D01*
%TO.C,J2*%
X106350000Y-79110000D02*
X108890000Y-79110000D01*
X106350000Y-96890000D02*
X106350000Y-79110000D01*
X108255000Y-96890000D02*
X106350000Y-96890000D01*
X108890000Y-79110000D02*
X108890000Y-96255000D01*
X108890000Y-96255000D02*
X108255000Y-96890000D01*
%TO.C,J35*%
X111500000Y-141100000D02*
X118500000Y-141100000D01*
X111500000Y-144000000D02*
X111500000Y-141100000D01*
X111500000Y-144000000D02*
X118500000Y-144000000D01*
X112500000Y-144000000D02*
X113000000Y-143292893D01*
X113000000Y-143292893D02*
X113500000Y-144000000D01*
X118500000Y-144000000D02*
X118500000Y-141100000D01*
X112850000Y-141450000D02*
X113150000Y-141450000D01*
X113150000Y-142050000D01*
X112850000Y-142050000D01*
X112850000Y-141450000D01*
X113850000Y-141450000D02*
X114150000Y-141450000D01*
X114150000Y-142050000D01*
X113850000Y-142050000D01*
X113850000Y-141450000D01*
X114850000Y-141450000D02*
X115150000Y-141450000D01*
X115150000Y-142050000D01*
X114850000Y-142050000D01*
X114850000Y-141450000D01*
X115850000Y-141450000D02*
X116150000Y-141450000D01*
X116150000Y-142050000D01*
X115850000Y-142050000D01*
X115850000Y-141450000D01*
X116850000Y-141450000D02*
X117150000Y-141450000D01*
X117150000Y-142050000D01*
X116850000Y-142050000D01*
X116850000Y-141450000D01*
%TO.C,J18*%
X77500000Y-141100000D02*
X84500000Y-141100000D01*
X77500000Y-144000000D02*
X77500000Y-141100000D01*
X77500000Y-144000000D02*
X84500000Y-144000000D01*
X78500000Y-144000000D02*
X79000000Y-143292893D01*
X79000000Y-143292893D02*
X79500000Y-144000000D01*
X84500000Y-144000000D02*
X84500000Y-141100000D01*
X78850000Y-141450000D02*
X79150000Y-141450000D01*
X79150000Y-142050000D01*
X78850000Y-142050000D01*
X78850000Y-141450000D01*
X79850000Y-141450000D02*
X80150000Y-141450000D01*
X80150000Y-142050000D01*
X79850000Y-142050000D01*
X79850000Y-141450000D01*
X80850000Y-141450000D02*
X81150000Y-141450000D01*
X81150000Y-142050000D01*
X80850000Y-142050000D01*
X80850000Y-141450000D01*
X81850000Y-141450000D02*
X82150000Y-141450000D01*
X82150000Y-142050000D01*
X81850000Y-142050000D01*
X81850000Y-141450000D01*
X82850000Y-141450000D02*
X83150000Y-141450000D01*
X83150000Y-142050000D01*
X82850000Y-142050000D01*
X82850000Y-141450000D01*
%TO.C,J12*%
X77500000Y-121600000D02*
X84500000Y-121600000D01*
X77500000Y-124500000D02*
X77500000Y-121600000D01*
X77500000Y-124500000D02*
X84500000Y-124500000D01*
X78500000Y-124500000D02*
X79000000Y-123792893D01*
X79000000Y-123792893D02*
X79500000Y-124500000D01*
X84500000Y-124500000D02*
X84500000Y-121600000D01*
X78850000Y-121950000D02*
X79150000Y-121950000D01*
X79150000Y-122550000D01*
X78850000Y-122550000D01*
X78850000Y-121950000D01*
X79850000Y-121950000D02*
X80150000Y-121950000D01*
X80150000Y-122550000D01*
X79850000Y-122550000D01*
X79850000Y-121950000D01*
X80850000Y-121950000D02*
X81150000Y-121950000D01*
X81150000Y-122550000D01*
X80850000Y-122550000D01*
X80850000Y-121950000D01*
X81850000Y-121950000D02*
X82150000Y-121950000D01*
X82150000Y-122550000D01*
X81850000Y-122550000D01*
X81850000Y-121950000D01*
X82850000Y-121950000D02*
X83150000Y-121950000D01*
X83150000Y-122550000D01*
X82850000Y-122550000D01*
X82850000Y-121950000D01*
%TO.C,U3*%
X84800000Y-105100000D02*
X88200000Y-105100000D01*
X88200000Y-112900000D01*
X83800000Y-112900000D01*
X83800000Y-106100000D01*
X84800000Y-105100000D01*
%TD*%
M02*
