%TF.GenerationSoftware,KiCad,Pcbnew,10.0.6*%
%TF.CreationDate,2026-10-01T23:26:31+08:00*%
%TF.ProjectId,PoseDoll_O22_SSI_Carrier,506f7365-446f-46c6-9c5f-4f32325f5353,rev?*%
%TF.SameCoordinates,Original*%
%TF.FileFunction,Legend,Top*%
%TF.FilePolarity,Positive*%
%FSLAX46Y46*%
G04 Gerber Fmt 4.6, Leading zero omitted, Abs format (unit mm)*
G04 Created by KiCad (PCBNEW 10.0.6) date 2026-10-01 23:26:31*
%MOMM*%
%LPD*%
G01*
G04 APERTURE LIST*
%ADD10C,0.120000*%
G04 APERTURE END LIST*
D10*
X80047618Y-120035283D02*
X80428571Y-120035283D01*
X79971428Y-120263855D02*
X80238095Y-119463855D01*
X80238095Y-119463855D02*
X80504761Y-120263855D01*
X80923809Y-119463855D02*
X80999999Y-119463855D01*
X80999999Y-119463855D02*
X81076190Y-119501950D01*
X81076190Y-119501950D02*
X81114285Y-119540045D01*
X81114285Y-119540045D02*
X81152380Y-119616236D01*
X81152380Y-119616236D02*
X81190475Y-119768617D01*
X81190475Y-119768617D02*
X81190475Y-119959093D01*
X81190475Y-119959093D02*
X81152380Y-120111474D01*
X81152380Y-120111474D02*
X81114285Y-120187664D01*
X81114285Y-120187664D02*
X81076190Y-120225760D01*
X81076190Y-120225760D02*
X80999999Y-120263855D01*
X80999999Y-120263855D02*
X80923809Y-120263855D01*
X80923809Y-120263855D02*
X80847618Y-120225760D01*
X80847618Y-120225760D02*
X80809523Y-120187664D01*
X80809523Y-120187664D02*
X80771428Y-120111474D01*
X80771428Y-120111474D02*
X80733332Y-119959093D01*
X80733332Y-119959093D02*
X80733332Y-119768617D01*
X80733332Y-119768617D02*
X80771428Y-119616236D01*
X80771428Y-119616236D02*
X80809523Y-119540045D01*
X80809523Y-119540045D02*
X80847618Y-119501950D01*
X80847618Y-119501950D02*
X80923809Y-119463855D01*
X81952380Y-120263855D02*
X81495237Y-120263855D01*
X81723809Y-120263855D02*
X81723809Y-119463855D01*
X81723809Y-119463855D02*
X81647618Y-119578140D01*
X81647618Y-119578140D02*
X81571428Y-119654331D01*
X81571428Y-119654331D02*
X81495237Y-119692426D01*
X80047618Y-126535283D02*
X80428571Y-126535283D01*
X79971428Y-126763855D02*
X80238095Y-125963855D01*
X80238095Y-125963855D02*
X80504761Y-126763855D01*
X80923809Y-125963855D02*
X80999999Y-125963855D01*
X80999999Y-125963855D02*
X81076190Y-126001950D01*
X81076190Y-126001950D02*
X81114285Y-126040045D01*
X81114285Y-126040045D02*
X81152380Y-126116236D01*
X81152380Y-126116236D02*
X81190475Y-126268617D01*
X81190475Y-126268617D02*
X81190475Y-126459093D01*
X81190475Y-126459093D02*
X81152380Y-126611474D01*
X81152380Y-126611474D02*
X81114285Y-126687664D01*
X81114285Y-126687664D02*
X81076190Y-126725760D01*
X81076190Y-126725760D02*
X80999999Y-126763855D01*
X80999999Y-126763855D02*
X80923809Y-126763855D01*
X80923809Y-126763855D02*
X80847618Y-126725760D01*
X80847618Y-126725760D02*
X80809523Y-126687664D01*
X80809523Y-126687664D02*
X80771428Y-126611474D01*
X80771428Y-126611474D02*
X80733332Y-126459093D01*
X80733332Y-126459093D02*
X80733332Y-126268617D01*
X80733332Y-126268617D02*
X80771428Y-126116236D01*
X80771428Y-126116236D02*
X80809523Y-126040045D01*
X80809523Y-126040045D02*
X80847618Y-126001950D01*
X80847618Y-126001950D02*
X80923809Y-125963855D01*
X81457142Y-125963855D02*
X81952380Y-125963855D01*
X81952380Y-125963855D02*
X81685714Y-126268617D01*
X81685714Y-126268617D02*
X81799999Y-126268617D01*
X81799999Y-126268617D02*
X81876190Y-126306712D01*
X81876190Y-126306712D02*
X81914285Y-126344807D01*
X81914285Y-126344807D02*
X81952380Y-126420998D01*
X81952380Y-126420998D02*
X81952380Y-126611474D01*
X81952380Y-126611474D02*
X81914285Y-126687664D01*
X81914285Y-126687664D02*
X81876190Y-126725760D01*
X81876190Y-126725760D02*
X81799999Y-126763855D01*
X81799999Y-126763855D02*
X81571428Y-126763855D01*
X81571428Y-126763855D02*
X81495237Y-126725760D01*
X81495237Y-126725760D02*
X81457142Y-126687664D01*
X80047618Y-133035283D02*
X80428571Y-133035283D01*
X79971428Y-133263855D02*
X80238095Y-132463855D01*
X80238095Y-132463855D02*
X80504761Y-133263855D01*
X80923809Y-132463855D02*
X80999999Y-132463855D01*
X80999999Y-132463855D02*
X81076190Y-132501950D01*
X81076190Y-132501950D02*
X81114285Y-132540045D01*
X81114285Y-132540045D02*
X81152380Y-132616236D01*
X81152380Y-132616236D02*
X81190475Y-132768617D01*
X81190475Y-132768617D02*
X81190475Y-132959093D01*
X81190475Y-132959093D02*
X81152380Y-133111474D01*
X81152380Y-133111474D02*
X81114285Y-133187664D01*
X81114285Y-133187664D02*
X81076190Y-133225760D01*
X81076190Y-133225760D02*
X80999999Y-133263855D01*
X80999999Y-133263855D02*
X80923809Y-133263855D01*
X80923809Y-133263855D02*
X80847618Y-133225760D01*
X80847618Y-133225760D02*
X80809523Y-133187664D01*
X80809523Y-133187664D02*
X80771428Y-133111474D01*
X80771428Y-133111474D02*
X80733332Y-132959093D01*
X80733332Y-132959093D02*
X80733332Y-132768617D01*
X80733332Y-132768617D02*
X80771428Y-132616236D01*
X80771428Y-132616236D02*
X80809523Y-132540045D01*
X80809523Y-132540045D02*
X80847618Y-132501950D01*
X80847618Y-132501950D02*
X80923809Y-132463855D01*
X81914285Y-132463855D02*
X81533333Y-132463855D01*
X81533333Y-132463855D02*
X81495237Y-132844807D01*
X81495237Y-132844807D02*
X81533333Y-132806712D01*
X81533333Y-132806712D02*
X81609523Y-132768617D01*
X81609523Y-132768617D02*
X81799999Y-132768617D01*
X81799999Y-132768617D02*
X81876190Y-132806712D01*
X81876190Y-132806712D02*
X81914285Y-132844807D01*
X81914285Y-132844807D02*
X81952380Y-132920998D01*
X81952380Y-132920998D02*
X81952380Y-133111474D01*
X81952380Y-133111474D02*
X81914285Y-133187664D01*
X81914285Y-133187664D02*
X81876190Y-133225760D01*
X81876190Y-133225760D02*
X81799999Y-133263855D01*
X81799999Y-133263855D02*
X81609523Y-133263855D01*
X81609523Y-133263855D02*
X81533333Y-133225760D01*
X81533333Y-133225760D02*
X81495237Y-133187664D01*
X80047618Y-139535283D02*
X80428571Y-139535283D01*
X79971428Y-139763855D02*
X80238095Y-138963855D01*
X80238095Y-138963855D02*
X80504761Y-139763855D01*
X80923809Y-138963855D02*
X80999999Y-138963855D01*
X80999999Y-138963855D02*
X81076190Y-139001950D01*
X81076190Y-139001950D02*
X81114285Y-139040045D01*
X81114285Y-139040045D02*
X81152380Y-139116236D01*
X81152380Y-139116236D02*
X81190475Y-139268617D01*
X81190475Y-139268617D02*
X81190475Y-139459093D01*
X81190475Y-139459093D02*
X81152380Y-139611474D01*
X81152380Y-139611474D02*
X81114285Y-139687664D01*
X81114285Y-139687664D02*
X81076190Y-139725760D01*
X81076190Y-139725760D02*
X80999999Y-139763855D01*
X80999999Y-139763855D02*
X80923809Y-139763855D01*
X80923809Y-139763855D02*
X80847618Y-139725760D01*
X80847618Y-139725760D02*
X80809523Y-139687664D01*
X80809523Y-139687664D02*
X80771428Y-139611474D01*
X80771428Y-139611474D02*
X80733332Y-139459093D01*
X80733332Y-139459093D02*
X80733332Y-139268617D01*
X80733332Y-139268617D02*
X80771428Y-139116236D01*
X80771428Y-139116236D02*
X80809523Y-139040045D01*
X80809523Y-139040045D02*
X80847618Y-139001950D01*
X80847618Y-139001950D02*
X80923809Y-138963855D01*
X81457142Y-138963855D02*
X81990476Y-138963855D01*
X81990476Y-138963855D02*
X81647618Y-139763855D01*
X80047618Y-146035283D02*
X80428571Y-146035283D01*
X79971428Y-146263855D02*
X80238095Y-145463855D01*
X80238095Y-145463855D02*
X80504761Y-146263855D01*
X80923809Y-145463855D02*
X80999999Y-145463855D01*
X80999999Y-145463855D02*
X81076190Y-145501950D01*
X81076190Y-145501950D02*
X81114285Y-145540045D01*
X81114285Y-145540045D02*
X81152380Y-145616236D01*
X81152380Y-145616236D02*
X81190475Y-145768617D01*
X81190475Y-145768617D02*
X81190475Y-145959093D01*
X81190475Y-145959093D02*
X81152380Y-146111474D01*
X81152380Y-146111474D02*
X81114285Y-146187664D01*
X81114285Y-146187664D02*
X81076190Y-146225760D01*
X81076190Y-146225760D02*
X80999999Y-146263855D01*
X80999999Y-146263855D02*
X80923809Y-146263855D01*
X80923809Y-146263855D02*
X80847618Y-146225760D01*
X80847618Y-146225760D02*
X80809523Y-146187664D01*
X80809523Y-146187664D02*
X80771428Y-146111474D01*
X80771428Y-146111474D02*
X80733332Y-145959093D01*
X80733332Y-145959093D02*
X80733332Y-145768617D01*
X80733332Y-145768617D02*
X80771428Y-145616236D01*
X80771428Y-145616236D02*
X80809523Y-145540045D01*
X80809523Y-145540045D02*
X80847618Y-145501950D01*
X80847618Y-145501950D02*
X80923809Y-145463855D01*
X81571428Y-146263855D02*
X81723809Y-146263855D01*
X81723809Y-146263855D02*
X81799999Y-146225760D01*
X81799999Y-146225760D02*
X81838095Y-146187664D01*
X81838095Y-146187664D02*
X81914285Y-146073379D01*
X81914285Y-146073379D02*
X81952380Y-145920998D01*
X81952380Y-145920998D02*
X81952380Y-145616236D01*
X81952380Y-145616236D02*
X81914285Y-145540045D01*
X81914285Y-145540045D02*
X81876190Y-145501950D01*
X81876190Y-145501950D02*
X81799999Y-145463855D01*
X81799999Y-145463855D02*
X81647618Y-145463855D01*
X81647618Y-145463855D02*
X81571428Y-145501950D01*
X81571428Y-145501950D02*
X81533333Y-145540045D01*
X81533333Y-145540045D02*
X81495237Y-145616236D01*
X81495237Y-145616236D02*
X81495237Y-145806712D01*
X81495237Y-145806712D02*
X81533333Y-145882902D01*
X81533333Y-145882902D02*
X81571428Y-145920998D01*
X81571428Y-145920998D02*
X81647618Y-145959093D01*
X81647618Y-145959093D02*
X81799999Y-145959093D01*
X81799999Y-145959093D02*
X81876190Y-145920998D01*
X81876190Y-145920998D02*
X81914285Y-145882902D01*
X81914285Y-145882902D02*
X81952380Y-145806712D01*
X80047618Y-152535283D02*
X80428571Y-152535283D01*
X79971428Y-152763855D02*
X80238095Y-151963855D01*
X80238095Y-151963855D02*
X80504761Y-152763855D01*
X81190475Y-152763855D02*
X80733332Y-152763855D01*
X80961904Y-152763855D02*
X80961904Y-151963855D01*
X80961904Y-151963855D02*
X80885713Y-152078140D01*
X80885713Y-152078140D02*
X80809523Y-152154331D01*
X80809523Y-152154331D02*
X80733332Y-152192426D01*
X81952380Y-152763855D02*
X81495237Y-152763855D01*
X81723809Y-152763855D02*
X81723809Y-151963855D01*
X81723809Y-151963855D02*
X81647618Y-152078140D01*
X81647618Y-152078140D02*
X81571428Y-152154331D01*
X81571428Y-152154331D02*
X81495237Y-152192426D01*
X80047618Y-159035283D02*
X80428571Y-159035283D01*
X79971428Y-159263855D02*
X80238095Y-158463855D01*
X80238095Y-158463855D02*
X80504761Y-159263855D01*
X81190475Y-159263855D02*
X80733332Y-159263855D01*
X80961904Y-159263855D02*
X80961904Y-158463855D01*
X80961904Y-158463855D02*
X80885713Y-158578140D01*
X80885713Y-158578140D02*
X80809523Y-158654331D01*
X80809523Y-158654331D02*
X80733332Y-158692426D01*
X81457142Y-158463855D02*
X81952380Y-158463855D01*
X81952380Y-158463855D02*
X81685714Y-158768617D01*
X81685714Y-158768617D02*
X81799999Y-158768617D01*
X81799999Y-158768617D02*
X81876190Y-158806712D01*
X81876190Y-158806712D02*
X81914285Y-158844807D01*
X81914285Y-158844807D02*
X81952380Y-158920998D01*
X81952380Y-158920998D02*
X81952380Y-159111474D01*
X81952380Y-159111474D02*
X81914285Y-159187664D01*
X81914285Y-159187664D02*
X81876190Y-159225760D01*
X81876190Y-159225760D02*
X81799999Y-159263855D01*
X81799999Y-159263855D02*
X81571428Y-159263855D01*
X81571428Y-159263855D02*
X81495237Y-159225760D01*
X81495237Y-159225760D02*
X81457142Y-159187664D01*
X90047618Y-120035283D02*
X90428571Y-120035283D01*
X89971428Y-120263855D02*
X90238095Y-119463855D01*
X90238095Y-119463855D02*
X90504761Y-120263855D01*
X90923809Y-119463855D02*
X90999999Y-119463855D01*
X90999999Y-119463855D02*
X91076190Y-119501950D01*
X91076190Y-119501950D02*
X91114285Y-119540045D01*
X91114285Y-119540045D02*
X91152380Y-119616236D01*
X91152380Y-119616236D02*
X91190475Y-119768617D01*
X91190475Y-119768617D02*
X91190475Y-119959093D01*
X91190475Y-119959093D02*
X91152380Y-120111474D01*
X91152380Y-120111474D02*
X91114285Y-120187664D01*
X91114285Y-120187664D02*
X91076190Y-120225760D01*
X91076190Y-120225760D02*
X90999999Y-120263855D01*
X90999999Y-120263855D02*
X90923809Y-120263855D01*
X90923809Y-120263855D02*
X90847618Y-120225760D01*
X90847618Y-120225760D02*
X90809523Y-120187664D01*
X90809523Y-120187664D02*
X90771428Y-120111474D01*
X90771428Y-120111474D02*
X90733332Y-119959093D01*
X90733332Y-119959093D02*
X90733332Y-119768617D01*
X90733332Y-119768617D02*
X90771428Y-119616236D01*
X90771428Y-119616236D02*
X90809523Y-119540045D01*
X90809523Y-119540045D02*
X90847618Y-119501950D01*
X90847618Y-119501950D02*
X90923809Y-119463855D01*
X91495237Y-119540045D02*
X91533333Y-119501950D01*
X91533333Y-119501950D02*
X91609523Y-119463855D01*
X91609523Y-119463855D02*
X91799999Y-119463855D01*
X91799999Y-119463855D02*
X91876190Y-119501950D01*
X91876190Y-119501950D02*
X91914285Y-119540045D01*
X91914285Y-119540045D02*
X91952380Y-119616236D01*
X91952380Y-119616236D02*
X91952380Y-119692426D01*
X91952380Y-119692426D02*
X91914285Y-119806712D01*
X91914285Y-119806712D02*
X91457142Y-120263855D01*
X91457142Y-120263855D02*
X91952380Y-120263855D01*
X90047618Y-126535283D02*
X90428571Y-126535283D01*
X89971428Y-126763855D02*
X90238095Y-125963855D01*
X90238095Y-125963855D02*
X90504761Y-126763855D01*
X90923809Y-125963855D02*
X90999999Y-125963855D01*
X90999999Y-125963855D02*
X91076190Y-126001950D01*
X91076190Y-126001950D02*
X91114285Y-126040045D01*
X91114285Y-126040045D02*
X91152380Y-126116236D01*
X91152380Y-126116236D02*
X91190475Y-126268617D01*
X91190475Y-126268617D02*
X91190475Y-126459093D01*
X91190475Y-126459093D02*
X91152380Y-126611474D01*
X91152380Y-126611474D02*
X91114285Y-126687664D01*
X91114285Y-126687664D02*
X91076190Y-126725760D01*
X91076190Y-126725760D02*
X90999999Y-126763855D01*
X90999999Y-126763855D02*
X90923809Y-126763855D01*
X90923809Y-126763855D02*
X90847618Y-126725760D01*
X90847618Y-126725760D02*
X90809523Y-126687664D01*
X90809523Y-126687664D02*
X90771428Y-126611474D01*
X90771428Y-126611474D02*
X90733332Y-126459093D01*
X90733332Y-126459093D02*
X90733332Y-126268617D01*
X90733332Y-126268617D02*
X90771428Y-126116236D01*
X90771428Y-126116236D02*
X90809523Y-126040045D01*
X90809523Y-126040045D02*
X90847618Y-126001950D01*
X90847618Y-126001950D02*
X90923809Y-125963855D01*
X91876190Y-126230521D02*
X91876190Y-126763855D01*
X91685714Y-125925760D02*
X91495237Y-126497188D01*
X91495237Y-126497188D02*
X91990476Y-126497188D01*
X90047618Y-133035283D02*
X90428571Y-133035283D01*
X89971428Y-133263855D02*
X90238095Y-132463855D01*
X90238095Y-132463855D02*
X90504761Y-133263855D01*
X90923809Y-132463855D02*
X90999999Y-132463855D01*
X90999999Y-132463855D02*
X91076190Y-132501950D01*
X91076190Y-132501950D02*
X91114285Y-132540045D01*
X91114285Y-132540045D02*
X91152380Y-132616236D01*
X91152380Y-132616236D02*
X91190475Y-132768617D01*
X91190475Y-132768617D02*
X91190475Y-132959093D01*
X91190475Y-132959093D02*
X91152380Y-133111474D01*
X91152380Y-133111474D02*
X91114285Y-133187664D01*
X91114285Y-133187664D02*
X91076190Y-133225760D01*
X91076190Y-133225760D02*
X90999999Y-133263855D01*
X90999999Y-133263855D02*
X90923809Y-133263855D01*
X90923809Y-133263855D02*
X90847618Y-133225760D01*
X90847618Y-133225760D02*
X90809523Y-133187664D01*
X90809523Y-133187664D02*
X90771428Y-133111474D01*
X90771428Y-133111474D02*
X90733332Y-132959093D01*
X90733332Y-132959093D02*
X90733332Y-132768617D01*
X90733332Y-132768617D02*
X90771428Y-132616236D01*
X90771428Y-132616236D02*
X90809523Y-132540045D01*
X90809523Y-132540045D02*
X90847618Y-132501950D01*
X90847618Y-132501950D02*
X90923809Y-132463855D01*
X91876190Y-132463855D02*
X91723809Y-132463855D01*
X91723809Y-132463855D02*
X91647618Y-132501950D01*
X91647618Y-132501950D02*
X91609523Y-132540045D01*
X91609523Y-132540045D02*
X91533333Y-132654331D01*
X91533333Y-132654331D02*
X91495237Y-132806712D01*
X91495237Y-132806712D02*
X91495237Y-133111474D01*
X91495237Y-133111474D02*
X91533333Y-133187664D01*
X91533333Y-133187664D02*
X91571428Y-133225760D01*
X91571428Y-133225760D02*
X91647618Y-133263855D01*
X91647618Y-133263855D02*
X91799999Y-133263855D01*
X91799999Y-133263855D02*
X91876190Y-133225760D01*
X91876190Y-133225760D02*
X91914285Y-133187664D01*
X91914285Y-133187664D02*
X91952380Y-133111474D01*
X91952380Y-133111474D02*
X91952380Y-132920998D01*
X91952380Y-132920998D02*
X91914285Y-132844807D01*
X91914285Y-132844807D02*
X91876190Y-132806712D01*
X91876190Y-132806712D02*
X91799999Y-132768617D01*
X91799999Y-132768617D02*
X91647618Y-132768617D01*
X91647618Y-132768617D02*
X91571428Y-132806712D01*
X91571428Y-132806712D02*
X91533333Y-132844807D01*
X91533333Y-132844807D02*
X91495237Y-132920998D01*
X90047618Y-139535283D02*
X90428571Y-139535283D01*
X89971428Y-139763855D02*
X90238095Y-138963855D01*
X90238095Y-138963855D02*
X90504761Y-139763855D01*
X90923809Y-138963855D02*
X90999999Y-138963855D01*
X90999999Y-138963855D02*
X91076190Y-139001950D01*
X91076190Y-139001950D02*
X91114285Y-139040045D01*
X91114285Y-139040045D02*
X91152380Y-139116236D01*
X91152380Y-139116236D02*
X91190475Y-139268617D01*
X91190475Y-139268617D02*
X91190475Y-139459093D01*
X91190475Y-139459093D02*
X91152380Y-139611474D01*
X91152380Y-139611474D02*
X91114285Y-139687664D01*
X91114285Y-139687664D02*
X91076190Y-139725760D01*
X91076190Y-139725760D02*
X90999999Y-139763855D01*
X90999999Y-139763855D02*
X90923809Y-139763855D01*
X90923809Y-139763855D02*
X90847618Y-139725760D01*
X90847618Y-139725760D02*
X90809523Y-139687664D01*
X90809523Y-139687664D02*
X90771428Y-139611474D01*
X90771428Y-139611474D02*
X90733332Y-139459093D01*
X90733332Y-139459093D02*
X90733332Y-139268617D01*
X90733332Y-139268617D02*
X90771428Y-139116236D01*
X90771428Y-139116236D02*
X90809523Y-139040045D01*
X90809523Y-139040045D02*
X90847618Y-139001950D01*
X90847618Y-139001950D02*
X90923809Y-138963855D01*
X91647618Y-139306712D02*
X91571428Y-139268617D01*
X91571428Y-139268617D02*
X91533333Y-139230521D01*
X91533333Y-139230521D02*
X91495237Y-139154331D01*
X91495237Y-139154331D02*
X91495237Y-139116236D01*
X91495237Y-139116236D02*
X91533333Y-139040045D01*
X91533333Y-139040045D02*
X91571428Y-139001950D01*
X91571428Y-139001950D02*
X91647618Y-138963855D01*
X91647618Y-138963855D02*
X91799999Y-138963855D01*
X91799999Y-138963855D02*
X91876190Y-139001950D01*
X91876190Y-139001950D02*
X91914285Y-139040045D01*
X91914285Y-139040045D02*
X91952380Y-139116236D01*
X91952380Y-139116236D02*
X91952380Y-139154331D01*
X91952380Y-139154331D02*
X91914285Y-139230521D01*
X91914285Y-139230521D02*
X91876190Y-139268617D01*
X91876190Y-139268617D02*
X91799999Y-139306712D01*
X91799999Y-139306712D02*
X91647618Y-139306712D01*
X91647618Y-139306712D02*
X91571428Y-139344807D01*
X91571428Y-139344807D02*
X91533333Y-139382902D01*
X91533333Y-139382902D02*
X91495237Y-139459093D01*
X91495237Y-139459093D02*
X91495237Y-139611474D01*
X91495237Y-139611474D02*
X91533333Y-139687664D01*
X91533333Y-139687664D02*
X91571428Y-139725760D01*
X91571428Y-139725760D02*
X91647618Y-139763855D01*
X91647618Y-139763855D02*
X91799999Y-139763855D01*
X91799999Y-139763855D02*
X91876190Y-139725760D01*
X91876190Y-139725760D02*
X91914285Y-139687664D01*
X91914285Y-139687664D02*
X91952380Y-139611474D01*
X91952380Y-139611474D02*
X91952380Y-139459093D01*
X91952380Y-139459093D02*
X91914285Y-139382902D01*
X91914285Y-139382902D02*
X91876190Y-139344807D01*
X91876190Y-139344807D02*
X91799999Y-139306712D01*
X90047618Y-146035283D02*
X90428571Y-146035283D01*
X89971428Y-146263855D02*
X90238095Y-145463855D01*
X90238095Y-145463855D02*
X90504761Y-146263855D01*
X91190475Y-146263855D02*
X90733332Y-146263855D01*
X90961904Y-146263855D02*
X90961904Y-145463855D01*
X90961904Y-145463855D02*
X90885713Y-145578140D01*
X90885713Y-145578140D02*
X90809523Y-145654331D01*
X90809523Y-145654331D02*
X90733332Y-145692426D01*
X91685714Y-145463855D02*
X91761904Y-145463855D01*
X91761904Y-145463855D02*
X91838095Y-145501950D01*
X91838095Y-145501950D02*
X91876190Y-145540045D01*
X91876190Y-145540045D02*
X91914285Y-145616236D01*
X91914285Y-145616236D02*
X91952380Y-145768617D01*
X91952380Y-145768617D02*
X91952380Y-145959093D01*
X91952380Y-145959093D02*
X91914285Y-146111474D01*
X91914285Y-146111474D02*
X91876190Y-146187664D01*
X91876190Y-146187664D02*
X91838095Y-146225760D01*
X91838095Y-146225760D02*
X91761904Y-146263855D01*
X91761904Y-146263855D02*
X91685714Y-146263855D01*
X91685714Y-146263855D02*
X91609523Y-146225760D01*
X91609523Y-146225760D02*
X91571428Y-146187664D01*
X91571428Y-146187664D02*
X91533333Y-146111474D01*
X91533333Y-146111474D02*
X91495237Y-145959093D01*
X91495237Y-145959093D02*
X91495237Y-145768617D01*
X91495237Y-145768617D02*
X91533333Y-145616236D01*
X91533333Y-145616236D02*
X91571428Y-145540045D01*
X91571428Y-145540045D02*
X91609523Y-145501950D01*
X91609523Y-145501950D02*
X91685714Y-145463855D01*
X90047618Y-152535283D02*
X90428571Y-152535283D01*
X89971428Y-152763855D02*
X90238095Y-151963855D01*
X90238095Y-151963855D02*
X90504761Y-152763855D01*
X91190475Y-152763855D02*
X90733332Y-152763855D01*
X90961904Y-152763855D02*
X90961904Y-151963855D01*
X90961904Y-151963855D02*
X90885713Y-152078140D01*
X90885713Y-152078140D02*
X90809523Y-152154331D01*
X90809523Y-152154331D02*
X90733332Y-152192426D01*
X91495237Y-152040045D02*
X91533333Y-152001950D01*
X91533333Y-152001950D02*
X91609523Y-151963855D01*
X91609523Y-151963855D02*
X91799999Y-151963855D01*
X91799999Y-151963855D02*
X91876190Y-152001950D01*
X91876190Y-152001950D02*
X91914285Y-152040045D01*
X91914285Y-152040045D02*
X91952380Y-152116236D01*
X91952380Y-152116236D02*
X91952380Y-152192426D01*
X91952380Y-152192426D02*
X91914285Y-152306712D01*
X91914285Y-152306712D02*
X91457142Y-152763855D01*
X91457142Y-152763855D02*
X91952380Y-152763855D01*
X90047618Y-159035283D02*
X90428571Y-159035283D01*
X89971428Y-159263855D02*
X90238095Y-158463855D01*
X90238095Y-158463855D02*
X90504761Y-159263855D01*
X91190475Y-159263855D02*
X90733332Y-159263855D01*
X90961904Y-159263855D02*
X90961904Y-158463855D01*
X90961904Y-158463855D02*
X90885713Y-158578140D01*
X90885713Y-158578140D02*
X90809523Y-158654331D01*
X90809523Y-158654331D02*
X90733332Y-158692426D01*
X91876190Y-158730521D02*
X91876190Y-159263855D01*
X91685714Y-158425760D02*
X91495237Y-158997188D01*
X91495237Y-158997188D02*
X91990476Y-158997188D01*
X104295237Y-119844807D02*
X104409523Y-119882902D01*
X104409523Y-119882902D02*
X104447618Y-119920998D01*
X104447618Y-119920998D02*
X104485714Y-119997188D01*
X104485714Y-119997188D02*
X104485714Y-120111474D01*
X104485714Y-120111474D02*
X104447618Y-120187664D01*
X104447618Y-120187664D02*
X104409523Y-120225760D01*
X104409523Y-120225760D02*
X104333333Y-120263855D01*
X104333333Y-120263855D02*
X104028571Y-120263855D01*
X104028571Y-120263855D02*
X104028571Y-119463855D01*
X104028571Y-119463855D02*
X104295237Y-119463855D01*
X104295237Y-119463855D02*
X104371428Y-119501950D01*
X104371428Y-119501950D02*
X104409523Y-119540045D01*
X104409523Y-119540045D02*
X104447618Y-119616236D01*
X104447618Y-119616236D02*
X104447618Y-119692426D01*
X104447618Y-119692426D02*
X104409523Y-119768617D01*
X104409523Y-119768617D02*
X104371428Y-119806712D01*
X104371428Y-119806712D02*
X104295237Y-119844807D01*
X104295237Y-119844807D02*
X104028571Y-119844807D01*
X104980952Y-119463855D02*
X105057142Y-119463855D01*
X105057142Y-119463855D02*
X105133333Y-119501950D01*
X105133333Y-119501950D02*
X105171428Y-119540045D01*
X105171428Y-119540045D02*
X105209523Y-119616236D01*
X105209523Y-119616236D02*
X105247618Y-119768617D01*
X105247618Y-119768617D02*
X105247618Y-119959093D01*
X105247618Y-119959093D02*
X105209523Y-120111474D01*
X105209523Y-120111474D02*
X105171428Y-120187664D01*
X105171428Y-120187664D02*
X105133333Y-120225760D01*
X105133333Y-120225760D02*
X105057142Y-120263855D01*
X105057142Y-120263855D02*
X104980952Y-120263855D01*
X104980952Y-120263855D02*
X104904761Y-120225760D01*
X104904761Y-120225760D02*
X104866666Y-120187664D01*
X104866666Y-120187664D02*
X104828571Y-120111474D01*
X104828571Y-120111474D02*
X104790475Y-119959093D01*
X104790475Y-119959093D02*
X104790475Y-119768617D01*
X104790475Y-119768617D02*
X104828571Y-119616236D01*
X104828571Y-119616236D02*
X104866666Y-119540045D01*
X104866666Y-119540045D02*
X104904761Y-119501950D01*
X104904761Y-119501950D02*
X104980952Y-119463855D01*
X106009523Y-120263855D02*
X105552380Y-120263855D01*
X105780952Y-120263855D02*
X105780952Y-119463855D01*
X105780952Y-119463855D02*
X105704761Y-119578140D01*
X105704761Y-119578140D02*
X105628571Y-119654331D01*
X105628571Y-119654331D02*
X105552380Y-119692426D01*
X104295237Y-126344807D02*
X104409523Y-126382902D01*
X104409523Y-126382902D02*
X104447618Y-126420998D01*
X104447618Y-126420998D02*
X104485714Y-126497188D01*
X104485714Y-126497188D02*
X104485714Y-126611474D01*
X104485714Y-126611474D02*
X104447618Y-126687664D01*
X104447618Y-126687664D02*
X104409523Y-126725760D01*
X104409523Y-126725760D02*
X104333333Y-126763855D01*
X104333333Y-126763855D02*
X104028571Y-126763855D01*
X104028571Y-126763855D02*
X104028571Y-125963855D01*
X104028571Y-125963855D02*
X104295237Y-125963855D01*
X104295237Y-125963855D02*
X104371428Y-126001950D01*
X104371428Y-126001950D02*
X104409523Y-126040045D01*
X104409523Y-126040045D02*
X104447618Y-126116236D01*
X104447618Y-126116236D02*
X104447618Y-126192426D01*
X104447618Y-126192426D02*
X104409523Y-126268617D01*
X104409523Y-126268617D02*
X104371428Y-126306712D01*
X104371428Y-126306712D02*
X104295237Y-126344807D01*
X104295237Y-126344807D02*
X104028571Y-126344807D01*
X104980952Y-125963855D02*
X105057142Y-125963855D01*
X105057142Y-125963855D02*
X105133333Y-126001950D01*
X105133333Y-126001950D02*
X105171428Y-126040045D01*
X105171428Y-126040045D02*
X105209523Y-126116236D01*
X105209523Y-126116236D02*
X105247618Y-126268617D01*
X105247618Y-126268617D02*
X105247618Y-126459093D01*
X105247618Y-126459093D02*
X105209523Y-126611474D01*
X105209523Y-126611474D02*
X105171428Y-126687664D01*
X105171428Y-126687664D02*
X105133333Y-126725760D01*
X105133333Y-126725760D02*
X105057142Y-126763855D01*
X105057142Y-126763855D02*
X104980952Y-126763855D01*
X104980952Y-126763855D02*
X104904761Y-126725760D01*
X104904761Y-126725760D02*
X104866666Y-126687664D01*
X104866666Y-126687664D02*
X104828571Y-126611474D01*
X104828571Y-126611474D02*
X104790475Y-126459093D01*
X104790475Y-126459093D02*
X104790475Y-126268617D01*
X104790475Y-126268617D02*
X104828571Y-126116236D01*
X104828571Y-126116236D02*
X104866666Y-126040045D01*
X104866666Y-126040045D02*
X104904761Y-126001950D01*
X104904761Y-126001950D02*
X104980952Y-125963855D01*
X105514285Y-125963855D02*
X106009523Y-125963855D01*
X106009523Y-125963855D02*
X105742857Y-126268617D01*
X105742857Y-126268617D02*
X105857142Y-126268617D01*
X105857142Y-126268617D02*
X105933333Y-126306712D01*
X105933333Y-126306712D02*
X105971428Y-126344807D01*
X105971428Y-126344807D02*
X106009523Y-126420998D01*
X106009523Y-126420998D02*
X106009523Y-126611474D01*
X106009523Y-126611474D02*
X105971428Y-126687664D01*
X105971428Y-126687664D02*
X105933333Y-126725760D01*
X105933333Y-126725760D02*
X105857142Y-126763855D01*
X105857142Y-126763855D02*
X105628571Y-126763855D01*
X105628571Y-126763855D02*
X105552380Y-126725760D01*
X105552380Y-126725760D02*
X105514285Y-126687664D01*
X104295237Y-132844807D02*
X104409523Y-132882902D01*
X104409523Y-132882902D02*
X104447618Y-132920998D01*
X104447618Y-132920998D02*
X104485714Y-132997188D01*
X104485714Y-132997188D02*
X104485714Y-133111474D01*
X104485714Y-133111474D02*
X104447618Y-133187664D01*
X104447618Y-133187664D02*
X104409523Y-133225760D01*
X104409523Y-133225760D02*
X104333333Y-133263855D01*
X104333333Y-133263855D02*
X104028571Y-133263855D01*
X104028571Y-133263855D02*
X104028571Y-132463855D01*
X104028571Y-132463855D02*
X104295237Y-132463855D01*
X104295237Y-132463855D02*
X104371428Y-132501950D01*
X104371428Y-132501950D02*
X104409523Y-132540045D01*
X104409523Y-132540045D02*
X104447618Y-132616236D01*
X104447618Y-132616236D02*
X104447618Y-132692426D01*
X104447618Y-132692426D02*
X104409523Y-132768617D01*
X104409523Y-132768617D02*
X104371428Y-132806712D01*
X104371428Y-132806712D02*
X104295237Y-132844807D01*
X104295237Y-132844807D02*
X104028571Y-132844807D01*
X104980952Y-132463855D02*
X105057142Y-132463855D01*
X105057142Y-132463855D02*
X105133333Y-132501950D01*
X105133333Y-132501950D02*
X105171428Y-132540045D01*
X105171428Y-132540045D02*
X105209523Y-132616236D01*
X105209523Y-132616236D02*
X105247618Y-132768617D01*
X105247618Y-132768617D02*
X105247618Y-132959093D01*
X105247618Y-132959093D02*
X105209523Y-133111474D01*
X105209523Y-133111474D02*
X105171428Y-133187664D01*
X105171428Y-133187664D02*
X105133333Y-133225760D01*
X105133333Y-133225760D02*
X105057142Y-133263855D01*
X105057142Y-133263855D02*
X104980952Y-133263855D01*
X104980952Y-133263855D02*
X104904761Y-133225760D01*
X104904761Y-133225760D02*
X104866666Y-133187664D01*
X104866666Y-133187664D02*
X104828571Y-133111474D01*
X104828571Y-133111474D02*
X104790475Y-132959093D01*
X104790475Y-132959093D02*
X104790475Y-132768617D01*
X104790475Y-132768617D02*
X104828571Y-132616236D01*
X104828571Y-132616236D02*
X104866666Y-132540045D01*
X104866666Y-132540045D02*
X104904761Y-132501950D01*
X104904761Y-132501950D02*
X104980952Y-132463855D01*
X105971428Y-132463855D02*
X105590476Y-132463855D01*
X105590476Y-132463855D02*
X105552380Y-132844807D01*
X105552380Y-132844807D02*
X105590476Y-132806712D01*
X105590476Y-132806712D02*
X105666666Y-132768617D01*
X105666666Y-132768617D02*
X105857142Y-132768617D01*
X105857142Y-132768617D02*
X105933333Y-132806712D01*
X105933333Y-132806712D02*
X105971428Y-132844807D01*
X105971428Y-132844807D02*
X106009523Y-132920998D01*
X106009523Y-132920998D02*
X106009523Y-133111474D01*
X106009523Y-133111474D02*
X105971428Y-133187664D01*
X105971428Y-133187664D02*
X105933333Y-133225760D01*
X105933333Y-133225760D02*
X105857142Y-133263855D01*
X105857142Y-133263855D02*
X105666666Y-133263855D01*
X105666666Y-133263855D02*
X105590476Y-133225760D01*
X105590476Y-133225760D02*
X105552380Y-133187664D01*
X104295237Y-139344807D02*
X104409523Y-139382902D01*
X104409523Y-139382902D02*
X104447618Y-139420998D01*
X104447618Y-139420998D02*
X104485714Y-139497188D01*
X104485714Y-139497188D02*
X104485714Y-139611474D01*
X104485714Y-139611474D02*
X104447618Y-139687664D01*
X104447618Y-139687664D02*
X104409523Y-139725760D01*
X104409523Y-139725760D02*
X104333333Y-139763855D01*
X104333333Y-139763855D02*
X104028571Y-139763855D01*
X104028571Y-139763855D02*
X104028571Y-138963855D01*
X104028571Y-138963855D02*
X104295237Y-138963855D01*
X104295237Y-138963855D02*
X104371428Y-139001950D01*
X104371428Y-139001950D02*
X104409523Y-139040045D01*
X104409523Y-139040045D02*
X104447618Y-139116236D01*
X104447618Y-139116236D02*
X104447618Y-139192426D01*
X104447618Y-139192426D02*
X104409523Y-139268617D01*
X104409523Y-139268617D02*
X104371428Y-139306712D01*
X104371428Y-139306712D02*
X104295237Y-139344807D01*
X104295237Y-139344807D02*
X104028571Y-139344807D01*
X104980952Y-138963855D02*
X105057142Y-138963855D01*
X105057142Y-138963855D02*
X105133333Y-139001950D01*
X105133333Y-139001950D02*
X105171428Y-139040045D01*
X105171428Y-139040045D02*
X105209523Y-139116236D01*
X105209523Y-139116236D02*
X105247618Y-139268617D01*
X105247618Y-139268617D02*
X105247618Y-139459093D01*
X105247618Y-139459093D02*
X105209523Y-139611474D01*
X105209523Y-139611474D02*
X105171428Y-139687664D01*
X105171428Y-139687664D02*
X105133333Y-139725760D01*
X105133333Y-139725760D02*
X105057142Y-139763855D01*
X105057142Y-139763855D02*
X104980952Y-139763855D01*
X104980952Y-139763855D02*
X104904761Y-139725760D01*
X104904761Y-139725760D02*
X104866666Y-139687664D01*
X104866666Y-139687664D02*
X104828571Y-139611474D01*
X104828571Y-139611474D02*
X104790475Y-139459093D01*
X104790475Y-139459093D02*
X104790475Y-139268617D01*
X104790475Y-139268617D02*
X104828571Y-139116236D01*
X104828571Y-139116236D02*
X104866666Y-139040045D01*
X104866666Y-139040045D02*
X104904761Y-139001950D01*
X104904761Y-139001950D02*
X104980952Y-138963855D01*
X105514285Y-138963855D02*
X106047619Y-138963855D01*
X106047619Y-138963855D02*
X105704761Y-139763855D01*
X104295237Y-145844807D02*
X104409523Y-145882902D01*
X104409523Y-145882902D02*
X104447618Y-145920998D01*
X104447618Y-145920998D02*
X104485714Y-145997188D01*
X104485714Y-145997188D02*
X104485714Y-146111474D01*
X104485714Y-146111474D02*
X104447618Y-146187664D01*
X104447618Y-146187664D02*
X104409523Y-146225760D01*
X104409523Y-146225760D02*
X104333333Y-146263855D01*
X104333333Y-146263855D02*
X104028571Y-146263855D01*
X104028571Y-146263855D02*
X104028571Y-145463855D01*
X104028571Y-145463855D02*
X104295237Y-145463855D01*
X104295237Y-145463855D02*
X104371428Y-145501950D01*
X104371428Y-145501950D02*
X104409523Y-145540045D01*
X104409523Y-145540045D02*
X104447618Y-145616236D01*
X104447618Y-145616236D02*
X104447618Y-145692426D01*
X104447618Y-145692426D02*
X104409523Y-145768617D01*
X104409523Y-145768617D02*
X104371428Y-145806712D01*
X104371428Y-145806712D02*
X104295237Y-145844807D01*
X104295237Y-145844807D02*
X104028571Y-145844807D01*
X104980952Y-145463855D02*
X105057142Y-145463855D01*
X105057142Y-145463855D02*
X105133333Y-145501950D01*
X105133333Y-145501950D02*
X105171428Y-145540045D01*
X105171428Y-145540045D02*
X105209523Y-145616236D01*
X105209523Y-145616236D02*
X105247618Y-145768617D01*
X105247618Y-145768617D02*
X105247618Y-145959093D01*
X105247618Y-145959093D02*
X105209523Y-146111474D01*
X105209523Y-146111474D02*
X105171428Y-146187664D01*
X105171428Y-146187664D02*
X105133333Y-146225760D01*
X105133333Y-146225760D02*
X105057142Y-146263855D01*
X105057142Y-146263855D02*
X104980952Y-146263855D01*
X104980952Y-146263855D02*
X104904761Y-146225760D01*
X104904761Y-146225760D02*
X104866666Y-146187664D01*
X104866666Y-146187664D02*
X104828571Y-146111474D01*
X104828571Y-146111474D02*
X104790475Y-145959093D01*
X104790475Y-145959093D02*
X104790475Y-145768617D01*
X104790475Y-145768617D02*
X104828571Y-145616236D01*
X104828571Y-145616236D02*
X104866666Y-145540045D01*
X104866666Y-145540045D02*
X104904761Y-145501950D01*
X104904761Y-145501950D02*
X104980952Y-145463855D01*
X105628571Y-146263855D02*
X105780952Y-146263855D01*
X105780952Y-146263855D02*
X105857142Y-146225760D01*
X105857142Y-146225760D02*
X105895238Y-146187664D01*
X105895238Y-146187664D02*
X105971428Y-146073379D01*
X105971428Y-146073379D02*
X106009523Y-145920998D01*
X106009523Y-145920998D02*
X106009523Y-145616236D01*
X106009523Y-145616236D02*
X105971428Y-145540045D01*
X105971428Y-145540045D02*
X105933333Y-145501950D01*
X105933333Y-145501950D02*
X105857142Y-145463855D01*
X105857142Y-145463855D02*
X105704761Y-145463855D01*
X105704761Y-145463855D02*
X105628571Y-145501950D01*
X105628571Y-145501950D02*
X105590476Y-145540045D01*
X105590476Y-145540045D02*
X105552380Y-145616236D01*
X105552380Y-145616236D02*
X105552380Y-145806712D01*
X105552380Y-145806712D02*
X105590476Y-145882902D01*
X105590476Y-145882902D02*
X105628571Y-145920998D01*
X105628571Y-145920998D02*
X105704761Y-145959093D01*
X105704761Y-145959093D02*
X105857142Y-145959093D01*
X105857142Y-145959093D02*
X105933333Y-145920998D01*
X105933333Y-145920998D02*
X105971428Y-145882902D01*
X105971428Y-145882902D02*
X106009523Y-145806712D01*
X104295237Y-152344807D02*
X104409523Y-152382902D01*
X104409523Y-152382902D02*
X104447618Y-152420998D01*
X104447618Y-152420998D02*
X104485714Y-152497188D01*
X104485714Y-152497188D02*
X104485714Y-152611474D01*
X104485714Y-152611474D02*
X104447618Y-152687664D01*
X104447618Y-152687664D02*
X104409523Y-152725760D01*
X104409523Y-152725760D02*
X104333333Y-152763855D01*
X104333333Y-152763855D02*
X104028571Y-152763855D01*
X104028571Y-152763855D02*
X104028571Y-151963855D01*
X104028571Y-151963855D02*
X104295237Y-151963855D01*
X104295237Y-151963855D02*
X104371428Y-152001950D01*
X104371428Y-152001950D02*
X104409523Y-152040045D01*
X104409523Y-152040045D02*
X104447618Y-152116236D01*
X104447618Y-152116236D02*
X104447618Y-152192426D01*
X104447618Y-152192426D02*
X104409523Y-152268617D01*
X104409523Y-152268617D02*
X104371428Y-152306712D01*
X104371428Y-152306712D02*
X104295237Y-152344807D01*
X104295237Y-152344807D02*
X104028571Y-152344807D01*
X105247618Y-152763855D02*
X104790475Y-152763855D01*
X105019047Y-152763855D02*
X105019047Y-151963855D01*
X105019047Y-151963855D02*
X104942856Y-152078140D01*
X104942856Y-152078140D02*
X104866666Y-152154331D01*
X104866666Y-152154331D02*
X104790475Y-152192426D01*
X106009523Y-152763855D02*
X105552380Y-152763855D01*
X105780952Y-152763855D02*
X105780952Y-151963855D01*
X105780952Y-151963855D02*
X105704761Y-152078140D01*
X105704761Y-152078140D02*
X105628571Y-152154331D01*
X105628571Y-152154331D02*
X105552380Y-152192426D01*
X104295237Y-158844807D02*
X104409523Y-158882902D01*
X104409523Y-158882902D02*
X104447618Y-158920998D01*
X104447618Y-158920998D02*
X104485714Y-158997188D01*
X104485714Y-158997188D02*
X104485714Y-159111474D01*
X104485714Y-159111474D02*
X104447618Y-159187664D01*
X104447618Y-159187664D02*
X104409523Y-159225760D01*
X104409523Y-159225760D02*
X104333333Y-159263855D01*
X104333333Y-159263855D02*
X104028571Y-159263855D01*
X104028571Y-159263855D02*
X104028571Y-158463855D01*
X104028571Y-158463855D02*
X104295237Y-158463855D01*
X104295237Y-158463855D02*
X104371428Y-158501950D01*
X104371428Y-158501950D02*
X104409523Y-158540045D01*
X104409523Y-158540045D02*
X104447618Y-158616236D01*
X104447618Y-158616236D02*
X104447618Y-158692426D01*
X104447618Y-158692426D02*
X104409523Y-158768617D01*
X104409523Y-158768617D02*
X104371428Y-158806712D01*
X104371428Y-158806712D02*
X104295237Y-158844807D01*
X104295237Y-158844807D02*
X104028571Y-158844807D01*
X105247618Y-159263855D02*
X104790475Y-159263855D01*
X105019047Y-159263855D02*
X105019047Y-158463855D01*
X105019047Y-158463855D02*
X104942856Y-158578140D01*
X104942856Y-158578140D02*
X104866666Y-158654331D01*
X104866666Y-158654331D02*
X104790475Y-158692426D01*
X105514285Y-158463855D02*
X106009523Y-158463855D01*
X106009523Y-158463855D02*
X105742857Y-158768617D01*
X105742857Y-158768617D02*
X105857142Y-158768617D01*
X105857142Y-158768617D02*
X105933333Y-158806712D01*
X105933333Y-158806712D02*
X105971428Y-158844807D01*
X105971428Y-158844807D02*
X106009523Y-158920998D01*
X106009523Y-158920998D02*
X106009523Y-159111474D01*
X106009523Y-159111474D02*
X105971428Y-159187664D01*
X105971428Y-159187664D02*
X105933333Y-159225760D01*
X105933333Y-159225760D02*
X105857142Y-159263855D01*
X105857142Y-159263855D02*
X105628571Y-159263855D01*
X105628571Y-159263855D02*
X105552380Y-159225760D01*
X105552380Y-159225760D02*
X105514285Y-159187664D01*
X104295237Y-165344807D02*
X104409523Y-165382902D01*
X104409523Y-165382902D02*
X104447618Y-165420998D01*
X104447618Y-165420998D02*
X104485714Y-165497188D01*
X104485714Y-165497188D02*
X104485714Y-165611474D01*
X104485714Y-165611474D02*
X104447618Y-165687664D01*
X104447618Y-165687664D02*
X104409523Y-165725760D01*
X104409523Y-165725760D02*
X104333333Y-165763855D01*
X104333333Y-165763855D02*
X104028571Y-165763855D01*
X104028571Y-165763855D02*
X104028571Y-164963855D01*
X104028571Y-164963855D02*
X104295237Y-164963855D01*
X104295237Y-164963855D02*
X104371428Y-165001950D01*
X104371428Y-165001950D02*
X104409523Y-165040045D01*
X104409523Y-165040045D02*
X104447618Y-165116236D01*
X104447618Y-165116236D02*
X104447618Y-165192426D01*
X104447618Y-165192426D02*
X104409523Y-165268617D01*
X104409523Y-165268617D02*
X104371428Y-165306712D01*
X104371428Y-165306712D02*
X104295237Y-165344807D01*
X104295237Y-165344807D02*
X104028571Y-165344807D01*
X105247618Y-165763855D02*
X104790475Y-165763855D01*
X105019047Y-165763855D02*
X105019047Y-164963855D01*
X105019047Y-164963855D02*
X104942856Y-165078140D01*
X104942856Y-165078140D02*
X104866666Y-165154331D01*
X104866666Y-165154331D02*
X104790475Y-165192426D01*
X105971428Y-164963855D02*
X105590476Y-164963855D01*
X105590476Y-164963855D02*
X105552380Y-165344807D01*
X105552380Y-165344807D02*
X105590476Y-165306712D01*
X105590476Y-165306712D02*
X105666666Y-165268617D01*
X105666666Y-165268617D02*
X105857142Y-165268617D01*
X105857142Y-165268617D02*
X105933333Y-165306712D01*
X105933333Y-165306712D02*
X105971428Y-165344807D01*
X105971428Y-165344807D02*
X106009523Y-165420998D01*
X106009523Y-165420998D02*
X106009523Y-165611474D01*
X106009523Y-165611474D02*
X105971428Y-165687664D01*
X105971428Y-165687664D02*
X105933333Y-165725760D01*
X105933333Y-165725760D02*
X105857142Y-165763855D01*
X105857142Y-165763855D02*
X105666666Y-165763855D01*
X105666666Y-165763855D02*
X105590476Y-165725760D01*
X105590476Y-165725760D02*
X105552380Y-165687664D01*
X114295237Y-119844807D02*
X114409523Y-119882902D01*
X114409523Y-119882902D02*
X114447618Y-119920998D01*
X114447618Y-119920998D02*
X114485714Y-119997188D01*
X114485714Y-119997188D02*
X114485714Y-120111474D01*
X114485714Y-120111474D02*
X114447618Y-120187664D01*
X114447618Y-120187664D02*
X114409523Y-120225760D01*
X114409523Y-120225760D02*
X114333333Y-120263855D01*
X114333333Y-120263855D02*
X114028571Y-120263855D01*
X114028571Y-120263855D02*
X114028571Y-119463855D01*
X114028571Y-119463855D02*
X114295237Y-119463855D01*
X114295237Y-119463855D02*
X114371428Y-119501950D01*
X114371428Y-119501950D02*
X114409523Y-119540045D01*
X114409523Y-119540045D02*
X114447618Y-119616236D01*
X114447618Y-119616236D02*
X114447618Y-119692426D01*
X114447618Y-119692426D02*
X114409523Y-119768617D01*
X114409523Y-119768617D02*
X114371428Y-119806712D01*
X114371428Y-119806712D02*
X114295237Y-119844807D01*
X114295237Y-119844807D02*
X114028571Y-119844807D01*
X114980952Y-119463855D02*
X115057142Y-119463855D01*
X115057142Y-119463855D02*
X115133333Y-119501950D01*
X115133333Y-119501950D02*
X115171428Y-119540045D01*
X115171428Y-119540045D02*
X115209523Y-119616236D01*
X115209523Y-119616236D02*
X115247618Y-119768617D01*
X115247618Y-119768617D02*
X115247618Y-119959093D01*
X115247618Y-119959093D02*
X115209523Y-120111474D01*
X115209523Y-120111474D02*
X115171428Y-120187664D01*
X115171428Y-120187664D02*
X115133333Y-120225760D01*
X115133333Y-120225760D02*
X115057142Y-120263855D01*
X115057142Y-120263855D02*
X114980952Y-120263855D01*
X114980952Y-120263855D02*
X114904761Y-120225760D01*
X114904761Y-120225760D02*
X114866666Y-120187664D01*
X114866666Y-120187664D02*
X114828571Y-120111474D01*
X114828571Y-120111474D02*
X114790475Y-119959093D01*
X114790475Y-119959093D02*
X114790475Y-119768617D01*
X114790475Y-119768617D02*
X114828571Y-119616236D01*
X114828571Y-119616236D02*
X114866666Y-119540045D01*
X114866666Y-119540045D02*
X114904761Y-119501950D01*
X114904761Y-119501950D02*
X114980952Y-119463855D01*
X115552380Y-119540045D02*
X115590476Y-119501950D01*
X115590476Y-119501950D02*
X115666666Y-119463855D01*
X115666666Y-119463855D02*
X115857142Y-119463855D01*
X115857142Y-119463855D02*
X115933333Y-119501950D01*
X115933333Y-119501950D02*
X115971428Y-119540045D01*
X115971428Y-119540045D02*
X116009523Y-119616236D01*
X116009523Y-119616236D02*
X116009523Y-119692426D01*
X116009523Y-119692426D02*
X115971428Y-119806712D01*
X115971428Y-119806712D02*
X115514285Y-120263855D01*
X115514285Y-120263855D02*
X116009523Y-120263855D01*
X114295237Y-126344807D02*
X114409523Y-126382902D01*
X114409523Y-126382902D02*
X114447618Y-126420998D01*
X114447618Y-126420998D02*
X114485714Y-126497188D01*
X114485714Y-126497188D02*
X114485714Y-126611474D01*
X114485714Y-126611474D02*
X114447618Y-126687664D01*
X114447618Y-126687664D02*
X114409523Y-126725760D01*
X114409523Y-126725760D02*
X114333333Y-126763855D01*
X114333333Y-126763855D02*
X114028571Y-126763855D01*
X114028571Y-126763855D02*
X114028571Y-125963855D01*
X114028571Y-125963855D02*
X114295237Y-125963855D01*
X114295237Y-125963855D02*
X114371428Y-126001950D01*
X114371428Y-126001950D02*
X114409523Y-126040045D01*
X114409523Y-126040045D02*
X114447618Y-126116236D01*
X114447618Y-126116236D02*
X114447618Y-126192426D01*
X114447618Y-126192426D02*
X114409523Y-126268617D01*
X114409523Y-126268617D02*
X114371428Y-126306712D01*
X114371428Y-126306712D02*
X114295237Y-126344807D01*
X114295237Y-126344807D02*
X114028571Y-126344807D01*
X114980952Y-125963855D02*
X115057142Y-125963855D01*
X115057142Y-125963855D02*
X115133333Y-126001950D01*
X115133333Y-126001950D02*
X115171428Y-126040045D01*
X115171428Y-126040045D02*
X115209523Y-126116236D01*
X115209523Y-126116236D02*
X115247618Y-126268617D01*
X115247618Y-126268617D02*
X115247618Y-126459093D01*
X115247618Y-126459093D02*
X115209523Y-126611474D01*
X115209523Y-126611474D02*
X115171428Y-126687664D01*
X115171428Y-126687664D02*
X115133333Y-126725760D01*
X115133333Y-126725760D02*
X115057142Y-126763855D01*
X115057142Y-126763855D02*
X114980952Y-126763855D01*
X114980952Y-126763855D02*
X114904761Y-126725760D01*
X114904761Y-126725760D02*
X114866666Y-126687664D01*
X114866666Y-126687664D02*
X114828571Y-126611474D01*
X114828571Y-126611474D02*
X114790475Y-126459093D01*
X114790475Y-126459093D02*
X114790475Y-126268617D01*
X114790475Y-126268617D02*
X114828571Y-126116236D01*
X114828571Y-126116236D02*
X114866666Y-126040045D01*
X114866666Y-126040045D02*
X114904761Y-126001950D01*
X114904761Y-126001950D02*
X114980952Y-125963855D01*
X115933333Y-126230521D02*
X115933333Y-126763855D01*
X115742857Y-125925760D02*
X115552380Y-126497188D01*
X115552380Y-126497188D02*
X116047619Y-126497188D01*
X114295237Y-132844807D02*
X114409523Y-132882902D01*
X114409523Y-132882902D02*
X114447618Y-132920998D01*
X114447618Y-132920998D02*
X114485714Y-132997188D01*
X114485714Y-132997188D02*
X114485714Y-133111474D01*
X114485714Y-133111474D02*
X114447618Y-133187664D01*
X114447618Y-133187664D02*
X114409523Y-133225760D01*
X114409523Y-133225760D02*
X114333333Y-133263855D01*
X114333333Y-133263855D02*
X114028571Y-133263855D01*
X114028571Y-133263855D02*
X114028571Y-132463855D01*
X114028571Y-132463855D02*
X114295237Y-132463855D01*
X114295237Y-132463855D02*
X114371428Y-132501950D01*
X114371428Y-132501950D02*
X114409523Y-132540045D01*
X114409523Y-132540045D02*
X114447618Y-132616236D01*
X114447618Y-132616236D02*
X114447618Y-132692426D01*
X114447618Y-132692426D02*
X114409523Y-132768617D01*
X114409523Y-132768617D02*
X114371428Y-132806712D01*
X114371428Y-132806712D02*
X114295237Y-132844807D01*
X114295237Y-132844807D02*
X114028571Y-132844807D01*
X114980952Y-132463855D02*
X115057142Y-132463855D01*
X115057142Y-132463855D02*
X115133333Y-132501950D01*
X115133333Y-132501950D02*
X115171428Y-132540045D01*
X115171428Y-132540045D02*
X115209523Y-132616236D01*
X115209523Y-132616236D02*
X115247618Y-132768617D01*
X115247618Y-132768617D02*
X115247618Y-132959093D01*
X115247618Y-132959093D02*
X115209523Y-133111474D01*
X115209523Y-133111474D02*
X115171428Y-133187664D01*
X115171428Y-133187664D02*
X115133333Y-133225760D01*
X115133333Y-133225760D02*
X115057142Y-133263855D01*
X115057142Y-133263855D02*
X114980952Y-133263855D01*
X114980952Y-133263855D02*
X114904761Y-133225760D01*
X114904761Y-133225760D02*
X114866666Y-133187664D01*
X114866666Y-133187664D02*
X114828571Y-133111474D01*
X114828571Y-133111474D02*
X114790475Y-132959093D01*
X114790475Y-132959093D02*
X114790475Y-132768617D01*
X114790475Y-132768617D02*
X114828571Y-132616236D01*
X114828571Y-132616236D02*
X114866666Y-132540045D01*
X114866666Y-132540045D02*
X114904761Y-132501950D01*
X114904761Y-132501950D02*
X114980952Y-132463855D01*
X115933333Y-132463855D02*
X115780952Y-132463855D01*
X115780952Y-132463855D02*
X115704761Y-132501950D01*
X115704761Y-132501950D02*
X115666666Y-132540045D01*
X115666666Y-132540045D02*
X115590476Y-132654331D01*
X115590476Y-132654331D02*
X115552380Y-132806712D01*
X115552380Y-132806712D02*
X115552380Y-133111474D01*
X115552380Y-133111474D02*
X115590476Y-133187664D01*
X115590476Y-133187664D02*
X115628571Y-133225760D01*
X115628571Y-133225760D02*
X115704761Y-133263855D01*
X115704761Y-133263855D02*
X115857142Y-133263855D01*
X115857142Y-133263855D02*
X115933333Y-133225760D01*
X115933333Y-133225760D02*
X115971428Y-133187664D01*
X115971428Y-133187664D02*
X116009523Y-133111474D01*
X116009523Y-133111474D02*
X116009523Y-132920998D01*
X116009523Y-132920998D02*
X115971428Y-132844807D01*
X115971428Y-132844807D02*
X115933333Y-132806712D01*
X115933333Y-132806712D02*
X115857142Y-132768617D01*
X115857142Y-132768617D02*
X115704761Y-132768617D01*
X115704761Y-132768617D02*
X115628571Y-132806712D01*
X115628571Y-132806712D02*
X115590476Y-132844807D01*
X115590476Y-132844807D02*
X115552380Y-132920998D01*
X114295237Y-139344807D02*
X114409523Y-139382902D01*
X114409523Y-139382902D02*
X114447618Y-139420998D01*
X114447618Y-139420998D02*
X114485714Y-139497188D01*
X114485714Y-139497188D02*
X114485714Y-139611474D01*
X114485714Y-139611474D02*
X114447618Y-139687664D01*
X114447618Y-139687664D02*
X114409523Y-139725760D01*
X114409523Y-139725760D02*
X114333333Y-139763855D01*
X114333333Y-139763855D02*
X114028571Y-139763855D01*
X114028571Y-139763855D02*
X114028571Y-138963855D01*
X114028571Y-138963855D02*
X114295237Y-138963855D01*
X114295237Y-138963855D02*
X114371428Y-139001950D01*
X114371428Y-139001950D02*
X114409523Y-139040045D01*
X114409523Y-139040045D02*
X114447618Y-139116236D01*
X114447618Y-139116236D02*
X114447618Y-139192426D01*
X114447618Y-139192426D02*
X114409523Y-139268617D01*
X114409523Y-139268617D02*
X114371428Y-139306712D01*
X114371428Y-139306712D02*
X114295237Y-139344807D01*
X114295237Y-139344807D02*
X114028571Y-139344807D01*
X114980952Y-138963855D02*
X115057142Y-138963855D01*
X115057142Y-138963855D02*
X115133333Y-139001950D01*
X115133333Y-139001950D02*
X115171428Y-139040045D01*
X115171428Y-139040045D02*
X115209523Y-139116236D01*
X115209523Y-139116236D02*
X115247618Y-139268617D01*
X115247618Y-139268617D02*
X115247618Y-139459093D01*
X115247618Y-139459093D02*
X115209523Y-139611474D01*
X115209523Y-139611474D02*
X115171428Y-139687664D01*
X115171428Y-139687664D02*
X115133333Y-139725760D01*
X115133333Y-139725760D02*
X115057142Y-139763855D01*
X115057142Y-139763855D02*
X114980952Y-139763855D01*
X114980952Y-139763855D02*
X114904761Y-139725760D01*
X114904761Y-139725760D02*
X114866666Y-139687664D01*
X114866666Y-139687664D02*
X114828571Y-139611474D01*
X114828571Y-139611474D02*
X114790475Y-139459093D01*
X114790475Y-139459093D02*
X114790475Y-139268617D01*
X114790475Y-139268617D02*
X114828571Y-139116236D01*
X114828571Y-139116236D02*
X114866666Y-139040045D01*
X114866666Y-139040045D02*
X114904761Y-139001950D01*
X114904761Y-139001950D02*
X114980952Y-138963855D01*
X115704761Y-139306712D02*
X115628571Y-139268617D01*
X115628571Y-139268617D02*
X115590476Y-139230521D01*
X115590476Y-139230521D02*
X115552380Y-139154331D01*
X115552380Y-139154331D02*
X115552380Y-139116236D01*
X115552380Y-139116236D02*
X115590476Y-139040045D01*
X115590476Y-139040045D02*
X115628571Y-139001950D01*
X115628571Y-139001950D02*
X115704761Y-138963855D01*
X115704761Y-138963855D02*
X115857142Y-138963855D01*
X115857142Y-138963855D02*
X115933333Y-139001950D01*
X115933333Y-139001950D02*
X115971428Y-139040045D01*
X115971428Y-139040045D02*
X116009523Y-139116236D01*
X116009523Y-139116236D02*
X116009523Y-139154331D01*
X116009523Y-139154331D02*
X115971428Y-139230521D01*
X115971428Y-139230521D02*
X115933333Y-139268617D01*
X115933333Y-139268617D02*
X115857142Y-139306712D01*
X115857142Y-139306712D02*
X115704761Y-139306712D01*
X115704761Y-139306712D02*
X115628571Y-139344807D01*
X115628571Y-139344807D02*
X115590476Y-139382902D01*
X115590476Y-139382902D02*
X115552380Y-139459093D01*
X115552380Y-139459093D02*
X115552380Y-139611474D01*
X115552380Y-139611474D02*
X115590476Y-139687664D01*
X115590476Y-139687664D02*
X115628571Y-139725760D01*
X115628571Y-139725760D02*
X115704761Y-139763855D01*
X115704761Y-139763855D02*
X115857142Y-139763855D01*
X115857142Y-139763855D02*
X115933333Y-139725760D01*
X115933333Y-139725760D02*
X115971428Y-139687664D01*
X115971428Y-139687664D02*
X116009523Y-139611474D01*
X116009523Y-139611474D02*
X116009523Y-139459093D01*
X116009523Y-139459093D02*
X115971428Y-139382902D01*
X115971428Y-139382902D02*
X115933333Y-139344807D01*
X115933333Y-139344807D02*
X115857142Y-139306712D01*
X114295237Y-145844807D02*
X114409523Y-145882902D01*
X114409523Y-145882902D02*
X114447618Y-145920998D01*
X114447618Y-145920998D02*
X114485714Y-145997188D01*
X114485714Y-145997188D02*
X114485714Y-146111474D01*
X114485714Y-146111474D02*
X114447618Y-146187664D01*
X114447618Y-146187664D02*
X114409523Y-146225760D01*
X114409523Y-146225760D02*
X114333333Y-146263855D01*
X114333333Y-146263855D02*
X114028571Y-146263855D01*
X114028571Y-146263855D02*
X114028571Y-145463855D01*
X114028571Y-145463855D02*
X114295237Y-145463855D01*
X114295237Y-145463855D02*
X114371428Y-145501950D01*
X114371428Y-145501950D02*
X114409523Y-145540045D01*
X114409523Y-145540045D02*
X114447618Y-145616236D01*
X114447618Y-145616236D02*
X114447618Y-145692426D01*
X114447618Y-145692426D02*
X114409523Y-145768617D01*
X114409523Y-145768617D02*
X114371428Y-145806712D01*
X114371428Y-145806712D02*
X114295237Y-145844807D01*
X114295237Y-145844807D02*
X114028571Y-145844807D01*
X115247618Y-146263855D02*
X114790475Y-146263855D01*
X115019047Y-146263855D02*
X115019047Y-145463855D01*
X115019047Y-145463855D02*
X114942856Y-145578140D01*
X114942856Y-145578140D02*
X114866666Y-145654331D01*
X114866666Y-145654331D02*
X114790475Y-145692426D01*
X115742857Y-145463855D02*
X115819047Y-145463855D01*
X115819047Y-145463855D02*
X115895238Y-145501950D01*
X115895238Y-145501950D02*
X115933333Y-145540045D01*
X115933333Y-145540045D02*
X115971428Y-145616236D01*
X115971428Y-145616236D02*
X116009523Y-145768617D01*
X116009523Y-145768617D02*
X116009523Y-145959093D01*
X116009523Y-145959093D02*
X115971428Y-146111474D01*
X115971428Y-146111474D02*
X115933333Y-146187664D01*
X115933333Y-146187664D02*
X115895238Y-146225760D01*
X115895238Y-146225760D02*
X115819047Y-146263855D01*
X115819047Y-146263855D02*
X115742857Y-146263855D01*
X115742857Y-146263855D02*
X115666666Y-146225760D01*
X115666666Y-146225760D02*
X115628571Y-146187664D01*
X115628571Y-146187664D02*
X115590476Y-146111474D01*
X115590476Y-146111474D02*
X115552380Y-145959093D01*
X115552380Y-145959093D02*
X115552380Y-145768617D01*
X115552380Y-145768617D02*
X115590476Y-145616236D01*
X115590476Y-145616236D02*
X115628571Y-145540045D01*
X115628571Y-145540045D02*
X115666666Y-145501950D01*
X115666666Y-145501950D02*
X115742857Y-145463855D01*
X114295237Y-152344807D02*
X114409523Y-152382902D01*
X114409523Y-152382902D02*
X114447618Y-152420998D01*
X114447618Y-152420998D02*
X114485714Y-152497188D01*
X114485714Y-152497188D02*
X114485714Y-152611474D01*
X114485714Y-152611474D02*
X114447618Y-152687664D01*
X114447618Y-152687664D02*
X114409523Y-152725760D01*
X114409523Y-152725760D02*
X114333333Y-152763855D01*
X114333333Y-152763855D02*
X114028571Y-152763855D01*
X114028571Y-152763855D02*
X114028571Y-151963855D01*
X114028571Y-151963855D02*
X114295237Y-151963855D01*
X114295237Y-151963855D02*
X114371428Y-152001950D01*
X114371428Y-152001950D02*
X114409523Y-152040045D01*
X114409523Y-152040045D02*
X114447618Y-152116236D01*
X114447618Y-152116236D02*
X114447618Y-152192426D01*
X114447618Y-152192426D02*
X114409523Y-152268617D01*
X114409523Y-152268617D02*
X114371428Y-152306712D01*
X114371428Y-152306712D02*
X114295237Y-152344807D01*
X114295237Y-152344807D02*
X114028571Y-152344807D01*
X115247618Y-152763855D02*
X114790475Y-152763855D01*
X115019047Y-152763855D02*
X115019047Y-151963855D01*
X115019047Y-151963855D02*
X114942856Y-152078140D01*
X114942856Y-152078140D02*
X114866666Y-152154331D01*
X114866666Y-152154331D02*
X114790475Y-152192426D01*
X115552380Y-152040045D02*
X115590476Y-152001950D01*
X115590476Y-152001950D02*
X115666666Y-151963855D01*
X115666666Y-151963855D02*
X115857142Y-151963855D01*
X115857142Y-151963855D02*
X115933333Y-152001950D01*
X115933333Y-152001950D02*
X115971428Y-152040045D01*
X115971428Y-152040045D02*
X116009523Y-152116236D01*
X116009523Y-152116236D02*
X116009523Y-152192426D01*
X116009523Y-152192426D02*
X115971428Y-152306712D01*
X115971428Y-152306712D02*
X115514285Y-152763855D01*
X115514285Y-152763855D02*
X116009523Y-152763855D01*
X114295237Y-158844807D02*
X114409523Y-158882902D01*
X114409523Y-158882902D02*
X114447618Y-158920998D01*
X114447618Y-158920998D02*
X114485714Y-158997188D01*
X114485714Y-158997188D02*
X114485714Y-159111474D01*
X114485714Y-159111474D02*
X114447618Y-159187664D01*
X114447618Y-159187664D02*
X114409523Y-159225760D01*
X114409523Y-159225760D02*
X114333333Y-159263855D01*
X114333333Y-159263855D02*
X114028571Y-159263855D01*
X114028571Y-159263855D02*
X114028571Y-158463855D01*
X114028571Y-158463855D02*
X114295237Y-158463855D01*
X114295237Y-158463855D02*
X114371428Y-158501950D01*
X114371428Y-158501950D02*
X114409523Y-158540045D01*
X114409523Y-158540045D02*
X114447618Y-158616236D01*
X114447618Y-158616236D02*
X114447618Y-158692426D01*
X114447618Y-158692426D02*
X114409523Y-158768617D01*
X114409523Y-158768617D02*
X114371428Y-158806712D01*
X114371428Y-158806712D02*
X114295237Y-158844807D01*
X114295237Y-158844807D02*
X114028571Y-158844807D01*
X115247618Y-159263855D02*
X114790475Y-159263855D01*
X115019047Y-159263855D02*
X115019047Y-158463855D01*
X115019047Y-158463855D02*
X114942856Y-158578140D01*
X114942856Y-158578140D02*
X114866666Y-158654331D01*
X114866666Y-158654331D02*
X114790475Y-158692426D01*
X115933333Y-158730521D02*
X115933333Y-159263855D01*
X115742857Y-158425760D02*
X115552380Y-158997188D01*
X115552380Y-158997188D02*
X116047619Y-158997188D01*
X114295237Y-165344807D02*
X114409523Y-165382902D01*
X114409523Y-165382902D02*
X114447618Y-165420998D01*
X114447618Y-165420998D02*
X114485714Y-165497188D01*
X114485714Y-165497188D02*
X114485714Y-165611474D01*
X114485714Y-165611474D02*
X114447618Y-165687664D01*
X114447618Y-165687664D02*
X114409523Y-165725760D01*
X114409523Y-165725760D02*
X114333333Y-165763855D01*
X114333333Y-165763855D02*
X114028571Y-165763855D01*
X114028571Y-165763855D02*
X114028571Y-164963855D01*
X114028571Y-164963855D02*
X114295237Y-164963855D01*
X114295237Y-164963855D02*
X114371428Y-165001950D01*
X114371428Y-165001950D02*
X114409523Y-165040045D01*
X114409523Y-165040045D02*
X114447618Y-165116236D01*
X114447618Y-165116236D02*
X114447618Y-165192426D01*
X114447618Y-165192426D02*
X114409523Y-165268617D01*
X114409523Y-165268617D02*
X114371428Y-165306712D01*
X114371428Y-165306712D02*
X114295237Y-165344807D01*
X114295237Y-165344807D02*
X114028571Y-165344807D01*
X115247618Y-165763855D02*
X114790475Y-165763855D01*
X115019047Y-165763855D02*
X115019047Y-164963855D01*
X115019047Y-164963855D02*
X114942856Y-165078140D01*
X114942856Y-165078140D02*
X114866666Y-165154331D01*
X114866666Y-165154331D02*
X114790475Y-165192426D01*
X115933333Y-164963855D02*
X115780952Y-164963855D01*
X115780952Y-164963855D02*
X115704761Y-165001950D01*
X115704761Y-165001950D02*
X115666666Y-165040045D01*
X115666666Y-165040045D02*
X115590476Y-165154331D01*
X115590476Y-165154331D02*
X115552380Y-165306712D01*
X115552380Y-165306712D02*
X115552380Y-165611474D01*
X115552380Y-165611474D02*
X115590476Y-165687664D01*
X115590476Y-165687664D02*
X115628571Y-165725760D01*
X115628571Y-165725760D02*
X115704761Y-165763855D01*
X115704761Y-165763855D02*
X115857142Y-165763855D01*
X115857142Y-165763855D02*
X115933333Y-165725760D01*
X115933333Y-165725760D02*
X115971428Y-165687664D01*
X115971428Y-165687664D02*
X116009523Y-165611474D01*
X116009523Y-165611474D02*
X116009523Y-165420998D01*
X116009523Y-165420998D02*
X115971428Y-165344807D01*
X115971428Y-165344807D02*
X115933333Y-165306712D01*
X115933333Y-165306712D02*
X115857142Y-165268617D01*
X115857142Y-165268617D02*
X115704761Y-165268617D01*
X115704761Y-165268617D02*
X115628571Y-165306712D01*
X115628571Y-165306712D02*
X115590476Y-165344807D01*
X115590476Y-165344807D02*
X115552380Y-165420998D01*
X128485714Y-120187664D02*
X128447618Y-120225760D01*
X128447618Y-120225760D02*
X128333333Y-120263855D01*
X128333333Y-120263855D02*
X128257142Y-120263855D01*
X128257142Y-120263855D02*
X128142856Y-120225760D01*
X128142856Y-120225760D02*
X128066666Y-120149569D01*
X128066666Y-120149569D02*
X128028571Y-120073379D01*
X128028571Y-120073379D02*
X127990475Y-119920998D01*
X127990475Y-119920998D02*
X127990475Y-119806712D01*
X127990475Y-119806712D02*
X128028571Y-119654331D01*
X128028571Y-119654331D02*
X128066666Y-119578140D01*
X128066666Y-119578140D02*
X128142856Y-119501950D01*
X128142856Y-119501950D02*
X128257142Y-119463855D01*
X128257142Y-119463855D02*
X128333333Y-119463855D01*
X128333333Y-119463855D02*
X128447618Y-119501950D01*
X128447618Y-119501950D02*
X128485714Y-119540045D01*
X128980952Y-119463855D02*
X129057142Y-119463855D01*
X129057142Y-119463855D02*
X129133333Y-119501950D01*
X129133333Y-119501950D02*
X129171428Y-119540045D01*
X129171428Y-119540045D02*
X129209523Y-119616236D01*
X129209523Y-119616236D02*
X129247618Y-119768617D01*
X129247618Y-119768617D02*
X129247618Y-119959093D01*
X129247618Y-119959093D02*
X129209523Y-120111474D01*
X129209523Y-120111474D02*
X129171428Y-120187664D01*
X129171428Y-120187664D02*
X129133333Y-120225760D01*
X129133333Y-120225760D02*
X129057142Y-120263855D01*
X129057142Y-120263855D02*
X128980952Y-120263855D01*
X128980952Y-120263855D02*
X128904761Y-120225760D01*
X128904761Y-120225760D02*
X128866666Y-120187664D01*
X128866666Y-120187664D02*
X128828571Y-120111474D01*
X128828571Y-120111474D02*
X128790475Y-119959093D01*
X128790475Y-119959093D02*
X128790475Y-119768617D01*
X128790475Y-119768617D02*
X128828571Y-119616236D01*
X128828571Y-119616236D02*
X128866666Y-119540045D01*
X128866666Y-119540045D02*
X128904761Y-119501950D01*
X128904761Y-119501950D02*
X128980952Y-119463855D01*
X130009523Y-120263855D02*
X129552380Y-120263855D01*
X129780952Y-120263855D02*
X129780952Y-119463855D01*
X129780952Y-119463855D02*
X129704761Y-119578140D01*
X129704761Y-119578140D02*
X129628571Y-119654331D01*
X129628571Y-119654331D02*
X129552380Y-119692426D01*
X128485714Y-126687664D02*
X128447618Y-126725760D01*
X128447618Y-126725760D02*
X128333333Y-126763855D01*
X128333333Y-126763855D02*
X128257142Y-126763855D01*
X128257142Y-126763855D02*
X128142856Y-126725760D01*
X128142856Y-126725760D02*
X128066666Y-126649569D01*
X128066666Y-126649569D02*
X128028571Y-126573379D01*
X128028571Y-126573379D02*
X127990475Y-126420998D01*
X127990475Y-126420998D02*
X127990475Y-126306712D01*
X127990475Y-126306712D02*
X128028571Y-126154331D01*
X128028571Y-126154331D02*
X128066666Y-126078140D01*
X128066666Y-126078140D02*
X128142856Y-126001950D01*
X128142856Y-126001950D02*
X128257142Y-125963855D01*
X128257142Y-125963855D02*
X128333333Y-125963855D01*
X128333333Y-125963855D02*
X128447618Y-126001950D01*
X128447618Y-126001950D02*
X128485714Y-126040045D01*
X128980952Y-125963855D02*
X129057142Y-125963855D01*
X129057142Y-125963855D02*
X129133333Y-126001950D01*
X129133333Y-126001950D02*
X129171428Y-126040045D01*
X129171428Y-126040045D02*
X129209523Y-126116236D01*
X129209523Y-126116236D02*
X129247618Y-126268617D01*
X129247618Y-126268617D02*
X129247618Y-126459093D01*
X129247618Y-126459093D02*
X129209523Y-126611474D01*
X129209523Y-126611474D02*
X129171428Y-126687664D01*
X129171428Y-126687664D02*
X129133333Y-126725760D01*
X129133333Y-126725760D02*
X129057142Y-126763855D01*
X129057142Y-126763855D02*
X128980952Y-126763855D01*
X128980952Y-126763855D02*
X128904761Y-126725760D01*
X128904761Y-126725760D02*
X128866666Y-126687664D01*
X128866666Y-126687664D02*
X128828571Y-126611474D01*
X128828571Y-126611474D02*
X128790475Y-126459093D01*
X128790475Y-126459093D02*
X128790475Y-126268617D01*
X128790475Y-126268617D02*
X128828571Y-126116236D01*
X128828571Y-126116236D02*
X128866666Y-126040045D01*
X128866666Y-126040045D02*
X128904761Y-126001950D01*
X128904761Y-126001950D02*
X128980952Y-125963855D01*
X129514285Y-125963855D02*
X130009523Y-125963855D01*
X130009523Y-125963855D02*
X129742857Y-126268617D01*
X129742857Y-126268617D02*
X129857142Y-126268617D01*
X129857142Y-126268617D02*
X129933333Y-126306712D01*
X129933333Y-126306712D02*
X129971428Y-126344807D01*
X129971428Y-126344807D02*
X130009523Y-126420998D01*
X130009523Y-126420998D02*
X130009523Y-126611474D01*
X130009523Y-126611474D02*
X129971428Y-126687664D01*
X129971428Y-126687664D02*
X129933333Y-126725760D01*
X129933333Y-126725760D02*
X129857142Y-126763855D01*
X129857142Y-126763855D02*
X129628571Y-126763855D01*
X129628571Y-126763855D02*
X129552380Y-126725760D01*
X129552380Y-126725760D02*
X129514285Y-126687664D01*
X128485714Y-133187664D02*
X128447618Y-133225760D01*
X128447618Y-133225760D02*
X128333333Y-133263855D01*
X128333333Y-133263855D02*
X128257142Y-133263855D01*
X128257142Y-133263855D02*
X128142856Y-133225760D01*
X128142856Y-133225760D02*
X128066666Y-133149569D01*
X128066666Y-133149569D02*
X128028571Y-133073379D01*
X128028571Y-133073379D02*
X127990475Y-132920998D01*
X127990475Y-132920998D02*
X127990475Y-132806712D01*
X127990475Y-132806712D02*
X128028571Y-132654331D01*
X128028571Y-132654331D02*
X128066666Y-132578140D01*
X128066666Y-132578140D02*
X128142856Y-132501950D01*
X128142856Y-132501950D02*
X128257142Y-132463855D01*
X128257142Y-132463855D02*
X128333333Y-132463855D01*
X128333333Y-132463855D02*
X128447618Y-132501950D01*
X128447618Y-132501950D02*
X128485714Y-132540045D01*
X128980952Y-132463855D02*
X129057142Y-132463855D01*
X129057142Y-132463855D02*
X129133333Y-132501950D01*
X129133333Y-132501950D02*
X129171428Y-132540045D01*
X129171428Y-132540045D02*
X129209523Y-132616236D01*
X129209523Y-132616236D02*
X129247618Y-132768617D01*
X129247618Y-132768617D02*
X129247618Y-132959093D01*
X129247618Y-132959093D02*
X129209523Y-133111474D01*
X129209523Y-133111474D02*
X129171428Y-133187664D01*
X129171428Y-133187664D02*
X129133333Y-133225760D01*
X129133333Y-133225760D02*
X129057142Y-133263855D01*
X129057142Y-133263855D02*
X128980952Y-133263855D01*
X128980952Y-133263855D02*
X128904761Y-133225760D01*
X128904761Y-133225760D02*
X128866666Y-133187664D01*
X128866666Y-133187664D02*
X128828571Y-133111474D01*
X128828571Y-133111474D02*
X128790475Y-132959093D01*
X128790475Y-132959093D02*
X128790475Y-132768617D01*
X128790475Y-132768617D02*
X128828571Y-132616236D01*
X128828571Y-132616236D02*
X128866666Y-132540045D01*
X128866666Y-132540045D02*
X128904761Y-132501950D01*
X128904761Y-132501950D02*
X128980952Y-132463855D01*
X129971428Y-132463855D02*
X129590476Y-132463855D01*
X129590476Y-132463855D02*
X129552380Y-132844807D01*
X129552380Y-132844807D02*
X129590476Y-132806712D01*
X129590476Y-132806712D02*
X129666666Y-132768617D01*
X129666666Y-132768617D02*
X129857142Y-132768617D01*
X129857142Y-132768617D02*
X129933333Y-132806712D01*
X129933333Y-132806712D02*
X129971428Y-132844807D01*
X129971428Y-132844807D02*
X130009523Y-132920998D01*
X130009523Y-132920998D02*
X130009523Y-133111474D01*
X130009523Y-133111474D02*
X129971428Y-133187664D01*
X129971428Y-133187664D02*
X129933333Y-133225760D01*
X129933333Y-133225760D02*
X129857142Y-133263855D01*
X129857142Y-133263855D02*
X129666666Y-133263855D01*
X129666666Y-133263855D02*
X129590476Y-133225760D01*
X129590476Y-133225760D02*
X129552380Y-133187664D01*
X128485714Y-139687664D02*
X128447618Y-139725760D01*
X128447618Y-139725760D02*
X128333333Y-139763855D01*
X128333333Y-139763855D02*
X128257142Y-139763855D01*
X128257142Y-139763855D02*
X128142856Y-139725760D01*
X128142856Y-139725760D02*
X128066666Y-139649569D01*
X128066666Y-139649569D02*
X128028571Y-139573379D01*
X128028571Y-139573379D02*
X127990475Y-139420998D01*
X127990475Y-139420998D02*
X127990475Y-139306712D01*
X127990475Y-139306712D02*
X128028571Y-139154331D01*
X128028571Y-139154331D02*
X128066666Y-139078140D01*
X128066666Y-139078140D02*
X128142856Y-139001950D01*
X128142856Y-139001950D02*
X128257142Y-138963855D01*
X128257142Y-138963855D02*
X128333333Y-138963855D01*
X128333333Y-138963855D02*
X128447618Y-139001950D01*
X128447618Y-139001950D02*
X128485714Y-139040045D01*
X128980952Y-138963855D02*
X129057142Y-138963855D01*
X129057142Y-138963855D02*
X129133333Y-139001950D01*
X129133333Y-139001950D02*
X129171428Y-139040045D01*
X129171428Y-139040045D02*
X129209523Y-139116236D01*
X129209523Y-139116236D02*
X129247618Y-139268617D01*
X129247618Y-139268617D02*
X129247618Y-139459093D01*
X129247618Y-139459093D02*
X129209523Y-139611474D01*
X129209523Y-139611474D02*
X129171428Y-139687664D01*
X129171428Y-139687664D02*
X129133333Y-139725760D01*
X129133333Y-139725760D02*
X129057142Y-139763855D01*
X129057142Y-139763855D02*
X128980952Y-139763855D01*
X128980952Y-139763855D02*
X128904761Y-139725760D01*
X128904761Y-139725760D02*
X128866666Y-139687664D01*
X128866666Y-139687664D02*
X128828571Y-139611474D01*
X128828571Y-139611474D02*
X128790475Y-139459093D01*
X128790475Y-139459093D02*
X128790475Y-139268617D01*
X128790475Y-139268617D02*
X128828571Y-139116236D01*
X128828571Y-139116236D02*
X128866666Y-139040045D01*
X128866666Y-139040045D02*
X128904761Y-139001950D01*
X128904761Y-139001950D02*
X128980952Y-138963855D01*
X129514285Y-138963855D02*
X130047619Y-138963855D01*
X130047619Y-138963855D02*
X129704761Y-139763855D01*
X128485714Y-146187664D02*
X128447618Y-146225760D01*
X128447618Y-146225760D02*
X128333333Y-146263855D01*
X128333333Y-146263855D02*
X128257142Y-146263855D01*
X128257142Y-146263855D02*
X128142856Y-146225760D01*
X128142856Y-146225760D02*
X128066666Y-146149569D01*
X128066666Y-146149569D02*
X128028571Y-146073379D01*
X128028571Y-146073379D02*
X127990475Y-145920998D01*
X127990475Y-145920998D02*
X127990475Y-145806712D01*
X127990475Y-145806712D02*
X128028571Y-145654331D01*
X128028571Y-145654331D02*
X128066666Y-145578140D01*
X128066666Y-145578140D02*
X128142856Y-145501950D01*
X128142856Y-145501950D02*
X128257142Y-145463855D01*
X128257142Y-145463855D02*
X128333333Y-145463855D01*
X128333333Y-145463855D02*
X128447618Y-145501950D01*
X128447618Y-145501950D02*
X128485714Y-145540045D01*
X128980952Y-145463855D02*
X129057142Y-145463855D01*
X129057142Y-145463855D02*
X129133333Y-145501950D01*
X129133333Y-145501950D02*
X129171428Y-145540045D01*
X129171428Y-145540045D02*
X129209523Y-145616236D01*
X129209523Y-145616236D02*
X129247618Y-145768617D01*
X129247618Y-145768617D02*
X129247618Y-145959093D01*
X129247618Y-145959093D02*
X129209523Y-146111474D01*
X129209523Y-146111474D02*
X129171428Y-146187664D01*
X129171428Y-146187664D02*
X129133333Y-146225760D01*
X129133333Y-146225760D02*
X129057142Y-146263855D01*
X129057142Y-146263855D02*
X128980952Y-146263855D01*
X128980952Y-146263855D02*
X128904761Y-146225760D01*
X128904761Y-146225760D02*
X128866666Y-146187664D01*
X128866666Y-146187664D02*
X128828571Y-146111474D01*
X128828571Y-146111474D02*
X128790475Y-145959093D01*
X128790475Y-145959093D02*
X128790475Y-145768617D01*
X128790475Y-145768617D02*
X128828571Y-145616236D01*
X128828571Y-145616236D02*
X128866666Y-145540045D01*
X128866666Y-145540045D02*
X128904761Y-145501950D01*
X128904761Y-145501950D02*
X128980952Y-145463855D01*
X129628571Y-146263855D02*
X129780952Y-146263855D01*
X129780952Y-146263855D02*
X129857142Y-146225760D01*
X129857142Y-146225760D02*
X129895238Y-146187664D01*
X129895238Y-146187664D02*
X129971428Y-146073379D01*
X129971428Y-146073379D02*
X130009523Y-145920998D01*
X130009523Y-145920998D02*
X130009523Y-145616236D01*
X130009523Y-145616236D02*
X129971428Y-145540045D01*
X129971428Y-145540045D02*
X129933333Y-145501950D01*
X129933333Y-145501950D02*
X129857142Y-145463855D01*
X129857142Y-145463855D02*
X129704761Y-145463855D01*
X129704761Y-145463855D02*
X129628571Y-145501950D01*
X129628571Y-145501950D02*
X129590476Y-145540045D01*
X129590476Y-145540045D02*
X129552380Y-145616236D01*
X129552380Y-145616236D02*
X129552380Y-145806712D01*
X129552380Y-145806712D02*
X129590476Y-145882902D01*
X129590476Y-145882902D02*
X129628571Y-145920998D01*
X129628571Y-145920998D02*
X129704761Y-145959093D01*
X129704761Y-145959093D02*
X129857142Y-145959093D01*
X129857142Y-145959093D02*
X129933333Y-145920998D01*
X129933333Y-145920998D02*
X129971428Y-145882902D01*
X129971428Y-145882902D02*
X130009523Y-145806712D01*
X128485714Y-152687664D02*
X128447618Y-152725760D01*
X128447618Y-152725760D02*
X128333333Y-152763855D01*
X128333333Y-152763855D02*
X128257142Y-152763855D01*
X128257142Y-152763855D02*
X128142856Y-152725760D01*
X128142856Y-152725760D02*
X128066666Y-152649569D01*
X128066666Y-152649569D02*
X128028571Y-152573379D01*
X128028571Y-152573379D02*
X127990475Y-152420998D01*
X127990475Y-152420998D02*
X127990475Y-152306712D01*
X127990475Y-152306712D02*
X128028571Y-152154331D01*
X128028571Y-152154331D02*
X128066666Y-152078140D01*
X128066666Y-152078140D02*
X128142856Y-152001950D01*
X128142856Y-152001950D02*
X128257142Y-151963855D01*
X128257142Y-151963855D02*
X128333333Y-151963855D01*
X128333333Y-151963855D02*
X128447618Y-152001950D01*
X128447618Y-152001950D02*
X128485714Y-152040045D01*
X129247618Y-152763855D02*
X128790475Y-152763855D01*
X129019047Y-152763855D02*
X129019047Y-151963855D01*
X129019047Y-151963855D02*
X128942856Y-152078140D01*
X128942856Y-152078140D02*
X128866666Y-152154331D01*
X128866666Y-152154331D02*
X128790475Y-152192426D01*
X130009523Y-152763855D02*
X129552380Y-152763855D01*
X129780952Y-152763855D02*
X129780952Y-151963855D01*
X129780952Y-151963855D02*
X129704761Y-152078140D01*
X129704761Y-152078140D02*
X129628571Y-152154331D01*
X129628571Y-152154331D02*
X129552380Y-152192426D01*
X128485714Y-159187664D02*
X128447618Y-159225760D01*
X128447618Y-159225760D02*
X128333333Y-159263855D01*
X128333333Y-159263855D02*
X128257142Y-159263855D01*
X128257142Y-159263855D02*
X128142856Y-159225760D01*
X128142856Y-159225760D02*
X128066666Y-159149569D01*
X128066666Y-159149569D02*
X128028571Y-159073379D01*
X128028571Y-159073379D02*
X127990475Y-158920998D01*
X127990475Y-158920998D02*
X127990475Y-158806712D01*
X127990475Y-158806712D02*
X128028571Y-158654331D01*
X128028571Y-158654331D02*
X128066666Y-158578140D01*
X128066666Y-158578140D02*
X128142856Y-158501950D01*
X128142856Y-158501950D02*
X128257142Y-158463855D01*
X128257142Y-158463855D02*
X128333333Y-158463855D01*
X128333333Y-158463855D02*
X128447618Y-158501950D01*
X128447618Y-158501950D02*
X128485714Y-158540045D01*
X129247618Y-159263855D02*
X128790475Y-159263855D01*
X129019047Y-159263855D02*
X129019047Y-158463855D01*
X129019047Y-158463855D02*
X128942856Y-158578140D01*
X128942856Y-158578140D02*
X128866666Y-158654331D01*
X128866666Y-158654331D02*
X128790475Y-158692426D01*
X129514285Y-158463855D02*
X130009523Y-158463855D01*
X130009523Y-158463855D02*
X129742857Y-158768617D01*
X129742857Y-158768617D02*
X129857142Y-158768617D01*
X129857142Y-158768617D02*
X129933333Y-158806712D01*
X129933333Y-158806712D02*
X129971428Y-158844807D01*
X129971428Y-158844807D02*
X130009523Y-158920998D01*
X130009523Y-158920998D02*
X130009523Y-159111474D01*
X130009523Y-159111474D02*
X129971428Y-159187664D01*
X129971428Y-159187664D02*
X129933333Y-159225760D01*
X129933333Y-159225760D02*
X129857142Y-159263855D01*
X129857142Y-159263855D02*
X129628571Y-159263855D01*
X129628571Y-159263855D02*
X129552380Y-159225760D01*
X129552380Y-159225760D02*
X129514285Y-159187664D01*
X128485714Y-165687664D02*
X128447618Y-165725760D01*
X128447618Y-165725760D02*
X128333333Y-165763855D01*
X128333333Y-165763855D02*
X128257142Y-165763855D01*
X128257142Y-165763855D02*
X128142856Y-165725760D01*
X128142856Y-165725760D02*
X128066666Y-165649569D01*
X128066666Y-165649569D02*
X128028571Y-165573379D01*
X128028571Y-165573379D02*
X127990475Y-165420998D01*
X127990475Y-165420998D02*
X127990475Y-165306712D01*
X127990475Y-165306712D02*
X128028571Y-165154331D01*
X128028571Y-165154331D02*
X128066666Y-165078140D01*
X128066666Y-165078140D02*
X128142856Y-165001950D01*
X128142856Y-165001950D02*
X128257142Y-164963855D01*
X128257142Y-164963855D02*
X128333333Y-164963855D01*
X128333333Y-164963855D02*
X128447618Y-165001950D01*
X128447618Y-165001950D02*
X128485714Y-165040045D01*
X129247618Y-165763855D02*
X128790475Y-165763855D01*
X129019047Y-165763855D02*
X129019047Y-164963855D01*
X129019047Y-164963855D02*
X128942856Y-165078140D01*
X128942856Y-165078140D02*
X128866666Y-165154331D01*
X128866666Y-165154331D02*
X128790475Y-165192426D01*
X129971428Y-164963855D02*
X129590476Y-164963855D01*
X129590476Y-164963855D02*
X129552380Y-165344807D01*
X129552380Y-165344807D02*
X129590476Y-165306712D01*
X129590476Y-165306712D02*
X129666666Y-165268617D01*
X129666666Y-165268617D02*
X129857142Y-165268617D01*
X129857142Y-165268617D02*
X129933333Y-165306712D01*
X129933333Y-165306712D02*
X129971428Y-165344807D01*
X129971428Y-165344807D02*
X130009523Y-165420998D01*
X130009523Y-165420998D02*
X130009523Y-165611474D01*
X130009523Y-165611474D02*
X129971428Y-165687664D01*
X129971428Y-165687664D02*
X129933333Y-165725760D01*
X129933333Y-165725760D02*
X129857142Y-165763855D01*
X129857142Y-165763855D02*
X129666666Y-165763855D01*
X129666666Y-165763855D02*
X129590476Y-165725760D01*
X129590476Y-165725760D02*
X129552380Y-165687664D01*
X138485714Y-120187664D02*
X138447618Y-120225760D01*
X138447618Y-120225760D02*
X138333333Y-120263855D01*
X138333333Y-120263855D02*
X138257142Y-120263855D01*
X138257142Y-120263855D02*
X138142856Y-120225760D01*
X138142856Y-120225760D02*
X138066666Y-120149569D01*
X138066666Y-120149569D02*
X138028571Y-120073379D01*
X138028571Y-120073379D02*
X137990475Y-119920998D01*
X137990475Y-119920998D02*
X137990475Y-119806712D01*
X137990475Y-119806712D02*
X138028571Y-119654331D01*
X138028571Y-119654331D02*
X138066666Y-119578140D01*
X138066666Y-119578140D02*
X138142856Y-119501950D01*
X138142856Y-119501950D02*
X138257142Y-119463855D01*
X138257142Y-119463855D02*
X138333333Y-119463855D01*
X138333333Y-119463855D02*
X138447618Y-119501950D01*
X138447618Y-119501950D02*
X138485714Y-119540045D01*
X138980952Y-119463855D02*
X139057142Y-119463855D01*
X139057142Y-119463855D02*
X139133333Y-119501950D01*
X139133333Y-119501950D02*
X139171428Y-119540045D01*
X139171428Y-119540045D02*
X139209523Y-119616236D01*
X139209523Y-119616236D02*
X139247618Y-119768617D01*
X139247618Y-119768617D02*
X139247618Y-119959093D01*
X139247618Y-119959093D02*
X139209523Y-120111474D01*
X139209523Y-120111474D02*
X139171428Y-120187664D01*
X139171428Y-120187664D02*
X139133333Y-120225760D01*
X139133333Y-120225760D02*
X139057142Y-120263855D01*
X139057142Y-120263855D02*
X138980952Y-120263855D01*
X138980952Y-120263855D02*
X138904761Y-120225760D01*
X138904761Y-120225760D02*
X138866666Y-120187664D01*
X138866666Y-120187664D02*
X138828571Y-120111474D01*
X138828571Y-120111474D02*
X138790475Y-119959093D01*
X138790475Y-119959093D02*
X138790475Y-119768617D01*
X138790475Y-119768617D02*
X138828571Y-119616236D01*
X138828571Y-119616236D02*
X138866666Y-119540045D01*
X138866666Y-119540045D02*
X138904761Y-119501950D01*
X138904761Y-119501950D02*
X138980952Y-119463855D01*
X139552380Y-119540045D02*
X139590476Y-119501950D01*
X139590476Y-119501950D02*
X139666666Y-119463855D01*
X139666666Y-119463855D02*
X139857142Y-119463855D01*
X139857142Y-119463855D02*
X139933333Y-119501950D01*
X139933333Y-119501950D02*
X139971428Y-119540045D01*
X139971428Y-119540045D02*
X140009523Y-119616236D01*
X140009523Y-119616236D02*
X140009523Y-119692426D01*
X140009523Y-119692426D02*
X139971428Y-119806712D01*
X139971428Y-119806712D02*
X139514285Y-120263855D01*
X139514285Y-120263855D02*
X140009523Y-120263855D01*
X138485714Y-126687664D02*
X138447618Y-126725760D01*
X138447618Y-126725760D02*
X138333333Y-126763855D01*
X138333333Y-126763855D02*
X138257142Y-126763855D01*
X138257142Y-126763855D02*
X138142856Y-126725760D01*
X138142856Y-126725760D02*
X138066666Y-126649569D01*
X138066666Y-126649569D02*
X138028571Y-126573379D01*
X138028571Y-126573379D02*
X137990475Y-126420998D01*
X137990475Y-126420998D02*
X137990475Y-126306712D01*
X137990475Y-126306712D02*
X138028571Y-126154331D01*
X138028571Y-126154331D02*
X138066666Y-126078140D01*
X138066666Y-126078140D02*
X138142856Y-126001950D01*
X138142856Y-126001950D02*
X138257142Y-125963855D01*
X138257142Y-125963855D02*
X138333333Y-125963855D01*
X138333333Y-125963855D02*
X138447618Y-126001950D01*
X138447618Y-126001950D02*
X138485714Y-126040045D01*
X138980952Y-125963855D02*
X139057142Y-125963855D01*
X139057142Y-125963855D02*
X139133333Y-126001950D01*
X139133333Y-126001950D02*
X139171428Y-126040045D01*
X139171428Y-126040045D02*
X139209523Y-126116236D01*
X139209523Y-126116236D02*
X139247618Y-126268617D01*
X139247618Y-126268617D02*
X139247618Y-126459093D01*
X139247618Y-126459093D02*
X139209523Y-126611474D01*
X139209523Y-126611474D02*
X139171428Y-126687664D01*
X139171428Y-126687664D02*
X139133333Y-126725760D01*
X139133333Y-126725760D02*
X139057142Y-126763855D01*
X139057142Y-126763855D02*
X138980952Y-126763855D01*
X138980952Y-126763855D02*
X138904761Y-126725760D01*
X138904761Y-126725760D02*
X138866666Y-126687664D01*
X138866666Y-126687664D02*
X138828571Y-126611474D01*
X138828571Y-126611474D02*
X138790475Y-126459093D01*
X138790475Y-126459093D02*
X138790475Y-126268617D01*
X138790475Y-126268617D02*
X138828571Y-126116236D01*
X138828571Y-126116236D02*
X138866666Y-126040045D01*
X138866666Y-126040045D02*
X138904761Y-126001950D01*
X138904761Y-126001950D02*
X138980952Y-125963855D01*
X139933333Y-126230521D02*
X139933333Y-126763855D01*
X139742857Y-125925760D02*
X139552380Y-126497188D01*
X139552380Y-126497188D02*
X140047619Y-126497188D01*
X138485714Y-133187664D02*
X138447618Y-133225760D01*
X138447618Y-133225760D02*
X138333333Y-133263855D01*
X138333333Y-133263855D02*
X138257142Y-133263855D01*
X138257142Y-133263855D02*
X138142856Y-133225760D01*
X138142856Y-133225760D02*
X138066666Y-133149569D01*
X138066666Y-133149569D02*
X138028571Y-133073379D01*
X138028571Y-133073379D02*
X137990475Y-132920998D01*
X137990475Y-132920998D02*
X137990475Y-132806712D01*
X137990475Y-132806712D02*
X138028571Y-132654331D01*
X138028571Y-132654331D02*
X138066666Y-132578140D01*
X138066666Y-132578140D02*
X138142856Y-132501950D01*
X138142856Y-132501950D02*
X138257142Y-132463855D01*
X138257142Y-132463855D02*
X138333333Y-132463855D01*
X138333333Y-132463855D02*
X138447618Y-132501950D01*
X138447618Y-132501950D02*
X138485714Y-132540045D01*
X138980952Y-132463855D02*
X139057142Y-132463855D01*
X139057142Y-132463855D02*
X139133333Y-132501950D01*
X139133333Y-132501950D02*
X139171428Y-132540045D01*
X139171428Y-132540045D02*
X139209523Y-132616236D01*
X139209523Y-132616236D02*
X139247618Y-132768617D01*
X139247618Y-132768617D02*
X139247618Y-132959093D01*
X139247618Y-132959093D02*
X139209523Y-133111474D01*
X139209523Y-133111474D02*
X139171428Y-133187664D01*
X139171428Y-133187664D02*
X139133333Y-133225760D01*
X139133333Y-133225760D02*
X139057142Y-133263855D01*
X139057142Y-133263855D02*
X138980952Y-133263855D01*
X138980952Y-133263855D02*
X138904761Y-133225760D01*
X138904761Y-133225760D02*
X138866666Y-133187664D01*
X138866666Y-133187664D02*
X138828571Y-133111474D01*
X138828571Y-133111474D02*
X138790475Y-132959093D01*
X138790475Y-132959093D02*
X138790475Y-132768617D01*
X138790475Y-132768617D02*
X138828571Y-132616236D01*
X138828571Y-132616236D02*
X138866666Y-132540045D01*
X138866666Y-132540045D02*
X138904761Y-132501950D01*
X138904761Y-132501950D02*
X138980952Y-132463855D01*
X139933333Y-132463855D02*
X139780952Y-132463855D01*
X139780952Y-132463855D02*
X139704761Y-132501950D01*
X139704761Y-132501950D02*
X139666666Y-132540045D01*
X139666666Y-132540045D02*
X139590476Y-132654331D01*
X139590476Y-132654331D02*
X139552380Y-132806712D01*
X139552380Y-132806712D02*
X139552380Y-133111474D01*
X139552380Y-133111474D02*
X139590476Y-133187664D01*
X139590476Y-133187664D02*
X139628571Y-133225760D01*
X139628571Y-133225760D02*
X139704761Y-133263855D01*
X139704761Y-133263855D02*
X139857142Y-133263855D01*
X139857142Y-133263855D02*
X139933333Y-133225760D01*
X139933333Y-133225760D02*
X139971428Y-133187664D01*
X139971428Y-133187664D02*
X140009523Y-133111474D01*
X140009523Y-133111474D02*
X140009523Y-132920998D01*
X140009523Y-132920998D02*
X139971428Y-132844807D01*
X139971428Y-132844807D02*
X139933333Y-132806712D01*
X139933333Y-132806712D02*
X139857142Y-132768617D01*
X139857142Y-132768617D02*
X139704761Y-132768617D01*
X139704761Y-132768617D02*
X139628571Y-132806712D01*
X139628571Y-132806712D02*
X139590476Y-132844807D01*
X139590476Y-132844807D02*
X139552380Y-132920998D01*
X138485714Y-139687664D02*
X138447618Y-139725760D01*
X138447618Y-139725760D02*
X138333333Y-139763855D01*
X138333333Y-139763855D02*
X138257142Y-139763855D01*
X138257142Y-139763855D02*
X138142856Y-139725760D01*
X138142856Y-139725760D02*
X138066666Y-139649569D01*
X138066666Y-139649569D02*
X138028571Y-139573379D01*
X138028571Y-139573379D02*
X137990475Y-139420998D01*
X137990475Y-139420998D02*
X137990475Y-139306712D01*
X137990475Y-139306712D02*
X138028571Y-139154331D01*
X138028571Y-139154331D02*
X138066666Y-139078140D01*
X138066666Y-139078140D02*
X138142856Y-139001950D01*
X138142856Y-139001950D02*
X138257142Y-138963855D01*
X138257142Y-138963855D02*
X138333333Y-138963855D01*
X138333333Y-138963855D02*
X138447618Y-139001950D01*
X138447618Y-139001950D02*
X138485714Y-139040045D01*
X138980952Y-138963855D02*
X139057142Y-138963855D01*
X139057142Y-138963855D02*
X139133333Y-139001950D01*
X139133333Y-139001950D02*
X139171428Y-139040045D01*
X139171428Y-139040045D02*
X139209523Y-139116236D01*
X139209523Y-139116236D02*
X139247618Y-139268617D01*
X139247618Y-139268617D02*
X139247618Y-139459093D01*
X139247618Y-139459093D02*
X139209523Y-139611474D01*
X139209523Y-139611474D02*
X139171428Y-139687664D01*
X139171428Y-139687664D02*
X139133333Y-139725760D01*
X139133333Y-139725760D02*
X139057142Y-139763855D01*
X139057142Y-139763855D02*
X138980952Y-139763855D01*
X138980952Y-139763855D02*
X138904761Y-139725760D01*
X138904761Y-139725760D02*
X138866666Y-139687664D01*
X138866666Y-139687664D02*
X138828571Y-139611474D01*
X138828571Y-139611474D02*
X138790475Y-139459093D01*
X138790475Y-139459093D02*
X138790475Y-139268617D01*
X138790475Y-139268617D02*
X138828571Y-139116236D01*
X138828571Y-139116236D02*
X138866666Y-139040045D01*
X138866666Y-139040045D02*
X138904761Y-139001950D01*
X138904761Y-139001950D02*
X138980952Y-138963855D01*
X139704761Y-139306712D02*
X139628571Y-139268617D01*
X139628571Y-139268617D02*
X139590476Y-139230521D01*
X139590476Y-139230521D02*
X139552380Y-139154331D01*
X139552380Y-139154331D02*
X139552380Y-139116236D01*
X139552380Y-139116236D02*
X139590476Y-139040045D01*
X139590476Y-139040045D02*
X139628571Y-139001950D01*
X139628571Y-139001950D02*
X139704761Y-138963855D01*
X139704761Y-138963855D02*
X139857142Y-138963855D01*
X139857142Y-138963855D02*
X139933333Y-139001950D01*
X139933333Y-139001950D02*
X139971428Y-139040045D01*
X139971428Y-139040045D02*
X140009523Y-139116236D01*
X140009523Y-139116236D02*
X140009523Y-139154331D01*
X140009523Y-139154331D02*
X139971428Y-139230521D01*
X139971428Y-139230521D02*
X139933333Y-139268617D01*
X139933333Y-139268617D02*
X139857142Y-139306712D01*
X139857142Y-139306712D02*
X139704761Y-139306712D01*
X139704761Y-139306712D02*
X139628571Y-139344807D01*
X139628571Y-139344807D02*
X139590476Y-139382902D01*
X139590476Y-139382902D02*
X139552380Y-139459093D01*
X139552380Y-139459093D02*
X139552380Y-139611474D01*
X139552380Y-139611474D02*
X139590476Y-139687664D01*
X139590476Y-139687664D02*
X139628571Y-139725760D01*
X139628571Y-139725760D02*
X139704761Y-139763855D01*
X139704761Y-139763855D02*
X139857142Y-139763855D01*
X139857142Y-139763855D02*
X139933333Y-139725760D01*
X139933333Y-139725760D02*
X139971428Y-139687664D01*
X139971428Y-139687664D02*
X140009523Y-139611474D01*
X140009523Y-139611474D02*
X140009523Y-139459093D01*
X140009523Y-139459093D02*
X139971428Y-139382902D01*
X139971428Y-139382902D02*
X139933333Y-139344807D01*
X139933333Y-139344807D02*
X139857142Y-139306712D01*
X138485714Y-146187664D02*
X138447618Y-146225760D01*
X138447618Y-146225760D02*
X138333333Y-146263855D01*
X138333333Y-146263855D02*
X138257142Y-146263855D01*
X138257142Y-146263855D02*
X138142856Y-146225760D01*
X138142856Y-146225760D02*
X138066666Y-146149569D01*
X138066666Y-146149569D02*
X138028571Y-146073379D01*
X138028571Y-146073379D02*
X137990475Y-145920998D01*
X137990475Y-145920998D02*
X137990475Y-145806712D01*
X137990475Y-145806712D02*
X138028571Y-145654331D01*
X138028571Y-145654331D02*
X138066666Y-145578140D01*
X138066666Y-145578140D02*
X138142856Y-145501950D01*
X138142856Y-145501950D02*
X138257142Y-145463855D01*
X138257142Y-145463855D02*
X138333333Y-145463855D01*
X138333333Y-145463855D02*
X138447618Y-145501950D01*
X138447618Y-145501950D02*
X138485714Y-145540045D01*
X139247618Y-146263855D02*
X138790475Y-146263855D01*
X139019047Y-146263855D02*
X139019047Y-145463855D01*
X139019047Y-145463855D02*
X138942856Y-145578140D01*
X138942856Y-145578140D02*
X138866666Y-145654331D01*
X138866666Y-145654331D02*
X138790475Y-145692426D01*
X139742857Y-145463855D02*
X139819047Y-145463855D01*
X139819047Y-145463855D02*
X139895238Y-145501950D01*
X139895238Y-145501950D02*
X139933333Y-145540045D01*
X139933333Y-145540045D02*
X139971428Y-145616236D01*
X139971428Y-145616236D02*
X140009523Y-145768617D01*
X140009523Y-145768617D02*
X140009523Y-145959093D01*
X140009523Y-145959093D02*
X139971428Y-146111474D01*
X139971428Y-146111474D02*
X139933333Y-146187664D01*
X139933333Y-146187664D02*
X139895238Y-146225760D01*
X139895238Y-146225760D02*
X139819047Y-146263855D01*
X139819047Y-146263855D02*
X139742857Y-146263855D01*
X139742857Y-146263855D02*
X139666666Y-146225760D01*
X139666666Y-146225760D02*
X139628571Y-146187664D01*
X139628571Y-146187664D02*
X139590476Y-146111474D01*
X139590476Y-146111474D02*
X139552380Y-145959093D01*
X139552380Y-145959093D02*
X139552380Y-145768617D01*
X139552380Y-145768617D02*
X139590476Y-145616236D01*
X139590476Y-145616236D02*
X139628571Y-145540045D01*
X139628571Y-145540045D02*
X139666666Y-145501950D01*
X139666666Y-145501950D02*
X139742857Y-145463855D01*
X138485714Y-152687664D02*
X138447618Y-152725760D01*
X138447618Y-152725760D02*
X138333333Y-152763855D01*
X138333333Y-152763855D02*
X138257142Y-152763855D01*
X138257142Y-152763855D02*
X138142856Y-152725760D01*
X138142856Y-152725760D02*
X138066666Y-152649569D01*
X138066666Y-152649569D02*
X138028571Y-152573379D01*
X138028571Y-152573379D02*
X137990475Y-152420998D01*
X137990475Y-152420998D02*
X137990475Y-152306712D01*
X137990475Y-152306712D02*
X138028571Y-152154331D01*
X138028571Y-152154331D02*
X138066666Y-152078140D01*
X138066666Y-152078140D02*
X138142856Y-152001950D01*
X138142856Y-152001950D02*
X138257142Y-151963855D01*
X138257142Y-151963855D02*
X138333333Y-151963855D01*
X138333333Y-151963855D02*
X138447618Y-152001950D01*
X138447618Y-152001950D02*
X138485714Y-152040045D01*
X139247618Y-152763855D02*
X138790475Y-152763855D01*
X139019047Y-152763855D02*
X139019047Y-151963855D01*
X139019047Y-151963855D02*
X138942856Y-152078140D01*
X138942856Y-152078140D02*
X138866666Y-152154331D01*
X138866666Y-152154331D02*
X138790475Y-152192426D01*
X139552380Y-152040045D02*
X139590476Y-152001950D01*
X139590476Y-152001950D02*
X139666666Y-151963855D01*
X139666666Y-151963855D02*
X139857142Y-151963855D01*
X139857142Y-151963855D02*
X139933333Y-152001950D01*
X139933333Y-152001950D02*
X139971428Y-152040045D01*
X139971428Y-152040045D02*
X140009523Y-152116236D01*
X140009523Y-152116236D02*
X140009523Y-152192426D01*
X140009523Y-152192426D02*
X139971428Y-152306712D01*
X139971428Y-152306712D02*
X139514285Y-152763855D01*
X139514285Y-152763855D02*
X140009523Y-152763855D01*
X138485714Y-159187664D02*
X138447618Y-159225760D01*
X138447618Y-159225760D02*
X138333333Y-159263855D01*
X138333333Y-159263855D02*
X138257142Y-159263855D01*
X138257142Y-159263855D02*
X138142856Y-159225760D01*
X138142856Y-159225760D02*
X138066666Y-159149569D01*
X138066666Y-159149569D02*
X138028571Y-159073379D01*
X138028571Y-159073379D02*
X137990475Y-158920998D01*
X137990475Y-158920998D02*
X137990475Y-158806712D01*
X137990475Y-158806712D02*
X138028571Y-158654331D01*
X138028571Y-158654331D02*
X138066666Y-158578140D01*
X138066666Y-158578140D02*
X138142856Y-158501950D01*
X138142856Y-158501950D02*
X138257142Y-158463855D01*
X138257142Y-158463855D02*
X138333333Y-158463855D01*
X138333333Y-158463855D02*
X138447618Y-158501950D01*
X138447618Y-158501950D02*
X138485714Y-158540045D01*
X139247618Y-159263855D02*
X138790475Y-159263855D01*
X139019047Y-159263855D02*
X139019047Y-158463855D01*
X139019047Y-158463855D02*
X138942856Y-158578140D01*
X138942856Y-158578140D02*
X138866666Y-158654331D01*
X138866666Y-158654331D02*
X138790475Y-158692426D01*
X139933333Y-158730521D02*
X139933333Y-159263855D01*
X139742857Y-158425760D02*
X139552380Y-158997188D01*
X139552380Y-158997188D02*
X140047619Y-158997188D01*
X138485714Y-165687664D02*
X138447618Y-165725760D01*
X138447618Y-165725760D02*
X138333333Y-165763855D01*
X138333333Y-165763855D02*
X138257142Y-165763855D01*
X138257142Y-165763855D02*
X138142856Y-165725760D01*
X138142856Y-165725760D02*
X138066666Y-165649569D01*
X138066666Y-165649569D02*
X138028571Y-165573379D01*
X138028571Y-165573379D02*
X137990475Y-165420998D01*
X137990475Y-165420998D02*
X137990475Y-165306712D01*
X137990475Y-165306712D02*
X138028571Y-165154331D01*
X138028571Y-165154331D02*
X138066666Y-165078140D01*
X138066666Y-165078140D02*
X138142856Y-165001950D01*
X138142856Y-165001950D02*
X138257142Y-164963855D01*
X138257142Y-164963855D02*
X138333333Y-164963855D01*
X138333333Y-164963855D02*
X138447618Y-165001950D01*
X138447618Y-165001950D02*
X138485714Y-165040045D01*
X139247618Y-165763855D02*
X138790475Y-165763855D01*
X139019047Y-165763855D02*
X139019047Y-164963855D01*
X139019047Y-164963855D02*
X138942856Y-165078140D01*
X138942856Y-165078140D02*
X138866666Y-165154331D01*
X138866666Y-165154331D02*
X138790475Y-165192426D01*
X139933333Y-164963855D02*
X139780952Y-164963855D01*
X139780952Y-164963855D02*
X139704761Y-165001950D01*
X139704761Y-165001950D02*
X139666666Y-165040045D01*
X139666666Y-165040045D02*
X139590476Y-165154331D01*
X139590476Y-165154331D02*
X139552380Y-165306712D01*
X139552380Y-165306712D02*
X139552380Y-165611474D01*
X139552380Y-165611474D02*
X139590476Y-165687664D01*
X139590476Y-165687664D02*
X139628571Y-165725760D01*
X139628571Y-165725760D02*
X139704761Y-165763855D01*
X139704761Y-165763855D02*
X139857142Y-165763855D01*
X139857142Y-165763855D02*
X139933333Y-165725760D01*
X139933333Y-165725760D02*
X139971428Y-165687664D01*
X139971428Y-165687664D02*
X140009523Y-165611474D01*
X140009523Y-165611474D02*
X140009523Y-165420998D01*
X140009523Y-165420998D02*
X139971428Y-165344807D01*
X139971428Y-165344807D02*
X139933333Y-165306712D01*
X139933333Y-165306712D02*
X139857142Y-165268617D01*
X139857142Y-165268617D02*
X139704761Y-165268617D01*
X139704761Y-165268617D02*
X139628571Y-165306712D01*
X139628571Y-165306712D02*
X139590476Y-165344807D01*
X139590476Y-165344807D02*
X139552380Y-165420998D01*
%TO.C,J54*%
X125390000Y-155960000D02*
X125390000Y-157110000D01*
X125390000Y-157110000D02*
X126440000Y-157110000D01*
X126440000Y-157110000D02*
X126440000Y-158100000D01*
X126560000Y-153990000D02*
X131440000Y-153990000D01*
X132610000Y-155960000D02*
X132610000Y-157110000D01*
X132610000Y-157110000D02*
X131560000Y-157110000D01*
%TO.C,R40*%
X93762742Y-109477500D02*
X94237258Y-109477500D01*
X93762742Y-110522500D02*
X94237258Y-110522500D01*
%TO.C,J29*%
X111390000Y-123460000D02*
X111390000Y-124610000D01*
X111390000Y-124610000D02*
X112440000Y-124610000D01*
X112440000Y-124610000D02*
X112440000Y-125600000D01*
X112560000Y-121490000D02*
X117440000Y-121490000D01*
X118610000Y-123460000D02*
X118610000Y-124610000D01*
X118610000Y-124610000D02*
X117560000Y-124610000D01*
%TO.C,F4*%
X144397936Y-87090000D02*
X145602064Y-87090000D01*
X144397936Y-88910000D02*
X145602064Y-88910000D01*
%TO.C,J45*%
X135390000Y-123460000D02*
X135390000Y-124610000D01*
X135390000Y-124610000D02*
X136440000Y-124610000D01*
X136440000Y-124610000D02*
X136440000Y-125600000D01*
X136560000Y-121490000D02*
X141440000Y-121490000D01*
X142610000Y-123460000D02*
X142610000Y-124610000D01*
X142610000Y-124610000D02*
X141560000Y-124610000D01*
%TO.C,J32*%
X101390000Y-136460000D02*
X101390000Y-137610000D01*
X101390000Y-137610000D02*
X102440000Y-137610000D01*
X102440000Y-137610000D02*
X102440000Y-138600000D01*
X102560000Y-134490000D02*
X107440000Y-134490000D01*
X108610000Y-136460000D02*
X108610000Y-137610000D01*
X108610000Y-137610000D02*
X107560000Y-137610000D01*
%TO.C,J26*%
X101390000Y-116960000D02*
X101390000Y-118110000D01*
X101390000Y-118110000D02*
X102440000Y-118110000D01*
X102440000Y-118110000D02*
X102440000Y-119100000D01*
X102560000Y-114990000D02*
X107440000Y-114990000D01*
X108610000Y-116960000D02*
X108610000Y-118110000D01*
X108610000Y-118110000D02*
X107560000Y-118110000D01*
%TO.C,J10*%
X77390000Y-116960000D02*
X77390000Y-118110000D01*
X77390000Y-118110000D02*
X78440000Y-118110000D01*
X78440000Y-118110000D02*
X78440000Y-119100000D01*
X78560000Y-114990000D02*
X83440000Y-114990000D01*
X84610000Y-116960000D02*
X84610000Y-118110000D01*
X84610000Y-118110000D02*
X83560000Y-118110000D01*
%TO.C,J42*%
X125390000Y-116960000D02*
X125390000Y-118110000D01*
X125390000Y-118110000D02*
X126440000Y-118110000D01*
X126440000Y-118110000D02*
X126440000Y-119100000D01*
X126560000Y-114990000D02*
X131440000Y-114990000D01*
X132610000Y-116960000D02*
X132610000Y-118110000D01*
X132610000Y-118110000D02*
X131560000Y-118110000D01*
%TO.C,R30*%
X87762742Y-101477500D02*
X88237258Y-101477500D01*
X87762742Y-102522500D02*
X88237258Y-102522500D01*
%TO.C,J51*%
X135390000Y-142960000D02*
X135390000Y-144110000D01*
X135390000Y-144110000D02*
X136440000Y-144110000D01*
X136440000Y-144110000D02*
X136440000Y-145100000D01*
X136560000Y-140990000D02*
X141440000Y-140990000D01*
X142610000Y-142960000D02*
X142610000Y-144110000D01*
X142610000Y-144110000D02*
X141560000Y-144110000D01*
%TO.C,C8*%
X119738748Y-91265000D02*
X120261252Y-91265000D01*
X119738748Y-92735000D02*
X120261252Y-92735000D01*
%TO.C,J57*%
X135390000Y-162460000D02*
X135390000Y-163610000D01*
X135390000Y-163610000D02*
X136440000Y-163610000D01*
X136440000Y-163610000D02*
X136440000Y-164600000D01*
X136560000Y-160490000D02*
X141440000Y-160490000D01*
X142610000Y-162460000D02*
X142610000Y-163610000D01*
X142610000Y-163610000D02*
X141560000Y-163610000D01*
%TO.C,J33*%
X111390000Y-136460000D02*
X111390000Y-137610000D01*
X111390000Y-137610000D02*
X112440000Y-137610000D01*
X112440000Y-137610000D02*
X112440000Y-138600000D01*
X112560000Y-134490000D02*
X117440000Y-134490000D01*
X118610000Y-136460000D02*
X118610000Y-137610000D01*
X118610000Y-137610000D02*
X117560000Y-137610000D01*
%TO.C,J50*%
X125390000Y-142960000D02*
X125390000Y-144110000D01*
X125390000Y-144110000D02*
X126440000Y-144110000D01*
X126440000Y-144110000D02*
X126440000Y-145100000D01*
X126560000Y-140990000D02*
X131440000Y-140990000D01*
X132610000Y-142960000D02*
X132610000Y-144110000D01*
X132610000Y-144110000D02*
X131560000Y-144110000D01*
%TO.C,J30*%
X101390000Y-129960000D02*
X101390000Y-131110000D01*
X101390000Y-131110000D02*
X102440000Y-131110000D01*
X102440000Y-131110000D02*
X102440000Y-132100000D01*
X102560000Y-127990000D02*
X107440000Y-127990000D01*
X108610000Y-129960000D02*
X108610000Y-131110000D01*
X108610000Y-131110000D02*
X107560000Y-131110000D01*
%TO.C,U7*%
X129090000Y-84440000D02*
X130910000Y-84440000D01*
X129090000Y-84490000D02*
X129090000Y-84440000D01*
X129090000Y-87560000D02*
X129090000Y-87510000D01*
X130910000Y-84440000D02*
X130910000Y-84490000D01*
X130910000Y-85610000D02*
X130910000Y-86390000D01*
X130910000Y-87510000D02*
X130910000Y-87560000D01*
X130910000Y-87560000D02*
X129090000Y-87560000D01*
X128550000Y-84490000D02*
X128310000Y-84160000D01*
X128790000Y-84160000D01*
X128550000Y-84490000D01*
G36*
X128550000Y-84490000D02*
G01*
X128310000Y-84160000D01*
X128790000Y-84160000D01*
X128550000Y-84490000D01*
G37*
%TO.C,J38*%
X101390000Y-155960000D02*
X101390000Y-157110000D01*
X101390000Y-157110000D02*
X102440000Y-157110000D01*
X102440000Y-157110000D02*
X102440000Y-158100000D01*
X102560000Y-153990000D02*
X107440000Y-153990000D01*
X108610000Y-155960000D02*
X108610000Y-157110000D01*
X108610000Y-157110000D02*
X107560000Y-157110000D01*
%TO.C,R13*%
X95762742Y-84477500D02*
X96237258Y-84477500D01*
X95762742Y-85522500D02*
X96237258Y-85522500D01*
%TO.C,J41*%
X111390000Y-162460000D02*
X111390000Y-163610000D01*
X111390000Y-163610000D02*
X112440000Y-163610000D01*
X112440000Y-163610000D02*
X112440000Y-164600000D01*
X112560000Y-160490000D02*
X117440000Y-160490000D01*
X118610000Y-162460000D02*
X118610000Y-163610000D01*
X118610000Y-163610000D02*
X117560000Y-163610000D01*
%TO.C,J56*%
X125390000Y-162460000D02*
X125390000Y-163610000D01*
X125390000Y-163610000D02*
X126440000Y-163610000D01*
X126440000Y-163610000D02*
X126440000Y-164600000D01*
X126560000Y-160490000D02*
X131440000Y-160490000D01*
X132610000Y-162460000D02*
X132610000Y-163610000D01*
X132610000Y-163610000D02*
X131560000Y-163610000D01*
%TO.C,J11*%
X87390000Y-116960000D02*
X87390000Y-118110000D01*
X87390000Y-118110000D02*
X88440000Y-118110000D01*
X88440000Y-118110000D02*
X88440000Y-119100000D01*
X88560000Y-114990000D02*
X93440000Y-114990000D01*
X94610000Y-116960000D02*
X94610000Y-118110000D01*
X94610000Y-118110000D02*
X93560000Y-118110000D01*
%TO.C,TP2*%
X152700000Y-90000000D02*
G75*
G02*
X151300000Y-90000000I-700000J0D01*
G01*
X151300000Y-90000000D02*
G75*
G02*
X152700000Y-90000000I700000J0D01*
G01*
%TO.C,R11*%
X99762742Y-81477500D02*
X100237258Y-81477500D01*
X99762742Y-82522500D02*
X100237258Y-82522500D01*
%TO.C,R31*%
X91762742Y-101477500D02*
X92237258Y-101477500D01*
X91762742Y-102522500D02*
X92237258Y-102522500D01*
%TO.C,J27*%
X111390000Y-116960000D02*
X111390000Y-118110000D01*
X111390000Y-118110000D02*
X112440000Y-118110000D01*
X112440000Y-118110000D02*
X112440000Y-119100000D01*
X112560000Y-114990000D02*
X117440000Y-114990000D01*
X118610000Y-116960000D02*
X118610000Y-118110000D01*
X118610000Y-118110000D02*
X117560000Y-118110000D01*
%TO.C,R2*%
X83762742Y-89477500D02*
X84237258Y-89477500D01*
X83762742Y-90522500D02*
X84237258Y-90522500D01*
%TO.C,J1*%
X91000000Y-79000000D02*
X92380000Y-79000000D01*
X91000000Y-80380000D02*
X91000000Y-79000000D01*
X91000000Y-81650000D02*
X91000000Y-97000000D01*
X91000000Y-81650000D02*
X93760000Y-81650000D01*
X91000000Y-97000000D02*
X93760000Y-97000000D01*
X93760000Y-81650000D02*
X93760000Y-97000000D01*
%TO.C,R1*%
X79762742Y-89477500D02*
X80237258Y-89477500D01*
X79762742Y-90522500D02*
X80237258Y-90522500D01*
%TO.C,J20*%
X77390000Y-149460000D02*
X77390000Y-150610000D01*
X77390000Y-150610000D02*
X78440000Y-150610000D01*
X78440000Y-150610000D02*
X78440000Y-151600000D01*
X78560000Y-147490000D02*
X83440000Y-147490000D01*
X84610000Y-149460000D02*
X84610000Y-150610000D01*
X84610000Y-150610000D02*
X83560000Y-150610000D01*
%TO.C,J23*%
X87390000Y-155960000D02*
X87390000Y-157110000D01*
X87390000Y-157110000D02*
X88440000Y-157110000D01*
X88440000Y-157110000D02*
X88440000Y-158100000D01*
X88560000Y-153990000D02*
X93440000Y-153990000D01*
X94610000Y-155960000D02*
X94610000Y-157110000D01*
X94610000Y-157110000D02*
X93560000Y-157110000D01*
%TO.C,J21*%
X87390000Y-149460000D02*
X87390000Y-150610000D01*
X87390000Y-150610000D02*
X88440000Y-150610000D01*
X88440000Y-150610000D02*
X88440000Y-151600000D01*
X88560000Y-147490000D02*
X93440000Y-147490000D01*
X94610000Y-149460000D02*
X94610000Y-150610000D01*
X94610000Y-150610000D02*
X93560000Y-150610000D01*
%TO.C,J3*%
X138915000Y-76140000D02*
X147085000Y-76140000D01*
X138915000Y-76990000D02*
X138915000Y-76140000D01*
X138915000Y-80510000D02*
X138915000Y-81360000D01*
X138915000Y-81360000D02*
X141240000Y-81360000D01*
X141240000Y-81360000D02*
X141240000Y-83750000D01*
X147085000Y-76140000D02*
X147085000Y-76990000D01*
X147085000Y-80510000D02*
X147085000Y-81360000D01*
X147085000Y-81360000D02*
X144760000Y-81360000D01*
%TO.C,U4*%
X107690000Y-104965000D02*
X112310000Y-104965000D01*
X112310000Y-113035000D02*
X107690000Y-113035000D01*
X106140000Y-105420000D02*
X105810000Y-105660000D01*
X105810000Y-105180000D01*
X106140000Y-105420000D01*
G36*
X106140000Y-105420000D02*
G01*
X105810000Y-105660000D01*
X105810000Y-105180000D01*
X106140000Y-105420000D01*
G37*
%TO.C,C2*%
X149859420Y-96490000D02*
X150140580Y-96490000D01*
X149859420Y-97510000D02*
X150140580Y-97510000D01*
%TO.C,J19*%
X87390000Y-142960000D02*
X87390000Y-144110000D01*
X87390000Y-144110000D02*
X88440000Y-144110000D01*
X88440000Y-144110000D02*
X88440000Y-145100000D01*
X88560000Y-140990000D02*
X93440000Y-140990000D01*
X94610000Y-142960000D02*
X94610000Y-144110000D01*
X94610000Y-144110000D02*
X93560000Y-144110000D01*
%TO.C,J36*%
X101390000Y-149460000D02*
X101390000Y-150610000D01*
X101390000Y-150610000D02*
X102440000Y-150610000D01*
X102440000Y-150610000D02*
X102440000Y-151600000D01*
X102560000Y-147490000D02*
X107440000Y-147490000D01*
X108610000Y-149460000D02*
X108610000Y-150610000D01*
X108610000Y-150610000D02*
X107560000Y-150610000D01*
%TO.C,J46*%
X125390000Y-129960000D02*
X125390000Y-131110000D01*
X125390000Y-131110000D02*
X126440000Y-131110000D01*
X126440000Y-131110000D02*
X126440000Y-132100000D01*
X126560000Y-127990000D02*
X131440000Y-127990000D01*
X132610000Y-129960000D02*
X132610000Y-131110000D01*
X132610000Y-131110000D02*
X131560000Y-131110000D01*
%TO.C,J40*%
X101390000Y-162460000D02*
X101390000Y-163610000D01*
X101390000Y-163610000D02*
X102440000Y-163610000D01*
X102440000Y-163610000D02*
X102440000Y-164600000D01*
X102560000Y-160490000D02*
X107440000Y-160490000D01*
X108610000Y-162460000D02*
X108610000Y-163610000D01*
X108610000Y-163610000D02*
X107560000Y-163610000D01*
%TO.C,J55*%
X135390000Y-155960000D02*
X135390000Y-157110000D01*
X135390000Y-157110000D02*
X136440000Y-157110000D01*
X136440000Y-157110000D02*
X136440000Y-158100000D01*
X136560000Y-153990000D02*
X141440000Y-153990000D01*
X142610000Y-155960000D02*
X142610000Y-157110000D01*
X142610000Y-157110000D02*
X141560000Y-157110000D01*
%TO.C,J49*%
X135390000Y-136460000D02*
X135390000Y-137610000D01*
X135390000Y-137610000D02*
X136440000Y-137610000D01*
X136440000Y-137610000D02*
X136440000Y-138600000D01*
X136560000Y-134490000D02*
X141440000Y-134490000D01*
X142610000Y-136460000D02*
X142610000Y-137610000D01*
X142610000Y-137610000D02*
X141560000Y-137610000D01*
%TO.C,C7*%
X133738748Y-88265000D02*
X134261252Y-88265000D01*
X133738748Y-89735000D02*
X134261252Y-89735000D01*
%TO.C,J43*%
X135390000Y-116960000D02*
X135390000Y-118110000D01*
X135390000Y-118110000D02*
X136440000Y-118110000D01*
X136440000Y-118110000D02*
X136440000Y-119100000D01*
X136560000Y-114990000D02*
X141440000Y-114990000D01*
X142610000Y-116960000D02*
X142610000Y-118110000D01*
X142610000Y-118110000D02*
X141560000Y-118110000D01*
%TO.C,J14*%
X77390000Y-129960000D02*
X77390000Y-131110000D01*
X77390000Y-131110000D02*
X78440000Y-131110000D01*
X78440000Y-131110000D02*
X78440000Y-132100000D01*
X78560000Y-127990000D02*
X83440000Y-127990000D01*
X84610000Y-129960000D02*
X84610000Y-131110000D01*
X84610000Y-131110000D02*
X83560000Y-131110000D01*
%TO.C,J17*%
X87390000Y-136460000D02*
X87390000Y-137610000D01*
X87390000Y-137610000D02*
X88440000Y-137610000D01*
X88440000Y-137610000D02*
X88440000Y-138600000D01*
X88560000Y-134490000D02*
X93440000Y-134490000D01*
X94610000Y-136460000D02*
X94610000Y-137610000D01*
X94610000Y-137610000D02*
X93560000Y-137610000D01*
%TO.C,F5*%
X115837221Y-92490000D02*
X116162779Y-92490000D01*
X115837221Y-93510000D02*
X116162779Y-93510000D01*
%TO.C,R14*%
X99762742Y-84477500D02*
X100237258Y-84477500D01*
X99762742Y-85522500D02*
X100237258Y-85522500D01*
%TO.C,R32*%
X111762742Y-101477500D02*
X112237258Y-101477500D01*
X111762742Y-102522500D02*
X112237258Y-102522500D01*
%TO.C,J39*%
X111390000Y-155960000D02*
X111390000Y-157110000D01*
X111390000Y-157110000D02*
X112440000Y-157110000D01*
X112440000Y-157110000D02*
X112440000Y-158100000D01*
X112560000Y-153990000D02*
X117440000Y-153990000D01*
X118610000Y-155960000D02*
X118610000Y-157110000D01*
X118610000Y-157110000D02*
X117560000Y-157110000D01*
%TO.C,R42*%
X141762742Y-109477500D02*
X142237258Y-109477500D01*
X141762742Y-110522500D02*
X142237258Y-110522500D01*
%TO.C,J16*%
X77390000Y-136460000D02*
X77390000Y-137610000D01*
X77390000Y-137610000D02*
X78440000Y-137610000D01*
X78440000Y-137610000D02*
X78440000Y-138600000D01*
X78560000Y-134490000D02*
X83440000Y-134490000D01*
X84610000Y-136460000D02*
X84610000Y-137610000D01*
X84610000Y-137610000D02*
X83560000Y-137610000D01*
%TO.C,TP1*%
X152700000Y-93000000D02*
G75*
G02*
X151300000Y-93000000I-700000J0D01*
G01*
X151300000Y-93000000D02*
G75*
G02*
X152700000Y-93000000I700000J0D01*
G01*
%TO.C,J37*%
X111390000Y-149460000D02*
X111390000Y-150610000D01*
X111390000Y-150610000D02*
X112440000Y-150610000D01*
X112440000Y-150610000D02*
X112440000Y-151600000D01*
X112560000Y-147490000D02*
X117440000Y-147490000D01*
X118610000Y-149460000D02*
X118610000Y-150610000D01*
X118610000Y-150610000D02*
X117560000Y-150610000D01*
%TO.C,U1*%
X79690000Y-95615000D02*
X84310000Y-95615000D01*
X84310000Y-102385000D02*
X79690000Y-102385000D01*
X78140000Y-96070000D02*
X77810000Y-96310000D01*
X77810000Y-95830000D01*
X78140000Y-96070000D01*
G36*
X78140000Y-96070000D02*
G01*
X77810000Y-96310000D01*
X77810000Y-95830000D01*
X78140000Y-96070000D01*
G37*
%TO.C,J47*%
X135390000Y-129960000D02*
X135390000Y-131110000D01*
X135390000Y-131110000D02*
X136440000Y-131110000D01*
X136440000Y-131110000D02*
X136440000Y-132100000D01*
X136560000Y-127990000D02*
X141440000Y-127990000D01*
X142610000Y-129960000D02*
X142610000Y-131110000D01*
X142610000Y-131110000D02*
X141560000Y-131110000D01*
%TO.C,R51*%
X129762742Y-80477500D02*
X130237258Y-80477500D01*
X129762742Y-81522500D02*
X130237258Y-81522500D01*
%TO.C,TP4*%
X152700000Y-87000000D02*
G75*
G02*
X151300000Y-87000000I-700000J0D01*
G01*
X151300000Y-87000000D02*
G75*
G02*
X152700000Y-87000000I700000J0D01*
G01*
%TO.C,C10*%
X121859420Y-80490000D02*
X122140580Y-80490000D01*
X121859420Y-81510000D02*
X122140580Y-81510000D01*
%TO.C,J28*%
X101390000Y-123460000D02*
X101390000Y-124610000D01*
X101390000Y-124610000D02*
X102440000Y-124610000D01*
X102440000Y-124610000D02*
X102440000Y-125600000D01*
X102560000Y-121490000D02*
X107440000Y-121490000D01*
X108610000Y-123460000D02*
X108610000Y-124610000D01*
X108610000Y-124610000D02*
X107560000Y-124610000D01*
%TO.C,D1*%
X130990000Y-76350000D02*
X130990000Y-79650000D01*
X130990000Y-76350000D02*
X136500000Y-76350000D01*
X130990000Y-79650000D02*
X136500000Y-79650000D01*
%TO.C,R41*%
X117762742Y-109477500D02*
X118237258Y-109477500D01*
X117762742Y-110522500D02*
X118237258Y-110522500D01*
%TO.C,U5*%
X131690000Y-104965000D02*
X136310000Y-104965000D01*
X136310000Y-113035000D02*
X131690000Y-113035000D01*
X130140000Y-105420000D02*
X129810000Y-105660000D01*
X129810000Y-105180000D01*
X130140000Y-105420000D01*
G36*
X130140000Y-105420000D02*
G01*
X129810000Y-105660000D01*
X129810000Y-105180000D01*
X130140000Y-105420000D01*
G37*
%TO.C,TP3*%
X152700000Y-112000000D02*
G75*
G02*
X151300000Y-112000000I-700000J0D01*
G01*
X151300000Y-112000000D02*
G75*
G02*
X152700000Y-112000000I700000J0D01*
G01*
%TO.C,R50*%
X125762742Y-80477500D02*
X126237258Y-80477500D01*
X125762742Y-81522500D02*
X126237258Y-81522500D01*
%TO.C,R10*%
X95762742Y-81477500D02*
X96237258Y-81477500D01*
X95762742Y-82522500D02*
X96237258Y-82522500D01*
%TO.C,J15*%
X87390000Y-129960000D02*
X87390000Y-131110000D01*
X87390000Y-131110000D02*
X88440000Y-131110000D01*
X88440000Y-131110000D02*
X88440000Y-132100000D01*
X88560000Y-127990000D02*
X93440000Y-127990000D01*
X94610000Y-129960000D02*
X94610000Y-131110000D01*
X94610000Y-131110000D02*
X93560000Y-131110000D01*
%TO.C,U6*%
X125690000Y-95390000D02*
X130310000Y-95390000D01*
X125690000Y-95590000D02*
X125690000Y-95390000D01*
X125690000Y-100610000D02*
X125690000Y-100410000D01*
X130310000Y-95390000D02*
X130310000Y-95590000D01*
X130310000Y-100410000D02*
X130310000Y-100610000D01*
X130310000Y-100610000D02*
X125690000Y-100610000D01*
X125050000Y-95590000D02*
X124710000Y-95120000D01*
X125390000Y-95120000D01*
X125050000Y-95590000D01*
G36*
X125050000Y-95590000D02*
G01*
X124710000Y-95120000D01*
X125390000Y-95120000D01*
X125050000Y-95590000D01*
G37*
%TO.C,J22*%
X77390000Y-155960000D02*
X77390000Y-157110000D01*
X77390000Y-157110000D02*
X78440000Y-157110000D01*
X78440000Y-157110000D02*
X78440000Y-158100000D01*
X78560000Y-153990000D02*
X83440000Y-153990000D01*
X84610000Y-155960000D02*
X84610000Y-157110000D01*
X84610000Y-157110000D02*
X83560000Y-157110000D01*
%TO.C,J31*%
X111390000Y-129960000D02*
X111390000Y-131110000D01*
X111390000Y-131110000D02*
X112440000Y-131110000D01*
X112440000Y-131110000D02*
X112440000Y-132100000D01*
X112560000Y-127990000D02*
X117440000Y-127990000D01*
X118610000Y-129960000D02*
X118610000Y-131110000D01*
X118610000Y-131110000D02*
X117560000Y-131110000D01*
%TO.C,C4*%
X116859420Y-104490000D02*
X117140580Y-104490000D01*
X116859420Y-105510000D02*
X117140580Y-105510000D01*
%TO.C,U2*%
X143690000Y-99615000D02*
X148310000Y-99615000D01*
X148310000Y-106385000D02*
X143690000Y-106385000D01*
X142140000Y-100070000D02*
X141810000Y-100310000D01*
X141810000Y-99830000D01*
X142140000Y-100070000D01*
G36*
X142140000Y-100070000D02*
G01*
X141810000Y-100310000D01*
X141810000Y-99830000D01*
X142140000Y-100070000D01*
G37*
%TO.C,R35*%
X139762742Y-101477500D02*
X140237258Y-101477500D01*
X139762742Y-102522500D02*
X140237258Y-102522500D01*
%TO.C,J34*%
X101390000Y-142960000D02*
X101390000Y-144110000D01*
X101390000Y-144110000D02*
X102440000Y-144110000D01*
X102440000Y-144110000D02*
X102440000Y-145100000D01*
X102560000Y-140990000D02*
X107440000Y-140990000D01*
X108610000Y-142960000D02*
X108610000Y-144110000D01*
X108610000Y-144110000D02*
X107560000Y-144110000D01*
%TO.C,J53*%
X135390000Y-149460000D02*
X135390000Y-150610000D01*
X135390000Y-150610000D02*
X136440000Y-150610000D01*
X136440000Y-150610000D02*
X136440000Y-151600000D01*
X136560000Y-147490000D02*
X141440000Y-147490000D01*
X142610000Y-149460000D02*
X142610000Y-150610000D01*
X142610000Y-150610000D02*
X141560000Y-150610000D01*
%TO.C,Q1*%
X83240000Y-83440000D02*
X84760000Y-83440000D01*
X83240000Y-83490000D02*
X83240000Y-83440000D01*
X83240000Y-85390000D02*
X83240000Y-84610000D01*
X83240000Y-86560000D02*
X83240000Y-86510000D01*
X84760000Y-83440000D02*
X84760000Y-84440000D01*
X84760000Y-85560000D02*
X84760000Y-86560000D01*
X84760000Y-86560000D02*
X83240000Y-86560000D01*
X82700000Y-84620000D02*
X82940000Y-84950000D01*
X82460000Y-84950000D01*
X82700000Y-84620000D01*
G36*
X82940000Y-84950000D02*
G01*
X82460000Y-84950000D01*
X82700000Y-84620000D01*
X82940000Y-84950000D01*
G37*
%TO.C,J13*%
X87390000Y-123460000D02*
X87390000Y-124610000D01*
X87390000Y-124610000D02*
X88440000Y-124610000D01*
X88440000Y-124610000D02*
X88440000Y-125600000D01*
X88560000Y-121490000D02*
X93440000Y-121490000D01*
X94610000Y-123460000D02*
X94610000Y-124610000D01*
X94610000Y-124610000D02*
X93560000Y-124610000D01*
%TO.C,R15*%
X103762742Y-84477500D02*
X104237258Y-84477500D01*
X103762742Y-85522500D02*
X104237258Y-85522500D01*
%TO.C,J48*%
X125390000Y-136460000D02*
X125390000Y-137610000D01*
X125390000Y-137610000D02*
X126440000Y-137610000D01*
X126440000Y-137610000D02*
X126440000Y-138600000D01*
X126560000Y-134490000D02*
X131440000Y-134490000D01*
X132610000Y-136460000D02*
X132610000Y-137610000D01*
X132610000Y-137610000D02*
X131560000Y-137610000D01*
%TO.C,J44*%
X125390000Y-123460000D02*
X125390000Y-124610000D01*
X125390000Y-124610000D02*
X126440000Y-124610000D01*
X126440000Y-124610000D02*
X126440000Y-125600000D01*
X126560000Y-121490000D02*
X131440000Y-121490000D01*
X132610000Y-123460000D02*
X132610000Y-124610000D01*
X132610000Y-124610000D02*
X131560000Y-124610000D01*
%TO.C,C1*%
X79859420Y-92990000D02*
X80140580Y-92990000D01*
X79859420Y-94010000D02*
X80140580Y-94010000D01*
%TO.C,R12*%
X103762742Y-81477500D02*
X104237258Y-81477500D01*
X103762742Y-82522500D02*
X104237258Y-82522500D01*
%TO.C,R34*%
X135762742Y-101477500D02*
X136237258Y-101477500D01*
X135762742Y-102522500D02*
X136237258Y-102522500D01*
%TO.C,J52*%
X125390000Y-149460000D02*
X125390000Y-150610000D01*
X125390000Y-150610000D02*
X126440000Y-150610000D01*
X126440000Y-150610000D02*
X126440000Y-151600000D01*
X126560000Y-147490000D02*
X131440000Y-147490000D01*
X132610000Y-149460000D02*
X132610000Y-150610000D01*
X132610000Y-150610000D02*
X131560000Y-150610000D01*
%TO.C,C3*%
X92859420Y-104490000D02*
X93140580Y-104490000D01*
X92859420Y-105510000D02*
X93140580Y-105510000D01*
%TO.C,L1*%
X119840000Y-83840000D02*
X124160000Y-83840000D01*
X119840000Y-88160000D02*
X119840000Y-83840000D01*
X124160000Y-83840000D02*
X124160000Y-88160000D01*
X124160000Y-88160000D02*
X119840000Y-88160000D01*
%TO.C,C9*%
X123738748Y-91265000D02*
X124261252Y-91265000D01*
X123738748Y-92735000D02*
X124261252Y-92735000D01*
%TO.C,C6*%
X133859420Y-98490000D02*
X134140580Y-98490000D01*
X133859420Y-99510000D02*
X134140580Y-99510000D01*
%TO.C,C5*%
X147859420Y-108490000D02*
X148140580Y-108490000D01*
X147859420Y-109510000D02*
X148140580Y-109510000D01*
%TO.C,R33*%
X115762742Y-101477500D02*
X116237258Y-101477500D01*
X115762742Y-102522500D02*
X116237258Y-102522500D01*
%TO.C,J2*%
X106240000Y-94350000D02*
X106240000Y-79000000D01*
X109000000Y-79000000D02*
X106240000Y-79000000D01*
X109000000Y-94350000D02*
X106240000Y-94350000D01*
X109000000Y-94350000D02*
X109000000Y-79000000D01*
X109000000Y-95620000D02*
X109000000Y-97000000D01*
X109000000Y-97000000D02*
X107620000Y-97000000D01*
%TO.C,J35*%
X111390000Y-142960000D02*
X111390000Y-144110000D01*
X111390000Y-144110000D02*
X112440000Y-144110000D01*
X112440000Y-144110000D02*
X112440000Y-145100000D01*
X112560000Y-140990000D02*
X117440000Y-140990000D01*
X118610000Y-142960000D02*
X118610000Y-144110000D01*
X118610000Y-144110000D02*
X117560000Y-144110000D01*
%TO.C,J18*%
X77390000Y-142960000D02*
X77390000Y-144110000D01*
X77390000Y-144110000D02*
X78440000Y-144110000D01*
X78440000Y-144110000D02*
X78440000Y-145100000D01*
X78560000Y-140990000D02*
X83440000Y-140990000D01*
X84610000Y-142960000D02*
X84610000Y-144110000D01*
X84610000Y-144110000D02*
X83560000Y-144110000D01*
%TO.C,J12*%
X77390000Y-123460000D02*
X77390000Y-124610000D01*
X77390000Y-124610000D02*
X78440000Y-124610000D01*
X78440000Y-124610000D02*
X78440000Y-125600000D01*
X78560000Y-121490000D02*
X83440000Y-121490000D01*
X84610000Y-123460000D02*
X84610000Y-124610000D01*
X84610000Y-124610000D02*
X83560000Y-124610000D01*
%TO.C,U3*%
X83690000Y-104965000D02*
X88310000Y-104965000D01*
X88310000Y-113035000D02*
X83690000Y-113035000D01*
X82140000Y-105420000D02*
X81810000Y-105660000D01*
X81810000Y-105180000D01*
X82140000Y-105420000D01*
G36*
X82140000Y-105420000D02*
G01*
X81810000Y-105660000D01*
X81810000Y-105180000D01*
X82140000Y-105420000D01*
G37*
%TD*%
M02*
