M48
; DRILL file KiCad 10.0.6 date 2026-10-01T23:26:31
; FORMAT={-:-/ absolute / metric / decimal}
; #@! TF.CreationDate,2026-10-01T23:26:31+08:00
; #@! TF.GenerationSoftware,Kicad,Pcbnew,10.0.6
; #@! TF.FileFunction,MixedPlating,1,4
FMAT,2
METRIC
; #@! TA.AperFunction,Plated,PTH,ViaDrill
T1C0.300
; #@! TA.AperFunction,Plated,PTH,ComponentDrill
T2C1.000
; #@! TA.AperFunction,NonPlated,NPTH,ComponentDrill
T3C2.200
%
G90
G05
T1
X76.742Y-136.672
X78.58Y-95.153
X79.0Y-132.558
X79.0Y-149.537
X80.0Y-153.053
X80.13Y-105.289
X80.379Y-97.782
X80.534Y-98.677
X80.621Y-99.461
X80.973Y-100.343
X80.973Y-101.128
X81.289Y-112.523
X81.497Y-92.439
X81.499Y-86.209
X81.875Y-93.392
X81.875Y-110.719
X81.886Y-105.289
X82.0Y-119.628
X82.0Y-139.115
X82.0Y-141.177
X82.507Y-91.503
X82.618Y-113.459
X82.881Y-99.249
X83.0Y-132.645
X83.062Y-87.764
X83.138Y-104.572
X83.807Y-151.632
X83.815Y-125.64
X84.287Y-95.153
X84.385Y-109.73
X84.781Y-110.925
X84.987Y-113.515
X85.062Y-107.615
X85.092Y-106.801
X85.501Y-137.313
X85.891Y-107.885
X86.106Y-99.905
X86.109Y-98.57
X86.269Y-102.523
X87.606Y-106.153
X87.615Y-112.432
X89.0Y-158.591
X89.089Y-136.569
X89.089Y-149.536
X89.253Y-142.879
X89.818Y-113.895
X90.0Y-155.403
X90.103Y-108.151
X90.396Y-113.21
X91.143Y-102.984
X91.25Y-105.413
X91.923Y-106.92
X92.0Y-117.047
X92.0Y-121.066
X92.0Y-130.038
X92.0Y-132.949
X92.0Y-139.129
X92.0Y-152.885
X92.275Y-108.945
X93.0Y-119.621
X93.0Y-146.232
X93.0Y-147.81
X93.0Y-156.008
X93.865Y-103.989
X94.447Y-105.984
X95.175Y-85.983
X95.851Y-111.864
X97.344Y-109.644
X97.344Y-141.177
X98.425Y-82.75
X99.763Y-110.312
X102.044Y-119.898
X102.2Y-119.15
X102.218Y-158.107
X102.4Y-120.6
X102.436Y-82.739
X102.494Y-85.813
X103.075Y-123.531
X104.0Y-153.028
X104.563Y-114.174
X104.972Y-113.393
X105.0Y-162.517
X105.6Y-122.9
X105.771Y-111.292
X105.889Y-110.54
X105.909Y-113.42
X106.0Y-130.015
X106.0Y-133.028
X106.0Y-143.036
X106.0Y-146.494
X106.0Y-156.015
X106.6Y-115.7
X107.286Y-130.015
X107.375Y-156.015
X107.805Y-158.13
X108.379Y-107.375
X108.402Y-105.574
X109.05Y-117.201
X109.199Y-146.494
X110.428Y-98.57
X110.991Y-138.045
X111.066Y-158.695
X111.563Y-111.002
X111.594Y-112.682
X112.141Y-113.297
X112.998Y-123.586
X113.0Y-162.522
X114.102Y-109.534
X114.105Y-108.174
X114.427Y-101.252
X114.474Y-113.972
X115.0Y-161.596
X116.0Y-117.007
X116.0Y-123.51
X116.0Y-126.122
X116.0Y-136.546
X116.0Y-139.314
X116.0Y-149.541
X116.0Y-156.013
X116.0Y-158.695
X116.289Y-108.276
X116.82Y-158.607
X117.175Y-108.37
X117.554Y-156.163
X117.971Y-96.084
X119.24Y-149.583
X120.686Y-109.802
X122.005Y-80.22
X122.758Y-104.179
X123.31Y-94.676
X123.86Y-97.35
X124.162Y-107.295
X124.162Y-126.443
X124.797Y-106.706
X124.797Y-150.364
X126.01Y-109.662
X126.01Y-114.365
X126.797Y-107.865
X126.797Y-113.603
X127.0Y-162.577
X129.0Y-156.019
X129.379Y-108.924
X129.64Y-107.295
X129.897Y-111.492
X130.0Y-119.801
X130.0Y-126.443
X130.0Y-143.043
X130.0Y-145.834
X130.0Y-152.161
X130.525Y-104.718
X130.535Y-86.095
X130.862Y-95.333
X130.862Y-100.668
X131.0Y-145.632
X131.0Y-158.653
X131.0Y-119.617
X131.865Y-84.238
X131.914Y-118.195
X132.39Y-108.675
X132.527Y-113.755
X132.535Y-120.582
X133.149Y-81.981
X133.309Y-144.06
X133.847Y-118.109
X133.875Y-132.639
X134.425Y-101.25
X135.063Y-108.783
X135.339Y-159.218
X135.61Y-110.996
X135.615Y-107.865
X135.617Y-111.776
X136.5Y-79.371
X136.862Y-104.744
X136.862Y-113.285
X137.0Y-162.545
X138.0Y-113.809
X138.116Y-110.387
X138.132Y-108.448
X138.428Y-101.253
X138.458Y-109.612
X138.764Y-96.687
X139.0Y-155.403
X139.829Y-146.904
X140.0Y-117.024
X140.0Y-123.546
X140.0Y-126.38
X140.0Y-132.639
X140.0Y-143.03
X140.0Y-162.546
X140.05Y-107.476
X140.765Y-158.612
X140.786Y-103.022
X140.911Y-149.537
X140.994Y-119.617
X141.885Y-102.025
X143.248Y-84.008
X143.61Y-138.19
X145.275Y-143.03
X146.054Y-102.7
X146.4Y-86.062
X147.481Y-102.874
X147.672Y-101.875
X147.675Y-125.81
X148.798Y-110.573
X148.862Y-99.412
X151.319Y-90.681
X152.0Y-86.047
T2
X92.38Y-80.38
X92.38Y-82.92
X92.38Y-85.46
X92.38Y-88.0
X92.38Y-90.54
X92.38Y-93.08
X92.38Y-95.62
X107.62Y-80.38
X107.62Y-82.92
X107.62Y-85.46
X107.62Y-88.0
X107.62Y-90.54
X107.62Y-93.08
X107.62Y-95.62
T3
X78.0Y-78.0
X78.0Y-166.0
X152.0Y-78.0
X152.0Y-166.0
M30
