M48
; DRILL file KiCad 10.0.6 date 2026-09-30T04:01:42
; FORMAT={-:-/ absolute / metric / decimal}
; #@! TF.CreationDate,2026-09-30T04:01:42+08:00
; #@! TF.GenerationSoftware,Kicad,Pcbnew,10.0.6
; #@! TF.FileFunction,Plated,1,4,PTH
FMAT,2
METRIC
; #@! TA.AperFunction,Plated,PTH,ViaDrill
T1C0.300
; #@! TA.AperFunction,Plated,PTH,ViaDrill
T2C0.400
; #@! TA.AperFunction,Plated,PTH,ComponentDrill
T3C1.000
%
G90
G05
T1
X1.305Y-30.104
X3.15Y-14.025
X3.15Y-33.025
X3.15Y-52.025
X4.037Y-55.295
X4.204Y-51.864
X4.305Y-10.004
X4.324Y-7.494
X4.514Y-44.875
X4.531Y-26.987
X4.636Y-48.963
X4.775Y-4.0
X5.246Y-41.998
X6.255Y-28.3
X7.275Y-23.0
X7.275Y-42.0
X7.549Y-45.172
X8.004Y-46.996
X8.175Y-8.728
X8.175Y-15.9
X8.175Y-34.9
X8.175Y-53.9
X9.343Y-31.021
X9.8Y-10.987
X10.089Y-25.993
X10.225Y-21.9
X10.225Y-40.9
X10.295Y-5.389
X10.38Y-49.717
X10.467Y-8.125
X10.677Y-47.184
X10.946Y-46.327
X11.047Y-12.235
X11.639Y-55.888
X11.725Y-7.4
X11.862Y-11.85
X11.862Y-15.85
X11.862Y-26.85
X11.862Y-30.85
X11.862Y-34.85
X11.862Y-45.85
X11.862Y-49.85
X11.862Y-53.85
X12.004Y-23.243
X12.561Y-54.52
X12.675Y-50.238
X12.846Y-26.573
X12.891Y-11.534
X13.017Y-15.449
X13.066Y-34.474
X13.142Y-27.431
X13.325Y-10.0
X13.325Y-14.0
X13.325Y-29.0
X13.325Y-33.0
X13.325Y-48.0
X13.325Y-52.0
X13.711Y-5.516
X13.983Y-45.755
X14.137Y-53.78
X14.366Y-34.774
X14.439Y-30.774
X14.862Y-7.85
X15.056Y-46.383
X15.225Y-3.9
X15.225Y-22.9
X15.225Y-41.9
X15.247Y-55.8
X15.362Y-23.5
X15.362Y-42.5
X15.385Y-12.799
X16.175Y-16.406
X16.225Y-5.9
X16.225Y-24.9
X16.225Y-43.9
X16.863Y-13.35
X16.863Y-32.35
X16.863Y-51.35
X17.175Y-8.9
X17.175Y-27.9
X17.175Y-46.9
X17.675Y-3.0
X17.675Y-22.0
X17.675Y-41.0
X17.725Y-15.9
X17.725Y-34.9
X17.725Y-53.9
X18.052Y-10.046
X18.462Y-2.8
X18.467Y-6.635
X18.825Y-47.74
X18.863Y-21.65
X18.863Y-25.35
X18.863Y-40.65
X18.863Y-44.35
X19.363Y-2.65
X19.363Y-6.35
X19.656Y-9.53
X19.908Y-32.273
X20.062Y-17.85
X20.062Y-36.85
X20.062Y-55.85
X20.343Y-21.306
X20.666Y-16.0
X20.675Y-8.9
X20.675Y-27.9
X20.675Y-46.9
X20.697Y-35.118
X20.725Y-7.005
X21.175Y-52.001
X21.301Y-32.866
X21.934Y-25.246
X22.325Y-42.849
X22.725Y-19.0
X22.725Y-38.0
X22.725Y-57.0
X22.811Y-4.849
X22.817Y-23.849
X23.0Y-8.794
X23.228Y-45.541
X23.493Y-31.817
X24.075Y-48.551
X24.304Y-0.818
X24.304Y-8.915
X24.869Y-37.59
X29.225Y-48.9
X29.89Y-20.408
X31.507Y-18.004
X31.924Y-26.164
X33.9Y-44.0
X33.987Y-32.305
X34.175Y-28.9
X34.658Y-51.821
X34.843Y-15.07
X35.203Y-16.494
X35.827Y-17.81
X36.841Y-33.236
X36.9Y-56.0
X37.9Y-44.0
X38.225Y-48.9
X39.825Y-27.021
X40.675Y-48.0
X45.591Y-10.734
X47.175Y-13.581
X47.175Y-52.075
X47.262Y-4.5
X47.675Y-8.9
X47.675Y-27.9
X47.675Y-46.9
X47.762Y-23.5
X47.762Y-42.5
X47.891Y-44.72
X48.062Y-17.85
X48.062Y-36.85
X48.062Y-55.85
X48.211Y-28.5
X48.362Y-2.65
X48.362Y-6.35
X48.733Y-33.233
X48.738Y-46.887
X48.862Y-21.65
X48.862Y-25.35
X48.862Y-40.65
X48.862Y-44.35
X49.325Y-6.798
X49.5Y-3.097
X49.697Y-29.732
X49.825Y-15.0
X49.825Y-34.0
X49.825Y-53.0
X49.896Y-25.011
X50.018Y-43.929
X50.25Y-8.173
X50.523Y-28.53
X50.725Y-19.0
X50.725Y-38.0
X50.725Y-57.0
X50.862Y-13.35
X50.862Y-32.35
X50.862Y-51.35
X51.175Y-8.9
X51.175Y-27.9
X51.175Y-46.9
X51.27Y-56.05
X51.505Y-47.702
X51.522Y-51.973
X51.762Y-6.95
X51.986Y-31.928
X52.164Y-21.724
X52.175Y-16.298
X52.175Y-54.034
X52.225Y-4.1
X52.225Y-25.1
X52.225Y-44.1
X52.825Y-11.533
X53.225Y-3.9
X53.225Y-22.9
X53.225Y-41.9
X53.371Y-49.64
X53.421Y-33.782
X54.225Y-9.1
X54.225Y-14.9
X54.225Y-28.1
X54.225Y-33.9
X54.225Y-47.1
X54.225Y-52.9
X54.728Y-27.462
X55.675Y-3.0
X55.675Y-22.0
X55.675Y-41.0
X55.862Y-11.85
X55.862Y-15.85
X55.862Y-26.85
X55.862Y-30.85
X55.862Y-34.85
X55.862Y-45.85
X55.862Y-49.85
X55.862Y-53.85
X56.725Y-7.4
X56.828Y-46.257
X56.919Y-31.461
X57.326Y-27.05
X58.137Y-8.181
X58.137Y-53.775
X58.225Y-21.9
X58.225Y-40.9
X58.942Y-29.146
X59.287Y-23.583
X59.307Y-43.05
X59.331Y-25.95
X59.353Y-46.852
X59.425Y-50.25
X59.459Y-11.143
X60.175Y-7.4
X60.175Y-12.022
X60.175Y-15.9
X60.175Y-23.9
X60.175Y-34.9
X60.175Y-42.9
X60.175Y-53.9
X60.175Y-55.99
X60.348Y-32.978
X60.743Y-14.082
X60.995Y-10.653
X61.825Y-45.747
X62.148Y-33.0
X63.111Y-47.976
X63.718Y-48.95
X64.43Y-6.88
X64.466Y-9.141
X64.778Y-9.976
X65.19Y-28.31
X65.675Y-28.976
X66.85Y-5.975
X66.85Y-24.975
X66.85Y-43.975
X68.027Y-48.0
T2
X4.537Y-50.424
X4.658Y-11.893
X4.683Y-30.875
X11.777Y-22.125
X13.95Y-44.0
X14.446Y-50.1
X17.825Y-38.159
X18.869Y-17.58
X21.852Y-29.372
X22.014Y-21.674
X22.256Y-51.56
X22.438Y-41.466
X22.957Y-3.799
X28.984Y-28.484
X33.5Y-40.554
X34.0Y-52.574
X41.816Y-48.165
X50.226Y-46.779
X52.453Y-35.302
X53.13Y-44.591
T3
X27.38Y-6.38
X27.38Y-8.92
X27.38Y-11.46
X27.38Y-14.0
X27.38Y-16.54
X27.38Y-19.08
X27.38Y-21.62
X42.62Y-6.38
X42.62Y-8.92
X42.62Y-11.46
X42.62Y-14.0
X42.62Y-16.54
X42.62Y-19.08
X42.62Y-21.62
M30
