%TF.GenerationSoftware,KiCad,Pcbnew,10.0.6*%
%TF.CreationDate,2026-10-01T23:26:24+08:00*%
%TF.ProjectId,PoseDoll_O22_MT6701CT,506f7365-446f-46c6-9c5f-4f32325f4d54,rev?*%
%TF.SameCoordinates,Original*%
%TF.FileFunction,Copper,L1,Top*%
%TF.FilePolarity,Positive*%
%FSLAX46Y46*%
G04 Gerber Fmt 4.6, Leading zero omitted, Abs format (unit mm)*
G04 Created by KiCad (PCBNEW 10.0.6) date 2026-10-01 23:26:24*
%MOMM*%
%LPD*%
G01*
G04 APERTURE LIST*
G04 Aperture macros list*
%AMRoundRect*
0 Rectangle with rounded corners*
0 $1 Rounding radius*
0 $2 $3 $4 $5 $6 $7 $8 $9 X,Y pos of 4 corners*
0 Add a 4 corners polygon primitive as box body*
4,1,4,$2,$3,$4,$5,$6,$7,$8,$9,$2,$3,0*
0 Add four circle primitives for the rounded corners*
1,1,$1+$1,$2,$3*
1,1,$1+$1,$4,$5*
1,1,$1+$1,$6,$7*
1,1,$1+$1,$8,$9*
0 Add four rect primitives between the rounded corners*
20,1,$1+$1,$2,$3,$4,$5,0*
20,1,$1+$1,$4,$5,$6,$7,0*
20,1,$1+$1,$6,$7,$8,$9,0*
20,1,$1+$1,$8,$9,$2,$3,0*%
G04 Aperture macros list end*
%TA.AperFunction,SMDPad,CuDef*%
%ADD10RoundRect,0.225000X-0.225000X-0.250000X0.225000X-0.250000X0.225000X0.250000X-0.225000X0.250000X0*%
%TD*%
%TA.AperFunction,SMDPad,CuDef*%
%ADD11RoundRect,0.225000X0.250000X-0.225000X0.250000X0.225000X-0.250000X0.225000X-0.250000X-0.225000X0*%
%TD*%
%TA.AperFunction,SMDPad,CuDef*%
%ADD12RoundRect,0.200000X0.275000X-0.200000X0.275000X0.200000X-0.275000X0.200000X-0.275000X-0.200000X0*%
%TD*%
%TA.AperFunction,SMDPad,CuDef*%
%ADD13R,0.850000X1.100000*%
%TD*%
%TA.AperFunction,SMDPad,CuDef*%
%ADD14RoundRect,0.150000X-0.825000X-0.150000X0.825000X-0.150000X0.825000X0.150000X-0.825000X0.150000X0*%
%TD*%
%TA.AperFunction,ViaPad*%
%ADD15C,0.600000*%
%TD*%
%TA.AperFunction,Conductor*%
%ADD16C,0.150000*%
%TD*%
G04 APERTURE END LIST*
D10*
%TO.P,C1,1*%
%TO.N,/+3V3*%
X99225000Y-96100000D03*
%TO.P,C1,2*%
%TO.N,/GND*%
X100775000Y-96100000D03*
%TD*%
D11*
%TO.P,C2,1*%
%TO.N,/+3V3*%
X95300000Y-100775000D03*
%TO.P,C2,2*%
%TO.N,/GND*%
X95300000Y-99225000D03*
%TD*%
D12*
%TO.P,R1,1*%
%TO.N,/DO_IC*%
X104650000Y-102925000D03*
%TO.P,R1,2*%
%TO.N,/DO*%
X104650000Y-101275000D03*
%TD*%
D13*
%TO.P,J1,1*%
%TO.N,/GND*%
X97460000Y-104050000D03*
%TO.P,J1,2*%
%TO.N,/+3V3*%
X98730000Y-104050000D03*
%TO.P,J1,3*%
%TO.N,/CLK*%
X100000000Y-104050000D03*
%TO.P,J1,4*%
%TO.N,/DO*%
X101270000Y-104050000D03*
%TO.P,J1,5*%
%TO.N,/CS_N*%
X102540000Y-104050000D03*
%TD*%
D12*
%TO.P,R2,1*%
%TO.N,/+3V3*%
X104650000Y-98325000D03*
%TO.P,R2,2*%
%TO.N,/CS_N*%
X104650000Y-96675000D03*
%TD*%
D14*
%TO.P,U1,1*%
%TO.N,/+3V3*%
X97525000Y-98095000D03*
%TO.P,U1,2*%
X97525000Y-99365000D03*
%TO.P,U1,3*%
%TO.N,unconnected-(U1-OUT-Pad3)*%
X97525000Y-100635000D03*
%TO.P,U1,4*%
%TO.N,/GND*%
X97525000Y-101905000D03*
%TO.P,U1,5*%
%TO.N,unconnected-(U1-PUSH-Pad5)*%
X102475000Y-101905000D03*
%TO.P,U1,6*%
%TO.N,/DO_IC*%
X102475000Y-100635000D03*
%TO.P,U1,7*%
%TO.N,/CLK*%
X102475000Y-99365000D03*
%TO.P,U1,8*%
%TO.N,/CS_N*%
X102475000Y-98095000D03*
%TD*%
D15*
%TO.N,/+3V3*%
X100900000Y-98300000D03*
X104350000Y-99300000D03*
%TO.N,/GND*%
X94700000Y-101900000D03*
X96500000Y-104050000D03*
X96050000Y-101900000D03*
X100150000Y-97050000D03*
X95300000Y-98200000D03*
%TO.N,/CS_N*%
X104000000Y-100250000D03*
X103500000Y-104300000D03*
%TD*%
%TO.N,/+3V3*%
D16*
X97550000Y-96100000D02*
X97500000Y-96100000D01*
X95300000Y-100800000D02*
X95300000Y-100850000D01*
X98500000Y-104050000D02*
X98550000Y-104050000D01*
X98550000Y-104050000D02*
X98600000Y-104050000D01*
X98350000Y-96100000D02*
X98300000Y-96100000D01*
X95400000Y-103200000D02*
X95450000Y-103200000D01*
X95850000Y-100000000D02*
X95800000Y-100000000D01*
X99900000Y-98300000D02*
X99950000Y-98300000D01*
X97500000Y-97400000D02*
X97500000Y-97450000D01*
X99200000Y-97200000D02*
X99200000Y-97250000D01*
X97800000Y-103200000D02*
X97850000Y-103200000D01*
X98200000Y-103200000D02*
X98200000Y-103250000D01*
X95300000Y-103050000D02*
X95300000Y-103100000D01*
X97500000Y-98400000D02*
X97500000Y-98450000D01*
X97500000Y-98200000D02*
X97500000Y-98250000D01*
X98200000Y-103750000D02*
X98200000Y-103800000D01*
X95300000Y-102250000D02*
X95300000Y-102300000D01*
X97500000Y-99000000D02*
X97500000Y-99050000D01*
X97750000Y-96100000D02*
X97700000Y-96100000D01*
X104350000Y-98300000D02*
X104400000Y-98300000D01*
X97500000Y-99300000D02*
X97500000Y-99350000D01*
X95300000Y-100700000D02*
X95300000Y-100750000D01*
X97500000Y-99350000D02*
X97450000Y-99350000D01*
X99400000Y-98300000D02*
X99450000Y-98300000D01*
X98950000Y-96100000D02*
X98900000Y-96100000D01*
X99200000Y-97900000D02*
X99200000Y-97950000D01*
X96050000Y-99850000D02*
X96050000Y-99900000D01*
X97500000Y-96700000D02*
X97500000Y-96750000D01*
X96500000Y-103200000D02*
X96550000Y-103200000D01*
X97500000Y-98900000D02*
X97500000Y-98950000D01*
X99300000Y-98300000D02*
X99350000Y-98300000D01*
X97500000Y-98600000D02*
X97500000Y-98650000D01*
X97150000Y-103200000D02*
X97200000Y-103200000D01*
X99100000Y-96100000D02*
X99050000Y-96100000D01*
X97500000Y-103200000D02*
X97550000Y-103200000D01*
X95300000Y-101500000D02*
X95300000Y-101550000D01*
X99200000Y-96650000D02*
X99200000Y-96700000D01*
X99200000Y-97550000D02*
X99200000Y-97600000D01*
X104350000Y-98400000D02*
X104350000Y-98350000D01*
X100450000Y-98300000D02*
X100500000Y-98300000D01*
X98700000Y-96100000D02*
X98650000Y-96100000D01*
X95300000Y-102650000D02*
X95300000Y-102700000D01*
X95300000Y-100100000D02*
X95300000Y-100150000D01*
X97300000Y-99350000D02*
X97250000Y-99350000D01*
X95300000Y-100250000D02*
X95300000Y-100300000D01*
X99200000Y-96300000D02*
X99200000Y-96350000D01*
X97500000Y-98550000D02*
X97500000Y-98600000D01*
X97500000Y-96850000D02*
X97500000Y-96900000D01*
X104350000Y-98550000D02*
X104350000Y-98500000D01*
X100750000Y-98300000D02*
X100800000Y-98300000D01*
X100500000Y-98300000D02*
X100550000Y-98300000D01*
X96300000Y-99350000D02*
X96250000Y-99350000D01*
X104550000Y-98300000D02*
X104600000Y-98300000D01*
X97500000Y-98350000D02*
X97500000Y-98400000D01*
X97500000Y-98800000D02*
X97500000Y-98850000D01*
X99200000Y-97000000D02*
X99200000Y-97050000D01*
X97950000Y-103200000D02*
X98000000Y-103200000D01*
X104350000Y-99150000D02*
X104350000Y-99100000D01*
X96750000Y-99350000D02*
X96700000Y-99350000D01*
X95300000Y-100300000D02*
X95300000Y-100350000D01*
X98200000Y-103350000D02*
X98200000Y-103400000D01*
X97500000Y-98750000D02*
X97500000Y-98800000D01*
X98450000Y-96100000D02*
X98400000Y-96100000D01*
X96600000Y-103200000D02*
X96650000Y-103200000D01*
X95300000Y-103000000D02*
X95300000Y-103050000D01*
X95300000Y-101750000D02*
X95300000Y-101800000D01*
X96050000Y-99800000D02*
X96050000Y-99850000D01*
X96050000Y-99400000D02*
X96050000Y-99450000D01*
X97450000Y-99350000D02*
X97400000Y-99350000D01*
X97200000Y-99350000D02*
X97150000Y-99350000D01*
X99200000Y-98250000D02*
X99200000Y-98300000D01*
X98650000Y-96100000D02*
X98600000Y-96100000D01*
X99200000Y-96700000D02*
X99200000Y-96750000D01*
X95500000Y-100000000D02*
X95450000Y-100000000D01*
X99200000Y-96600000D02*
X99200000Y-96650000D01*
X99200000Y-96450000D02*
X99200000Y-96500000D01*
X99200000Y-96500000D02*
X99200000Y-96550000D01*
X96900000Y-99350000D02*
X96850000Y-99350000D01*
X97500000Y-98300000D02*
X97500000Y-98350000D01*
X96550000Y-99350000D02*
X96500000Y-99350000D01*
X95300000Y-101900000D02*
X95300000Y-101950000D01*
X95300000Y-102750000D02*
X95300000Y-102800000D01*
X97250000Y-99350000D02*
X97200000Y-99350000D01*
X99150000Y-96100000D02*
X99100000Y-96100000D01*
X97500000Y-96250000D02*
X97500000Y-96300000D01*
X98650000Y-104050000D02*
X98700000Y-104050000D01*
X99200000Y-96250000D02*
X99200000Y-96300000D01*
X97500000Y-96150000D02*
X97500000Y-96200000D01*
X98400000Y-96100000D02*
X98350000Y-96100000D01*
X97500000Y-97750000D02*
X97500000Y-97800000D01*
X98900000Y-96100000D02*
X98850000Y-96100000D01*
X97500000Y-98700000D02*
X97500000Y-98750000D01*
X95300000Y-100050000D02*
X95300000Y-100100000D01*
X97500000Y-98500000D02*
X97500000Y-98550000D01*
X99200000Y-97500000D02*
X99200000Y-97550000D01*
X104350000Y-98650000D02*
X104350000Y-98600000D01*
X104350000Y-99200000D02*
X104350000Y-99150000D01*
X96050000Y-99950000D02*
X96050000Y-100000000D01*
X104650000Y-98300000D02*
X104650000Y-98325000D01*
X99200000Y-97300000D02*
X99200000Y-97350000D01*
X98200000Y-103700000D02*
X98200000Y-103750000D01*
X97500000Y-96100000D02*
X97500000Y-96150000D01*
X95300000Y-101050000D02*
X95300000Y-101100000D01*
X95300000Y-101550000D02*
X95300000Y-101600000D01*
X98150000Y-103200000D02*
X98200000Y-103200000D01*
X104350000Y-98850000D02*
X104350000Y-98800000D01*
X96000000Y-103200000D02*
X96050000Y-103200000D01*
X95300000Y-101600000D02*
X95300000Y-101650000D01*
X97500000Y-98000000D02*
X97500000Y-98050000D01*
X97500000Y-96900000D02*
X97500000Y-96950000D01*
X99700000Y-98300000D02*
X99750000Y-98300000D01*
X104350000Y-99050000D02*
X104350000Y-99000000D01*
X98000000Y-103200000D02*
X98050000Y-103200000D01*
X96400000Y-99350000D02*
X96350000Y-99350000D01*
X99200000Y-97050000D02*
X99200000Y-97100000D01*
X95300000Y-101700000D02*
X95300000Y-101750000D01*
X97900000Y-103200000D02*
X97950000Y-103200000D01*
X104350000Y-98500000D02*
X104350000Y-98450000D01*
X98350000Y-104050000D02*
X98400000Y-104050000D01*
X95300000Y-101950000D02*
X95300000Y-102000000D01*
X97500000Y-98100000D02*
X97500000Y-98150000D01*
X97500000Y-98850000D02*
X97500000Y-98900000D01*
X95300000Y-100450000D02*
X95300000Y-100500000D01*
X95300000Y-101200000D02*
X95300000Y-101250000D01*
X96450000Y-99350000D02*
X96400000Y-99350000D01*
X97500000Y-97150000D02*
X97500000Y-97200000D01*
X95800000Y-103200000D02*
X95850000Y-103200000D01*
X97800000Y-96100000D02*
X97750000Y-96100000D01*
X97500000Y-99200000D02*
X97500000Y-99250000D01*
X104350000Y-98800000D02*
X104350000Y-98750000D01*
X95650000Y-103200000D02*
X95700000Y-103200000D01*
X98200000Y-104050000D02*
X98250000Y-104050000D01*
X99200000Y-97250000D02*
X99200000Y-97300000D01*
X97450000Y-103200000D02*
X97500000Y-103200000D01*
X97900000Y-96100000D02*
X97850000Y-96100000D01*
X95300000Y-100750000D02*
X95300000Y-100800000D01*
X95750000Y-103200000D02*
X95800000Y-103200000D01*
X97300000Y-103200000D02*
X97350000Y-103200000D01*
X98200000Y-103450000D02*
X98200000Y-103500000D01*
X95300000Y-100200000D02*
X95300000Y-100250000D01*
X99600000Y-98300000D02*
X99650000Y-98300000D01*
X97500000Y-97950000D02*
X97500000Y-98000000D01*
X97500000Y-97900000D02*
X97500000Y-97950000D01*
X100550000Y-98300000D02*
X100600000Y-98300000D01*
X95650000Y-100000000D02*
X95600000Y-100000000D01*
X96650000Y-99350000D02*
X96600000Y-99350000D01*
X104350000Y-98600000D02*
X104350000Y-98550000D01*
X104350000Y-98350000D02*
X104350000Y-98300000D01*
X97100000Y-103200000D02*
X97150000Y-103200000D01*
X96050000Y-99550000D02*
X96050000Y-99600000D01*
X97500000Y-98650000D02*
X97500000Y-98700000D01*
X99250000Y-98300000D02*
X99300000Y-98300000D01*
X99550000Y-98300000D02*
X99600000Y-98300000D01*
X95500000Y-103200000D02*
X95550000Y-103200000D01*
X98200000Y-103600000D02*
X98200000Y-103650000D01*
X95300000Y-100850000D02*
X95300000Y-100900000D01*
X97700000Y-96100000D02*
X97650000Y-96100000D01*
X95300000Y-103150000D02*
X95300000Y-103200000D01*
X97500000Y-96300000D02*
X97500000Y-96350000D01*
X95300000Y-102600000D02*
X95300000Y-102650000D01*
X95300000Y-102450000D02*
X95300000Y-102500000D01*
X95300000Y-102500000D02*
X95300000Y-102550000D01*
X95350000Y-103200000D02*
X95400000Y-103200000D01*
X96050000Y-103200000D02*
X96100000Y-103200000D01*
X98450000Y-104050000D02*
X98500000Y-104050000D01*
X97500000Y-96600000D02*
X97500000Y-96650000D01*
X96050000Y-99600000D02*
X96050000Y-99650000D01*
X97500000Y-96400000D02*
X97500000Y-96450000D01*
X97500000Y-96800000D02*
X97500000Y-96850000D01*
X98200000Y-103550000D02*
X98200000Y-103600000D01*
X99650000Y-98300000D02*
X99700000Y-98300000D01*
X98750000Y-104050000D02*
X98730000Y-104050000D01*
X95350000Y-100000000D02*
X95300000Y-100000000D01*
X97500000Y-97100000D02*
X97500000Y-97150000D01*
X96900000Y-103200000D02*
X96950000Y-103200000D01*
X95300000Y-103100000D02*
X95300000Y-103150000D01*
X97000000Y-99350000D02*
X96950000Y-99350000D01*
X96000000Y-100000000D02*
X95950000Y-100000000D01*
X95550000Y-100000000D02*
X95500000Y-100000000D01*
X97500000Y-96650000D02*
X97500000Y-96700000D01*
X97500000Y-96200000D02*
X97500000Y-96250000D01*
X95300000Y-101450000D02*
X95300000Y-101500000D01*
X95300000Y-100600000D02*
X95300000Y-100650000D01*
X99200000Y-98300000D02*
X99250000Y-98300000D01*
X97525000Y-99365000D02*
X97500000Y-99350000D01*
X98150000Y-96100000D02*
X98100000Y-96100000D01*
X96200000Y-103200000D02*
X96250000Y-103200000D01*
X99500000Y-98300000D02*
X99550000Y-98300000D01*
X97200000Y-103200000D02*
X97250000Y-103200000D01*
X95300000Y-102400000D02*
X95300000Y-102450000D01*
X98200000Y-103800000D02*
X98200000Y-103850000D01*
X97650000Y-96100000D02*
X97600000Y-96100000D01*
X99200000Y-97750000D02*
X99200000Y-97800000D01*
X97500000Y-98150000D02*
X97500000Y-98200000D01*
X99200000Y-96200000D02*
X99200000Y-96250000D01*
X99200000Y-96800000D02*
X99200000Y-96850000D01*
X95300000Y-101000000D02*
X95300000Y-101050000D01*
X95300000Y-100000000D02*
X95300000Y-100050000D01*
X97400000Y-103200000D02*
X97450000Y-103200000D01*
X95300000Y-101100000D02*
X95300000Y-101150000D01*
X99200000Y-96150000D02*
X99200000Y-96200000D01*
X100800000Y-98300000D02*
X100850000Y-98300000D01*
X95300000Y-102200000D02*
X95300000Y-102250000D01*
X99200000Y-96100000D02*
X99150000Y-96100000D01*
X98200000Y-103850000D02*
X98200000Y-103900000D01*
X96300000Y-103200000D02*
X96350000Y-103200000D01*
X95300000Y-100400000D02*
X95300000Y-100450000D01*
X100850000Y-98300000D02*
X100900000Y-98300000D01*
X99200000Y-97150000D02*
X99200000Y-97200000D01*
X97500000Y-97550000D02*
X97500000Y-97600000D01*
X99950000Y-98300000D02*
X100000000Y-98300000D01*
X95400000Y-100000000D02*
X95350000Y-100000000D01*
X96150000Y-99350000D02*
X96100000Y-99350000D01*
X97600000Y-103200000D02*
X97650000Y-103200000D01*
X98100000Y-96100000D02*
X98050000Y-96100000D01*
X96250000Y-103200000D02*
X96300000Y-103200000D01*
X98500000Y-96100000D02*
X98450000Y-96100000D01*
X96100000Y-103200000D02*
X96150000Y-103200000D01*
X97500000Y-96550000D02*
X97500000Y-96600000D01*
X100050000Y-98300000D02*
X100100000Y-98300000D01*
X97500000Y-96750000D02*
X97500000Y-96800000D01*
X95450000Y-100000000D02*
X95400000Y-100000000D01*
X97500000Y-97850000D02*
X97500000Y-97900000D01*
X96050000Y-100000000D02*
X96000000Y-100000000D01*
X97500000Y-97250000D02*
X97500000Y-97300000D01*
X97750000Y-103200000D02*
X97800000Y-103200000D01*
X97500000Y-99250000D02*
X97500000Y-99300000D01*
X99200000Y-96350000D02*
X99200000Y-96400000D01*
X99200000Y-96100000D02*
X99200000Y-96150000D01*
X100600000Y-98300000D02*
X100650000Y-98300000D01*
X97050000Y-99350000D02*
X97000000Y-99350000D01*
X97500000Y-99050000D02*
X97500000Y-99100000D01*
X95300000Y-100650000D02*
X95300000Y-100700000D01*
X99200000Y-98200000D02*
X99200000Y-98250000D01*
X99200000Y-97950000D02*
X99200000Y-98000000D01*
X98300000Y-104050000D02*
X98350000Y-104050000D01*
X96500000Y-99350000D02*
X96450000Y-99350000D01*
X99000000Y-96100000D02*
X98950000Y-96100000D01*
X98100000Y-103200000D02*
X98150000Y-103200000D01*
X95300000Y-101800000D02*
X95300000Y-101850000D01*
X97700000Y-103200000D02*
X97750000Y-103200000D01*
X95950000Y-103200000D02*
X96000000Y-103200000D01*
X96150000Y-103200000D02*
X96200000Y-103200000D01*
X98200000Y-103900000D02*
X98200000Y-103950000D01*
X98250000Y-96100000D02*
X98200000Y-96100000D01*
X97500000Y-98250000D02*
X97500000Y-98300000D01*
X98600000Y-104050000D02*
X98650000Y-104050000D01*
X99200000Y-97400000D02*
X99200000Y-97450000D01*
X97525000Y-98095000D02*
X97500000Y-98100000D01*
X95300000Y-100900000D02*
X95300000Y-100950000D01*
X97100000Y-99350000D02*
X97050000Y-99350000D01*
X98750000Y-96100000D02*
X98700000Y-96100000D01*
X95300000Y-101400000D02*
X95300000Y-101450000D01*
X95300000Y-100800000D02*
X95300000Y-100775000D01*
X96600000Y-99350000D02*
X96550000Y-99350000D01*
X99750000Y-98300000D02*
X99800000Y-98300000D01*
X97850000Y-103200000D02*
X97900000Y-103200000D01*
X96400000Y-103200000D02*
X96450000Y-103200000D01*
X98200000Y-104000000D02*
X98200000Y-104050000D01*
X100200000Y-98300000D02*
X100250000Y-98300000D01*
X96050000Y-99450000D02*
X96050000Y-99500000D01*
X95300000Y-100950000D02*
X95300000Y-101000000D01*
X97500000Y-98950000D02*
X97500000Y-99000000D01*
X95300000Y-101850000D02*
X95300000Y-101900000D01*
X95850000Y-103200000D02*
X95900000Y-103200000D01*
X95300000Y-102350000D02*
X95300000Y-102400000D01*
X104400000Y-98300000D02*
X104450000Y-98300000D01*
X97500000Y-96350000D02*
X97500000Y-96400000D01*
X98200000Y-96100000D02*
X98150000Y-96100000D01*
X104350000Y-99300000D02*
X104350000Y-99250000D01*
X98400000Y-104050000D02*
X98450000Y-104050000D01*
X104450000Y-98300000D02*
X104500000Y-98300000D01*
X98200000Y-103250000D02*
X98200000Y-103300000D01*
X95300000Y-100150000D02*
X95300000Y-100200000D01*
X96350000Y-99350000D02*
X96300000Y-99350000D01*
X96350000Y-103200000D02*
X96400000Y-103200000D01*
X98600000Y-96100000D02*
X98550000Y-96100000D01*
X99200000Y-98050000D02*
X99200000Y-98100000D01*
X97500000Y-96500000D02*
X97500000Y-96550000D01*
X99200000Y-97700000D02*
X99200000Y-97750000D01*
X100100000Y-98300000D02*
X100150000Y-98300000D01*
X95300000Y-102550000D02*
X95300000Y-102600000D01*
X96050000Y-99350000D02*
X96050000Y-99400000D01*
X96050000Y-99900000D02*
X96050000Y-99950000D01*
X104350000Y-98950000D02*
X104350000Y-98900000D01*
X99850000Y-98300000D02*
X99900000Y-98300000D01*
X95900000Y-100000000D02*
X95850000Y-100000000D01*
X99200000Y-97650000D02*
X99200000Y-97700000D01*
X95750000Y-100000000D02*
X95700000Y-100000000D01*
X96700000Y-103200000D02*
X96750000Y-103200000D01*
X99050000Y-96100000D02*
X99000000Y-96100000D01*
X95300000Y-100350000D02*
X95300000Y-100400000D01*
X97650000Y-103200000D02*
X97700000Y-103200000D01*
X99200000Y-96400000D02*
X99200000Y-96450000D01*
X95450000Y-103200000D02*
X95500000Y-103200000D01*
X95700000Y-103200000D02*
X95750000Y-103200000D01*
X98550000Y-96100000D02*
X98500000Y-96100000D01*
X95300000Y-102050000D02*
X95300000Y-102100000D01*
X97500000Y-99150000D02*
X97500000Y-99200000D01*
X99350000Y-98300000D02*
X99400000Y-98300000D01*
X104350000Y-99000000D02*
X104350000Y-98950000D01*
X95300000Y-102150000D02*
X95300000Y-102200000D01*
X95700000Y-100000000D02*
X95650000Y-100000000D01*
X95300000Y-101350000D02*
X95300000Y-101400000D01*
X96850000Y-103200000D02*
X96900000Y-103200000D01*
X100250000Y-98300000D02*
X100300000Y-98300000D01*
X97500000Y-97000000D02*
X97500000Y-97050000D01*
X95300000Y-101650000D02*
X95300000Y-101700000D01*
X99450000Y-98300000D02*
X99500000Y-98300000D01*
X97400000Y-99350000D02*
X97350000Y-99350000D01*
X97950000Y-96100000D02*
X97900000Y-96100000D01*
X97600000Y-96100000D02*
X97550000Y-96100000D01*
X99200000Y-96750000D02*
X99200000Y-96800000D01*
X99200000Y-96900000D02*
X99200000Y-96950000D01*
X100000000Y-98300000D02*
X100050000Y-98300000D01*
X97500000Y-97450000D02*
X97500000Y-97500000D01*
X95300000Y-102800000D02*
X95300000Y-102850000D01*
X95300000Y-102950000D02*
X95300000Y-103000000D01*
X97250000Y-103200000D02*
X97300000Y-103200000D01*
X98800000Y-96100000D02*
X98750000Y-96100000D01*
X97500000Y-97200000D02*
X97500000Y-97250000D01*
X96050000Y-99700000D02*
X96050000Y-99750000D01*
X97500000Y-96950000D02*
X97500000Y-97000000D01*
X98300000Y-96100000D02*
X98250000Y-96100000D01*
X104350000Y-98450000D02*
X104350000Y-98400000D01*
X97500000Y-97350000D02*
X97500000Y-97400000D01*
X96450000Y-103200000D02*
X96500000Y-103200000D01*
X95300000Y-102000000D02*
X95300000Y-102050000D01*
X100300000Y-98300000D02*
X100350000Y-98300000D01*
X97500000Y-97800000D02*
X97500000Y-97850000D01*
X97000000Y-103200000D02*
X97050000Y-103200000D01*
X95600000Y-103200000D02*
X95650000Y-103200000D01*
X95800000Y-100000000D02*
X95750000Y-100000000D01*
X98050000Y-96100000D02*
X98000000Y-96100000D01*
X96050000Y-99750000D02*
X96050000Y-99800000D01*
X95300000Y-102300000D02*
X95300000Y-102350000D01*
X95600000Y-100000000D02*
X95550000Y-100000000D01*
X95300000Y-100500000D02*
X95300000Y-100550000D01*
X97500000Y-96450000D02*
X97500000Y-96500000D01*
X104350000Y-98750000D02*
X104350000Y-98700000D01*
X95300000Y-103200000D02*
X95350000Y-103200000D01*
X95300000Y-101300000D02*
X95300000Y-101350000D01*
X96100000Y-99350000D02*
X96050000Y-99350000D01*
X96650000Y-103200000D02*
X96700000Y-103200000D01*
X97500000Y-98050000D02*
X97500000Y-98100000D01*
X97500000Y-97300000D02*
X97500000Y-97350000D01*
X97150000Y-99350000D02*
X97100000Y-99350000D01*
X100350000Y-98300000D02*
X100400000Y-98300000D01*
X98200000Y-103400000D02*
X98200000Y-103450000D01*
X99225000Y-96100000D02*
X99200000Y-96100000D01*
X96250000Y-99350000D02*
X96200000Y-99350000D01*
X99200000Y-96950000D02*
X99200000Y-97000000D01*
X96800000Y-103200000D02*
X96850000Y-103200000D01*
X97500000Y-98450000D02*
X97500000Y-98500000D01*
X97850000Y-96100000D02*
X97800000Y-96100000D01*
X96950000Y-99350000D02*
X96900000Y-99350000D01*
X98250000Y-104050000D02*
X98300000Y-104050000D01*
X99200000Y-97850000D02*
X99200000Y-97900000D01*
X95300000Y-102100000D02*
X95300000Y-102150000D01*
X97350000Y-103200000D02*
X97400000Y-103200000D01*
X104350000Y-99100000D02*
X104350000Y-99050000D01*
X96050000Y-99650000D02*
X96050000Y-99700000D01*
X98850000Y-96100000D02*
X98800000Y-96100000D01*
X99200000Y-96850000D02*
X99200000Y-96900000D01*
X99200000Y-98100000D02*
X99200000Y-98150000D01*
X98200000Y-103950000D02*
X98200000Y-104000000D01*
X98200000Y-103650000D02*
X98200000Y-103700000D01*
X95300000Y-102900000D02*
X95300000Y-102950000D01*
X99200000Y-96550000D02*
X99200000Y-96600000D01*
X96550000Y-103200000D02*
X96600000Y-103200000D01*
X104350000Y-98900000D02*
X104350000Y-98850000D01*
X99200000Y-98000000D02*
X99200000Y-98050000D01*
X96850000Y-99350000D02*
X96800000Y-99350000D01*
X95300000Y-101250000D02*
X95300000Y-101300000D01*
X98200000Y-103300000D02*
X98200000Y-103350000D01*
X97500000Y-97050000D02*
X97500000Y-97100000D01*
X99200000Y-97800000D02*
X99200000Y-97850000D01*
X100650000Y-98300000D02*
X100700000Y-98300000D01*
X99200000Y-97450000D02*
X99200000Y-97500000D01*
X95300000Y-102850000D02*
X95300000Y-102900000D01*
X104500000Y-98300000D02*
X104550000Y-98300000D01*
X97500000Y-99350000D02*
X97525000Y-99365000D01*
X95550000Y-103200000D02*
X95600000Y-103200000D01*
X97350000Y-99350000D02*
X97300000Y-99350000D01*
X99225000Y-96100000D02*
X99200000Y-96100000D01*
X99800000Y-98300000D02*
X99850000Y-98300000D01*
X100400000Y-98300000D02*
X100450000Y-98300000D01*
X95900000Y-103200000D02*
X95950000Y-103200000D01*
X95950000Y-100000000D02*
X95900000Y-100000000D01*
X97500000Y-97500000D02*
X97500000Y-97550000D01*
X97500000Y-98100000D02*
X97525000Y-98095000D01*
X100150000Y-98300000D02*
X100200000Y-98300000D01*
X99200000Y-97350000D02*
X99200000Y-97400000D01*
X99200000Y-98150000D02*
X99200000Y-98200000D01*
X104350000Y-99250000D02*
X104350000Y-99200000D01*
X96700000Y-99350000D02*
X96650000Y-99350000D01*
X96200000Y-99350000D02*
X96150000Y-99350000D01*
X95300000Y-101150000D02*
X95300000Y-101200000D01*
X99200000Y-97100000D02*
X99200000Y-97150000D01*
X97500000Y-97650000D02*
X97500000Y-97700000D01*
X96800000Y-99350000D02*
X96750000Y-99350000D01*
X98200000Y-103500000D02*
X98200000Y-103550000D01*
X104600000Y-98300000D02*
X104650000Y-98300000D01*
X95300000Y-100775000D02*
X95300000Y-100800000D01*
X96950000Y-103200000D02*
X97000000Y-103200000D01*
X97500000Y-97600000D02*
X97500000Y-97650000D01*
X98050000Y-103200000D02*
X98100000Y-103200000D01*
X97500000Y-97700000D02*
X97500000Y-97750000D01*
X97500000Y-99100000D02*
X97500000Y-99150000D01*
X97550000Y-103200000D02*
X97600000Y-103200000D01*
X95300000Y-102700000D02*
X95300000Y-102750000D01*
X95300000Y-100550000D02*
X95300000Y-100600000D01*
X98000000Y-96100000D02*
X97950000Y-96100000D01*
X100700000Y-98300000D02*
X100750000Y-98300000D01*
X104350000Y-98700000D02*
X104350000Y-98650000D01*
X98700000Y-104050000D02*
X98750000Y-104050000D01*
X96750000Y-103200000D02*
X96800000Y-103200000D01*
X99200000Y-97600000D02*
X99200000Y-97650000D01*
X96050000Y-99500000D02*
X96050000Y-99550000D01*
X97050000Y-103200000D02*
X97100000Y-103200000D01*
%TO.N,/GND*%
X94500000Y-101550000D02*
X94500000Y-101600000D01*
X96550000Y-101900000D02*
X96600000Y-101900000D01*
X94800000Y-100000000D02*
X94750000Y-100000000D01*
X100650000Y-96100000D02*
X100600000Y-96100000D01*
X96350000Y-101900000D02*
X96400000Y-101900000D01*
X94500000Y-100600000D02*
X94500000Y-100650000D01*
X94850000Y-100000000D02*
X94800000Y-100000000D01*
X94500000Y-101350000D02*
X94500000Y-101400000D01*
X95300000Y-98650000D02*
X95300000Y-98700000D01*
X97100000Y-101900000D02*
X97050000Y-101900000D01*
X97500000Y-101900000D02*
X97450000Y-101900000D01*
X95300000Y-98500000D02*
X95300000Y-98550000D01*
X95300000Y-99000000D02*
X95300000Y-99050000D01*
X97050000Y-101900000D02*
X97100000Y-101900000D01*
X94500000Y-100950000D02*
X94500000Y-101000000D01*
X97150000Y-101900000D02*
X97200000Y-101900000D01*
X95300000Y-99650000D02*
X95250000Y-99650000D01*
X97150000Y-104050000D02*
X97200000Y-104050000D01*
X96650000Y-101900000D02*
X96700000Y-101900000D01*
X96100000Y-101900000D02*
X96050000Y-101900000D01*
X96650000Y-101900000D02*
X96600000Y-101900000D01*
X94600000Y-100000000D02*
X94550000Y-100000000D01*
X97350000Y-104050000D02*
X97400000Y-104050000D01*
X95300000Y-98350000D02*
X95300000Y-98400000D01*
X96700000Y-101900000D02*
X96650000Y-101900000D01*
X95050000Y-99650000D02*
X95000000Y-99650000D01*
X94500000Y-100850000D02*
X94500000Y-100900000D01*
X94500000Y-101200000D02*
X94500000Y-101250000D01*
X94500000Y-100350000D02*
X94500000Y-100400000D01*
X96400000Y-101900000D02*
X96450000Y-101900000D01*
X100150000Y-96700000D02*
X100150000Y-96750000D01*
X96450000Y-101900000D02*
X96500000Y-101900000D01*
X97300000Y-104050000D02*
X97350000Y-104050000D01*
X100150000Y-96300000D02*
X100150000Y-96350000D01*
X94500000Y-101700000D02*
X94500000Y-101750000D01*
X96950000Y-104050000D02*
X97000000Y-104050000D01*
X94500000Y-101050000D02*
X94500000Y-101100000D01*
X94500000Y-101600000D02*
X94500000Y-101650000D01*
X96450000Y-101900000D02*
X96400000Y-101900000D01*
X94500000Y-100700000D02*
X94500000Y-100750000D01*
X94950000Y-99800000D02*
X94950000Y-99850000D01*
X94500000Y-101300000D02*
X94500000Y-101350000D01*
X94500000Y-101100000D02*
X94500000Y-101150000D01*
X95300000Y-99250000D02*
X95300000Y-99300000D01*
X96750000Y-101900000D02*
X96800000Y-101900000D01*
X96500000Y-101900000D02*
X96550000Y-101900000D01*
X94500000Y-101850000D02*
X94500000Y-101900000D01*
X95300000Y-99200000D02*
X95300000Y-99225000D01*
X97200000Y-101900000D02*
X97250000Y-101900000D01*
X97350000Y-101900000D02*
X97400000Y-101900000D01*
X100150000Y-96150000D02*
X100150000Y-96200000D01*
X94900000Y-100000000D02*
X94850000Y-100000000D01*
X96600000Y-101900000D02*
X96550000Y-101900000D01*
X95100000Y-99650000D02*
X95050000Y-99650000D01*
X94500000Y-100050000D02*
X94500000Y-100100000D01*
X97100000Y-101900000D02*
X97150000Y-101900000D01*
X94500000Y-101650000D02*
X94500000Y-101700000D01*
X97250000Y-104050000D02*
X97300000Y-104050000D01*
X96500000Y-101900000D02*
X96450000Y-101900000D01*
X100150000Y-96950000D02*
X100150000Y-97000000D01*
X100400000Y-96100000D02*
X100350000Y-96100000D01*
X96500000Y-104050000D02*
X96550000Y-104050000D01*
X97400000Y-101900000D02*
X97450000Y-101900000D01*
X96250000Y-101900000D02*
X96300000Y-101900000D01*
X96100000Y-101900000D02*
X96150000Y-101900000D01*
X96550000Y-104050000D02*
X96600000Y-104050000D01*
X95300000Y-99400000D02*
X95300000Y-99450000D01*
X94500000Y-100250000D02*
X94500000Y-100300000D01*
X96900000Y-104050000D02*
X96950000Y-104050000D01*
X96200000Y-101900000D02*
X96150000Y-101900000D01*
X100150000Y-96600000D02*
X100150000Y-96650000D01*
X96050000Y-101900000D02*
X96100000Y-101900000D01*
X97450000Y-101900000D02*
X97500000Y-101900000D01*
X97300000Y-101900000D02*
X97250000Y-101900000D01*
X100150000Y-96800000D02*
X100150000Y-96850000D01*
X94750000Y-100000000D02*
X94700000Y-100000000D01*
X94950000Y-100000000D02*
X94900000Y-100000000D01*
X100550000Y-96100000D02*
X100500000Y-96100000D01*
X96150000Y-101900000D02*
X96200000Y-101900000D01*
X100150000Y-96500000D02*
X100150000Y-96550000D01*
X95300000Y-99200000D02*
X95300000Y-99250000D01*
X94500000Y-101400000D02*
X94500000Y-101450000D01*
X96800000Y-104050000D02*
X96850000Y-104050000D01*
X100150000Y-97000000D02*
X100150000Y-97050000D01*
X95300000Y-99550000D02*
X95300000Y-99600000D01*
X100150000Y-96100000D02*
X100150000Y-96150000D01*
X95300000Y-99300000D02*
X95300000Y-99350000D01*
X95000000Y-99650000D02*
X94950000Y-99650000D01*
X97250000Y-101900000D02*
X97200000Y-101900000D01*
X100150000Y-96200000D02*
X100150000Y-96250000D01*
X97000000Y-101900000D02*
X97050000Y-101900000D01*
X97100000Y-104050000D02*
X97150000Y-104050000D01*
X94500000Y-101250000D02*
X94500000Y-101300000D01*
X94500000Y-100800000D02*
X94500000Y-100850000D01*
X96150000Y-101900000D02*
X96100000Y-101900000D01*
X97250000Y-101900000D02*
X97300000Y-101900000D01*
X100750000Y-96100000D02*
X100700000Y-96100000D01*
X94950000Y-99900000D02*
X94950000Y-99950000D01*
X95300000Y-98850000D02*
X95300000Y-98900000D01*
X95300000Y-99600000D02*
X95300000Y-99650000D01*
X100250000Y-96100000D02*
X100200000Y-96100000D01*
X97525000Y-101905000D02*
X97500000Y-101900000D01*
X94500000Y-100450000D02*
X94500000Y-100500000D01*
X94500000Y-100300000D02*
X94500000Y-100350000D01*
X95300000Y-99050000D02*
X95300000Y-99100000D01*
X96850000Y-101900000D02*
X96800000Y-101900000D01*
X94500000Y-100650000D02*
X94500000Y-100700000D01*
X94500000Y-101450000D02*
X94500000Y-101500000D01*
X95300000Y-98400000D02*
X95300000Y-98450000D01*
X95300000Y-98550000D02*
X95300000Y-98600000D01*
X95300000Y-99450000D02*
X95300000Y-99500000D01*
X100150000Y-96250000D02*
X100150000Y-96300000D01*
X97200000Y-104050000D02*
X97250000Y-104050000D01*
X94500000Y-101500000D02*
X94500000Y-101550000D01*
X96950000Y-101900000D02*
X97000000Y-101900000D01*
X100200000Y-96100000D02*
X100150000Y-96100000D01*
X95300000Y-98300000D02*
X95300000Y-98350000D01*
X94500000Y-101900000D02*
X94550000Y-101900000D01*
X97050000Y-101900000D02*
X97000000Y-101900000D01*
X95200000Y-99650000D02*
X95150000Y-99650000D01*
X95300000Y-98900000D02*
X95300000Y-98950000D01*
X95300000Y-98200000D02*
X95300000Y-98250000D01*
X100150000Y-96550000D02*
X100150000Y-96600000D01*
X100150000Y-96400000D02*
X100150000Y-96450000D01*
X94550000Y-101900000D02*
X94600000Y-101900000D01*
X100150000Y-96450000D02*
X100150000Y-96500000D01*
X95300000Y-98950000D02*
X95300000Y-99000000D01*
X96700000Y-101900000D02*
X96750000Y-101900000D01*
X97150000Y-101900000D02*
X97100000Y-101900000D01*
X100600000Y-96100000D02*
X100550000Y-96100000D01*
X94950000Y-99700000D02*
X94950000Y-99750000D01*
X97350000Y-101900000D02*
X97300000Y-101900000D01*
X96600000Y-101900000D02*
X96650000Y-101900000D01*
X97200000Y-101900000D02*
X97150000Y-101900000D01*
X96800000Y-101900000D02*
X96850000Y-101900000D01*
X96850000Y-104050000D02*
X96900000Y-104050000D01*
X97000000Y-101900000D02*
X96950000Y-101900000D01*
X94500000Y-101150000D02*
X94500000Y-101200000D01*
X94500000Y-100500000D02*
X94500000Y-100550000D01*
X94950000Y-99950000D02*
X94950000Y-100000000D01*
X100150000Y-96650000D02*
X100150000Y-96700000D01*
X96550000Y-101900000D02*
X96500000Y-101900000D01*
X94500000Y-100900000D02*
X94500000Y-100950000D01*
X100150000Y-96900000D02*
X100150000Y-96950000D01*
X96750000Y-104050000D02*
X96800000Y-104050000D01*
X94500000Y-100550000D02*
X94500000Y-100600000D01*
X94550000Y-100000000D02*
X94500000Y-100000000D01*
X96650000Y-104050000D02*
X96700000Y-104050000D01*
X96300000Y-101900000D02*
X96350000Y-101900000D01*
X100800000Y-96100000D02*
X100750000Y-96100000D01*
X95300000Y-99100000D02*
X95300000Y-99150000D01*
X100450000Y-96100000D02*
X100400000Y-96100000D01*
X96250000Y-101900000D02*
X96200000Y-101900000D01*
X100150000Y-96750000D02*
X100150000Y-96800000D01*
X100700000Y-96100000D02*
X100650000Y-96100000D01*
X94500000Y-101750000D02*
X94500000Y-101800000D01*
X95300000Y-98800000D02*
X95300000Y-98850000D01*
X97450000Y-104050000D02*
X97460000Y-104050000D01*
X96900000Y-101900000D02*
X96950000Y-101900000D01*
X94950000Y-99650000D02*
X94950000Y-99700000D01*
X96900000Y-101900000D02*
X96850000Y-101900000D01*
X94500000Y-100400000D02*
X94500000Y-100450000D01*
X95250000Y-99650000D02*
X95200000Y-99650000D01*
X97000000Y-104050000D02*
X97050000Y-104050000D01*
X95300000Y-99225000D02*
X95300000Y-99200000D01*
X94500000Y-100150000D02*
X94500000Y-100200000D01*
X96800000Y-101900000D02*
X96750000Y-101900000D01*
X96750000Y-101900000D02*
X96700000Y-101900000D01*
X94650000Y-100000000D02*
X94600000Y-100000000D01*
X100350000Y-96100000D02*
X100300000Y-96100000D01*
X94500000Y-100000000D02*
X94500000Y-100050000D01*
X95300000Y-99500000D02*
X95300000Y-99550000D01*
X96350000Y-101900000D02*
X96300000Y-101900000D01*
X94500000Y-100200000D02*
X94500000Y-100250000D01*
X96300000Y-101900000D02*
X96250000Y-101900000D01*
X95300000Y-99350000D02*
X95300000Y-99400000D01*
X94700000Y-100000000D02*
X94650000Y-100000000D01*
X97450000Y-101900000D02*
X97400000Y-101900000D01*
X96400000Y-101900000D02*
X96350000Y-101900000D01*
X97500000Y-101900000D02*
X97525000Y-101905000D01*
X100150000Y-96350000D02*
X100150000Y-96400000D01*
X97300000Y-101900000D02*
X97350000Y-101900000D01*
X100775000Y-96100000D02*
X100800000Y-96100000D01*
X95300000Y-98700000D02*
X95300000Y-98750000D01*
X100150000Y-96850000D02*
X100150000Y-96900000D01*
X95300000Y-98600000D02*
X95300000Y-98650000D01*
X94500000Y-100750000D02*
X94500000Y-100800000D01*
X95300000Y-98450000D02*
X95300000Y-98500000D01*
X96950000Y-101900000D02*
X96900000Y-101900000D01*
X94950000Y-99850000D02*
X94950000Y-99900000D01*
X96700000Y-104050000D02*
X96750000Y-104050000D01*
X95150000Y-99650000D02*
X95100000Y-99650000D01*
X95300000Y-98750000D02*
X95300000Y-98800000D01*
X96600000Y-104050000D02*
X96650000Y-104050000D01*
X94650000Y-101900000D02*
X94700000Y-101900000D01*
X95300000Y-98250000D02*
X95300000Y-98300000D01*
X97050000Y-104050000D02*
X97100000Y-104050000D01*
X94600000Y-101900000D02*
X94650000Y-101900000D01*
X94950000Y-99750000D02*
X94950000Y-99800000D01*
X94500000Y-101800000D02*
X94500000Y-101850000D01*
X97400000Y-104050000D02*
X97450000Y-104050000D01*
X100300000Y-96100000D02*
X100250000Y-96100000D01*
X97400000Y-101900000D02*
X97350000Y-101900000D01*
X96200000Y-101900000D02*
X96250000Y-101900000D01*
X100500000Y-96100000D02*
X100450000Y-96100000D01*
X94500000Y-101000000D02*
X94500000Y-101050000D01*
X95300000Y-99150000D02*
X95300000Y-99200000D01*
X94500000Y-100100000D02*
X94500000Y-100150000D01*
X96850000Y-101900000D02*
X96900000Y-101900000D01*
%TO.N,/DO_IC*%
X104600000Y-102900000D02*
X104550000Y-102900000D01*
X103750000Y-101300000D02*
X103700000Y-101300000D01*
X103000000Y-101300000D02*
X102950000Y-101300000D01*
X102450000Y-100850000D02*
X102450000Y-100800000D01*
X103800000Y-102900000D02*
X103750000Y-102900000D01*
X103750000Y-101550000D02*
X103750000Y-101500000D01*
X103750000Y-101900000D02*
X103750000Y-101850000D01*
X102850000Y-101300000D02*
X102800000Y-101300000D01*
X102450000Y-100900000D02*
X102450000Y-100850000D01*
X104450000Y-102900000D02*
X104400000Y-102900000D01*
X103750000Y-101800000D02*
X103750000Y-101750000D01*
X103750000Y-101350000D02*
X103750000Y-101300000D01*
X104650000Y-102925000D02*
X104650000Y-102900000D01*
X103750000Y-102200000D02*
X103750000Y-102150000D01*
X103750000Y-102050000D02*
X103750000Y-102000000D01*
X103150000Y-101300000D02*
X103100000Y-101300000D01*
X103750000Y-102700000D02*
X103750000Y-102650000D01*
X104350000Y-102900000D02*
X104300000Y-102900000D01*
X102900000Y-101300000D02*
X102850000Y-101300000D01*
X103850000Y-102900000D02*
X103800000Y-102900000D01*
X103750000Y-102800000D02*
X103750000Y-102750000D01*
X103300000Y-101300000D02*
X103250000Y-101300000D01*
X104550000Y-102900000D02*
X104500000Y-102900000D01*
X103750000Y-101600000D02*
X103750000Y-101550000D01*
X103450000Y-101300000D02*
X103400000Y-101300000D01*
X104250000Y-102900000D02*
X104200000Y-102900000D01*
X102450000Y-100950000D02*
X102450000Y-100900000D01*
X103750000Y-102650000D02*
X103750000Y-102600000D01*
X102750000Y-101300000D02*
X102700000Y-101300000D01*
X103750000Y-101450000D02*
X103750000Y-101400000D01*
X102600000Y-101300000D02*
X102550000Y-101300000D01*
X104000000Y-102900000D02*
X103950000Y-102900000D01*
X103100000Y-101300000D02*
X103050000Y-101300000D01*
X104050000Y-102900000D02*
X104000000Y-102900000D01*
X103400000Y-101300000D02*
X103350000Y-101300000D01*
X102800000Y-101300000D02*
X102750000Y-101300000D01*
X102500000Y-101300000D02*
X102450000Y-101300000D01*
X103500000Y-101300000D02*
X103450000Y-101300000D01*
X103750000Y-102600000D02*
X103750000Y-102550000D01*
X103750000Y-102450000D02*
X103750000Y-102400000D01*
X102450000Y-101200000D02*
X102450000Y-101150000D01*
X102450000Y-101250000D02*
X102450000Y-101200000D01*
X102450000Y-101050000D02*
X102450000Y-101000000D01*
X103700000Y-101300000D02*
X103650000Y-101300000D01*
X102550000Y-101300000D02*
X102500000Y-101300000D01*
X102450000Y-100700000D02*
X102450000Y-100650000D01*
X103250000Y-101300000D02*
X103200000Y-101300000D01*
X103750000Y-102900000D02*
X103750000Y-102850000D01*
X104300000Y-102900000D02*
X104250000Y-102900000D01*
X102450000Y-101100000D02*
X102450000Y-101050000D01*
X102450000Y-100650000D02*
X102475000Y-100635000D01*
X102650000Y-101300000D02*
X102600000Y-101300000D01*
X102450000Y-101000000D02*
X102450000Y-100950000D01*
X103950000Y-102900000D02*
X103900000Y-102900000D01*
X103750000Y-102750000D02*
X103750000Y-102700000D01*
X103750000Y-102550000D02*
X103750000Y-102500000D01*
X104150000Y-102900000D02*
X104100000Y-102900000D01*
X103050000Y-101300000D02*
X103000000Y-101300000D01*
X103350000Y-101300000D02*
X103300000Y-101300000D01*
X103750000Y-102300000D02*
X103750000Y-102250000D01*
X102450000Y-101300000D02*
X102450000Y-101250000D01*
X103750000Y-101950000D02*
X103750000Y-101900000D01*
X104500000Y-102900000D02*
X104450000Y-102900000D01*
X103650000Y-101300000D02*
X103600000Y-101300000D01*
X103750000Y-102250000D02*
X103750000Y-102200000D01*
X104100000Y-102900000D02*
X104050000Y-102900000D01*
X103600000Y-101300000D02*
X103550000Y-101300000D01*
X102950000Y-101300000D02*
X102900000Y-101300000D01*
X103750000Y-101750000D02*
X103750000Y-101700000D01*
X102450000Y-100800000D02*
X102450000Y-100750000D01*
X102700000Y-101300000D02*
X102650000Y-101300000D01*
X103750000Y-101700000D02*
X103750000Y-101650000D01*
X103200000Y-101300000D02*
X103150000Y-101300000D01*
X103550000Y-101300000D02*
X103500000Y-101300000D01*
X103750000Y-102400000D02*
X103750000Y-102350000D01*
X102450000Y-101150000D02*
X102450000Y-101100000D01*
X102450000Y-100750000D02*
X102450000Y-100700000D01*
X104650000Y-102900000D02*
X104600000Y-102900000D01*
X103750000Y-101650000D02*
X103750000Y-101600000D01*
X103900000Y-102900000D02*
X103850000Y-102900000D01*
X103750000Y-102350000D02*
X103750000Y-102300000D01*
X103750000Y-101850000D02*
X103750000Y-101800000D01*
X103750000Y-101500000D02*
X103750000Y-101450000D01*
X103750000Y-102100000D02*
X103750000Y-102050000D01*
X103750000Y-102000000D02*
X103750000Y-101950000D01*
X103750000Y-102850000D02*
X103750000Y-102800000D01*
X104400000Y-102900000D02*
X104350000Y-102900000D01*
X103750000Y-102150000D02*
X103750000Y-102100000D01*
X103750000Y-102500000D02*
X103750000Y-102450000D01*
X103750000Y-101400000D02*
X103750000Y-101350000D01*
X104200000Y-102900000D02*
X104150000Y-102900000D01*
%TO.N,/DO*%
X105350000Y-103650000D02*
X105350000Y-103700000D01*
X104650000Y-101900000D02*
X104650000Y-101950000D01*
X101650000Y-103200000D02*
X101600000Y-103200000D01*
X102750000Y-103200000D02*
X102700000Y-103200000D01*
X104650000Y-101500000D02*
X104650000Y-101550000D01*
X104650000Y-101800000D02*
X104650000Y-101850000D01*
X105350000Y-103550000D02*
X105350000Y-103600000D01*
X105200000Y-102150000D02*
X105250000Y-102150000D01*
X101250000Y-103350000D02*
X101250000Y-103400000D01*
X103050000Y-103200000D02*
X103000000Y-103200000D01*
X103900000Y-103700000D02*
X103850000Y-103700000D01*
X103300000Y-103550000D02*
X103300000Y-103500000D01*
X105250000Y-102150000D02*
X105300000Y-102150000D01*
X102650000Y-103200000D02*
X102600000Y-103200000D01*
X101250000Y-103300000D02*
X101250000Y-103350000D01*
X104200000Y-103700000D02*
X104150000Y-103700000D01*
X105350000Y-103050000D02*
X105350000Y-103100000D01*
X103300000Y-103500000D02*
X103300000Y-103450000D01*
X105350000Y-103150000D02*
X105350000Y-103200000D01*
X101450000Y-103200000D02*
X101400000Y-103200000D01*
X102850000Y-103200000D02*
X102800000Y-103200000D01*
X104700000Y-103700000D02*
X104650000Y-103700000D01*
X105350000Y-102150000D02*
X105350000Y-102200000D01*
X101300000Y-103200000D02*
X101250000Y-103200000D01*
X103150000Y-103200000D02*
X103100000Y-103200000D01*
X103550000Y-103700000D02*
X103500000Y-103700000D01*
X105050000Y-103700000D02*
X105000000Y-103700000D01*
X105350000Y-103450000D02*
X105350000Y-103500000D01*
X105350000Y-102500000D02*
X105350000Y-102550000D01*
X101250000Y-103900000D02*
X101250000Y-103950000D01*
X103650000Y-103700000D02*
X103600000Y-103700000D01*
X104800000Y-102150000D02*
X104850000Y-102150000D01*
X101600000Y-103200000D02*
X101550000Y-103200000D01*
X105350000Y-102350000D02*
X105350000Y-102400000D01*
X101250000Y-103700000D02*
X101250000Y-103750000D01*
X105000000Y-102150000D02*
X105050000Y-102150000D01*
X105350000Y-103350000D02*
X105350000Y-103400000D01*
X101700000Y-103200000D02*
X101650000Y-103200000D01*
X103450000Y-103700000D02*
X103400000Y-103700000D01*
X104750000Y-102150000D02*
X104800000Y-102150000D01*
X105150000Y-102150000D02*
X105200000Y-102150000D01*
X105350000Y-102550000D02*
X105350000Y-102600000D01*
X103300000Y-103200000D02*
X103250000Y-103200000D01*
X104650000Y-102150000D02*
X104700000Y-102150000D01*
X105350000Y-102450000D02*
X105350000Y-102500000D01*
X102100000Y-103200000D02*
X102050000Y-103200000D01*
X104550000Y-103700000D02*
X104500000Y-103700000D01*
X102150000Y-103200000D02*
X102100000Y-103200000D01*
X101850000Y-103200000D02*
X101800000Y-103200000D01*
X104650000Y-101700000D02*
X104650000Y-101750000D01*
X104650000Y-101650000D02*
X104650000Y-101700000D01*
X102700000Y-103200000D02*
X102650000Y-103200000D01*
X102800000Y-103200000D02*
X102750000Y-103200000D01*
X101250000Y-103550000D02*
X101250000Y-103600000D01*
X101750000Y-103200000D02*
X101700000Y-103200000D01*
X104650000Y-103700000D02*
X104600000Y-103700000D01*
X105350000Y-103500000D02*
X105350000Y-103550000D01*
X105350000Y-103600000D02*
X105350000Y-103650000D01*
X104650000Y-101400000D02*
X104650000Y-101450000D01*
X104650000Y-101600000D02*
X104650000Y-101650000D01*
X103300000Y-103450000D02*
X103300000Y-103400000D01*
X103300000Y-103600000D02*
X103300000Y-103550000D01*
X101250000Y-103650000D02*
X101250000Y-103700000D01*
X101250000Y-103850000D02*
X101250000Y-103900000D01*
X104650000Y-101275000D02*
X104650000Y-101300000D01*
X104650000Y-101750000D02*
X104650000Y-101800000D01*
X102250000Y-103200000D02*
X102200000Y-103200000D01*
X101900000Y-103200000D02*
X101850000Y-103200000D01*
X102550000Y-103200000D02*
X102500000Y-103200000D01*
X103750000Y-103700000D02*
X103700000Y-103700000D01*
X105150000Y-103700000D02*
X105100000Y-103700000D01*
X104950000Y-103700000D02*
X104900000Y-103700000D01*
X104050000Y-103700000D02*
X104000000Y-103700000D01*
X105350000Y-103250000D02*
X105350000Y-103300000D01*
X105350000Y-103400000D02*
X105350000Y-103450000D01*
X104100000Y-103700000D02*
X104050000Y-103700000D01*
X104650000Y-101850000D02*
X104650000Y-101900000D01*
X104000000Y-103700000D02*
X103950000Y-103700000D01*
X105100000Y-103700000D02*
X105050000Y-103700000D01*
X105350000Y-102800000D02*
X105350000Y-102850000D01*
X102300000Y-103200000D02*
X102250000Y-103200000D01*
X103100000Y-103200000D02*
X103050000Y-103200000D01*
X102000000Y-103200000D02*
X101950000Y-103200000D01*
X104600000Y-103700000D02*
X104550000Y-103700000D01*
X104850000Y-102150000D02*
X104900000Y-102150000D01*
X105100000Y-102150000D02*
X105150000Y-102150000D01*
X101250000Y-103200000D02*
X101250000Y-103250000D01*
X103800000Y-103700000D02*
X103750000Y-103700000D01*
X105350000Y-103000000D02*
X105350000Y-103050000D01*
X101250000Y-103950000D02*
X101250000Y-104000000D01*
X105350000Y-103300000D02*
X105350000Y-103350000D01*
X101550000Y-103200000D02*
X101500000Y-103200000D01*
X103500000Y-103700000D02*
X103450000Y-103700000D01*
X104350000Y-103700000D02*
X104300000Y-103700000D01*
X101400000Y-103200000D02*
X101350000Y-103200000D01*
X105300000Y-103700000D02*
X105250000Y-103700000D01*
X103250000Y-103200000D02*
X103200000Y-103200000D01*
X104150000Y-103700000D02*
X104100000Y-103700000D01*
X104650000Y-102100000D02*
X104650000Y-102150000D01*
X104400000Y-103700000D02*
X104350000Y-103700000D01*
X101250000Y-104050000D02*
X101270000Y-104050000D01*
X102900000Y-103200000D02*
X102850000Y-103200000D01*
X101500000Y-103200000D02*
X101450000Y-103200000D01*
X105050000Y-102150000D02*
X105100000Y-102150000D01*
X103350000Y-103700000D02*
X103300000Y-103700000D01*
X103000000Y-103200000D02*
X102950000Y-103200000D01*
X101350000Y-103200000D02*
X101300000Y-103200000D01*
X105350000Y-102850000D02*
X105350000Y-102900000D01*
X104650000Y-101550000D02*
X104650000Y-101600000D01*
X105350000Y-102400000D02*
X105350000Y-102450000D01*
X104650000Y-101350000D02*
X104650000Y-101400000D01*
X103700000Y-103700000D02*
X103650000Y-103700000D01*
X101800000Y-103200000D02*
X101750000Y-103200000D01*
X101250000Y-103450000D02*
X101250000Y-103500000D01*
X104700000Y-102150000D02*
X104750000Y-102150000D01*
X104650000Y-101950000D02*
X104650000Y-102000000D01*
X101250000Y-103750000D02*
X101250000Y-103800000D01*
X104900000Y-102150000D02*
X104950000Y-102150000D01*
X105350000Y-103200000D02*
X105350000Y-103250000D01*
X101250000Y-103800000D02*
X101250000Y-103850000D01*
X105300000Y-102150000D02*
X105350000Y-102150000D01*
X101950000Y-103200000D02*
X101900000Y-103200000D01*
X103850000Y-103700000D02*
X103800000Y-103700000D01*
X104650000Y-102050000D02*
X104650000Y-102100000D01*
X105350000Y-102900000D02*
X105350000Y-102950000D01*
X105350000Y-102200000D02*
X105350000Y-102250000D01*
X104750000Y-103700000D02*
X104700000Y-103700000D01*
X101250000Y-104000000D02*
X101250000Y-104050000D01*
X102600000Y-103200000D02*
X102550000Y-103200000D01*
X103300000Y-103650000D02*
X103300000Y-103600000D01*
X105350000Y-102650000D02*
X105350000Y-102700000D01*
X103600000Y-103700000D02*
X103550000Y-103700000D01*
X104950000Y-102150000D02*
X105000000Y-102150000D01*
X103300000Y-103700000D02*
X103300000Y-103650000D01*
X103950000Y-103700000D02*
X103900000Y-103700000D01*
X104850000Y-103700000D02*
X104800000Y-103700000D01*
X104650000Y-101450000D02*
X104650000Y-101500000D01*
X102500000Y-103200000D02*
X102450000Y-103200000D01*
X104250000Y-103700000D02*
X104200000Y-103700000D01*
X105350000Y-102600000D02*
X105350000Y-102650000D01*
X102350000Y-103200000D02*
X102300000Y-103200000D01*
X101250000Y-103400000D02*
X101250000Y-103450000D01*
X105350000Y-102250000D02*
X105350000Y-102300000D01*
X105350000Y-102750000D02*
X105350000Y-102800000D01*
X101250000Y-103250000D02*
X101250000Y-103300000D01*
X105350000Y-103100000D02*
X105350000Y-103150000D01*
X103300000Y-103350000D02*
X103300000Y-103300000D01*
X105350000Y-102950000D02*
X105350000Y-103000000D01*
X101250000Y-103500000D02*
X101250000Y-103550000D01*
X104650000Y-101300000D02*
X104650000Y-101350000D01*
X102050000Y-103200000D02*
X102000000Y-103200000D01*
X104800000Y-103700000D02*
X104750000Y-103700000D01*
X101250000Y-103600000D02*
X101250000Y-103650000D01*
X103300000Y-103300000D02*
X103300000Y-103250000D01*
X105350000Y-103700000D02*
X105300000Y-103700000D01*
X104500000Y-103700000D02*
X104450000Y-103700000D01*
X104900000Y-103700000D02*
X104850000Y-103700000D01*
X102200000Y-103200000D02*
X102150000Y-103200000D01*
X103300000Y-103400000D02*
X103300000Y-103350000D01*
X105350000Y-102300000D02*
X105350000Y-102350000D01*
X102450000Y-103200000D02*
X102400000Y-103200000D01*
X103200000Y-103200000D02*
X103150000Y-103200000D01*
X105350000Y-102700000D02*
X105350000Y-102750000D01*
X104300000Y-103700000D02*
X104250000Y-103700000D01*
X105000000Y-103700000D02*
X104950000Y-103700000D01*
X102950000Y-103200000D02*
X102900000Y-103200000D01*
X103400000Y-103700000D02*
X103350000Y-103700000D01*
X104650000Y-102000000D02*
X104650000Y-102050000D01*
X105250000Y-103700000D02*
X105200000Y-103700000D01*
X103300000Y-103250000D02*
X103300000Y-103200000D01*
X105200000Y-103700000D02*
X105150000Y-103700000D01*
X104450000Y-103700000D02*
X104400000Y-103700000D01*
X102400000Y-103200000D02*
X102350000Y-103200000D01*
%TO.N,/CLK*%
X100000000Y-103400000D02*
X100000000Y-103350000D01*
X100000000Y-102500000D02*
X100000000Y-102450000D01*
X100000000Y-101100000D02*
X100000000Y-101050000D01*
X101400000Y-99350000D02*
X101450000Y-99350000D01*
X101600000Y-99350000D02*
X101650000Y-99350000D01*
X100000000Y-101650000D02*
X100000000Y-101600000D01*
X100000000Y-100250000D02*
X100000000Y-100200000D01*
X100000000Y-99450000D02*
X100000000Y-99400000D01*
X102400000Y-99350000D02*
X102450000Y-99350000D01*
X100000000Y-102800000D02*
X100000000Y-102750000D01*
X100000000Y-103550000D02*
X100000000Y-103500000D01*
X100000000Y-100150000D02*
X100000000Y-100100000D01*
X100000000Y-101400000D02*
X100000000Y-101350000D01*
X100000000Y-103800000D02*
X100000000Y-103750000D01*
X100000000Y-99350000D02*
X100050000Y-99350000D01*
X101650000Y-99350000D02*
X101700000Y-99350000D01*
X100000000Y-102350000D02*
X100000000Y-102300000D01*
X100000000Y-102100000D02*
X100000000Y-102050000D01*
X101050000Y-99350000D02*
X101100000Y-99350000D01*
X102200000Y-99350000D02*
X102250000Y-99350000D01*
X101500000Y-99350000D02*
X101550000Y-99350000D01*
X100000000Y-103450000D02*
X100000000Y-103400000D01*
X100000000Y-102050000D02*
X100000000Y-102000000D01*
X100050000Y-99350000D02*
X100100000Y-99350000D01*
X100000000Y-101700000D02*
X100000000Y-101650000D01*
X100000000Y-102250000D02*
X100000000Y-102200000D01*
X100000000Y-102450000D02*
X100000000Y-102400000D01*
X100000000Y-103850000D02*
X100000000Y-103800000D01*
X100000000Y-102600000D02*
X100000000Y-102550000D01*
X100000000Y-100750000D02*
X100000000Y-100700000D01*
X100000000Y-101250000D02*
X100000000Y-101200000D01*
X100000000Y-100100000D02*
X100000000Y-100050000D01*
X100000000Y-101000000D02*
X100000000Y-100950000D01*
X100000000Y-103100000D02*
X100000000Y-103050000D01*
X101750000Y-99350000D02*
X101800000Y-99350000D01*
X100000000Y-103700000D02*
X100000000Y-103650000D01*
X102350000Y-99350000D02*
X102400000Y-99350000D01*
X100000000Y-103300000D02*
X100000000Y-103250000D01*
X100000000Y-101950000D02*
X100000000Y-101900000D01*
X100000000Y-100300000D02*
X100000000Y-100250000D01*
X100000000Y-102650000D02*
X100000000Y-102600000D01*
X100000000Y-102400000D02*
X100000000Y-102350000D01*
X100000000Y-104050000D02*
X100000000Y-104000000D01*
X100250000Y-99350000D02*
X100300000Y-99350000D01*
X100000000Y-101300000D02*
X100000000Y-101250000D01*
X100000000Y-104000000D02*
X100000000Y-103950000D01*
X100600000Y-99350000D02*
X100650000Y-99350000D01*
X100350000Y-99350000D02*
X100400000Y-99350000D01*
X100000000Y-102850000D02*
X100000000Y-102800000D01*
X100000000Y-101500000D02*
X100000000Y-101450000D01*
X100000000Y-100600000D02*
X100000000Y-100550000D01*
X100000000Y-100800000D02*
X100000000Y-100750000D01*
X100000000Y-102300000D02*
X100000000Y-102250000D01*
X102250000Y-99350000D02*
X102300000Y-99350000D01*
X100000000Y-103650000D02*
X100000000Y-103600000D01*
X100400000Y-99350000D02*
X100450000Y-99350000D01*
X100000000Y-103750000D02*
X100000000Y-103700000D01*
X100000000Y-100550000D02*
X100000000Y-100500000D01*
X100000000Y-100450000D02*
X100000000Y-100400000D01*
X100000000Y-102200000D02*
X100000000Y-102150000D01*
X100000000Y-101600000D02*
X100000000Y-101550000D01*
X100000000Y-99400000D02*
X100000000Y-99350000D01*
X100000000Y-99900000D02*
X100000000Y-99850000D01*
X100700000Y-99350000D02*
X100750000Y-99350000D01*
X100000000Y-99700000D02*
X100000000Y-99650000D01*
X100000000Y-99500000D02*
X100000000Y-99450000D01*
X101700000Y-99350000D02*
X101750000Y-99350000D01*
X101300000Y-99350000D02*
X101350000Y-99350000D01*
X101550000Y-99350000D02*
X101600000Y-99350000D01*
X100000000Y-102000000D02*
X100000000Y-101950000D01*
X101250000Y-99350000D02*
X101300000Y-99350000D01*
X100500000Y-99350000D02*
X100550000Y-99350000D01*
X100100000Y-99350000D02*
X100150000Y-99350000D01*
X101450000Y-99350000D02*
X101500000Y-99350000D01*
X100000000Y-101050000D02*
X100000000Y-101000000D01*
X100000000Y-99950000D02*
X100000000Y-99900000D01*
X100000000Y-100650000D02*
X100000000Y-100600000D01*
X100000000Y-100200000D02*
X100000000Y-100150000D01*
X100000000Y-100700000D02*
X100000000Y-100650000D01*
X102100000Y-99350000D02*
X102150000Y-99350000D01*
X100000000Y-102950000D02*
X100000000Y-102900000D01*
X100000000Y-101150000D02*
X100000000Y-101100000D01*
X100000000Y-100400000D02*
X100000000Y-100350000D01*
X101100000Y-99350000D02*
X101150000Y-99350000D01*
X100000000Y-101850000D02*
X100000000Y-101800000D01*
X102450000Y-99350000D02*
X102475000Y-99365000D01*
X102000000Y-99350000D02*
X102050000Y-99350000D01*
X100000000Y-103050000D02*
X100000000Y-103000000D01*
X100000000Y-102750000D02*
X100000000Y-102700000D01*
X100750000Y-99350000D02*
X100800000Y-99350000D01*
X102050000Y-99350000D02*
X102100000Y-99350000D01*
X100000000Y-102550000D02*
X100000000Y-102500000D01*
X100450000Y-99350000D02*
X100500000Y-99350000D01*
X100000000Y-103950000D02*
X100000000Y-103900000D01*
X100000000Y-101900000D02*
X100000000Y-101850000D01*
X100000000Y-102700000D02*
X100000000Y-102650000D01*
X101150000Y-99350000D02*
X101200000Y-99350000D01*
X100800000Y-99350000D02*
X100850000Y-99350000D01*
X102150000Y-99350000D02*
X102200000Y-99350000D01*
X100000000Y-101750000D02*
X100000000Y-101700000D01*
X101900000Y-99350000D02*
X101950000Y-99350000D01*
X100000000Y-99800000D02*
X100000000Y-99750000D01*
X101350000Y-99350000D02*
X101400000Y-99350000D01*
X100000000Y-100900000D02*
X100000000Y-100850000D01*
X100000000Y-101200000D02*
X100000000Y-101150000D01*
X100000000Y-100850000D02*
X100000000Y-100800000D01*
X100000000Y-103900000D02*
X100000000Y-103850000D01*
X102300000Y-99350000D02*
X102350000Y-99350000D01*
X100200000Y-99350000D02*
X100250000Y-99350000D01*
X100000000Y-100350000D02*
X100000000Y-100300000D01*
X100000000Y-99850000D02*
X100000000Y-99800000D01*
X100000000Y-103350000D02*
X100000000Y-103300000D01*
X100000000Y-99600000D02*
X100000000Y-99550000D01*
X101950000Y-99350000D02*
X102000000Y-99350000D01*
X101800000Y-99350000D02*
X101850000Y-99350000D01*
X100550000Y-99350000D02*
X100600000Y-99350000D01*
X100000000Y-101800000D02*
X100000000Y-101750000D01*
X100150000Y-99350000D02*
X100200000Y-99350000D01*
X100000000Y-99550000D02*
X100000000Y-99500000D01*
X100950000Y-99350000D02*
X101000000Y-99350000D01*
X100300000Y-99350000D02*
X100350000Y-99350000D01*
X100000000Y-100050000D02*
X100000000Y-100000000D01*
X101000000Y-99350000D02*
X101050000Y-99350000D01*
X100650000Y-99350000D02*
X100700000Y-99350000D01*
X100000000Y-101450000D02*
X100000000Y-101400000D01*
X100000000Y-101550000D02*
X100000000Y-101500000D01*
X100000000Y-101350000D02*
X100000000Y-101300000D01*
X100000000Y-99650000D02*
X100000000Y-99600000D01*
X100000000Y-103200000D02*
X100000000Y-103150000D01*
X100000000Y-100000000D02*
X100000000Y-99950000D01*
X100000000Y-100950000D02*
X100000000Y-100900000D01*
X100000000Y-103000000D02*
X100000000Y-102950000D01*
X100000000Y-103250000D02*
X100000000Y-103200000D01*
X101850000Y-99350000D02*
X101900000Y-99350000D01*
X100850000Y-99350000D02*
X100900000Y-99350000D01*
X100000000Y-102150000D02*
X100000000Y-102100000D01*
X100900000Y-99350000D02*
X100950000Y-99350000D01*
X100000000Y-102900000D02*
X100000000Y-102850000D01*
X100000000Y-103500000D02*
X100000000Y-103450000D01*
X101200000Y-99350000D02*
X101250000Y-99350000D01*
X100000000Y-103600000D02*
X100000000Y-103550000D01*
X100000000Y-100500000D02*
X100000000Y-100450000D01*
X100000000Y-99750000D02*
X100000000Y-99700000D01*
X100000000Y-103150000D02*
X100000000Y-103100000D01*
%TO.N,/CS_N*%
X102450000Y-98600000D02*
X102450000Y-98550000D01*
X102450000Y-96700000D02*
X102450000Y-96650000D01*
X103300000Y-98750000D02*
X103250000Y-98750000D01*
X102550000Y-104150000D02*
X102550000Y-104200000D01*
X103350000Y-98750000D02*
X103300000Y-98750000D01*
X102450000Y-97000000D02*
X102450000Y-96950000D01*
X103750000Y-100150000D02*
X103750000Y-100100000D01*
X104350000Y-96650000D02*
X104400000Y-96650000D01*
X102450000Y-97950000D02*
X102450000Y-97900000D01*
X102550000Y-98750000D02*
X102500000Y-98750000D01*
X102800000Y-104300000D02*
X102850000Y-104300000D01*
X103750000Y-100000000D02*
X103750000Y-99950000D01*
X104650000Y-96650000D02*
X104650000Y-96675000D01*
X103850000Y-96650000D02*
X103900000Y-96650000D01*
X104550000Y-96650000D02*
X104600000Y-96650000D01*
X104100000Y-96650000D02*
X104150000Y-96650000D01*
X102700000Y-104300000D02*
X102750000Y-104300000D01*
X103200000Y-98750000D02*
X103150000Y-98750000D01*
X103550000Y-96650000D02*
X103600000Y-96650000D01*
X103100000Y-98750000D02*
X103050000Y-98750000D01*
X102450000Y-96800000D02*
X102450000Y-96750000D01*
X102550000Y-104200000D02*
X102550000Y-104250000D01*
X102950000Y-96650000D02*
X103000000Y-96650000D01*
X102450000Y-98100000D02*
X102450000Y-98050000D01*
X104150000Y-96650000D02*
X104200000Y-96650000D01*
X103300000Y-96650000D02*
X103350000Y-96650000D01*
X103250000Y-104300000D02*
X103300000Y-104300000D01*
X102450000Y-98100000D02*
X102475000Y-98095000D01*
X102500000Y-98750000D02*
X102450000Y-98750000D01*
X103750000Y-99150000D02*
X103750000Y-99100000D01*
X102850000Y-104300000D02*
X102900000Y-104300000D01*
X102550000Y-104250000D02*
X102550000Y-104300000D01*
X103650000Y-98750000D02*
X103600000Y-98750000D01*
X103750000Y-99750000D02*
X103750000Y-99700000D01*
X102450000Y-97150000D02*
X102450000Y-97100000D01*
X102950000Y-98750000D02*
X102900000Y-98750000D01*
X102900000Y-96650000D02*
X102950000Y-96650000D01*
X102450000Y-97650000D02*
X102450000Y-97600000D01*
X102600000Y-96650000D02*
X102650000Y-96650000D01*
X102700000Y-96650000D02*
X102750000Y-96650000D01*
X103750000Y-99850000D02*
X103750000Y-99800000D01*
X103750000Y-99350000D02*
X103750000Y-99300000D01*
X104000000Y-96650000D02*
X104050000Y-96650000D01*
X103750000Y-99100000D02*
X103750000Y-99050000D01*
X102450000Y-97350000D02*
X102450000Y-97300000D01*
X104300000Y-96650000D02*
X104350000Y-96650000D01*
X103500000Y-96650000D02*
X103550000Y-96650000D01*
X102475000Y-98095000D02*
X102450000Y-98100000D01*
X102450000Y-98150000D02*
X102450000Y-98100000D01*
X102450000Y-97500000D02*
X102450000Y-97450000D01*
X102450000Y-98300000D02*
X102450000Y-98250000D01*
X103300000Y-104300000D02*
X103350000Y-104300000D01*
X103750000Y-99800000D02*
X103750000Y-99750000D01*
X103450000Y-98750000D02*
X103400000Y-98750000D01*
X102540000Y-104050000D02*
X102550000Y-104050000D01*
X103400000Y-98750000D02*
X103350000Y-98750000D01*
X103000000Y-98750000D02*
X102950000Y-98750000D01*
X103400000Y-104300000D02*
X103450000Y-104300000D01*
X103750000Y-99700000D02*
X103750000Y-99650000D01*
X102750000Y-96650000D02*
X102800000Y-96650000D01*
X103200000Y-96650000D02*
X103250000Y-96650000D01*
X103450000Y-104300000D02*
X103500000Y-104300000D01*
X103750000Y-99900000D02*
X103750000Y-99850000D01*
X102550000Y-104050000D02*
X102550000Y-104100000D01*
X104400000Y-96650000D02*
X104450000Y-96650000D01*
X103100000Y-104300000D02*
X103150000Y-104300000D01*
X102450000Y-96850000D02*
X102450000Y-96800000D01*
X102650000Y-104300000D02*
X102700000Y-104300000D01*
X102450000Y-98250000D02*
X102450000Y-98200000D01*
X102950000Y-104300000D02*
X103000000Y-104300000D01*
X104200000Y-96650000D02*
X104250000Y-96650000D01*
X102750000Y-104300000D02*
X102800000Y-104300000D01*
X102450000Y-98500000D02*
X102450000Y-98450000D01*
X104600000Y-96650000D02*
X104650000Y-96650000D01*
X102450000Y-98450000D02*
X102450000Y-98400000D01*
X103750000Y-100050000D02*
X103750000Y-100000000D01*
X103050000Y-104300000D02*
X103100000Y-104300000D01*
X103150000Y-98750000D02*
X103100000Y-98750000D01*
X103750000Y-98950000D02*
X103750000Y-98900000D01*
X102900000Y-98750000D02*
X102850000Y-98750000D01*
X102450000Y-97850000D02*
X102450000Y-97800000D01*
X103000000Y-104300000D02*
X103050000Y-104300000D01*
X103550000Y-98750000D02*
X103500000Y-98750000D01*
X103150000Y-96650000D02*
X103200000Y-96650000D01*
X104450000Y-96650000D02*
X104500000Y-96650000D01*
X102450000Y-97900000D02*
X102450000Y-97850000D01*
X102450000Y-97800000D02*
X102450000Y-97750000D01*
X103750000Y-99650000D02*
X103750000Y-99600000D01*
X103750000Y-99400000D02*
X103750000Y-99350000D01*
X102450000Y-98750000D02*
X102450000Y-98700000D01*
X102450000Y-97700000D02*
X102450000Y-97650000D01*
X102650000Y-98750000D02*
X102600000Y-98750000D01*
X102450000Y-97200000D02*
X102450000Y-97150000D01*
X103750000Y-99300000D02*
X103750000Y-99250000D01*
X102450000Y-98400000D02*
X102450000Y-98350000D01*
X102700000Y-98750000D02*
X102650000Y-98750000D01*
X102450000Y-97600000D02*
X102450000Y-97550000D01*
X103700000Y-96650000D02*
X103750000Y-96650000D01*
X102450000Y-97750000D02*
X102450000Y-97700000D01*
X103850000Y-100250000D02*
X103800000Y-100250000D01*
X102450000Y-97550000D02*
X102450000Y-97500000D01*
X104050000Y-96650000D02*
X104100000Y-96650000D01*
X103200000Y-104300000D02*
X103250000Y-104300000D01*
X103050000Y-96650000D02*
X103100000Y-96650000D01*
X103750000Y-99000000D02*
X103750000Y-98950000D01*
X102450000Y-98350000D02*
X102450000Y-98300000D01*
X102450000Y-96900000D02*
X102450000Y-96850000D01*
X103750000Y-99250000D02*
X103750000Y-99200000D01*
X102550000Y-104300000D02*
X102600000Y-104300000D01*
X103750000Y-96650000D02*
X103800000Y-96650000D01*
X102450000Y-98550000D02*
X102450000Y-98500000D01*
X103700000Y-98750000D02*
X103650000Y-98750000D01*
X102450000Y-96650000D02*
X102500000Y-96650000D01*
X102450000Y-98200000D02*
X102450000Y-98150000D01*
X103750000Y-98750000D02*
X103700000Y-98750000D01*
X103750000Y-99600000D02*
X103750000Y-99550000D01*
X102450000Y-98000000D02*
X102450000Y-97950000D01*
X102500000Y-96650000D02*
X102550000Y-96650000D01*
X103750000Y-99550000D02*
X103750000Y-99500000D01*
X103900000Y-96650000D02*
X103950000Y-96650000D01*
X103750000Y-99500000D02*
X103750000Y-99450000D01*
X103750000Y-99050000D02*
X103750000Y-99000000D01*
X103950000Y-100250000D02*
X103900000Y-100250000D01*
X102600000Y-98750000D02*
X102550000Y-98750000D01*
X104250000Y-96650000D02*
X104300000Y-96650000D01*
X103750000Y-99200000D02*
X103750000Y-99150000D01*
X102800000Y-96650000D02*
X102850000Y-96650000D01*
X103750000Y-98850000D02*
X103750000Y-98800000D01*
X103750000Y-100250000D02*
X103750000Y-100200000D01*
X103250000Y-96650000D02*
X103300000Y-96650000D01*
X103750000Y-99450000D02*
X103750000Y-99400000D01*
X102450000Y-97450000D02*
X102450000Y-97400000D01*
X103450000Y-96650000D02*
X103500000Y-96650000D01*
X102850000Y-98750000D02*
X102800000Y-98750000D01*
X103500000Y-98750000D02*
X103450000Y-98750000D01*
X102450000Y-97250000D02*
X102450000Y-97200000D01*
X103800000Y-96650000D02*
X103850000Y-96650000D01*
X102450000Y-97050000D02*
X102450000Y-97000000D01*
X103100000Y-96650000D02*
X103150000Y-96650000D01*
X102850000Y-96650000D02*
X102900000Y-96650000D01*
X102900000Y-104300000D02*
X102950000Y-104300000D01*
X103750000Y-99950000D02*
X103750000Y-99900000D01*
X103750000Y-100100000D02*
X103750000Y-100050000D01*
X103800000Y-100250000D02*
X103750000Y-100250000D01*
X102550000Y-96650000D02*
X102600000Y-96650000D01*
X102600000Y-104300000D02*
X102650000Y-104300000D01*
X103150000Y-104300000D02*
X103200000Y-104300000D01*
X102450000Y-97400000D02*
X102450000Y-97350000D01*
X103750000Y-100200000D02*
X103750000Y-100150000D01*
X102450000Y-97300000D02*
X102450000Y-97250000D01*
X102550000Y-104100000D02*
X102550000Y-104150000D01*
X103650000Y-96650000D02*
X103700000Y-96650000D01*
X102450000Y-98050000D02*
X102450000Y-98000000D01*
X102450000Y-98700000D02*
X102450000Y-98650000D01*
X103950000Y-96650000D02*
X104000000Y-96650000D01*
X103000000Y-96650000D02*
X103050000Y-96650000D01*
X103600000Y-96650000D02*
X103650000Y-96650000D01*
X103050000Y-98750000D02*
X103000000Y-98750000D01*
X103350000Y-96650000D02*
X103400000Y-96650000D01*
X104500000Y-96650000D02*
X104550000Y-96650000D01*
X103900000Y-100250000D02*
X103850000Y-100250000D01*
X103750000Y-98800000D02*
X103750000Y-98750000D01*
X104000000Y-100250000D02*
X103950000Y-100250000D01*
X102750000Y-98750000D02*
X102700000Y-98750000D01*
X103750000Y-98900000D02*
X103750000Y-98850000D01*
X103250000Y-98750000D02*
X103200000Y-98750000D01*
X102450000Y-97100000D02*
X102450000Y-97050000D01*
X102650000Y-96650000D02*
X102700000Y-96650000D01*
X103400000Y-96650000D02*
X103450000Y-96650000D01*
X103600000Y-98750000D02*
X103550000Y-98750000D01*
X102450000Y-98650000D02*
X102450000Y-98600000D01*
X102450000Y-96950000D02*
X102450000Y-96900000D01*
X103350000Y-104300000D02*
X103400000Y-104300000D01*
X102450000Y-96750000D02*
X102450000Y-96700000D01*
X102800000Y-98750000D02*
X102750000Y-98750000D01*
%TD*%
M02*
