%TF.GenerationSoftware,KiCad,Pcbnew,10.0.6*%
%TF.CreationDate,2026-10-01T23:26:24+08:00*%
%TF.ProjectId,PoseDoll_O22_MT6701CT,506f7365-446f-46c6-9c5f-4f32325f4d54,rev?*%
%TF.SameCoordinates,Original*%
%TF.FileFunction,AssemblyDrawing,Top*%
%FSLAX46Y46*%
G04 Gerber Fmt 4.6, Leading zero omitted, Abs format (unit mm)*
G04 Created by KiCad (PCBNEW 10.0.6) date 2026-10-01 23:26:24*
%MOMM*%
%LPD*%
G01*
G04 APERTURE LIST*
%ADD10C,0.060000*%
%ADD11C,0.150000*%
%ADD12C,0.100000*%
G04 APERTURE END LIST*
D10*
X99933333Y-96243832D02*
X99914285Y-96262880D01*
X99914285Y-96262880D02*
X99857143Y-96281927D01*
X99857143Y-96281927D02*
X99819047Y-96281927D01*
X99819047Y-96281927D02*
X99761904Y-96262880D01*
X99761904Y-96262880D02*
X99723809Y-96224784D01*
X99723809Y-96224784D02*
X99704762Y-96186689D01*
X99704762Y-96186689D02*
X99685714Y-96110499D01*
X99685714Y-96110499D02*
X99685714Y-96053356D01*
X99685714Y-96053356D02*
X99704762Y-95977165D01*
X99704762Y-95977165D02*
X99723809Y-95939070D01*
X99723809Y-95939070D02*
X99761904Y-95900975D01*
X99761904Y-95900975D02*
X99819047Y-95881927D01*
X99819047Y-95881927D02*
X99857143Y-95881927D01*
X99857143Y-95881927D02*
X99914285Y-95900975D01*
X99914285Y-95900975D02*
X99933333Y-95920022D01*
X100314285Y-96281927D02*
X100085714Y-96281927D01*
X100200000Y-96281927D02*
X100200000Y-95881927D01*
X100200000Y-95881927D02*
X100161904Y-95939070D01*
X100161904Y-95939070D02*
X100123809Y-95977165D01*
X100123809Y-95977165D02*
X100085714Y-95996213D01*
X95443832Y-100066666D02*
X95462880Y-100085714D01*
X95462880Y-100085714D02*
X95481927Y-100142856D01*
X95481927Y-100142856D02*
X95481927Y-100180952D01*
X95481927Y-100180952D02*
X95462880Y-100238095D01*
X95462880Y-100238095D02*
X95424784Y-100276190D01*
X95424784Y-100276190D02*
X95386689Y-100295237D01*
X95386689Y-100295237D02*
X95310499Y-100314285D01*
X95310499Y-100314285D02*
X95253356Y-100314285D01*
X95253356Y-100314285D02*
X95177165Y-100295237D01*
X95177165Y-100295237D02*
X95139070Y-100276190D01*
X95139070Y-100276190D02*
X95100975Y-100238095D01*
X95100975Y-100238095D02*
X95081927Y-100180952D01*
X95081927Y-100180952D02*
X95081927Y-100142856D01*
X95081927Y-100142856D02*
X95100975Y-100085714D01*
X95100975Y-100085714D02*
X95120022Y-100066666D01*
X95120022Y-99914285D02*
X95100975Y-99895237D01*
X95100975Y-99895237D02*
X95081927Y-99857142D01*
X95081927Y-99857142D02*
X95081927Y-99761904D01*
X95081927Y-99761904D02*
X95100975Y-99723809D01*
X95100975Y-99723809D02*
X95120022Y-99704761D01*
X95120022Y-99704761D02*
X95158118Y-99685714D01*
X95158118Y-99685714D02*
X95196213Y-99685714D01*
X95196213Y-99685714D02*
X95253356Y-99704761D01*
X95253356Y-99704761D02*
X95481927Y-99933333D01*
X95481927Y-99933333D02*
X95481927Y-99685714D01*
X104831927Y-102166666D02*
X104641451Y-102299999D01*
X104831927Y-102395237D02*
X104431927Y-102395237D01*
X104431927Y-102395237D02*
X104431927Y-102242856D01*
X104431927Y-102242856D02*
X104450975Y-102204761D01*
X104450975Y-102204761D02*
X104470022Y-102185714D01*
X104470022Y-102185714D02*
X104508118Y-102166666D01*
X104508118Y-102166666D02*
X104565260Y-102166666D01*
X104565260Y-102166666D02*
X104603356Y-102185714D01*
X104603356Y-102185714D02*
X104622403Y-102204761D01*
X104622403Y-102204761D02*
X104641451Y-102242856D01*
X104641451Y-102242856D02*
X104641451Y-102395237D01*
X104831927Y-101785714D02*
X104831927Y-102014285D01*
X104831927Y-101899999D02*
X104431927Y-101899999D01*
X104431927Y-101899999D02*
X104489070Y-101938095D01*
X104489070Y-101938095D02*
X104527165Y-101976190D01*
X104527165Y-101976190D02*
X104546213Y-102014285D01*
X104831927Y-97566666D02*
X104641451Y-97699999D01*
X104831927Y-97795237D02*
X104431927Y-97795237D01*
X104431927Y-97795237D02*
X104431927Y-97642856D01*
X104431927Y-97642856D02*
X104450975Y-97604761D01*
X104450975Y-97604761D02*
X104470022Y-97585714D01*
X104470022Y-97585714D02*
X104508118Y-97566666D01*
X104508118Y-97566666D02*
X104565260Y-97566666D01*
X104565260Y-97566666D02*
X104603356Y-97585714D01*
X104603356Y-97585714D02*
X104622403Y-97604761D01*
X104622403Y-97604761D02*
X104641451Y-97642856D01*
X104641451Y-97642856D02*
X104641451Y-97795237D01*
X104470022Y-97414285D02*
X104450975Y-97395237D01*
X104450975Y-97395237D02*
X104431927Y-97357142D01*
X104431927Y-97357142D02*
X104431927Y-97261904D01*
X104431927Y-97261904D02*
X104450975Y-97223809D01*
X104450975Y-97223809D02*
X104470022Y-97204761D01*
X104470022Y-97204761D02*
X104508118Y-97185714D01*
X104508118Y-97185714D02*
X104546213Y-97185714D01*
X104546213Y-97185714D02*
X104603356Y-97204761D01*
X104603356Y-97204761D02*
X104831927Y-97433333D01*
X104831927Y-97433333D02*
X104831927Y-97185714D01*
D11*
X99454819Y-100761904D02*
X100264342Y-100761904D01*
X100264342Y-100761904D02*
X100359580Y-100714285D01*
X100359580Y-100714285D02*
X100407200Y-100666666D01*
X100407200Y-100666666D02*
X100454819Y-100571428D01*
X100454819Y-100571428D02*
X100454819Y-100380952D01*
X100454819Y-100380952D02*
X100407200Y-100285714D01*
X100407200Y-100285714D02*
X100359580Y-100238095D01*
X100359580Y-100238095D02*
X100264342Y-100190476D01*
X100264342Y-100190476D02*
X99454819Y-100190476D01*
X100454819Y-99190476D02*
X100454819Y-99761904D01*
X100454819Y-99476190D02*
X99454819Y-99476190D01*
X99454819Y-99476190D02*
X99597676Y-99571428D01*
X99597676Y-99571428D02*
X99692914Y-99666666D01*
X99692914Y-99666666D02*
X99740533Y-99761904D01*
%TO.C,C1*%
D12*
X99200000Y-95700000D02*
X100800000Y-95700000D01*
X100800000Y-96500000D01*
X99200000Y-96500000D01*
X99200000Y-95700000D01*
%TO.C,C2*%
X94900000Y-99200000D02*
X95700000Y-99200000D01*
X95700000Y-100800000D01*
X94900000Y-100800000D01*
X94900000Y-99200000D01*
%TO.C,R1*%
X104237500Y-101300000D02*
X105062500Y-101300000D01*
X105062500Y-102900000D01*
X104237500Y-102900000D01*
X104237500Y-101300000D01*
%TO.C,R2*%
X104237500Y-96700000D02*
X105062500Y-96700000D01*
X105062500Y-98300000D01*
X104237500Y-98300000D01*
X104237500Y-96700000D01*
%TO.C,U1*%
X99025000Y-97550000D02*
X101950000Y-97550000D01*
X101950000Y-102450000D01*
X98050000Y-102450000D01*
X98050000Y-98525000D01*
X99025000Y-97550000D01*
%TD*%
M02*
