%TF.GenerationSoftware,KiCad,Pcbnew,10.0.6*%
%TF.CreationDate,2026-10-01T23:26:24+08:00*%
%TF.ProjectId,PoseDoll_O22_MT6701CT,506f7365-446f-46c6-9c5f-4f32325f4d54,rev?*%
%TF.SameCoordinates,Original*%
%TF.FileFunction,Other,User*%
%FSLAX46Y46*%
G04 Gerber Fmt 4.6, Leading zero omitted, Abs format (unit mm)*
G04 Created by KiCad (PCBNEW 10.0.6) date 2026-10-01 23:26:24*
%MOMM*%
%LPD*%
G01*
G04 APERTURE LIST*
%ADD10C,0.050000*%
G04 APERTURE END LIST*
%TO.C,C1*%
D10*
X98520000Y-95370000D02*
X101480000Y-95370000D01*
X101480000Y-96830000D01*
X98520000Y-96830000D01*
X98520000Y-95370000D01*
%TO.C,C2*%
X94570000Y-98520000D02*
X96030000Y-98520000D01*
X96030000Y-101480000D01*
X94570000Y-101480000D01*
X94570000Y-98520000D01*
%TO.C,R1*%
X103920000Y-100620000D02*
X105380000Y-100620000D01*
X105380000Y-103580000D01*
X103920000Y-103580000D01*
X103920000Y-100620000D01*
%TO.C,J1*%
X96800000Y-103250000D02*
X103200000Y-103250000D01*
X96800000Y-104850000D02*
X96800000Y-103250000D01*
X103200000Y-103250000D02*
X103200000Y-104850000D01*
X103200000Y-104850000D02*
X96800000Y-104850000D01*
%TO.C,R2*%
X103920000Y-96020000D02*
X105380000Y-96020000D01*
X105380000Y-98980000D01*
X103920000Y-98980000D01*
X103920000Y-96020000D01*
%TO.C,U1*%
X96300000Y-97540000D02*
X97800000Y-97540000D01*
X96300000Y-102460000D02*
X96300000Y-97540000D01*
X97800000Y-97300000D02*
X102200000Y-97300000D01*
X97800000Y-97540000D02*
X97800000Y-97300000D01*
X97800000Y-102460000D02*
X96300000Y-102460000D01*
X97800000Y-102700000D02*
X97800000Y-102460000D01*
X102200000Y-97300000D02*
X102200000Y-97540000D01*
X102200000Y-97540000D02*
X103700000Y-97540000D01*
X102200000Y-102460000D02*
X102200000Y-102700000D01*
X102200000Y-102700000D02*
X97800000Y-102700000D01*
X103700000Y-97540000D02*
X103700000Y-102460000D01*
X103700000Y-102460000D02*
X102200000Y-102460000D01*
%TD*%
M02*
