%TF.GenerationSoftware,KiCad,Pcbnew,10.0.6*%
%TF.CreationDate,2026-09-30T04:01:41+08:00*%
%TF.ProjectId,PoseDoll_O15_Central_C1,506f7365-446f-46c6-9c5f-4f31355f4365,rev?*%
%TF.SameCoordinates,Original*%
%TF.FileFunction,Copper,L1,Top*%
%TF.FilePolarity,Positive*%
%FSLAX46Y46*%
G04 Gerber Fmt 4.6, Leading zero omitted, Abs format (unit mm)*
G04 Created by KiCad (PCBNEW 10.0.6) date 2026-09-30 04:01:41*
%MOMM*%
%LPD*%
G01*
G04 APERTURE LIST*
G04 Aperture macros list*
%AMRoundRect*
0 Rectangle with rounded corners*
0 $1 Rounding radius*
0 $2 $3 $4 $5 $6 $7 $8 $9 X,Y pos of 4 corners*
0 Add a 4 corners polygon primitive as box body*
4,1,4,$2,$3,$4,$5,$6,$7,$8,$9,$2,$3,0*
0 Add four circle primitives for the rounded corners*
1,1,$1+$1,$2,$3*
1,1,$1+$1,$4,$5*
1,1,$1+$1,$6,$7*
1,1,$1+$1,$8,$9*
0 Add four rect primitives between the rounded corners*
20,1,$1+$1,$2,$3,$4,$5,0*
20,1,$1+$1,$4,$5,$6,$7,0*
20,1,$1+$1,$6,$7,$8,$9,0*
20,1,$1+$1,$8,$9,$2,$3,0*%
G04 Aperture macros list end*
%TA.AperFunction,SMDPad,CuDef*%
%ADD10RoundRect,0.250000X-0.250000X-2.500000X0.250000X-2.500000X0.250000X2.500000X-0.250000X2.500000X0*%
%TD*%
%TA.AperFunction,SMDPad,CuDef*%
%ADD11RoundRect,0.250000X-0.550000X-1.250000X0.550000X-1.250000X0.550000X1.250000X-0.550000X1.250000X0*%
%TD*%
%TA.AperFunction,SMDPad,CuDef*%
%ADD12RoundRect,0.150000X-0.512500X-0.150000X0.512500X-0.150000X0.512500X0.150000X-0.512500X0.150000X0*%
%TD*%
%TA.AperFunction,SMDPad,CuDef*%
%ADD13RoundRect,0.150000X-0.700000X0.150000X-0.700000X-0.150000X0.700000X-0.150000X0.700000X0.150000X0*%
%TD*%
%TA.AperFunction,SMDPad,CuDef*%
%ADD14RoundRect,0.250000X-1.100000X0.250000X-1.100000X-0.250000X1.100000X-0.250000X1.100000X0.250000X0*%
%TD*%
%TA.AperFunction,SMDPad,CuDef*%
%ADD15RoundRect,0.150000X-0.587500X-0.150000X0.587500X-0.150000X0.587500X0.150000X-0.587500X0.150000X0*%
%TD*%
%TA.AperFunction,SMDPad,CuDef*%
%ADD16RoundRect,0.250000X0.650000X-1.000000X0.650000X1.000000X-0.650000X1.000000X-0.650000X-1.000000X0*%
%TD*%
%TA.AperFunction,SMDPad,CuDef*%
%ADD17RoundRect,0.150000X0.700000X-0.150000X0.700000X0.150000X-0.700000X0.150000X-0.700000X-0.150000X0*%
%TD*%
%TA.AperFunction,SMDPad,CuDef*%
%ADD18RoundRect,0.250000X1.100000X-0.250000X1.100000X0.250000X-1.100000X0.250000X-1.100000X-0.250000X0*%
%TD*%
%TA.AperFunction,ComponentPad*%
%ADD19R,1.800000X1.800000*%
%TD*%
%TA.AperFunction,ComponentPad*%
%ADD20C,1.800000*%
%TD*%
%TA.AperFunction,ViaPad*%
%ADD21C,0.800000*%
%TD*%
%TA.AperFunction,ViaPad*%
%ADD22C,0.600000*%
%TD*%
%TA.AperFunction,Conductor*%
%ADD23C,0.600000*%
%TD*%
%TA.AperFunction,Conductor*%
%ADD24C,0.200000*%
%TD*%
%TA.AperFunction,Conductor*%
%ADD25C,0.400000*%
%TD*%
%TA.AperFunction,Conductor*%
%ADD26C,0.300000*%
%TD*%
%TA.AperFunction,Conductor*%
%ADD27C,0.150000*%
%TD*%
%TA.AperFunction,Conductor*%
%ADD28C,0.450000*%
%TD*%
G04 APERTURE END LIST*
D10*
%TO.P,J7,1*%
%TO.N,/VIN_5V*%
X34000000Y-56000000D03*
%TO.P,J7,2*%
%TO.N,/GND*%
X36000000Y-56000000D03*
D11*
%TO.P,J7,MP*%
%TO.N,N/C*%
X31600000Y-53750000D03*
X38400000Y-53750000D03*
%TD*%
D12*
%TO.P,U201,1*%
%TO.N,/P2_OE_N*%
X11862500Y-24050000D03*
%TO.P,U201,2*%
%TO.N,/SCK*%
X11862500Y-25000000D03*
%TO.P,U201,3*%
%TO.N,/GND*%
X11862500Y-25950000D03*
%TO.P,U201,4*%
%TO.N,/P2_SCK_DRV*%
X14137500Y-25950000D03*
%TO.P,U201,5*%
%TO.N,/P2_3V3*%
X14137500Y-24050000D03*
%TD*%
%TO.P,U301,1*%
%TO.N,/P3_OE_N*%
X11862500Y-43050000D03*
%TO.P,U301,2*%
%TO.N,/SCK*%
X11862500Y-44000000D03*
%TO.P,U301,3*%
%TO.N,/GND*%
X11862500Y-44950000D03*
%TO.P,U301,4*%
%TO.N,/P3_SCK_DRV*%
X14137500Y-44950000D03*
%TO.P,U301,5*%
%TO.N,/P3_3V3*%
X14137500Y-43050000D03*
%TD*%
%TO.P,U500,1*%
%TO.N,/SENSOR_3V3*%
X48862500Y-22550000D03*
%TO.P,U500,2*%
%TO.N,/GND*%
X48862500Y-23500000D03*
%TO.P,U500,3*%
%TO.N,/SENSOR_3V3*%
X48862500Y-24450000D03*
%TO.P,U500,4*%
%TO.N,/P5_FAULT_N*%
X51137500Y-24450000D03*
%TO.P,U500,5*%
%TO.N,/P5_ILIM*%
X51137500Y-23500000D03*
%TO.P,U500,6*%
%TO.N,/P5_3V3*%
X51137500Y-22550000D03*
%TD*%
%TO.P,U404,1*%
%TO.N,/CS4*%
X50862500Y-10550000D03*
%TO.P,U404,2*%
%TO.N,/P4_MISO*%
X50862500Y-11500000D03*
%TO.P,U404,3*%
%TO.N,/GND*%
X50862500Y-12450000D03*
%TO.P,U404,4*%
%TO.N,/MISO*%
X53137500Y-12450000D03*
%TO.P,U404,5*%
%TO.N,/MCU_3V3*%
X53137500Y-10550000D03*
%TD*%
%TO.P,U202,1*%
%TO.N,/P2_OE_N*%
X11862500Y-28050000D03*
%TO.P,U202,2*%
%TO.N,/MOSI*%
X11862500Y-29000000D03*
%TO.P,U202,3*%
%TO.N,/GND*%
X11862500Y-29950000D03*
%TO.P,U202,4*%
%TO.N,/P2_MOSI_DRV*%
X14137500Y-29950000D03*
%TO.P,U202,5*%
%TO.N,/P2_3V3*%
X14137500Y-28050000D03*
%TD*%
%TO.P,U302,1*%
%TO.N,/P3_OE_N*%
X11862500Y-47050000D03*
%TO.P,U302,2*%
%TO.N,/MOSI*%
X11862500Y-48000000D03*
%TO.P,U302,3*%
%TO.N,/GND*%
X11862500Y-48950000D03*
%TO.P,U302,4*%
%TO.N,/P3_MOSI_DRV*%
X14137500Y-48950000D03*
%TO.P,U302,5*%
%TO.N,/P3_3V3*%
X14137500Y-47050000D03*
%TD*%
%TO.P,U504,1*%
%TO.N,/CS5*%
X50862500Y-29550000D03*
%TO.P,U504,2*%
%TO.N,/P5_MISO*%
X50862500Y-30500000D03*
%TO.P,U504,3*%
%TO.N,/GND*%
X50862500Y-31450000D03*
%TO.P,U504,4*%
%TO.N,/MISO*%
X53137500Y-31450000D03*
%TO.P,U504,5*%
%TO.N,/MCU_3V3*%
X53137500Y-29550000D03*
%TD*%
D10*
%TO.P,J8,1*%
%TO.N,/GND*%
X33000000Y-44000000D03*
%TO.P,J8,2*%
%TO.N,/VIN_5V*%
X35000000Y-44000000D03*
%TO.P,J8,3*%
%TO.N,/SENSOR_3V3*%
X37000000Y-44000000D03*
D11*
%TO.P,J8,MP*%
%TO.N,N/C*%
X30600000Y-41750000D03*
X39400000Y-41750000D03*
%TD*%
D12*
%TO.P,U601,1*%
%TO.N,/P6_OE_N*%
X55862500Y-43050000D03*
%TO.P,U601,2*%
%TO.N,/SCK*%
X55862500Y-44000000D03*
%TO.P,U601,3*%
%TO.N,/GND*%
X55862500Y-44950000D03*
%TO.P,U601,4*%
%TO.N,/P6_SCK_DRV*%
X58137500Y-44950000D03*
%TO.P,U601,5*%
%TO.N,/P6_3V3*%
X58137500Y-43050000D03*
%TD*%
%TO.P,U602,1*%
%TO.N,/P6_OE_N*%
X55862500Y-47050000D03*
%TO.P,U602,2*%
%TO.N,/MOSI*%
X55862500Y-48000000D03*
%TO.P,U602,3*%
%TO.N,/GND*%
X55862500Y-48950000D03*
%TO.P,U602,4*%
%TO.N,/P6_MOSI_DRV*%
X58137500Y-48950000D03*
%TO.P,U602,5*%
%TO.N,/P6_3V3*%
X58137500Y-47050000D03*
%TD*%
D13*
%TO.P,J6,1*%
%TO.N,/GND*%
X66850000Y-44875000D03*
%TO.P,J6,2*%
%TO.N,/P6_3V3*%
X66850000Y-46125000D03*
%TO.P,J6,3*%
%TO.N,/P6_SCK*%
X66850000Y-47375000D03*
%TO.P,J6,4*%
%TO.N,/P6_MOSI*%
X66850000Y-48625000D03*
%TO.P,J6,5*%
%TO.N,/P6_MISO*%
X66850000Y-49875000D03*
%TO.P,J6,6*%
%TO.N,/P6_CS*%
X66850000Y-51125000D03*
D14*
%TO.P,J6,MP*%
%TO.N,N/C*%
X63650000Y-43025000D03*
X63650000Y-52975000D03*
%TD*%
D13*
%TO.P,J5,1*%
%TO.N,/GND*%
X66850000Y-25875000D03*
%TO.P,J5,2*%
%TO.N,/P5_3V3*%
X66850000Y-27125000D03*
%TO.P,J5,3*%
%TO.N,/P5_SCK*%
X66850000Y-28375000D03*
%TO.P,J5,4*%
%TO.N,/P5_MOSI*%
X66850000Y-29625000D03*
%TO.P,J5,5*%
%TO.N,/P5_MISO*%
X66850000Y-30875000D03*
%TO.P,J5,6*%
%TO.N,/P5_CS*%
X66850000Y-32125000D03*
D14*
%TO.P,J5,MP*%
%TO.N,N/C*%
X63650000Y-24025000D03*
X63650000Y-33975000D03*
%TD*%
D12*
%TO.P,U102,1*%
%TO.N,/P1_OE_N*%
X11862500Y-9050000D03*
%TO.P,U102,2*%
%TO.N,/MOSI*%
X11862500Y-10000000D03*
%TO.P,U102,3*%
%TO.N,/GND*%
X11862500Y-10950000D03*
%TO.P,U102,4*%
%TO.N,/P1_MOSI_DRV*%
X14137500Y-10950000D03*
%TO.P,U102,5*%
%TO.N,/P1_3V3*%
X14137500Y-9050000D03*
%TD*%
D15*
%TO.P,Q3,1*%
%TO.N,/IO_ENABLE*%
X20062500Y-53050000D03*
%TO.P,Q3,2*%
%TO.N,/GND*%
X20062500Y-54950000D03*
%TO.P,Q3,3*%
%TO.N,/P3_OE_N*%
X21937500Y-54000000D03*
%TD*%
%TO.P,Q4,1*%
%TO.N,/IO_ENABLE*%
X48062500Y-15050000D03*
%TO.P,Q4,2*%
%TO.N,/GND*%
X48062500Y-16950000D03*
%TO.P,Q4,3*%
%TO.N,/P4_OE_N*%
X49937500Y-16000000D03*
%TD*%
D12*
%TO.P,U203,1*%
%TO.N,/P2_OE_N*%
X11862500Y-32050000D03*
%TO.P,U203,2*%
%TO.N,/CS2*%
X11862500Y-33000000D03*
%TO.P,U203,3*%
%TO.N,/GND*%
X11862500Y-33950000D03*
%TO.P,U203,4*%
%TO.N,/P2_CS_DRV*%
X14137500Y-33950000D03*
%TO.P,U203,5*%
%TO.N,/P2_3V3*%
X14137500Y-32050000D03*
%TD*%
%TO.P,U200,1*%
%TO.N,/SENSOR_3V3*%
X18862500Y-22550000D03*
%TO.P,U200,2*%
%TO.N,/GND*%
X18862500Y-23500000D03*
%TO.P,U200,3*%
%TO.N,/SENSOR_3V3*%
X18862500Y-24450000D03*
%TO.P,U200,4*%
%TO.N,/P2_FAULT_N*%
X21137500Y-24450000D03*
%TO.P,U200,5*%
%TO.N,/P2_ILIM*%
X21137500Y-23500000D03*
%TO.P,U200,6*%
%TO.N,/P2_3V3*%
X21137500Y-22550000D03*
%TD*%
D16*
%TO.P,D1,1*%
%TO.N,/MCU_5V*%
X27500000Y-31000000D03*
%TO.P,D1,2*%
%TO.N,/VIN_5V*%
X27500000Y-27000000D03*
%TD*%
D13*
%TO.P,J4,1*%
%TO.N,/GND*%
X66850000Y-6875000D03*
%TO.P,J4,2*%
%TO.N,/P4_3V3*%
X66850000Y-8125000D03*
%TO.P,J4,3*%
%TO.N,/P4_SCK*%
X66850000Y-9375000D03*
%TO.P,J4,4*%
%TO.N,/P4_MOSI*%
X66850000Y-10625000D03*
%TO.P,J4,5*%
%TO.N,/P4_MISO*%
X66850000Y-11875000D03*
%TO.P,J4,6*%
%TO.N,/P4_CS*%
X66850000Y-13125000D03*
D14*
%TO.P,J4,MP*%
%TO.N,N/C*%
X63650000Y-5025000D03*
X63650000Y-14975000D03*
%TD*%
D17*
%TO.P,J3,1*%
%TO.N,/GND*%
X3150000Y-51125000D03*
%TO.P,J3,2*%
%TO.N,/P3_3V3*%
X3150000Y-49875000D03*
%TO.P,J3,3*%
%TO.N,/P3_SCK*%
X3150000Y-48625000D03*
%TO.P,J3,4*%
%TO.N,/P3_MOSI*%
X3150000Y-47375000D03*
%TO.P,J3,5*%
%TO.N,/P3_MISO*%
X3150000Y-46125000D03*
%TO.P,J3,6*%
%TO.N,/P3_CS*%
X3150000Y-44875000D03*
D18*
%TO.P,J3,MP*%
%TO.N,N/C*%
X6350000Y-52975000D03*
X6350000Y-43025000D03*
%TD*%
D12*
%TO.P,U403,1*%
%TO.N,/P4_OE_N*%
X55862500Y-13050000D03*
%TO.P,U403,2*%
%TO.N,/CS4*%
X55862500Y-14000000D03*
%TO.P,U403,3*%
%TO.N,/GND*%
X55862500Y-14950000D03*
%TO.P,U403,4*%
%TO.N,/P4_CS_DRV*%
X58137500Y-14950000D03*
%TO.P,U403,5*%
%TO.N,/P4_3V3*%
X58137500Y-13050000D03*
%TD*%
%TO.P,U603,1*%
%TO.N,/P6_OE_N*%
X55862500Y-51050000D03*
%TO.P,U603,2*%
%TO.N,/CS6*%
X55862500Y-52000000D03*
%TO.P,U603,3*%
%TO.N,/GND*%
X55862500Y-52950000D03*
%TO.P,U603,4*%
%TO.N,/P6_CS_DRV*%
X58137500Y-52950000D03*
%TO.P,U603,5*%
%TO.N,/P6_3V3*%
X58137500Y-51050000D03*
%TD*%
D17*
%TO.P,J2,1*%
%TO.N,/GND*%
X3150000Y-32125000D03*
%TO.P,J2,2*%
%TO.N,/P2_3V3*%
X3150000Y-30875000D03*
%TO.P,J2,3*%
%TO.N,/P2_SCK*%
X3150000Y-29625000D03*
%TO.P,J2,4*%
%TO.N,/P2_MOSI*%
X3150000Y-28375000D03*
%TO.P,J2,5*%
%TO.N,/P2_MISO*%
X3150000Y-27125000D03*
%TO.P,J2,6*%
%TO.N,/P2_CS*%
X3150000Y-25875000D03*
D18*
%TO.P,J2,MP*%
%TO.N,N/C*%
X6350000Y-33975000D03*
X6350000Y-24025000D03*
%TD*%
D15*
%TO.P,Q1,1*%
%TO.N,/IO_ENABLE*%
X20062500Y-15050000D03*
%TO.P,Q1,2*%
%TO.N,/GND*%
X20062500Y-16950000D03*
%TO.P,Q1,3*%
%TO.N,/P1_OE_N*%
X21937500Y-16000000D03*
%TD*%
D12*
%TO.P,U300,1*%
%TO.N,/SENSOR_3V3*%
X18862500Y-41550000D03*
%TO.P,U300,2*%
%TO.N,/GND*%
X18862500Y-42500000D03*
%TO.P,U300,3*%
%TO.N,/SENSOR_3V3*%
X18862500Y-43450000D03*
%TO.P,U300,4*%
%TO.N,/P3_FAULT_N*%
X21137500Y-43450000D03*
%TO.P,U300,5*%
%TO.N,/P3_ILIM*%
X21137500Y-42500000D03*
%TO.P,U300,6*%
%TO.N,/P3_3V3*%
X21137500Y-41550000D03*
%TD*%
%TO.P,U100,1*%
%TO.N,/SENSOR_3V3*%
X19362500Y-3550000D03*
%TO.P,U100,2*%
%TO.N,/GND*%
X19362500Y-4500000D03*
%TO.P,U100,3*%
%TO.N,/SENSOR_3V3*%
X19362500Y-5450000D03*
%TO.P,U100,4*%
%TO.N,/P1_FAULT_N*%
X21637500Y-5450000D03*
%TO.P,U100,5*%
%TO.N,/P1_ILIM*%
X21637500Y-4500000D03*
%TO.P,U100,6*%
%TO.N,/P1_3V3*%
X21637500Y-3550000D03*
%TD*%
%TO.P,U103,1*%
%TO.N,/P1_OE_N*%
X11862500Y-13050000D03*
%TO.P,U103,2*%
%TO.N,/CS1*%
X11862500Y-14000000D03*
%TO.P,U103,3*%
%TO.N,/GND*%
X11862500Y-14950000D03*
%TO.P,U103,4*%
%TO.N,/P1_CS_DRV*%
X14137500Y-14950000D03*
%TO.P,U103,5*%
%TO.N,/P1_3V3*%
X14137500Y-13050000D03*
%TD*%
%TO.P,U303,1*%
%TO.N,/P3_OE_N*%
X11862500Y-51050000D03*
%TO.P,U303,2*%
%TO.N,/CS3*%
X11862500Y-52000000D03*
%TO.P,U303,3*%
%TO.N,/GND*%
X11862500Y-52950000D03*
%TO.P,U303,4*%
%TO.N,/P3_CS_DRV*%
X14137500Y-52950000D03*
%TO.P,U303,5*%
%TO.N,/P3_3V3*%
X14137500Y-51050000D03*
%TD*%
%TO.P,U304,1*%
%TO.N,/CS3*%
X16862500Y-48550000D03*
%TO.P,U304,2*%
%TO.N,/P3_MISO*%
X16862500Y-49500000D03*
%TO.P,U304,3*%
%TO.N,/GND*%
X16862500Y-50450000D03*
%TO.P,U304,4*%
%TO.N,/MISO*%
X19137500Y-50450000D03*
%TO.P,U304,5*%
%TO.N,/MCU_3V3*%
X19137500Y-48550000D03*
%TD*%
D19*
%TO.P,U1,1*%
%TO.N,/IO_ENABLE*%
X27380000Y-6380000D03*
D20*
%TO.P,U1,2*%
%TO.N,/CS1*%
X27380000Y-8920000D03*
%TO.P,U1,3*%
%TO.N,unconnected-(U1-D2_GPIO3_STRAP-Pad3)*%
X27380000Y-11460000D03*
%TO.P,U1,4*%
%TO.N,/CS2*%
X27380000Y-14000000D03*
%TO.P,U1,5*%
%TO.N,/CS3*%
X27380000Y-16540000D03*
%TO.P,U1,6*%
%TO.N,/CS4*%
X27380000Y-19079999D03*
%TO.P,U1,7*%
%TO.N,/CS5*%
X27380000Y-21620000D03*
%TO.P,U1,8*%
%TO.N,/CS6*%
X42620000Y-21620000D03*
%TO.P,U1,9*%
%TO.N,/SCK*%
X42620000Y-19079999D03*
%TO.P,U1,10*%
%TO.N,/MISO*%
X42620000Y-16540000D03*
%TO.P,U1,11*%
%TO.N,/MOSI*%
X42620000Y-14000000D03*
%TO.P,U1,12*%
%TO.N,/MCU_3V3*%
X42620000Y-11460000D03*
%TO.P,U1,13*%
%TO.N,/GND*%
X42620000Y-8920000D03*
%TO.P,U1,14*%
%TO.N,/MCU_5V*%
X42620000Y-6380000D03*
%TD*%
D12*
%TO.P,U503,1*%
%TO.N,/P5_OE_N*%
X55862500Y-32050000D03*
%TO.P,U503,2*%
%TO.N,/CS5*%
X55862500Y-33000000D03*
%TO.P,U503,3*%
%TO.N,/GND*%
X55862500Y-33950000D03*
%TO.P,U503,4*%
%TO.N,/P5_CS_DRV*%
X58137500Y-33950000D03*
%TO.P,U503,5*%
%TO.N,/P5_3V3*%
X58137500Y-32050000D03*
%TD*%
%TO.P,U604,1*%
%TO.N,/CS6*%
X50862500Y-48550000D03*
%TO.P,U604,2*%
%TO.N,/P6_MISO*%
X50862500Y-49500000D03*
%TO.P,U604,3*%
%TO.N,/GND*%
X50862500Y-50450000D03*
%TO.P,U604,4*%
%TO.N,/MISO*%
X53137500Y-50450000D03*
%TO.P,U604,5*%
%TO.N,/MCU_3V3*%
X53137500Y-48550000D03*
%TD*%
%TO.P,U502,1*%
%TO.N,/P5_OE_N*%
X55862500Y-28050000D03*
%TO.P,U502,2*%
%TO.N,/MOSI*%
X55862500Y-29000000D03*
%TO.P,U502,3*%
%TO.N,/GND*%
X55862500Y-29950000D03*
%TO.P,U502,4*%
%TO.N,/P5_MOSI_DRV*%
X58137500Y-29950000D03*
%TO.P,U502,5*%
%TO.N,/P5_3V3*%
X58137500Y-28050000D03*
%TD*%
%TO.P,U400,1*%
%TO.N,/SENSOR_3V3*%
X48362500Y-3550000D03*
%TO.P,U400,2*%
%TO.N,/GND*%
X48362500Y-4500000D03*
%TO.P,U400,3*%
%TO.N,/SENSOR_3V3*%
X48362500Y-5450000D03*
%TO.P,U400,4*%
%TO.N,/P4_FAULT_N*%
X50637500Y-5450000D03*
%TO.P,U400,5*%
%TO.N,/P4_ILIM*%
X50637500Y-4500000D03*
%TO.P,U400,6*%
%TO.N,/P4_3V3*%
X50637500Y-3550000D03*
%TD*%
%TO.P,U104,1*%
%TO.N,/CS1*%
X16862500Y-10550000D03*
%TO.P,U104,2*%
%TO.N,/P1_MISO*%
X16862500Y-11500000D03*
%TO.P,U104,3*%
%TO.N,/GND*%
X16862500Y-12450000D03*
%TO.P,U104,4*%
%TO.N,/MISO*%
X19137500Y-12450000D03*
%TO.P,U104,5*%
%TO.N,/MCU_3V3*%
X19137500Y-10550000D03*
%TD*%
D17*
%TO.P,J1,1*%
%TO.N,/GND*%
X3150000Y-13125000D03*
%TO.P,J1,2*%
%TO.N,/P1_3V3*%
X3150000Y-11875000D03*
%TO.P,J1,3*%
%TO.N,/P1_SCK*%
X3150000Y-10625000D03*
%TO.P,J1,4*%
%TO.N,/P1_MOSI*%
X3150000Y-9375000D03*
%TO.P,J1,5*%
%TO.N,/P1_MISO*%
X3150000Y-8125000D03*
%TO.P,J1,6*%
%TO.N,/P1_CS*%
X3150000Y-6875000D03*
D18*
%TO.P,J1,MP*%
%TO.N,N/C*%
X6350000Y-14975000D03*
X6350000Y-5025000D03*
%TD*%
D12*
%TO.P,U402,1*%
%TO.N,/P4_OE_N*%
X55862500Y-9050000D03*
%TO.P,U402,2*%
%TO.N,/MOSI*%
X55862500Y-10000000D03*
%TO.P,U402,3*%
%TO.N,/GND*%
X55862500Y-10950000D03*
%TO.P,U402,4*%
%TO.N,/P4_MOSI_DRV*%
X58137500Y-10950000D03*
%TO.P,U402,5*%
%TO.N,/P4_3V3*%
X58137500Y-9050000D03*
%TD*%
D15*
%TO.P,Q2,1*%
%TO.N,/IO_ENABLE*%
X20062500Y-34050000D03*
%TO.P,Q2,2*%
%TO.N,/GND*%
X20062500Y-35950000D03*
%TO.P,Q2,3*%
%TO.N,/P2_OE_N*%
X21937500Y-35000000D03*
%TD*%
D12*
%TO.P,U101,1*%
%TO.N,/P1_OE_N*%
X14862500Y-5050000D03*
%TO.P,U101,2*%
%TO.N,/SCK*%
X14862500Y-6000000D03*
%TO.P,U101,3*%
%TO.N,/GND*%
X14862500Y-6950000D03*
%TO.P,U101,4*%
%TO.N,/P1_SCK_DRV*%
X17137500Y-6950000D03*
%TO.P,U101,5*%
%TO.N,/P1_3V3*%
X17137500Y-5050000D03*
%TD*%
%TO.P,U401,1*%
%TO.N,/P4_OE_N*%
X52862500Y-5050000D03*
%TO.P,U401,2*%
%TO.N,/SCK*%
X52862500Y-6000000D03*
%TO.P,U401,3*%
%TO.N,/GND*%
X52862500Y-6950000D03*
%TO.P,U401,4*%
%TO.N,/P4_SCK_DRV*%
X55137500Y-6950000D03*
%TO.P,U401,5*%
%TO.N,/P4_3V3*%
X55137500Y-5050000D03*
%TD*%
%TO.P,U204,1*%
%TO.N,/CS2*%
X16862500Y-29550000D03*
%TO.P,U204,2*%
%TO.N,/P2_MISO*%
X16862500Y-30500000D03*
%TO.P,U204,3*%
%TO.N,/GND*%
X16862500Y-31450000D03*
%TO.P,U204,4*%
%TO.N,/MISO*%
X19137500Y-31450000D03*
%TO.P,U204,5*%
%TO.N,/MCU_3V3*%
X19137500Y-29550000D03*
%TD*%
D15*
%TO.P,Q6,1*%
%TO.N,/IO_ENABLE*%
X48062500Y-53050000D03*
%TO.P,Q6,2*%
%TO.N,/GND*%
X48062500Y-54950000D03*
%TO.P,Q6,3*%
%TO.N,/P6_OE_N*%
X49937500Y-54000000D03*
%TD*%
D12*
%TO.P,U501,1*%
%TO.N,/P5_OE_N*%
X55862500Y-24050000D03*
%TO.P,U501,2*%
%TO.N,/SCK*%
X55862500Y-25000000D03*
%TO.P,U501,3*%
%TO.N,/GND*%
X55862500Y-25950000D03*
%TO.P,U501,4*%
%TO.N,/P5_SCK_DRV*%
X58137500Y-25950000D03*
%TO.P,U501,5*%
%TO.N,/P5_3V3*%
X58137500Y-24050000D03*
%TD*%
%TO.P,U600,1*%
%TO.N,/SENSOR_3V3*%
X48862500Y-41550000D03*
%TO.P,U600,2*%
%TO.N,/GND*%
X48862500Y-42500000D03*
%TO.P,U600,3*%
%TO.N,/SENSOR_3V3*%
X48862500Y-43450000D03*
%TO.P,U600,4*%
%TO.N,/P6_FAULT_N*%
X51137500Y-43450000D03*
%TO.P,U600,5*%
%TO.N,/P6_ILIM*%
X51137500Y-42500000D03*
%TO.P,U600,6*%
%TO.N,/P6_3V3*%
X51137500Y-41550000D03*
%TD*%
D15*
%TO.P,Q5,1*%
%TO.N,/IO_ENABLE*%
X48062500Y-34050000D03*
%TO.P,Q5,2*%
%TO.N,/GND*%
X48062500Y-35950000D03*
%TO.P,Q5,3*%
%TO.N,/P5_OE_N*%
X49937500Y-35000000D03*
%TD*%
D21*
%TO.N,/VIN_5V*%
X33500000Y-40554400D03*
X34000000Y-52573900D03*
X28984300Y-28484300D03*
D22*
%TO.N,/GND*%
X20062500Y-36850000D03*
X17175000Y-27900000D03*
X11862500Y-49850000D03*
X11862500Y-34850000D03*
X15225000Y-22900000D03*
X60175000Y-15900000D03*
X54225000Y-14900000D03*
X13325000Y-29000000D03*
X3150000Y-52025000D03*
X52225000Y-44100000D03*
X15225000Y-41900000D03*
X54225000Y-52900000D03*
X16862500Y-51350000D03*
X11862500Y-15850000D03*
X58225000Y-21900000D03*
X52225000Y-25100000D03*
X53225000Y-22900000D03*
X55862500Y-45850000D03*
X11862500Y-45850000D03*
X17175000Y-8900000D03*
X14862500Y-7850000D03*
X3150000Y-33025000D03*
X66850000Y-24975000D03*
X49825000Y-34000000D03*
X54225000Y-47100000D03*
X8175000Y-34900000D03*
X55862500Y-34850000D03*
X13325000Y-52000000D03*
X16225000Y-43900000D03*
X20675000Y-8900000D03*
X48062500Y-36850000D03*
X55862500Y-53850000D03*
X34175000Y-28900000D03*
X51762500Y-6950000D03*
X55862500Y-15850000D03*
X7275000Y-23000000D03*
X66850000Y-43975000D03*
X47262500Y-4500000D03*
X51175000Y-46900000D03*
X55862500Y-11850000D03*
X60175000Y-42900000D03*
X17175000Y-46900000D03*
X17725000Y-15900000D03*
X66850000Y-5975000D03*
X55862500Y-26850000D03*
X20062500Y-17850000D03*
X15362500Y-42500000D03*
X48062500Y-55850000D03*
X20062500Y-55850000D03*
X13325000Y-48000000D03*
X20675000Y-46900000D03*
X33900000Y-44000000D03*
X55862500Y-30850000D03*
X54225000Y-28100000D03*
X60175000Y-7400000D03*
X47762500Y-23500000D03*
X60175000Y-34900000D03*
X49825000Y-15000000D03*
X38225000Y-48900000D03*
X48062500Y-17850000D03*
X11862500Y-26850000D03*
X50862500Y-51350000D03*
X16862500Y-13350000D03*
X3150000Y-14025000D03*
X47675000Y-8900000D03*
X17725000Y-34900000D03*
X13325000Y-33000000D03*
X15225000Y-3900000D03*
X17725000Y-53900000D03*
X49825000Y-53000000D03*
X47762500Y-42500000D03*
X11862500Y-53850000D03*
X16225000Y-24900000D03*
X55862500Y-49850000D03*
X51175000Y-27900000D03*
X20675000Y-27900000D03*
X52225000Y-4100000D03*
X16225000Y-5900000D03*
X13325000Y-14000000D03*
X10225000Y-21900000D03*
X29225000Y-48900000D03*
X54225000Y-33900000D03*
X11725000Y-7400000D03*
X51175000Y-8900000D03*
X8175000Y-53900000D03*
X13325000Y-10000000D03*
X50862500Y-13350000D03*
X18462500Y-2800000D03*
X15362500Y-23500000D03*
X54225000Y-9100000D03*
X56725000Y-7400000D03*
X60175000Y-53900000D03*
X16862500Y-32350000D03*
X58225000Y-40900000D03*
X47675000Y-27900000D03*
X4775000Y-4000000D03*
X11862500Y-30850000D03*
X53225000Y-41900000D03*
X36900000Y-56000000D03*
X60175000Y-23900000D03*
X10225000Y-40900000D03*
X8175000Y-15900000D03*
X50862500Y-32350000D03*
X7275000Y-42000000D03*
X47675000Y-46900000D03*
X11862500Y-11850000D03*
X53225000Y-3900000D03*
%TO.N,/P2_OE_N*%
X20697300Y-35117700D03*
%TO.N,/SCK*%
X13710800Y-5515800D03*
X10088800Y-25993100D03*
X31506800Y-18004400D03*
X7549000Y-45171700D03*
%TO.N,/P2_SCK_DRV*%
X12845800Y-26573400D03*
D21*
%TO.N,/P2_3V3*%
X21852400Y-29372200D03*
X4683500Y-30875000D03*
X11776600Y-22124600D03*
X22013900Y-21673600D03*
D22*
%TO.N,/P3_OE_N*%
X12674500Y-50238000D03*
X21175000Y-52001300D03*
X10676800Y-47184100D03*
%TO.N,/P3_SCK_DRV*%
X13982900Y-45754800D03*
D21*
%TO.N,/P3_3V3*%
X14445900Y-50100200D03*
X22438500Y-41466400D03*
X4537100Y-50424200D03*
X13949700Y-44000000D03*
D22*
%TO.N,/SENSOR_3V3*%
X22725000Y-38000000D03*
X18862500Y-21650000D03*
X48862500Y-40650000D03*
X50725000Y-38000000D03*
X19362500Y-2650000D03*
X55675000Y-22000000D03*
X50725000Y-19000000D03*
X40675000Y-48000000D03*
X17675000Y-41000000D03*
X55675000Y-3000000D03*
X18862500Y-40650000D03*
X22725000Y-19000000D03*
X48362500Y-2650000D03*
X17675000Y-3000000D03*
X17675000Y-22000000D03*
X48862500Y-25350000D03*
X48862500Y-21650000D03*
X18862500Y-44350000D03*
X19362500Y-6350000D03*
X50725000Y-57000000D03*
X48862500Y-44350000D03*
X18862500Y-25350000D03*
X37900000Y-44000000D03*
X22725000Y-57000000D03*
X48362500Y-6350000D03*
X55675000Y-41000000D03*
%TO.N,/P5_FAULT_N*%
X48211200Y-28500200D03*
%TO.N,/P5_ILIM*%
X49896400Y-25011100D03*
%TO.N,/P5_3V3*%
X59287400Y-23582900D03*
%TO.N,/CS4*%
X34842500Y-15069600D03*
X52175000Y-16297900D03*
X45590800Y-10733900D03*
%TO.N,/P4_MISO*%
X59459000Y-11143000D03*
X52825000Y-11533000D03*
%TO.N,/MISO*%
X47891400Y-44720000D03*
X24869000Y-37589700D03*
X39825000Y-27021400D03*
X53370700Y-49640100D03*
X24074700Y-48551200D03*
D21*
%TO.N,/MCU_3V3*%
X22256500Y-51560400D03*
D22*
X51504700Y-47701700D03*
D21*
X52452500Y-35302400D03*
X17825000Y-38159400D03*
X18869300Y-17580000D03*
X41816300Y-48164800D03*
D22*
%TO.N,/MOSI*%
X13141600Y-27431500D03*
X20342900Y-21305800D03*
X5245700Y-41997700D03*
X12003900Y-23242900D03*
X50523400Y-28530300D03*
X29889800Y-20408300D03*
X64430400Y-6880000D03*
X35202700Y-16493800D03*
X56828500Y-46257400D03*
%TO.N,/P2_MOSI_DRV*%
X14438700Y-30773700D03*
%TO.N,/P3_MOSI_DRV*%
X4036900Y-55295400D03*
X11639500Y-55888400D03*
X4204500Y-51864200D03*
X10379700Y-49716600D03*
X12561200Y-54519900D03*
%TO.N,/CS5*%
X31923700Y-26163700D03*
X51986000Y-31928100D03*
X53421500Y-33781900D03*
%TO.N,/P5_MISO*%
X52164500Y-21723900D03*
X49696700Y-29731800D03*
%TO.N,/P6_OE_N*%
X47175000Y-52074600D03*
%TO.N,/P6_SCK_DRV*%
X61825000Y-45747500D03*
%TO.N,/P6_3V3*%
X59353500Y-46851900D03*
X59306700Y-43050000D03*
D21*
X53130500Y-44591100D03*
X50226400Y-46778800D03*
D22*
%TO.N,/P6_MOSI_DRV*%
X63718300Y-48950000D03*
%TO.N,/P6_SCK*%
X68026900Y-47999800D03*
%TO.N,/P6_MOSI*%
X63111500Y-47975800D03*
%TO.N,/P6_MISO*%
X51522400Y-51972600D03*
X51270000Y-56050500D03*
%TO.N,/P6_CS*%
X59424900Y-50249900D03*
X60175000Y-55990000D03*
%TO.N,/P5_SCK*%
X65189800Y-28310100D03*
%TO.N,/P5_MOSI*%
X65674800Y-28975800D03*
%TO.N,/P5_CS*%
X60347600Y-32977600D03*
%TO.N,/P1_OE_N*%
X20665700Y-16000000D03*
X11047500Y-12235000D03*
X9799500Y-10987000D03*
%TO.N,/P1_MOSI_DRV*%
X12891500Y-11534000D03*
D21*
%TO.N,/P1_3V3*%
X4658300Y-11892600D03*
X22956900Y-3799200D03*
D22*
%TO.N,/IO_ENABLE*%
X36841000Y-33236200D03*
X35826600Y-17809900D03*
X23493400Y-31817500D03*
X34658100Y-51820900D03*
X21301100Y-32866300D03*
X33987000Y-32304800D03*
%TO.N,/P4_OE_N*%
X47175000Y-13580600D03*
%TO.N,/CS2*%
X13065500Y-34474500D03*
X14366300Y-34774300D03*
%TO.N,/P2_CS_DRV*%
X9342900Y-31020900D03*
%TO.N,/P2_FAULT_N*%
X21934000Y-25246500D03*
%TO.N,/P2_ILIM*%
X22817000Y-23849200D03*
%TO.N,/P4_3V3*%
X58137500Y-8181100D03*
%TO.N,/P4_SCK*%
X64465700Y-9140700D03*
%TO.N,/P4_MOSI*%
X64778500Y-9975800D03*
%TO.N,/P4_CS*%
X60175000Y-12022000D03*
%TO.N,/P3_SCK*%
X4635800Y-48962900D03*
%TO.N,/P3_MOSI*%
X8004400Y-46996500D03*
%TO.N,/P3_MISO*%
X15055600Y-46383000D03*
X10946400Y-46326800D03*
X18825000Y-47740000D03*
%TO.N,/P3_CS*%
X4513700Y-44875000D03*
%TO.N,/P4_CS_DRV*%
X60743200Y-14081800D03*
%TO.N,/CS6*%
X52175000Y-54033900D03*
%TO.N,/P6_CS_DRV*%
X58137500Y-53774900D03*
%TO.N,/P2_SCK*%
X1304700Y-30104300D03*
%TO.N,/P2_MOSI*%
X6255300Y-28299900D03*
%TO.N,/P2_MISO*%
X19907900Y-32273500D03*
%TO.N,/P2_CS*%
X4530700Y-26987500D03*
%TO.N,/P3_FAULT_N*%
X23228300Y-45540800D03*
%TO.N,/P3_ILIM*%
X22325000Y-42849200D03*
%TO.N,/P1_FAULT_N*%
X23000000Y-8794500D03*
%TO.N,/P1_ILIM*%
X22810800Y-4849200D03*
%TO.N,/CS1*%
X19656100Y-9529800D03*
X16175000Y-16406200D03*
%TO.N,/P1_CS_DRV*%
X13017400Y-15449500D03*
%TO.N,/CS3*%
X15246800Y-55799900D03*
%TO.N,/P3_CS_DRV*%
X14137500Y-53780400D03*
%TO.N,/P5_OE_N*%
X57326500Y-27049800D03*
X54727600Y-27461600D03*
X56918700Y-31461100D03*
X48733300Y-33232500D03*
%TO.N,/P5_CS_DRV*%
X62147700Y-33000000D03*
%TO.N,/P5_MOSI_DRV*%
X58941600Y-29145900D03*
%TO.N,/P4_FAULT_N*%
X49500000Y-3097000D03*
%TO.N,/P4_ILIM*%
X49325000Y-6797900D03*
%TO.N,/P1_MISO*%
X15384900Y-12798900D03*
X10467200Y-8125000D03*
X18051700Y-10046100D03*
%TO.N,/P1_SCK*%
X4304600Y-10003700D03*
%TO.N,/P1_MOSI*%
X8175000Y-8727800D03*
%TO.N,/P1_CS*%
X4324500Y-7493600D03*
%TO.N,/P4_MOSI_DRV*%
X60995200Y-10653000D03*
%TO.N,/P1_SCK_DRV*%
X20724600Y-7005200D03*
X24304200Y-8914600D03*
X24304200Y-818100D03*
X18466600Y-6635400D03*
X10295400Y-5389000D03*
%TO.N,/P4_SCK_DRV*%
X50250000Y-8173200D03*
%TO.N,/P5_SCK_DRV*%
X59330500Y-25950000D03*
%TO.N,/P6_FAULT_N*%
X48737800Y-46887200D03*
%TO.N,/P6_ILIM*%
X50018000Y-43928700D03*
%TD*%
%TO.N,/VIN_5V*%
D23*
X27500000Y-27000000D02*
X28984300Y-28484300D01*
X34000000Y-52573900D02*
X34000000Y-56000000D01*
X35000000Y-42054400D02*
X33500000Y-40554400D01*
X35000000Y-44000000D02*
X35000000Y-42054400D01*
%TO.N,/GND*%
D24*
X18862500Y-23500000D02*
X15362500Y-23500000D01*
X50862500Y-12450000D02*
X50862500Y-13350000D01*
X66850000Y-25875000D02*
X66850000Y-24975000D01*
X55862500Y-44950000D02*
X55862500Y-45850000D01*
X66850000Y-44875000D02*
X66850000Y-43975000D01*
X14862500Y-6950000D02*
X14862500Y-7850000D01*
X50862500Y-50450000D02*
X50862500Y-51350000D01*
X20062500Y-16950000D02*
X20062500Y-17850000D01*
X55862500Y-25950000D02*
X55862500Y-26850000D01*
X11862500Y-48950000D02*
X11862500Y-49850000D01*
X11862500Y-25950000D02*
X11862500Y-26850000D01*
X36000000Y-56000000D02*
X36900000Y-56000000D01*
X55862500Y-52950000D02*
X55862500Y-53850000D01*
X3150000Y-51125000D02*
X3150000Y-52025000D01*
X52862500Y-6950000D02*
X51762500Y-6950000D01*
X66850000Y-6875000D02*
X66850000Y-5975000D01*
X11862500Y-33950000D02*
X11862500Y-34850000D01*
X3150000Y-13125000D02*
X3150000Y-14025000D01*
X16862500Y-31450000D02*
X16862500Y-32350000D01*
X19362500Y-4500000D02*
X18362500Y-4500000D01*
X48862500Y-42500000D02*
X47762500Y-42500000D01*
X11862500Y-29950000D02*
X11862500Y-30850000D01*
X33000000Y-44000000D02*
X33900000Y-44000000D01*
X18362500Y-4500000D02*
X18362500Y-2800000D01*
X55862500Y-33950000D02*
X55862500Y-34850000D01*
X55862500Y-14950000D02*
X55862500Y-15850000D01*
X11862500Y-44950000D02*
X11862500Y-45850000D01*
X18362500Y-2800000D02*
X18462500Y-2800000D01*
X20062500Y-35950000D02*
X20062500Y-36850000D01*
X18862500Y-42500000D02*
X15362500Y-42500000D01*
X11862500Y-52950000D02*
X11862500Y-53850000D01*
X55862500Y-48950000D02*
X55862500Y-49850000D01*
X55862500Y-10950000D02*
X55862500Y-11850000D01*
X16862500Y-12450000D02*
X16862500Y-13350000D01*
X48062500Y-54950000D02*
X48062500Y-55850000D01*
X48062500Y-35950000D02*
X48062500Y-36850000D01*
X55862500Y-29950000D02*
X55862500Y-30850000D01*
X3150000Y-32125000D02*
X3150000Y-33025000D01*
X20062500Y-54950000D02*
X20062500Y-55850000D01*
X50862500Y-31450000D02*
X50862500Y-32350000D01*
X48362500Y-4500000D02*
X47262500Y-4500000D01*
X11862500Y-10950000D02*
X11862500Y-11850000D01*
X16862500Y-50450000D02*
X16862500Y-51350000D01*
X48062500Y-16950000D02*
X48062500Y-17850000D01*
X48862500Y-23500000D02*
X47762500Y-23500000D01*
X11862500Y-14950000D02*
X11862500Y-15850000D01*
%TO.N,/P2_OE_N*%
X17458000Y-36282400D02*
X11230400Y-36282400D01*
X8821100Y-25211200D02*
X9420500Y-25810600D01*
X11862500Y-24050000D02*
X11181100Y-24050000D01*
X5122700Y-30174700D02*
X5122700Y-30046300D01*
X18622700Y-35117700D02*
X17458000Y-36282400D01*
X9420500Y-26308800D02*
X11161700Y-28050000D01*
X20697300Y-35117700D02*
X21819800Y-35117700D01*
X9420500Y-25810600D02*
X9420500Y-26308800D01*
X10897500Y-31085000D02*
X10897500Y-28314200D01*
X11862500Y-32050000D02*
X10897500Y-31085000D01*
X11181100Y-24050000D02*
X9420500Y-25810600D01*
X20697300Y-35117700D02*
X18622700Y-35117700D01*
X10897500Y-28314200D02*
X11161700Y-28050000D01*
X4076500Y-29000100D02*
X2271600Y-29000100D01*
X21819800Y-35117700D02*
X21937500Y-35000000D01*
X1959800Y-28688300D02*
X1959800Y-25566500D01*
X11230400Y-36282400D02*
X5122700Y-30174700D01*
X5122700Y-30046300D02*
X4076500Y-29000100D01*
X11161700Y-28050000D02*
X11862500Y-28050000D01*
X1959800Y-25566500D02*
X2315100Y-25211200D01*
X2315100Y-25211200D02*
X8821100Y-25211200D01*
X2271600Y-29000100D02*
X1959800Y-28688300D01*
%TO.N,/SCK*%
X14862500Y-6000000D02*
X14195000Y-6000000D01*
X55862500Y-25000000D02*
X53195800Y-25000000D01*
X50000900Y-7571500D02*
X49925400Y-7647000D01*
X64362000Y-21023000D02*
X46609600Y-21023000D01*
X58302000Y-42223800D02*
X68411100Y-32114700D01*
X47978500Y-29119600D02*
X45586300Y-26727400D01*
X48460900Y-29119600D02*
X47978500Y-29119600D01*
X68411100Y-32114700D02*
X68411100Y-25072100D01*
X34240800Y-14820500D02*
X34240800Y-15270400D01*
X57000000Y-42842700D02*
X57618900Y-42223800D01*
X68411100Y-25072100D02*
X64362000Y-21023000D01*
X8720700Y-44000000D02*
X11862500Y-44000000D01*
X7549000Y-45171700D02*
X8720700Y-44000000D01*
X57000000Y-43287700D02*
X57000000Y-42842700D01*
X49324700Y-28255800D02*
X48460900Y-29119600D01*
X53240800Y-6000000D02*
X53870400Y-6629600D01*
X41864200Y-7647000D02*
X35043300Y-14467900D01*
X53195800Y-25000000D02*
X49940000Y-28255800D01*
X45586300Y-26727400D02*
X45586300Y-22046300D01*
X55862500Y-44000000D02*
X56287700Y-44000000D01*
X32582400Y-19080000D02*
X42620000Y-19080000D01*
X45586300Y-22046300D02*
X42620000Y-19080000D01*
X52862500Y-6000000D02*
X53240800Y-6000000D01*
X46609600Y-21023000D02*
X45586300Y-22046300D01*
X35043300Y-14467900D02*
X34593400Y-14467900D01*
X34593400Y-14467900D02*
X34240800Y-14820500D01*
X10088800Y-25993100D02*
X11081900Y-25000000D01*
X53870400Y-6629600D02*
X53870400Y-7260200D01*
X56287700Y-44000000D02*
X57000000Y-43287700D01*
X11081900Y-25000000D02*
X11862500Y-25000000D01*
X53870400Y-7260200D02*
X53559100Y-7571500D01*
X14195000Y-6000000D02*
X13710800Y-5515800D01*
X49940000Y-28255800D02*
X49324700Y-28255800D01*
X31506800Y-18004400D02*
X32582400Y-19080000D01*
X57618900Y-42223800D02*
X58302000Y-42223800D01*
X49925400Y-7647000D02*
X41864200Y-7647000D01*
X53559100Y-7571500D02*
X50000900Y-7571500D01*
X34240800Y-15270400D02*
X31506800Y-18004400D01*
%TO.N,/P2_SCK_DRV*%
X12845800Y-26573400D02*
X13514100Y-26573400D01*
X13514100Y-26573400D02*
X14137500Y-25950000D01*
%TO.N,/P2_3V3*%
D25*
X14137500Y-24050000D02*
X12212100Y-22124600D01*
X14255800Y-32050000D02*
X14137500Y-32050000D01*
X14137500Y-27741800D02*
X15983400Y-25895900D01*
X15983400Y-25895900D02*
X14137500Y-24050000D01*
X14137500Y-28050000D02*
X14137500Y-27741800D01*
X21852400Y-29372200D02*
X21074800Y-29372200D01*
X15229400Y-29141900D02*
X15229400Y-31076400D01*
X21074800Y-29372200D02*
X17598500Y-25895900D01*
X3150000Y-30875000D02*
X4683500Y-30875000D01*
X22013900Y-21673600D02*
X21137500Y-22550000D01*
X12212100Y-22124600D02*
X11776600Y-22124600D01*
X17598500Y-25895900D02*
X15983400Y-25895900D01*
X15229400Y-31076400D02*
X14255800Y-32050000D01*
X14137500Y-28050000D02*
X15229400Y-29141900D01*
%TO.N,/P3_OE_N*%
D24*
X1577200Y-44353800D02*
X1577200Y-51345300D01*
X4260300Y-52659300D02*
X4811000Y-52108600D01*
X4559600Y-41371400D02*
X1577200Y-44353800D01*
X10432400Y-52108600D02*
X10432400Y-53869000D01*
X11491000Y-51050000D02*
X11862500Y-51050000D01*
X11728400Y-47184100D02*
X11862500Y-47050000D01*
X7872300Y-41371400D02*
X4559600Y-41371400D01*
X1577200Y-51345300D02*
X2891200Y-52659300D01*
X11897400Y-55274900D02*
X13033400Y-56410900D01*
X18980900Y-53352800D02*
X18980900Y-52701000D01*
X19061800Y-53433700D02*
X18980900Y-53352800D01*
X10432400Y-53869000D02*
X11838300Y-55274900D01*
X18980900Y-52701000D02*
X19680600Y-52001300D01*
X4811000Y-52108600D02*
X10432400Y-52108600D01*
X16084600Y-56410900D02*
X19061800Y-53433700D01*
X10676800Y-47184100D02*
X11728400Y-47184100D01*
X19680600Y-52001300D02*
X21175000Y-52001300D01*
X19628100Y-54000000D02*
X19061800Y-53433700D01*
X9550900Y-43050000D02*
X7872300Y-41371400D01*
X11838300Y-55274900D02*
X11897400Y-55274900D01*
X10432400Y-52108600D02*
X11491000Y-51050000D01*
X2891200Y-52659300D02*
X4260300Y-52659300D01*
X11862500Y-51050000D02*
X12674500Y-50238000D01*
X21937500Y-54000000D02*
X19628100Y-54000000D01*
X13033400Y-56410900D02*
X16084600Y-56410900D01*
X11862500Y-43050000D02*
X9550900Y-43050000D01*
%TO.N,/P3_SCK_DRV*%
X13982900Y-45754800D02*
X13982900Y-45104600D01*
X13982900Y-45104600D02*
X14137500Y-44950000D01*
%TO.N,/P3_3V3*%
D25*
X13607400Y-44000000D02*
X13030300Y-44577100D01*
X13949700Y-44000000D02*
X13949700Y-43237800D01*
D26*
X3699200Y-50424200D02*
X3150000Y-49875000D01*
D25*
X13030300Y-44577100D02*
X13030300Y-45942800D01*
X13949700Y-43237800D02*
X14137500Y-43050000D01*
X14445900Y-50100200D02*
X14137500Y-50408600D01*
D26*
X4537100Y-50424200D02*
X3699200Y-50424200D01*
D25*
X21221100Y-41466400D02*
X22438500Y-41466400D01*
X21137500Y-41550000D02*
X21221100Y-41466400D01*
X13949700Y-44000000D02*
X13607400Y-44000000D01*
X14137500Y-50408600D02*
X14137500Y-51050000D01*
X13030300Y-45942800D02*
X14137500Y-47050000D01*
%TO.N,/SENSOR_3V3*%
X48862500Y-41550000D02*
X48862500Y-40650000D01*
X18862500Y-22550000D02*
X18862500Y-21650000D01*
X48862500Y-24450000D02*
X48862500Y-25350000D01*
X37000000Y-44000000D02*
X37900000Y-44000000D01*
X18862500Y-43450000D02*
X18862500Y-44350000D01*
X48862500Y-43450000D02*
X48862500Y-44350000D01*
X19362500Y-5450000D02*
X19362500Y-6350000D01*
X19362500Y-3550000D02*
X19362500Y-2650000D01*
X48362500Y-5450000D02*
X48362500Y-6350000D01*
X18862500Y-24450000D02*
X18862500Y-25350000D01*
X48362500Y-3550000D02*
X48362500Y-2650000D01*
X18862500Y-41550000D02*
X18862500Y-40650000D01*
X48862500Y-22550000D02*
X48862500Y-21650000D01*
%TO.N,/P5_FAULT_N*%
D24*
X48275200Y-28500200D02*
X48211200Y-28500200D01*
X51137500Y-24450000D02*
X51137500Y-25197500D01*
X51137500Y-25197500D02*
X48464200Y-27870800D01*
D27*
X48275200Y-28500200D02*
X48275200Y-28059800D01*
X48275200Y-28059800D02*
X48464200Y-27870800D01*
%TO.N,/P5_ILIM*%
X50788300Y-23849200D02*
X51137500Y-23500000D01*
X50036400Y-23849200D02*
X50788300Y-23849200D01*
D24*
X50036400Y-23849200D02*
X49896400Y-23989200D01*
X49896400Y-23989200D02*
X49896400Y-25011100D01*
%TO.N,/P5_3V3*%
D25*
X60035900Y-27125000D02*
X60035900Y-25647900D01*
X57071100Y-30453100D02*
X57071100Y-29116400D01*
X51631100Y-22550000D02*
X52717400Y-23636300D01*
X60035900Y-25647900D02*
X58438000Y-24050000D01*
X57433100Y-23345600D02*
X58137500Y-24050000D01*
X51137500Y-22550000D02*
X51631100Y-22550000D01*
X52717400Y-23636300D02*
X54313300Y-23636300D01*
D26*
X66850000Y-27125000D02*
X60071300Y-27125000D01*
D25*
X57071100Y-29116400D02*
X58137500Y-28050000D01*
X58820300Y-24050000D02*
X58137500Y-24050000D01*
X58137500Y-31519500D02*
X57071100Y-30453100D01*
X59062500Y-27125000D02*
X58137500Y-28050000D01*
X58438000Y-24050000D02*
X58137500Y-24050000D01*
X54604000Y-23345600D02*
X57433100Y-23345600D01*
X54313300Y-23636300D02*
X54604000Y-23345600D01*
X60071300Y-27125000D02*
X60035900Y-27125000D01*
X58137500Y-32050000D02*
X58137500Y-31519500D01*
X60035900Y-27125000D02*
X59062500Y-27125000D01*
X59287400Y-23582900D02*
X58820300Y-24050000D01*
%TO.N,/CS4*%
D24*
X38065400Y-15069600D02*
X34842500Y-15069600D01*
X50678600Y-10733900D02*
X45590800Y-10733900D01*
X55862500Y-14000000D02*
X55485800Y-14000000D01*
X55485800Y-14000000D02*
X54862200Y-14623600D01*
X43663000Y-12661700D02*
X40473300Y-12661700D01*
X54862200Y-14623600D02*
X54862200Y-15146800D01*
X54862200Y-15146800D02*
X53711100Y-16297900D01*
X50862500Y-10550000D02*
X50678600Y-10733900D01*
X53711100Y-16297900D02*
X52175000Y-16297900D01*
X40473300Y-12661700D02*
X38065400Y-15069600D01*
X45590800Y-10733900D02*
X43663000Y-12661700D01*
%TO.N,/P4_MISO*%
X66850000Y-11875000D02*
X61079000Y-11875000D01*
X50895500Y-11533000D02*
X52825000Y-11533000D01*
X60347000Y-11143000D02*
X59459000Y-11143000D01*
X50862500Y-11500000D02*
X50895500Y-11533000D01*
X61079000Y-11875000D02*
X60347000Y-11143000D01*
%TO.N,/MISO*%
X46200700Y-12959300D02*
X49258600Y-12959300D01*
X22604100Y-30138000D02*
X22604100Y-31779000D01*
X53137500Y-50450000D02*
X53370700Y-50216800D01*
X18450500Y-28906700D02*
X19819500Y-28906700D01*
X17080600Y-17986900D02*
X19729400Y-20635700D01*
X19137500Y-31412300D02*
X18137600Y-30412400D01*
X19137500Y-31450000D02*
X19137500Y-31412300D01*
X47124800Y-40062700D02*
X47124800Y-43953400D01*
X19729400Y-21839000D02*
X20087200Y-22196800D01*
X51010800Y-33000000D02*
X51010800Y-36176700D01*
X22604100Y-31779000D02*
X23816300Y-32991200D01*
X47124800Y-43953400D02*
X47891400Y-44720000D01*
X51010800Y-36176700D02*
X47124800Y-40062700D01*
X39825000Y-27317700D02*
X39825000Y-27021400D01*
X21050800Y-30138000D02*
X22604100Y-30138000D01*
X34151500Y-32991200D02*
X39825000Y-27317700D01*
X51010800Y-33000000D02*
X51810400Y-33000000D01*
X19137500Y-50450000D02*
X22175900Y-50450000D01*
X18137600Y-29219600D02*
X18450500Y-28906700D01*
X20087200Y-25769800D02*
X22604100Y-28286700D01*
X24869000Y-32991200D02*
X34151500Y-32991200D01*
X53137500Y-31672900D02*
X53137500Y-31450000D01*
X42620000Y-16540000D02*
X46200700Y-12959300D01*
X23816300Y-32991200D02*
X24869000Y-32991200D01*
X43508600Y-27021400D02*
X49487200Y-33000000D01*
X24869000Y-37589700D02*
X24869000Y-32991200D01*
X39825000Y-27021400D02*
X43508600Y-27021400D01*
X19819500Y-28906700D02*
X21050800Y-30138000D01*
X49258600Y-12959300D02*
X50266800Y-13967500D01*
X22604100Y-28286700D02*
X22604100Y-30138000D01*
X19137500Y-12450000D02*
X17080600Y-14506900D01*
X18137600Y-30412400D02*
X18137600Y-29219600D01*
X53370700Y-50216800D02*
X53370700Y-49640100D01*
X17080600Y-14506900D02*
X17080600Y-17986900D01*
X19729400Y-20635700D02*
X19729400Y-21839000D01*
X20087200Y-22196800D02*
X20087200Y-25769800D01*
X50266800Y-13967500D02*
X51620000Y-13967500D01*
X51810400Y-33000000D02*
X53137500Y-31672900D01*
X51620000Y-13967500D02*
X53137500Y-12450000D01*
X49487200Y-33000000D02*
X51010800Y-33000000D01*
X22175900Y-50450000D02*
X24074700Y-48551200D01*
%TO.N,/MCU_3V3*%
D23*
X21108800Y-47749500D02*
X20308300Y-48550000D01*
X24074700Y-41048900D02*
X24074700Y-47749500D01*
X51670100Y-47655700D02*
X51624100Y-47701700D01*
X51624100Y-47701700D02*
X51504700Y-47701700D01*
X20308300Y-48550000D02*
X19137500Y-48550000D01*
X52600100Y-46678900D02*
X52600100Y-47655700D01*
X44378300Y-9701700D02*
X52289200Y-9701700D01*
X52452500Y-33561000D02*
X52452500Y-35302400D01*
X24892200Y-48924700D02*
X22256500Y-51560400D01*
X21185200Y-38159400D02*
X24074700Y-41048900D01*
X41131100Y-48850000D02*
X40083200Y-48850000D01*
X42279400Y-47701700D02*
X41816300Y-48164800D01*
X42620000Y-11460000D02*
X44378300Y-9701700D01*
X54330700Y-31841900D02*
X53214500Y-32958100D01*
X53214500Y-32958100D02*
X53055400Y-32958100D01*
X41816300Y-48164800D02*
X41131100Y-48850000D01*
X20302300Y-11714800D02*
X20302300Y-12870300D01*
X24074700Y-47749500D02*
X21108800Y-47749500D01*
X52289200Y-9701700D02*
X53137500Y-10550000D01*
X20302300Y-12870300D02*
X18809300Y-14363300D01*
X24548300Y-47749500D02*
X24892200Y-48093400D01*
X18809300Y-14363300D02*
X18809300Y-17520000D01*
X52600100Y-47655700D02*
X53137500Y-48193100D01*
X54035900Y-45243100D02*
X52600100Y-46678900D01*
X18809300Y-17520000D02*
X18869300Y-17580000D01*
X54330700Y-30743200D02*
X54330700Y-31841900D01*
X53137500Y-29550000D02*
X54330700Y-30743200D01*
X53137500Y-48193100D02*
X53137500Y-48550000D01*
X39326600Y-48093400D02*
X24892200Y-48093400D01*
X40083200Y-48850000D02*
X39326600Y-48093400D01*
X19137500Y-29550000D02*
X23219500Y-33632000D01*
X24892200Y-48093400D02*
X24892200Y-48924700D01*
X21185200Y-38159400D02*
X17825000Y-38159400D01*
X52452500Y-35302400D02*
X54035900Y-36885800D01*
X23219500Y-36125100D02*
X21185200Y-38159400D01*
X54035900Y-36885800D02*
X54035900Y-45243100D01*
X51504700Y-47701700D02*
X42279400Y-47701700D01*
X23219500Y-33632000D02*
X23219500Y-36125100D01*
D28*
X51670100Y-47655700D02*
X52600100Y-47655700D01*
D23*
X19137500Y-10550000D02*
X20302300Y-11714800D01*
X53055400Y-32958100D02*
X52452500Y-33561000D01*
X24074700Y-47749500D02*
X24548300Y-47749500D01*
%TO.N,/MOSI*%
D24*
X42620000Y-14000000D02*
X40126200Y-16493800D01*
X21240400Y-20408300D02*
X20342900Y-21305800D01*
X13141600Y-27431500D02*
X13141600Y-28152400D01*
X29889800Y-20408300D02*
X21240400Y-20408300D01*
X55862500Y-29000000D02*
X53903600Y-29000000D01*
X55862500Y-48000000D02*
X56248500Y-48000000D01*
X2608000Y-43891000D02*
X3352400Y-43891000D01*
X1978900Y-44520100D02*
X2608000Y-43891000D01*
X10350100Y-20494700D02*
X10826700Y-20971300D01*
X11510300Y-10000000D02*
X10447300Y-11063000D01*
X11862500Y-10000000D02*
X11510300Y-10000000D01*
X1978900Y-47782500D02*
X1978900Y-44520100D01*
X53433900Y-28530300D02*
X50523400Y-28530300D01*
X3352400Y-43891000D02*
X5245700Y-41997700D01*
X11894900Y-23242900D02*
X12003900Y-23242900D01*
X40126200Y-16493800D02*
X35202700Y-16493800D01*
X64430400Y-6880000D02*
X64346100Y-6795700D01*
X64346100Y-6795700D02*
X58583400Y-6795700D01*
X12294000Y-29000000D02*
X11862500Y-29000000D01*
X57141600Y-8237500D02*
X57141600Y-9114100D01*
X53903600Y-29000000D02*
X53433900Y-28530300D01*
X10447300Y-11063000D02*
X10447300Y-11587300D01*
X56248500Y-48000000D02*
X56828500Y-47420000D01*
X57141600Y-9114100D02*
X56255700Y-10000000D01*
X10447300Y-11587300D02*
X10350100Y-11684500D01*
X2196400Y-48000000D02*
X1978900Y-47782500D01*
X56255700Y-10000000D02*
X55862500Y-10000000D01*
X11862500Y-48000000D02*
X2196400Y-48000000D01*
X10350100Y-11684500D02*
X10350100Y-20494700D01*
X10826700Y-20971300D02*
X10826700Y-22174700D01*
X58583400Y-6795700D02*
X57141600Y-8237500D01*
X13141600Y-28152400D02*
X12294000Y-29000000D01*
X10826700Y-22174700D02*
X11894900Y-23242900D01*
X56828500Y-47420000D02*
X56828500Y-46257400D01*
%TO.N,/P2_MOSI_DRV*%
X14137500Y-30472500D02*
X14137500Y-29950000D01*
X14438700Y-30773700D02*
X14137500Y-30472500D01*
%TO.N,/P3_MOSI_DRV*%
X14397800Y-48950000D02*
X14137500Y-48950000D01*
X14267600Y-54519900D02*
X15164100Y-53623400D01*
X12561200Y-54519900D02*
X14267600Y-54519900D01*
X15164100Y-49716300D02*
X14397800Y-48950000D01*
X11046500Y-55295400D02*
X11639500Y-55888400D01*
X15164100Y-53623400D02*
X15164100Y-49716300D01*
X6352100Y-49716600D02*
X10379700Y-49716600D01*
X4036900Y-55295400D02*
X11046500Y-55295400D01*
X4204500Y-51864200D02*
X6352100Y-49716600D01*
%TO.N,/CS5*%
X55862500Y-33000000D02*
X54203400Y-33000000D01*
X49946300Y-29130100D02*
X49027900Y-29130100D01*
X48582000Y-29576000D02*
X47258400Y-29576000D01*
X51963600Y-31905700D02*
X51963600Y-29899200D01*
X47258400Y-29576000D02*
X43846100Y-26163700D01*
X51986000Y-31928100D02*
X51963600Y-31905700D01*
D27*
X51963600Y-29899200D02*
X51211700Y-29899200D01*
D24*
X43846100Y-26163700D02*
X31923700Y-26163700D01*
X49027900Y-29130100D02*
X48582000Y-29576000D01*
X54203400Y-33000000D02*
X53421500Y-33781900D01*
D27*
X51211700Y-29899200D02*
X50862500Y-29550000D01*
D24*
X50862500Y-29550000D02*
X50366200Y-29550000D01*
X50366200Y-29550000D02*
X49946300Y-29130100D01*
%TO.N,/P5_MISO*%
X50464900Y-30500000D02*
X49696700Y-29731800D01*
X68009400Y-30005600D02*
X68009400Y-25238400D01*
X66770500Y-23999500D02*
X65979300Y-23999500D01*
X66850000Y-30875000D02*
X67140000Y-30875000D01*
X65979300Y-23999500D02*
X64762800Y-22783000D01*
X52930200Y-21723900D02*
X52164500Y-21723900D01*
X68009400Y-25238400D02*
X66770500Y-23999500D01*
X67140000Y-30875000D02*
X68009400Y-30005600D01*
X50862500Y-30500000D02*
X50464900Y-30500000D01*
X53989300Y-22783000D02*
X52930200Y-21723900D01*
X64762800Y-22783000D02*
X53989300Y-22783000D01*
%TO.N,/P6_OE_N*%
X55862500Y-47050000D02*
X55446500Y-47050000D01*
X50435000Y-52728700D02*
X50435000Y-53502500D01*
X55446500Y-47050000D02*
X54876100Y-46479600D01*
X51605300Y-54672800D02*
X55968400Y-54672800D01*
X56214800Y-51050100D02*
X55862500Y-51050100D01*
X47175000Y-52074600D02*
X49780900Y-52074600D01*
X49780900Y-52074600D02*
X50435000Y-52728700D01*
X55425300Y-43050000D02*
X55862500Y-43050000D01*
X50435000Y-53502500D02*
X51605300Y-54672800D01*
X50435000Y-53502500D02*
X49937500Y-54000000D01*
X54876100Y-46479600D02*
X54876100Y-43599200D01*
X54883200Y-47613300D02*
X54883200Y-50070700D01*
X56858400Y-53782800D02*
X56858400Y-51693700D01*
X55968400Y-54672800D02*
X56858400Y-53782800D01*
X54876100Y-43599200D02*
X55425300Y-43050000D01*
X55862500Y-51050100D02*
X55862500Y-51050000D01*
X55446500Y-47050000D02*
X54883200Y-47613300D01*
X54883200Y-50070700D02*
X55862500Y-51050000D01*
X56858400Y-51693700D02*
X56214800Y-51050100D01*
%TO.N,/P6_SCK_DRV*%
X58935000Y-45747500D02*
X61825000Y-45747500D01*
X58137500Y-44950000D02*
X58935000Y-45747500D01*
%TO.N,/P6_3V3*%
D25*
X58137500Y-46851900D02*
X58137500Y-46574100D01*
X51471600Y-45533600D02*
X51987400Y-45533600D01*
D26*
X66400900Y-46574100D02*
X66850000Y-46125000D01*
D25*
X51679500Y-41550000D02*
X51137500Y-41550000D01*
X57036900Y-49949400D02*
X57036900Y-48150600D01*
X57037000Y-45473600D02*
X57037000Y-44150500D01*
X57037000Y-44150500D02*
X58137500Y-43050000D01*
X52929900Y-44591100D02*
X53130500Y-44591100D01*
X59353500Y-46851900D02*
X58137500Y-46851900D01*
X52929900Y-44591100D02*
X52929900Y-42800400D01*
X58137500Y-46574100D02*
X57037000Y-45473600D01*
X57036900Y-48150600D02*
X58137500Y-47050000D01*
X58137500Y-47050000D02*
X58137500Y-46851900D01*
X58137500Y-51050000D02*
X57036900Y-49949400D01*
X52929900Y-42800400D02*
X51679500Y-41550000D01*
X58137500Y-43050000D02*
X59306700Y-43050000D01*
X50226400Y-46778800D02*
X51471600Y-45533600D01*
D26*
X58137500Y-46574100D02*
X66400900Y-46574100D01*
D25*
X51987400Y-45533600D02*
X52929900Y-44591100D01*
%TO.N,/P6_MOSI_DRV*%
D24*
X58137500Y-48950000D02*
X63718300Y-48950000D01*
%TO.N,/P6_SCK*%
D27*
X66850000Y-47375000D02*
X67474800Y-47999800D01*
X67474800Y-47999800D02*
X68026900Y-47999800D01*
%TO.N,/P6_MOSI*%
X66850000Y-48625000D02*
X66200800Y-47975800D01*
X66200800Y-47975800D02*
X63111500Y-47975800D01*
%TO.N,/P6_MISO*%
D24*
X62869200Y-56606600D02*
X68051800Y-51424000D01*
X67100900Y-49875000D02*
X66850000Y-49875000D01*
X51880600Y-50112600D02*
X51268000Y-49500000D01*
X51268000Y-49500000D02*
X50862500Y-49500000D01*
X51522400Y-51972600D02*
X51880600Y-51614400D01*
X68051800Y-50825900D02*
X67100900Y-49875000D01*
X51880600Y-51614400D02*
X51880600Y-50112600D01*
X68051800Y-51424000D02*
X68051800Y-50825900D01*
X51270000Y-56050500D02*
X51826100Y-56606600D01*
X51826100Y-56606600D02*
X62869200Y-56606600D01*
%TO.N,/P6_CS*%
X63968500Y-50475800D02*
X61809700Y-52634600D01*
X65301200Y-50475800D02*
X63968500Y-50475800D01*
X61036900Y-55128100D02*
X60175000Y-55990000D01*
X61809700Y-52634600D02*
X61036900Y-53407400D01*
X59424900Y-50249900D02*
X61809700Y-52634600D01*
X61036900Y-53407400D02*
X61036900Y-55128100D01*
D27*
X65301200Y-50475800D02*
X66200800Y-50475800D01*
X66200800Y-50475800D02*
X66850000Y-51125000D01*
%TO.N,/P5_SCK*%
D24*
X66785100Y-28310100D02*
X65189800Y-28310100D01*
X66850000Y-28375000D02*
X66785100Y-28310100D01*
%TO.N,/P5_MOSI*%
D27*
X66200800Y-28975800D02*
X66850000Y-29625000D01*
X65674800Y-28975800D02*
X66200800Y-28975800D01*
%TO.N,/P5_CS*%
D24*
X61200200Y-32125000D02*
X66850000Y-32125000D01*
X60347600Y-32977600D02*
X61200200Y-32125000D01*
%TO.N,/P1_OE_N*%
X14862500Y-5050000D02*
X14957700Y-5050000D01*
X11499200Y-9050000D02*
X9799500Y-10749700D01*
X25207500Y-12730000D02*
X21937500Y-16000000D01*
X13332600Y-4892200D02*
X11089400Y-7135400D01*
X14704700Y-4892200D02*
X13332600Y-4892200D01*
X27842900Y-12730000D02*
X25207500Y-12730000D01*
X14862500Y-5050000D02*
X14704700Y-4892200D01*
X29004200Y-5737500D02*
X29004200Y-11568700D01*
X11862500Y-9050000D02*
X11499200Y-9050000D01*
X16174200Y-2746400D02*
X17494300Y-1426300D01*
X24693000Y-1426300D02*
X29004200Y-5737500D01*
X9799500Y-10749700D02*
X9799500Y-10987000D01*
X11089400Y-7135400D02*
X11089400Y-8276900D01*
X11089400Y-8276900D02*
X11862500Y-9050000D01*
X14957700Y-5050000D02*
X16174200Y-3833500D01*
X20665700Y-16000000D02*
X21937500Y-16000000D01*
X29004200Y-11568700D02*
X27842900Y-12730000D01*
X17494300Y-1426300D02*
X24693000Y-1426300D01*
X11047500Y-12235000D02*
X11862500Y-13050000D01*
X16174200Y-3833500D02*
X16174200Y-2746400D01*
%TO.N,/P1_MOSI_DRV*%
X14137500Y-10950000D02*
X13553500Y-11534000D01*
X13553500Y-11534000D02*
X12891500Y-11534000D01*
%TO.N,/P1_3V3*%
D25*
X20705400Y-2963200D02*
X20705400Y-3550000D01*
X16939300Y-2696900D02*
X17706700Y-1929500D01*
X19671700Y-1929500D02*
X20705400Y-2963200D01*
X20536400Y-6175300D02*
X20536400Y-3719000D01*
X17137500Y-5050000D02*
X16939300Y-4851800D01*
D26*
X22956900Y-3799200D02*
X21886700Y-3799200D01*
D25*
X15203200Y-11984300D02*
X14137500Y-13050000D01*
X15129800Y-9934000D02*
X15203200Y-10007400D01*
X3167600Y-11892600D02*
X4658300Y-11892600D01*
X3150000Y-11875000D02*
X3167600Y-11892600D01*
X17021400Y-8042400D02*
X18669300Y-8042400D01*
X20705400Y-3550000D02*
X21637500Y-3550000D01*
X15129800Y-9934000D02*
X17021400Y-8042400D01*
X14137500Y-9050000D02*
X15021500Y-9934000D01*
X16939300Y-4851800D02*
X16939300Y-2696900D01*
X15203200Y-10007400D02*
X15203200Y-11984300D01*
X15021500Y-9934000D02*
X15129800Y-9934000D01*
X17706700Y-1929500D02*
X19671700Y-1929500D01*
D26*
X21886700Y-3799200D02*
X21637500Y-3550000D01*
D25*
X18669300Y-8042400D02*
X20536400Y-6175300D01*
X20536400Y-3719000D02*
X20705400Y-3550000D01*
%TO.N,/IO_ENABLE*%
D24*
X28590200Y-9470500D02*
X27870700Y-10190000D01*
X21301100Y-32866300D02*
X21246200Y-32866300D01*
X33987000Y-32304800D02*
X33702300Y-32589500D01*
X21246200Y-32866300D02*
X20062500Y-34050000D01*
X28590200Y-8416400D02*
X28590200Y-9470500D01*
X21078700Y-53050000D02*
X21866600Y-52262100D01*
X27755500Y-7581700D02*
X28590200Y-8416400D01*
X20062500Y-53050000D02*
X21078700Y-53050000D01*
X22547100Y-52262100D02*
X22988200Y-51821000D01*
X27870700Y-10190000D02*
X24922500Y-10190000D01*
X34658100Y-51820900D02*
X39052500Y-51820900D01*
X23865200Y-32189300D02*
X23493400Y-31817500D01*
X27380000Y-6380000D02*
X27380000Y-7581700D01*
X48062500Y-34050000D02*
X47248700Y-33236200D01*
X27380000Y-7581700D02*
X27755500Y-7581700D01*
X40281600Y-53050000D02*
X48062500Y-53050000D01*
X48062500Y-15050000D02*
X45302600Y-17809900D01*
X26658000Y-32589500D02*
X26257900Y-32189400D01*
X33702300Y-32589500D02*
X26658000Y-32589500D01*
X21866600Y-52262100D02*
X22547100Y-52262100D01*
X45302600Y-17809900D02*
X35826600Y-17809900D01*
X24922500Y-10190000D02*
X20062500Y-15050000D01*
X22988200Y-51821000D02*
X22988200Y-51820900D01*
X39052500Y-51820900D02*
X40281600Y-53050000D01*
X26257900Y-32189300D02*
X23865200Y-32189300D01*
X22988200Y-51820900D02*
X34658100Y-51820900D01*
X47248700Y-33236200D02*
X36841000Y-33236200D01*
X26257900Y-32189400D02*
X26257900Y-32189300D01*
%TO.N,/P4_OE_N*%
X50426700Y-14750700D02*
X53180100Y-14750700D01*
X49256600Y-13580600D02*
X47175000Y-13580600D01*
X50426700Y-15249300D02*
X50426700Y-14750700D01*
X56102300Y-8810200D02*
X56102300Y-6589700D01*
X56102300Y-6589700D02*
X55738000Y-6225400D01*
X55738000Y-6225400D02*
X54789800Y-6225400D01*
X53614400Y-5050000D02*
X52862500Y-5050000D01*
X54789800Y-6225400D02*
X53614400Y-5050000D01*
X49937600Y-15738400D02*
X50426700Y-15249300D01*
X53180100Y-14750700D02*
X54880800Y-13050000D01*
X55510300Y-9050000D02*
X54880800Y-9679500D01*
X49937500Y-15738400D02*
X49937600Y-15738400D01*
X50426700Y-14750700D02*
X49256600Y-13580600D01*
X54880800Y-9679500D02*
X54880800Y-13050000D01*
X54880800Y-13050000D02*
X55862500Y-13050000D01*
X49937500Y-16000000D02*
X49937500Y-15738400D01*
X55862500Y-9050000D02*
X56102300Y-8810200D01*
X55862500Y-9050000D02*
X55510300Y-9050000D01*
%TO.N,/CS2*%
X16862500Y-29550000D02*
X16510200Y-29550000D01*
X14638900Y-34774300D02*
X14366300Y-34774300D01*
X15814400Y-30245800D02*
X15814400Y-33598800D01*
X15814400Y-33598800D02*
X14638900Y-34774300D01*
D27*
X12724800Y-33349200D02*
X12211700Y-33349200D01*
D24*
X13065500Y-34136100D02*
X13065500Y-34474500D01*
X16510200Y-29550000D02*
X15814400Y-30245800D01*
X12749900Y-33374300D02*
X12724800Y-33349200D01*
X12749900Y-33405500D02*
X12749900Y-33374300D01*
D27*
X12211700Y-33349200D02*
X11862500Y-33000000D01*
X13065500Y-33721100D02*
X12749900Y-33405500D01*
X13065500Y-34136100D02*
X13065500Y-33721100D01*
%TO.N,/P2_CS_DRV*%
D24*
X14137500Y-33950000D02*
X13764600Y-34322900D01*
X9342900Y-33201900D02*
X9342900Y-31020900D01*
X13764600Y-34703200D02*
X12988800Y-35479000D01*
X12988800Y-35479000D02*
X11620000Y-35479000D01*
X13764600Y-34322900D02*
X13764600Y-34703200D01*
X11620000Y-35479000D02*
X9342900Y-33201900D01*
%TO.N,/P2_FAULT_N*%
X21934000Y-25246500D02*
X21137500Y-24450000D01*
%TO.N,/P2_ILIM*%
D27*
X21486700Y-23849200D02*
X21137500Y-23500000D01*
X22817000Y-23849200D02*
X21486700Y-23849200D01*
%TO.N,/MCU_5V*%
D23*
X27796400Y-31000000D02*
X27500000Y-31000000D01*
X30705100Y-28091300D02*
X27796400Y-31000000D01*
X42620000Y-6380000D02*
X41830400Y-6380000D01*
X30705100Y-17505300D02*
X30705100Y-28091300D01*
X41830400Y-6380000D02*
X30705100Y-17505300D01*
%TO.N,/P4_3V3*%
D25*
X65416600Y-4438700D02*
X65055800Y-4077900D01*
X58137500Y-13050000D02*
X57071100Y-11983600D01*
X55137500Y-4765800D02*
X53547100Y-3175400D01*
X53547100Y-3175400D02*
X51012100Y-3175400D01*
X60480100Y-4077900D02*
X59508000Y-5050000D01*
X65416600Y-8125000D02*
X65416600Y-4438700D01*
X57071100Y-10116400D02*
X58137500Y-9050000D01*
X58137500Y-9050000D02*
X59062500Y-8125000D01*
X55137500Y-5050000D02*
X55137500Y-4765800D01*
X59062500Y-8125000D02*
X65416600Y-8125000D01*
X51012100Y-3175400D02*
X50637500Y-3550000D01*
X57071100Y-11983600D02*
X57071100Y-10116400D01*
X58137500Y-9050000D02*
X58137500Y-8181100D01*
X59508000Y-5050000D02*
X55137500Y-5050000D01*
X65055800Y-4077900D02*
X60480100Y-4077900D01*
X65416600Y-8125000D02*
X66850000Y-8125000D01*
%TO.N,/P4_SCK*%
D24*
X64465700Y-9140700D02*
X66615700Y-9140700D01*
X66615700Y-9140700D02*
X66850000Y-9375000D01*
%TO.N,/P4_MOSI*%
D27*
X64778500Y-9975800D02*
X66200800Y-9975800D01*
X66200800Y-9975800D02*
X66850000Y-10625000D01*
%TO.N,/P4_CS*%
D24*
X66850000Y-13125000D02*
X61278000Y-13125000D01*
X61278000Y-13125000D02*
X60175000Y-12022000D01*
%TO.N,/P3_SCK*%
X3487900Y-48962900D02*
X4635800Y-48962900D01*
X3150000Y-48625000D02*
X3487900Y-48962900D01*
%TO.N,/P3_MOSI*%
X3150000Y-47375000D02*
X3528500Y-46996500D01*
X3528500Y-46996500D02*
X8004400Y-46996500D01*
%TO.N,/P3_MISO*%
X3351800Y-46326800D02*
X3150000Y-46125000D01*
X18825000Y-47740000D02*
X18000000Y-47740000D01*
X18000000Y-49150800D02*
X18000000Y-47740000D01*
D27*
X18000000Y-49150800D02*
X17211700Y-49150800D01*
D24*
X10946400Y-46326800D02*
X3351800Y-46326800D01*
X18000000Y-47740000D02*
X16412600Y-47740000D01*
X16412600Y-47740000D02*
X15055600Y-46383000D01*
D27*
X17211700Y-49150800D02*
X16862500Y-49500000D01*
%TO.N,/P3_CS*%
D24*
X3150000Y-44875000D02*
X4513700Y-44875000D01*
%TO.N,/P4_CS_DRV*%
X58137500Y-14950000D02*
X59875000Y-14950000D01*
X59875000Y-14950000D02*
X60743200Y-14081800D01*
%TO.N,/CS6*%
X51554300Y-52900000D02*
X49844700Y-51190400D01*
X53671100Y-52500000D02*
X54171100Y-52000000D01*
X52175000Y-52900000D02*
X52175000Y-54033900D01*
D27*
X53434400Y-52841900D02*
X53671100Y-52605200D01*
D24*
X53434400Y-52841900D02*
X53376300Y-52900000D01*
X49844700Y-49195500D02*
X50490200Y-48550000D01*
X54171100Y-52000000D02*
X55862500Y-52000000D01*
X50490200Y-48550000D02*
X50862500Y-48550000D01*
D27*
X53671100Y-52605200D02*
X53671100Y-52500000D01*
D24*
X52175000Y-52900000D02*
X51554300Y-52900000D01*
X53376300Y-52900000D02*
X52175000Y-52900000D01*
X49844700Y-51190400D02*
X49844700Y-49195500D01*
%TO.N,/P6_CS_DRV*%
X58137500Y-53774900D02*
X58137500Y-52950000D01*
%TO.N,/P2_SCK*%
X2670700Y-30104300D02*
X1304700Y-30104300D01*
X3150000Y-29625000D02*
X2670700Y-30104300D01*
%TO.N,/P2_MOSI*%
X6255300Y-28299900D02*
X3225100Y-28299900D01*
X3225100Y-28299900D02*
X3150000Y-28375000D01*
%TO.N,/P2_MISO*%
D27*
X17211700Y-30849200D02*
X16862500Y-30500000D01*
D24*
X3150000Y-27125000D02*
X3712000Y-27687000D01*
X7958100Y-29105100D02*
X7958100Y-32385200D01*
X3712000Y-27687000D02*
X6540000Y-27687000D01*
X6540000Y-27687000D02*
X7958100Y-29105100D01*
X18221700Y-31904000D02*
X18000000Y-31682300D01*
X19907900Y-32273500D02*
X18591200Y-32273500D01*
X18591200Y-32273500D02*
X18221700Y-31904000D01*
X18000000Y-31682300D02*
X18000000Y-30849200D01*
X14245000Y-35880700D02*
X18221700Y-31904000D01*
X7958100Y-32385200D02*
X11453600Y-35880700D01*
X11453600Y-35880700D02*
X14245000Y-35880700D01*
D27*
X18000000Y-30849200D02*
X17211700Y-30849200D01*
%TO.N,/P2_CS*%
D24*
X3150000Y-25875000D02*
X3418200Y-25875000D01*
X3418200Y-25875000D02*
X4530700Y-26987500D01*
%TO.N,/P3_FAULT_N*%
X21137500Y-43450000D02*
X23228300Y-45540800D01*
%TO.N,/P3_ILIM*%
D27*
X21486700Y-42849200D02*
X22325000Y-42849200D01*
X21137500Y-42500000D02*
X21486700Y-42849200D01*
%TO.N,/P1_FAULT_N*%
D24*
X23000000Y-6812500D02*
X21637500Y-5450000D01*
X23000000Y-8794500D02*
X23000000Y-6812500D01*
%TO.N,/P1_ILIM*%
D27*
X21986700Y-4849200D02*
X21637500Y-4500000D01*
X22810800Y-4849200D02*
X21986700Y-4849200D01*
%TO.N,/CS1*%
D24*
X10853500Y-14656800D02*
X10853500Y-15718400D01*
X11601600Y-16466500D02*
X16114700Y-16466500D01*
X19656100Y-9529800D02*
X19998900Y-9872600D01*
X19656100Y-9529800D02*
X19569500Y-9443200D01*
X11510300Y-14000000D02*
X10853500Y-14656800D01*
X10853500Y-15718400D02*
X11601600Y-16466500D01*
X24185600Y-9529800D02*
X26770200Y-9529800D01*
X17754200Y-9443200D02*
X16862500Y-10334900D01*
X26770200Y-9529800D02*
X27380000Y-8920000D01*
X16114700Y-16466500D02*
X16175000Y-16406200D01*
X16862500Y-10334900D02*
X16862500Y-10550000D01*
X23842800Y-9872600D02*
X24185600Y-9529800D01*
X11862500Y-14000000D02*
X11510300Y-14000000D01*
X19569500Y-9443200D02*
X17754200Y-9443200D01*
X19998900Y-9872600D02*
X23842800Y-9872600D01*
%TO.N,/P1_CS_DRV*%
X13516900Y-14950000D02*
X14137500Y-14950000D01*
X13017400Y-15449500D02*
X13516900Y-14950000D01*
%TO.N,/CS3*%
X14568500Y-55121600D02*
X15246800Y-55799900D01*
X12034500Y-54873200D02*
X12063700Y-54873200D01*
X15246800Y-55799900D02*
X15801300Y-55245400D01*
D27*
X10838300Y-52349200D02*
X11513300Y-52349200D01*
D24*
X10838300Y-52349200D02*
X10838300Y-53677000D01*
X15801300Y-55245400D02*
X15801300Y-49544300D01*
X12312100Y-55121600D02*
X14568500Y-55121600D01*
D27*
X15801300Y-49544300D02*
X15801300Y-49211600D01*
X11513300Y-52349200D02*
X11862500Y-52000000D01*
X15801300Y-49211600D02*
X16462900Y-48550000D01*
X16462900Y-48550000D02*
X16862500Y-48550000D01*
D24*
X12063700Y-54873200D02*
X12312100Y-55121600D01*
X10838300Y-53677000D02*
X12034500Y-54873200D01*
%TO.N,/P3_CS_DRV*%
X14137500Y-53780400D02*
X14137500Y-52950000D01*
%TO.N,/P5_OE_N*%
X55862500Y-27461600D02*
X56461700Y-27461600D01*
X56223700Y-24050000D02*
X55862500Y-24050000D01*
X55862500Y-27461600D02*
X54727600Y-27461600D01*
D27*
X49100800Y-33600000D02*
X49100800Y-33800200D01*
D24*
X49162800Y-33862200D02*
X49162800Y-34186500D01*
X56329800Y-32050000D02*
X55862500Y-32050000D01*
X49100800Y-33600000D02*
X48733300Y-33232500D01*
X49231900Y-34600200D02*
X49537700Y-34600200D01*
D27*
X49231900Y-34255600D02*
X49231900Y-34600200D01*
D24*
X56873500Y-24699800D02*
X56223700Y-24050000D01*
X55862500Y-27461600D02*
X55862500Y-28050000D01*
X49537700Y-34600200D02*
X49937500Y-35000000D01*
D27*
X49162800Y-34186500D02*
X49231900Y-34255600D01*
D24*
X56873500Y-27049800D02*
X57326500Y-27049800D01*
X56918700Y-31461100D02*
X56329800Y-32050000D01*
X56873500Y-27049800D02*
X56873500Y-24699800D01*
X56461700Y-27461600D02*
X56873500Y-27049800D01*
D27*
X49100800Y-33800200D02*
X49162800Y-33862200D01*
%TO.N,/P5_CS_DRV*%
D24*
X62147700Y-33000000D02*
X61197700Y-33950000D01*
X61197700Y-33950000D02*
X58137500Y-33950000D01*
%TO.N,/P5_MOSI_DRV*%
X58941600Y-29145900D02*
X58137500Y-29950000D01*
%TO.N,/P4_FAULT_N*%
X50224000Y-5450000D02*
X50637500Y-5450000D01*
X49500000Y-3097000D02*
X49500000Y-4726000D01*
X49500000Y-4726000D02*
X50224000Y-5450000D01*
%TO.N,/P4_ILIM*%
D27*
X51600800Y-5694800D02*
X51750000Y-5545600D01*
X51624800Y-4849200D02*
X50986700Y-4849200D01*
D24*
X51600800Y-6210500D02*
X51013400Y-6797900D01*
D27*
X51600800Y-6210500D02*
X51600800Y-5694800D01*
D24*
X51750000Y-4974400D02*
X51624800Y-4849200D01*
D27*
X50986700Y-4849200D02*
X50637500Y-4500000D01*
D24*
X51750000Y-5545600D02*
X51750000Y-4974400D01*
X51013400Y-6797900D02*
X49325000Y-6797900D01*
%TO.N,/P1_MISO*%
X16492000Y-11500000D02*
X15384900Y-12607100D01*
X15384900Y-12607100D02*
X15384900Y-12798900D01*
X16862500Y-11500000D02*
X16492000Y-11500000D01*
X17214700Y-11500000D02*
X18051700Y-10663000D01*
X3150000Y-8125000D02*
X10467200Y-8125000D01*
X18051700Y-10663000D02*
X18051700Y-10046100D01*
X16862500Y-11500000D02*
X17214700Y-11500000D01*
%TO.N,/P1_SCK*%
X3150000Y-10625000D02*
X3771300Y-10003700D01*
X3771300Y-10003700D02*
X4304600Y-10003700D01*
%TO.N,/P1_MOSI*%
D27*
X3797200Y-8727800D02*
X8175000Y-8727800D01*
X3150000Y-9375000D02*
X3797200Y-8727800D01*
%TO.N,/P1_CS*%
X3150000Y-6875000D02*
X3768600Y-7493600D01*
X3768600Y-7493600D02*
X4324500Y-7493600D01*
%TO.N,/P4_MOSI_DRV*%
D24*
X60883500Y-10541300D02*
X58546200Y-10541300D01*
X60995200Y-10653000D02*
X60883500Y-10541300D01*
X58546200Y-10541300D02*
X58137500Y-10950000D01*
%TO.N,/P1_SCK_DRV*%
X23492800Y-9429700D02*
X22714500Y-9429700D01*
X16382400Y-818100D02*
X24304200Y-818100D01*
X20724600Y-7439800D02*
X20724600Y-7005200D01*
X22714500Y-9429700D02*
X20724600Y-7439800D01*
X10295400Y-5389000D02*
X11811500Y-5389000D01*
X18466600Y-6635400D02*
X17452100Y-6635400D01*
X24304200Y-8914600D02*
X24007900Y-8914600D01*
X17452100Y-6635400D02*
X17137500Y-6950000D01*
X11811500Y-5389000D02*
X16382400Y-818100D01*
X24007900Y-8914600D02*
X23492800Y-9429700D01*
%TO.N,/P4_SCK_DRV*%
X53914300Y-8173200D02*
X55137500Y-6950000D01*
X50250000Y-8173200D02*
X53914300Y-8173200D01*
%TO.N,/P5_SCK_DRV*%
X58137500Y-25950000D02*
X59330500Y-25950000D01*
%TO.N,/P6_FAULT_N*%
X51137500Y-44487500D02*
X48737800Y-46887200D01*
X51137500Y-43450000D02*
X51137500Y-44487500D01*
%TO.N,/P6_ILIM*%
D27*
X50036400Y-42849200D02*
X50788300Y-42849200D01*
D24*
X50036400Y-42849200D02*
X50018000Y-42867600D01*
X50018000Y-42867600D02*
X50018000Y-43928700D01*
D27*
X50788300Y-42849200D02*
X51137500Y-42500000D01*
%TD*%
M02*
