%TF.GenerationSoftware,KiCad,Pcbnew,10.0.6*%
%TF.CreationDate,2026-09-30T04:01:41+08:00*%
%TF.ProjectId,PoseDoll_O15_Central_C1,506f7365-446f-46c6-9c5f-4f31355f4365,rev?*%
%TF.SameCoordinates,Original*%
%TF.FileFunction,Copper,L4,Bot*%
%TF.FilePolarity,Positive*%
%FSLAX46Y46*%
G04 Gerber Fmt 4.6, Leading zero omitted, Abs format (unit mm)*
G04 Created by KiCad (PCBNEW 10.0.6) date 2026-09-30 04:01:41*
%MOMM*%
%LPD*%
G01*
G04 APERTURE LIST*
G04 Aperture macros list*
%AMRoundRect*
0 Rectangle with rounded corners*
0 $1 Rounding radius*
0 $2 $3 $4 $5 $6 $7 $8 $9 X,Y pos of 4 corners*
0 Add a 4 corners polygon primitive as box body*
4,1,4,$2,$3,$4,$5,$6,$7,$8,$9,$2,$3,0*
0 Add four circle primitives for the rounded corners*
1,1,$1+$1,$2,$3*
1,1,$1+$1,$4,$5*
1,1,$1+$1,$6,$7*
1,1,$1+$1,$8,$9*
0 Add four rect primitives between the rounded corners*
20,1,$1+$1,$2,$3,$4,$5,0*
20,1,$1+$1,$4,$5,$6,$7,0*
20,1,$1+$1,$6,$7,$8,$9,0*
20,1,$1+$1,$8,$9,$2,$3,0*%
G04 Aperture macros list end*
%TA.AperFunction,ComponentPad*%
%ADD10R,1.800000X1.800000*%
%TD*%
%TA.AperFunction,ComponentPad*%
%ADD11C,1.800000*%
%TD*%
%TA.AperFunction,SMDPad,CuDef*%
%ADD12RoundRect,0.225000X0.225000X0.250000X-0.225000X0.250000X-0.225000X-0.250000X0.225000X-0.250000X0*%
%TD*%
%TA.AperFunction,SMDPad,CuDef*%
%ADD13RoundRect,0.200000X0.200000X0.275000X-0.200000X0.275000X-0.200000X-0.275000X0.200000X-0.275000X0*%
%TD*%
%TA.AperFunction,SMDPad,CuDef*%
%ADD14C,1.000000*%
%TD*%
%TA.AperFunction,ViaPad*%
%ADD15C,0.800000*%
%TD*%
%TA.AperFunction,ViaPad*%
%ADD16C,0.600000*%
%TD*%
%TA.AperFunction,Conductor*%
%ADD17C,0.600000*%
%TD*%
%TA.AperFunction,Conductor*%
%ADD18C,0.200000*%
%TD*%
%TA.AperFunction,Conductor*%
%ADD19C,0.400000*%
%TD*%
%TA.AperFunction,Conductor*%
%ADD20C,0.150000*%
%TD*%
%TA.AperFunction,Conductor*%
%ADD21C,0.300000*%
%TD*%
G04 APERTURE END LIST*
D10*
%TO.P,U1,1*%
%TO.N,/IO_ENABLE*%
X27380000Y-6380000D03*
D11*
%TO.P,U1,2*%
%TO.N,/CS1*%
X27380000Y-8920000D03*
%TO.P,U1,3*%
%TO.N,unconnected-(U1-D2_GPIO3_STRAP-Pad3)*%
X27380000Y-11460000D03*
%TO.P,U1,4*%
%TO.N,/CS2*%
X27380000Y-14000000D03*
%TO.P,U1,5*%
%TO.N,/CS3*%
X27380000Y-16540000D03*
%TO.P,U1,6*%
%TO.N,/CS4*%
X27380000Y-19079999D03*
%TO.P,U1,7*%
%TO.N,/CS5*%
X27380000Y-21620000D03*
%TO.P,U1,8*%
%TO.N,/CS6*%
X42620000Y-21620000D03*
%TO.P,U1,9*%
%TO.N,/SCK*%
X42620000Y-19079999D03*
%TO.P,U1,10*%
%TO.N,/MISO*%
X42620000Y-16540000D03*
%TO.P,U1,11*%
%TO.N,/MOSI*%
X42620000Y-14000000D03*
%TO.P,U1,12*%
%TO.N,/MCU_3V3*%
X42620000Y-11460000D03*
%TO.P,U1,13*%
%TO.N,/GND*%
X42620000Y-8920000D03*
%TO.P,U1,14*%
%TO.N,/MCU_5V*%
X42620000Y-6380000D03*
%TD*%
D12*
%TO.P,C105,1*%
%TO.N,/P1_3V3*%
X15775000Y-14000000D03*
%TO.P,C105,2*%
%TO.N,/GND*%
X14225000Y-14000000D03*
%TD*%
D13*
%TO.P,R305,1*%
%TO.N,/P3_CS_DRV*%
X9825000Y-51000000D03*
%TO.P,R305,2*%
%TO.N,/P3_CS*%
X8175000Y-51000000D03*
%TD*%
%TO.P,R501,1*%
%TO.N,/P5_3V3*%
X48825000Y-31000000D03*
%TO.P,R501,2*%
%TO.N,/P5_OE_N*%
X47175000Y-31000000D03*
%TD*%
D12*
%TO.P,C202,1*%
%TO.N,/P2_3V3*%
X17775000Y-24000000D03*
%TO.P,C202,2*%
%TO.N,/GND*%
X16225000Y-24000000D03*
%TD*%
D13*
%TO.P,R200,1*%
%TO.N,/P2_ILIM*%
X22325000Y-27000000D03*
%TO.P,R200,2*%
%TO.N,/GND*%
X20675000Y-27000000D03*
%TD*%
%TO.P,R202,1*%
%TO.N,/MCU_3V3*%
X17825000Y-37000000D03*
%TO.P,R202,2*%
%TO.N,/CS2*%
X16175000Y-37000000D03*
%TD*%
%TO.P,R607,1*%
%TO.N,/P6_3V3*%
X61825000Y-55000000D03*
%TO.P,R607,2*%
%TO.N,/P6_CS*%
X60175000Y-55000000D03*
%TD*%
%TO.P,R103,1*%
%TO.N,/P1_SCK_DRV*%
X9825000Y-6500000D03*
%TO.P,R103,2*%
%TO.N,/P1_SCK*%
X8175000Y-6500000D03*
%TD*%
%TO.P,R508,1*%
%TO.N,/P5_SCK*%
X61825000Y-23000000D03*
%TO.P,R508,2*%
%TO.N,/GND*%
X60175000Y-23000000D03*
%TD*%
D12*
%TO.P,C100,1*%
%TO.N,/SENSOR_3V3*%
X16775000Y-3000000D03*
%TO.P,C100,2*%
%TO.N,/GND*%
X15225000Y-3000000D03*
%TD*%
D13*
%TO.P,R109,1*%
%TO.N,/P1_MOSI*%
X9825000Y-15000000D03*
%TO.P,R109,2*%
%TO.N,/GND*%
X8175000Y-15000000D03*
%TD*%
D12*
%TO.P,C605,1*%
%TO.N,/P6_3V3*%
X55775000Y-52000000D03*
%TO.P,C605,2*%
%TO.N,/GND*%
X54225000Y-52000000D03*
%TD*%
%TO.P,C302,1*%
%TO.N,/P3_3V3*%
X17775000Y-43000000D03*
%TO.P,C302,2*%
%TO.N,/GND*%
X16225000Y-43000000D03*
%TD*%
D13*
%TO.P,R302,1*%
%TO.N,/MCU_3V3*%
X17825000Y-56000000D03*
%TO.P,R302,2*%
%TO.N,/CS3*%
X16175000Y-56000000D03*
%TD*%
%TO.P,R602,1*%
%TO.N,/MCU_3V3*%
X53825000Y-56000000D03*
%TO.P,R602,2*%
%TO.N,/CS6*%
X52175000Y-56000000D03*
%TD*%
%TO.P,R509,1*%
%TO.N,/P5_MOSI*%
X61825000Y-34000000D03*
%TO.P,R509,2*%
%TO.N,/GND*%
X60175000Y-34000000D03*
%TD*%
D14*
%TO.P,TP5,1*%
%TO.N,/P5_FAULT_N*%
X47000000Y-29000000D03*
%TD*%
D13*
%TO.P,R600,1*%
%TO.N,/P6_ILIM*%
X49325000Y-46000000D03*
%TO.P,R600,2*%
%TO.N,/GND*%
X47675000Y-46000000D03*
%TD*%
%TO.P,R310,1*%
%TO.N,/SENSOR_3V3*%
X21825000Y-57000000D03*
%TO.P,R310,2*%
%TO.N,/P3_FAULT_N*%
X20175000Y-57000000D03*
%TD*%
D14*
%TO.P,TP6,1*%
%TO.N,/P6_FAULT_N*%
X47000000Y-48000000D03*
%TD*%
D12*
%TO.P,C101,1*%
%TO.N,/P1_3V3*%
X13275000Y-6500000D03*
%TO.P,C101,2*%
%TO.N,/GND*%
X11725000Y-6500000D03*
%TD*%
D13*
%TO.P,R500,1*%
%TO.N,/P5_ILIM*%
X49325000Y-27000000D03*
%TO.P,R500,2*%
%TO.N,/GND*%
X47675000Y-27000000D03*
%TD*%
D14*
%TO.P,TP3,1*%
%TO.N,/P3_FAULT_N*%
X23000000Y-48000000D03*
%TD*%
D13*
%TO.P,R300,1*%
%TO.N,/P3_ILIM*%
X22325000Y-46000000D03*
%TO.P,R300,2*%
%TO.N,/GND*%
X20675000Y-46000000D03*
%TD*%
%TO.P,R502,1*%
%TO.N,/MCU_3V3*%
X53825000Y-37000000D03*
%TO.P,R502,2*%
%TO.N,/CS5*%
X52175000Y-37000000D03*
%TD*%
%TO.P,R503,1*%
%TO.N,/P5_SCK_DRV*%
X61825000Y-25000000D03*
%TO.P,R503,2*%
%TO.N,/P5_SCK*%
X60175000Y-25000000D03*
%TD*%
%TO.P,R307,1*%
%TO.N,/P3_3V3*%
X9825000Y-55000000D03*
%TO.P,R307,2*%
%TO.N,/P3_CS*%
X8175000Y-55000000D03*
%TD*%
D12*
%TO.P,C305,1*%
%TO.N,/P3_3V3*%
X15775000Y-52000000D03*
%TO.P,C305,2*%
%TO.N,/GND*%
X14225000Y-52000000D03*
%TD*%
D13*
%TO.P,R101,1*%
%TO.N,/P1_3V3*%
X22825000Y-12000000D03*
%TO.P,R101,2*%
%TO.N,/P1_OE_N*%
X21175000Y-12000000D03*
%TD*%
%TO.P,R206,1*%
%TO.N,/P2_MISO*%
X18825000Y-27000000D03*
%TO.P,R206,2*%
%TO.N,/GND*%
X17175000Y-27000000D03*
%TD*%
D12*
%TO.P,C403,1*%
%TO.N,/MCU_3V3*%
X52275000Y-15000000D03*
%TO.P,C403,2*%
%TO.N,/GND*%
X50725000Y-15000000D03*
%TD*%
D13*
%TO.P,R610,1*%
%TO.N,/SENSOR_3V3*%
X49825000Y-57000000D03*
%TO.P,R610,2*%
%TO.N,/P6_FAULT_N*%
X48175000Y-57000000D03*
%TD*%
%TO.P,R606,1*%
%TO.N,/P6_MISO*%
X52825000Y-46000000D03*
%TO.P,R606,2*%
%TO.N,/GND*%
X51175000Y-46000000D03*
%TD*%
D12*
%TO.P,C401,1*%
%TO.N,/P4_3V3*%
X58275000Y-6500000D03*
%TO.P,C401,2*%
%TO.N,/GND*%
X56725000Y-6500000D03*
%TD*%
D13*
%TO.P,R2,1*%
%TO.N,/MISO*%
X39825000Y-28000000D03*
%TO.P,R2,2*%
%TO.N,/MCU_3V3*%
X38175000Y-28000000D03*
%TD*%
%TO.P,R100,1*%
%TO.N,/P1_ILIM*%
X22325000Y-8000000D03*
%TO.P,R100,2*%
%TO.N,/GND*%
X20675000Y-8000000D03*
%TD*%
D12*
%TO.P,C205,1*%
%TO.N,/P2_3V3*%
X15775000Y-33000000D03*
%TO.P,C205,2*%
%TO.N,/GND*%
X14225000Y-33000000D03*
%TD*%
D13*
%TO.P,R603,1*%
%TO.N,/P6_SCK_DRV*%
X61825000Y-44000000D03*
%TO.P,R603,2*%
%TO.N,/P6_SCK*%
X60175000Y-44000000D03*
%TD*%
%TO.P,R303,1*%
%TO.N,/P3_SCK_DRV*%
X9825000Y-44000000D03*
%TO.P,R303,2*%
%TO.N,/P3_SCK*%
X8175000Y-44000000D03*
%TD*%
D12*
%TO.P,C102,1*%
%TO.N,/P1_3V3*%
X17775000Y-5000000D03*
%TO.P,C102,2*%
%TO.N,/GND*%
X16225000Y-5000000D03*
%TD*%
D13*
%TO.P,R207,1*%
%TO.N,/P2_3V3*%
X9825000Y-36000000D03*
%TO.P,R207,2*%
%TO.N,/P2_CS*%
X8175000Y-36000000D03*
%TD*%
D12*
%TO.P,C104,1*%
%TO.N,/P1_3V3*%
X15775000Y-10000000D03*
%TO.P,C104,2*%
%TO.N,/GND*%
X14225000Y-10000000D03*
%TD*%
%TO.P,C303,1*%
%TO.N,/MCU_3V3*%
X19275000Y-53000000D03*
%TO.P,C303,2*%
%TO.N,/GND*%
X17725000Y-53000000D03*
%TD*%
D13*
%TO.P,R203,1*%
%TO.N,/P2_SCK_DRV*%
X9825000Y-25000000D03*
%TO.P,R203,2*%
%TO.N,/P2_SCK*%
X8175000Y-25000000D03*
%TD*%
%TO.P,R105,1*%
%TO.N,/P1_CS_DRV*%
X9825000Y-13000000D03*
%TO.P,R105,2*%
%TO.N,/P1_CS*%
X8175000Y-13000000D03*
%TD*%
D12*
%TO.P,C203,1*%
%TO.N,/MCU_3V3*%
X19275000Y-34000000D03*
%TO.P,C203,2*%
%TO.N,/GND*%
X17725000Y-34000000D03*
%TD*%
D14*
%TO.P,TP4,1*%
%TO.N,/P4_FAULT_N*%
X47000000Y-10000000D03*
%TD*%
D12*
%TO.P,C301,1*%
%TO.N,/P3_3V3*%
X11775000Y-40000000D03*
%TO.P,C301,2*%
%TO.N,/GND*%
X10225000Y-40000000D03*
%TD*%
%TO.P,C504,1*%
%TO.N,/P5_3V3*%
X55775000Y-29000000D03*
%TO.P,C504,2*%
%TO.N,/GND*%
X54225000Y-29000000D03*
%TD*%
%TO.P,C404,1*%
%TO.N,/P4_3V3*%
X55775000Y-10000000D03*
%TO.P,C404,2*%
%TO.N,/GND*%
X54225000Y-10000000D03*
%TD*%
D13*
%TO.P,R106,1*%
%TO.N,/P1_MISO*%
X18825000Y-8000000D03*
%TO.P,R106,2*%
%TO.N,/GND*%
X17175000Y-8000000D03*
%TD*%
D12*
%TO.P,C601,1*%
%TO.N,/P6_3V3*%
X59775000Y-40000000D03*
%TO.P,C601,2*%
%TO.N,/GND*%
X58225000Y-40000000D03*
%TD*%
%TO.P,C501,1*%
%TO.N,/P5_3V3*%
X59775000Y-21000000D03*
%TO.P,C501,2*%
%TO.N,/GND*%
X58225000Y-21000000D03*
%TD*%
D13*
%TO.P,R204,1*%
%TO.N,/P2_MOSI_DRV*%
X9825000Y-29000000D03*
%TO.P,R204,2*%
%TO.N,/P2_MOSI*%
X8175000Y-29000000D03*
%TD*%
%TO.P,R201,1*%
%TO.N,/P2_3V3*%
X22825000Y-31000000D03*
%TO.P,R201,2*%
%TO.N,/P2_OE_N*%
X21175000Y-31000000D03*
%TD*%
%TO.P,R510,1*%
%TO.N,/SENSOR_3V3*%
X49825000Y-38000000D03*
%TO.P,R510,2*%
%TO.N,/P5_FAULT_N*%
X48175000Y-38000000D03*
%TD*%
%TO.P,R108,1*%
%TO.N,/P1_SCK*%
X7325000Y-4000000D03*
%TO.P,R108,2*%
%TO.N,/GND*%
X5675000Y-4000000D03*
%TD*%
%TO.P,R301,1*%
%TO.N,/P3_3V3*%
X22825000Y-50000000D03*
%TO.P,R301,2*%
%TO.N,/P3_OE_N*%
X21175000Y-50000000D03*
%TD*%
D12*
%TO.P,C602,1*%
%TO.N,/P6_3V3*%
X53775000Y-43000000D03*
%TO.P,C602,2*%
%TO.N,/GND*%
X52225000Y-43000000D03*
%TD*%
%TO.P,C200,1*%
%TO.N,/SENSOR_3V3*%
X16775000Y-22000000D03*
%TO.P,C200,2*%
%TO.N,/GND*%
X15225000Y-22000000D03*
%TD*%
D13*
%TO.P,R1,1*%
%TO.N,/IO_ENABLE*%
X35825000Y-28000000D03*
%TO.P,R1,2*%
%TO.N,/GND*%
X34175000Y-28000000D03*
%TD*%
%TO.P,R210,1*%
%TO.N,/SENSOR_3V3*%
X21825000Y-38000000D03*
%TO.P,R210,2*%
%TO.N,/P2_FAULT_N*%
X20175000Y-38000000D03*
%TD*%
D12*
%TO.P,C505,1*%
%TO.N,/P5_3V3*%
X55775000Y-33000000D03*
%TO.P,C505,2*%
%TO.N,/GND*%
X54225000Y-33000000D03*
%TD*%
%TO.P,C603,1*%
%TO.N,/MCU_3V3*%
X52275000Y-53000000D03*
%TO.P,C603,2*%
%TO.N,/GND*%
X50725000Y-53000000D03*
%TD*%
%TO.P,C300,1*%
%TO.N,/SENSOR_3V3*%
X16775000Y-41000000D03*
%TO.P,C300,2*%
%TO.N,/GND*%
X15225000Y-41000000D03*
%TD*%
D13*
%TO.P,R400,1*%
%TO.N,/P4_ILIM*%
X49325000Y-8000000D03*
%TO.P,R400,2*%
%TO.N,/GND*%
X47675000Y-8000000D03*
%TD*%
%TO.P,R505,1*%
%TO.N,/P5_CS_DRV*%
X61825000Y-32000000D03*
%TO.P,R505,2*%
%TO.N,/P5_CS*%
X60175000Y-32000000D03*
%TD*%
%TO.P,R107,1*%
%TO.N,/P1_3V3*%
X9825000Y-17000000D03*
%TO.P,R107,2*%
%TO.N,/P1_CS*%
X8175000Y-17000000D03*
%TD*%
%TO.P,R609,1*%
%TO.N,/P6_MOSI*%
X61825000Y-53000000D03*
%TO.P,R609,2*%
%TO.N,/GND*%
X60175000Y-53000000D03*
%TD*%
D12*
%TO.P,C405,1*%
%TO.N,/P4_3V3*%
X55775000Y-14000000D03*
%TO.P,C405,2*%
%TO.N,/GND*%
X54225000Y-14000000D03*
%TD*%
D13*
%TO.P,R409,1*%
%TO.N,/P4_MOSI*%
X61825000Y-15000000D03*
%TO.P,R409,2*%
%TO.N,/GND*%
X60175000Y-15000000D03*
%TD*%
%TO.P,R408,1*%
%TO.N,/P4_SCK*%
X61825000Y-6500000D03*
%TO.P,R408,2*%
%TO.N,/GND*%
X60175000Y-6500000D03*
%TD*%
%TO.P,R604,1*%
%TO.N,/P6_MOSI_DRV*%
X61825000Y-48000000D03*
%TO.P,R604,2*%
%TO.N,/P6_MOSI*%
X60175000Y-48000000D03*
%TD*%
%TO.P,R601,1*%
%TO.N,/P6_3V3*%
X48825000Y-50000000D03*
%TO.P,R601,2*%
%TO.N,/P6_OE_N*%
X47175000Y-50000000D03*
%TD*%
D12*
%TO.P,C103,1*%
%TO.N,/MCU_3V3*%
X19275000Y-15000000D03*
%TO.P,C103,2*%
%TO.N,/GND*%
X17725000Y-15000000D03*
%TD*%
D13*
%TO.P,R110,1*%
%TO.N,/SENSOR_3V3*%
X21825000Y-19000000D03*
%TO.P,R110,2*%
%TO.N,/P1_FAULT_N*%
X20175000Y-19000000D03*
%TD*%
%TO.P,R309,1*%
%TO.N,/P3_MOSI*%
X9825000Y-53000000D03*
%TO.P,R309,2*%
%TO.N,/GND*%
X8175000Y-53000000D03*
%TD*%
%TO.P,R104,1*%
%TO.N,/P1_MOSI_DRV*%
X9825000Y-10000000D03*
%TO.P,R104,2*%
%TO.N,/P1_MOSI*%
X8175000Y-10000000D03*
%TD*%
%TO.P,R605,1*%
%TO.N,/P6_CS_DRV*%
X61825000Y-51000000D03*
%TO.P,R605,2*%
%TO.N,/P6_CS*%
X60175000Y-51000000D03*
%TD*%
D14*
%TO.P,TP2,1*%
%TO.N,/P2_FAULT_N*%
X23000000Y-29000000D03*
%TD*%
D12*
%TO.P,C1,1*%
%TO.N,/VIN_5V*%
X30775000Y-48000000D03*
%TO.P,C1,2*%
%TO.N,/GND*%
X29225000Y-48000000D03*
%TD*%
D13*
%TO.P,R208,1*%
%TO.N,/P2_SCK*%
X9825000Y-23000000D03*
%TO.P,R208,2*%
%TO.N,/GND*%
X8175000Y-23000000D03*
%TD*%
D12*
%TO.P,C500,1*%
%TO.N,/SENSOR_3V3*%
X54775000Y-22000000D03*
%TO.P,C500,2*%
%TO.N,/GND*%
X53225000Y-22000000D03*
%TD*%
%TO.P,C604,1*%
%TO.N,/P6_3V3*%
X55775000Y-48000000D03*
%TO.P,C604,2*%
%TO.N,/GND*%
X54225000Y-48000000D03*
%TD*%
%TO.P,C600,1*%
%TO.N,/SENSOR_3V3*%
X54775000Y-41000000D03*
%TO.P,C600,2*%
%TO.N,/GND*%
X53225000Y-41000000D03*
%TD*%
D13*
%TO.P,R405,1*%
%TO.N,/P4_CS_DRV*%
X61825000Y-13000000D03*
%TO.P,R405,2*%
%TO.N,/P4_CS*%
X60175000Y-13000000D03*
%TD*%
D12*
%TO.P,C201,1*%
%TO.N,/P2_3V3*%
X11775000Y-21000000D03*
%TO.P,C201,2*%
%TO.N,/GND*%
X10225000Y-21000000D03*
%TD*%
D13*
%TO.P,R507,1*%
%TO.N,/P5_3V3*%
X61825000Y-36000000D03*
%TO.P,R507,2*%
%TO.N,/P5_CS*%
X60175000Y-36000000D03*
%TD*%
D12*
%TO.P,C503,1*%
%TO.N,/MCU_3V3*%
X52275000Y-34000000D03*
%TO.P,C503,2*%
%TO.N,/GND*%
X50725000Y-34000000D03*
%TD*%
D13*
%TO.P,R402,1*%
%TO.N,/MCU_3V3*%
X53825000Y-18000000D03*
%TO.P,R402,2*%
%TO.N,/CS4*%
X52175000Y-18000000D03*
%TD*%
D12*
%TO.P,C2,1*%
%TO.N,/SENSOR_3V3*%
X39775000Y-48000000D03*
%TO.P,C2,2*%
%TO.N,/GND*%
X38225000Y-48000000D03*
%TD*%
D13*
%TO.P,R209,1*%
%TO.N,/P2_MOSI*%
X9825000Y-34000000D03*
%TO.P,R209,2*%
%TO.N,/GND*%
X8175000Y-34000000D03*
%TD*%
%TO.P,R306,1*%
%TO.N,/P3_MISO*%
X18825000Y-46000000D03*
%TO.P,R306,2*%
%TO.N,/GND*%
X17175000Y-46000000D03*
%TD*%
%TO.P,R308,1*%
%TO.N,/P3_SCK*%
X9825000Y-42000000D03*
%TO.P,R308,2*%
%TO.N,/GND*%
X8175000Y-42000000D03*
%TD*%
%TO.P,R205,1*%
%TO.N,/P2_CS_DRV*%
X9825000Y-32000000D03*
%TO.P,R205,2*%
%TO.N,/P2_CS*%
X8175000Y-32000000D03*
%TD*%
D12*
%TO.P,C400,1*%
%TO.N,/SENSOR_3V3*%
X54775000Y-3000000D03*
%TO.P,C400,2*%
%TO.N,/GND*%
X53225000Y-3000000D03*
%TD*%
D13*
%TO.P,R304,1*%
%TO.N,/P3_MOSI_DRV*%
X9825000Y-48000000D03*
%TO.P,R304,2*%
%TO.N,/P3_MOSI*%
X8175000Y-48000000D03*
%TD*%
%TO.P,R404,1*%
%TO.N,/P4_MOSI_DRV*%
X61825000Y-10000000D03*
%TO.P,R404,2*%
%TO.N,/P4_MOSI*%
X60175000Y-10000000D03*
%TD*%
%TO.P,R608,1*%
%TO.N,/P6_SCK*%
X61825000Y-42000000D03*
%TO.P,R608,2*%
%TO.N,/GND*%
X60175000Y-42000000D03*
%TD*%
D12*
%TO.P,C502,1*%
%TO.N,/P5_3V3*%
X53775000Y-24000000D03*
%TO.P,C502,2*%
%TO.N,/GND*%
X52225000Y-24000000D03*
%TD*%
D13*
%TO.P,R102,1*%
%TO.N,/MCU_3V3*%
X17825000Y-18000000D03*
%TO.P,R102,2*%
%TO.N,/CS1*%
X16175000Y-18000000D03*
%TD*%
%TO.P,R406,1*%
%TO.N,/P4_MISO*%
X52825000Y-8000000D03*
%TO.P,R406,2*%
%TO.N,/GND*%
X51175000Y-8000000D03*
%TD*%
%TO.P,R506,1*%
%TO.N,/P5_MISO*%
X52825000Y-27000000D03*
%TO.P,R506,2*%
%TO.N,/GND*%
X51175000Y-27000000D03*
%TD*%
%TO.P,R407,1*%
%TO.N,/P4_3V3*%
X61825000Y-17000000D03*
%TO.P,R407,2*%
%TO.N,/P4_CS*%
X60175000Y-17000000D03*
%TD*%
%TO.P,R401,1*%
%TO.N,/P4_3V3*%
X48825000Y-12000000D03*
%TO.P,R401,2*%
%TO.N,/P4_OE_N*%
X47175000Y-12000000D03*
%TD*%
%TO.P,R410,1*%
%TO.N,/SENSOR_3V3*%
X49825000Y-19000000D03*
%TO.P,R410,2*%
%TO.N,/P4_FAULT_N*%
X48175000Y-19000000D03*
%TD*%
%TO.P,R504,1*%
%TO.N,/P5_MOSI_DRV*%
X61825000Y-29000000D03*
%TO.P,R504,2*%
%TO.N,/P5_MOSI*%
X60175000Y-29000000D03*
%TD*%
%TO.P,R403,1*%
%TO.N,/P4_SCK_DRV*%
X64325000Y-4500000D03*
%TO.P,R403,2*%
%TO.N,/P4_SCK*%
X62675000Y-4500000D03*
%TD*%
D14*
%TO.P,TP1,1*%
%TO.N,/P1_FAULT_N*%
X23000000Y-10000000D03*
%TD*%
D12*
%TO.P,C304,1*%
%TO.N,/P3_3V3*%
X15775000Y-48000000D03*
%TO.P,C304,2*%
%TO.N,/GND*%
X14225000Y-48000000D03*
%TD*%
%TO.P,C204,1*%
%TO.N,/P2_3V3*%
X15775000Y-29000000D03*
%TO.P,C204,2*%
%TO.N,/GND*%
X14225000Y-29000000D03*
%TD*%
%TO.P,C402,1*%
%TO.N,/P4_3V3*%
X53775000Y-5000000D03*
%TO.P,C402,2*%
%TO.N,/GND*%
X52225000Y-5000000D03*
%TD*%
D15*
%TO.N,/VIN_5V*%
X33500000Y-40554400D03*
X34000000Y-52573900D03*
X28984300Y-28484300D03*
D16*
%TO.N,/GND*%
X20062500Y-36850000D03*
X17175000Y-27900000D03*
X11862500Y-49850000D03*
X11862500Y-34850000D03*
X15225000Y-22900000D03*
X60175000Y-15900000D03*
X54225000Y-14900000D03*
X13325000Y-29000000D03*
X3150000Y-52025000D03*
X52225000Y-44100000D03*
X15225000Y-41900000D03*
X54225000Y-52900000D03*
X16862500Y-51350000D03*
X11862500Y-15850000D03*
X58225000Y-21900000D03*
X52225000Y-25100000D03*
X53225000Y-22900000D03*
X55862500Y-45850000D03*
X11862500Y-45850000D03*
X17175000Y-8900000D03*
X14862500Y-7850000D03*
X3150000Y-33025000D03*
X66850000Y-24975000D03*
X49825000Y-34000000D03*
X54225000Y-47100000D03*
X8175000Y-34900000D03*
X55862500Y-34850000D03*
X13325000Y-52000000D03*
X16225000Y-43900000D03*
X20675000Y-8900000D03*
X48062500Y-36850000D03*
X55862500Y-53850000D03*
X34175000Y-28900000D03*
X51762500Y-6950000D03*
X55862500Y-15850000D03*
X7275000Y-23000000D03*
X66850000Y-43975000D03*
X47262500Y-4500000D03*
X51175000Y-46900000D03*
X55862500Y-11850000D03*
X60175000Y-42900000D03*
X17175000Y-46900000D03*
X17725000Y-15900000D03*
X66850000Y-5975000D03*
X55862500Y-26850000D03*
X20062500Y-17850000D03*
X15362500Y-42500000D03*
X48062500Y-55850000D03*
X20062500Y-55850000D03*
X13325000Y-48000000D03*
X20675000Y-46900000D03*
X33900000Y-44000000D03*
X55862500Y-30850000D03*
X54225000Y-28100000D03*
X60175000Y-7400000D03*
X47762500Y-23500000D03*
X60175000Y-34900000D03*
X49825000Y-15000000D03*
X38225000Y-48900000D03*
X48062500Y-17850000D03*
X11862500Y-26850000D03*
X50862500Y-51350000D03*
X16862500Y-13350000D03*
X3150000Y-14025000D03*
X47675000Y-8900000D03*
X17725000Y-34900000D03*
X13325000Y-33000000D03*
X15225000Y-3900000D03*
X17725000Y-53900000D03*
X49825000Y-53000000D03*
X47762500Y-42500000D03*
X11862500Y-53850000D03*
X16225000Y-24900000D03*
X55862500Y-49850000D03*
X51175000Y-27900000D03*
X20675000Y-27900000D03*
X52225000Y-4100000D03*
X16225000Y-5900000D03*
X13325000Y-14000000D03*
X10225000Y-21900000D03*
X29225000Y-48900000D03*
X54225000Y-33900000D03*
X11725000Y-7400000D03*
X51175000Y-8900000D03*
X8175000Y-53900000D03*
X13325000Y-10000000D03*
X50862500Y-13350000D03*
X18462500Y-2800000D03*
X15362500Y-23500000D03*
X54225000Y-9100000D03*
X56725000Y-7400000D03*
X60175000Y-53900000D03*
X16862500Y-32350000D03*
X58225000Y-40900000D03*
X47675000Y-27900000D03*
X4775000Y-4000000D03*
X11862500Y-30850000D03*
X53225000Y-41900000D03*
X36900000Y-56000000D03*
X60175000Y-23900000D03*
X10225000Y-40900000D03*
X8175000Y-15900000D03*
X50862500Y-32350000D03*
X7275000Y-42000000D03*
X47675000Y-46900000D03*
X11862500Y-11850000D03*
X53225000Y-3900000D03*
%TO.N,/P2_OE_N*%
X20697300Y-35117700D03*
%TO.N,/SCK*%
X13710800Y-5515800D03*
X10088800Y-25993100D03*
X31506800Y-18004400D03*
X7549000Y-45171700D03*
%TO.N,/P2_SCK_DRV*%
X12845800Y-26573400D03*
D15*
%TO.N,/P2_3V3*%
X21852400Y-29372200D03*
X4683500Y-30875000D03*
X11776600Y-22124600D03*
X22013900Y-21673600D03*
D16*
%TO.N,/P3_OE_N*%
X12674500Y-50238000D03*
X21175000Y-52001300D03*
X10676800Y-47184100D03*
%TO.N,/P3_SCK_DRV*%
X13982900Y-45754800D03*
D15*
%TO.N,/P3_3V3*%
X14445900Y-50100200D03*
X22438500Y-41466400D03*
X4537100Y-50424200D03*
X13949700Y-44000000D03*
D16*
%TO.N,/SENSOR_3V3*%
X22725000Y-38000000D03*
X18862500Y-21650000D03*
X48862500Y-40650000D03*
X50725000Y-38000000D03*
X19362500Y-2650000D03*
X55675000Y-22000000D03*
X50725000Y-19000000D03*
X40675000Y-48000000D03*
X17675000Y-41000000D03*
X55675000Y-3000000D03*
X18862500Y-40650000D03*
X22725000Y-19000000D03*
X48362500Y-2650000D03*
X17675000Y-3000000D03*
X17675000Y-22000000D03*
X48862500Y-25350000D03*
X48862500Y-21650000D03*
X18862500Y-44350000D03*
X19362500Y-6350000D03*
X50725000Y-57000000D03*
X48862500Y-44350000D03*
X18862500Y-25350000D03*
X37900000Y-44000000D03*
X22725000Y-57000000D03*
X48362500Y-6350000D03*
X55675000Y-41000000D03*
%TO.N,/P5_FAULT_N*%
X48211200Y-28500200D03*
%TO.N,/P5_ILIM*%
X49896400Y-25011100D03*
%TO.N,/P5_3V3*%
X59287400Y-23582900D03*
%TO.N,/CS4*%
X34842500Y-15069600D03*
X52175000Y-16297900D03*
X45590800Y-10733900D03*
%TO.N,/P4_MISO*%
X59459000Y-11143000D03*
X52825000Y-11533000D03*
%TO.N,/MISO*%
X47891400Y-44720000D03*
X24869000Y-37589700D03*
X39825000Y-27021400D03*
X53370700Y-49640100D03*
X24074700Y-48551200D03*
D15*
%TO.N,/MCU_3V3*%
X22256500Y-51560400D03*
D16*
X51504700Y-47701700D03*
D15*
X52452500Y-35302400D03*
X17825000Y-38159400D03*
X18869300Y-17580000D03*
X41816300Y-48164800D03*
D16*
%TO.N,/MOSI*%
X13141600Y-27431500D03*
X20342900Y-21305800D03*
X5245700Y-41997700D03*
X12003900Y-23242900D03*
X50523400Y-28530300D03*
X29889800Y-20408300D03*
X64430400Y-6880000D03*
X35202700Y-16493800D03*
X56828500Y-46257400D03*
%TO.N,/P2_MOSI_DRV*%
X14438700Y-30773700D03*
%TO.N,/P3_MOSI_DRV*%
X4036900Y-55295400D03*
X11639500Y-55888400D03*
X4204500Y-51864200D03*
X10379700Y-49716600D03*
X12561200Y-54519900D03*
%TO.N,/CS5*%
X31923700Y-26163700D03*
X51986000Y-31928100D03*
X53421500Y-33781900D03*
%TO.N,/P5_MISO*%
X52164500Y-21723900D03*
X49696700Y-29731800D03*
%TO.N,/P6_OE_N*%
X47175000Y-52074600D03*
%TO.N,/P6_SCK_DRV*%
X61825000Y-45747500D03*
%TO.N,/P6_3V3*%
X59353500Y-46851900D03*
X59306700Y-43050000D03*
D15*
X53130500Y-44591100D03*
X50226400Y-46778800D03*
D16*
%TO.N,/P6_MOSI_DRV*%
X63718300Y-48950000D03*
%TO.N,/P6_SCK*%
X68026900Y-47999800D03*
%TO.N,/P6_MOSI*%
X63111500Y-47975800D03*
%TO.N,/P6_MISO*%
X51522400Y-51972600D03*
X51270000Y-56050500D03*
%TO.N,/P6_CS*%
X59424900Y-50249900D03*
X60175000Y-55990000D03*
%TO.N,/P5_SCK*%
X65189800Y-28310100D03*
%TO.N,/P5_MOSI*%
X65674800Y-28975800D03*
%TO.N,/P5_CS*%
X60347600Y-32977600D03*
%TO.N,/P1_OE_N*%
X20665700Y-16000000D03*
X11047500Y-12235000D03*
X9799500Y-10987000D03*
%TO.N,/P1_MOSI_DRV*%
X12891500Y-11534000D03*
D15*
%TO.N,/P1_3V3*%
X4658300Y-11892600D03*
X22956900Y-3799200D03*
D16*
%TO.N,/IO_ENABLE*%
X36841000Y-33236200D03*
X35826600Y-17809900D03*
X23493400Y-31817500D03*
X34658100Y-51820900D03*
X21301100Y-32866300D03*
X33987000Y-32304800D03*
%TO.N,/P4_OE_N*%
X47175000Y-13580600D03*
%TO.N,/CS2*%
X13065500Y-34474500D03*
X14366300Y-34774300D03*
%TO.N,/P2_CS_DRV*%
X9342900Y-31020900D03*
%TO.N,/P2_FAULT_N*%
X21934000Y-25246500D03*
%TO.N,/P2_ILIM*%
X22817000Y-23849200D03*
%TO.N,/P4_3V3*%
X58137500Y-8181100D03*
%TO.N,/P4_SCK*%
X64465700Y-9140700D03*
%TO.N,/P4_MOSI*%
X64778500Y-9975800D03*
%TO.N,/P4_CS*%
X60175000Y-12022000D03*
%TO.N,/P3_SCK*%
X4635800Y-48962900D03*
%TO.N,/P3_MOSI*%
X8004400Y-46996500D03*
%TO.N,/P3_MISO*%
X15055600Y-46383000D03*
X10946400Y-46326800D03*
X18825000Y-47740000D03*
%TO.N,/P3_CS*%
X4513700Y-44875000D03*
%TO.N,/P4_CS_DRV*%
X60743200Y-14081800D03*
%TO.N,/CS6*%
X52175000Y-54033900D03*
%TO.N,/P6_CS_DRV*%
X58137500Y-53774900D03*
%TO.N,/P2_SCK*%
X1304700Y-30104300D03*
%TO.N,/P2_MOSI*%
X6255300Y-28299900D03*
%TO.N,/P2_MISO*%
X19907900Y-32273500D03*
%TO.N,/P2_CS*%
X4530700Y-26987500D03*
%TO.N,/P3_FAULT_N*%
X23228300Y-45540800D03*
%TO.N,/P3_ILIM*%
X22325000Y-42849200D03*
%TO.N,/P1_FAULT_N*%
X23000000Y-8794500D03*
%TO.N,/P1_ILIM*%
X22810800Y-4849200D03*
%TO.N,/CS1*%
X19656100Y-9529800D03*
X16175000Y-16406200D03*
%TO.N,/P1_CS_DRV*%
X13017400Y-15449500D03*
%TO.N,/CS3*%
X15246800Y-55799900D03*
%TO.N,/P3_CS_DRV*%
X14137500Y-53780400D03*
%TO.N,/P5_OE_N*%
X57326500Y-27049800D03*
X54727600Y-27461600D03*
X56918700Y-31461100D03*
X48733300Y-33232500D03*
%TO.N,/P5_CS_DRV*%
X62147700Y-33000000D03*
%TO.N,/P5_MOSI_DRV*%
X58941600Y-29145900D03*
%TO.N,/P4_FAULT_N*%
X49500000Y-3097000D03*
%TO.N,/P4_ILIM*%
X49325000Y-6797900D03*
%TO.N,/P1_MISO*%
X15384900Y-12798900D03*
X10467200Y-8125000D03*
X18051700Y-10046100D03*
%TO.N,/P1_SCK*%
X4304600Y-10003700D03*
%TO.N,/P1_MOSI*%
X8175000Y-8727800D03*
%TO.N,/P1_CS*%
X4324500Y-7493600D03*
%TO.N,/P4_MOSI_DRV*%
X60995200Y-10653000D03*
%TO.N,/P1_SCK_DRV*%
X20724600Y-7005200D03*
X24304200Y-8914600D03*
X24304200Y-818100D03*
X18466600Y-6635400D03*
X10295400Y-5389000D03*
%TO.N,/P4_SCK_DRV*%
X50250000Y-8173200D03*
%TO.N,/P5_SCK_DRV*%
X59330500Y-25950000D03*
%TO.N,/P6_FAULT_N*%
X48737800Y-46887200D03*
%TO.N,/P6_ILIM*%
X50018000Y-43928700D03*
%TD*%
%TO.N,/VIN_5V*%
D17*
X30775000Y-43279400D02*
X30775000Y-48000000D01*
X33500000Y-33000000D02*
X33500000Y-40554400D01*
X30775000Y-49348900D02*
X30775000Y-48000000D01*
X33500000Y-40554400D02*
X30775000Y-43279400D01*
X28984300Y-28484300D02*
X33500000Y-33000000D01*
X34000000Y-52573900D02*
X30775000Y-49348900D01*
%TO.N,/GND*%
D18*
X17725000Y-53000000D02*
X17725000Y-53900000D01*
X17175000Y-8000000D02*
X17175000Y-8900000D01*
X52225000Y-5000000D02*
X52225000Y-4100000D01*
X34175000Y-28000000D02*
X34175000Y-28900000D01*
X14225000Y-52000000D02*
X13325000Y-52000000D01*
X8175000Y-15000000D02*
X8175000Y-15900000D01*
X54225000Y-14000000D02*
X54225000Y-14900000D01*
X5675000Y-4000000D02*
X4775000Y-4000000D01*
X17725000Y-15000000D02*
X17725000Y-15900000D01*
X11725000Y-6500000D02*
X11725000Y-7400000D01*
X15225000Y-41000000D02*
X15225000Y-41900000D01*
X14225000Y-10000000D02*
X13325000Y-10000000D01*
X16225000Y-5000000D02*
X16225000Y-5900000D01*
X60175000Y-23000000D02*
X60175000Y-23900000D01*
X20675000Y-46000000D02*
X20675000Y-46900000D01*
X15225000Y-22000000D02*
X15225000Y-22900000D01*
X15225000Y-3000000D02*
X15225000Y-3900000D01*
X54225000Y-33000000D02*
X54225000Y-33900000D01*
X20675000Y-27000000D02*
X20675000Y-27900000D01*
X60175000Y-53000000D02*
X60175000Y-53900000D01*
X54225000Y-10000000D02*
X54225000Y-9100000D01*
X60175000Y-42000000D02*
X60175000Y-42900000D01*
X60175000Y-6500000D02*
X60175000Y-7400000D01*
X8175000Y-23000000D02*
X7275000Y-23000000D01*
X10225000Y-40000000D02*
X10225000Y-40900000D01*
X17175000Y-27000000D02*
X17175000Y-27900000D01*
X20675000Y-8000000D02*
X20675000Y-8900000D01*
X52225000Y-43000000D02*
X52225000Y-44100000D01*
X16225000Y-24000000D02*
X16225000Y-24900000D01*
X54225000Y-52000000D02*
X54225000Y-52900000D01*
X47675000Y-8000000D02*
X47675000Y-8900000D01*
X54225000Y-48000000D02*
X54225000Y-47100000D01*
X47675000Y-27000000D02*
X47675000Y-27900000D01*
X14225000Y-29000000D02*
X13325000Y-29000000D01*
X38225000Y-48000000D02*
X38225000Y-48900000D01*
X58225000Y-40000000D02*
X58225000Y-40900000D01*
X17725000Y-34000000D02*
X17725000Y-34900000D01*
X50725000Y-53000000D02*
X49825000Y-53000000D01*
X60175000Y-34000000D02*
X60175000Y-34900000D01*
X56725000Y-6500000D02*
X56725000Y-7400000D01*
X60175000Y-15000000D02*
X60175000Y-15900000D01*
X58225000Y-21000000D02*
X58225000Y-21900000D01*
X10225000Y-21000000D02*
X10225000Y-21900000D01*
X14225000Y-33000000D02*
X13325000Y-33000000D01*
X51175000Y-27000000D02*
X51175000Y-27900000D01*
X50725000Y-34000000D02*
X49825000Y-34000000D01*
X16225000Y-43000000D02*
X16225000Y-43900000D01*
X47675000Y-46000000D02*
X47675000Y-46900000D01*
X50725000Y-15000000D02*
X49825000Y-15000000D01*
X8175000Y-42000000D02*
X7275000Y-42000000D01*
X8175000Y-34000000D02*
X8175000Y-34900000D01*
X53225000Y-41000000D02*
X53225000Y-41900000D01*
X51175000Y-46000000D02*
X51175000Y-46900000D01*
X14225000Y-48000000D02*
X13325000Y-48000000D01*
X53225000Y-22000000D02*
X53225000Y-22900000D01*
X14225000Y-14000000D02*
X13325000Y-14000000D01*
X8175000Y-53000000D02*
X8175000Y-53900000D01*
X53225000Y-3000000D02*
X53225000Y-3900000D01*
X17175000Y-46000000D02*
X17175000Y-46900000D01*
X54225000Y-29000000D02*
X54225000Y-28100000D01*
X52225000Y-24000000D02*
X52225000Y-25100000D01*
X51175000Y-8000000D02*
X51175000Y-8900000D01*
X29225000Y-48000000D02*
X29225000Y-48900000D01*
%TO.N,/P2_OE_N*%
X20697300Y-35117700D02*
X20697300Y-31477700D01*
X20697300Y-31477700D02*
X21175000Y-31000000D01*
%TO.N,/SCK*%
X21609300Y-4141500D02*
X22717800Y-3033000D01*
X13710800Y-5515800D02*
X12982300Y-4787300D01*
X657400Y-30337000D02*
X1069600Y-30749200D01*
X4614600Y-3219800D02*
X657400Y-7177000D01*
X10005700Y-4787300D02*
X8438200Y-3219800D01*
X3438600Y-28642400D02*
X3556300Y-28760100D01*
X23658700Y-3420400D02*
X23658700Y-9445700D01*
X31506800Y-16372900D02*
X31506800Y-18004400D01*
X23658700Y-9445700D02*
X26943000Y-12730000D01*
X10088800Y-25993100D02*
X5498900Y-25993100D01*
X3438600Y-26591600D02*
X3438600Y-28642400D01*
X12982300Y-4787300D02*
X10005700Y-4787300D01*
X3556300Y-28760100D02*
X1567200Y-30749200D01*
X5097200Y-25591400D02*
X4438800Y-25591400D01*
X26943000Y-12730000D02*
X27863900Y-12730000D01*
X1567200Y-39189900D02*
X7549000Y-45171700D01*
X15862400Y-4141500D02*
X21609300Y-4141500D01*
X22717800Y-3033000D02*
X23271300Y-3033000D01*
X13710800Y-5515800D02*
X14488100Y-5515800D01*
X8438200Y-3219800D02*
X4614600Y-3219800D01*
X14488100Y-5515800D02*
X15862400Y-4141500D01*
X657400Y-7177000D02*
X657400Y-30337000D01*
X27863900Y-12730000D02*
X31506800Y-16372900D01*
X23271300Y-3033000D02*
X23658700Y-3420400D01*
X1567200Y-30749200D02*
X1567200Y-39189900D01*
X1069600Y-30749200D02*
X1567200Y-30749200D01*
X5498900Y-25993100D02*
X5097200Y-25591400D01*
X4438800Y-25591400D02*
X3438600Y-26591600D01*
%TO.N,/P2_SCK_DRV*%
X11272400Y-25000000D02*
X12845800Y-26573400D01*
X9825000Y-25000000D02*
X11272400Y-25000000D01*
%TO.N,/P2_3V3*%
D19*
X9825000Y-35468100D02*
X9825000Y-36000000D01*
X9825000Y-36000000D02*
X8911300Y-36913700D01*
X15775000Y-26302500D02*
X15915400Y-26162100D01*
X15775000Y-29000000D02*
X15775000Y-26302500D01*
X8911300Y-36913700D02*
X7761200Y-36913700D01*
X11877900Y-22124600D02*
X11776600Y-22124600D01*
X15915400Y-26162100D02*
X11877900Y-22124600D01*
X22825000Y-31000000D02*
X22825000Y-30344800D01*
X15775000Y-32094400D02*
X13198700Y-32094400D01*
X22825000Y-30344800D02*
X21852400Y-29372200D01*
X19687500Y-24000000D02*
X22013900Y-21673600D01*
X17775000Y-24405400D02*
X17775000Y-24000000D01*
X16018300Y-26162100D02*
X17775000Y-24405400D01*
X4632100Y-30875000D02*
X4683500Y-30875000D01*
X11775000Y-22123000D02*
X11776600Y-22124600D01*
X15775000Y-29000000D02*
X15775000Y-32094400D01*
X7761200Y-36913700D02*
X4632100Y-33784600D01*
X15775000Y-32094400D02*
X15775000Y-33000000D01*
X15915400Y-26162100D02*
X16018300Y-26162100D01*
X17775000Y-24000000D02*
X19687500Y-24000000D01*
X4632100Y-33784600D02*
X4632100Y-30875000D01*
X13198700Y-32094400D02*
X9825000Y-35468100D01*
X11775000Y-21000000D02*
X11775000Y-22123000D01*
%TO.N,/P3_OE_N*%
D18*
X12674500Y-49181800D02*
X12674500Y-50238000D01*
X21175000Y-50000000D02*
X21175000Y-52001300D01*
X10676800Y-47184100D02*
X12674500Y-49181800D01*
%TO.N,/P3_SCK_DRV*%
X12228100Y-44000000D02*
X13982900Y-45754800D01*
X9825000Y-44000000D02*
X12228100Y-44000000D01*
%TO.N,/P3_3V3*%
D19*
X8935800Y-55889200D02*
X7731800Y-55889200D01*
X17775000Y-43405400D02*
X17775000Y-43000000D01*
X15775000Y-50100200D02*
X15775000Y-52000000D01*
X15775000Y-48000000D02*
X15775000Y-49076800D01*
X15775000Y-49076800D02*
X15775000Y-50100200D01*
X14452300Y-54502400D02*
X13565200Y-54502400D01*
X13949700Y-44000000D02*
X14630300Y-44680600D01*
X15775000Y-53179700D02*
X14452300Y-54502400D01*
X12209400Y-53146600D02*
X11549100Y-53146600D01*
X20904900Y-43000000D02*
X22438500Y-41466400D01*
X15775000Y-52000000D02*
X15775000Y-53179700D01*
X11775000Y-40000000D02*
X11775000Y-41825300D01*
X14630300Y-44680600D02*
X15775000Y-44680600D01*
X11775000Y-41825300D02*
X13949700Y-44000000D01*
X11549100Y-53146600D02*
X9825000Y-54870700D01*
X13565200Y-54502400D02*
X12209400Y-53146600D01*
X16499800Y-44680600D02*
X17775000Y-43405400D01*
X4906200Y-50793300D02*
X4537100Y-50424200D01*
X17775000Y-43000000D02*
X20904900Y-43000000D01*
X9825000Y-55000000D02*
X8935800Y-55889200D01*
X21901800Y-49076800D02*
X22825000Y-50000000D01*
X9825000Y-54870700D02*
X9825000Y-55000000D01*
X15775000Y-49076800D02*
X21901800Y-49076800D01*
X15775000Y-44680600D02*
X16499800Y-44680600D01*
X15775000Y-48000000D02*
X15775000Y-44680600D01*
X4906200Y-53063600D02*
X4906200Y-50793300D01*
X7731800Y-55889200D02*
X4906200Y-53063600D01*
X15775000Y-50100200D02*
X14445900Y-50100200D01*
%TO.N,/SENSOR_3V3*%
X54775000Y-22000000D02*
X55675000Y-22000000D01*
X49825000Y-57000000D02*
X50725000Y-57000000D01*
X16775000Y-41000000D02*
X17675000Y-41000000D01*
X49825000Y-19000000D02*
X50725000Y-19000000D01*
X21825000Y-19000000D02*
X22725000Y-19000000D01*
X39775000Y-48000000D02*
X40675000Y-48000000D01*
X16775000Y-3000000D02*
X17675000Y-3000000D01*
X54775000Y-3000000D02*
X55675000Y-3000000D01*
X16775000Y-22000000D02*
X17675000Y-22000000D01*
X21825000Y-38000000D02*
X22725000Y-38000000D01*
X21825000Y-57000000D02*
X22725000Y-57000000D01*
X54775000Y-41000000D02*
X55675000Y-41000000D01*
X49825000Y-38000000D02*
X50725000Y-38000000D01*
%TO.N,/P5_FAULT_N*%
D18*
X48175000Y-38000000D02*
X48726900Y-37448100D01*
D20*
X48211200Y-28500200D02*
X47499800Y-28500200D01*
D18*
X48726900Y-37448100D02*
X48726900Y-36240300D01*
X48726900Y-36240300D02*
X46068800Y-33582200D01*
X46068800Y-33582200D02*
X46068800Y-29931200D01*
D20*
X47499800Y-28500200D02*
X47000000Y-29000000D01*
D18*
X46068800Y-29931200D02*
X47000000Y-29000000D01*
%TO.N,/P5_ILIM*%
X49896400Y-25011100D02*
X49896400Y-26256200D01*
X49894900Y-26430100D02*
X49325000Y-27000000D01*
X49896400Y-26256200D02*
X49894900Y-26257700D01*
X49894900Y-26257700D02*
X49894900Y-26430100D01*
%TO.N,/P5_3V3*%
D19*
X56615100Y-24000000D02*
X53775000Y-24000000D01*
X60940600Y-36884400D02*
X59659400Y-36884400D01*
X55076100Y-31000000D02*
X55076100Y-29698900D01*
X48825000Y-31000000D02*
X55076100Y-31000000D01*
X56615100Y-28159900D02*
X55775000Y-29000000D01*
X59287400Y-23582900D02*
X59287400Y-21487600D01*
X56615100Y-24000000D02*
X56615100Y-28159900D01*
X55076100Y-29698900D02*
X55775000Y-29000000D01*
X58870300Y-24000000D02*
X56615100Y-24000000D01*
X59659400Y-36884400D02*
X55775000Y-33000000D01*
X59287400Y-23582900D02*
X58870300Y-24000000D01*
X55076100Y-32301100D02*
X55076100Y-31000000D01*
X59287400Y-21487600D02*
X59775000Y-21000000D01*
X61825000Y-36000000D02*
X60940600Y-36884400D01*
X55775000Y-33000000D02*
X55076100Y-32301100D01*
%TO.N,/CS4*%
D18*
X31310200Y-19080000D02*
X34842500Y-15547700D01*
X52175000Y-18000000D02*
X52175000Y-16297900D01*
X34842500Y-15547700D02*
X34842500Y-15069600D01*
X52175000Y-16297900D02*
X48999400Y-16297900D01*
X48999400Y-16297900D02*
X45590800Y-12889300D01*
X45590800Y-12889300D02*
X45590800Y-10733900D01*
X27380000Y-19080000D02*
X31310200Y-19080000D01*
%TO.N,/P4_MISO*%
X52825000Y-8000000D02*
X52825000Y-7069700D01*
X52825000Y-8000000D02*
X52825000Y-11533000D01*
X55783600Y-2188600D02*
X59459000Y-5864000D01*
X52774700Y-2188600D02*
X55783600Y-2188600D01*
X59459000Y-5864000D02*
X59459000Y-11143000D01*
X51412300Y-5657000D02*
X51412300Y-3551000D01*
X52825000Y-7069700D02*
X51412300Y-5657000D01*
X51412300Y-3551000D02*
X52774700Y-2188600D01*
%TO.N,/MISO*%
X39825000Y-27021400D02*
X39825000Y-19335000D01*
X47700900Y-44591700D02*
X47700900Y-44674200D01*
X49005400Y-43287200D02*
X47700900Y-44591700D01*
X51046900Y-44654600D02*
X51046900Y-44054900D01*
X24074700Y-48551200D02*
X24074700Y-38384000D01*
X47700900Y-44674200D02*
X47746700Y-44720000D01*
X53370700Y-48364600D02*
X52070400Y-47064300D01*
X24074700Y-38384000D02*
X24869000Y-37589700D01*
X52070400Y-47064300D02*
X52070400Y-45678100D01*
X39825000Y-19335000D02*
X42620000Y-16540000D01*
X50279200Y-43287200D02*
X49005400Y-43287200D01*
X47746700Y-44720000D02*
X47891400Y-44720000D01*
X52070400Y-45678100D02*
X51046900Y-44654600D01*
X53370700Y-49640100D02*
X53370700Y-48364600D01*
X39825000Y-27021400D02*
X39825000Y-28000000D01*
X51046900Y-44054900D02*
X50279200Y-43287200D01*
%TO.N,/MCU_3V3*%
D17*
X17825000Y-18000000D02*
X18449300Y-18000000D01*
X53825000Y-56000000D02*
X53825000Y-54550000D01*
X52329200Y-48526200D02*
X52329200Y-52945800D01*
X17825000Y-37000000D02*
X19275000Y-35550000D01*
X51504700Y-47701700D02*
X52329200Y-48526200D01*
X42620000Y-11460000D02*
X38175000Y-15905000D01*
X21321900Y-53000000D02*
X19275000Y-53000000D01*
X17825000Y-56000000D02*
X19275000Y-54550000D01*
X53825000Y-16550000D02*
X53825000Y-18000000D01*
X53825000Y-37000000D02*
X52452500Y-35627500D01*
X24296700Y-32670500D02*
X21041200Y-35926000D01*
X24296700Y-22661300D02*
X24296700Y-32670500D01*
X19275000Y-54550000D02*
X19275000Y-53000000D01*
X38175000Y-28000000D02*
X41816300Y-31641300D01*
X22256500Y-51560400D02*
X22256500Y-52065400D01*
X52452500Y-34177500D02*
X52452500Y-35302400D01*
X47699800Y-19998500D02*
X45999800Y-18298500D01*
X52275000Y-34000000D02*
X52452500Y-34177500D01*
X21041200Y-35926000D02*
X19651000Y-35926000D01*
X19275000Y-16550000D02*
X19275000Y-15000000D01*
X38175000Y-15905000D02*
X38175000Y-28000000D01*
X17825000Y-37000000D02*
X17825000Y-38159400D01*
X17825000Y-18000000D02*
X19275000Y-16550000D01*
X19651000Y-35926000D02*
X19275000Y-35550000D01*
X22119900Y-20484500D02*
X24296700Y-22661300D01*
X45999800Y-14839800D02*
X42620000Y-11460000D01*
X18449300Y-18806100D02*
X20127700Y-20484500D01*
X52329200Y-52945800D02*
X52275000Y-53000000D01*
X52275000Y-15000000D02*
X53825000Y-16550000D01*
X51826500Y-19998500D02*
X47699800Y-19998500D01*
X18449300Y-18000000D02*
X18869300Y-17580000D01*
X22256500Y-52065400D02*
X21321900Y-53000000D01*
X53825000Y-54550000D02*
X52275000Y-53000000D01*
X19275000Y-35550000D02*
X19275000Y-34000000D01*
X52452500Y-35627500D02*
X52452500Y-35302400D01*
X45999800Y-18298500D02*
X45999800Y-14839800D01*
X20127700Y-20484500D02*
X22119900Y-20484500D01*
X41816300Y-31641300D02*
X41816300Y-48164800D01*
X18449300Y-18000000D02*
X18449300Y-18806100D01*
X53825000Y-18000000D02*
X51826500Y-19998500D01*
%TO.N,/MOSI*%
D18*
X13471800Y-27101300D02*
X13141600Y-27431500D01*
X13087200Y-27485900D02*
X6223500Y-27485900D01*
X48075700Y-33094400D02*
X46470500Y-31489200D01*
X46470500Y-30518800D02*
X47041800Y-29947500D01*
X56828500Y-46257400D02*
X56828500Y-44720300D01*
X13141600Y-27431500D02*
X13087200Y-27485900D01*
X47041800Y-29947500D02*
X47612700Y-29947500D01*
X48075700Y-34160200D02*
X48075700Y-33094400D01*
X4605100Y-25993100D02*
X3840300Y-26757900D01*
X65411200Y-14611300D02*
X65411200Y-7860800D01*
X6223500Y-27485900D02*
X4730700Y-25993100D01*
X43904100Y-15284100D02*
X43904100Y-21969900D01*
X61311200Y-18711300D02*
X65411200Y-14611300D01*
X51062200Y-25658400D02*
X51062200Y-21970400D01*
X3840300Y-26757900D02*
X3840300Y-28476100D01*
X48428600Y-29131600D02*
X48505500Y-29131600D01*
X11856900Y-23242900D02*
X11000000Y-22386000D01*
X20046900Y-21305800D02*
X20342900Y-21305800D01*
X4730700Y-25993100D02*
X4605100Y-25993100D01*
X11000000Y-22386000D02*
X11000000Y-20522300D01*
X3840300Y-28476100D02*
X3981700Y-28617500D01*
X3981700Y-28617500D02*
X3981700Y-40733700D01*
X50466700Y-26253900D02*
X51062200Y-25658400D01*
X65411200Y-7860800D02*
X64430400Y-6880000D01*
X18963500Y-20222400D02*
X20046900Y-21305800D01*
X13471800Y-24710800D02*
X13471800Y-27101300D01*
X49376000Y-28261200D02*
X50466700Y-28261200D01*
X48437900Y-27323100D02*
X49376000Y-28261100D01*
X54000000Y-41891800D02*
X54000000Y-40084500D01*
X46470500Y-31489200D02*
X46470500Y-30518800D01*
X43904100Y-21969900D02*
X48437900Y-26503700D01*
X31288200Y-20408300D02*
X35202700Y-16493800D01*
X50466700Y-28261200D02*
X50466700Y-26253900D01*
X50523400Y-28530300D02*
X50466700Y-28473600D01*
X47612700Y-29947500D02*
X48428600Y-29131600D01*
X12003900Y-23242900D02*
X13471800Y-24710800D01*
X48437900Y-26503700D02*
X48437900Y-27323100D01*
X51062200Y-21970400D02*
X54321300Y-18711300D01*
X54000000Y-40084500D02*
X48075700Y-34160200D01*
X29889800Y-20408300D02*
X31288200Y-20408300D01*
X50466700Y-28473600D02*
X50466700Y-28261200D01*
X3981700Y-40733700D02*
X5245700Y-41997700D01*
X12003900Y-23242900D02*
X11856900Y-23242900D01*
X54321300Y-18711300D02*
X61311200Y-18711300D01*
X11000000Y-20522300D02*
X11299900Y-20222400D01*
X11299900Y-20222400D02*
X18963500Y-20222400D01*
X42620000Y-14000000D02*
X43904100Y-15284100D01*
X48505500Y-29131600D02*
X49376000Y-28261100D01*
X49376000Y-28261100D02*
X49376000Y-28261200D01*
X56828500Y-44720300D02*
X54000000Y-41891800D01*
%TO.N,/P2_MOSI_DRV*%
X13564800Y-29899800D02*
X10724800Y-29899800D01*
X10724800Y-29899800D02*
X9825000Y-29000000D01*
X14438700Y-30773700D02*
X13564800Y-29899800D01*
%TO.N,/P3_MOSI_DRV*%
X4036900Y-52031800D02*
X4036900Y-55295400D01*
X12561200Y-54519900D02*
X11639500Y-55441600D01*
X4204500Y-51864200D02*
X4036900Y-52031800D01*
X10379700Y-49716600D02*
X10379700Y-48554700D01*
X11639500Y-55441600D02*
X11639500Y-55888400D01*
X10379700Y-48554700D02*
X9825000Y-48000000D01*
%TO.N,/CS5*%
X53485100Y-35383300D02*
X54526000Y-36424200D01*
X53485100Y-33758300D02*
X53421500Y-33758300D01*
X27380000Y-21620000D02*
X31923700Y-26163700D01*
X53421500Y-33758300D02*
X53420300Y-33758300D01*
D20*
X53420300Y-33414200D02*
X53420300Y-33758300D01*
D18*
X54813500Y-37289000D02*
X54269500Y-37833000D01*
D20*
X53421500Y-33758300D02*
X53421500Y-33781900D01*
X53026100Y-33020000D02*
X53420300Y-33414200D01*
X53485100Y-33758300D02*
X53485100Y-34008800D01*
D18*
X54813500Y-36911900D02*
X54813500Y-37289000D01*
X54269500Y-37833000D02*
X53008000Y-37833000D01*
D20*
X54526000Y-36424200D02*
X54526000Y-36624400D01*
X54526000Y-36624400D02*
X54813500Y-36911900D01*
D18*
X53026100Y-32968200D02*
X53026100Y-33020000D01*
X53485100Y-34008800D02*
X53485100Y-35383300D01*
X53008000Y-37833000D02*
X52175000Y-37000000D01*
X51986000Y-31928100D02*
X53026100Y-32968200D01*
%TO.N,/P5_MISO*%
X52825000Y-27000000D02*
X52825000Y-27174000D01*
X52164500Y-21723900D02*
X52164500Y-22704400D01*
X53020000Y-23559900D02*
X53020000Y-26805000D01*
X53020000Y-26805000D02*
X52825000Y-27000000D01*
X52825000Y-27174000D02*
X50267200Y-29731800D01*
X50267200Y-29731800D02*
X49696700Y-29731800D01*
X52164500Y-22704400D02*
X53020000Y-23559900D01*
%TO.N,/P6_OE_N*%
X47175000Y-50000000D02*
X47175000Y-52074600D01*
%TO.N,/P6_SCK_DRV*%
X61825000Y-44000000D02*
X61825000Y-45747500D01*
%TO.N,/P6_3V3*%
D19*
X55775000Y-51129600D02*
X55775000Y-52000000D01*
X55775000Y-48000000D02*
X55150600Y-48624400D01*
X59306700Y-40468300D02*
X59306700Y-43050000D01*
X48825000Y-48180200D02*
X50226400Y-46778800D01*
X57119100Y-46959100D02*
X57226300Y-46851900D01*
X55195600Y-50550200D02*
X55775000Y-51129600D01*
X60985100Y-52413600D02*
X60985100Y-54160100D01*
X55150600Y-48624400D02*
X55150600Y-50128200D01*
X55775000Y-52000000D02*
X60571500Y-52000000D01*
X59775000Y-40000000D02*
X59306700Y-40468300D01*
X56538000Y-46959100D02*
X57119100Y-46959100D01*
D21*
X55195600Y-50173200D02*
X55195600Y-50550200D01*
D19*
X48825000Y-50000000D02*
X48825000Y-48180200D01*
X53775000Y-44851900D02*
X53775000Y-44591100D01*
X60985100Y-54160100D02*
X61825000Y-55000000D01*
X56430800Y-46851900D02*
X56538000Y-46959100D01*
X53775000Y-44591100D02*
X53130500Y-44591100D01*
X53775000Y-44591100D02*
X53775000Y-43000000D01*
X55775000Y-48000000D02*
X55775000Y-46851900D01*
X55775000Y-46851900D02*
X53775000Y-44851900D01*
X55775000Y-46851900D02*
X56430800Y-46851900D01*
X57226300Y-46851900D02*
X59353500Y-46851900D01*
X60571500Y-52000000D02*
X60985100Y-52413600D01*
D21*
X55150600Y-50128200D02*
X55195600Y-50173200D01*
%TO.N,/P6_MOSI_DRV*%
D18*
X63718300Y-47724400D02*
X63718300Y-48950000D01*
X61825000Y-48000000D02*
X62478100Y-47346900D01*
X62478100Y-47346900D02*
X63340800Y-47346900D01*
X63340800Y-47346900D02*
X63718300Y-47724400D01*
%TO.N,/P6_SCK*%
X61825000Y-42350000D02*
X62377100Y-42350000D01*
X62377100Y-42350000D02*
X68026900Y-47999800D01*
X61825000Y-42350000D02*
X60175000Y-44000000D01*
X61825000Y-42000000D02*
X61825000Y-42350000D01*
%TO.N,/P6_MOSI*%
X61000000Y-48825000D02*
X62262300Y-48825000D01*
X62262300Y-48825000D02*
X63111500Y-47975800D01*
D20*
X61000000Y-51075400D02*
X61000000Y-51539800D01*
X61000000Y-51539800D02*
X61365800Y-51905600D01*
D18*
X61365800Y-51905600D02*
X61825000Y-52364800D01*
X60175000Y-48000000D02*
X61000000Y-48825000D01*
X61825000Y-52364800D02*
X61825000Y-53000000D01*
X61000000Y-48825000D02*
X61000000Y-51075400D01*
%TO.N,/P6_MISO*%
X51370700Y-56151200D02*
X51270000Y-56050500D01*
X46042300Y-45682300D02*
X46042300Y-55971500D01*
X51370700Y-57210100D02*
X51370700Y-56151200D01*
X52825000Y-46000000D02*
X52825000Y-45831000D01*
X50445500Y-42885500D02*
X48839100Y-42885500D01*
X46449500Y-56461500D02*
X47839000Y-57851000D01*
X50729800Y-57851000D02*
X51370700Y-57210100D01*
X51448600Y-43888600D02*
X50445500Y-42885500D01*
X46449500Y-56378700D02*
X46449500Y-56461500D01*
X47839000Y-57851000D02*
X50729800Y-57851000D01*
X51522400Y-55125900D02*
X51522400Y-51972600D01*
X48839100Y-42885500D02*
X46042300Y-45682300D01*
X51270000Y-56050500D02*
X51270000Y-55378300D01*
X51448600Y-44454600D02*
X51448600Y-43888600D01*
X51270000Y-55378300D02*
X51522400Y-55125900D01*
X52825000Y-45831000D02*
X51448600Y-44454600D01*
X46042300Y-55971500D02*
X46449500Y-56378700D01*
%TO.N,/P6_CS*%
X59424900Y-50249900D02*
X60175000Y-51000000D01*
X60175000Y-55000000D02*
X60175000Y-55990000D01*
%TO.N,/P5_SCK*%
X65189800Y-27113600D02*
X61625600Y-23549400D01*
X61625600Y-23549400D02*
X61825000Y-23350000D01*
X60175000Y-25000000D02*
X61625600Y-23549400D01*
X65189800Y-28310100D02*
X65189800Y-27113600D01*
X61825000Y-23350000D02*
X61825000Y-23000000D01*
%TO.N,/P5_MOSI*%
X64825600Y-29825000D02*
X61103100Y-29825000D01*
X61825000Y-33764500D02*
X61825000Y-34000000D01*
X65674800Y-28975800D02*
X64825600Y-29825000D01*
X61103100Y-29825000D02*
X61000000Y-29825000D01*
X61000000Y-29825000D02*
X60175000Y-29000000D01*
X61103100Y-29825000D02*
X61103100Y-33042600D01*
X61103100Y-33042600D02*
X61825000Y-33764500D01*
%TO.N,/P5_CS*%
D20*
X60876000Y-34048600D02*
X61000000Y-33924600D01*
D18*
X60175000Y-36000000D02*
X60876000Y-36000000D01*
D20*
X60876000Y-36000000D02*
X60876000Y-34048600D01*
D18*
X60347600Y-32172600D02*
X60175000Y-32000000D01*
X60347600Y-32977600D02*
X60347600Y-32172600D01*
X60347600Y-32977600D02*
X61000000Y-33630000D01*
X61000000Y-33630000D02*
X61000000Y-33924600D01*
%TO.N,/P1_OE_N*%
X20665700Y-12509300D02*
X21175000Y-12000000D01*
X20665700Y-16000000D02*
X20665700Y-12509300D01*
X11047500Y-12235000D02*
X9799500Y-10987000D01*
%TO.N,/P1_MOSI_DRV*%
X9825000Y-10000000D02*
X11357500Y-10000000D01*
X11357500Y-10000000D02*
X12891500Y-11534000D01*
%TO.N,/P1_3V3*%
D19*
X13275000Y-8236600D02*
X13275000Y-6500000D01*
X12775000Y-17000000D02*
X15775000Y-14000000D01*
X15577000Y-8693200D02*
X15146300Y-9123900D01*
D21*
X15146300Y-9123900D02*
X14162300Y-9123900D01*
D19*
X17775000Y-5513700D02*
X15577000Y-7711700D01*
D21*
X21537700Y-8537600D02*
X21537700Y-8820700D01*
D19*
X21500000Y-8499900D02*
X21500000Y-5000000D01*
X7550200Y-17887500D02*
X8937500Y-17887500D01*
X15775000Y-14000000D02*
X16121400Y-13653600D01*
X4007700Y-14157500D02*
X4007700Y-12543200D01*
X17775000Y-5000000D02*
X17775000Y-5513700D01*
D21*
X21500000Y-8499900D02*
X21537700Y-8537600D01*
D19*
X15577000Y-7711700D02*
X15577000Y-8693200D01*
X21537700Y-8820700D02*
X21537700Y-10712700D01*
D21*
X4007700Y-14157500D02*
X7550200Y-17700000D01*
D19*
X8937500Y-17887500D02*
X9825000Y-17000000D01*
X9825000Y-17000000D02*
X12775000Y-17000000D01*
X22956900Y-3799200D02*
X22700800Y-3799200D01*
X16121400Y-13653600D02*
X16121400Y-10346400D01*
D21*
X7550200Y-17700000D02*
X7550200Y-17887500D01*
D19*
X15775000Y-9752600D02*
X15775000Y-10000000D01*
X21500000Y-5000000D02*
X17775000Y-5000000D01*
X21537700Y-10712700D02*
X22825000Y-12000000D01*
X16121400Y-10346400D02*
X15775000Y-10000000D01*
X4007700Y-12543200D02*
X4658300Y-11892600D01*
X15146300Y-9123900D02*
X15775000Y-9752600D01*
D21*
X14162300Y-9123900D02*
X13275000Y-8236600D01*
D19*
X22700800Y-3799200D02*
X21500000Y-5000000D01*
%TO.N,/IO_ENABLE*%
D18*
X34658100Y-32975900D02*
X33987000Y-32304800D01*
X35825000Y-17809900D02*
X35826600Y-17809900D01*
X35825000Y-28000000D02*
X36841000Y-29016000D01*
X28205500Y-7581700D02*
X27380000Y-7581700D01*
X35825000Y-28000000D02*
X35825000Y-17809900D01*
X36841000Y-33236200D02*
X34658100Y-33236200D01*
X35825000Y-17809900D02*
X35825000Y-15201200D01*
X23493400Y-31817500D02*
X22349900Y-31817500D01*
X34658100Y-51820900D02*
X34658100Y-33236200D01*
X34658100Y-33236200D02*
X34658100Y-32975900D01*
X22349900Y-31817500D02*
X21301100Y-32866300D01*
X36841000Y-29016000D02*
X36841000Y-33236200D01*
X35825000Y-15201200D02*
X28205500Y-7581700D01*
X27380000Y-6380000D02*
X27380000Y-7581700D01*
%TO.N,/P4_OE_N*%
X47175000Y-12000000D02*
X47175000Y-13580600D01*
%TO.N,/CS2*%
X14366300Y-35191300D02*
X14366300Y-34774300D01*
X16175000Y-37000000D02*
X16175000Y-38085600D01*
X22293300Y-39302200D02*
X25368400Y-36227100D01*
X14366300Y-34774300D02*
X13365300Y-34774300D01*
X25368400Y-16011600D02*
X27380000Y-14000000D01*
X16175000Y-37000000D02*
X14366300Y-35191300D01*
X13365300Y-34774300D02*
X13065500Y-34474500D01*
X17391600Y-39302200D02*
X22293300Y-39302200D01*
X25368400Y-36227100D02*
X25368400Y-16011600D01*
X16175000Y-38085600D02*
X17391600Y-39302200D01*
%TO.N,/P2_CS_DRV*%
X9825000Y-31503000D02*
X9825000Y-32000000D01*
X9342900Y-31020900D02*
X9825000Y-31503000D01*
%TO.N,/P2_FAULT_N*%
X18453400Y-26181100D02*
X21621800Y-26181100D01*
X17557900Y-38900500D02*
X17000000Y-38342600D01*
X18122300Y-26512200D02*
X18453400Y-26181100D01*
D20*
X22581800Y-27776000D02*
X23000000Y-28194200D01*
D18*
X23000000Y-28194200D02*
X23000000Y-29000000D01*
X20175000Y-38000000D02*
X19274500Y-38900500D01*
X21621800Y-26181100D02*
X21621800Y-25558700D01*
X21621800Y-25558700D02*
X21934000Y-25246500D01*
X19274500Y-38900500D02*
X17557900Y-38900500D01*
D20*
X21621800Y-27776000D02*
X22581800Y-27776000D01*
D18*
X16969500Y-36569900D02*
X16969500Y-33168700D01*
X16969500Y-33168700D02*
X18122300Y-32015900D01*
X17000000Y-36600400D02*
X16969500Y-36569900D01*
X18122300Y-32015900D02*
X18122300Y-26512200D01*
X21621800Y-27776000D02*
X21621800Y-26181100D01*
X17000000Y-38342600D02*
X17000000Y-36600400D01*
%TO.N,/P2_ILIM*%
X22817000Y-23849200D02*
X22817000Y-26508000D01*
X22817000Y-26508000D02*
X22325000Y-27000000D01*
%TO.N,/P4_3V3*%
D19*
X55076100Y-13301100D02*
X55775000Y-14000000D01*
X57820000Y-7863600D02*
X58137500Y-8181100D01*
X55775000Y-10000000D02*
X55076100Y-10698900D01*
X48825000Y-12000000D02*
X49059700Y-12234700D01*
X53775000Y-5000000D02*
X53775000Y-5529600D01*
X56964500Y-15188900D02*
X59710400Y-17934800D01*
X59710400Y-17934800D02*
X60890200Y-17934800D01*
X57820000Y-7863600D02*
X56964500Y-8719100D01*
X53775000Y-5529600D02*
X56964500Y-8719100D01*
X56964500Y-10000000D02*
X56964500Y-15188900D01*
X55076100Y-10698900D02*
X55076100Y-12234700D01*
X58275000Y-6500000D02*
X58275000Y-7408600D01*
X60890200Y-17934800D02*
X61825000Y-17000000D01*
X55775000Y-10000000D02*
X56964500Y-10000000D01*
X49059700Y-12234700D02*
X55076100Y-12234700D01*
X58275000Y-7408600D02*
X57820000Y-7863600D01*
X56964500Y-8719100D02*
X56964500Y-10000000D01*
X55076100Y-12234700D02*
X55076100Y-13301100D01*
%TO.N,/P4_SCK*%
D18*
X62675000Y-4500000D02*
X61825000Y-5350000D01*
X61825000Y-6500000D02*
X64465700Y-9140700D01*
X61825000Y-5350000D02*
X61825000Y-6500000D01*
%TO.N,/P4_MOSI*%
X61608100Y-12191600D02*
X60175000Y-10758500D01*
X60175000Y-10758500D02*
X60175000Y-10000000D01*
X62603800Y-14221200D02*
X62603800Y-12544000D01*
X64778500Y-9975800D02*
X62407100Y-12347200D01*
X62407100Y-12347200D02*
X62251400Y-12191600D01*
X62603800Y-12544000D02*
X62407100Y-12347200D01*
X62251400Y-12191600D02*
X61608100Y-12191600D01*
X61825000Y-15000000D02*
X62603800Y-14221200D01*
%TO.N,/P4_CS*%
X60175000Y-17000000D02*
X59468400Y-16293400D01*
X60175000Y-13000000D02*
X60175000Y-12022000D01*
X59468400Y-16293400D02*
X59468400Y-13706600D01*
X59468400Y-13706600D02*
X60175000Y-13000000D01*
%TO.N,/P3_SCK*%
X8175000Y-45423700D02*
X4635800Y-48962900D01*
X9825000Y-42000000D02*
X9825000Y-42350000D01*
X9825000Y-42350000D02*
X8175000Y-44000000D01*
X8175000Y-44000000D02*
X8175000Y-45423700D01*
%TO.N,/P3_MOSI*%
X8175000Y-48000000D02*
X8004400Y-47829400D01*
X9825000Y-53000000D02*
X9096900Y-52271900D01*
X9096900Y-52271900D02*
X9096900Y-48921900D01*
X9096900Y-48921900D02*
X8175000Y-48000000D01*
X8004400Y-47829400D02*
X8004400Y-46996500D01*
%TO.N,/P3_MISO*%
X14967200Y-46471400D02*
X15055600Y-46383000D01*
X10946400Y-46326800D02*
X11091000Y-46471400D01*
X18825000Y-46000000D02*
X18825000Y-47740000D01*
X11091000Y-46471400D02*
X14967200Y-46471400D01*
%TO.N,/P3_CS*%
X7453100Y-51453300D02*
X7721700Y-51453300D01*
X7453100Y-54278100D02*
X7453100Y-51453300D01*
X5564500Y-49564700D02*
X4386700Y-49564700D01*
X8175000Y-55000000D02*
X7453100Y-54278100D01*
X7721700Y-51453300D02*
X8175000Y-51000000D01*
X7453100Y-51453300D02*
X5564500Y-49564700D01*
X4027200Y-49205200D02*
X4027200Y-45361500D01*
X4027200Y-45361500D02*
X4513700Y-44875000D01*
X4386700Y-49564700D02*
X4027200Y-49205200D01*
%TO.N,/P4_CS_DRV*%
X61825000Y-13000000D02*
X60743200Y-14081800D01*
%TO.N,/CS6*%
X50966800Y-58252700D02*
X52175000Y-57044500D01*
X52175000Y-57044500D02*
X52175000Y-56000000D01*
X42620000Y-53200000D02*
X47672700Y-58252700D01*
X47672700Y-58252700D02*
X50966800Y-58252700D01*
X42620000Y-21620000D02*
X42620000Y-53200000D01*
X52175000Y-56000000D02*
X52175000Y-54033900D01*
%TO.N,/P6_CS_DRV*%
X58137500Y-54869700D02*
X58137500Y-53774900D01*
X61466900Y-56622900D02*
X59890700Y-56622900D01*
X63287900Y-54801900D02*
X61466900Y-56622900D01*
X59890700Y-56622900D02*
X58137500Y-54869700D01*
X63287900Y-52462900D02*
X63287900Y-54801900D01*
X61825000Y-51000000D02*
X63287900Y-52462900D01*
%TO.N,/P2_SCK*%
X3036900Y-26972100D02*
X1304700Y-28704300D01*
X3036900Y-26425300D02*
X3036900Y-26972100D01*
X8175000Y-25000000D02*
X5009000Y-25000000D01*
X1304700Y-28704300D02*
X1304700Y-30104300D01*
X9825000Y-23350000D02*
X8175000Y-25000000D01*
X5009000Y-25000000D02*
X4819300Y-25189700D01*
X4819300Y-25189700D02*
X4272500Y-25189700D01*
X4272500Y-25189700D02*
X3036900Y-26425300D01*
X9825000Y-23000000D02*
X9825000Y-23350000D01*
%TO.N,/P2_MOSI*%
X10557000Y-33268000D02*
X9825000Y-34000000D01*
X10557000Y-31251000D02*
X10557000Y-33268000D01*
X10110300Y-31101800D02*
X10110300Y-30935300D01*
D20*
X10259500Y-31251000D02*
X10557000Y-31251000D01*
D18*
X10110300Y-30935300D02*
X8175000Y-29000000D01*
X8175000Y-29000000D02*
X6955400Y-29000000D01*
X6955400Y-29000000D02*
X6255300Y-28299900D01*
D20*
X10110300Y-31101800D02*
X10259500Y-31251000D01*
%TO.N,/P2_MISO*%
D18*
X19907900Y-32273500D02*
X19907900Y-28082900D01*
X19907900Y-28082900D02*
X18825000Y-27000000D01*
%TO.N,/P2_CS*%
X4530700Y-28767500D02*
X7763200Y-32000000D01*
X8920100Y-32745100D02*
X8920100Y-35254900D01*
X8175000Y-32000000D02*
X8920100Y-32745100D01*
X7763200Y-32000000D02*
X8175000Y-32000000D01*
X8920100Y-35254900D02*
X8175000Y-36000000D01*
X4530700Y-26987500D02*
X4530700Y-28767500D01*
%TO.N,/P3_FAULT_N*%
X23535500Y-48862800D02*
X23535500Y-52100000D01*
X23000000Y-48327300D02*
X23535500Y-48862800D01*
X22487900Y-53147600D02*
X22487900Y-54687100D01*
X23228300Y-47771700D02*
X23228300Y-45540800D01*
X22487900Y-54687100D02*
X20175000Y-57000000D01*
X23535500Y-52100000D02*
X22487900Y-53147600D01*
X23000000Y-48000000D02*
X23000000Y-48327300D01*
X23000000Y-48000000D02*
X23228300Y-47771700D01*
%TO.N,/P3_ILIM*%
X22325000Y-46000000D02*
X22325000Y-42849200D01*
%TO.N,/P1_FAULT_N*%
X23000000Y-10000000D02*
X23570900Y-10570900D01*
X23000000Y-10000000D02*
X23000000Y-8794500D01*
X23570900Y-10570900D02*
X23570900Y-15604100D01*
X23570900Y-15604100D02*
X20175000Y-19000000D01*
%TO.N,/P1_ILIM*%
X22810800Y-4849200D02*
X22325000Y-5335000D01*
X22325000Y-5335000D02*
X22325000Y-8000000D01*
%TO.N,/CS1*%
X17974300Y-16501700D02*
X18477600Y-15998400D01*
X16175000Y-18000000D02*
X16175000Y-16406200D01*
X18477600Y-10708300D02*
X19656100Y-9529800D01*
X18477600Y-15998400D02*
X18477600Y-10708300D01*
X16175000Y-16406200D02*
X16270500Y-16501700D01*
X16270500Y-16501700D02*
X17974300Y-16501700D01*
%TO.N,/P1_CS_DRV*%
X10567900Y-13000000D02*
X13017400Y-15449500D01*
X9825000Y-13000000D02*
X10567900Y-13000000D01*
%TO.N,/CS3*%
X22820900Y-57790100D02*
X26041600Y-54569400D01*
X16175000Y-56000000D02*
X17965100Y-57790100D01*
X15246800Y-55799900D02*
X15974900Y-55799900D01*
X15974900Y-55799900D02*
X16175000Y-56000000D01*
X26041600Y-17878400D02*
X27380000Y-16540000D01*
X17965100Y-57790100D02*
X22820900Y-57790100D01*
X26041600Y-54569400D02*
X26041600Y-17878400D01*
%TO.N,/P3_CS_DRV*%
X12703300Y-52580100D02*
X11123200Y-51000000D01*
X13533100Y-53056800D02*
X13533100Y-53176000D01*
X11123200Y-51000000D02*
X9825000Y-51000000D01*
D20*
X13056400Y-52580100D02*
X12703300Y-52580100D01*
D18*
X13533100Y-53176000D02*
X14137500Y-53780400D01*
D20*
X13533100Y-53056800D02*
X13056400Y-52580100D01*
%TO.N,/P5_OE_N*%
D18*
X57326500Y-31053300D02*
X57326500Y-27049800D01*
X56918700Y-31461100D02*
X57326500Y-31053300D01*
X48733300Y-33232500D02*
X48733300Y-32558300D01*
X48733300Y-32558300D02*
X47175000Y-31000000D01*
X48003000Y-30172000D02*
X49233400Y-30172000D01*
X49233400Y-30172000D02*
X49419100Y-30357700D01*
X53846500Y-27461600D02*
X54727600Y-27461600D01*
X50950400Y-30357700D02*
X53846500Y-27461600D01*
X49419100Y-30357700D02*
X50950400Y-30357700D01*
X47175000Y-31000000D02*
X48003000Y-30172000D01*
%TO.N,/P5_CS_DRV*%
X62147700Y-33000000D02*
X61825000Y-32677300D01*
X61825000Y-32677300D02*
X61825000Y-32000000D01*
%TO.N,/P5_MOSI_DRV*%
X61036500Y-28211500D02*
X61825000Y-29000000D01*
X58941600Y-29145900D02*
X58941600Y-29024700D01*
X58941600Y-29024700D02*
X59754800Y-28211500D01*
X59754800Y-28211500D02*
X61036500Y-28211500D01*
%TO.N,/P4_FAULT_N*%
X47000000Y-10000000D02*
X46930700Y-9930700D01*
X44957000Y-12884800D02*
X47207000Y-15134800D01*
X47207000Y-18032000D02*
X48175000Y-19000000D01*
X44957000Y-10467300D02*
X44957000Y-12884800D01*
X46930700Y-6532000D02*
X49500000Y-3962700D01*
X45493600Y-9930700D02*
X44957000Y-10467300D01*
X46930700Y-9930700D02*
X46930700Y-6532000D01*
X49500000Y-3962700D02*
X49500000Y-3097000D01*
X47207000Y-15134800D02*
X47207000Y-18032000D01*
X46930700Y-9930700D02*
X45493600Y-9930700D01*
%TO.N,/P4_ILIM*%
X49325000Y-8000000D02*
X49325000Y-6797900D01*
%TO.N,/P1_MISO*%
X18825000Y-9272800D02*
X18051700Y-10046100D01*
X18825000Y-8000000D02*
X18825000Y-9272800D01*
X15141100Y-12798900D02*
X10467200Y-8125000D01*
X15384900Y-12798900D02*
X15141100Y-12798900D01*
%TO.N,/P1_SCK*%
X7325000Y-6983300D02*
X4304600Y-10003700D01*
X8175000Y-4850000D02*
X8175000Y-6500000D01*
X7325000Y-4000000D02*
X8175000Y-4850000D01*
X7325000Y-4000000D02*
X7325000Y-6983300D01*
%TO.N,/P1_MOSI*%
X8175000Y-10000000D02*
X8175000Y-8727800D01*
X9000000Y-13607100D02*
X9000000Y-10825000D01*
X9825000Y-15000000D02*
X9825000Y-14432100D01*
X9825000Y-14432100D02*
X9000000Y-13607100D01*
X9000000Y-10825000D02*
X8175000Y-10000000D01*
%TO.N,/P1_CS*%
D20*
X8876000Y-15048600D02*
X9000000Y-14924600D01*
D18*
X4213900Y-10796000D02*
X3674000Y-10256100D01*
X8175000Y-13491400D02*
X8175000Y-13000000D01*
X5971000Y-10796000D02*
X4213900Y-10796000D01*
D20*
X8876000Y-17000000D02*
X8876000Y-15048600D01*
D18*
X8175000Y-17000000D02*
X8876000Y-17000000D01*
X9000000Y-14924600D02*
X9000000Y-14316400D01*
X3674000Y-9574900D02*
X3675500Y-9573400D01*
X3675500Y-9573400D02*
X3675500Y-8142600D01*
X3675500Y-8142600D02*
X4324500Y-7493600D01*
X9000000Y-14316400D02*
X8175000Y-13491400D01*
X3674000Y-10256100D02*
X3674000Y-9574900D01*
X8175000Y-13000000D02*
X5971000Y-10796000D01*
%TO.N,/P4_MOSI_DRV*%
X61825000Y-10000000D02*
X61172000Y-10653000D01*
X61172000Y-10653000D02*
X60995200Y-10653000D01*
%TO.N,/P1_SCK_DRV*%
X9825000Y-6500000D02*
X10295400Y-6029600D01*
X10295400Y-6029600D02*
X10295400Y-5389000D01*
X20724600Y-7005200D02*
X18836400Y-7005200D01*
X18836400Y-7005200D02*
X18466600Y-6635400D01*
X24304200Y-8914600D02*
X24304200Y-818100D01*
%TO.N,/P4_SCK_DRV*%
X50250000Y-4143400D02*
X50250000Y-8173200D01*
X61099400Y-1274400D02*
X53119000Y-1274400D01*
X53119000Y-1274400D02*
X50250000Y-4143400D01*
X64325000Y-4500000D02*
X61099400Y-1274400D01*
%TO.N,/P5_SCK_DRV*%
X61825000Y-25000000D02*
X61825000Y-25998300D01*
X59378800Y-25998300D02*
X59330500Y-25950000D01*
X61825000Y-25998300D02*
X59378800Y-25998300D01*
%TO.N,/P6_FAULT_N*%
D20*
X48124800Y-47500200D02*
X47499800Y-47500200D01*
X47499800Y-47500200D02*
X47000000Y-48000000D01*
D18*
X48124800Y-47500200D02*
X48737800Y-46887200D01*
X46446000Y-48554000D02*
X47000000Y-48000000D01*
X48175000Y-57000000D02*
X46446000Y-55271000D01*
X46446000Y-55271000D02*
X46446000Y-48554000D01*
%TO.N,/P6_ILIM*%
X50018000Y-45307000D02*
X50018000Y-43928700D01*
X49325000Y-46000000D02*
X50018000Y-45307000D01*
%TD*%
M02*
